<?xml version="1.0" encoding="utf-8"?>
<svg id="master-artboard" viewBox="0 0 91.3436508178711 133.43641662597656" version="1.1" xmlns="http://www.w3.org/2000/svg" x="0px" y="0px" width="91.3436508178711px" height="133.43641662597656px" enable-background="new 0 0 1400 980"><rect id="ee-background" x="0" y="0" width="91.3436508178711" height="133.43641662597656" style="fill: white; fill-opacity: 0; pointer-events: none;"/>

<path d="M 191.399994 800.5 H 267.699997 V 863.799999 H 191.399994 V 800.5 Z" fill="#F2633A" transform="matrix(1, 0, 0, 1, -185.56480407714838, -743.4720458984375)"/><path d="M 191.399994 800.5 H 201.399994 V 863.799999 H 191.399994 V 800.5 Z" fill="#F8A168" transform="matrix(1, 0, 0, 1, -185.56480407714838, -743.4720458984375)"/><path fill="#000432" d="M270.4,866.5h-81.7v-68.7h81.7V866.5z M194.1,861.1H265v-57.9h-70.9V861.1z" transform="matrix(1, 0, 0, 1, -185.56480407714838, -743.4720458984375)"/><path fill="#FCB643" d="M199.8,780.5v20h11.4v-20c0-10.1,8.2-18.3,18.3-18.3h0c10.1,0,18.3,8.2,18.3,18.3v20h11.4v-20&#10;&#9;&#9;&#9;c0-16.4-13.3-29.7-29.7-29.7h0C213.1,750.8,199.8,764.1,199.8,780.5z" transform="matrix(1, 0, 0, 1, -185.56480407714838, -743.4720458984375)"/><path fill="#FFE1A7" d="M232.7,751c-1.1-0.1-2.1-0.2-3.2-0.2h0c-16.4,0-29.7,13.3-29.7,29.7v20h6.4v-20&#10;&#9;&#9;&#9;&#9;C206.2,765.2,217.8,752.6,232.7,751z" transform="matrix(1, 0, 0, 1, -185.56480407714835, -743.4720458984375)"/><path fill="#FFE1A7" d="M236,762.2L236,762.2c-1.1,0-2.2,0.1-3.2,0.3c8.6,1.5,15.1,9,15.1,18v20h6.4v-20&#10;&#9;&#9;&#9;&#9;C254.2,770.4,246,762.2,236,762.2z" transform="matrix(1, 0, 0, 1, -185.56480407714835, -743.4720458984375)"/><path fill="#000432" d="M261.9,803.2h-16.8v-22.7c0-8.6-7-15.6-15.6-15.6c-8.6,0-15.6,7-15.6,15.6v22.7h-16.8v-22.7&#10;&#9;&#9;&#9;c0-17.9,14.5-32.4,32.4-32.4s32.4,14.5,32.4,32.4V803.2z M250.5,797.8h6v-17.3c0-14.9-12.1-27-27-27c-14.9,0-27,12.1-27,27v17.3h6&#10;&#9;&#9;&#9;v-17.3c0-11.6,9.4-21,21-21c11.6,0,21,9.4,21,21V797.8z" transform="matrix(1, 0, 0, 1, -185.56480407714838, -743.4720458984375)"/><path fill="#E7F6FD" d="M239.3,847.5l-4.3-10.1c2.6-1.7,4.3-4.7,4.3-8.1c0-5.4-4.4-9.7-9.7-9.7s-9.7,4.4-9.7,9.7&#10;&#9;&#9;&#9;c0,3.4,1.7,6.3,4.3,8.1l-4.3,10.1H239.3z" transform="matrix(1, 0, 0, 1, -185.56480407714838, -743.4720458984375)"/><path fill="#000432" d="M243.4,850.3h-27.7l5.1-12c-2.4-2.3-3.7-5.5-3.7-8.9c0-6.9,5.6-12.4,12.4-12.4c6.9,0,12.4,5.6,12.4,12.4&#10;&#9;&#9;&#9;c0,3.4-1.4,6.6-3.7,8.9L243.4,850.3z M223.9,844.8h11.4l-3.6-8.4l1.9-1.2c1.9-1.3,3.1-3.5,3.1-5.8c0-3.9-3.2-7-7-7&#10;&#9;&#9;&#9;c-3.9,0-7,3.2-7,7c0,2.3,1.2,4.5,3.1,5.8l1.9,1.2L223.9,844.8z" transform="matrix(1, 0, 0, 1, -185.56480407714838, -743.4720458984375)"/>
</svg>