<?xml version="1.0" encoding="utf-8"?>
<svg id="master-artboard" viewBox="0 0 182.10931396484375 281.52569580078125" version="1.1" xmlns="http://www.w3.org/2000/svg" x="0px" y="0px" style="enable-background:new 0 0 1400 980;" width="182.10931396484375px" height="281.52569580078125px" xmlns:xlink="http://www.w3.org/1999/xlink"><rect id="ee-background" x="0" y="0" width="182.10931396484375" height="281.52569580078125" style="fill: white; fill-opacity: 0; pointer-events: none;"/>

<defs>
			<path d="M 0 0 H 1399.699951 V 980 H 0 V 0 Z" id="SVGID_1_"/>
		</defs><clipPath id="SVGID_2_">
			<use style="overflow:visible;" xlink:href="#SVGID_1_"/>
		</clipPath>
<path class="st6" d="M232.8,563.5v9.5v9.5v101.4h19v-67.8l7.5-7.5v1.1v69.4h13v-46.4l8.4-8.4v0.8v4.1v43.5h5.1l3.1,33.1&#10;&#9;&#9;c0,1.4,1.1,2.6,2.6,2.6h1.4v-2.8c0-0.5,0.2-0.9,0.4-1.3c0.3,38.5,2.9,89.7,12.5,128.9l6.9-1.7c-0.6-2.3-1.1-4.7-1.6-7.2h46.6&#10;&#9;&#9;c0.9,2.7,1.8,5.4,2.8,8.1l6.7-2.4c-11.6-32.2-19-73.8-23.6-108.9v-12.7v-2.8c0-0.9-0.9-1.7-2.1-1.9c0-0.3-0.1-0.6-0.1-0.9&#10;&#9;&#9;c1.7,0.1,3.1,1.3,3.1,2.7v2.8h1c1.4,0,2.6-1.1,2.6-2.6l3.1-33.1h1.7v-2.8c0.7-0.5,1.1-1.2,1.1-2.1v-0.9c0-0.9-0.4-1.7-1.1-2.1&#10;&#9;&#9;v-35.6V625v-0.8l8.4,8.4v46.4h13v-69.4h0v-1.1l7.5,7.5v67.8h19V582.5V573v-9.5h-82.1H232.8z M251.8,582.5h15.7l-15.7,15.7V582.5z&#10;&#9;&#9; M272.3,609.7H283l-10.7,10.7V609.7z M295.6,629.1l-6.7,6.7v-6.7H295.6z M343.2,664.3c0-0.1,0-0.1-0.1-0.2c0.2,0.1,0.4,0.1,0.6,0.2&#10;&#9;&#9;H343.2z M328.6,659.6l-0.3,0.7c-0.1-0.4-0.1-0.8-0.2-1.2c0.2,0.1,0.5,0.1,0.7,0.2L328.6,659.6z M315.1,663.9l0.4,0.4h-0.7&#10;&#9;&#9;L315.1,663.9z M313,655.7l1.2-1.2l1.4,1.3l-0.2,0.2c-0.5-0.2-0.9-0.3-0.9-0.3c-0.7,0.8-1.7,1.3-2.3,1.5l-0.6-0.3c0,0-0.4,0.1-1,0.1&#10;&#9;&#9;l0.2-0.3c0,0-0.4-1.6-0.6-3.1C311.2,654.1,312.3,654.7,313,655.7z M300.5,704c0-0.3,0-0.6,0-1c1.1,0.5,1.9,1.4,1.9,2.5v0.2h-0.9&#10;&#9;&#9;v-0.2C301.5,704.9,301.1,704.3,300.5,704z M327,664.3l0.3-0.3l0.4,0.3H327z M344.6,652.6c-0.1,0-0.2,0-0.4,0l0.4-0.5V652.6z&#10;&#9;&#9; M323.2,641.6l-0.3,0.2l-0.7,1.4c-0.1-0.5-0.2-1.2-0.3-1.8C322.2,641.4,322.7,641.5,323.2,641.6z M299.9,664l0.3,0.3h-0.6&#10;&#9;&#9;L299.9,664z M288.9,664.3v-1l1.1,1H288.9z M301.5,723.9v-12h33.8c0.2,1.7,0.4,3.4,0.6,5.2v6.8c0,0.6,0.4,1.2,1.1,1.6&#10;&#9;&#9;c0.5,3.7,1,7.4,1.6,11.2h-37.3c-0.2-3.9-0.3-7.7-0.4-11.5C301.2,724.8,301.5,724.4,301.5,723.9z M301.6,742.8h37.9&#10;&#9;&#9;c1.7,10.8,3.6,21.8,5.8,32.8h-41.4C302.8,764.6,302.1,753.6,301.6,742.8z M339.2,642.3c-0.8-0.1-1.7-0.4-2.6-0.7l1.4-1.7&#10;&#9;&#9;c0,0-0.5-2.1-0.7-3.7l3.5,3.5c-1,0.7-2,0.9-2,0.9C338.7,641.2,338.9,641.8,339.2,642.3z M330.2,629.1l3.9,3.9&#10;&#9;&#9;c-0.5,0.1-2.1,0.2-4.1-0.2c0-0.4,0-0.8,0-1.1l-3-1.6c0,0-3.7,0.6-7.4-1.1l-3.6,3.1l-1.6,4.1l1.2,1.2c-1.3-0.1-2.9-0.4-4.5-1.2&#10;&#9;&#9;l-3.6,3.1l-1,2.7l-1.9,1.2l-2.1,3.9l2,2.6c-1.4-0.1-3.2-0.4-5.1-1.2l-3.6,3.1l-0.9,2.4c-1.2-0.1-2.6-0.5-4.1-1.1l-2.2,1.9v-11.5&#10;&#9;&#9;l14.4-14.4h15.4h1H330.2z M309.8,818c-2.2-11.5-4-23.8-5.3-36.2h42c2.7,12.5,5.7,24.7,9.2,36.2H309.8z M344.6,635.8l-6.7-6.7h6.7&#10;&#9;&#9;V635.8z M318.7,621H284l11.3-11.3h23.4h19.6l11.3,11.3H318.7z M361.2,620.4l-10.7-10.7h10.7V620.4z M381.7,598.2l-15.7-15.7h15.7&#10;&#9;&#9;V598.2z M348.2,582.5l14.2,14.2h-43.7h-47.5l14.2-14.2h33.3H348.2z" style="fill: rgb(35, 35, 51); opacity: 0.1;" transform="matrix(1, 0, 0, 1, -221.5958404541015, -551.3338012695312)"/>



<g transform="matrix(1, 0, 0, 1, -221.5958404541015, -551.3338012695312)">
		<g>
			<g>
				<g>
					<g>
						
							<path d="M 288.200012 620.599976 H 293.600012 V 641.699976 H 288.200012 V 620.599976 Z" transform="matrix(0.7072 0.7071 -0.7071 0.7072 531.4083 -20.8729)" class="st20" style="fill: rgb(73, 52, 29);"/>
						
							<path d="M 333.299988 620.599976 H 338.699988 V 641.699976 H 333.299988 V 620.599976 Z" transform="matrix(-0.7071 0.7071 -0.7071 -0.7071 1019.8962 839.7559)" class="st21" style="fill: rgb(58, 40, 23);"/>
					</g>
					<path d="M 341.299988 621.700012 H 349.499988 V 669.300011 H 341.299988 V 621.700012 Z" class="st22" style="fill: rgb(22, 15, 11);"/>
					<path d="M 277.5 621.700012 H 285.7 V 669.300011 H 277.5 V 621.700012 Z" class="st23" style="fill: rgb(35, 25, 17);"/>
				</g>
				<g>
					<g>
						
							<path d="M 273.100006 598 H 281.800006 V 631.599998 H 273.100006 V 598 Z" transform="matrix(0.7071 0.7071 -0.7071 0.7071 515.9755 -16.1259)" class="st24" style="fill: rgb(96, 69, 37);"/>
						
							<path d="M 345.200012 598 H 353.900012 V 631.599998 H 345.200012 V 598 Z" transform="matrix(-0.7071 0.7071 -0.7071 -0.7071 1031.353 802.4207)" class="st25" style="fill: rgb(81, 58, 32);"/>
					</g>
					<path d="M 357.899994 599.900024 H 370.899994 V 675.800026 H 357.899994 V 599.900024 Z" class="st26" style="fill: rgb(43, 31, 21);"/>
					<path d="M 256 599.900024 H 269 V 675.800026 H 256 V 599.900024 Z" class="st27" style="fill: rgb(58, 42, 27);"/>
				</g>
				<g>
					<g>
						
							<path d="M 254.5 566.900024 H 267.2 V 616.000023 H 254.5 V 566.900024 Z" transform="matrix(0.7072 0.707 -0.707 0.7072 494.5941 -11.2106)" class="st14" style="fill: rgb(110, 81, 40);"/>
						
							<path d="M 359.799988 566.900024 H 372.499988 V 616.000023 H 359.799988 V 566.900024 Z" transform="matrix(-0.7071 0.7071 -0.7071 -0.7071 1043.2484 750.8436)" class="st24" style="fill: rgb(96, 69, 37);"/>
					</g>
					<path d="M 378.5 569.700012 H 397.5 V 680.700012 H 378.5 V 569.700012 Z" class="st28" style="fill: rgb(56, 41, 25);"/>
					<path d="M 229.5 569.700012 H 248.5 V 680.700012 H 229.5 V 569.700012 Z" class="st8" style="fill: rgb(73, 54, 32);"/>
				</g>
				<g>
					<g>
						<path d="M 294.100006 677.5 H 330.500008 V 683.7 H 294.100006 V 677.5 Z"/>
					</g>
					<g>
						<path d="M 295.600006 702.400024 H 332.000008 V 708.600024 H 295.600006 V 702.400024 Z" class="st13" style="fill: rgb(163, 163, 163);"/>
					</g>
					<g>
						<path d="M 295.600006 733.299988 H 339.300007 V 739.499988 H 295.600006 V 733.299988 Z" class="st13" style="fill: rgb(163, 163, 163);"/>
					</g>
					<g>
						<path d="M 295.600006 772.299988 H 345.300007 V 778.499988 H 295.600006 V 772.299988 Z" class="st13" style="fill: rgb(163, 163, 163);"/>
					</g>
					<g>
						<path d="M 305.600006 814.799988 H 355.300007 V 820.999988 H 305.600006 V 814.799988 Z" class="st13" style="fill: rgb(163, 163, 163);"/>
					</g>
					<g>
						<g>
							<path class="st12" d="M290,693.7c0.1,39.1,2.3,94.5,12.5,136.2l6.9-1.7c-10-41-12.2-95.7-12.3-134.4&#10;&#9;&#9;&#9;&#9;&#9;&#9;&#9;&#9;c0-11.6,0.1-22.6,0.4-32.3h-7.1C290.1,671.1,290,682,290,693.7z" style="fill: rgb(186, 185, 185);"/>
						</g>
						<g>
							<path class="st12" d="M337.5,694.2c-1.3-11.8-2.3-22.9-3.1-32.8h-7.2c0.8,10,1.8,21.4,3.1,33.5&#10;&#9;&#9;&#9;&#9;&#9;&#9;&#9;&#9;c4.2,38.9,12.2,93.7,26.7,134.1l6.7-2.4C349.6,786.9,341.6,732.7,337.5,694.2z" style="fill: rgb(186, 185, 185);"/>
						</g>
					</g>
				</g>
				<g>
					<path class="st2" d="M287.8,649.8l-3.6,3.1l-1.6,4.1l5.1,5c0,0,4.3-0.4,6.3,1.8l4.8-6.1c0,0-1-4.1-0.7-5.3l-3-1.6&#10;&#9;&#9;&#9;&#9;&#9;&#9;C295.2,651,291.5,651.5,287.8,649.8z" style="fill: rgb(255, 206, 72);"/>
					<path d="M302.6,656.9c0,0,2.3,0.8,3.4,0.8v2.8l-3.4,1.7c0,0-3.3-1.4-2.8-3.7C299.7,658.5,301.5,658.2,302.6,656.9z"/>
					<path class="st4" d="M296.3,645.4l-3.6,3.1l-1.6,4.1l5.1,5c0,0,4.3-0.4,6.3,1.8l4.8-6.1c0,0-1-4.1-0.7-5.3l-3-1.6&#10;&#9;&#9;&#9;&#9;&#9;&#9;C303.7,646.6,300,647.2,296.3,645.4z" style="fill: rgb(255, 159, 0);"/>
					<path class="st2" d="M311.1,652.5c0,0,2.3,0.8,3.4,0.8v2.8l-3.4,1.7c0,0-3.3-1.4-2.8-3.7C308.3,654.1,310,653.8,311.1,652.5z" style="fill: rgb(255, 206, 72);"/>
					<path class="st3" d="M308,633.1l-3.6,3.1l-1.6,4.1l5.1,5c0,0,4.3-0.4,6.3,1.9l4.8-6.1c0,0-1-4.1-0.7-5.3l-3-1.6&#10;&#9;&#9;&#9;&#9;&#9;&#9;C315.4,634.3,311.7,634.8,308,633.1z" style="fill: rgb(255, 174, 0);"/>
					<path d="M322.8,640.2c0,0,2.3,0.8,3.4,0.8v2.8l-3.4,1.7c0,0-3.3-1.4-2.8-3.7C319.9,641.8,321.7,641.5,322.8,640.2z"/>
					<path class="st2" d="M323.6,628.6l-3.6,3.1l-1.6,4.1l5.1,5c0,0,4.3-0.4,6.3,1.8l4.8-6.1c0,0-1-4.1-0.7-5.3l-3-1.6&#10;&#9;&#9;&#9;&#9;&#9;&#9;C331,629.7,327.3,630.3,323.6,628.6z" style="fill: rgb(255, 206, 72);"/>
					<path class="st4" d="M316.4,625.8l-3.6,3.1l-1.6,4.1l5.1,5c0,0,4.3-0.4,6.3,1.9l4.8-6.1c0,0-1-4.1-0.7-5.3l-3-1.6&#10;&#9;&#9;&#9;&#9;&#9;&#9;C323.8,627,320.1,627.5,316.4,625.8z" style="fill: rgb(255, 159, 0);"/>
					<path class="st2" d="M332.5,638l-3.6,3.1l-1.6,4.1l5.1,5c0,0,4.3-0.4,6.3,1.9l4.8-6.1c0,0-1-4.1-0.7-5.3l-3-1.6&#10;&#9;&#9;&#9;&#9;&#9;&#9;C339.9,639.1,336.2,639.7,332.5,638z" style="fill: rgb(255, 206, 72);"/>
					<path class="st4" d="M336,648.1l-3.6,3.1l-1.6,4.1l5.1,5c0,0,4.3-0.4,6.3,1.8l4.8-6.1c0,0-1-4.1-0.7-5.3l-3-1.6&#10;&#9;&#9;&#9;&#9;&#9;&#9;C343.4,649.3,339.7,649.8,336,648.1z" style="fill: rgb(255, 159, 0);"/>
					<path class="st3" d="M328.9,653.2l-3.6,3.1l-1.6,4.1l5.1,5c0,0,4.3-0.4,6.3,1.9l4.8-6.1c0,0-1-4.1-0.7-5.3l-3-1.6&#10;&#9;&#9;&#9;&#9;&#9;&#9;C336.3,654.4,332.6,654.9,328.9,653.2z" style="fill: rgb(255, 174, 0);"/>
					<path class="st4" d="M314.3,650.8l-3.6,3.1l-1.6,4.1l5.1,5c0,0,4.3-0.4,6.3,1.8l4.8-6.1c0,0-1-4.1-0.7-5.3l-3-1.6&#10;&#9;&#9;&#9;&#9;&#9;&#9;C321.7,651.9,318,652.5,314.3,650.8z" style="fill: rgb(255, 159, 0);"/>
					<path class="st3" d="M300.8,652.5l-3.6,3.1l-1.6,4.1l5.1,5c0,0,4.3-0.4,6.3,1.9l4.8-6.1c0,0-1-4.1-0.7-5.3l-3-1.6&#10;&#9;&#9;&#9;&#9;&#9;&#9;C308.2,653.6,304.5,654.2,300.8,652.5z" style="fill: rgb(255, 174, 0);"/>
					<path class="st3" d="M313,641.1l-3.6,3.1l-1.6,4.1l5.1,5c0,0,4.3-0.4,6.3,1.9l4.8-6.1c0,0-1-4.1-0.7-5.3l-3-1.6&#10;&#9;&#9;&#9;&#9;&#9;&#9;C320.4,642.2,316.7,642.8,313,641.1z" style="fill: rgb(255, 174, 0);"/>
					<path class="st2" d="M338.4,635.6c0,0,2.3,0.8,3.4,0.8v2.8l-3.4,1.7c0,0-3.3-1.4-2.8-3.7C335.6,637.3,337.3,637,338.4,635.6z" style="fill: rgb(255, 206, 72);"/>
					<path class="st2" d="M305.5,637.6l-4,2.6l-2.1,3.9l4.4,5.7c0,0,4.3,0.2,5.9,2.7l5.7-5.4c0,0-0.4-4.2,0-5.3l-2.7-2&#10;&#9;&#9;&#9;&#9;&#9;&#9;C312.7,639.8,308.9,639.8,305.5,637.6z" style="fill: rgb(255, 206, 72);"/>
					<path class="st3" d="M324.3,643.4l-4,2.6l-2.1,3.9l4.4,5.7c0,0,4.3,0.2,5.9,2.7l5.7-5.4c0,0-0.4-4.2,0-5.3l-2.7-2&#10;&#9;&#9;&#9;&#9;&#9;&#9;C331.5,645.5,327.7,645.6,324.3,643.4z" style="fill: rgb(255, 174, 0);"/>
					<path class="st4" d="M323.5,635.9l-4,2.6l-2.1,3.9l4.4,5.7c0,0,4.3,0.2,5.9,2.7l5.7-5.4c0,0-0.4-4.2,0-5.3l-2.7-2&#10;&#9;&#9;&#9;&#9;&#9;&#9;C330.7,638.1,327,638.2,323.5,635.9z" style="fill: rgb(255, 159, 0);"/>
					<path class="st2" d="M319.2,646.7c0,0,2.1,1.1,3.3,1.3l-0.4,2.8l-3.6,1.2c0,0-3-1.9-2.3-4.1&#10;&#9;&#9;&#9;&#9;&#9;&#9;C316.1,647.9,317.8,647.9,319.2,646.7z" style="fill: rgb(255, 206, 72);"/>
					<g>
						<path d="M295.6,700.3h-2.6c-1.4,0-2.6,0.9-2.6,1.9v2.8v15.6c0,1.1,1.1,1.9,2.6,1.9h2.6c1.4,0,2.6-0.9,2.6-1.9V705v-2.8&#10;&#9;&#9;&#9;&#9;&#9;&#9;&#9;C298.2,701.1,297,700.3,295.6,700.3z"/>
						<path d="M337.7,700.3h-2.6c-1.4,0-2.6,0.9-2.6,1.9v2.8v15.6c0,1.1,1.1,1.9,2.6,1.9h2.6c1.4,0,2.6-0.9,2.6-1.9V705v-2.8&#10;&#9;&#9;&#9;&#9;&#9;&#9;&#9;C340.3,701.1,339.1,700.3,337.7,700.3z"/>
					</g>
				</g>
			</g>
			<g>
				<path class="st17" d="M282.3,667l3.3,35.5c0,1.4,1.1,2.6,2.6,2.6h1.4v-2.8c0-1.5,1.5-2.8,3.4-2.8h2.6c1.9,0,3.4,1.2,3.4,2.8v2.8&#10;&#9;&#9;&#9;&#9;&#9;h16.2v-38H282.3z" style="fill: rgb(47, 47, 71);"/>
				<path class="st18" d="M315.2,705h16.6v-2.8c0-1.5,1.5-2.8,3.4-2.8h2.6c1.9,0,3.4,1.2,3.4,2.8v2.8h1c1.4,0,2.6-1.1,2.6-2.6&#10;&#9;&#9;&#9;&#9;&#9;L348,667h-32.9V705z" style="fill: rgb(34, 34, 51);"/>
				<path class="st19" d="M288.2,662h27v-1h-32.9c-1.4,0-2.6,1.1-2.6,2.6v0.9c0,1.4,1.1,2.6,2.6,2.6l0,0&#10;&#9;&#9;&#9;&#9;&#9;C282.3,665.6,286.8,662,288.2,662z" style="fill: rgb(133, 133, 160);"/>
				<path class="st19" d="M315.2,662h-27c-1.4,0-5.9,3.6-5.9,5h32.9V662z" style="fill: rgb(133, 133, 160);"/>
				<path class="st16" d="M348,661h-32.9v1v5H348c1.4,0,2.6-1.1,2.6-2.6v-0.9C350.6,662.1,349.5,661,348,661z" style="fill: rgb(116, 116, 137);"/>
			</g>
		</g>
		<g>
			<path d="M 315.399994 617.700012 H 349.499992 V 625.900012 H 315.399994 V 617.700012 Z" class="st22" style="fill: rgb(22, 15, 11);"/>
			<path d="M 277.5 617.700012 H 315.400002 V 625.900012 H 277.5 V 617.700012 Z" class="st23" style="fill: rgb(35, 25, 17);"/>
			<path d="M 315.399994 593.400024 H 370.999992 V 606.400024 H 315.399994 V 593.400024 Z" class="st26" style="fill: rgb(43, 31, 21);"/>
			<path d="M 256 593.400024 H 315.400002 V 606.400024 H 256 V 593.400024 Z" class="st27" style="fill: rgb(58, 42, 27);"/>
			<path d="M 315.399994 560.200012 H 397.499992 V 579.200012 H 315.399994 V 560.200012 Z" class="st28" style="fill: rgb(56, 41, 25);"/>
			<path d="M 229.5 560.200012 H 315.400002 V 579.200012 H 229.5 V 560.200012 Z" class="st8" style="fill: rgb(73, 54, 32);"/>
		</g>
	</g>



</svg>