<?xml version="1.0" encoding="utf-8"?>
<svg id="master-artboard" viewBox="0 0 228.20118713378906 274.4346008300781" version="1.1" xmlns="http://www.w3.org/2000/svg" x="0px" y="0px" style="enable-background:new 0 0 1400 980;" width="228.20118713378906px" height="274.4346008300781px" xmlns:xlink="http://www.w3.org/1999/xlink"><rect id="ee-background" x="0" y="0" width="228.20118713378906" height="274.4346008300781" style="fill: white; fill-opacity: 0; pointer-events: none;"/>

<defs>
			<path d="M 0 0 H 1399.699951 V 980 H 0 V 0 Z" id="SVGID_1_"/>
		</defs><clipPath id="SVGID_2_">
			<use style="overflow:visible;" xlink:href="#SVGID_1_"/>
		</clipPath>
<path d="M 788.400024 802.5 A 21 21 0 0 1 767.400024 823.5 A 21 21 0 0 1 746.400024 802.5 A 21 21 0 0 1 767.400024 781.5 A 21 21 0 0 1 788.400024 802.5 Z" class="st6" style="fill: rgb(35, 35, 51); opacity: 0.1;" transform="matrix(1, 0, 0, 1, -588.5585327148438, -553.1065673828125)"/><path d="M 660.900024 802.5 A 21 21 0 0 1 639.900024 823.5 A 21 21 0 0 1 618.900024 802.5 A 21 21 0 0 1 639.900024 781.5 A 21 21 0 0 1 660.900024 802.5 Z" class="st6" style="fill: rgb(35, 35, 51); opacity: 0.1;" transform="matrix(1, 0, 0, 1, -588.5585327148438, -553.1065673828125)"/><path class="st6" d="M808.4,667.2h-14.4l9.7-9.5l-4.8-12.6l-10.8-9.5c-4.3,2-8.7,3-12.4,3.4l-2.7-7.2l-10.8-9.5&#10;&#9;&#9;c-5.6,2.6-11.2,3.5-15.5,3.7l6.1-7.9l-6.5-11.8l-5.7-3.7l-3.1-8.3l-10.8-9.5c-4.9,2.3-9.8,3.2-13.8,3.6l3.8-3.7l-4.8-12.6&#10;&#9;&#9;l-10.8-9.5c-11.3,5.2-22.6,3.5-22.6,3.5l-9.1,4.8c0.2,0.7,0.2,1.9,0.1,3.2c-7.3,1.3-12.9,0.5-12.9,0.5l-9.1,4.8&#10;&#9;&#9;c0.9,3.5-2.2,16.1-2.2,16.1l4.2,5.3c-2.7,1-5.4,1.7-7.9,2.1c1-1.5,1.5-3.3,1.1-5.2c0,0-5.2-0.9-8.7-5c0,0-6.9,2.4-10.4,2.4v8.7&#10;&#9;&#9;l2.5,1.2l-5.8,3c0.9,3.5-2.2,16.1-2.2,16.1l8.1,10.3c-4.4,0.2-7.3-0.2-7.3-0.2l-9.1,4.8c0.9,3.5-2.2,16.1-2.2,16.1l9.9,12.5H601&#10;&#9;&#9;c-4.5,0-8.1,3.6-8.1,8.1v2.7c0,4.5,3.6,8.1,8.1,8.1l10.5,112c0,3.8,2.6,6.9,6.1,7.8c-0.2-1.1-0.3-2.2-0.3-3.4&#10;&#9;&#9;c0-12.4,10.1-22.5,22.5-22.5c12.4,0,22.5,10.1,22.5,22.5c0,1.2-0.1,2.5-0.3,3.6h42.6h40.4c-0.2-1.2-0.3-2.4-0.3-3.6&#10;&#9;&#9;c0-12.4,10.1-22.5,22.5-22.5c12.4,0,22.5,10.1,22.5,22.5c0,1.2-0.1,2.5-0.3,3.6h0.3c4.5,0,8.1-3.6,8.1-8.1l10.5-112&#10;&#9;&#9;c4.5,0,8.1-3.6,8.1-8.1v-2.7C816.5,670.9,812.9,667.2,808.4,667.2z M729.1,647.5c-2-0.1-3.1-0.2-3.1-0.2l-2,1&#10;&#9;&#9;c-1.8-0.6-4.7-1.9-6.9-4.5c0,0-1.2,0.4-2.9,0.9l-0.6-0.6l4.1-4l3.7,3.5c2.1-3.2,5.5-5.1,8.8-6.3c-0.7,4.5-1.8,9.3-1.8,9.3&#10;&#9;&#9;L729.1,647.5z M673.8,655.5l-0.8-0.7c0.8-0.3,1.5-0.5,2.3-0.7c-0.2,1.2-0.4,2.4-0.6,3.5L673.8,655.5z M693.6,605.4l-2.3-4.1&#10;&#9;&#9;l-0.9-0.6c1.4-0.4,2.9-0.6,4.2-0.7C694.3,601.8,694,603.8,693.6,605.4z" style="fill: rgb(35, 35, 51); opacity: 0.1;" transform="matrix(1, 0, 0, 1, -588.5585327148438, -553.1065673828125)"/>


<g transform="matrix(1, 0, 0, 1, -588.5585327148438, -553.1065673828125)">
		<g>
			<g>
				<path class="st3" d="M784.9,632.3l10.8,9.5l4.8,12.6l-15.6,15.2c0,0-13-1.3-19.1,5.6l-14.8-18.7c0,0,3-12.6,2.2-16.1l9.1-4.8&#10;&#9;&#9;&#9;&#9;&#9;C762.4,635.8,773.6,637.5,784.9,632.3z" style="fill: rgb(255, 174, 0);"/>
				<path d="M739.8,653.8c0,0-6.9,2.4-10.4,2.4v8.7l10.4,5.2c0,0,10-4.3,8.7-11.3C748.5,658.8,743.3,657.9,739.8,653.8z"/>
				<path class="st2" d="M758.9,619l10.8,9.5l4.8,12.6l-15.6,15.2c0,0-13-1.3-19.1,5.6l-14.8-18.7c0,0,3-12.6,2.2-16.1l9.1-4.8&#10;&#9;&#9;&#9;&#9;&#9;C736.4,622.5,747.7,624.2,758.9,619z" style="fill: rgb(255, 206, 72);"/>
				<path class="st2" d="M713.8,640.5c0,0-6.9,2.4-10.4,2.4v8.7l10.4,5.2c0,0,10-4.3,8.7-11.3C722.5,645.5,717.3,644.6,713.8,640.5z&#10;&#9;&#9;&#9;&#9;&#9;" style="fill: rgb(255, 206, 72);"/>
				<path class="st3" d="M723.4,581.4l10.8,9.5l4.8,12.6l-15.6,15.2c0,0-13-1.3-19.1,5.6l-14.8-18.7c0,0,3-12.6,2.2-16.1l9.1-4.8&#10;&#9;&#9;&#9;&#9;&#9;C700.8,584.9,712.1,586.6,723.4,581.4z" style="fill: rgb(255, 174, 0);"/>
				<path d="M678.2,602.9c0,0-6.9,2.4-10.4,2.4v8.7l10.4,5.2c0,0,10-4.3,8.7-11.3C686.9,607.9,681.7,607,678.2,602.9z"/>
				<path class="st3" d="M675.8,567.7l10.8,9.5l4.8,12.6L675.8,605c0,0-13-1.3-19.1,5.6L642,592c0,0,3-12.6,2.2-16.1l9.1-4.8&#10;&#9;&#9;&#9;&#9;&#9;C653.2,571.1,664.5,572.9,675.8,567.7z" style="fill: rgb(255, 174, 0);"/>
				<path class="st4" d="M697.7,559.2l10.8,9.5l4.8,12.6l-15.6,15.2c0,0-13-1.3-19.1,5.6l-14.8-18.7c0,0,3-12.6,2.2-16.1l9.1-4.8&#10;&#9;&#9;&#9;&#9;&#9;C675.1,562.7,686.4,564.4,697.7,559.2z" style="fill: rgb(255, 159, 0);"/>
				<path class="st4" d="M648.6,596.2l10.8,9.5l4.8,12.6l-15.6,15.2c0,0-13-1.3-19.1,5.6l-14.8-18.7c0,0,3-12.6,2.2-16.1l9.1-4.8&#10;&#9;&#9;&#9;&#9;&#9;C626,599.7,637.3,601.4,648.6,596.2z" style="fill: rgb(255, 159, 0);"/>
				<path class="st2" d="M638.1,627.1l10.8,9.5l4.8,12.6l-15.6,15.2c0,0-13-1.3-19.1,5.6l-14.8-18.7c0,0,3-12.6,2.2-16.1l9.1-4.8&#10;&#9;&#9;&#9;&#9;&#9;C615.5,630.6,626.8,632.3,638.1,627.1z" style="fill: rgb(255, 206, 72);"/>
				<path class="st3" d="M659.7,642.7l10.8,9.5l4.8,12.6L659.7,680c0,0-13-1.3-19.1,5.6L625.8,667c0,0,3-12.6,2.2-16.1l9.1-4.8&#10;&#9;&#9;&#9;&#9;&#9;C637.1,646.1,648.4,647.9,659.7,642.7z" style="fill: rgb(255, 174, 0);"/>
				<path class="st4" d="M704,635.3l10.8,9.5l4.8,12.6L704,672.6c0,0-13-1.3-19.1,5.6l-14.8-18.7c0,0,3-12.6,2.2-16.1l9.1-4.8&#10;&#9;&#9;&#9;&#9;&#9;C681.5,638.7,692.7,640.5,704,635.3z" style="fill: rgb(255, 159, 0);"/>
				<path class="st3" d="M745.2,640.5l10.8,9.5l4.8,12.6l-15.6,15.2c0,0-13-1.3-19.1,5.6l-14.8-18.7c0,0,3-12.6,2.2-16.1l9.1-4.8&#10;&#9;&#9;&#9;&#9;&#9;C722.7,643.9,734,645.7,745.2,640.5z" style="fill: rgb(255, 174, 0);"/>
				<path class="st2" d="M708.1,605.7l10.8,9.5l4.8,12.6L708.1,643c0,0-13-1.3-19.1,5.6L674.3,630c0,0,3-12.6,2.2-16.1l9.1-4.8&#10;&#9;&#9;&#9;&#9;&#9;C685.5,609.1,696.8,610.9,708.1,605.7z" style="fill: rgb(255, 206, 72);"/>
				<path class="st2" d="M630.7,589.2c0,0-6.9,2.4-10.4,2.4v8.7l10.4,5.2c0,0,10-4.3,8.7-11.3C639.3,594.1,634.1,593.3,630.7,589.2z&#10;&#9;&#9;&#9;&#9;&#9;" style="fill: rgb(255, 206, 72);"/>
				<path class="st4" d="M731,595.1l12.1,7.9l6.5,11.8L736.2,632c0,0-13.1,0.5-18.1,8.3l-17.2-16.4c0,0,1.2-12.9-0.1-16.2l8.3-6&#10;&#9;&#9;&#9;&#9;&#9;C709.1,601.7,720.5,601.9,731,595.1z" style="fill: rgb(255, 159, 0);"/>
				<path class="st4" d="M673.6,612.7l12.1,7.9l6.5,11.8l-13.3,17.2c0,0-13.1,0.5-18.1,8.3l-17.2-16.4c0,0,1.2-12.9-0.1-16.2l8.3-6&#10;&#9;&#9;&#9;&#9;&#9;C651.8,619.3,663.2,619.4,673.6,612.7z" style="fill: rgb(255, 159, 0);"/>
				<path class="st2" d="M676,590l12.1,7.9l6.5,11.8L681.2,627c0,0-13.1,0.5-18.1,8.3l-17.2-16.4c0,0,1.2-12.9-0.1-16.2l8.3-6&#10;&#9;&#9;&#9;&#9;&#9;C654.1,596.7,665.5,596.8,676,590z" style="fill: rgb(255, 206, 72);"/>
				<path class="st3" d="M689.3,622.7c0,0-6.5,3.3-10,3.8l1.2,8.6l11,3.7c0,0,9.3-5.7,7-12.4C698.6,626.5,693.4,626.3,689.3,622.7z" style="fill: rgb(255, 174, 0);"/>
			</g>
			<path d="M 785.099976 799.200012 A 21 21 0 0 1 764.099976 820.200012 A 21 21 0 0 1 743.099976 799.200012 A 21 21 0 0 1 764.099976 778.200012 A 21 21 0 0 1 785.099976 799.200012 Z"/>
			<path d="M 657.599976 799.200012 A 21 21 0 0 1 636.599976 820.200012 A 21 21 0 0 1 615.599976 799.200012 A 21 21 0 0 1 636.599976 778.200012 A 21 21 0 0 1 657.599976 799.200012 Z"/>
		</g>
		<path d="M 643.499976 799.200012 A 6.9 6.9 0 0 1 636.599976 806.100012 A 6.9 6.9 0 0 1 629.699975 799.200012 A 6.9 6.9 0 0 1 636.599976 792.300012 A 6.9 6.9 0 0 1 643.499976 799.200012 Z" class="st16" style="fill: rgb(116, 116, 137);"/>
		<path d="M 770.999976 799.200012 A 6.9 6.9 0 0 1 764.099976 806.100012 A 6.9 6.9 0 0 1 757.199975 799.200012 A 6.9 6.9 0 0 1 764.099976 792.300012 A 6.9 6.9 0 0 1 770.999976 799.200012 Z" class="st16" style="fill: rgb(116, 116, 137);"/>
		<g>
			<path class="st17" d="M597.7,682.8l10.5,112c0,3.8,2.6,6.9,6.1,7.8c-0.2-1.1-0.3-2.2-0.3-3.4c0-12.4,10.1-22.5,22.5-22.5&#10;&#9;&#9;&#9;&#9;c12.4,0,22.5,10.1,22.5,22.5c0,1.2-0.1,2.4-0.3,3.6h42.6V682.8H597.7z" style="fill: rgb(47, 47, 71);"/>
			<path class="st18" d="M701.4,802.9h40.4c-0.2-1.2-0.3-2.4-0.3-3.6c0-12.4,10.1-22.5,22.5-22.5c12.4,0,22.5,10.1,22.5,22.5&#10;&#9;&#9;&#9;&#9;c0,1.2-0.1,2.4-0.3,3.6h0.3c4.5,0,8.1-3.6,8.1-8.1l10.5-112H701.4V802.9z" style="fill: rgb(34, 34, 51);"/>
			<path class="st19" d="M616.3,667h85.1v-3.1H597.7c-4.5,0-8.1,3.6-8.1,8.1v2.7c0,4.5,3.6,8.1,8.1,8.1&#10;&#9;&#9;&#9;&#9;C597.7,678.4,611.8,667,616.3,667z" style="fill: rgb(133, 133, 160);"/>
			<path class="st16" d="M805.2,663.9H701.4v3.1v15.8h103.7l0,0c4.5,0,8.1-3.6,8.1-8.1V672C813.2,667.6,809.6,663.9,805.2,663.9z" style="fill: rgb(116, 116, 137);"/>
			<path class="st19" d="M701.4,667h-85.1c-4.5,0-18.6,11.3-18.6,15.8h103.7V667z" style="fill: rgb(133, 133, 160);"/>
		</g>
	</g>




</svg>