<?xml version="1.0" encoding="utf-8"?>
<svg id="master-artboard" viewBox="0 0 201.60964965820312 295.7079162597656" version="1.1" xmlns="http://www.w3.org/2000/svg" x="0px" y="0px" style="enable-background:new 0 0 1400 980;" width="201.60964965820312px" height="295.7079162597656px" xmlns:xlink="http://www.w3.org/1999/xlink"><rect id="ee-background" x="0" y="0" width="201.60964965820312" height="295.7079162597656" style="fill: white; fill-opacity: 0; pointer-events: none;"/>

<defs>
			<path d="M 0 0 H 1399.699951 V 980 H 0 V 0 Z" id="SVGID_1_"/>
		</defs><clipPath id="SVGID_2_">
			<use style="overflow:visible;" xlink:href="#SVGID_1_"/>
		</clipPath>
<path class="st6" d="M1141.2,608.4h0.7c0.8,0,1.5-0.3,2-0.8h17.7v-4.4h-17.7c-0.5-0.5-1.3-0.8-2-0.8h-11.6h-11.6&#10;&#9;&#9;c-0.8,0-1.5,0.3-2,0.8h-17.7v4.4h17.7c0.5,0.5,1.3,0.8,2,0.8h0.2v29.8h-25.7v39.9h5.7v23.8v35.1v32.9h-5.7V780h34.3&#10;&#9;&#9;c-2.6,18.7-10.5,49.5-34.5,52.7c-17.6,2.3-28-15.3-40-35.7c-11.7-20-25.1-42.6-48.5-53.4c-24.9-11.4-31.2-27-32.2-38&#10;&#9;&#9;c-1.4-16.4,8.4-34.1,25.8-46.2c10.9-7.5,18.1-14.7,23-20.9c0.6,1.2,1.4,2.4,2.6,3.6c2.9,2.9,6.5,4.1,8.4,2.8&#10;&#9;&#9;c-1.3,1.9-0.1,5.5,2.8,8.4c1.9,1.9,4.1,3.1,6,3.3c1.1,0.1,2.1-0.1,2.8-0.8c0.1-0.1,0.1-0.2,0.2-0.2l28.5-28.5l13.7-13.7l0,0&#10;&#9;&#9;l15.9-15.9c0.1-0.1,0.2-0.1,0.2-0.2c0.3-0.3,0.6-0.8,0.7-1.3c0.6-2.1-1-4.7-1-4.7s0,0,0,0c-0.5-1-1.3-1.9-2.2-2.8&#10;&#9;&#9;c-2.8-2.8-6.3-4-8.2-2.9c1.2-2.2-1-5.7-1-5.7c0,0,0,0,0,0c-0.5-0.9-1.2-1.8-2-2.6c-2.9-2.9-6.5-4.1-8.4-2.8c0,0,0.1-0.1,0.1-0.1&#10;&#9;&#9;c1.6-2.2-1-6-1-6c0,0,0,0,0,0c-0.5-0.8-1.1-1.5-1.8-2.3c-3-3-6.8-4.1-8.6-2.6c0.3-0.3,0.4-0.7,0.5-1c0,0,0,0,0,0&#10;&#9;&#9;c0-0.1,0.1-0.2,0.1-0.4c0-0.1,0-0.2,0-0.3c0,0,0-0.1,0-0.1c0.1-2-1.1-4.6-3.3-6.8c-3.1-3.1-7-4.2-8.8-2.5c-0.1,0.1-0.1,0.2-0.2,0.2&#10;&#9;&#9;l-15.9,15.9l-28,28l-14.2,14.2c-0.1,0.1-0.2,0.1-0.2,0.2c-1.7,1.7-0.6,5.7,2.5,8.8c3,3,6.9,4.2,8.7,2.6c-1.6,1.8-0.5,5.6,2.6,8.7&#10;&#9;&#9;c2.9,2.9,6.5,4.1,8.4,2.8c0,0-0.1,0.1-0.1,0.1c-4.6,6.6-12.1,14.6-24.4,23.1c-18.2,12.7-28.6,31.4-27.1,48.9&#10;&#9;&#9;c1,11.8,7.8,28.4,34,40.5c22.6,10.4,35.7,32.6,47.2,52.2c11.7,20,22,37.4,39.3,37.4c1.2,0,2.4-0.1,3.6-0.2&#10;&#9;&#9;c26.4-3.5,34.6-36.2,37.2-55.6h36.7v-10.2h-5.7v-32.9v-35.1v-23.8h5.7v-39.9h-26.1V608.4z M1024.5,607.7L1024.5,607.7l-14.2,14.2&#10;&#9;&#9;c0,0-0.1,0.1-0.1,0.1c0,0,0.1-0.1,0.1-0.1L1024.5,607.7z M1123.1,608.4h7.2h6.7v29.8h-6.7h-7.2V608.4z" style="fill: rgb(35, 35, 51); opacity: 0.1;" transform="matrix(1, 0, 0, 1, -964.3851318359375, -544.24267578125)"/>





<g transform="matrix(1, 0, 0, 1, -964.3851318359375, -544.24267578125)">
		<g>
			
				<path d="M 1097.699951 588.299988 A 4.5 7.9 0 0 1 1093.199951 596.199988 A 4.5 7.9 0 0 1 1088.699951 588.299988 A 4.5 7.9 0 0 1 1093.199951 580.399988 A 4.5 7.9 0 0 1 1097.699951 588.299988 Z" transform="matrix(0.7071 -0.7071 0.7071 0.7071 -95.8099 945.333)" class="st30" style="fill: rgb(206, 44, 44);"/>
			<path class="st31" d="M1039.6,645.7c1.6,2.5,2.1,5,1,6.5l58.2-58.2c2.1-2.1-0.3-5.9-0.3-5.9c-2.7,6.2-13.4,18.2-31.5,36.4&#10;&#9;&#9;&#9;&#9;C1043.3,648.2,1039.6,645.7,1039.6,645.7z" style="fill: rgb(175, 39, 39);"/>
			<path class="st30" d="M1037.9,643.6c0.7,0.7,1.2,1.4,1.7,2.1c0,0,3.7,2.6,27.4-21.3c18.1-18.2,26.6-26.8,29.3-33l-8.7-8.7&#10;&#9;&#9;&#9;&#9;l-58.2,58.2C1031.2,639.5,1034.9,640.6,1037.9,643.6z" style="fill: rgb(206, 44, 44);"/>
			<path class="st32" d="M1039.6,645.7c-0.5-0.7-1-1.4-1.7-2.1c-3-3-6.7-4.1-8.5-2.7c-0.1,0.1-0.2,0.1-0.2,0.2&#10;&#9;&#9;&#9;&#9;c-1.7,1.7-0.6,5.7,2.5,8.8c1.9,1.9,4.1,3.1,6,3.3c1.1,0.1,2.1-0.1,2.8-0.8c0.1-0.1,0.1-0.2,0.2-0.2&#10;&#9;&#9;&#9;&#9;C1041.7,650.7,1041.3,648.2,1039.6,645.7z" style="fill: rgb(135, 27, 27);"/>
		</g>
		<g>
			<g>
				<path class="st10" d="M1086.6,832.6c-17.4,0-27.6-17.4-39.3-37.4c-11.5-19.6-24.6-41.8-47.2-52.2c-26.2-12-32.9-28.6-34-40.5&#10;&#9;&#9;&#9;&#9;&#9;c-1.5-17.5,8.8-36.3,27.1-48.9c31.3-21.7,31.6-40,31.6-40.1h3c0,0.8-0.4,20-32.9,42.6c-17.4,12-27.2,29.7-25.8,46.2&#10;&#9;&#9;&#9;&#9;&#9;c1,11,7.3,26.6,32.2,38c23.5,10.8,36.8,33.4,48.5,53.4c12,20.4,22.3,38,40,35.7c34.5-4.5,35.7-66.3,35.7-66.9l3,0&#10;&#9;&#9;&#9;&#9;&#9;c0,2.7-1.3,65-38.3,69.8C1088.9,832.5,1087.7,832.6,1086.6,832.6z" style="fill: rgb(33, 25, 21);"/>
			</g>
			<path d="M 1115.599976 600.799988 H 1119.799975 V 669.199989 H 1115.599976 V 600.799988 Z" class="st13" style="fill: rgb(163, 163, 163);"/>
			<path d="M 1133.699951 600.799988 H 1137.899951 V 669.199989 H 1133.699951 V 600.799988 Z" class="st33" style="fill: rgb(137, 137, 137);"/>
			
				<path d="M 989.099976 576.099976 H 1071.799973 V 591.899976 H 989.099976 V 576.099976 Z" transform="matrix(0.7071 -0.7071 0.7071 0.7071 -111.131 899.6481)" class="st30" style="fill: rgb(206, 44, 44);"/>
			
				<path d="M 1005.700012 613.200012 A 4.5 7.9 0 0 1 1001.200012 621.100012 A 4.5 7.9 0 0 1 996.700012 613.200012 A 4.5 7.9 0 0 1 1001.200012 605.300012 A 4.5 7.9 0 0 1 1005.700012 613.200012 Z" transform="matrix(0.7071 -0.7071 0.7071 0.7071 -140.3525 887.5507)" class="st32" style="fill: rgb(135, 27, 27);"/>
			
				<path d="M 1064.099976 554.700012 A 4.5 7.9 0 0 1 1059.599976 562.600012 A 4.5 7.9 0 0 1 1055.099976 554.700012 A 4.5 7.9 0 0 1 1059.599976 546.800012 A 4.5 7.9 0 0 1 1064.099976 554.700012 Z" transform="matrix(0.7071 -0.7071 0.7071 0.7071 -81.9046 911.7627)" class="st30" style="fill: rgb(206, 44, 44);"/>
			
				<path d="M 1000.299988 587.299988 H 1082.999985 V 603.099988 H 1000.299988 V 587.299988 Z" transform="matrix(0.7071 -0.7071 0.7071 0.7071 -115.7728 910.8901)" class="st30" style="fill: rgb(206, 44, 44);"/>
			
				<path d="M 1016.900024 624.400024 A 4.5 7.9 0 0 1 1012.400024 632.300025 A 4.5 7.9 0 0 1 1007.900024 624.400024 A 4.5 7.9 0 0 1 1012.400024 616.500024 A 4.5 7.9 0 0 1 1016.900024 624.400024 Z" transform="matrix(0.7071 -0.7071 0.7071 0.7071 -144.9994 898.7744)" class="st32" style="fill: rgb(135, 27, 27);"/>
			
				<path d="M 1075.400024 566 A 4.5 7.9 0 0 1 1070.900024 573.9 A 4.5 7.9 0 0 1 1066.400024 566 A 4.5 7.9 0 0 1 1070.900024 558.1 A 4.5 7.9 0 0 1 1075.400024 566 Z" transform="matrix(0.7071 -0.7071 0.7071 0.7071 -86.5493 922.9932)" class="st30" style="fill: rgb(206, 44, 44);"/>
			
				<path d="M 1011.5 598.400024 H 1094.199997 V 614.200025 H 1011.5 V 598.400024 Z" transform="matrix(0.7071 -0.7071 0.7071 0.7071 -120.4105 922.0349)" class="st30" style="fill: rgb(206, 44, 44);"/>
			
				<path d="M 1028.099976 635.599976 A 4.5 7.9 0 0 1 1023.599976 643.499976 A 4.5 7.9 0 0 1 1019.099976 635.599976 A 4.5 7.9 0 0 1 1023.599976 627.699975 A 4.5 7.9 0 0 1 1028.099976 635.599976 Z" transform="matrix(0.7071 -0.7071 0.7071 0.7071 -149.6275 909.9489)" class="st32" style="fill: rgb(135, 27, 27);"/>
			
				<path d="M 1086.5 577.099976 A 4.5 7.9 0 0 1 1082 584.999976 A 4.5 7.9 0 0 1 1077.5 577.099976 A 4.5 7.9 0 0 1 1082 569.199975 A 4.5 7.9 0 0 1 1086.5 577.099976 Z" transform="matrix(0.7071 -0.7071 0.7071 0.7071 -91.1819 934.1585)" class="st30" style="fill: rgb(206, 44, 44);"/>
			<path class="st31" d="M1028.4,634.4c1.7,2.5,1.9,5.5,0.7,6.9l58.6-58.4c2.1-2.1-0.5-6.3-0.5-6.3c-2.7,6.2-13.1,18.6-31.2,36.8&#10;&#9;&#9;&#9;&#9;C1032.2,637.2,1028.4,634.4,1028.4,634.4z" style="fill: rgb(175, 39, 39);"/>
			<path class="st31" d="M1017,622.9c1.7,2.5,2,5.7,0.9,7.2l58.6-58.6c2.4-2.1-0.6-6.4-0.6-6.4c-2.7,6.2-13,18.7-31.1,36.9&#10;&#9;&#9;&#9;&#9;C1021,625.8,1017,622.9,1017,622.9z" style="fill: rgb(175, 39, 39);"/>
			<path class="st31" d="M1005.9,611.9c1.7,2.5,2,5.4,0.9,6.9l58.5-58.4c2.1-2.1-0.7-6.4-0.7-6.4c-2.7,6.2-13,18.8-31.1,36.9&#10;&#9;&#9;&#9;&#9;C1009.8,614.7,1005.9,611.9,1005.9,611.9z" style="fill: rgb(175, 39, 39);"/>
			
				<path d="M 1014.700012 581.799988 H 1078.000011 V 621.399986 H 1014.700012 V 581.799988 Z" transform="matrix(0.7071 0.7071 -0.7071 0.7071 731.8826 -563.6841)" class="st34" style="fill: rgb(255, 255, 255);"/>
			<g>
				<path d="M 1047.199951171875 592.7999877929688 L 1051 584.0999755859375 L 1050.9000244140625 593.5999755859375 L 1057.9000244140625 587.2000122070312 L 1054 595.7999877929688 L 1062.9000244140625 592.7999877929688 L 1055.800048828125 599.0999755859375 L 1065.300048828125 600 L 1056.199951171875 602.7999877929688 L 1064.5 607.5 L 1055.0999755859375 606.5 L 1060.699951171875 614.0999755859375 L 1052.5 609.2999877929688 L 1054.5999755859375 618.5 L 1049.0999755859375 610.7999877929688 L 1047.199951171875 620.0999755859375 L 1045.300048828125 610.7999877929688 L 1039.800048828125 618.5 L 1041.9000244140625 609.2999877929688 L 1033.699951171875 614.0999755859375 L 1039.300048828125 606.5 L 1029.9000244140625 607.5 L 1038.199951171875 602.7999877929688 L 1029.0999755859375 600 L 1038.5999755859375 599.0999755859375 L 1031.5 592.7999877929688 L 1040.5 595.7999877929688 L 1036.5 587.2000122070312 L 1043.5 593.5999755859375 L 1043.4000244140625 584.0999755859375 Z" class="st30" style="fill: rgb(206, 44, 44);"/>
				<path d="M 1047.199951171875 598.2000122070312 L 1048.800048828125 594.5 L 1048.800048828125 598.5 L 1051.699951171875 595.7999877929688 L 1050 599.5 L 1053.800048828125 598.2000122070312 L 1050.800048828125 600.7999877929688 L 1054.800048828125 601.2000122070312 L 1051 602.4000244140625 L 1054.5 604.4000244140625 L 1050.5 603.9000244140625 L 1052.9000244140625 607.0999755859375 L 1049.4000244140625 605.0999755859375 L 1050.300048828125 609 L 1048 605.7999877929688 L 1047.199951171875 609.7000122070312 L 1046.4000244140625 605.7999877929688 L 1044.0999755859375 609 L 1045 605.0999755859375 L 1041.5 607.0999755859375 L 1043.9000244140625 603.9000244140625 L 1039.9000244140625 604.4000244140625 L 1043.4000244140625 602.4000244140625 L 1039.5999755859375 601.2000122070312 L 1043.5999755859375 600.7999877929688 L 1040.5999755859375 598.2000122070312 L 1044.4000244140625 599.5 L 1042.699951171875 595.7999877929688 L 1045.699951171875 598.5 L 1045.5999755859375 594.5 Z" class="st35" style="fill: rgb(255, 126, 69);"/>
				<path d="M 1047.199951171875 600.5 L 1047.800048828125 599.0999755859375 L 1047.800048828125 600.7000122070312 L 1049 599.5999755859375 L 1048.300048828125 601 L 1049.800048828125 600.5 L 1048.699951171875 601.5999755859375 L 1050.199951171875 601.7000122070312 L 1048.699951171875 602.2000122070312 L 1050.0999755859375 603 L 1048.5 602.7999877929688 L 1049.5 604.0999755859375 L 1048.0999755859375 603.2999877929688 L 1048.4000244140625 604.9000244140625 L 1047.5 603.5999755859375 L 1047.199951171875 605.0999755859375 L 1046.9000244140625 603.5999755859375 L 1046 604.9000244140625 L 1046.300048828125 603.2999877929688 L 1044.9000244140625 604.0999755859375 L 1045.9000244140625 602.7999877929688 L 1044.300048828125 603 L 1045.699951171875 602.2000122070312 L 1044.199951171875 601.7000122070312 L 1045.800048828125 601.5999755859375 L 1044.5999755859375 600.5 L 1046.0999755859375 601 L 1045.4000244140625 599.5999755859375 L 1046.5999755859375 600.7000122070312 L 1046.5999755859375 599.0999755859375 Z" class="st35" style="fill: rgb(255, 126, 69);"/>
			</g>
		</g>
	</g><path d="M 1095.699951 674.799988 H 1126.99995 V 698.599987 H 1095.699951 V 674.799988 Z" class="st19" style="fill: rgb(133, 133, 160);" transform="matrix(1, 0, 0, 1, -964.3851318359375, -544.24267578125)"/><path d="M 1127 674.799988 H 1158.299999 V 698.599987 H 1127 V 674.799988 Z" class="st36" style="fill: rgb(118, 118, 140);" transform="matrix(1, 0, 0, 1, -964.3851318359375, -544.24267578125)"/><path d="M 1095.699951 733.599976 H 1126.99995 V 766.499977 H 1095.699951 V 733.599976 Z" class="st19" style="fill: rgb(133, 133, 160);" transform="matrix(1, 0, 0, 1, -964.3851318359375, -544.24267578125)"/><path d="M 1127 733.599976 H 1158.299999 V 766.499977 H 1127 V 733.599976 Z" class="st36" style="fill: rgb(118, 118, 140);" transform="matrix(1, 0, 0, 1, -964.3851318359375, -544.24267578125)"/><path d="M 1127 634.9000244140625 L 1127 660.5999755859375 L 1127 674.7999877929688 L 1158.300048828125 674.7999877929688 L 1164 674.7999877929688 L 1164 634.9000244140625 Z" class="st6" style="fill: rgb(35, 35, 51);" transform="matrix(1, 0, 0, 1, -964.3851318359375, -544.24267578125)"/><path class="st33" d="M1141.6,602.1c0,0.9-0.4,1.7-1,2.2h17.7v-4.4h-17.7C1141.2,600.4,1141.6,601.2,1141.6,602.1z" style="fill: rgb(137, 137, 137);" transform="matrix(1, 0, 0, 1, -964.3851318359375, -544.24267578125)"/><path class="st13" d="M1112.4,602.1c0-0.9,0.4-1.7,1-2.2h-17.7v4.4h17.7C1112.8,603.8,1112.4,603,1112.4,602.1z" style="fill: rgb(163, 163, 163);" transform="matrix(1, 0, 0, 1, -964.3851318359375, -544.24267578125)"/><path class="st17" d="M1113.3,604.3c0.5,0.5,1.3,0.8,2,0.8h11.6v-0.8H1113.3z" style="fill: rgb(47, 47, 71);" transform="matrix(1, 0, 0, 1, -964.3851318359375, -544.24267578125)"/><path class="st17" d="M1127,599.1h-11.6c-0.8,0-1.5,0.3-2,0.8h13.6V599.1z" style="fill: rgb(47, 47, 71);" transform="matrix(1, 0, 0, 1, -964.3851318359375, -544.24267578125)"/><path class="st6" d="M1140.6,599.9c-0.5-0.5-1.3-0.8-2-0.8H1127v0.8v4.4v0.8h11.6c0.8,0,1.5-0.3,2-0.8c0.6-0.6,1-1.3,1-2.2&#10;&#9;&#9;&#9;C1141.6,601.2,1141.2,600.4,1140.6,599.9z" style="fill: rgb(35, 35, 51);" transform="matrix(1, 0, 0, 1, -964.3851318359375, -544.24267578125)"/><path class="st17" d="M1127,599.9h-13.6c-0.6,0.6-1,1.3-1,2.2c0,0.9,0.4,1.7,1,2.2h13.6V599.9z" style="fill: rgb(47, 47, 71);" transform="matrix(1, 0, 0, 1, -964.3851318359375, -544.24267578125)"/><path d="M 1095.699951 698.599976 H 1126.99995 V 733.699974 H 1095.699951 V 698.599976 Z" class="st34" style="fill: rgb(255, 255, 255);" transform="matrix(1, 0, 0, 1, -964.3851318359375, -544.24267578125)"/><path d="M 1127 698.599976 H 1158.299999 V 733.699974 H 1127 V 698.599976 Z" class="st37" style="fill: rgb(237, 237, 239);" transform="matrix(1, 0, 0, 1, -964.3851318359375, -544.24267578125)"/><path d="M 1090 634.9000244140625 L 1090 674.7999877929688 L 1095.699951171875 674.7999877929688 L 1127 674.7999877929688 L 1127 660.5999755859375 L 1127 634.9000244140625 Z" class="st17" style="fill: rgb(47, 47, 71);" transform="matrix(1, 0, 0, 1, -964.3851318359375, -544.24267578125)"/><path d="M 1090 766.5 L 1090 776.7000122070312 L 1127 776.7000122070312 L 1127 771.5999755859375 L 1127 766.5 L 1095.699951171875 766.5 Z" class="st17" style="fill: rgb(47, 47, 71);" transform="matrix(1, 0, 0, 1, -964.3851318359375, -544.24267578125)"/><path d="M 1158.300048828125 766.5 L 1127 766.5 L 1127 771.5999755859375 L 1127 776.7000122070312 L 1164 776.7000122070312 L 1164 766.5 Z" class="st6" style="fill: rgb(35, 35, 51);" transform="matrix(1, 0, 0, 1, -964.3851318359375, -544.24267578125)"/>

</svg>