<?xml version="1.0" encoding="utf-8"?>
<svg id="master-artboard" viewBox="0 0 147.13446044921875 143.13917541503906" version="1.1" xmlns="http://www.w3.org/2000/svg" x="0px" y="0px" width="147.13446044921875px" height="143.13917541503906px" enable-background="new 0 0 1400 980"><rect id="ee-background" x="0" y="0" width="147.13446044921875" height="143.13917541503906" style="fill: white; fill-opacity: 0; pointer-events: none;"/>

<path d="M 490.5 181.300003 H 590.5 V 240.300003 H 490.5 V 181.300003 Z" fill="#EBEBEC" transform="matrix(1, 0, 0, 1, -466.94409179687494, -115.21997070312499)"/><path fill="#DCDDDE" d="M605.1,163.6H475.9c-0.3,0-0.4-0.4-0.2-0.6l64.8-43l64.8,43C605.5,163.2,605.4,163.6,605.1,163.6z" transform="matrix(1, 0, 0, 1, -466.94409179687494, -115.21997070312499)"/><path fill="#000432" d="M605.1,166.1H475.9c-1.2,0-2.3-0.8-2.7-2c-0.4-1.2,0.1-2.5,1.1-3.2l66.2-43.9l66.2,43.9&#10;&#9;&#9;&#9;c1,0.7,1.5,2,1.1,3.2C607.4,165.3,606.3,166.1,605.1,166.1z M483.1,161.1h114.9L540.5,123L483.1,161.1z" transform="matrix(1, 0, 0, 1, -466.94409179687494, -115.21997070312499)"/><path fill="#000432" d="M568.2,155.8h-55.4c-1.2,0-2.2-0.8-2.5-1.9c-0.3-1.1,0.1-2.3,1.1-2.9l29.2-19.3l29.1,19.3&#10;&#9;&#9;&#9;c1,0.6,1.4,1.8,1.1,2.9C570.4,155.1,569.3,155.8,568.2,155.8z M520.6,150.9h39.8l-19.9-13.2L520.6,150.9z" transform="matrix(1, 0, 0, 1, -466.94409179687494, -115.21997070312499)"/><path d="M 486 174.600006 H 496.7 V 240.900009 H 486 V 174.600006 Z" fill="#FCB643" transform="matrix(1, 0, 0, 1, -466.94409179687494, -115.21997070312499)"/><path d="M 486 174.600006 H 491.4 V 240.900009 H 486 V 174.600006 Z" fill="#FFE1A7" transform="matrix(1, 0, 0, 1, -466.94409179687494, -115.21997070312499)"/><path fill="#000432" d="M499.2,243.4h-15.7v-71.3h15.7V243.4z M488.5,238.5h5.8v-61.3h-5.8V238.5z" transform="matrix(1, 0, 0, 1, -466.94409179687494, -115.21997070312499)"/><path d="M 584.200012 174.600006 H 594.900012 V 240.900009 H 584.200012 V 174.600006 Z" fill="#FCB643" transform="matrix(1, 0, 0, 1, -466.94409179687494, -115.21997070312499)"/><path d="M 584.200012 174.600006 H 589.600012 V 240.900009 H 584.200012 V 174.600006 Z" fill="#FFE1A7" transform="matrix(1, 0, 0, 1, -466.94409179687494, -115.21997070312499)"/><path fill="#000432" d="M597.4,243.4h-15.7v-71.3h15.7V243.4z M586.7,238.5h5.8v-61.3h-5.8V238.5z" transform="matrix(1, 0, 0, 1, -466.94409179687494, -115.21997070312499)"/><path d="M 474.5 240.899994 H 606.5 V 250.199994 H 474.5 V 240.899994 Z" fill="#999B9E" transform="matrix(1, 0, 0, 1, -466.94409179687494, -115.21997070312499)"/><path d="M 474.5 240.899994 H 485 V 250.199994 H 474.5 V 240.899994 Z" fill="#DCDDDE" transform="matrix(1, 0, 0, 1, -466.94409179687494, -115.21997070312499)"/><path fill="#000432" d="M609,252.8H472v-14.3h137V252.8z M476.9,247.8H604v-4.4H476.9V247.8z" transform="matrix(1, 0, 0, 1, -466.94409179687494, -115.21997070312499)"/><path d="M 470.200012 163.600006 H 610.800018 V 174.600006 H 470.200012 V 163.600006 Z" fill="#999B9E" transform="matrix(1, 0, 0, 1, -466.94409179687494, -115.21997070312499)"/><path d="M 470.200012 163.600006 H 481.200012 V 174.600006 H 470.200012 V 163.600006 Z" fill="#DCDDDE" transform="matrix(1, 0, 0, 1, -466.94409179687494, -115.21997070312499)"/><path fill="#000432" d="M613.2,177.1H467.7v-16h145.5V177.1z M472.7,172.2h135.6v-6.1H472.7V172.2z" transform="matrix(1, 0, 0, 1, -466.94409179687494, -115.21997070312499)"/><path d="M 480.399994 174.600006 H 600.499992 V 184.400006 H 480.399994 V 174.600006 Z" fill="#F2633A" transform="matrix(1, 0, 0, 1, -466.94409179687494, -115.21997070312499)"/><path d="M 480.399994 174.600006 H 492.099994 V 184.400006 H 480.399994 V 174.600006 Z" fill="#F8A168" transform="matrix(1, 0, 0, 1, -466.94409179687494, -115.21997070312499)"/><path fill="#000432" d="M603,186.9H477.9v-14.8H603V186.9z M482.9,182h115.1v-4.8H482.9V182z" transform="matrix(1, 0, 0, 1, -466.94409179687494, -115.21997070312499)"/><path d="M 479 231.300003 H 503.700001 V 240.900003 H 479 V 231.300003 Z" fill="#F2633A" transform="matrix(1, 0, 0, 1, -466.94409179687494, -115.21997070312499)"/><path d="M 479 231.300003 H 486.9 V 240.900003 H 479 V 231.300003 Z" fill="#F8A168" transform="matrix(1, 0, 0, 1, -466.94409179687494, -115.21997070312499)"/><path fill="#000432" d="M506.2,243.4h-29.7v-14.6h29.7V243.4z M481.5,238.5h19.7v-4.7h-19.7V238.5z" transform="matrix(1, 0, 0, 1, -466.94409179687494, -115.21997070312499)"/><path d="M 577.200012 231.300003 H 601.900013 V 240.900003 H 577.200012 V 231.300003 Z" fill="#F2633A" transform="matrix(1, 0, 0, 1, -466.94409179687494, -115.21997070312499)"/><path d="M 577.200012 231.300003 H 584.200012 V 240.900003 H 577.200012 V 231.300003 Z" fill="#F8A168" transform="matrix(1, 0, 0, 1, -466.94409179687494, -115.21997070312499)"/><path fill="#000432" d="M604.4,243.4h-29.7v-14.6h29.7V243.4z M579.7,238.5h19.7v-4.7h-19.7V238.5z" transform="matrix(1, 0, 0, 1, -466.94409179687494, -115.21997070312499)"/><path fill="#999B9E" d="M537.9,195.6L537.9,195.6c-8.7,0-15.8,7.1-15.8,15.8v29.5h31.5v-29.5C553.6,202.7,546.6,195.6,537.9,195.6&#10;&#9;&#9;&#9;z" transform="matrix(1, 0, 0, 1, -466.94409179687494, -115.21997070312499)"/><path fill="#DCDDDE" d="M541.4,196c-1.1-0.3-2.3-0.4-3.5-0.4l0,0c-8.7,0-15.8,7.1-15.8,15.8v29.5h7.1v-29.5&#10;&#9;&#9;&#9;C529.2,203.9,534.4,197.6,541.4,196z" transform="matrix(1, 0, 0, 1, -466.94409179687494, -115.21997070312499)"/><path fill="#000432" d="M556.1,243.4h-36.5v-32c0-10.1,8.2-18.2,18.2-18.2c10.1,0,18.2,8.2,18.2,18.2V243.4z M524.6,238.5h26.5&#10;&#9;&#9;&#9;v-27.1c0-7.3-6-13.3-13.3-13.3c-7.3,0-13.3,6-13.3,13.3V238.5z" transform="matrix(1, 0, 0, 1, -466.94409179687494, -115.21997070312499)"/>
</svg>