<?xml version="1.0" encoding="utf-8"?>
<svg id="master-artboard" viewBox="0 0 180.18023681640625 171.8909912109375" version="1.1" xmlns="http://www.w3.org/2000/svg" x="0px" y="0px" style="enable-background:new 0 0 548 390;" width="180.18023681640625px" height="171.8909912109375px"><rect id="ee-background" x="0" y="0" width="180.18023681640625" height="171.8909912109375" style="fill: white; fill-opacity: 0; pointer-events: none;"/>

<radialGradient id="color_1_" cx="89.1332" cy="-1880.2733" r="318.058" gradientTransform="matrix(1.2426 0 0 1.179 163.2431 2411.8423)" gradientUnits="userSpaceOnUse">
		<stop offset="0" style="stop-color:#FFFFFF"/>
		<stop offset="0.564" style="stop-color:#FDFDFE"/>
		<stop offset="0.7948" style="stop-color:#F6F7F8"/>
		<stop offset="0.9643" style="stop-color:#EAECF0"/>
		<stop offset="1" style="stop-color:#E6E9ED"/>
	</radialGradient>

<g transform="matrix(1, 0, 0, 1, -1.4349276374695705, -0.9566184282302856)">
		
		
		
		<g transform="matrix(1, 0, 0, 1, -57.39710540126367, -18.6540592554107)">
			<g>
				<path class="st15" d="M229.4,57.4H69.9c-4.7,0-8.4,3.9-8.4,8.8v111c0,4.8,3.8,8.8,8.4,8.8h159.5c4.7,0,8.4-3.9,8.4-8.8v-111&#10;&#9;&#9;&#9;&#9;&#9;C237.9,61.4,234.1,57.4,229.4,57.4z M171.4,70.9c0,1.3-1.5,2.4-3.4,2.4h-36.7c-1.9,0-3.4-1.1-3.4-2.4v-5.2&#10;&#9;&#9;&#9;&#9;&#9;c0-1.3,1.5-2.4,3.4-2.4H168c1.9,0,3.4,1.1,3.4,2.4V70.9z" style="fill: rgb(93, 156, 236);"/>
				<path class="st16" d="M168,74.3h-36.7c-2.4,0-4.3-1.5-4.3-3.4v-5.2c0-1.9,1.9-3.4,4.3-3.4H168c2.4,0,4.3,1.5,4.3,3.4v5.2&#10;&#9;&#9;&#9;&#9;&#9;C172.4,72.8,170.5,74.3,168,74.3z M131.3,64.2c-1.5,0-2.5,0.8-2.5,1.5v5.2c0,0.7,1,1.5,2.5,1.5H168c1.5,0,2.5-0.8,2.5-1.5v-5.2&#10;&#9;&#9;&#9;&#9;&#9;c0-0.7-1-1.5-2.5-1.5H131.3z" style="fill: rgb(74, 137, 220);"/>
				<g>
					<path class="st3" d="M71.6,178.2c-2.5,0-4.6-2.1-4.6-4.6V84.1c0-2.5,2.1-4.6,4.6-4.6h156.1c2.5,0,4.6,2.1,4.6,4.6v89.5&#10;&#9;&#9;&#9;&#9;&#9;&#9;c0,2.5-2.1,4.6-4.6,4.6H71.6z" style="fill: rgb(255, 255, 255);"/>
					<path class="st16" d="M227.7,80.2c2.1,0,3.9,1.8,3.9,3.9v89.5c0,2.1-1.8,3.9-3.9,3.9H71.6c-2.1,0-3.9-1.8-3.9-3.9V84.1&#10;&#9;&#9;&#9;&#9;&#9;&#9;c0-2.1,1.8-3.9,3.9-3.9H227.7 M227.7,78.8H71.6c-2.9,0-5.3,2.4-5.3,5.3v89.5c0,2.9,2.4,5.3,5.3,5.3h156.1&#10;&#9;&#9;&#9;&#9;&#9;&#9;c2.9,0,5.3-2.4,5.3-5.3V84.1C233,81.1,230.6,78.8,227.7,78.8L227.7,78.8z" style="fill: rgb(74, 137, 220);"/>
				</g>
				<path class="st4" d="M164.2,23.4h-29c-1.6,0-3,1.1-3,2.5v42.2c0,1.4,1.3,1.3,3,1.3h29c1.6,0,3,0.1,3-1.3V25.9&#10;&#9;&#9;&#9;&#9;&#9;C167.1,24.5,165.8,23.4,164.2,23.4z" style="fill: rgb(204, 209, 217);"/>
				<path class="st5" d="M167.1,66.2c0-0.1,0-0.1,0-0.2V54.6h-34.9V66c0,0.1,0,0.1,0,0.2H167.1z" style="fill: rgb(230, 233, 237);"/>
				<g>
					<path d="M 74.199997 165 H 75.399997 V 174.4 H 74.199997 V 165 Z" class="st6" style="fill: rgb(170, 178, 188);"/>
					<path d="M 77.5 165 H 78.7 V 174.4 H 77.5 V 165 Z" class="st6" style="fill: rgb(170, 178, 188);"/>
					<path d="M 76 165 H 76.6 V 174.4 H 76 V 165 Z" class="st6" style="fill: rgb(170, 178, 188);"/>
					<path d="M 79.199997 165 H 79.799997 V 174.4 H 79.199997 V 165 Z" class="st6" style="fill: rgb(170, 178, 188);"/>
					<path d="M 84.800003 165 H 85.400003 V 174.4 H 84.800003 V 165 Z" class="st6" style="fill: rgb(170, 178, 188);"/>
					<path d="M 85.699997 165 H 86.299997 V 174.4 H 85.699997 V 165 Z" class="st6" style="fill: rgb(170, 178, 188);"/>
					<path d="M 87 165 H 87.6 V 174.4 H 87 V 165 Z" class="st6" style="fill: rgb(170, 178, 188);"/>
					<path d="M 95.099998 165 H 95.699998 V 174.4 H 95.099998 V 165 Z" class="st6" style="fill: rgb(170, 178, 188);"/>
					<path d="M 102.5 165 H 103.1 V 174.4 H 102.5 V 165 Z" class="st6" style="fill: rgb(170, 178, 188);"/>
					<path d="M 106.599998 165 H 107.199998 V 174.4 H 106.599998 V 165 Z" class="st6" style="fill: rgb(170, 178, 188);"/>
					<path d="M 113 165 H 113.6 V 174.4 H 113 V 165 Z" class="st6" style="fill: rgb(170, 178, 188);"/>
					<path d="M 118.099998 165 H 118.699998 V 174.4 H 118.099998 V 165 Z" class="st6" style="fill: rgb(170, 178, 188);"/>
					<path d="M 121.699997 165 H 122.299997 V 174.4 H 121.699997 V 165 Z" class="st6" style="fill: rgb(170, 178, 188);"/>
					<path d="M 122.900002 165 H 123.500002 V 174.4 H 122.900002 V 165 Z" class="st6" style="fill: rgb(170, 178, 188);"/>
					<path d="M 127.099998 165 H 127.699998 V 174.4 H 127.099998 V 165 Z" class="st6" style="fill: rgb(170, 178, 188);"/>
					<path d="M 131.899994 165 H 132.499994 V 174.4 H 131.899994 V 165 Z" class="st6" style="fill: rgb(170, 178, 188);"/>
					<path d="M 136.5 165 H 137.1 V 174.4 H 136.5 V 165 Z" class="st6" style="fill: rgb(170, 178, 188);"/>
					<path d="M 142.199997 165 H 142.799997 V 174.4 H 142.199997 V 165 Z" class="st6" style="fill: rgb(170, 178, 188);"/>
					<path d="M 146.699997 165 H 147.299997 V 174.4 H 146.699997 V 165 Z" class="st6" style="fill: rgb(170, 178, 188);"/>
					<path d="M 152.199997 165 H 152.799997 V 174.4 H 152.199997 V 165 Z" class="st6" style="fill: rgb(170, 178, 188);"/>
					<path d="M 153.699997 165 H 154.299997 V 174.4 H 153.699997 V 165 Z" class="st6" style="fill: rgb(170, 178, 188);"/>
					<path d="M 156.199997 165 H 156.799997 V 174.4 H 156.199997 V 165 Z" class="st6" style="fill: rgb(170, 178, 188);"/>
					<path d="M 163.699997 165 H 164.299997 V 174.4 H 163.699997 V 165 Z" class="st6" style="fill: rgb(170, 178, 188);"/>
					<path d="M 168.199997 165 H 168.799997 V 174.4 H 168.199997 V 165 Z" class="st6" style="fill: rgb(170, 178, 188);"/>
					<path d="M 179.100006 165 H 179.700006 V 174.4 H 179.100006 V 165 Z" class="st6" style="fill: rgb(170, 178, 188);"/>
					<path d="M 175.899994 165 H 176.499994 V 174.4 H 175.899994 V 165 Z" class="st6" style="fill: rgb(170, 178, 188);"/>
					<path d="M 185.100006 165 H 185.700006 V 174.4 H 185.100006 V 165 Z" class="st6" style="fill: rgb(170, 178, 188);"/>
					<path d="M 189.600006 165 H 190.200006 V 174.4 H 189.600006 V 165 Z" class="st6" style="fill: rgb(170, 178, 188);"/>
					<path d="M 193.100006 165 H 193.700006 V 174.4 H 193.100006 V 165 Z" class="st6" style="fill: rgb(170, 178, 188);"/>
					<path d="M 196.100006 165 H 196.700006 V 174.4 H 196.100006 V 165 Z" class="st6" style="fill: rgb(170, 178, 188);"/>
					<path d="M 200.600006 165 H 201.200006 V 174.4 H 200.600006 V 165 Z" class="st6" style="fill: rgb(170, 178, 188);"/>
					<path d="M 207.199997 165 H 207.799997 V 174.4 H 207.199997 V 165 Z" class="st6" style="fill: rgb(170, 178, 188);"/>
					<path d="M 209.899994 165 H 210.499994 V 174.4 H 209.899994 V 165 Z" class="st6" style="fill: rgb(170, 178, 188);"/>
					<path d="M 215.199997 165 H 215.799997 V 174.4 H 215.199997 V 165 Z" class="st6" style="fill: rgb(170, 178, 188);"/>
					<path d="M 220.399994 165 H 220.999994 V 174.4 H 220.399994 V 165 Z" class="st6" style="fill: rgb(170, 178, 188);"/>
					<path d="M 222.800003 165 H 223.400003 V 174.4 H 222.800003 V 165 Z" class="st6" style="fill: rgb(170, 178, 188);"/>
					<path d="M 222.100006 165 H 222.300006 V 174.4 H 222.100006 V 165 Z" class="st6" style="fill: rgb(170, 178, 188);"/>
					<path d="M 218 165 H 218.2 V 174.4 H 218 V 165 Z" class="st6" style="fill: rgb(170, 178, 188);"/>
					<path d="M 216.399994 165 H 216.599994 V 174.4 H 216.399994 V 165 Z" class="st6" style="fill: rgb(170, 178, 188);"/>
					<path d="M 212.699997 165 H 212.899997 V 174.4 H 212.699997 V 165 Z" class="st6" style="fill: rgb(170, 178, 188);"/>
					<path d="M 206.600006 165 H 206.800006 V 174.4 H 206.600006 V 165 Z" class="st6" style="fill: rgb(170, 178, 188);"/>
					<path d="M 199.800003 165 H 200.000003 V 174.4 H 199.800003 V 165 Z" class="st6" style="fill: rgb(170, 178, 188);"/>
					<path d="M 201.899994 165 H 202.099994 V 174.4 H 201.899994 V 165 Z" class="st6" style="fill: rgb(170, 178, 188);"/>
					<path d="M 202.899994 165 H 203.099994 V 174.4 H 202.899994 V 165 Z" class="st6" style="fill: rgb(170, 178, 188);"/>
					<path d="M 195.399994 165 H 195.599994 V 174.4 H 195.399994 V 165 Z" class="st6" style="fill: rgb(170, 178, 188);"/>
					<path d="M 194.5 165 H 194.7 V 174.4 H 194.5 V 165 Z" class="st6" style="fill: rgb(170, 178, 188);"/>
					<path d="M 190.899994 165 H 191.099994 V 174.4 H 190.899994 V 165 Z" class="st6" style="fill: rgb(170, 178, 188);"/>
					<path d="M 186.399994 165 H 186.599994 V 174.4 H 186.399994 V 165 Z" class="st6" style="fill: rgb(170, 178, 188);"/>
					<path d="M 184.199997 165 H 184.399997 V 174.4 H 184.199997 V 165 Z" class="st6" style="fill: rgb(170, 178, 188);"/>
					<path d="M 178.100006 165 H 178.300006 V 174.4 H 178.100006 V 165 Z" class="st6" style="fill: rgb(170, 178, 188);"/>
					<path d="M 175 165 H 175.2 V 174.4 H 175 V 165 Z" class="st6" style="fill: rgb(170, 178, 188);"/>
					<path d="M 173.699997 165 H 173.899997 V 174.4 H 173.699997 V 165 Z" class="st6" style="fill: rgb(170, 178, 188);"/>
					<path d="M 167.5 165 H 167.7 V 174.4 H 167.5 V 165 Z" class="st6" style="fill: rgb(170, 178, 188);"/>
					<path d="M 166.399994 165 H 166.599994 V 174.4 H 166.399994 V 165 Z" class="st6" style="fill: rgb(170, 178, 188);"/>
					<path d="M 165.300003 165 H 165.500003 V 174.4 H 165.300003 V 165 Z" class="st6" style="fill: rgb(170, 178, 188);"/>
					<path d="M 158.199997 165 H 158.399997 V 174.4 H 158.199997 V 165 Z" class="st6" style="fill: rgb(170, 178, 188);"/>
					<path d="M 159 165 H 159.2 V 174.4 H 159 V 165 Z" class="st6" style="fill: rgb(170, 178, 188);"/>
					<path d="M 157.399994 165 H 157.599994 V 174.4 H 157.399994 V 165 Z" class="st6" style="fill: rgb(170, 178, 188);"/>
					<path d="M 155 165 H 155.2 V 174.4 H 155 V 165 Z" class="st6" style="fill: rgb(170, 178, 188);"/>
					<path d="M 145.5 165 H 145.7 V 174.4 H 145.5 V 165 Z" class="st6" style="fill: rgb(170, 178, 188);"/>
					<path d="M 147.800003 165 H 148.000003 V 174.4 H 147.800003 V 165 Z" class="st6" style="fill: rgb(170, 178, 188);"/>
					<path d="M 144.5 165 H 144.7 V 174.4 H 144.5 V 165 Z" class="st6" style="fill: rgb(170, 178, 188);"/>
					<path d="M 143.5 165 H 143.7 V 174.4 H 143.5 V 165 Z" class="st6" style="fill: rgb(170, 178, 188);"/>
					<path d="M 135.699997 165 H 135.899997 V 174.4 H 135.699997 V 165 Z" class="st6" style="fill: rgb(170, 178, 188);"/>
					<path d="M 134.199997 165 H 134.399997 V 174.4 H 134.199997 V 165 Z" class="st6" style="fill: rgb(170, 178, 188);"/>
					<path d="M 133.100006 165 H 133.300006 V 174.4 H 133.100006 V 165 Z" class="st6" style="fill: rgb(170, 178, 188);"/>
					<path d="M 126.099998 165 H 126.299998 V 174.4 H 126.099998 V 165 Z" class="st6" style="fill: rgb(170, 178, 188);"/>
					<path d="M 125.199997 165 H 125.399997 V 174.4 H 125.199997 V 165 Z" class="st6" style="fill: rgb(170, 178, 188);"/>
					<path d="M 123.900002 165 H 124.100002 V 174.4 H 123.900002 V 165 Z" class="st6" style="fill: rgb(170, 178, 188);"/>
					<path d="M 115.699997 165 H 115.899997 V 174.4 H 115.699997 V 165 Z" class="st6" style="fill: rgb(170, 178, 188);"/>
					<path d="M 112.099998 165 H 112.299998 V 174.4 H 112.099998 V 165 Z" class="st6" style="fill: rgb(170, 178, 188);"/>
					<path d="M 110.699997 165 H 110.899997 V 174.4 H 110.699997 V 165 Z" class="st6" style="fill: rgb(170, 178, 188);"/>
					<path d="M 109.099998 165 H 109.299998 V 174.4 H 109.099998 V 165 Z" class="st6" style="fill: rgb(170, 178, 188);"/>
					<path d="M 108 165 H 108.2 V 174.4 H 108 V 165 Z" class="st6" style="fill: rgb(170, 178, 188);"/>
					<path d="M 105.800003 165 H 106.000003 V 174.4 H 105.800003 V 165 Z" class="st6" style="fill: rgb(170, 178, 188);"/>
					<path d="M 99.599998 165 H 99.799998 V 174.4 H 99.599998 V 165 Z" class="st6" style="fill: rgb(170, 178, 188);"/>
					<path d="M 97.900002 165 H 98.100002 V 174.4 H 97.900002 V 165 Z" class="st6" style="fill: rgb(170, 178, 188);"/>
					<path d="M 96.5 165 H 96.7 V 174.4 H 96.5 V 165 Z" class="st6" style="fill: rgb(170, 178, 188);"/>
					<path d="M 90.099998 165 H 90.299998 V 174.4 H 90.099998 V 165 Z" class="st6" style="fill: rgb(170, 178, 188);"/>
					<path d="M 88.800003 165 H 89.000003 V 174.4 H 88.800003 V 165 Z" class="st6" style="fill: rgb(170, 178, 188);"/>
					<path d="M 80.800003 165 H 81.000003 V 174.4 H 80.800003 V 165 Z" class="st6" style="fill: rgb(170, 178, 188);"/>
					<path d="M 83.699997 165 H 83.899997 V 174.4 H 83.699997 V 165 Z" class="st6" style="fill: rgb(170, 178, 188);"/>
					<path d="M 139.300003 165 H 139.900003 V 174.4 H 139.300003 V 165 Z" class="st6" style="fill: rgb(170, 178, 188);"/>
					<path d="M 82.099998 165 H 83.299999 V 174.4 H 82.099998 V 165 Z" class="st6" style="fill: rgb(170, 178, 188);"/>
					<path d="M 91.300003 165 H 92.500003 V 174.4 H 91.300003 V 165 Z" class="st6" style="fill: rgb(170, 178, 188);"/>
					<path d="M 93.199997 165 H 94.399997 V 174.4 H 93.199997 V 165 Z" class="st6" style="fill: rgb(170, 178, 188);"/>
					<path d="M 100.599998 165 H 101.799999 V 174.4 H 100.599998 V 165 Z" class="st6" style="fill: rgb(170, 178, 188);"/>
					<path d="M 103.599998 165 H 104.799999 V 174.4 H 103.599998 V 165 Z" class="st6" style="fill: rgb(170, 178, 188);"/>
					<path d="M 116.300003 165 H 117.500003 V 174.4 H 116.300003 V 165 Z" class="st6" style="fill: rgb(170, 178, 188);"/>
					<path d="M 114.099998 165 H 115.299999 V 174.4 H 114.099998 V 165 Z" class="st6" style="fill: rgb(170, 178, 188);"/>
					<path d="M 119.300003 165 H 120.500003 V 174.4 H 119.300003 V 165 Z" class="st6" style="fill: rgb(170, 178, 188);"/>
					<path d="M 128.199997 165 H 129.399997 V 174.4 H 128.199997 V 165 Z" class="st6" style="fill: rgb(170, 178, 188);"/>
					<path d="M 129.800003 165 H 131.000003 V 174.4 H 129.800003 V 165 Z" class="st6" style="fill: rgb(170, 178, 188);"/>
					<path d="M 137.699997 165 H 138.899997 V 174.4 H 137.699997 V 165 Z" class="st6" style="fill: rgb(170, 178, 188);"/>
					<path d="M 140.199997 165 H 141.399997 V 174.4 H 140.199997 V 165 Z" class="st6" style="fill: rgb(170, 178, 188);"/>
					<path d="M 148.699997 165 H 149.899997 V 174.4 H 148.699997 V 165 Z" class="st6" style="fill: rgb(170, 178, 188);"/>
					<path d="M 150.699997 165 H 151.899997 V 174.4 H 150.699997 V 165 Z" class="st6" style="fill: rgb(170, 178, 188);"/>
					<path d="M 161.899994 165 H 163.099994 V 174.4 H 161.899994 V 165 Z" class="st6" style="fill: rgb(170, 178, 188);"/>
					<path d="M 160.100006 165 H 161.300006 V 174.4 H 160.100006 V 165 Z" class="st6" style="fill: rgb(170, 178, 188);"/>
					<path d="M 169.300003 165 H 170.500003 V 174.4 H 169.300003 V 165 Z" class="st6" style="fill: rgb(170, 178, 188);"/>
					<path d="M 171.600006 165 H 172.800006 V 174.4 H 171.600006 V 165 Z" class="st6" style="fill: rgb(170, 178, 188);"/>
					<path d="M 180.100006 165 H 181.300006 V 174.4 H 180.100006 V 165 Z" class="st6" style="fill: rgb(170, 178, 188);"/>
					<path d="M 182.100006 165 H 183.300006 V 174.4 H 182.100006 V 165 Z" class="st6" style="fill: rgb(170, 178, 188);"/>
					<path d="M 187.300003 165 H 188.500003 V 174.4 H 187.300003 V 165 Z" class="st6" style="fill: rgb(170, 178, 188);"/>
					<path d="M 191.5 165 H 192.7 V 174.4 H 191.5 V 165 Z" class="st6" style="fill: rgb(170, 178, 188);"/>
					<path d="M 197.699997 165 H 198.899997 V 174.4 H 197.699997 V 165 Z" class="st6" style="fill: rgb(170, 178, 188);"/>
					<path d="M 210.899994 165 H 212.099994 V 174.4 H 210.899994 V 165 Z" class="st6" style="fill: rgb(170, 178, 188);"/>
					<path d="M 208.199997 165 H 209.399997 V 174.4 H 208.199997 V 165 Z" class="st6" style="fill: rgb(170, 178, 188);"/>
					<path d="M 203.600006 165 H 205.900006 V 174.4 H 203.600006 V 165 Z" class="st6" style="fill: rgb(170, 178, 188);"/>
					<path d="M 213.399994 165 H 214.599994 V 174.4 H 213.399994 V 165 Z" class="st6" style="fill: rgb(170, 178, 188);"/>
					<path d="M 218.699997 165 H 219.899997 V 174.4 H 218.699997 V 165 Z" class="st6" style="fill: rgb(170, 178, 188);"/>
					<path d="M 223.899994 165 H 225.099994 V 174.4 H 223.899994 V 165 Z" class="st6" style="fill: rgb(170, 178, 188);"/>
				</g>
			</g>
			<g>
				<path class="st15" d="M149.4,156.2c0,2.1-1.8,3.9-3.9,3.9H78.1c-2.1,0-3.9-1.8-3.9-3.9V91.2c0-2.1,1.8-3.9,3.9-3.9h67.4&#10;&#9;&#9;&#9;&#9;&#9;c2.1,0,3.9,1.8,3.9,3.9V156.2z" style="fill: rgb(93, 156, 236);"/>
				<g>
					<g>
						<path class="st2" d="M132.3,140.9c0.4,0.1,0.8,0.2,1.2,0.4c0,0,0,0,0,0C133.1,141.2,132.7,141.1,132.3,140.9z" style="fill: rgb(140, 193, 82);"/>
						<path class="st2" d="M133.5,141.3c0.2,0.2,0.3,0.5,0.3,0.8c0,0.7-0.6,1.3-1.3,1.3c-0.7,0-1.3-0.6-1.3-1.3c0-0.6,0.4-1.1,1-1.2&#10;&#9;&#9;&#9;&#9;&#9;&#9;&#9;c-1.5-0.4-3.1-0.5-5-0.3c0.5,0,1,0.1,1.3,0.1l0.7,0l-0.5,0.5c-1.1,1.1-8,5.5-14,7.1c0,0.1,0,0.2,0,0.2c0,0.7-0.6,1.3-1.3,1.3&#10;&#9;&#9;&#9;&#9;&#9;&#9;&#9;c-0.6,0-1.2-0.5-1.3-1.1c-4.5-0.7-15.6-6.6-16.6-7.5l-0.6-0.5l0.7-0.1c0.2,0,0.4,0,0.6,0c0.2,0,0.3,0,0.5,0&#10;&#9;&#9;&#9;&#9;&#9;&#9;&#9;c-9.3-0.9-14.5,5.8-16.1,13.4c0.2-0.3,0.6-0.5,1-0.5c0.7,0,1.3,0.6,1.3,1.3c0,0.7-0.6,1.3-1.3,1.3c-0.5,0-1-0.3-1.2-0.8&#10;&#9;&#9;&#9;&#9;&#9;&#9;&#9;c-0.2,1.2-0.3,2.4-0.3,3.7v1.2h61.8v-1.2C142.2,151.5,140,143.8,133.5,141.3z M88.2,149.8c-0.7,0-1.3-0.6-1.3-1.3&#10;&#9;&#9;&#9;&#9;&#9;&#9;&#9;c0-0.7,0.6-1.3,1.3-1.3c0.7,0,1.3,0.6,1.3,1.3C89.5,149.2,88.9,149.8,88.2,149.8z M94.6,156.1c-0.7,0-1.3-0.6-1.3-1.3&#10;&#9;&#9;&#9;&#9;&#9;&#9;&#9;c0-0.7,0.6-1.3,1.3-1.3c0.7,0,1.3,0.6,1.3,1.3C95.8,155.5,95.3,156.1,94.6,156.1z M94.6,143.4c-0.7,0-1.3-0.6-1.3-1.3&#10;&#9;&#9;&#9;&#9;&#9;&#9;&#9;c0-0.7,0.6-1.3,1.3-1.3c0.7,0,1.3,0.6,1.3,1.3C95.8,142.9,95.3,143.4,94.6,143.4z M100.9,149.8c-0.7,0-1.3-0.6-1.3-1.3&#10;&#9;&#9;&#9;&#9;&#9;&#9;&#9;c0-0.7,0.6-1.3,1.3-1.3c0.7,0,1.3,0.6,1.3,1.3C102.2,149.2,101.6,149.8,100.9,149.8z M107.2,156.1c-0.7,0-1.3-0.6-1.3-1.3&#10;&#9;&#9;&#9;&#9;&#9;&#9;&#9;c0-0.7,0.6-1.3,1.3-1.3c0.7,0,1.3,0.6,1.3,1.3C108.5,155.5,107.9,156.1,107.2,156.1z M119.9,156.1c-0.7,0-1.3-0.6-1.3-1.3&#10;&#9;&#9;&#9;&#9;&#9;&#9;&#9;c0-0.7,0.6-1.3,1.3-1.3c0.7,0,1.3,0.6,1.3,1.3C121.2,155.5,120.6,156.1,119.9,156.1z M126.2,149.8c-0.7,0-1.3-0.6-1.3-1.3&#10;&#9;&#9;&#9;&#9;&#9;&#9;&#9;c0-0.7,0.6-1.3,1.3-1.3c0.7,0,1.3,0.6,1.3,1.3C127.5,149.2,126.9,149.8,126.2,149.8z M132.6,156.1c-0.7,0-1.3-0.6-1.3-1.3&#10;&#9;&#9;&#9;&#9;&#9;&#9;&#9;c0-0.7,0.6-1.3,1.3-1.3c0.7,0,1.3,0.6,1.3,1.3C133.8,155.5,133.3,156.1,132.6,156.1z M138.9,149.8c-0.7,0-1.3-0.6-1.3-1.3&#10;&#9;&#9;&#9;&#9;&#9;&#9;&#9;c0-0.7,0.6-1.3,1.3-1.3c0.7,0,1.3,0.6,1.3,1.3C140.2,149.2,139.6,149.8,138.9,149.8z" style="fill: rgb(140, 193, 82);"/>
					</g>
					<g>
						<path class="st3" d="M97.3,125.8c0-0.1-0.1-0.1-0.1-0.1c0,0,0,0,0,0c0,0-0.1,0-0.1,0c-0.2,0-0.4,0.3-0.5,0.7&#10;&#9;&#9;&#9;&#9;&#9;&#9;&#9;c-0.1,0.5,0.1,0.8,0.4,1.1c0.6,0.5,1.2,1.4,2.1,1.2c0.2,0,0.3-0.1,0.4-0.1c0,0,0,0,0.1,0c0.3-0.2,0.5-0.4,0.5-0.7&#10;&#9;&#9;&#9;&#9;&#9;&#9;&#9;C99.1,127.6,97.9,126.5,97.3,125.8z" style="fill: rgb(255, 255, 255);"/>
						<path class="st3" d="M99.5,128.5C99.5,128.5,99.5,128.5,99.5,128.5C99.5,128.5,99.5,128.5,99.5,128.5z" style="fill: rgb(255, 255, 255);"/>
						<path class="st3" d="M97.1,125.6C97.1,125.6,97.1,125.6,97.1,125.6C97.1,125.6,97.1,125.6,97.1,125.6z" style="fill: rgb(255, 255, 255);"/>
						<path class="st3" d="M97.2,125.7c0,0,0.1,0.1,0.1,0.1C97.3,125.7,97.2,125.7,97.2,125.7z" style="fill: rgb(255, 255, 255);"/>
						<path class="st3" d="M126.4,125.5c0,0-0.1,0.1-0.1,0.1c-0.7,0.6-2,1.6-3,1.6c0,0.3,0.1,0.5,0.3,0.7c0.1,0.1,0.1,0.1,0.2,0.2&#10;&#9;&#9;&#9;&#9;&#9;&#9;&#9;c0.1,0.1,0.2,0.1,0.4,0.2c0.8,0.3,1.6-0.5,2.2-0.9c0.3-0.2,0.6-0.5,0.6-1c0-0.4-0.2-0.7-0.4-0.7&#10;&#9;&#9;&#9;&#9;&#9;&#9;&#9;C126.5,125.5,126.5,125.5,126.4,125.5C126.4,125.5,126.4,125.5,126.4,125.5z" style="fill: rgb(255, 255, 255);"/>
						<path class="st3" d="M123.5,127.8c0.1,0.1,0.1,0.1,0.2,0.2C123.7,128,123.6,127.9,123.5,127.8z" style="fill: rgb(255, 255, 255);"/>
						<path class="st3" d="M126.2,125.6c0.1,0,0.1-0.1,0.1-0.1C126.3,125.6,126.3,125.6,126.2,125.6z" style="fill: rgb(255, 255, 255);"/>
						<path class="st3" d="M126.4,125.5C126.5,125.5,126.5,125.5,126.4,125.5C126.5,125.5,126.5,125.5,126.4,125.5z" style="fill: rgb(255, 255, 255);"/>
						<path class="st3" d="M126.2,147.2c-0.7,0-1.3,0.6-1.3,1.3c0,0.7,0.6,1.3,1.3,1.3c0.7,0,1.3-0.6,1.3-1.3&#10;&#9;&#9;&#9;&#9;&#9;&#9;&#9;C127.5,147.8,126.9,147.2,126.2,147.2z" style="fill: rgb(255, 255, 255);"/>
						<path d="M 140.199994 148.5 A 1.3 1.3 0 0 1 138.899994 149.8 A 1.3 1.3 0 0 1 137.599994 148.5 A 1.3 1.3 0 0 1 138.899994 147.2 A 1.3 1.3 0 0 1 140.199994 148.5 Z" class="st3" style="fill: rgb(255, 255, 255);"/>
						<path d="M 133.900006 154.800003 A 1.3 1.3 0 0 1 132.600006 156.100003 A 1.3 1.3 0 0 1 131.300006 154.800003 A 1.3 1.3 0 0 1 132.600006 153.500003 A 1.3 1.3 0 0 1 133.900006 154.800003 Z" class="st3" style="fill: rgb(255, 255, 255);"/>
						<path d="M 121.200001 154.800003 A 1.3 1.3 0 0 1 119.900002 156.100003 A 1.3 1.3 0 0 1 118.600002 154.800003 A 1.3 1.3 0 0 1 119.900002 153.500003 A 1.3 1.3 0 0 1 121.200001 154.800003 Z" class="st3" style="fill: rgb(255, 255, 255);"/>
						<path class="st3" d="M132.3,140.9C132.3,140.9,132.3,140.9,132.3,140.9C132.3,140.9,132.3,140.9,132.3,140.9&#10;&#9;&#9;&#9;&#9;&#9;&#9;&#9;C132.3,140.9,132.3,140.9,132.3,140.9z" style="fill: rgb(255, 255, 255);"/>
						<path class="st3" d="M131.3,142.2c0,0.7,0.6,1.3,1.3,1.3c0.7,0,1.3-0.6,1.3-1.3c0-0.3-0.1-0.6-0.3-0.8&#10;&#9;&#9;&#9;&#9;&#9;&#9;&#9;c-0.4-0.2-0.8-0.3-1.2-0.4c0,0,0,0,0,0C131.7,141.1,131.3,141.6,131.3,142.2z" style="fill: rgb(255, 255, 255);"/>
						<path d="M 102.200001 148.5 A 1.3 1.3 0 0 1 100.900002 149.8 A 1.3 1.3 0 0 1 99.600002 148.5 A 1.3 1.3 0 0 1 100.900002 147.2 A 1.3 1.3 0 0 1 102.200001 148.5 Z" class="st3" style="fill: rgb(255, 255, 255);"/>
						<path class="st3" d="M112.6,148.7L112.6,148.7c-0.1,0-0.2,0-0.3,0c0.1,0.6,0.6,1.1,1.3,1.1c0.7,0,1.3-0.6,1.3-1.3&#10;&#9;&#9;&#9;&#9;&#9;&#9;&#9;c0-0.1,0-0.2,0-0.2C114.1,148.5,113.3,148.6,112.6,148.7L112.6,148.7z" style="fill: rgb(255, 255, 255);"/>
						<path class="st3" d="M107.2,153.6c-0.7,0-1.3,0.6-1.3,1.3c0,0.7,0.6,1.3,1.3,1.3c0.7,0,1.3-0.6,1.3-1.3&#10;&#9;&#9;&#9;&#9;&#9;&#9;&#9;C108.5,154.1,107.9,153.6,107.2,153.6z" style="fill: rgb(255, 255, 255);"/>
						<path d="M 95.899998 154.800003 A 1.3 1.3 0 0 1 94.599998 156.100003 A 1.3 1.3 0 0 1 93.299999 154.800003 A 1.3 1.3 0 0 1 94.599998 153.500003 A 1.3 1.3 0 0 1 95.899998 154.800003 Z" class="st3" style="fill: rgb(255, 255, 255);"/>
						<path d="M 95.899998 142.199997 A 1.3 1.3 0 0 1 94.599998 143.499997 A 1.3 1.3 0 0 1 93.299999 142.199997 A 1.3 1.3 0 0 1 94.599998 140.899997 A 1.3 1.3 0 0 1 95.899998 142.199997 Z" class="st3" style="fill: rgb(255, 255, 255);"/>
						<path d="M 89.499997 148.5 A 1.3 1.3 0 0 1 88.199997 149.8 A 1.3 1.3 0 0 1 86.899997 148.5 A 1.3 1.3 0 0 1 88.199997 147.2 A 1.3 1.3 0 0 1 89.499997 148.5 Z" class="st3" style="fill: rgb(255, 255, 255);"/>
						<path class="st3" d="M80.9,154C80.9,154.1,80.9,154.1,80.9,154C80.9,154.1,80.9,154.1,80.9,154C80.9,154,80.9,154,80.9,154z" style="fill: rgb(255, 255, 255);"/>
						<path class="st3" d="M80.7,155.3C80.7,155.3,80.7,155.3,80.7,155.3C80.7,155.3,80.7,155.2,80.7,155.3&#10;&#9;&#9;&#9;&#9;&#9;&#9;&#9;C80.7,155.2,80.7,155.3,80.7,155.3z" style="fill: rgb(255, 255, 255);"/>
						<path class="st3" d="M81.9,156.1c0.7,0,1.3-0.6,1.3-1.3c0-0.7-0.6-1.3-1.3-1.3c-0.4,0-0.7,0.2-1,0.5c0,0,0,0,0,0&#10;&#9;&#9;&#9;&#9;&#9;&#9;&#9;c-0.1,0.4-0.1,0.8-0.2,1.2c0,0,0,0,0,0C80.9,155.8,81.3,156.1,81.9,156.1z" style="fill: rgb(255, 255, 255);"/>
					</g>
					<g>
						<path class="st8" d="M125,141c-1.4-0.2-2.6-0.7-3.2-1.4c-1.4-1.8-2.7-4.5-3.5-7.5c-2.4,2.2-4.8,3.6-6.6,3.6&#10;&#9;&#9;&#9;&#9;&#9;&#9;&#9;c-0.1,0-0.1,0-0.2,0c-1.8-0.1-4.4-1.6-7-4c-0.3,2.3-1,4.7-2.3,6.5c-0.9,1.3-2.1,2.2-3.5,2.7c-0.3,0.1-0.7,0.2-1,0.3&#10;&#9;&#9;&#9;&#9;&#9;&#9;&#9;c-0.3,0-0.6,0.1-0.9,0.1c2.8,1.7,11.8,6.2,15.6,6.8c0.1,0,0.2,0,0.2,0c0.6-0.1,1.3-0.2,2-0.4c5.2-1.3,11.1-4.9,13.2-6.5&#10;&#9;&#9;&#9;&#9;&#9;&#9;&#9;C126.8,141.2,125.9,141.1,125,141z" style="fill: rgb(247, 219, 186);"/>
						<path class="st8" d="M97.8,120.3c0.8,2.5,2.1,4.9,3.6,6.9c0.9,1.2,1.8,2.2,2.7,3.2c0.1,0.1,0.2,0.2,0.3,0.3&#10;&#9;&#9;&#9;&#9;&#9;&#9;&#9;c0.1,0.1,0.2,0.2,0.3,0.3c2.6,2.4,5.2,4,7,4.1c1.7,0.1,4.2-1.4,6.6-3.7c0.1-0.1,0.2-0.2,0.2-0.2c0.1-0.1,0.2-0.2,0.3-0.3&#10;&#9;&#9;&#9;&#9;&#9;&#9;&#9;c1.2-1.3,2.4-2.7,3.4-4.3c1.2-1.9,2.3-4,3-6.1l0-0.1c0.1-0.4,0.2-1.6,0.4-3c0,0,0,0,0-0.1c-1.2-1.4-2.5-3.9-4.2-8.8&#10;&#9;&#9;&#9;&#9;&#9;&#9;&#9;c-2.9,7.3-14,8.5-20.6,9.5c-1.2,0.2-2.2,0.4-3.1,0.6c0.1,0.8,0.1,1.4,0.2,1.6L97.8,120.3z" style="fill: rgb(247, 219, 186);"/>
					</g>
					<path class="st9" d="M128.6,140.7c-0.3,0-0.8,0-1.3-0.1c-1.7-0.1-4.2-0.4-4.9-1.5c-1.4-1.8-2.7-4.6-3.5-7.6&#10;&#9;&#9;&#9;&#9;&#9;&#9;c1.3-1.3,2.6-2.9,3.8-4.7c1.3-1.9,2.3-4.1,3-6.3c0.1-0.2,0.2-1.4,0.4-2.8c-0.1-0.1-0.2-0.2-0.3-0.3c-0.1-0.1-0.2-0.2-0.3-0.3&#10;&#9;&#9;&#9;&#9;&#9;&#9;c-0.1,1.4-0.3,2.6-0.4,3l0,0.1c-0.7,2.1-1.7,4.2-3,6.1c-1,1.6-2.2,3.1-3.4,4.3c-0.1,0.1-0.2,0.2-0.3,0.3&#10;&#9;&#9;&#9;&#9;&#9;&#9;c-0.1,0.1-0.2,0.2-0.2,0.2c-2.4,2.3-4.8,3.8-6.6,3.7c-1.8-0.1-4.4-1.7-7-4.1c-0.1-0.1-0.2-0.2-0.3-0.3&#10;&#9;&#9;&#9;&#9;&#9;&#9;c-0.1-0.1-0.2-0.2-0.3-0.3c-1-1-1.9-2-2.7-3.2c-1.5-2.1-2.8-4.5-3.6-6.9l-0.1-0.2c0-0.3-0.1-0.8-0.2-1.6c-0.1,0-0.2,0-0.3,0.1&#10;&#9;&#9;&#9;&#9;&#9;&#9;c-0.1,0-0.2,0.1-0.3,0.1c0.1,1.1,0.2,1.6,0.3,1.8l0,0c0.8,2.5,2.1,4.9,3.7,7c1,1.3,2.1,2.6,3.2,3.7c-0.3,2.3-0.9,4.8-2.2,6.7&#10;&#9;&#9;&#9;&#9;&#9;&#9;c-1.1,1.5-2.5,2.4-4.2,2.7c-0.2,0-0.4,0-0.7,0.1c-0.2,0-0.3,0-0.5,0c-0.2,0-0.4,0-0.6,0l-0.7,0.1l0.6,0.5&#10;&#9;&#9;&#9;&#9;&#9;&#9;c1.1,0.9,12.1,6.7,16.6,7.5c0.1,0,0.2,0,0.2,0l0,0l0,0c0.7-0.1,1.4-0.3,2.2-0.5c6-1.6,12.8-6,14-7.1l0.5-0.5L128.6,140.7z&#10;&#9;&#9;&#9;&#9;&#9;&#9; M112.4,148.1c-3.8-0.6-12.8-5.2-15.6-6.8c0.3,0,0.7,0,0.9-0.1c0.4-0.1,0.7-0.2,1-0.3c1.4-0.5,2.6-1.4,3.5-2.7&#10;&#9;&#9;&#9;&#9;&#9;&#9;c1.3-1.8,2-4.2,2.3-6.5c2.6,2.4,5.2,3.9,7,4c0.1,0,0.1,0,0.2,0c1.8,0,4.2-1.4,6.6-3.6c0.8,3,2.1,5.7,3.5,7.5&#10;&#9;&#9;&#9;&#9;&#9;&#9;c0.6,0.8,1.8,1.2,3.2,1.4c0.9,0.2,1.8,0.2,2.7,0.3c-2.1,1.5-8,5.1-13.2,6.5c-0.7,0.2-1.3,0.3-2,0.4&#10;&#9;&#9;&#9;&#9;&#9;&#9;C112.5,148.1,112.4,148.1,112.4,148.1z" style="fill: rgb(240, 191, 150);"/>
					<g>
						<path class="st20" d="M99.8,128.3c-0.1,0.1-0.1,0.1-0.2,0.1c0,0,0,0-0.1,0c-0.1,0-0.2,0.1-0.4,0.1c-0.8,0.1-1.5-0.8-2.1-1.2&#10;&#9;&#9;&#9;&#9;&#9;&#9;&#9;c-0.3-0.3-0.6-0.6-0.4-1.1c0,0,0-0.1,0-0.1c-1.3-0.5-3.2-1-4.9,1.2c0.7-0.1,2.3-0.6,0.6,0.1c-2.9,1.4-3,5.9-2.7,5.5&#10;&#9;&#9;&#9;&#9;&#9;&#9;&#9;c0.5-0.6,1.7-1.7,2.5-2.1c-1.1,1.1-1.9,3.5-0.9,5.6c0.8-0.1,3-1.1,3.8-2.2c0.2-0.3,1.4,0.8,0.1,3c5.3-2.4,4-5.9,4.1-5.6&#10;&#9;&#9;&#9;&#9;&#9;&#9;&#9;c0.2,0.4,0.5,1.5,0.6,2.8c0.8-1.6,0.9-3,0.6-4.3c0.4,0,1,0.7,1.2,1.5C102.1,129.9,101,128.7,99.8,128.3z" style="fill: rgb(139, 94, 60);"/>
						<path class="st20" d="M131,128.1c-1.5-1,0-0.3,0.6-0.1c-1.4-2.5-3.4-2.2-4.7-1.9c0,0,0,0.1,0,0.1c0,0.5-0.2,0.8-0.6,1&#10;&#9;&#9;&#9;&#9;&#9;&#9;&#9;c-0.6,0.4-1.4,1.2-2.2,0.9c-0.1,0-0.3-0.1-0.4-0.2c-0.1-0.1-0.2-0.1-0.2-0.2c0,0,0,0,0,0c-1.3,0.2-2.6,1.2-2.4,3&#10;&#9;&#9;&#9;&#9;&#9;&#9;&#9;c0.4-0.7,1-1.3,1.4-1.3c-0.5,1.2-0.6,2.7,0,4.3c0.3-1.2,0.7-2.3,1-2.7c0.1-0.2-1.6,3,3.3,6.2c-0.9-2.4,0.4-3.2,0.5-2.9&#10;&#9;&#9;&#9;&#9;&#9;&#9;&#9;c0.7,1.2,2.8,2.5,3.5,2.8c1.3-1.9,0.8-4.5-0.1-5.7c0.7,0.5,1.8,1.8,2.2,2.4C133.2,134.3,133.7,129.9,131,128.1z" style="fill: rgb(139, 94, 60);"/>
						<path class="st20" d="M125.4,117.1C125.5,117.2,125.5,117.2,125.4,117.1c0.1,0.2,0.2,0.3,0.3,0.4c0.1,0.1,0.2,0.2,0.3,0.3&#10;&#9;&#9;&#9;&#9;&#9;&#9;&#9;c-0.2,1.5-0.3,2.7-0.4,2.8c-0.7,2.2-1.8,4.3-3,6.3c0.2,0.2,0.5,0.3,0.7,0.3c1,0,2.3-0.9,3-1.6c0.1,0,0.1-0.1,0.1-0.1&#10;&#9;&#9;&#9;&#9;&#9;&#9;&#9;c0,0,0,0,0.1,0c0,0,0.1,0,0.1,0c0,0,0,0,0,0c1.1-1.8,2.1-3.6,2.9-5.5c0,0,0.1,0.1,0.1,0.1c0.7-1.5,1.8-8,1.7-9.5&#10;&#9;&#9;&#9;&#9;&#9;&#9;&#9;c-0.8-9.8-7.1-18-19.4-14.7c-6-1.5-10.5-0.4-13.6,2.3c-5.2,4.4-8.6,15.1-3.3,21.2c0.5,2.1,1.3,4.2,2.2,6.2c0,0,0,0,0,0&#10;&#9;&#9;&#9;&#9;&#9;&#9;&#9;c0,0,0.1,0,0.1,0c0,0,0,0,0,0c0,0,0.1,0.1,0.1,0.1c0.6,0.7,1.7,1.8,2.7,1.9c0.2,0,0.5-0.1,0.8-0.2c-1.6-2.1-2.9-4.5-3.7-7l0,0&#10;&#9;&#9;&#9;&#9;&#9;&#9;&#9;c-0.1-0.2-0.2-0.8-0.3-1.8c0.1,0,0.2-0.1,0.3-0.1c0.1,0,0.2,0,0.3-0.1c0.8-0.2,1.9-0.4,3.1-0.6c6.6-1,17.7-2.2,20.6-9.5&#10;&#9;&#9;&#9;&#9;&#9;&#9;&#9;C122.9,113.3,124.3,115.8,125.4,117.1z" style="fill: rgb(139, 94, 60);"/>
					</g>
				</g>
			</g>
			<g>
				<path d="M 156.300003 151 H 225.200005 V 154.4 H 156.300003 V 151 Z" class="st11" style="fill: rgb(207, 211, 216);"/>
				<path d="M 156.300003 141.899994 H 225.200005 V 145.299994 H 156.300003 V 141.899994 Z" class="st11" style="fill: rgb(207, 211, 216);"/>
				<path d="M 156.300003 132.800003 H 225.200005 V 136.200003 H 156.300003 V 132.800003 Z" class="st11" style="fill: rgb(207, 211, 216);"/>
				<path d="M 156.300003 123.599998 H 225.200005 V 126.999999 H 156.300003 V 123.599998 Z" class="st11" style="fill: rgb(207, 211, 216);"/>
				<path d="M 156.300003 95.400002 H 225.200005 V 104.500002 H 156.300003 V 95.400002 Z" class="st12" style="fill: rgb(132, 138, 147);"/>
			</g>
		</g>
	</g></svg>