<?xml version="1.0" encoding="utf-8"?>
<svg id="master-artboard" viewBox="0 0 902.5339965820312 732.4161376953125" version="1.1" xmlns="http://www.w3.org/2000/svg" x="0px" y="0px" style="enable-background:new 0 0 1400 1400;" width="902.5339965820312px" height="732.4161376953125px"><rect id="ee-background" x="0" y="0" width="902.5339965820312" height="732.4161376953125" style="fill: white; fill-opacity: 0; pointer-events: none;"/>


<g transform="matrix(1, 0, 0, 1, 449.7814941406249, 101.50002694129944)">
		
		
		<g transform="matrix(1, 0, 0, 1, -497.4659971668612, -666.2951114853661)">
			<path class="st13" d="M776.3,684.1H492.1c-36.2,0-65.5,29.3-65.5,65.5v445h218.7c36.2,0,65.5-29.3,65.5-65.5V749.7&#10;&#9;&#9;&#9;&#9;C710.8,713.5,740.1,684.1,776.3,684.1z" style="fill: rgb(220, 226, 229);"/>
			<path class="st14" d="M645.2,1194.6H361c-36.2,0-65.5-29.3-65.5-65.5V736.8h218.7c36.2,0,65.5,29.3,65.5,65.5v326.8&#10;&#9;&#9;&#9;&#9;C579.7,1165.3,609,1194.6,645.2,1194.6z" style="fill: rgb(199, 203, 221);"/>
			<path class="st15" d="M514.2,736.8c-36.2,0-65.5,29.3-65.5,65.5v485.2H164.5V802.3c0-36.2,29.3-65.5,65.5-65.5H514.2z" style="fill: rgb(234, 234, 234);"/>
			<g>
				<g>
					<path class="st16" d="M411.6,815.9H201.5c-3.2,0-5.7-2.6-5.7-5.7v0c0-3.2,2.6-5.7,5.7-5.7h210.1c3.2,0,5.7,2.6,5.7,5.7v0&#10;&#9;&#9;&#9;&#9;&#9;&#9;C417.4,813.3,414.8,815.9,411.6,815.9z" style="fill: rgb(58, 85, 124);"/>
					<path class="st17" d="M411.6,856.2H263.8c-3.2,0-5.7-2.6-5.7-5.7l0,0c0-3.2,2.6-5.7,5.7-5.7h147.8c3.2,0,5.7,2.6,5.7,5.7l0,0&#10;&#9;&#9;&#9;&#9;&#9;&#9;C417.4,853.6,414.8,856.2,411.6,856.2z" style="fill: rgb(153, 174, 196);"/>
					<path class="st17" d="M411.6,896.4H303.3c-3.2,0-5.7-2.6-5.7-5.7l0,0c0-3.2,2.6-5.7,5.7-5.7h108.3c3.2,0,5.7,2.6,5.7,5.7l0,0&#10;&#9;&#9;&#9;&#9;&#9;&#9;C417.4,893.9,414.8,896.4,411.6,896.4z" style="fill: rgb(153, 174, 196);"/>
					<path class="st17" d="M411.6,1017.2h-93.1c-3.2,0-5.7-2.6-5.7-5.7l0,0c0-3.2,2.6-5.7,5.7-5.7h93.1c3.2,0,5.7,2.6,5.7,5.7l0,0&#10;&#9;&#9;&#9;&#9;&#9;&#9;C417.4,1014.7,414.8,1017.2,411.6,1017.2z" style="fill: rgb(153, 174, 196);"/>
					<path class="st17" d="M411.6,977H294c-3.2,0-5.7-2.6-5.7-5.7l0,0c0-3.2,2.6-5.7,5.7-5.7h117.7c3.2,0,5.7,2.6,5.7,5.7l0,0&#10;&#9;&#9;&#9;&#9;&#9;&#9;C417.4,974.4,414.8,977,411.6,977z" style="fill: rgb(153, 174, 196);"/>
					<path class="st17" d="M411.6,936.7H306.2c-3.2,0-5.7-2.6-5.7-5.7l0,0c0-3.2,2.6-5.7,5.7-5.7h105.4c3.2,0,5.7,2.6,5.7,5.7l0,0&#10;&#9;&#9;&#9;&#9;&#9;&#9;C417.4,934.1,414.8,936.7,411.6,936.7z" style="fill: rgb(153, 174, 196);"/>
				</g>
				<path class="st16" d="M411.6,1093h-93.1c-3.2,0-5.7-2.6-5.7-5.7v-16.4c0-3.2,2.6-5.7,5.7-5.7h93.1c3.2,0,5.7,2.6,5.7,5.7v16.4&#10;&#9;&#9;&#9;&#9;&#9;C417.4,1090.5,414.8,1093,411.6,1093z" style="fill: rgb(58, 85, 124);"/>
			</g>
			<g>
				<g>
					<g>
						<path d="M 241.899994 1143.800049 H 254.099994 V 1225.500046 H 241.899994 V 1143.800049 Z" class="st16" style="fill: rgb(58, 85, 124);"/>
						<path d="M 258.600006 1143.800049 H 266.300006 V 1225.500046 H 258.600006 V 1143.800049 Z" class="st16" style="fill: rgb(58, 85, 124);"/>
						<path d="M 271.899994 1143.800049 H 286.999994 V 1225.500046 H 271.899994 V 1143.800049 Z" class="st16" style="fill: rgb(58, 85, 124);"/>
						<path d="M 290.299988 1143.800049 H 296.699988 V 1225.500046 H 290.299988 V 1143.800049 Z" class="st16" style="fill: rgb(58, 85, 124);"/>
						<path d="M 351.399994 1143.800049 H 363.599994 V 1225.500046 H 351.399994 V 1143.800049 Z" class="st16" style="fill: rgb(58, 85, 124);"/>
						<path d="M 368.100006 1143.800049 H 375.800006 V 1225.500046 H 368.100006 V 1143.800049 Z" class="st16" style="fill: rgb(58, 85, 124);"/>
						<path d="M 381.399994 1143.800049 H 396.499994 V 1245.500046 H 381.399994 V 1143.800049 Z" class="st16" style="fill: rgb(58, 85, 124);"/>
						<path d="M 310.299988 1143.800049 H 316.699988 V 1225.500046 H 310.299988 V 1143.800049 Z" class="st16" style="fill: rgb(58, 85, 124);"/>
						<path d="M 320.799988 1143.800049 H 330.299988 V 1225.500046 H 320.799988 V 1143.800049 Z" class="st16" style="fill: rgb(58, 85, 124);"/>
						<path d="M 333.799988 1143.800049 H 337.499988 V 1225.500046 H 333.799988 V 1143.800049 Z" class="st16" style="fill: rgb(58, 85, 124);"/>
						<path d="M 341.100006 1143.800049 H 344.800006 V 1225.500046 H 341.100006 V 1143.800049 Z" class="st16" style="fill: rgb(58, 85, 124);"/>
					</g>
					<g>
						<path d="M 216.600006 1143.800049 H 228.800006 V 1244.300049 H 216.600006 V 1143.800049 Z" class="st16" style="fill: rgb(58, 85, 124);"/>
					</g>
				</g>
			</g>
		</g><g transform="matrix(1, 0, 0, 1, -180.42806381725188, -140.47615701759275)">
			<g>
				<g>
					<path d="M 625.900009 314.5 A 78.699997 78.699997 0 0 1 547.200012 393.199997 A 78.699997 78.699997 0 0 1 468.500015 314.5 A 78.699997 78.699997 0 0 1 547.200012 235.800003 A 78.699997 78.699997 0 0 1 625.900009 314.5 Z" class="st6" style="fill: rgb(255, 204, 62);"/>
				</g>
				<g>
					<path class="st12" d="M547.2,380.9c-36.6,0-66.4-29.8-66.4-66.4s29.8-66.4,66.4-66.4s66.4,29.8,66.4,66.4&#10;&#9;&#9;&#9;&#9;&#9;&#9;S583.8,380.9,547.2,380.9z M547.2,254.4c-33.2,0-60.1,27-60.1,60.1c0,33.2,27,60.1,60.1,60.1s60.1-27,60.1-60.1&#10;&#9;&#9;&#9;&#9;&#9;&#9;C607.3,281.4,580.4,254.4,547.2,254.4z" style="fill: rgb(234, 153, 24);"/>
				</g>
				<path class="st12" d="M553.3,308.3h-12.3c-3.4,0-6.1-2.7-6.1-6.1c0-3.4,2.7-6.1,6.1-6.1h24.6c3.5,0,6.3-2.8,6.3-6.3&#10;&#9;&#9;&#9;&#9;&#9;c0-3.5-2.8-6.3-6.3-6.3h-12.2v-4.8c0-3.5-2.8-6.3-6.3-6.3s-6.3,2.8-6.3,6.3v4.8c-10.2,0.1-18.5,8.4-18.5,18.6&#10;&#9;&#9;&#9;&#9;&#9;c0,10.3,8.3,18.6,18.6,18.6h12.3c3.4,0,6.1,2.7,6.1,6.1c0,3.4-2.7,6.1-6.1,6.1h-24.6c-3.5,0-6.3,2.8-6.3,6.3s2.8,6.3,6.3,6.3&#10;&#9;&#9;&#9;&#9;&#9;h12.2v4.8c0,3.5,2.8,6.3,6.3,6.3s6.3-2.8,6.3-6.3v-4.8c10.2-0.1,18.5-8.4,18.5-18.6C572,316.6,563.6,308.3,553.3,308.3z" style="fill: rgb(234, 153, 24);"/>
			</g>
			<g>
				<g>
					<path d="M 394.300003 346.299988 A 89.199997 89.199997 0 0 1 305.100006 435.499985 A 89.199997 89.199997 0 0 1 215.900009 346.299988 A 89.199997 89.199997 0 0 1 305.100006 257.099991 A 89.199997 89.199997 0 0 1 394.300003 346.299988 Z" class="st6" style="fill: rgb(255, 204, 62);"/>
				</g>
				<g>
					<path class="st12" d="M305.1,421.6c-41.5,0-75.3-33.8-75.3-75.3s33.8-75.3,75.3-75.3s75.3,33.8,75.3,75.3&#10;&#9;&#9;&#9;&#9;&#9;&#9;S346.6,421.6,305.1,421.6z M305.1,278.1c-37.6,0-68.2,30.6-68.2,68.2c0,37.6,30.6,68.2,68.2,68.2s68.2-30.6,68.2-68.2&#10;&#9;&#9;&#9;&#9;&#9;&#9;C373.3,308.7,342.7,278.1,305.1,278.1z" style="fill: rgb(234, 153, 24);"/>
				</g>
				<path class="st12" d="M312,339.2h-13.9c-3.8,0-6.9-3.1-6.9-6.9s3.1-6.9,6.9-6.9H326c3.9,0,7.1-3.2,7.1-7.1s-3.2-7.1-7.1-7.1&#10;&#9;&#9;&#9;&#9;&#9;h-13.9v-5.5c0-3.9-3.2-7.1-7.1-7.1s-7.1,3.2-7.1,7.1v5.5c-11.6,0.1-21,9.5-21,21.1c0,11.6,9.5,21.1,21.1,21.1H312&#10;&#9;&#9;&#9;&#9;&#9;c3.8,0,6.9,3.1,6.9,6.9s-3.1,6.9-6.9,6.9h-27.9c-3.9,0-7.1,3.2-7.1,7.1s3.2,7.1,7.1,7.1H298v5.5c0,3.9,3.2,7.1,7.1,7.1&#10;&#9;&#9;&#9;&#9;&#9;s7.1-3.2,7.1-7.1v-5.5c11.6-0.1,21-9.5,21-21.1C333.1,348.7,323.7,339.2,312,339.2z" style="fill: rgb(234, 153, 24);"/>
			</g>
			<g>
				<g>
					<path d="M 429.199997 537.5 A 82.300003 82.300003 0 0 1 346.899994 619.800003 A 82.300003 82.300003 0 0 1 264.599991 537.5 A 82.300003 82.300003 0 0 1 346.899994 455.199997 A 82.300003 82.300003 0 0 1 429.199997 537.5 Z" class="st6" style="fill: rgb(255, 204, 62);"/>
				</g>
				<g>
					<path class="st12" d="M346.9,606.9c-38.3,0-69.4-31.1-69.4-69.4s31.1-69.4,69.4-69.4s69.4,31.1,69.4,69.4&#10;&#9;&#9;&#9;&#9;&#9;&#9;S385.1,606.9,346.9,606.9z M346.9,474.6c-34.7,0-62.9,28.2-62.9,62.9c0,34.7,28.2,62.9,62.9,62.9s62.9-28.2,62.9-62.9&#10;&#9;&#9;&#9;&#9;&#9;&#9;C409.7,502.8,381.5,474.6,346.9,474.6z" style="fill: rgb(234, 153, 24);"/>
				</g>
				<path class="st12" d="M353.3,530.9h-12.8c-3.5,0-6.4-2.9-6.4-6.4s2.9-6.4,6.4-6.4h25.7c3.6,0,6.5-2.9,6.5-6.5s-2.9-6.5-6.5-6.5&#10;&#9;&#9;&#9;&#9;&#9;h-12.8V500c0-3.6-2.9-6.5-6.5-6.5c-3.6,0-6.5,2.9-6.5,6.5v5.1c-10.7,0.1-19.3,8.8-19.3,19.4c0,10.7,8.7,19.4,19.4,19.4h12.8&#10;&#9;&#9;&#9;&#9;&#9;c3.5,0,6.4,2.9,6.4,6.4s-2.9,6.4-6.4,6.4h-25.7c-3.6,0-6.5,2.9-6.5,6.5c0,3.6,2.9,6.5,6.5,6.5h12.8v5.1c0,3.6,2.9,6.5,6.5,6.5&#10;&#9;&#9;&#9;&#9;&#9;c3.6,0,6.5-2.9,6.5-6.5v-5.1c10.7-0.1,19.3-8.8,19.3-19.4C372.7,539.6,364,530.9,353.3,530.9z" style="fill: rgb(234, 153, 24);"/>
			</g>
			<g>
				<g>
					<path d="M 251.599995 503.700012 A 57.700001 57.700001 0 0 1 193.899994 561.400013 A 57.700001 57.700001 0 0 1 136.199993 503.700012 A 57.700001 57.700001 0 0 1 193.899994 446.000011 A 57.700001 57.700001 0 0 1 251.599995 503.700012 Z" class="st6" style="fill: rgb(255, 204, 62);"/>
				</g>
				<g>
					<path class="st12" d="M193.9,552.4c-26.8,0-48.7-21.8-48.7-48.7S167,455,193.9,455s48.7,21.8,48.7,48.7&#10;&#9;&#9;&#9;&#9;&#9;&#9;S220.7,552.4,193.9,552.4z M193.9,459.6c-24.3,0-44.1,19.8-44.1,44.1c0,24.3,19.8,44.1,44.1,44.1s44.1-19.8,44.1-44.1&#10;&#9;&#9;&#9;&#9;&#9;&#9;C238,479.4,218.2,459.6,193.9,459.6z" style="fill: rgb(234, 153, 24);"/>
				</g>
				<path class="st12" d="M198.4,499.1h-9c-2.5,0-4.5-2-4.5-4.5c0-2.5,2-4.5,4.5-4.5h18.1c2.5,0,4.6-2.1,4.6-4.6&#10;&#9;&#9;&#9;&#9;&#9;c0-2.5-2.1-4.6-4.6-4.6h-9v-3.5c0-2.5-2.1-4.6-4.6-4.6s-4.6,2.1-4.6,4.6v3.6c-7.5,0-13.6,6.1-13.6,13.6&#10;&#9;&#9;&#9;&#9;&#9;c0,7.5,6.1,13.6,13.6,13.6h9c2.5,0,4.5,2,4.5,4.5c0,2.5-2,4.5-4.5,4.5h-18.1c-2.5,0-4.6,2.1-4.6,4.6c0,2.5,2.1,4.6,4.6,4.6h9&#10;&#9;&#9;&#9;&#9;&#9;v3.5c0,2.5,2.1,4.6,4.6,4.6s4.6-2.1,4.6-4.6v-3.6c7.5,0,13.6-6.1,13.6-13.6C212,505.3,205.9,499.1,198.4,499.1z" style="fill: rgb(234, 153, 24);"/>
			</g>
			<g>
				<g>
					<path d="M 622.799988 525.700012 A 68.5 68.5 0 0 1 554.299988 594.200012 A 68.5 68.5 0 0 1 485.799988 525.700012 A 68.5 68.5 0 0 1 554.299988 457.200012 A 68.5 68.5 0 0 1 622.799988 525.700012 Z" class="st6" style="fill: rgb(255, 204, 62);"/>
				</g>
				<g>
					<path class="st12" d="M554.3,583.4c-31.8,0-57.8-25.9-57.8-57.8s25.9-57.8,57.8-57.8c31.8,0,57.8,25.9,57.8,57.8&#10;&#9;&#9;&#9;&#9;&#9;&#9;S586.1,583.4,554.3,583.4z M554.3,473.3c-28.8,0-52.3,23.5-52.3,52.3c0,28.8,23.5,52.3,52.3,52.3c28.8,0,52.3-23.5,52.3-52.3&#10;&#9;&#9;&#9;&#9;&#9;&#9;C606.6,496.8,583.1,473.3,554.3,473.3z" style="fill: rgb(234, 153, 24);"/>
				</g>
				<path class="st12" d="M559.6,520.2h-10.7c-2.9,0-5.3-2.4-5.3-5.3c0-2.9,2.4-5.3,5.3-5.3h21.4c3,0,5.4-2.4,5.4-5.4&#10;&#9;&#9;&#9;&#9;&#9;s-2.4-5.4-5.4-5.4h-10.6v-4.2c0-3-2.4-5.4-5.4-5.4c-3,0-5.4,2.4-5.4,5.4v4.2c-8.9,0.1-16.1,7.3-16.1,16.2&#10;&#9;&#9;&#9;&#9;&#9;c0,8.9,7.3,16.2,16.2,16.2h10.7c2.9,0,5.3,2.4,5.3,5.3s-2.4,5.3-5.3,5.3h-21.4c-3,0-5.4,2.4-5.4,5.4c0,3,2.4,5.4,5.4,5.4h10.6&#10;&#9;&#9;&#9;&#9;&#9;v4.2c0,3,2.4,5.4,5.4,5.4c3,0,5.4-2.4,5.4-5.4v-4.2c8.9-0.1,16.1-7.3,16.1-16.2C575.8,527.5,568.6,520.2,559.6,520.2z" style="fill: rgb(234, 153, 24);"/>
			</g>
			<g>
				<g>
					<path d="M 568.199997 414.5 A 89.199997 89.199997 0 0 1 479 503.699997 A 89.199997 89.199997 0 0 1 389.800003 414.5 A 89.199997 89.199997 0 0 1 479 325.300003 A 89.199997 89.199997 0 0 1 568.199997 414.5 Z" class="st6" style="fill: rgb(255, 204, 62);"/>
				</g>
				<g>
					<path class="st12" d="M479,489.8c-41.5,0-75.3-33.8-75.3-75.3s33.8-75.3,75.3-75.3s75.3,33.8,75.3,75.3S520.5,489.8,479,489.8z&#10;&#9;&#9;&#9;&#9;&#9;&#9; M479,346.3c-37.6,0-68.2,30.6-68.2,68.2c0,37.6,30.6,68.2,68.2,68.2s68.2-30.6,68.2-68.2C547.2,376.9,516.6,346.3,479,346.3z" style="fill: rgb(234, 153, 24);"/>
				</g>
				<path class="st12" d="M486,407.4H472c-3.8,0-6.9-3.1-6.9-6.9s3.1-6.9,6.9-6.9H500c3.9,0,7.1-3.2,7.1-7.1c0-3.9-3.2-7.1-7.1-7.1&#10;&#9;&#9;&#9;&#9;&#9;h-13.9v-5.5c0-3.9-3.2-7.1-7.1-7.1s-7.1,3.2-7.1,7.1v5.5c-11.6,0.1-21,9.5-21,21.1c0,11.6,9.5,21.1,21.1,21.1H486&#10;&#9;&#9;&#9;&#9;&#9;c3.8,0,6.9,3.1,6.9,6.9s-3.1,6.9-6.9,6.9H458c-3.9,0-7.1,3.2-7.1,7.1s3.2,7.1,7.1,7.1h13.9v5.5c0,3.9,3.2,7.1,7.1,7.1&#10;&#9;&#9;&#9;&#9;&#9;s7.1-3.2,7.1-7.1v-5.5c11.6-0.1,21-9.5,21-21.1C507.1,416.9,497.6,407.4,486,407.4z" style="fill: rgb(234, 153, 24);"/>
			</g>
		</g>
	</g>
</svg>