<?xml version="1.0" encoding="utf-8"?>
<svg id="master-artboard" viewBox="0 0 165.56161499023438 207.3414306640625" version="1.1" xmlns="http://www.w3.org/2000/svg" x="0px" y="0px" enable-background="new 0 0 1400 980" width="165.56161499023438px" height="207.3414306640625px"><rect id="ee-background" x="0" y="0" width="165.56161499023438" height="207.3414306640625" style="fill: white; fill-opacity: 0; pointer-events: none;"/>
<metadata><!--?xpacket begin="﻿" id="W5M0MpCehiHzreSzNTczkc9d"?-->

                                                                                                    
                                                                                                    
                                                                                                    
                                                                                                    
                                                                                                    
                                                                                                    
                                                                                                    
                                                                                                    
                                                                                                    
                                                                                                    
                                                                                                    
                                                                                                    
                                                                                                    
                                                                                                    
                                                                                                    
                                                                                                    
                                                                                                    
                                                                                                    
                                                                                                    
                                                                                                    
                           
<!--?xpacket end="w"?-->
	</metadata>



<g>
	<g transform="matrix(0.8281343438406638, 0, 0, 0.8281343438406638, -59.1741275141018, -142.84614115973915)">
		<path fill="#3B3D45" d="M269.2,403.3l-15.9-43.7l0.6-1l9.6-6.2c2.7-1.7,4-4.9,3.3-7.9l-2.5-11.2l2.5-11.2c0.7-3.1-0.6-6.2-3.3-7.9&#10;&#9;&#9;&#9;l-9.6-6.2l-6.2-9.6c-1.4-2.2-3.8-3.5-6.3-3.5c-0.5,0-1.1,0.1-1.6,0.2l-3.7,0.8v-72.2c0-2-0.8-3.9-2.2-5.3l-37.3-37.3&#10;&#9;&#9;&#9;c-1.4-1.4-3.3-2.2-5.3-2.2H85.7c-4.2,0-7.5,3.4-7.5,7.5v190.2c0,4.2,3.4,7.5,7.5,7.5h109.4l-7,19.2c-1.4,3.9,0.6,8.2,4.5,9.6&#10;&#9;&#9;&#9;l18.2,6.6c0.8,0.3,1.7,0.5,2.6,0.5c1.1,0,2.2-0.2,3.2-0.7c1.8-0.8,3.2-2.4,3.9-4.2l8.2-22.4l8.2,22.4c0.7,1.9,2.1,3.4,3.9,4.2&#10;&#9;&#9;&#9;c1,0.5,2.1,0.7,3.2,0.7c0.9,0,1.7-0.2,2.6-0.5l18.2-6.6C268.6,411.5,270.6,407.2,269.2,403.3z"/>
		<g>
			<path fill="#646565" d="M226.1,364.6l-2.2,0.5l-7.5,1.7c-1,0.2-2.1-0.2-2.6-1.1l-0.8-1.2l-3.5,9.7l-0.9,2.5l-0.9,2.5l-9.2,25.3&#10;&#9;&#9;&#9;&#9;l13.5,4.9l11-30.2l0.9-2.5l0.9-2.5l1.2-3.4l0.2-0.4l1.2-3.2l1.1-2.9l-2,0.4L226.1,364.6z M235.1,360.3l5.2,1.1l1.9-3l3.4-5.3&#10;&#9;&#9;&#9;&#9;l0.8-1.2c0.2-0.3,0.5-0.6,0.8-0.8l9.6-6.1l-2.4-11.1c-0.1-0.4-0.1-0.7,0-1.1l2.4-11.1l-9.6-6.1c-0.3-0.2-0.6-0.5-0.8-0.8&#10;&#9;&#9;&#9;&#9;l-6.1-9.6l-9.1,2l-2,0.4c-0.2,0-0.4,0.1-0.5,0.1c-0.2,0-0.4,0-0.5-0.1l-2-0.4l-9.1-2l-6.1,9.6c-0.2,0.3-0.5,0.6-0.8,0.8l-9.6,6.1&#10;&#9;&#9;&#9;&#9;l2.4,11.1c0.1,0.4,0.1,0.7,0,1.1l-2.4,11.1l9.6,6.1c0.3,0.2,0.6,0.5,0.8,0.8l0.8,1.2l1.7,2.7l1.7,2.7l1.9,3l5.2-1.1l2.5-0.5&#10;&#9;&#9;&#9;&#9;l1.5-0.3l1-0.2l1-0.2c0.2,0,0.4-0.1,0.5-0.1c0.2,0,0.4,0,0.5,0.1l1,0.2l1,0.2l1.5,0.3L235.1,360.3z M228.7,352.2L228.7,352.2&#10;&#9;&#9;&#9;&#9;c-0.9,0-1.7-0.1-2.5-0.2c-0.6-0.1-1.2-0.2-1.7-0.3c-1-0.2-2.1-0.6-3-1c-1-0.4-2-0.9-2.9-1.5c-0.1-0.1-0.3-0.2-0.4-0.3&#10;&#9;&#9;&#9;&#9;c-0.6-0.4-1.1-0.8-1.7-1.3c-0.7-0.6-1.4-1.3-2-2c-2.8-3.3-4.6-7.6-4.6-12.3c0-9.5,7.1-17.4,16.3-18.6c0.8-0.1,1.7-0.2,2.5-0.2h0&#10;&#9;&#9;&#9;&#9;c0.9,0,1.7,0.1,2.5,0.2c9.2,1.2,16.3,9.1,16.3,18.6c0,4.7-1.7,9-4.6,12.3c-0.6,0.7-1.3,1.4-2,2c-0.5,0.5-1.1,0.9-1.7,1.3&#10;&#9;&#9;&#9;&#9;c-0.1,0.1-0.3,0.2-0.4,0.3c-0.9,0.6-1.9,1.1-2.9,1.5c-1,0.4-2,0.7-3,1c-0.6,0.1-1.1,0.2-1.7,0.3&#10;&#9;&#9;&#9;&#9;C230.3,352.1,229.5,352.2,228.7,352.2z M244.4,364.4l-0.8,1.2c-0.5,0.7-1.3,1.2-2.1,1.2c-0.2,0-0.4,0-0.5-0.1l-7.5-1.7l-2,5.6&#10;&#9;&#9;&#9;&#9;l14.1,38.6l13.5-4.9L244.4,364.4z"/>
			<path fill="#E1DBCA" d="M193.8,192.5v28.8h28.8L193.8,192.5z M216.4,300.1l9.7,2.1v-75.9h-34.8c-1.4,0-2.5-1.1-2.5-2.5V189H88.2&#10;&#9;&#9;&#9;&#9;v185.1h115.9l5.5-15l-2.6-4l-10.6-6.8c-0.9-0.6-1.3-1.6-1.1-2.6l2.7-12.3l-2.7-12.3c-0.2-1,0.2-2.1,1.1-2.6l10.6-6.8l6.8-10.6&#10;&#9;&#9;&#9;&#9;C214.3,300.3,215.4,299.8,216.4,300.1z M176.7,332.3h-70c-1.4,0-2.5-1.1-2.5-2.5s1.1-2.5,2.5-2.5h70c1.4,0,2.5,1.1,2.5,2.5&#10;&#9;&#9;&#9;&#9;S178.1,332.3,176.7,332.3z M188.7,315.1h-82c-1.4,0-2.5-1.1-2.5-2.5s1.1-2.5,2.5-2.5h82c1.4,0,2.5,1.1,2.5,2.5&#10;&#9;&#9;&#9;&#9;S190.1,315.1,188.7,315.1z M207.7,298h-101c-1.4,0-2.5-1.1-2.5-2.5s1.1-2.5,2.5-2.5h101c1.4,0,2.5,1.1,2.5,2.5&#10;&#9;&#9;&#9;&#9;S209.1,298,207.7,298z M207.7,280.9h-101c-1.4,0-2.5-1.1-2.5-2.5s1.1-2.5,2.5-2.5h101c1.4,0,2.5,1.1,2.5,2.5&#10;&#9;&#9;&#9;&#9;S209.1,280.9,207.7,280.9z M207.7,263.8h-101c-1.4,0-2.5-1.1-2.5-2.5s1.1-2.5,2.5-2.5h101c1.4,0,2.5,1.1,2.5,2.5&#10;&#9;&#9;&#9;&#9;S209.1,263.8,207.7,263.8z M207.7,246.7h-101c-1.4,0-2.5-1.1-2.5-2.5s1.1-2.5,2.5-2.5h101c1.4,0,2.5,1.1,2.5,2.5&#10;&#9;&#9;&#9;&#9;S209.1,246.7,207.7,246.7z M231.2,319.8c-0.8-0.2-1.7-0.2-2.5-0.2h0c-0.9,0-1.7,0.1-2.5,0.2c-6.4,1.2-11.3,6.8-11.3,13.6&#10;&#9;&#9;&#9;&#9;c0,1.7,0.3,3.3,0.9,4.8c0.2,0.6,0.5,1.1,0.8,1.7c0.5,0.9,1.1,1.7,1.8,2.5c0.1,0.1,0.1,0.1,0.2,0.2c0.6,0.6,1.2,1.2,1.8,1.7&#10;&#9;&#9;&#9;&#9;c0.6,0.5,1.2,0.9,1.9,1.2c1.2,0.7,2.6,1.1,4,1.4c0.8,0.2,1.7,0.2,2.5,0.2h0c0.9,0,1.7-0.1,2.5-0.2c1.4-0.3,2.7-0.7,4-1.4&#10;&#9;&#9;&#9;&#9;c0.7-0.4,1.3-0.8,1.9-1.2c0.7-0.5,1.3-1.1,1.8-1.7c0.1-0.1,0.1-0.1,0.2-0.2c0.7-0.8,1.3-1.6,1.8-2.5c0.3-0.5,0.6-1.1,0.8-1.7&#10;&#9;&#9;&#9;&#9;c0.6-1.5,0.9-3.1,0.9-4.8C242.4,326.6,237.6,321,231.2,319.8z"/>
			<path fill="#3B3D45" d="M106.7,263.8h101c1.4,0,2.5-1.1,2.5-2.5s-1.1-2.5-2.5-2.5h-101c-1.4,0-2.5,1.1-2.5,2.5&#10;&#9;&#9;&#9;&#9;S105.3,263.8,106.7,263.8z M106.7,246.7h101c1.4,0,2.5-1.1,2.5-2.5s-1.1-2.5-2.5-2.5h-101c-1.4,0-2.5,1.1-2.5,2.5&#10;&#9;&#9;&#9;&#9;S105.3,246.7,106.7,246.7z M106.7,280.9h101c1.4,0,2.5-1.1,2.5-2.5s-1.1-2.5-2.5-2.5h-101c-1.4,0-2.5,1.1-2.5,2.5&#10;&#9;&#9;&#9;&#9;S105.3,280.9,106.7,280.9z M188.7,310.1h-82c-1.4,0-2.5,1.1-2.5,2.5s1.1,2.5,2.5,2.5h82c1.4,0,2.5-1.1,2.5-2.5&#10;&#9;&#9;&#9;&#9;S190.1,310.1,188.7,310.1z M235.9,350.7c1-0.4,2-0.9,2.9-1.5c0.1-0.1,0.3-0.2,0.4-0.3c0.6-0.4,1.1-0.8,1.7-1.3&#10;&#9;&#9;&#9;&#9;c0.7-0.6,1.4-1.3,2-2c2.8-3.3,4.6-7.6,4.6-12.3c0-9.5-7.1-17.4-16.3-18.6c-0.8-0.1-1.7-0.2-2.5-0.2h0c-0.9,0-1.7,0.1-2.5,0.2&#10;&#9;&#9;&#9;&#9;c-9.2,1.2-16.3,9.1-16.3,18.6c0,4.7,1.7,9,4.6,12.3c0.6,0.7,1.3,1.4,2,2c0.5,0.5,1.1,0.9,1.7,1.3c0.1,0.1,0.3,0.2,0.4,0.3&#10;&#9;&#9;&#9;&#9;c0.9,0.6,1.9,1.1,2.9,1.5c1,0.4,2,0.7,3,1c0.6,0.1,1.1,0.2,1.7,0.3c0.8,0.1,1.7,0.2,2.5,0.2h0c0.9,0,1.7-0.1,2.5-0.2&#10;&#9;&#9;&#9;&#9;c0.6-0.1,1.2-0.2,1.7-0.3C233.9,351.5,235,351.1,235.9,350.7z M228.7,347.2L228.7,347.2c-0.9,0-1.7-0.1-2.5-0.2&#10;&#9;&#9;&#9;&#9;c-1.4-0.3-2.7-0.7-4-1.4c-0.7-0.4-1.3-0.8-1.9-1.2c-0.7-0.5-1.3-1.1-1.8-1.7c-0.1-0.1-0.1-0.1-0.2-0.2c-0.7-0.8-1.3-1.6-1.8-2.5&#10;&#9;&#9;&#9;&#9;c-0.3-0.5-0.6-1.1-0.8-1.7c-0.6-1.5-0.9-3.1-0.9-4.8c0-6.7,4.9-12.4,11.3-13.6c0.8-0.2,1.7-0.2,2.5-0.2h0c0.9,0,1.7,0.1,2.5,0.2&#10;&#9;&#9;&#9;&#9;c6.4,1.2,11.3,6.8,11.3,13.6c0,1.7-0.3,3.3-0.9,4.8c-0.2,0.6-0.5,1.1-0.8,1.7c-0.5,0.9-1.1,1.7-1.8,2.5c-0.1,0.1-0.1,0.1-0.2,0.2&#10;&#9;&#9;&#9;&#9;c-0.6,0.6-1.2,1.2-1.8,1.7c-0.6,0.5-1.2,0.9-1.9,1.2c-1.2,0.7-2.6,1.1-4,1.4C230.3,347.1,229.5,347.2,228.7,347.2z M269.2,403.3&#10;&#9;&#9;&#9;&#9;l-15.9-43.7l0.6-1l9.6-6.2c2.7-1.7,4-4.9,3.3-7.9l-2.5-11.2l2.5-11.2c0.7-3.1-0.6-6.2-3.3-7.9l-9.6-6.2l-6.2-9.6&#10;&#9;&#9;&#9;&#9;c-1.4-2.2-3.8-3.5-6.3-3.5c-0.5,0-1.1,0.1-1.6,0.2l-3.7,0.8v-72.2c0-2-0.8-3.9-2.2-5.3l-37.3-37.3c-1.4-1.4-3.3-2.2-5.3-2.2H85.7&#10;&#9;&#9;&#9;&#9;c-4.2,0-7.5,3.4-7.5,7.5v190.2c0,4.2,3.4,7.5,7.5,7.5h109.4l-7,19.2c-1.4,3.9,0.6,8.2,4.5,9.6l18.2,6.6c0.8,0.3,1.7,0.5,2.6,0.5&#10;&#9;&#9;&#9;&#9;c1.1,0,2.2-0.2,3.2-0.7c1.8-0.8,3.2-2.4,3.9-4.2l8.2-22.4l8.2,22.4c0.7,1.9,2.1,3.4,3.9,4.2c1,0.5,2.1,0.7,3.2,0.7&#10;&#9;&#9;&#9;&#9;c0.9,0,1.7-0.2,2.6-0.5l18.2-6.6C268.6,411.5,270.6,407.2,269.2,403.3z M193.8,192.5l28.8,28.8h-28.8V192.5z M88.2,374.1V189&#10;&#9;&#9;&#9;&#9;h100.6v34.8c0,1.4,1.1,2.5,2.5,2.5h34.8v75.9l-9.7-2.1c-1-0.2-2.1,0.2-2.6,1.1l-6.8,10.6l-10.6,6.8c-0.9,0.6-1.3,1.6-1.1,2.6&#10;&#9;&#9;&#9;&#9;l2.7,12.3l-2.7,12.3c-0.2,1,0.2,2.1,1.1,2.6L207,355l2.6,4l-5.5,15H88.2z M227.3,367l-1.2,3.2l-0.2,0.4l-1.2,3.4l-0.9,2.5&#10;&#9;&#9;&#9;&#9;l-0.9,2.5l-11,30.2l-13.5-4.9l9.2-25.3l0.9-2.5l0.9-2.5l3.5-9.7l0.8,1.2c0.6,0.9,1.6,1.3,2.6,1.1l7.5-1.7l2.2-0.5l0.3-0.1l2-0.4&#10;&#9;&#9;&#9;&#9;L227.3,367z M230.2,359.2l-1-0.2c-0.2,0-0.4-0.1-0.5-0.1c-0.2,0-0.4,0-0.5,0.1l-1,0.2l-1,0.2l-1.5,0.3l-2.5,0.5l-5.2,1.1l-1.9-3&#10;&#9;&#9;&#9;&#9;l-1.7-2.7l-1.7-2.7l-0.8-1.2c-0.2-0.3-0.5-0.6-0.8-0.8l-9.6-6.1l2.4-11.1c0.1-0.4,0.1-0.7,0-1.1l-2.4-11.1l9.6-6.1&#10;&#9;&#9;&#9;&#9;c0.3-0.2,0.6-0.5,0.8-0.8l6.1-9.6l9.1,2l2,0.4c0.2,0,0.4,0.1,0.5,0.1c0.2,0,0.4,0,0.5-0.1l2-0.4l9.1-2l6.1,9.6&#10;&#9;&#9;&#9;&#9;c0.2,0.3,0.5,0.6,0.8,0.8l9.6,6.1l-2.4,11.1c-0.1,0.4-0.1,0.7,0,1.1l2.4,11.1l-9.6,6.1c-0.3,0.2-0.6,0.5-0.8,0.8l-0.8,1.2&#10;&#9;&#9;&#9;&#9;l-3.4,5.3l-1.9,3l-5.2-1.1l-2.5-0.5l-1.5-0.3L230.2,359.2z M245.4,409.3l-14.1-38.6l2-5.6l7.5,1.7c0.2,0,0.4,0.1,0.5,0.1&#10;&#9;&#9;&#9;&#9;c0.8,0,1.6-0.4,2.1-1.2l0.8-1.2l14.6,40L245.4,409.3z M176.7,327.2h-70c-1.4,0-2.5,1.1-2.5,2.5s1.1,2.5,2.5,2.5h70&#10;&#9;&#9;&#9;&#9;c1.4,0,2.5-1.1,2.5-2.5S178.1,327.2,176.7,327.2z M106.7,298h101c1.4,0,2.5-1.1,2.5-2.5s-1.1-2.5-2.5-2.5h-101&#10;&#9;&#9;&#9;&#9;c-1.4,0-2.5,1.1-2.5,2.5S105.3,298,106.7,298z"/>
		</g>
	</g>
	
	
	
	
	<g>
		
		
	</g>
	
	
</g></svg>