<?xml version="1.0" encoding="utf-8"?>
<svg id="master-artboard" viewBox="0 0 242.00230407714844 294.3270568847656" version="1.1" xmlns="http://www.w3.org/2000/svg" x="0px" y="0px" style="enable-background:new 0 0 1400 1000;" width="242.00230407714844px" height="294.3270568847656px"><rect id="ee-background" x="0" y="0" width="242.00230407714844" height="294.3270568847656" style="fill: white; fill-opacity: 0; pointer-events: none;"/>

<g transform="matrix(1, 0, 0, 1, -97.1746363224338, -337.7975453113173)">
			<path d="M 256.099998 539.599976 A 35.900002 11.2 0 0 1 220.199997 550.799975 A 35.900002 11.2 0 0 1 184.299995 539.599976 A 35.900002 11.2 0 0 1 220.199997 528.399976 A 35.900002 11.2 0 0 1 256.099998 539.599976 Z" class="st1" style="fill: rgb(247, 130, 3);"/>
			<path class="st0" d="M220.2,606.7c-22.1,0-40-6.1-40-13.7v16.5c0,7.6,17.9,13.7,40,13.7c22.1,0,40-6.1,40-13.7V593&#10;&#9;&#9;&#9;&#9;C260.2,600.6,242.3,606.7,220.2,606.7z" style="fill: rgb(0, 89, 131);"/>
			<path class="st0" d="M220.2,554.3c-22.1,0-40-6.1-40-13.7v15.4c0,7.6,17.9,13.7,40,13.7c22.1,0,40-6.1,40-13.7v-15.4&#10;&#9;&#9;&#9;&#9;C260.2,548.2,242.3,554.3,220.2,554.3z" style="fill: rgb(0, 89, 131);"/>
			<path class="st0" d="M220.2,580.1c-22.1,0-40-6.1-40-13.7v16.3c0,7.6,17.9,13.7,40,13.7c22.1,0,40-6.1,40-13.7v-16.3&#10;&#9;&#9;&#9;&#9;C260.2,573.9,242.3,580.1,220.2,580.1z" style="fill: rgb(0, 89, 131);"/>
			<path class="st1" d="M220.2,572.4c-22.1,0-40-6.1-40-13.7v4.7c0,7.6,17.9,13.7,40,13.7c22.1,0,40-6.1,40-13.7v-4.7&#10;&#9;&#9;&#9;&#9;C260.2,566.2,242.3,572.4,220.2,572.4z" style="fill: rgb(247, 130, 3);"/>
			<path class="st1" d="M220.2,599.3c-22.1,0-40-6.1-40-13.7v4.7c0,7.6,17.9,13.7,40,13.7c22.1,0,40-6.1,40-13.7v-4.7&#10;&#9;&#9;&#9;&#9;C260.2,593.2,242.3,599.3,220.2,599.3z" style="fill: rgb(247, 130, 3);"/>
		</g><g transform="matrix(1, 0, 0, 1, -97.1746363224338, -337.7975453113173)">
				<path d="M 168.599995 506.700012 A 28.700001 8.9 0 0 1 139.899994 515.600012 A 28.700001 8.9 0 0 1 111.199993 506.700012 A 28.700001 8.9 0 0 1 139.899994 497.800013 A 28.700001 8.9 0 0 1 168.599995 506.700012 Z" class="st1" style="fill: rgb(247, 130, 3);"/>
				<path class="st0" d="M139.9,560.4c-17.7,0-32-4.9-32-10.9v13.2c0,6,14.3,10.9,32,10.9s32-4.9,32-10.9v-13.2&#10;&#9;&#9;&#9;&#9;&#9;C171.9,555.5,157.6,560.4,139.9,560.4z" style="fill: rgb(0, 89, 131);"/>
				<path class="st0" d="M139.9,518.5c-17.7,0-32-4.9-32-10.9v12.3c0,6,14.3,10.9,32,10.9s32-4.9,32-10.9v-12.3&#10;&#9;&#9;&#9;&#9;&#9;C171.9,513.6,157.6,518.5,139.9,518.5z" style="fill: rgb(0, 89, 131);"/>
				<path class="st0" d="M139.9,539.1c-17.7,0-32-4.9-32-10.9v13c0,6,14.3,10.9,32,10.9s32-4.9,32-10.9v-13&#10;&#9;&#9;&#9;&#9;&#9;C171.9,534.2,157.6,539.1,139.9,539.1z" style="fill: rgb(0, 89, 131);"/>
				<path class="st1" d="M139.9,532.9c-17.7,0-32-4.9-32-10.9v3.8c0,6,14.3,10.9,32,10.9s32-4.9,32-10.9V522&#10;&#9;&#9;&#9;&#9;&#9;C171.9,528,157.6,532.9,139.9,532.9z" style="fill: rgb(247, 130, 3);"/>
				<path class="st1" d="M139.9,554.5c-17.7,0-32-4.9-32-10.9v3.8c0,6,14.3,10.9,32,10.9s32-4.9,32-10.9v-3.8&#10;&#9;&#9;&#9;&#9;&#9;C171.9,549.6,157.6,554.5,139.9,554.5z" style="fill: rgb(247, 130, 3);"/>
			</g><path d="M 329.099995 506.700012 A 28.700001 8.9 0 0 1 300.399994 515.600012 A 28.700001 8.9 0 0 1 271.699993 506.700012 A 28.700001 8.9 0 0 1 300.399994 497.800013 A 28.700001 8.9 0 0 1 329.099995 506.700012 Z" class="st1" style="fill: rgb(247, 130, 3);" transform="matrix(1, 0, 0, 1, -97.17463632243368, -337.7975453113173)"/><path class="st0" d="M300.4,560.4c-17.7,0-32-4.9-32-10.9v13.2c0,6,14.3,10.9,32,10.9c17.7,0,32-4.9,32-10.9v-13.2&#10;&#9;&#9;&#9;&#9;&#9;C332.4,555.5,318.1,560.4,300.4,560.4z" style="fill: rgb(0, 89, 131);" transform="matrix(1, 0, 0, 1, -97.17463632243368, -337.7975453113173)"/><path class="st0" d="M300.4,518.5c-17.7,0-32-4.9-32-10.9v12.3c0,6,14.3,10.9,32,10.9c17.7,0,32-4.9,32-10.9v-12.3&#10;&#9;&#9;&#9;&#9;&#9;C332.4,513.6,318.1,518.5,300.4,518.5z" style="fill: rgb(0, 89, 131);" transform="matrix(1, 0, 0, 1, -97.17463632243368, -337.7975453113173)"/><path class="st0" d="M300.4,539.1c-17.7,0-32-4.9-32-10.9v13c0,6,14.3,10.9,32,10.9c17.7,0,32-4.9,32-10.9v-13&#10;&#9;&#9;&#9;&#9;&#9;C332.4,534.2,318.1,539.1,300.4,539.1z" style="fill: rgb(0, 89, 131);" transform="matrix(1, 0, 0, 1, -97.17463632243368, -337.7975453113173)"/><path class="st1" d="M300.4,532.9c-17.7,0-32-4.9-32-10.9v3.8c0,6,14.3,10.9,32,10.9c17.7,0,32-4.9,32-10.9V522&#10;&#9;&#9;&#9;&#9;&#9;C332.4,528,318.1,532.9,300.4,532.9z" style="fill: rgb(247, 130, 3);" transform="matrix(1, 0, 0, 1, -97.17463632243368, -337.7975453113173)"/><path class="st1" d="M300.4,554.5c-17.7,0-32-4.9-32-10.9v3.8c0,6,14.3,10.9,32,10.9c17.7,0,32-4.9,32-10.9v-3.8&#10;&#9;&#9;&#9;&#9;&#9;C332.4,549.6,318.1,554.5,300.4,554.5z" style="fill: rgb(247, 130, 3);" transform="matrix(1, 0, 0, 1, -97.17463632243368, -337.7975453113173)"/><path class="st2" d="M259.9,412.7c8.2,0,15.2-6.1,16-14.3c0.1-0.9,0.2-1.9,0.2-2.8c0-14.4-11.7-26-26-26c-0.8,0-1.5,0-2.3,0.1&#10;&#9;&#9;&#9;c-2.4-13.2-14-23.3-27.9-23.3c-14,0-25.6,10.1-28,23.4c-2.2-0.4-4.4-0.6-6.8-0.5c-14.3,0.7-25.7,12.5-25.9,26.8c0,0.2,0,0.4,0,0.7&#10;&#9;&#9;&#9;c0.1,8.8,7.3,15.9,16.2,15.9H259.9z" style="fill: rgb(255, 185, 0);" transform="matrix(1, 0, 0, 1, -97.1746363224338, -337.7975453113173)"/><path d="M 129.899994 458.700012 H 307.299988 V 463.200012 H 129.899994 V 458.700012 Z" class="st1" style="fill: rgb(247, 130, 3);" transform="matrix(1, 0, 0, 1, -97.1746363224338, -337.7975453113173)"/><path d="M 131 464.700012 H 135.5 V 489.700012 H 131 V 464.700012 Z" class="st1" style="fill: rgb(247, 130, 3);" transform="matrix(1, 0, 0, 1, -97.1746363224338, -337.7975453113173)"/><path d="M 143.299994 460.700012 A 9.4 9.4 0 0 1 133.899994 470.100012 A 9.4 9.4 0 0 1 124.499994 460.700012 A 9.4 9.4 0 0 1 133.899994 451.300013 A 9.4 9.4 0 0 1 143.299994 460.700012 Z" class="st0" style="fill: rgb(0, 89, 131);" transform="matrix(1, 0, 0, 1, -97.1746363224338, -337.7975453113173)"/><path d="M 298 464.700012 H 302.5 V 489.700012 H 298 V 464.700012 Z" class="st1" style="fill: rgb(247, 130, 3);" transform="matrix(1, 0, 0, 1, -97.1746363224338, -337.7975453113173)"/><path d="M 310.299994 460.700012 A 9.4 9.4 0 0 1 300.899994 470.100012 A 9.4 9.4 0 0 1 291.499994 460.700012 A 9.4 9.4 0 0 1 300.899994 451.300013 A 9.4 9.4 0 0 1 310.299994 460.700012 Z" class="st0" style="fill: rgb(0, 89, 131);" transform="matrix(1, 0, 0, 1, -97.1746363224338, -337.7975453113173)"/><path d="M 216.199997 422.899994 H 220.699997 V 520.699997 H 216.199997 V 422.899994 Z" class="st1" style="fill: rgb(247, 130, 3);" transform="matrix(1, 0, 0, 1, -97.1746363224338, -337.7975453113173)"/><path d="M 228.500006 460.700012 A 9.4 9.4 0 0 1 219.100006 470.100012 A 9.4 9.4 0 0 1 209.700006 460.700012 A 9.4 9.4 0 0 1 219.100006 451.300013 A 9.4 9.4 0 0 1 228.500006 460.700012 Z" class="st0" style="fill: rgb(0, 89, 131);" transform="matrix(1, 0, 0, 1, -97.1746363224338, -337.7975453113173)"/>
</svg>