<?xml version="1.0" encoding="utf-8"?>
<svg id="master-artboard" viewBox="0 0 435.5852966308594 435.5852966308594" version="1.1" xmlns="http://www.w3.org/2000/svg" x="0px" y="0px" style="enable-background:new 0 0 500 500;" width="435.5852966308594px" height="435.5852966308594px"><rect id="ee-background" x="0" y="0" width="435.5852966308594" height="435.5852966308594" style="fill: white; fill-opacity: 0; pointer-events: none;"/><defs><style id="ee-google-fonts">@import url(https://fonts.googleapis.com/css?family=Alegreya+Sans+SC:100,100italic,300,300italic,400,400italic,500,500italic,700,700italic,800,800italic,900,900italic);</style></defs>

<path d="M 0 0 H 500 V 500 H 0 V 0 Z" class="st0" style="fill: rgb(255, 255, 255);" transform="matrix(1, 0, 0, 1, -31.906354904174776, -33.71237564086913)"/><path class="st1" d="M190.4,297.2V185.6c0-30.3,24.6-54.9,54.9-54.9h55.3c20.8,0,37.8-16.9,37.8-37.8V35.5H155.7v58.3&#10;&#9;&#9;c0,41.3-33.6,75-75,75H35.5v157.9h125.4C164.2,312,175.7,300.5,190.4,297.2z" style="fill: rgb(239, 223, 193);" transform="matrix(1, 0, 0, 1, -31.906354904174776, -33.71237564086913)"/><path class="st1" d="M355.5,35.5V93c0,30.3-24.6,54.9-54.9,54.9h-55.3c-20.8,0-37.8,16.9-37.8,37.8v111.5&#10;&#9;&#9;c14.6,3.3,26.2,14.8,29.5,29.5h58.2c28,0,50.4-22.9,50.5-51c0.2-37.1,30.5-67.3,67.7-67.3h51.1V59c0-13-10.5-23.5-23.5-23.5H355.5z&#10;&#9;&#9;" style="fill: rgb(239, 223, 193);" transform="matrix(1, 0, 0, 1, -31.906354904174776, -33.71237564086913)"/><path class="st2" d="M383.1,52.2H195.4c-8.1,0-14.7,6.6-14.7,14.7v71.4c0,8.1,6.6,14.7,14.7,14.7h82.7l5.8,10&#10;&#9;&#9;c2.4,4.1,8.4,4.1,10.8,0l5.8-10h82.7c8.1,0,14.7-6.6,14.7-14.7V66.8C397.8,58.7,391.2,52.2,383.1,52.2z" style="opacity: 0.3; fill: rgb(179, 167, 145);" transform="matrix(1, 0, 0, 1, -31.906354904174776, -33.71237564086913)"/><path class="st1" d="M177.1,335.3c0,12.1,9.8,21.9,21.9,21.9c12.1,0,21.9-9.8,21.9-21.9c0-12.1-9.8-21.9-21.9-21.9&#10;&#9;&#9;C186.9,313.4,177.1,323.2,177.1,335.3z" style="fill: rgb(239, 223, 193);" transform="matrix(1, 0, 0, 1, -31.906354904174776, -33.71237564086913)"/><path class="st1" d="M160.9,343.9H35.5V441c0,13,10.5,23.5,23.5,23.5h131.4v-91.1C175.7,370.1,164.2,358.5,160.9,343.9z" style="fill: rgb(239, 223, 193);" transform="matrix(1, 0, 0, 1, -31.906354904174776, -33.71237564086913)"/><path class="st3" d="M138.5,93.8V35.5H59C46,35.5,35.5,46,35.5,59v92.7h45.2C112.7,151.7,138.5,125.8,138.5,93.8z" style="fill: rgb(102, 204, 255);" transform="matrix(1, 0, 0, 1, -31.906354904174776, -33.71237564086913)"/><path class="st3" d="M403.6,428v36.5H441c13,0,23.5-10.5,23.5-23.5v-63.1h-10.7C426,377.9,403.6,400.3,403.6,428z" style="fill: rgb(102, 204, 255);" transform="matrix(1, 0, 0, 1, -31.906354904174776, -33.71237564086913)"/><path class="st4" d="M362.9,276.2c0,37.3-30.4,67.7-67.7,67.7H237c-3.3,14.6-14.8,26.2-29.5,29.5v91.1h178.9V428&#10;&#9;&#9;c0-37.1,30.2-67.3,67.3-67.3h10.7V225.6h-51.1C385.6,225.6,362.9,248.3,362.9,276.2z" style="fill: rgb(163, 222, 121);" transform="matrix(1, 0, 0, 1, -31.906354904174776, -33.71237564086913)"/><path class="st0" d="M375.6,44.7H187.9c-8.1,0-14.7,6.6-14.7,14.7v71.4c0,8.1,6.6,14.7,14.7,14.7h82.7l5.8,10&#10;&#9;&#9;c2.4,4.1,8.4,4.1,10.8,0l5.8-10h82.7c8.1,0,14.7-6.6,14.7-14.7V59.3C390.3,51.2,383.7,44.7,375.6,44.7z" style="fill: rgb(255, 255, 255);" transform="matrix(1, 0, 0, 1, -31.906354904174776, -33.71237564086913)"/><path class="st5" d="M366,72.4H197.4c-2.7,0-4.9-2.2-4.9-4.9l0,0c0-2.7,2.2-4.9,4.9-4.9H366c2.7,0,4.9,2.2,4.9,4.9l0,0&#10;&#9;&#9;C371,70.2,368.8,72.4,366,72.4z" style="fill: rgb(179, 167, 145);" transform="matrix(1, 0, 0, 1, -31.906354904174776, -33.71237564086913)"/><path d="M 333.200012 299.5 A 51.5 6 0 0 1 281.700012 305.5 A 51.5 6 0 0 1 230.200012 299.5 A 51.5 6 0 0 1 281.700012 293.5 A 51.5 6 0 0 1 333.200012 299.5 Z" class="st2" style="opacity: 0.3; fill: rgb(179, 167, 145);" transform="matrix(1, 0, 0, 1, -31.906354904174776, -33.71237564086913)"/><path d="M 315.000011 219.5 A 33.299999 33.299999 0 0 1 281.700012 252.799999 A 33.299999 33.299999 0 0 1 248.400013 219.5 A 33.299999 33.299999 0 0 1 281.700012 186.200001 A 33.299999 33.299999 0 0 1 315.000011 219.5 Z" class="st7" style="fill: rgb(187, 47, 47);" transform="matrix(1, 0, 0, 1, -31.906354904174748, -33.712375640869126)"/><path class="st8" d="M281.7,165.2c-30,0-54.3,24.3-54.3,54.3c0,23.7,34,62,48.2,77c3.3,3.5,8.9,3.5,12.2,0&#10;&#9;&#9;&#9;c14.2-14.9,48.2-53.2,48.2-77C336,189.5,311.7,165.2,281.7,165.2z M281.7,249.6c-16.7,0-30.1-13.5-30.1-30.1s13.5-30.1,30.1-30.1&#10;&#9;&#9;&#9;c16.7,0,30.1,13.5,30.1,30.1S298.4,249.6,281.7,249.6z" style="fill: rgb(249, 62, 62);" transform="matrix(1, 0, 0, 1, -31.906354904174748, -33.712375640869126)"/>
<g transform="matrix(0.2972194254398346, 0, 0, 0.2972194254398346, 44.060739517211914, 94.49419784545898)">
	<path class="st2" d="M701.2,404.5H565.2V206.7c0-11,9-20,20-20h136.1v197.8C721.2,395.5,712.3,404.5,701.2,404.5z" style="fill: rgb(232, 218, 181);"/>
	<path class="st3" d="M721.2,186.7v46c12.7,0,23-10.3,23-23S733.9,186.7,721.2,186.7z" style="fill: rgb(209, 196, 163);"/>
	<path class="st3" d="M683.1,404.5h-118c-12.7,0-23-10.3-23-23c0-12.7,10.3-23,23-23h118c-12.7,0-23,10.3-23,23&#10;&#9;&#9;C660.1,394.2,670.4,404.5,683.1,404.5z" style="fill: rgb(209, 196, 163);"/>
	<g>
		<g>
			<path class="st3" d="M696.6,247.6H589.8v-29.8h106.9V247.6z M594.6,242.8h97.2v-20.2h-97.2V242.8z" style="fill: rgb(209, 196, 163);"/>
		</g>
	</g>
	<g>
		<g>
			<path d="M 585.099976 270.299988 H 701.299973 V 275.099988 H 585.099976 V 270.299988 Z" class="st3" style="fill: rgb(209, 196, 163);"/>
		</g>
	</g>
	<g>
		<g>
			<path d="M 585.099976 286.899994 H 701.299973 V 291.699994 H 585.099976 V 286.899994 Z" class="st3" style="fill: rgb(209, 196, 163);"/>
		</g>
	</g>
	<g>
		<g>
			<path d="M 585.099976 303.600006 H 701.299973 V 308.400006 H 585.099976 V 303.600006 Z" class="st3" style="fill: rgb(209, 196, 163);"/>
		</g>
	</g>
	<g>
		<g>
			<path d="M 585.099976 320.200012 H 668.299973 V 325.000012 H 585.099976 V 320.200012 Z" class="st3" style="fill: rgb(209, 196, 163);"/>
		</g>
	</g>
	<path class="st3" d="M833.2,404.5h-61.1v-26.4c0-6.6,5.3-11.9,11.9-11.9h37.2c6.6,0,11.9,5.3,11.9,11.9V404.5z" style="fill: rgb(209, 196, 163);"/>
	<path d="M 792.599976 331.100006 H 812.699976 V 366.200005 H 792.599976 V 331.100006 Z" class="st1" style="fill: rgb(115, 115, 115);"/>
	<g>
		<g>
			<path class="st9" d="M830.8,234.9c-2.4,0.9-4.8,2.1-7.1,3.6c1.3-2,2.5-4.1,3.5-6.3c5.2-11.3,6.2-23.9,3.5-35.4&#10;&#9;&#9;&#9;&#9;c-9.6,3.6-18,11.4-23.2,22.7c-5.2,11.3-6.2,23.9-3.5,35.4c2.4-0.9,4.8-2.1,7.1-3.6c-1.3,2-2.5,4.1-3.5,6.3&#10;&#9;&#9;&#9;&#9;c-5.2,11.3-6.2,23.9-3.5,35.4c2.4-0.9,4.8-2.1,7.1-3.6c-1.3,2-2.5,4.1-3.5,6.3c-5.2,11.3-6.2,23.9-3.5,35.4&#10;&#9;&#9;&#9;&#9;c9.6-3.6,18-11.4,23.2-22.7c5.2-11.3,6.2-23.9,3.5-35.4c-2.4,0.9-4.8,2.1-7.1,3.6c1.3-2,2.5-4.1,3.5-6.3&#10;&#9;&#9;&#9;&#9;C832.4,259,833.4,246.4,830.8,234.9z" style="fill: rgb(255, 255, 255);"/>
			<path class="st9" d="M797.7,219.5c-5.2-11.3-13.6-19.1-23.2-22.7c-2.6,11.5-1.6,24.1,3.5,35.4c1,2.3,2.2,4.4,3.5,6.3&#10;&#9;&#9;&#9;&#9;c-2.3-1.5-4.6-2.7-7.1-3.6c-2.6,11.5-1.6,24.1,3.5,35.4c1,2.3,2.2,4.4,3.5,6.3c-2.3-1.5-4.6-2.7-7.1-3.6&#10;&#9;&#9;&#9;&#9;c-2.6,11.5-1.6,24.1,3.5,35.4c5.2,11.3,13.6,19.1,23.2,22.7c2.6-11.5,1.6-24.1-3.5-35.4c-1-2.3-2.2-4.4-3.5-6.3&#10;&#9;&#9;&#9;&#9;c2.3,1.5,4.6,2.7,7.1,3.6c2.6-11.5,1.6-24.1-3.5-35.4c-1-2.3-2.2-4.4-3.5-6.3c2.3,1.5,4.6,2.7,7.1,3.6&#10;&#9;&#9;&#9;&#9;C803.8,243.4,802.9,230.7,797.7,219.5z" style="fill: rgb(255, 255, 255);"/>
		</g>
	</g>
</g><path d="M 229.8066864013672 100.22796630859375 C 232.00001525878906 100.22796630859375 233.68002319335938 100.8512954711914 234.8466796875 102.09796142578125 C 236.0133514404297 103.3446273803711 236.5966796875 105.1379623413086 236.5966796875 107.47796630859375 C 236.5966796875 110.17796325683594 235.96669006347656 112.24796295166016 234.70668029785156 113.6879653930664 C 233.4400177001953 115.12796020507812 231.62335205078125 115.84796142578125 229.25668334960938 115.84796142578125 C 227.6900177001953 115.84796142578125 226.0266876220703 115.8012924194336 224.2666778564453 115.70796203613281 L 224.23667907714844 115.70796203613281 L 224.356689453125 111.07796478271484 L 224.23667907714844 100.32796478271484 L 224.2666778564453 100.32796478271484 L 229.8066864013672 100.22796630859375 M 229.56668090820312 114.24796295166016 C 231.20001220703125 114.24796295166016 232.45335388183594 113.71463012695312 233.32669067382812 112.64796447753906 C 234.19334411621094 111.581298828125 234.62667846679688 109.99462890625 234.62667846679688 107.8879623413086 C 234.62667846679688 103.85462951660156 232.9733428955078 101.83795928955078 229.66668701171875 101.83795928955078 C 228.65335083007812 101.83795928955078 227.49334716796875 101.86796569824219 226.18667602539062 101.92796325683594 L 226.08668518066406 110.907958984375 L 226.15667724609375 114.09796142578125 C 227.2766876220703 114.19795989990234 228.41334533691406 114.24796295166016 229.56668090820312 114.24796295166016 ZM 244.3680877685547 103.60796356201172 C 246.11474609375 103.60796356201172 247.4547576904297 104.12129211425781 248.38809204101562 105.14796447753906 C 249.32809448242188 106.17462921142578 249.79808044433594 107.62129211425781 249.79808044433594 109.48796081542969 C 249.79808044433594 111.52129364013672 249.29808044433594 113.0946273803711 248.29808044433594 114.20796203613281 C 247.29808044433594 115.32129669189453 245.8680877685547 115.87796020507812 244.00808715820312 115.87796020507812 C 242.2814178466797 115.87796020507812 240.94808959960938 115.35462951660156 240.00808715820312 114.3079605102539 C 239.06141662597656 113.25463104248047 238.5880889892578 111.76129150390625 238.5880889892578 109.82796478271484 C 238.5880889892578 107.84129333496094 239.09141540527344 106.3079605102539 240.09808349609375 105.22796630859375 C 241.10475158691406 104.14796447753906 242.52809143066406 103.60796356201172 244.3680877685547 103.60796356201172 M 244.2080841064453 105.12796020507812 C 242.94142150878906 105.12796020507812 242.0014190673828 105.48796081542969 241.38809204101562 106.20796203613281 C 240.76808166503906 106.92796325683594 240.4580841064453 108.06129455566406 240.4580841064453 109.60796356201172 C 240.4580841064453 111.27462768554688 240.76141357421875 112.48462677001953 241.3680877685547 113.23796081542969 C 241.98141479492188 113.99129486083984 242.9114227294922 114.36796569824219 244.1580810546875 114.36796569824219 C 245.43807983398438 114.36796569824219 246.38809204101562 113.99796295166016 247.00808715820312 113.25796508789062 C 247.63475036621094 112.52462768554688 247.94808959960938 111.37462615966797 247.94808959960938 109.8079605102539 C 247.94808959960938 108.1879653930664 247.64141845703125 107.00129699707031 247.02809143066406 106.24796295166016 C 246.4080810546875 105.50129699707031 245.4680938720703 105.12796020507812 244.2080841064453 105.12796020507812 ZM 264.1438293457031 115.70796203613281 L 263.88385009765625 112.0579605102539 L 263.23382568359375 106.5379638671875 L 263.0938415527344 106.5379638671875 L 259.6538391113281 114.36796569824219 L 258.24383544921875 114.36796569824219 L 255.00384521484375 106.5379638671875 L 254.8538360595703 106.5379638671875 L 254.2338409423828 111.91796112060547 L 253.8938446044922 115.70796203613281 L 252.3638458251953 115.70796203613281 L 253.683837890625 103.75796508789062 L 255.77383422851562 103.75796508789062 L 256.37384033203125 105.5579605102539 L 258.98382568359375 111.98796081542969 L 259.13385009765625 111.98796081542969 L 261.86383056640625 105.45796203613281 L 262.49383544921875 103.75796508789062 L 264.5338439941406 103.75796508789062 L 265.75384521484375 115.70796203613281 L 264.1438293457031 115.70796203613281 ZM 271.2030944824219 115.70796203613281 L 269.423095703125 115.70796203613281 L 269.49310302734375 112.10796356201172 L 269.423095703125 103.75796508789062 L 271.22308349609375 103.75796508789062 L 271.1531066894531 111.96796417236328 L 271.2030944824219 115.70796203613281 ZM 280.2980651855469 103.6379623413086 C 281.6247253417969 103.6379623413086 282.77471923828125 103.91796112060547 283.748046875 104.47796630859375 L 283.4180603027344 106.12796020507812 L 283.19805908203125 106.20796203613281 C 282.35137939453125 105.48796081542969 281.31805419921875 105.12796020507812 280.0980529785156 105.12796020507812 C 277.67138671875 105.12796020507812 276.45806884765625 106.6379623413086 276.45806884765625 109.657958984375 C 276.45806884765625 111.17796325683594 276.76806640625 112.33795928955078 277.3880615234375 113.1379623413086 C 278.01470947265625 113.9379653930664 278.9180603027344 114.33795928955078 280.0980529785156 114.33795928955078 C 281.31805419921875 114.33795928955078 282.4247131347656 113.97129821777344 283.4180603027344 113.23796081542969 L 283.6280517578125 113.3079605102539 L 283.45806884765625 114.96796417236328 C 282.37139892578125 115.55462646484375 281.2280578613281 115.84796142578125 280.0280456542969 115.84796142578125 C 278.26806640625 115.84796142578125 276.9180603027344 115.32463073730469 275.9780578613281 114.27796173095703 C 275.0314025878906 113.23129272460938 274.55804443359375 111.74129486083984 274.55804443359375 109.8079605102539 C 274.55804443359375 107.83462524414062 275.05804443359375 106.31462860107422 276.05804443359375 105.24796295166016 C 277.05804443359375 104.17462921142578 278.4714050292969 103.6379623413086 280.2980651855469 103.6379623413086 ZM 288.4801940917969 115.70796203613281 L 286.7001953125 115.70796203613281 L 286.77020263671875 112.10796356201172 L 286.7001953125 103.75796508789062 L 288.50018310546875 103.75796508789062 L 288.4302062988281 111.96796417236328 L 288.4801940917969 115.70796203613281 ZM 299.22515869140625 115.70796203613281 L 292.8651428222656 115.70796203613281 L 292.9351501464844 112.10796356201172 L 292.8651428222656 103.75796508789062 L 294.6651611328125 103.75796508789062 L 294.59515380859375 111.96796417236328 L 294.6451721191406 114.19795989990234 L 299.2551574707031 114.19795989990234 L 299.34515380859375 114.36796569824219 L 299.22515869140625 115.70796203613281 ZM 303.74163818359375 115.70796203613281 L 301.9616394042969 115.70796203613281 L 302.0316467285156 112.10796356201172 L 301.9616394042969 103.75796508789062 L 303.7616271972656 103.75796508789062 L 303.691650390625 111.96796417236328 L 303.74163818359375 115.70796203613281 ZM 312.8765869140625 103.60796356201172 C 314.6232604980469 103.60796356201172 315.9632568359375 104.12129211425781 316.8966064453125 105.14796447753906 C 317.83660888671875 106.17462921142578 318.3066101074219 107.62129211425781 318.3066101074219 109.48796081542969 C 318.3066101074219 111.52129364013672 317.8066101074219 113.0946273803711 316.8066101074219 114.20796203613281 C 315.8066101074219 115.32129669189453 314.3765869140625 115.87796020507812 312.5166015625 115.87796020507812 C 310.7899475097656 115.87796020507812 309.45660400390625 115.35462951660156 308.5166015625 114.3079605102539 C 307.5699462890625 113.25463104248047 307.0965881347656 111.76129150390625 307.0965881347656 109.82796478271484 C 307.0965881347656 107.84129333496094 307.5999450683594 106.3079605102539 308.6065979003906 105.22796630859375 C 309.61328125 104.14796447753906 311.0365905761719 103.60796356201172 312.8765869140625 103.60796356201172 M 312.71661376953125 105.12796020507812 C 311.4499206542969 105.12796020507812 310.50994873046875 105.48796081542969 309.8966064453125 106.20796203613281 C 309.276611328125 106.92796325683594 308.96661376953125 108.06129455566406 308.96661376953125 109.60796356201172 C 308.96661376953125 111.27462768554688 309.2699279785156 112.48462677001953 309.8765869140625 113.23796081542969 C 310.48992919921875 113.99129486083984 311.419921875 114.36796569824219 312.6665954589844 114.36796569824219 C 313.94659423828125 114.36796569824219 314.8966064453125 113.99796295166016 315.5166015625 113.25796508789062 C 316.1432800292969 112.52462768554688 316.45660400390625 111.37462615966797 316.45660400390625 109.8079605102539 C 316.45660400390625 108.1879653930664 316.1499328613281 107.00129699707031 315.5365905761719 106.24796295166016 C 314.9165954589844 105.50129699707031 313.9765930175781 105.12796020507812 312.71661376953125 105.12796020507812 ZM 333.0816650390625 115.70796203613281 L 325.5016784667969 115.70796203613281 L 325.6216735839844 111.07796478271484 L 325.5016784667969 100.32796478271484 L 327.4716796875 100.32796478271484 L 327.3516845703125 110.907958984375 L 327.4216613769531 114.09796142578125 L 333.1116638183594 114.09796142578125 L 333.2516784667969 114.26795959472656 L 333.0816650390625 115.70796203613281 ZM 342.92401123046875 114.31796264648438 L 342.7539978027344 115.70796203613281 L 335.4840087890625 115.70796203613281 L 335.55401611328125 112.10796356201172 L 335.4840087890625 103.75796508789062 L 342.80401611328125 103.75796508789062 L 342.92401123046875 103.89796447753906 L 342.78399658203125 105.2879638671875 L 339.7539978027344 105.19795989990234 L 337.2640075683594 105.21796417236328 L 337.2340087890625 108.84796142578125 L 339.614013671875 108.86796569824219 L 341.7040100097656 108.79795837402344 L 341.8240051269531 108.96796417236328 L 341.67401123046875 110.37796020507812 L 339.4640197753906 110.3079605102539 L 337.2340087890625 110.32796478271484 L 337.2140197753906 111.96796417236328 L 337.2340087890625 114.24796295166016 L 339.5840148925781 114.26795959472656 L 342.78399658203125 114.16796112060547 L 342.92401123046875 114.31796264648438 ZM 351.1022644042969 103.6379623413086 C 352.3555908203125 103.6379623413086 353.6122741699219 103.907958984375 354.87225341796875 104.44795989990234 L 354.27227783203125 106.17796325683594 L 354.062255859375 106.17796325683594 C 353.46893310546875 105.79795837402344 352.9222717285156 105.53129577636719 352.4222717285156 105.37796020507812 C 351.9289245605469 105.22462463378906 351.3955993652344 105.14796447753906 350.822265625 105.14796447753906 C 349.4622802734375 105.14796447753906 348.4422607421875 105.53129577636719 347.76226806640625 106.29795837402344 C 347.082275390625 107.06462860107422 346.7422790527344 108.2646255493164 346.7422790527344 109.89796447753906 C 346.7422790527344 111.46463012695312 347.0522766113281 112.59796142578125 347.6722717285156 113.29795837402344 C 348.2989501953125 113.99129486083984 349.2922668457031 114.33795928955078 350.65228271484375 114.33795928955078 C 351.4056091308594 114.33795928955078 352.235595703125 114.17129516601562 353.14227294921875 113.83795928955078 L 353.14227294921875 112.6379623413086 L 353.12225341796875 110.92796325683594 L 354.7822570800781 110.8079605102539 L 354.7822570800781 115.12796020507812 C 353.1622619628906 115.60796356201172 351.76226806640625 115.84796142578125 350.582275390625 115.84796142578125 C 348.6889343261719 115.84796142578125 347.2589416503906 115.34129333496094 346.2922668457031 114.32796478271484 C 345.3255920410156 113.31462860107422 344.8422546386719 111.86129760742188 344.8422546386719 109.96796417236328 C 344.8422546386719 107.92129516601562 345.3889465332031 106.35462951660156 346.4822692871094 105.26795959472656 C 347.582275390625 104.1812973022461 349.12225341796875 103.6379623413086 351.1022644042969 103.6379623413086 ZM 366.0541687011719 115.70796203613281 L 365.76416015625 114.407958984375 L 365.1441650390625 112.6379623413086 L 362.2841491699219 112.60796356201172 L 359.744140625 112.6379623413086 L 359.0941467285156 114.31796264648438 L 358.76416015625 115.70796203613281 L 356.9841613769531 115.70796203613281 L 361.5941467285156 103.75796508789062 L 363.6541442871094 103.75796508789062 L 367.8541564941406 115.70796203613281 L 366.0541687011719 115.70796203613281 M 362.6441650390625 105.50796508789062 L 362.504150390625 105.50796508789062 L 360.32415771484375 111.16796112060547 L 362.43414306640625 111.19795989990234 L 364.6441650390625 111.16796112060547 L 362.6441650390625 105.50796508789062 ZM 377.14007568359375 115.70796203613281 L 370.7800598144531 115.70796203613281 L 370.8500671386719 112.10796356201172 L 370.7800598144531 103.75796508789062 L 372.580078125 103.75796508789062 L 372.51007080078125 111.96796417236328 L 372.5600891113281 114.19795989990234 L 377.1700744628906 114.19795989990234 L 377.26007080078125 114.36796569824219 L 377.14007568359375 115.70796203613281 Z" transform="matrix(1.3866033554077148, 0, 0, 1.3866033554077148, -165.2908172607422, -86.05962371826172)" style="fill: rgb(51, 51, 51); white-space: pre; color: rgb(51, 51, 51);"/><path class="st5" d="M366,72.4H197.4c-2.7,0-4.9-2.2-4.9-4.9l0,0c0-2.7,2.2-4.9,4.9-4.9H366c2.7,0,4.9,2.2,4.9,4.9l0,0&#10;&#9;&#9;C371,70.2,368.8,72.4,366,72.4z" style="fill: rgb(179, 167, 145);" transform="matrix(1, 0, 0, 1, -31.400616586208344, 26.27926254272461)"/></svg>