<?xml version="1.0" encoding="utf-8"?>
<svg id="master-artboard" viewBox="0 0 277.8864440917969 302.6473388671875" version="1.1" xmlns="http://www.w3.org/2000/svg" x="0px" y="0px" width="277.8864440917969px" height="302.6473388671875px" enable-background="new 0 0 1400 980"><rect id="ee-background" x="0" y="0" width="277.8864440917969" height="302.6473388671875" style="fill: white; fill-opacity: 0; pointer-events: none;"/>
<linearGradient id="SVGID_7_" gradientUnits="userSpaceOnUse" x1="1217.6747" y1="468.6682" x2="1209.7023" y2="114.6936">
				<stop offset="0" style="stop-color:#5FB246"/>
				<stop offset="0.4804" style="stop-color:#34AD48"/>
				<stop offset="1" style="stop-color:#008F42"/>
			</linearGradient><linearGradient id="SVGID_8_" gradientUnits="userSpaceOnUse" x1="236.8705" y1="478.2611" x2="246.4915" y2="172.3139">
					<stop offset="0" style="stop-color:#5FB246"/>
					<stop offset="0.4804" style="stop-color:#34AD48"/>
					<stop offset="1" style="stop-color:#008F42"/>
				</linearGradient><linearGradient id="SVGID_9_" gradientUnits="userSpaceOnUse" x1="197.5157" y1="477.0235" x2="207.1367" y2="171.0763">
					<stop offset="0" style="stop-color:#5FB246"/>
					<stop offset="0.4804" style="stop-color:#34AD48"/>
					<stop offset="1" style="stop-color:#008F42"/>
				</linearGradient><linearGradient id="SVGID_10_" gradientUnits="userSpaceOnUse" x1="622.0563" y1="468.4092" x2="622.0563" y2="155.2463">
					<stop offset="0" style="stop-color:#5FB246"/>
					<stop offset="0.4804" style="stop-color:#34AD48"/>
					<stop offset="1" style="stop-color:#008F42"/>
				</linearGradient><linearGradient id="SVGID_11_" gradientUnits="userSpaceOnUse" x1="622.0563" y1="468.4092" x2="622.0563" y2="155.2463">
					<stop offset="0" style="stop-color:#5FB246"/>
					<stop offset="0.4804" style="stop-color:#34AD48"/>
					<stop offset="1" style="stop-color:#008F42"/>
				</linearGradient><linearGradient id="SVGID_12_" gradientUnits="userSpaceOnUse" x1="579.2739" y1="468.4092" x2="579.2739" y2="155.2463">
					<stop offset="0" style="stop-color:#5FB246"/>
					<stop offset="0.4804" style="stop-color:#34AD48"/>
					<stop offset="1" style="stop-color:#008F42"/>
				</linearGradient><linearGradient id="SVGID_13_" gradientUnits="userSpaceOnUse" x1="895.2287" y1="473.1433" x2="902.4445" y2="168.6393">
					<stop offset="0" style="stop-color:#5FB246"/>
					<stop offset="0.4804" style="stop-color:#34AD48"/>
					<stop offset="1" style="stop-color:#008F42"/>
				</linearGradient><linearGradient id="SVGID_14_" gradientUnits="userSpaceOnUse" x1="883.0529" y1="472.8548" x2="890.2686" y2="168.3508">
					<stop offset="0" style="stop-color:#5FB246"/>
					<stop offset="0.4804" style="stop-color:#34AD48"/>
					<stop offset="1" style="stop-color:#008F42"/>
				</linearGradient><linearGradient id="SVGID_15_" gradientUnits="userSpaceOnUse" x1="229.8247" y1="821.5752" x2="232.711" y2="525.249">
					<stop offset="0" style="stop-color:#5FB246"/>
					<stop offset="0.4804" style="stop-color:#34AD48"/>
					<stop offset="1" style="stop-color:#008F42"/>
				</linearGradient><linearGradient id="SVGID_16_" gradientUnits="userSpaceOnUse" x1="230.1106" y1="821.578" x2="232.9969" y2="525.2518">
					<stop offset="0" style="stop-color:#5FB246"/>
					<stop offset="0.4804" style="stop-color:#34AD48"/>
					<stop offset="1" style="stop-color:#008F42"/>
				</linearGradient><linearGradient id="SVGID_17_" gradientUnits="userSpaceOnUse" x1="592.0829" y1="841.3177" x2="597.8555" y2="520.9391">
					<stop offset="0" style="stop-color:#5FB246"/>
					<stop offset="0.4804" style="stop-color:#34AD48"/>
					<stop offset="1" style="stop-color:#008F42"/>
				</linearGradient><linearGradient id="SVGID_18_" gradientUnits="userSpaceOnUse" x1="592.5417" y1="841.326" x2="598.3144" y2="520.9474">
					<stop offset="0" style="stop-color:#5FB246"/>
					<stop offset="0.4804" style="stop-color:#34AD48"/>
					<stop offset="1" style="stop-color:#008F42"/>
				</linearGradient><linearGradient id="SVGID_19_" gradientUnits="userSpaceOnUse" x1="589.5513" y1="841.2722" x2="595.3239" y2="520.8935">
					<stop offset="0" style="stop-color:#5FB246"/>
					<stop offset="0.4804" style="stop-color:#34AD48"/>
					<stop offset="1" style="stop-color:#008F42"/>
				</linearGradient><linearGradient id="SVGID_20_" gradientUnits="userSpaceOnUse" x1="592.9565" y1="841.3335" x2="598.7291" y2="520.9548">
					<stop offset="0" style="stop-color:#5FB246"/>
					<stop offset="0.4804" style="stop-color:#34AD48"/>
					<stop offset="1" style="stop-color:#008F42"/>
				</linearGradient><g transform="matrix(1, 0, 0, 1, -1072.1913694732873, -515.1056949638862)">
					<linearGradient id="SVGID_21_" gradientUnits="userSpaceOnUse" x1="1139.9445" y1="814.7433" x2="1140.9065" y2="462.6154">
						<stop offset="0" style="stop-color:#5FB246"/>
						<stop offset="0.4804" style="stop-color:#34AD48"/>
						<stop offset="1" style="stop-color:#008F42"/>
					</linearGradient>
					<path fill="url(#SVGID_21_)" d="M1163.6,817L1163.6,817c19,0,34.3-15.4,34.3-34.3v-24c-0.8-12.7-4.7-25.2-13.6-34.6&#10;&#9;&#9;&#9;&#9;&#9;&#9;c-5.5-5.7-11.6-7.7-18.7-10.8c-5.4-2.3-10.8-4.6-16.1-7c-6.7-2.9-13.3-5.7-20-8.6c-9.1-3.2-10.9,3.9-10.9,3.9&#10;&#9;&#9;&#9;&#9;&#9;&#9;c-4.3,8.5,2.4,11.1,2.4,11.1l40.2,18.4c2.8,1,1.5,2.7,1.5,2.7c-0.3,2.5-2.8,1.1-2.8,1.1l-49.8-22.8l-8.8-103.1&#10;&#9;&#9;&#9;&#9;&#9;&#9;c-1.8-11.1-12.2-8.9-12.2-8.9c-7.8,1.4-6.7,9.9-6.7,9.9l5.6,95.5c0.8,14,7.1,27.1,17.5,36.6l14.8,13.4&#10;&#9;&#9;&#9;&#9;&#9;&#9;c4.1,3.7,6.6,8.7,7.2,14.2l1.7,16.6C1131.2,803.7,1146,817,1163.6,817z"/>
					<linearGradient id="SVGID_22_" gradientUnits="userSpaceOnUse" x1="1287.5842" y1="815.1467" x2="1288.5464" y2="463.0189">
						<stop offset="0" style="stop-color:#5FB246"/>
						<stop offset="0.4804" style="stop-color:#34AD48"/>
						<stop offset="1" style="stop-color:#008F42"/>
					</linearGradient>
					<path fill="url(#SVGID_22_)" d="M1264.6,817L1264.6,817c-19,0-34.3-15.4-34.3-34.3v-24c0.8-12.7,4.7-25.2,13.6-34.6&#10;&#9;&#9;&#9;&#9;&#9;&#9;c5.5-5.7,11.6-7.7,18.7-10.8c5.4-2.3,10.8-4.6,16.1-7c6.7-2.9,13.3-5.7,20-8.6c9.1-3.2,10.9,3.9,10.9,3.9&#10;&#9;&#9;&#9;&#9;&#9;&#9;c4.3,8.5-2.4,11.1-2.4,11.1l-40.2,18.4c-2.8,1-1.5,2.7-1.5,2.7c0.3,2.5,2.8,1.1,2.8,1.1L1318,712l8.8-103.1&#10;&#9;&#9;&#9;&#9;&#9;&#9;c1.8-11.1,12.2-8.9,12.2-8.9c7.8,1.4,6.7,9.9,6.7,9.9l-5.6,95.5c-0.8,14-7.1,27.1-17.5,36.6l-14.8,13.4&#10;&#9;&#9;&#9;&#9;&#9;&#9;c-4.1,3.7-6.6,8.7-7.2,14.2l-1.7,16.6C1297,803.7,1282.2,817,1264.6,817z"/>
				</g><linearGradient id="SVGID_23_" gradientUnits="userSpaceOnUse" x1="1213.569" y1="814.9445" x2="1214.5311" y2="462.8166">
					<stop offset="0" style="stop-color:#5FB246"/>
					<stop offset="0.4804" style="stop-color:#34AD48"/>
					<stop offset="1" style="stop-color:#008F42"/>
				</linearGradient><path fill="url(#SVGID_23_)" d="M1214.1,525.7c-51.1,0-92.5,41.4-92.5,92.5c0,51.1,41.4,92.5,92.5,92.5&#10;&#9;&#9;&#9;&#9;&#9;c51.1,0,92.5-41.4,92.5-92.5C1306.6,567.1,1265.2,525.7,1214.1,525.7z M1270.6,588.7c-0.9,3.7-1.4,8-1.3,11.8&#10;&#9;&#9;&#9;&#9;&#9;c0.4,10,2.5,19.5,1.2,29.6c-2.5,19.6-17.3,36-38.1,35.7c-6.1-0.1-12.2-1.7-17.6-4.7c-2.2-1.2-12.9-8-12.4-11&#10;&#9;&#9;&#9;&#9;&#9;c5.2-31.5,31.2-41.9,31.2-41.9c-22.6,4.6-33.9,30.6-36.1,36.2c0,0,0-0.1-0.1-0.1c0,0,0,0,0,0c-1.4-3.6-8.7-20.2-23.1-23.2&#10;&#9;&#9;&#9;&#9;&#9;c0,0,16.7,6.7,20,26.9c0.3,1.9-6.5,6.3-7.9,7.1c-3.4,1.9-7.3,3-11.3,3c-13.3,0.2-22.8-10.3-24.4-22.9c-0.8-6.5,0.5-12.6,0.8-19&#10;&#9;&#9;&#9;&#9;&#9;c0.1-2.4-0.2-5.2-0.8-7.6c-0.3-1.1-1.7-6.1-3.2-6.1c0,0,32.9,0.1,46.7,14.8c9.7-37.9,81.3-38.1,81.3-38.1&#10;&#9;&#9;&#9;&#9;&#9;C1273.2,579.3,1271,587.1,1270.6,588.7z" transform="matrix(1, 0, 0, 1, -1072.1913694732873, -515.1056949638862)"/>
</svg>