<?xml version="1.0" encoding="utf-8"?>
<svg id="master-artboard" viewBox="0 0 434.0070495605469 434.00701904296875" version="1.1" xmlns="http://www.w3.org/2000/svg" x="0px" y="0px" style="enable-background:new 0 0 500 500;" width="434.0070495605469px" height="434.00701904296875px" xmlns:xlink="http://www.w3.org/1999/xlink"><rect id="ee-background" x="0" y="0" width="434.0070495605469" height="434.00701904296875" style="fill: white; fill-opacity: 0; pointer-events: none;"/>

<path class="st1" d="M190.4,297.2V185.6c0-30.3,24.6-54.9,54.9-54.9h55.3c20.8,0,37.8-16.9,37.8-37.8V35.5H155.7v58.3&#10;&#9;&#9;c0,41.3-33.6,75-75,75H35.5v157.9h125.4C164.2,312,175.7,300.5,190.4,297.2z" style="fill: rgb(239, 223, 193);" transform="matrix(1, 0, 0, 1, -33.63102340698239, -32.3619270324707)"/><path class="st1" d="M355.5,35.5V93c0,30.3-24.6,54.9-54.9,54.9h-55.3c-20.8,0-37.8,16.9-37.8,37.8v111.5&#10;&#9;&#9;c14.6,3.3,26.2,14.8,29.5,29.5h58.2c28,0,50.4-22.9,50.5-51c0.2-37.1,30.5-67.3,67.7-67.3h51.1V59c0-13-10.5-23.5-23.5-23.5H355.5z&#10;&#9;&#9;" style="fill: rgb(239, 223, 193);" transform="matrix(1, 0, 0, 1, -33.63102340698239, -32.3619270324707)"/><path class="st2" d="M383.1,52.2H195.4c-8.1,0-14.7,6.6-14.7,14.7v71.4c0,8.1,6.6,14.7,14.7,14.7h82.7l5.8,10&#10;&#9;&#9;c2.4,4.1,8.4,4.1,10.8,0l5.8-10h82.7c8.1,0,14.7-6.6,14.7-14.7V66.8C397.8,58.7,391.2,52.2,383.1,52.2z" style="opacity: 0.3; fill: rgb(179, 167, 145);" transform="matrix(1, 0, 0, 1, -33.63102340698239, -32.3619270324707)"/><path class="st1" d="M177.1,335.3c0,12.1,9.8,21.9,21.9,21.9c12.1,0,21.9-9.8,21.9-21.9c0-12.1-9.8-21.9-21.9-21.9&#10;&#9;&#9;C186.9,313.4,177.1,323.2,177.1,335.3z" style="fill: rgb(239, 223, 193);" transform="matrix(1, 0, 0, 1, -33.63102340698239, -32.3619270324707)"/><path class="st1" d="M160.9,343.9H35.5V441c0,13,10.5,23.5,23.5,23.5h131.4v-91.1C175.7,370.1,164.2,358.5,160.9,343.9z" style="fill: rgb(239, 223, 193);" transform="matrix(1, 0, 0, 1, -33.63102340698239, -32.3619270324707)"/><path class="st3" d="M138.5,93.8V35.5H59C46,35.5,35.5,46,35.5,59v92.7h45.2C112.7,151.7,138.5,125.8,138.5,93.8z" style="fill: rgb(102, 204, 255);" transform="matrix(1, 0, 0, 1, -33.63102340698239, -32.3619270324707)"/><path class="st3" d="M403.6,428v36.5H441c13,0,23.5-10.5,23.5-23.5v-63.1h-10.7C426,377.9,403.6,400.3,403.6,428z" style="fill: rgb(102, 204, 255);" transform="matrix(1, 0, 0, 1, -33.63102340698239, -32.3619270324707)"/><path class="st4" d="M362.9,276.2c0,37.3-30.4,67.7-67.7,67.7H237c-3.3,14.6-14.8,26.2-29.5,29.5v91.1h178.9V428&#10;&#9;&#9;c0-37.1,30.2-67.3,67.3-67.3h10.7V225.6h-51.1C385.6,225.6,362.9,248.3,362.9,276.2z" style="fill: rgb(163, 222, 121);" transform="matrix(1, 0, 0, 1, -33.63102340698239, -32.3619270324707)"/><path class="st0" d="M375.6,44.7H187.9c-8.1,0-14.7,6.6-14.7,14.7v71.4c0,8.1,6.6,14.7,14.7,14.7h82.7l5.8,10&#10;&#9;&#9;c2.4,4.1,8.4,4.1,10.8,0l5.8-10h82.7c8.1,0,14.7-6.6,14.7-14.7V59.3C390.3,51.2,383.7,44.7,375.6,44.7z" style="fill: rgb(255, 255, 255);" transform="matrix(1, 0, 0, 1, -33.63102340698239, -32.3619270324707)"/><path class="st5" d="M366,72.4H197.4c-2.7,0-4.9-2.2-4.9-4.9l0,0c0-2.7,2.2-4.9,4.9-4.9H366c2.7,0,4.9,2.2,4.9,4.9l0,0&#10;&#9;&#9;C371,70.2,368.8,72.4,366,72.4z" style="fill: rgb(179, 167, 145);" transform="matrix(1, 0, 0, 1, -33.63102340698239, -32.3619270324707)"/><path class="st1" d="M366,96.4H197.4c-2.7,0-4.9-2.2-4.9-4.9l0,0c0-2.7,2.2-4.9,4.9-4.9H366c2.7,0,4.9,2.2,4.9,4.9l0,0&#10;&#9;&#9;C371,94.2,368.8,96.4,366,96.4z" style="fill: rgb(239, 223, 193);" transform="matrix(1, 0, 0, 1, -33.63102340698239, -32.3619270324707)"/><path class="st6" d="M366,120.4H197.4c-2.7,0-4.9-2.2-4.9-4.9l0,0c0-2.7,2.2-4.9,4.9-4.9H366c2.7,0,4.9,2.2,4.9,4.9l0,0&#10;&#9;&#9;C371,118.2,368.8,120.4,366,120.4z" style="fill: rgb(245, 236, 218);" transform="matrix(1, 0, 0, 1, -33.63102340698239, -32.3619270324707)"/><path d="M 333.200012 299.5 A 51.5 6 0 0 1 281.700012 305.5 A 51.5 6 0 0 1 230.200012 299.5 A 51.5 6 0 0 1 281.700012 293.5 A 51.5 6 0 0 1 333.200012 299.5 Z" class="st2" style="opacity: 0.3; fill: rgb(179, 167, 145);" transform="matrix(1, 0, 0, 1, -33.63102340698239, -32.3619270324707)"/><path class="st8" d="M281.7,165.2c-30,0-54.3,24.3-54.3,54.3c0,23.7,34,62,48.2,77c3.3,3.5,8.9,3.5,12.2,0&#10;&#9;&#9;&#9;c14.2-14.9,48.2-53.2,48.2-77C336,189.5,311.7,165.2,281.7,165.2z M281.7,249.6c-16.7,0-30.1-13.5-30.1-30.1s13.5-30.1,30.1-30.1&#10;&#9;&#9;&#9;c16.7,0,30.1,13.5,30.1,30.1S298.4,249.6,281.7,249.6z" style="fill: rgb(249, 62, 62);" transform="matrix(1, 0, 0, 1, -33.631023406982365, -32.3619270324707)"/>
<path d="M 712.2000122070312 663.7000122070312 L 720.0999755859375 669.2999877929688 L 710.7999877929688 666.5 L 705.2000122070312 674.5 L 707.9000244140625 665.0999755859375 L 700 659.5999755859375 L 709.2999877929688 662.2999877929688 L 714.9000244140625 654.4000244140625 Z" class="st5" style="fill: rgb(255, 255, 255);" transform="matrix(0.18133920431137085, 0, 0, 0.18133920431137085, 123.83102798461914, 131.56838607788086)"/><g transform="matrix(0.18133920431137085, 0, 0, 0.18133920431137085, 123.83102798461914, 131.56838607788086)">
		<path d="M 779.7999877929688 535.7000122070312 L 597.9000244140625 531.4000244140625 L 598.2999877929688 516.5999755859375 L 780.2000122070312 521 Z" class="st6" style="fill: rgb(96, 57, 19);"/>
		
			<path d="M 573.700012 555.700012 H 800.200012 V 570.500012 H 573.700012 V 555.700012 Z" transform="matrix(0.9998 1.918940e-02 -1.918940e-02 0.9998 10.9322 -13.0775)" class="st6" style="fill: rgb(96, 57, 19);"/>
		
			<path d="M 544.599976 603.099976 H 831.899963 V 617.899976 H 544.599976 V 603.099976 Z" transform="matrix(0.9999 1.512469e-02 -1.512469e-02 0.9999 9.3117 -10.3397)" class="st6" style="fill: rgb(96, 57, 19);"/>
		<g>
			<defs>
				<path id="XMLID_3_" d="M910.8,251.9c3.3,7.4,9.8,13.4,14.4,10.1c9.1,6.4,5,15.4,6.5,24.8c2,12,9.8,22.4,11.9,34.5&#10;&#9;&#9;&#9;&#9;&#9;c1.8,10.4-0.8,18.5-0.4,29.8c0.4,10.2,6.4,18.8,3.5,27.3c2-6.1,14.6,9.7,15.1,10.4c5.9,8.5,7.5,21.6,9.3,31.4&#10;&#9;&#9;&#9;&#9;&#9;c3.4,18.3,10.7,51.8,3,69.7c-9.2,2.4-19.4,0.2-27.6,1.8c-11,2-17.7,9.3-29.6,10c-20,1.2-40-6.7-59-6.6&#10;&#9;&#9;&#9;&#9;&#9;c-11.6,0.1-22.8,8.7-33.2,7c-9.7-1.6-13.5-8.7-25.9-8.6c-22.2,0.1-44-4.1-65.2-2.9c-11.6,0.7-27.4,1.1-39.7,2.9&#10;&#9;&#9;&#9;&#9;&#9;c-15.2,2.3-24.4,1.4-39.4,1.6c-30,0.4-67.9-6.1-96.8-2.9c-6.2,0.7-12.8,3.2-18,6.2c-1.3,0.8-13.5,9.5-13.4,9.5&#10;&#9;&#9;&#9;&#9;&#9;c-11.6,2-23.5-9.6-37.4-9.6c-6.8,0-10.1,2.8-18,2.1c-5.2-0.4-11.3-2.3-16.4-3.6c-32.3-8.4-36.1-19.9-34.2-53.9&#10;&#9;&#9;&#9;&#9;&#9;c15,0.2,5.3-23.1,8-32.5c2.9-10.1,8.3-11.9,16-19.1c10.5-9.8,7.2-3.8,6.9-18.9c-0.1-7.7-5.5-17.4,6.4-18.6&#10;&#9;&#9;&#9;&#9;&#9;c1.1-13.7-13.6-52.1-1.7-59.1c1.9-13.2-12.6-23.5-5.1-36.3c3.5-5.9,9.7-4.1,13.2-8.2c7.2-8.5,7.4-20.7,11.6-30.8&#10;&#9;&#9;&#9;&#9;&#9;c6.3-15.3,13.2-49.7,25.3-60.3c4.2-3.7,11.2-1.5,16.5-6.9c17.2-17.4,3.3-50.3,23.9-66.9c8.9-7.2,21-3.9,32.1-6.1&#10;&#9;&#9;&#9;&#9;&#9;c6.1-1.2,5.6-4.2,11.3-1.3c3.8,1.9,5.1,11.8,9.6,13.3c11.1,3.8,13.1-12.4,16-20.7c3.2-9.1,8.6-19,20.9-16&#10;&#9;&#9;&#9;&#9;&#9;c4.4,1.1,3.5,6.3,8.6,7.4c6.4,1.5,12.5-2.4,17.2-6.1c9.4-7.5,13.6-20.3,28.4-13.6c11,5,12.4,19.6,19.9,28.3&#10;&#9;&#9;&#9;&#9;&#9;c18.8,21.5,28.9-8.9,45.2-15.8c17.4-7.4,23.8,15.9,36.7,14.4c5.1-16.2,24.6-21.3,35.9-11.8c9.8,8.2,11.8,16.1,11.3,29.1&#10;&#9;&#9;&#9;&#9;&#9;c15.7-3.3,10.2,14.5,17.1,22.1c6,6.6,17.7,5.1,23.4,10.2c10.2,9.2,15.4,23.1,15.9,36.4c0.4,10.4-3.1,20.5,1.4,29.6&#10;&#9;&#9;&#9;&#9;&#9;c39.2-0.2-0.3,37.9,15.6,45.9C907.4,235.9,908.3,246.2,910.8,251.9z"/>
			</defs>
			<defs>
				<path id="SVGID_3_" d="M523.5,510.5c-5.6,0-11-2.3-16.7-4.8c-5.7-2.5-11.7-5-17.8-5c-2.7,0-4.9,0.5-7.1,1&#10;&#9;&#9;&#9;&#9;&#9;c-2.5,0.6-5,1.2-8.5,1.2c-0.9,0-1.7,0-2.6-0.1c-4.5-0.4-9.7-1.8-14.2-3c-0.9-0.2-1.8-0.5-2.7-0.7c-33.3-8.7-38-21.1-36-56.4&#10;&#9;&#9;&#9;&#9;&#9;l0.1-2.4l2.5,0c2,0,3.3-0.5,4.2-1.5c2.5-2.8,1.8-9.7,1.2-15.8c-0.5-5.1-1-9.9,0-13.4c2.4-8.3,6.4-11.6,11.4-15.7&#10;&#9;&#9;&#9;&#9;&#9;c1.7-1.4,3.4-2.8,5.3-4.5c1.8-1.7,3.2-2.9,4.3-3.8c1.3-1.1,2.3-2,2.5-2.4c0.1-0.3,0-1.3-0.1-2.4c-0.2-1.7-0.5-4.3-0.5-8.3&#10;&#9;&#9;&#9;&#9;&#9;c0-1.6-0.3-3.5-0.6-5.3c-0.7-4.3-1.5-8.7,1.1-12c1.3-1.7,3.3-2.8,6-3.4c-0.1-4.6-1.4-11.3-2.8-18.5c-3.3-16.6-6.7-33.7,1.2-39.9&#10;&#9;&#9;&#9;&#9;&#9;c0.3-4.6-1.6-9-3.6-13.6c-2.9-6.7-6.2-14.2-1.3-22.5c2.4-4.1,6-5.3,8.8-6.2c2-0.6,3.5-1.1,4.6-2.4c4.3-5,5.9-11.5,7.6-18.4&#10;&#9;&#9;&#9;&#9;&#9;c1-3.9,2-8,3.5-11.8c1.8-4.4,3.7-10.6,5.7-17.2c5.2-16.9,11.1-36.1,20.2-44c2.4-2.1,5.3-2.7,8.1-3.2c3-0.6,5.9-1.1,8.3-3.6&#10;&#9;&#9;&#9;&#9;&#9;c7.5-7.6,8.6-18.7,9.8-30.4c1.3-13.5,2.7-27.4,14.3-36.7c6.5-5.2,14.3-5.5,21.9-5.7c3.7-0.1,7.6-0.2,11.2-1c1.9-0.4,3-0.9,4-1.4&#10;&#9;&#9;&#9;&#9;&#9;c1.1-0.6,2.3-1.1,3.9-1.1c1.4,0,3,0.5,5,1.5c2.6,1.3,3.9,4.3,5.4,7.4c1.1,2.4,2.5,5.3,3.8,5.8c0.8,0.3,1.6,0.4,2.3,0.4&#10;&#9;&#9;&#9;&#9;&#9;c4.9,0,7.2-8,9-14.5c0.5-1.8,1-3.6,1.5-5.1c2.7-7.8,7.7-18.2,19-18.2c1.6,0,3.2,0.2,4.9,0.6c3.1,0.8,4.5,3,5.4,4.6&#10;&#9;&#9;&#9;&#9;&#9;c1,1.6,1.6,2.5,3.1,2.8c0.7,0.2,1.5,0.3,2.3,0.3c4.8,0,9.7-3.4,12.9-5.9c2.3-1.8,4.4-4.1,6.3-6.3c4.3-4.8,8.8-9.7,16-9.7&#10;&#9;&#9;&#9;&#9;&#9;c2.7,0,5.5,0.7,8.6,2.1c7.6,3.5,11,10.6,14.2,17.6c2,4.2,3.8,8.2,6.5,11.3c4,4.5,7.6,6.7,11,6.7c5.3,0,10.5-5.3,15.9-10.9&#10;&#9;&#9;&#9;&#9;&#9;c4.7-4.8,9.6-9.9,15.4-12.3c2.6-1.1,5.1-1.6,7.6-1.6c7.3,0,12.6,4.8,17.3,9.1c3.7,3.3,7.2,6.5,11,6.8&#10;&#9;&#9;&#9;&#9;&#9;c3.9-10,13.4-16.6,24.2-16.6c5.6,0,10.9,1.9,15,5.3c10,8.4,12.4,16.9,12.2,28.1c0.3,0,0.6,0,0.9,0c8.9,0,10.5,7.6,11.8,13.7&#10;&#9;&#9;&#9;&#9;&#9;c0.8,3.6,1.6,7.4,3.6,9.6c2.7,3,7,4.1,11.6,5.2c4.2,1,8.6,2.1,11.6,4.9c10,9.1,16.1,23,16.7,38.2c0.1,3.6-0.2,7.1-0.4,10.5&#10;&#9;&#9;&#9;&#9;&#9;c-0.5,6-1,11.6,1,16.8c8.3,0.2,13.7,2.2,16.6,6.1c4.3,6,1.5,14.5-1.2,22.8c-3.1,9.3-4.6,15.1-0.3,17.3l1.4,0.7l0,1.5&#10;&#9;&#9;&#9;&#9;&#9;c-0.1,5.3,0.8,15,3.1,20.2c2.4,5.4,6.4,9.5,9.3,9.5l0,0c0.5,0,1-0.1,1.4-0.5l1.4-1l1.4,1c7.4,5.2,7.3,12,7.2,18.5&#10;&#9;&#9;&#9;&#9;&#9;c0,2.6-0.1,5.2,0.3,7.8c0.9,5.7,3.3,11.1,5.8,16.7c2.5,5.6,5,11.5,6.1,17.7c1.1,6.4,0.7,11.8,0.2,17.6c-0.3,3.9-0.7,8-0.5,12.5&#10;&#9;&#9;&#9;&#9;&#9;c0.1,3.9,1.2,7.6,2.2,11.2c1.1,4.1,2.3,8.3,2.1,12.5c5.8,1.7,13.9,12.5,14,12.6c5.4,7.8,7.4,19.2,9,28.4c0.2,1.4,0.5,2.7,0.7,4&#10;&#9;&#9;&#9;&#9;&#9;c0.3,1.6,0.6,3.2,0.9,5c3.7,19.6,9.2,49.1,1.9,66.1l-0.5,1.1l-1.2,0.3c-4.4,1.2-8.9,1.3-12.7,1.3c-1.2,0-2.5,0-3.7,0&#10;&#9;&#9;&#9;&#9;&#9;c-1.2,0-2.3,0-3.5,0c-2.4,0-5.2,0.1-7.8,0.5c-4.6,0.8-8.4,2.7-12.4,4.6c-5.1,2.5-10.4,5-17.5,5.4c-1.4,0.1-2.8,0.1-4.2,0.1&#10;&#9;&#9;&#9;&#9;&#9;c-9.6,0-19.1-1.8-28.4-3.5c-9.1-1.7-17.7-3.3-26.1-3.3l-0.5,0c-4.9,0-10,1.8-15,3.6c-5,1.8-10.2,3.6-15.4,3.6&#10;&#9;&#9;&#9;&#9;&#9;c-1.1,0-2.2-0.1-3.2-0.3c-4.5-0.7-7.9-2.6-11.1-4.3c-4-2.2-7.9-4.3-14.2-4.3l-1.1,0c-9.8,0-19.5-0.8-28.9-1.6&#10;&#9;&#9;&#9;&#9;&#9;c-9.5-0.8-18.4-1.5-27.4-1.5c-2.7,0-5.3,0.1-7.8,0.2c-2.5,0.1-5.2,0.3-8.1,0.4c-10.2,0.5-21.9,1.1-31.4,2.5&#10;&#9;&#9;&#9;&#9;&#9;c-10.2,1.5-17.9,1.7-25,1.7c-1.4,0-2.9,0-4.4,0c-3.2,0-6.6,0-10.4,0c-12.5,0.2-26.5-0.9-40.1-1.9c-12.9-0.9-26.3-1.9-38.6-1.9&#10;&#9;&#9;&#9;&#9;&#9;c-6.7,0-12.5,0.3-17.8,0.9c-5.3,0.6-11.5,2.7-17.1,5.9c-0.9,0.5-8.5,6-11.8,8.3l0.3,1l-2.8,0.5&#10;&#9;&#9;&#9;&#9;&#9;C525.7,510.4,524.6,510.5,523.5,510.5z M488.9,495.8c7.2,0,13.6,2.8,19.8,5.4c5.2,2.3,10.2,4.4,14.8,4.4c0.6,0,1.3,0,1.9-0.1&#10;&#9;&#9;&#9;&#9;&#9;c0.4-0.3,0.9-0.6,1.4-1c1.2-0.8,2.7-2,4.3-3.1c6.5-4.6,7.2-5,7.4-5.2c6.2-3.5,13.1-5.9,19-6.5c5.5-0.6,11.5-0.9,18.3-0.9&#10;&#9;&#9;&#9;&#9;&#9;c12.5,0,26,1,39,1.9c13.1,1,25.5,1.9,37.1,1.9c0.9,0,1.8,0,2.7,0c3.8-0.1,7.2,0,10.4,0c1.5,0,2.9,0,4.3,0&#10;&#9;&#9;&#9;&#9;&#9;c8.6,0,15.3-0.3,24.2-1.6c9.8-1.5,21.6-2,31.9-2.5c2.8-0.1,5.5-0.3,8-0.4c2.6-0.1,5.2-0.2,8.1-0.2c9.2,0,18.7,0.8,27.8,1.6&#10;&#9;&#9;&#9;&#9;&#9;c9.3,0.8,19,1.6,28.5,1.6l1.1,0c7.6,0,12.4,2.6,16.6,4.9c3,1.6,5.8,3.2,9.5,3.8c0.8,0.1,1.6,0.2,2.4,0.2c4.3,0,8.9-1.6,13.7-3.3&#10;&#9;&#9;&#9;&#9;&#9;c5.3-1.9,10.8-3.8,16.6-3.9l0.5,0c8.9,0,18.1,1.7,27,3.3c9,1.7,18.3,3.4,27.5,3.4c1.3,0,2.7,0,4-0.1c6.1-0.4,10.8-2.6,15.7-5&#10;&#9;&#9;&#9;&#9;&#9;c4.1-2,8.4-4,13.6-5c3-0.5,6.1-0.6,8.7-0.6c1.2,0,2.4,0,3.6,0c1.2,0,2.4,0,3.6,0c3.2,0,6.8-0.1,10.3-0.9&#10;&#9;&#9;&#9;&#9;&#9;c6-15.9,0.8-43.6-2.7-62.1c-0.3-1.8-0.6-3.4-0.9-5c-0.2-1.3-0.5-2.7-0.7-4.1c-1.6-9.2-3.4-19.5-8.2-26.4&#10;&#9;&#9;&#9;&#9;&#9;c-2.2-3-9.3-10.6-11.4-10.8l0,0c0.2,0,0.5-0.1,0.6-0.3l-4.6-1.5c0,0,0,0,0,0c1.4-4.3,0.2-8.8-1.3-14c-1.1-3.9-2.2-7.9-2.4-12.4&#10;&#9;&#9;&#9;&#9;&#9;c-0.2-4.8,0.2-9,0.5-13.1c0.5-5.4,0.9-10.6-0.1-16.3c-1-5.7-3.3-11-5.8-16.6c-2.5-5.7-5.1-11.6-6.1-17.9c-0.5-3-0.4-5.9-0.4-8.7&#10;&#9;&#9;&#9;&#9;&#9;c0.1-5.5,0.2-9.9-4-13.5c-0.8,0.3-1.7,0.5-2.6,0.5h0c-5.7,0-11-6.3-13.8-12.5c-2.5-5.7-3.5-15.2-3.5-20.8&#10;&#9;&#9;&#9;&#9;&#9;c-6.6-4.6-3.5-14-0.8-22.4c2.3-7.1,4.8-14.4,1.9-18.4c-2-2.7-6.6-4.1-13.9-4.1l-1.9,0l-0.7-1.4c-3.3-6.7-2.7-13.9-2.1-20.7&#10;&#9;&#9;&#9;&#9;&#9;c0.3-3.2,0.6-6.6,0.4-9.9c-0.5-13.8-6-26.5-15.1-34.7c-2.2-2-5.7-2.8-9.5-3.8c-4.8-1.2-10.3-2.5-14.1-6.6&#10;&#9;&#9;&#9;&#9;&#9;c-2.9-3.2-3.9-7.8-4.8-11.9c-1.5-6.9-2.5-9.8-7-9.8c-0.9,0-1.9,0.1-3,0.3l-3.1,0.6l0.1-3.2c0.5-11.8-0.9-19.2-10.4-27.1&#10;&#9;&#9;&#9;&#9;&#9;C818,56.5,814,55,809.5,55c-7.7,0-16.9,4.6-20.1,14.8l-0.5,1.5l-1.6,0.2c-0.5,0.1-1,0.1-1.5,0.1c-5.9,0-10.5-4.1-14.9-8.1&#10;&#9;&#9;&#9;&#9;&#9;c-4.4-4-8.6-7.8-14-7.8c-1.8,0-3.7,0.4-5.6,1.3c-4.9,2.1-9.4,6.7-13.8,11.2c-5.9,6.1-12,12.4-19.5,12.4c-5,0-9.8-2.8-14.7-8.4&#10;&#9;&#9;&#9;&#9;&#9;c-3.2-3.6-5.3-8.1-7.3-12.4c-3-6.4-5.9-12.5-11.8-15.2c-2.5-1.1-4.6-1.7-6.6-1.7c-5,0-8.4,3.8-12.3,8.1&#10;&#9;&#9;&#9;&#9;&#9;c-2.1,2.3-4.3,4.7-6.9,6.8c-3.8,3-9.6,7-15.9,7c-1.1,0-2.3-0.1-3.4-0.4c-3.6-0.8-5.1-3.3-6.2-5c-0.9-1.4-1.3-2.1-2.4-2.4&#10;&#9;&#9;&#9;&#9;&#9;c-8.4-2-13.8,2.2-18,14.4c-0.5,1.4-0.9,3-1.4,4.8c-2.2,7.6-5.1,18.1-13.7,18.1c-1.2,0-2.5-0.2-3.9-0.7c-3.4-1.1-5.1-4.8-6.7-8.4&#10;&#9;&#9;&#9;&#9;&#9;c-1-2.1-2.1-4.6-3.2-5.1c-1.3-0.6-2.2-1-2.8-1c-0.4,0-0.9,0.2-1.7,0.6c-1.1,0.6-2.7,1.3-5.2,1.9c-4,0.8-8.1,0.9-12,1.1&#10;&#9;&#9;&#9;&#9;&#9;c-7.1,0.2-13.8,0.4-19,4.6c-10,8.1-11.2,20.4-12.5,33.4c-1.2,12-2.4,24.5-11.2,33.3c-3.5,3.5-7.6,4.3-10.9,4.9&#10;&#9;&#9;&#9;&#9;&#9;c-2.4,0.5-4.4,0.9-5.8,2.1c-8,7-13.9,26.3-18.7,41.8c-2.1,6.7-4,13-5.9,17.6c-1.4,3.5-2.3,7.2-3.3,11.1&#10;&#9;&#9;&#9;&#9;&#9;c-1.8,7.1-3.6,14.5-8.6,20.4c-2,2.3-4.6,3.1-6.8,3.9c-2.6,0.8-4.6,1.4-6.1,4c-3.6,6.2-1.2,11.7,1.6,18&#10;&#9;&#9;&#9;&#9;&#9;c2.3,5.4,4.8,10.9,3.8,17.3l-0.2,1.2l-1,0.6c-6.2,3.7-2.6,22,0,35.4c1.7,8.5,3.3,16.6,2.9,21.7l-0.2,2l-2,0.2&#10;&#9;&#9;&#9;&#9;&#9;c-2.4,0.2-4,0.9-4.7,1.9c-1.3,1.6-0.7,4.9-0.1,8.2c0.3,2,0.7,4,0.7,6c0.1,3.8,0.3,6.1,0.5,7.9c0.5,4.8,0,5.5-4.1,9.1&#10;&#9;&#9;&#9;&#9;&#9;c-1.1,0.9-2.4,2.1-4.2,3.7c-2,1.9-3.9,3.4-5.5,4.7c-4.7,3.8-7.8,6.4-9.8,13.2c-0.8,2.7-0.3,7.2,0.2,11.6&#10;&#9;&#9;&#9;&#9;&#9;c0.8,7.5,1.6,15.2-2.4,19.6c-1.4,1.6-3.4,2.6-5.7,2.9c-1.6,32.1,2.5,41.4,32.4,49.2c0.9,0.2,1.8,0.5,2.7,0.7&#10;&#9;&#9;&#9;&#9;&#9;c4.3,1.2,9.2,2.5,13.3,2.8c0.8,0.1,1.5,0.1,2.2,0.1c2.9,0,5.1-0.5,7.4-1C483.1,496.3,485.6,495.8,488.9,495.8z"/>
			</defs>
			<use style="overflow:visible;fill:#BEA891;" xlink:href="#XMLID_3_"/>
			<use style="overflow:visible;fill:#231F20;" xlink:href="#SVGID_3_"/>
			<clipPath id="XMLID_4_">
				<use style="overflow:visible;" xlink:href="#XMLID_3_"/>
			</clipPath>
			<clipPath id="SVGID_4_" class="st7" style="clip-path: url('#XMLID_4_');">
				<use style="overflow:visible;" xlink:href="#SVGID_3_"/>
			</clipPath>
			<path class="st8" d="M898.8,402.6c-5,12.2-4.5,26.1-4.6,39.4c-0.3,22.7,28.3,34.8,21.1,61.3c23.7-4.2,4-40.6,17.1-50&#10;&#9;&#9;&#9;&#9;c21.6-15.5,32.9,19.2,38.3,31.5c16.3-1.7-4.7-89.9-13.4-100.9c-6.4-8-8.8-7.6-11.4-18.2c-2.1-8.2-1.2-26.8-1.6-35.2&#10;&#9;&#9;&#9;&#9;c-0.9-17.3-2.7-18.2-14.4-34.5c-6.2,18.8-1.6,39.4-7.8,58.2C916.4,371.3,905.6,386.1,898.8,402.6z" style="clip-path: url('#SVGID_4_'); fill: rgb(137, 117, 106);"/>
			<path class="st8" d="M435.4,402.6c-27.6,17.1,84.1,66.8,32,82.2c-6.2,1.8-12.9-1.6-18.5-1c-3.4,0.3-11.2,4.3-13.5,3.8&#10;&#9;&#9;&#9;&#9;c-6.8-1.6-12.6-13-14.8-19.7c-2.5-7.9-1.3-16.5,2.4-24.7c2.4-5.4,4.9-4.4,6.2-11c0.8-3.7-1.1-10.3-1.2-14.8&#10;&#9;&#9;&#9;&#9;c-0.1-6.6-1.8-13.7,6.2-14.8H435.4z" style="clip-path: url('#SVGID_4_'); fill: rgb(137, 117, 106);"/>
		</g>
		<path class="st9" d="M577.5,449.7c-0.5-18.3-9-27.3-12.7-44.6c-4.9-23.1,4.5-49.4,4.5-73.7c0-21.7-5.1-43,8.2-61.2&#10;&#9;&#9;&#9;c14.5-19.7,34-23.4,57.4-29.4c43.1-11.1,87.8-22.7,127.8-2.8c43.1,21.4,25,78.4,26.7,117.2c1.7,39.5,1.5,77.3-0.3,117&#10;&#9;&#9;&#9;c-0.7,16.1-4.9,20.7-21,24.9c-13.6,3.6-21.1-0.9-36.4-1.7c-29.4-1.5-60.4,6.7-89.9,2.6c-13.4-1.9-21.1-7.2-34.8-4.6&#10;&#9;&#9;&#9;c-8.1,1.5-24,10.1-31.1,2.6C570.3,489.8,577.7,458.5,577.5,449.7z" style="fill: rgb(68, 56, 46);"/>
		<path class="st10" d="M631,113.6c4.7,15.3,7.6,30.4,12.2,45.3c-12.4-1.9-23.4-14.1-27.2-26.6c-5.2-16.7-1.4-30.3-17-39.7&#10;&#9;&#9;&#9;c8.7-6.9,9.3-7.4,12.8-16.9C613.9,75.1,628.4,105.4,631,113.6z" style="fill: rgb(137, 117, 106);"/>
		<path class="st10" d="M708.5,187.4c7.1-5.1,12.2-13.1,20.8-16c7.5-2.6,13.8-1.4,22.2-7.5c6.5,8.1,12.8,2.6,21,3.8&#10;&#9;&#9;&#9;c7.4,1.1,12.2,10.2,17.1,11.2c4.1,0.8,7.9-3.9,12.3-3.7c5.4,0.3,6.9,2.5,11.3,4.6c7.8,3.8,16.3,7.5,18.1,16&#10;&#9;&#9;&#9;c-20.1,1.3-39.5,0.4-58.9-2.5c-20-3-44,4.7-62.7-2.2L708.5,187.4z" style="fill: rgb(137, 117, 106);"/>
		<path class="st10" d="M499.3,231.6c0.6,11.3-8.4,25.8-3.7,39.7c2.5,7.5,7.7,8.1,8.6,17.7c0.6,5.7-2.3,15.1-3.3,21.3&#10;&#9;&#9;&#9;c-0.6,3.7-5.1,16.8-3.3,19.8c3,5.1,12.5,3.4,17.7,6.9c10.5,7.2,6.5,20.3,18.1,27.2c9.2-18.5,15.1-65.6,12.4-85&#10;&#9;&#9;&#9;c-2-14-18.3-16.4-23.4-29.6c-5.1-13.1-12.5-14-19.7-21.2L499.3,231.6z" style="fill: rgb(137, 117, 106);"/>
		<g>
			<g>
				<path class="st11" d="M601.7,496.6c-17.1-0.5-34.1-0.6-51.2-0.2c-4.5-77.1-9.6-154.2-15.4-231.2c21.2-0.7,42.5-0.8,63.7-0.3&#10;&#9;&#9;&#9;&#9;&#9;C600.5,342.1,601.4,419.4,601.7,496.6z" style="fill: rgb(114, 61, 21);"/>
				<path class="st3" d="M602.5,497.4l-0.8,0c-9.8-0.3-19.8-0.5-29.6-0.5c-7.1,0-14.4,0.1-21.5,0.2l-0.8,0l0-0.8&#10;&#9;&#9;&#9;&#9;&#9;c-4.4-76.8-9.6-154.6-15.3-231.2l-0.1-0.9l0.9,0c12.2-0.4,24.7-0.6,36.9-0.6c8.9,0,18,0.1,26.9,0.3l0.8,0l0,0.8&#10;&#9;&#9;&#9;&#9;&#9;c1.6,76.9,2.5,154.8,2.8,231.7L602.5,497.4z M572.1,495.3c9.6,0,19.2,0.1,28.8,0.4c-0.3-76.3-1.2-153.7-2.8-230.1&#10;&#9;&#9;&#9;&#9;&#9;c-8.6-0.2-17.4-0.3-26-0.3c-12,0-24.1,0.2-36,0.6c5.7,76.1,10.8,153.4,15.2,229.6C558.2,495.4,565.2,495.3,572.1,495.3z" style="fill: rgb(35, 31, 32);"/>
			</g>
			<g>
				
					<linearGradient id="SVGID_5_" gradientUnits="userSpaceOnUse" x1="564.09" y1="322.3563" x2="564.09" y2="481.4758" gradientTransform="matrix(1 0 3.490000e-02 1 -10.885 0)">
					<stop offset="0" style="stop-color:#C1763F"/>
					<stop offset="1" style="stop-color:#764C30"/>
				</linearGradient>
				<path class="st12" d="M597.1,496.6c-17.1-0.5-34.1-0.6-51.2-0.2c-4.5-77.1-9.6-154.2-15.4-231.2c21.2-0.7,42.5-0.8,63.7-0.3&#10;&#9;&#9;&#9;&#9;&#9;C595.9,342.1,596.8,419.4,597.1,496.6z" style="fill: url('#SVGID_5_');"/>
				<path class="st3" d="M597.9,497.4l-0.8,0c-9.8-0.3-19.8-0.5-29.6-0.5c-7.1,0-14.4,0.1-21.5,0.2l-0.8,0l0-0.8&#10;&#9;&#9;&#9;&#9;&#9;c-4.4-76.7-9.6-154.5-15.4-231.2l-0.1-0.9l0.9,0c12.2-0.4,24.7-0.6,36.9-0.6c8.9,0,17.9,0.1,26.9,0.3l0.8,0l0,0.8&#10;&#9;&#9;&#9;&#9;&#9;c1.6,76.9,2.5,154.8,2.8,231.7L597.9,497.4z M567.5,495.3c9.6,0,19.2,0.1,28.8,0.4c-0.3-76.3-1.2-153.7-2.8-230.1&#10;&#9;&#9;&#9;&#9;&#9;c-8.6-0.2-17.4-0.3-26-0.3c-12,0-24.1,0.2-36,0.6c5.7,76.1,10.8,153.4,15.2,229.6C553.6,495.4,560.6,495.3,567.5,495.3z" style="fill: rgb(35, 31, 32);"/>
			</g>
			<path class="st3" d="M572.3,264.9c0,0,0.1,0.2,0.2,0.5c0.1,0.3,0.3,0.8,0.4,1.5c0.1,0.4,0.1,0.7,0.2,1.1c0,0.4,0.1,0.9,0.1,1.3&#10;&#9;&#9;&#9;&#9;c0,1,0,2-0.1,3.2c-0.1,1.1-0.2,2.3-0.3,3.5c-0.1,1.2-0.1,2.4-0.1,3.6c0.1,1.2,0.3,2.5,0.8,3.7c0.5,1.4,1.1,2.7,1.6,4.1&#10;&#9;&#9;&#9;&#9;c0.5,1.4,1.1,2.9,1.5,4.4c0.1,0.8,0.4,1.5,0.4,2.3c0,0.4,0.1,0.8,0.2,1.1c0,0.4,0.1,0.7,0.1,1.1c0.2,1.4,0.4,2.8,0.3,4.1&#10;&#9;&#9;&#9;&#9;c0,1.3-0.2,2.5-0.3,3.6c-0.1,1.1-0.3,2.1-0.4,3c-0.1,0.9-0.2,1.7-0.4,2.3c-0.2,1.3-0.5,2.1-0.5,2.1l-0.3,0c0,0-0.3-0.7-0.6-2&#10;&#9;&#9;&#9;&#9;c-0.2-0.7-0.3-1.5-0.5-2.4c-0.1-0.9-0.1-2-0.1-3.1c0-0.6,0-1.2,0-1.8c0-0.6,0.1-1.2,0.2-1.9c0.2-1.3,0.5-2.6,0.8-4&#10;&#9;&#9;&#9;&#9;c0.1-0.3,0.1-0.7,0.2-1.1c0.1-0.3,0.1-0.7,0.1-1c0.1-0.7-0.1-1.4-0.2-2.1c-0.4-1.4-1.2-2.6-2.1-3.8c-0.5-0.6-0.9-1.2-1.4-1.8&#10;&#9;&#9;&#9;&#9;c-0.5-0.6-0.8-1.2-1.2-1.9c-0.8-1.4-1.3-3-1.6-4.6c-0.2-1.6-0.2-3.1,0.1-4.4c0.2-1.3,0.6-2.5,0.9-3.6c0.3-1.1,0.6-2,0.8-2.9&#10;&#9;&#9;&#9;&#9;c0.2-0.9,0.4-1.6,0.6-2.2c0.2-0.6,0.2-1.1,0.3-1.5c0.1-0.4,0.1-0.5,0.1-0.5L572.3,264.9z" style="fill: rgb(35, 31, 32);"/>
			<path class="st3" d="M559.3,266.3c0,0,0.4,1,0.9,2.7c0.3,0.9,0.5,1.9,0.8,3.1c0.1,0.6,0.3,1.2,0.5,1.9c0.1,0.7,0.2,1.4,0.4,2.2&#10;&#9;&#9;&#9;&#9;c0.2,1.5,0.5,3.2,0.7,4.9c0.2,1.7,0.3,3.6,0.3,5.5c0,0.9,0,1.9,0,2.9c0,1,0,2,0,3c0,2-0.2,4-0.4,6c-0.2,2-0.3,4-0.3,6&#10;&#9;&#9;&#9;&#9;c0,2,0.2,3.9,0.4,5.8c0.3,1.9,0.5,3.7,0.6,5.4c0.1,1.7,0.1,3.4,0,4.9c-0.1,1.5-0.1,2.9-0.2,4.1c-0.1,1.2-0.2,2.3-0.3,3.2&#10;&#9;&#9;&#9;&#9;c-0.2,1.8-0.5,2.8-0.5,2.8l-0.3,0c0,0-0.3-1-0.6-2.8c-0.2-0.9-0.3-1.9-0.5-3.2c-0.2-1.2-0.3-2.6-0.4-4.1&#10;&#9;&#9;&#9;&#9;c-0.1-1.5-0.2-3.1-0.1-4.9c0-1.7,0.3-3.6,0.5-5.4c0.2-1.9,0.4-3.8,0.3-5.8c0-2-0.2-4-0.5-6c-0.3-2-0.6-4-0.7-6&#10;&#9;&#9;&#9;&#9;c-0.1-1-0.2-2-0.2-2.9c-0.1-1-0.2-1.9-0.3-2.8c-0.2-1.9-0.3-3.7-0.3-5.4c-0.1-1.7-0.1-3.3-0.2-4.8c0-1.5,0-2.9-0.1-4.1&#10;&#9;&#9;&#9;&#9;c0-1.2,0-2.3,0-3.2c0-1.8,0.1-2.8,0.1-2.8L559.3,266.3z" style="fill: rgb(35, 31, 32);"/>
			<path class="st3" d="M547.3,266.3c0,0,0,0.2-0.1,0.5c0,0.2,0,0.3-0.1,0.6c0,0.2,0,0.4,0,0.7c0,0.5,0,1.1,0.1,1.9&#10;&#9;&#9;&#9;&#9;c0.1,0.7,0.2,1.5,0.3,2.3c0.2,0.9,0.4,1.8,0.7,2.8c0.2,1,0.5,2,0.8,3.1c0.3,1.1,0.6,2.3,0.9,3.4c0.3,1.2,0.5,2.4,0.8,3.7&#10;&#9;&#9;&#9;&#9;c0.2,1.3,0.5,2.5,0.9,3.7c0.4,1.2,1,2.3,1.6,3.3c0.6,1.1,1.2,2.1,1.5,3.2c0.2,0.5,0.3,1.1,0.4,1.6c0.1,0.5,0.2,1,0.2,1.5&#10;&#9;&#9;&#9;&#9;c0.1,1,0.1,1.9,0,2.7c0,0.4-0.1,0.8-0.2,1.1c-0.1,0.3-0.1,0.7-0.2,0.9c-0.2,0.6-0.4,1-0.5,1.3c-0.1,0.3-0.2,0.4-0.2,0.4l-0.3-0.1&#10;&#9;&#9;&#9;&#9;c0,0,0-0.2-0.1-0.5c0-0.3-0.1-0.7-0.2-1.3c-0.2-1.1-0.5-2.5-0.9-4.3c-0.2-0.9-0.5-1.8-0.7-2.8c-0.2-1-0.3-2.2-0.4-3.3&#10;&#9;&#9;&#9;&#9;c-0.1-1.2-0.4-2.4-0.8-3.5c-0.4-1.2-1-2.3-1.7-3.4c-0.7-1.1-1.3-2.2-1.8-3.3c-0.5-1.1-1-2.3-1.4-3.4c-0.9-2.3-1.2-4.6-1.1-6.7&#10;&#9;&#9;&#9;&#9;c0.1-1,0.2-2,0.4-2.8c0.1-0.2,0.1-0.4,0.2-0.6c0.1-0.2,0.2-0.4,0.2-0.5c0.1-0.3,0.3-0.6,0.4-0.9c0.2-0.3,0.3-0.5,0.4-0.7&#10;&#9;&#9;&#9;&#9;c0.1-0.2,0.3-0.3,0.4-0.4c0.2-0.2,0.3-0.4,0.3-0.4L547.3,266.3z" style="fill: rgb(35, 31, 32);"/>
			<path class="st3" d="M563.1,495.9c0,0-0.2-0.3-0.5-0.9c-0.1-0.3-0.3-0.6-0.4-1c-0.1-0.4-0.3-0.8-0.4-1.2&#10;&#9;&#9;&#9;&#9;c-0.1-0.4-0.3-0.9-0.4-1.4c-0.1-0.5-0.2-1-0.2-1.6c0-0.6,0-1.2,0-1.8c0-0.6,0.1-1.2,0.2-1.9c0.1-0.7,0.2-1.3,0-1.9&#10;&#9;&#9;&#9;&#9;c-0.1-0.6-0.4-1.2-0.7-1.7c-0.3-0.5-0.7-1-0.9-1.6c-0.2-0.5-0.2-1-0.2-1.5c0-1,0.2-1.8,0.4-2.4c0.1-0.3,0.2-0.5,0.3-0.7&#10;&#9;&#9;&#9;&#9;c0.1-0.2,0.1-0.2,0.1-0.2l0.3,0c0,0,0.1,0.1,0.2,0.2c0.1,0.1,0.3,0.3,0.5,0.6c0.4,0.5,0.7,1.2,1,2.1c0.1,0.4,0.3,0.9,0.3,1.5&#10;&#9;&#9;&#9;&#9;c0,0.5-0.1,1.1-0.2,1.7c-0.1,0.6-0.2,1.2,0,1.8c0.1,0.6,0.4,1.2,0.8,1.8c0.3,0.6,0.7,1.2,0.9,1.8c0.2,0.6,0.4,1.2,0.5,1.8&#10;&#9;&#9;&#9;&#9;c0.1,0.6,0.2,1.2,0.2,1.7c0,0.6-0.1,1.1-0.1,1.6c-0.1,0.5-0.2,0.9-0.4,1.3c-0.1,0.4-0.3,0.7-0.4,1c-0.3,0.5-0.5,0.8-0.5,0.8&#10;&#9;&#9;&#9;&#9;L563.1,495.9z" style="fill: rgb(35, 31, 32);"/>
			<path class="st3" d="M562,381.8c0,0,0,0.7-0.2,1.9c0,0.3-0.1,0.6-0.2,1c0,0.4,0,0.7-0.1,1.1c0,0.8-0.2,1.7-0.2,2.7&#10;&#9;&#9;&#9;&#9;c0,0.5,0,1-0.1,1.5c0,0.5,0,1.1,0,1.6c-0.1,1.1,0,2.3,0,3.5c0,1.2,0,2.5,0.1,3.8c0.1,1.3,0.1,2.7,0.1,4.1c0,1.4,0.2,2.8,0.4,4.1&#10;&#9;&#9;&#9;&#9;c0.3,1.3,0.7,2.6,1.2,3.8c0.5,1.2,1,2.4,1.2,3.6c0.3,1.2,0.3,2.3,0.4,3.4c0,0.5,0,1,0,1.5c0,0.5-0.1,0.9-0.1,1.4&#10;&#9;&#9;&#9;&#9;c-0.1,0.9-0.2,1.6-0.4,2.2c-0.3,1.2-0.6,1.9-0.6,1.9l-0.3,0c0,0-0.2-0.7-0.4-1.9c-0.1-0.3-0.1-0.6-0.2-1&#10;&#9;&#9;&#9;&#9;c-0.1-0.4-0.2-0.7-0.2-1.1c-0.1-0.4-0.1-0.8-0.2-1.3c-0.1-0.5-0.2-0.9-0.2-1.4c-0.1-0.5-0.1-1-0.2-1.5c-0.1-0.5-0.2-1.1-0.2-1.7&#10;&#9;&#9;&#9;&#9;c-0.1-1.2-0.1-2.4-0.1-3.7c0-1.3-0.1-2.6-0.4-4c-0.3-1.3-0.7-2.6-1.2-3.9c-0.5-1.3-1-2.6-1.2-4c-0.3-1.3-0.5-2.7-0.7-4.1&#10;&#9;&#9;&#9;&#9;c-0.1-1.3-0.2-2.7,0-3.9c0.1-0.6,0.1-1.2,0.2-1.8c0.1-0.6,0.3-1.1,0.4-1.7c0.2-1,0.7-2,1-2.8c0.3-0.8,0.7-1.5,1.1-2&#10;&#9;&#9;&#9;&#9;c0.7-1,1.1-1.6,1.1-1.6L562,381.8z" style="fill: rgb(35, 31, 32);"/>
			<path class="st3" d="M584.1,496.6c0,0-0.2-0.7-0.5-1.9c-0.1-0.6-0.4-1.3-0.6-2c-0.1-0.2-0.1-0.4-0.2-0.6&#10;&#9;&#9;&#9;&#9;c-0.1-0.2-0.2-0.4-0.2-0.6c-0.2-0.4-0.3-0.9-0.5-1.4c-0.4-1-0.7-2-1.1-3.1c-0.4-1.1-0.7-2.3-1-3.6c-0.3-1.3-0.5-2.7-0.6-4.1&#10;&#9;&#9;&#9;&#9;l0-0.5l0-0.1l0-0.1c0,0,0-0.2,0-0.1l0,0l0,0l0-0.3l0.1-1c0.1-0.7,0.3-1.4,0.4-2.2c0.2-0.7,0.3-1.4,0.5-2.1c0.1-0.7,0.2-1.3,0.2-2&#10;&#9;&#9;&#9;&#9;c0-0.3,0-0.7,0-1c0-0.3-0.1-0.7-0.1-1c-0.1-0.6-0.4-1.2-0.6-1.8c-0.5-1.2-1.1-2.2-1.6-3.4c-0.4-1.1-0.7-2.3-0.9-3.4&#10;&#9;&#9;&#9;&#9;c-0.2-1.1-0.2-2.1-0.1-3.1c0.1-0.9,0.3-1.7,0.6-2.3c0.2-0.3,0.3-0.6,0.4-0.8c0.2-0.2,0.3-0.4,0.4-0.5c0.2-0.3,0.3-0.4,0.3-0.4&#10;&#9;&#9;&#9;&#9;l0.3,0.1c0,0,0,0.2,0,0.5c0,0.2,0,0.4,0,0.6c0,0.2,0,0.5,0,0.8c0,0.6,0.1,1.2,0.2,2c0.2,0.8,0.3,1.6,0.6,2.5&#10;&#9;&#9;&#9;&#9;c0.3,0.9,0.6,2,0.9,3.1c0.3,1.1,0.4,2.4,0.5,3.8c0,0.3,0,0.7,0,1c0,0.4,0,0.7,0,1.1c0,0.3,0,0.7,0,1c0,0.3,0,0.7,0,1&#10;&#9;&#9;&#9;&#9;c0,0.7,0,1.4,0,2.1c0,0.7,0.1,1.4,0.1,2.1c0.1,0.7,0.1,1.3,0.2,2l0.2,1l0,0.3l0,0l0,0c0,0.1,0-0.1,0-0.1l0,0.1l0,0.1l0.1,0.5&#10;&#9;&#9;&#9;&#9;c0.2,0.6,0.3,1.2,0.5,1.9c0.2,0.6,0.4,1.2,0.6,1.8c0.4,1.2,0.8,2.4,1,3.6c0.3,1.2,0.5,2.3,0.6,3.4c0,0.5,0.1,1.1,0.1,1.6&#10;&#9;&#9;&#9;&#9;c0,0.2,0,0.5,0.1,0.7c0,0.2,0,0.5,0,0.7c0,0.5,0,0.9-0.1,1.3c0,0.2,0,0.4,0,0.6c0,0.2-0.1,0.3-0.1,0.5c-0.2,1.2-0.5,1.9-0.5,1.9&#10;&#9;&#9;&#9;&#9;L584.1,496.6z" style="fill: rgb(35, 31, 32);"/>
			<path class="st3" d="M578.7,359.5c0,0,0.1,0.5,0.2,1.4c0,0.2,0,0.5,0,0.7c0,0.2,0.1,0.5,0.1,0.8c0,0.5,0,1.1,0.1,1.8&#10;&#9;&#9;&#9;&#9;c0,0.3,0,0.7,0,1c0,0.4,0,0.7-0.1,1.1c-0.1,0.4-0.1,0.8-0.2,1.2c-0.1,0.4-0.2,0.8-0.3,1.3c-0.2,0.9-0.3,1.8-0.1,2.7&#10;&#9;&#9;&#9;&#9;c0.1,0.9,0.4,1.8,0.8,2.7c0.4,0.9,0.8,1.8,1,2.6c0.2,0.9,0.5,1.8,0.7,2.6c0.2,0.9,0.3,1.7,0.4,2.5c0,0.8,0,1.6,0,2.3&#10;&#9;&#9;&#9;&#9;c-0.1,0.7-0.1,1.4-0.3,2c-0.1,0.6-0.2,1.1-0.4,1.5c-0.3,0.8-0.5,1.3-0.5,1.3l-0.3,0c0,0-0.2-0.5-0.5-1.3&#10;&#9;&#9;&#9;&#9;c-0.1-0.2-0.1-0.4-0.2-0.7c-0.1-0.2-0.2-0.5-0.2-0.8c-0.2-0.5-0.3-1.2-0.5-1.8c-0.3-1.3-0.7-2.9-0.8-4.6&#10;&#9;&#9;&#9;&#9;c-0.1-0.9-0.1-1.8-0.2-2.7c-0.1-0.9,0-1.9,0.1-2.8c0.1-1,0.1-1.9,0-2.8c-0.1-0.9-0.3-1.8-0.6-2.7c-0.3-0.9-0.6-1.7-0.6-2.6&#10;&#9;&#9;&#9;&#9;c-0.1-0.8,0-1.6,0.2-2.4c0.1-0.7,0.3-1.4,0.6-2c0.1-0.3,0.2-0.6,0.3-0.8c0.1-0.2,0.2-0.4,0.4-0.6c0.5-0.7,0.8-1.1,0.8-1.1&#10;&#9;&#9;&#9;&#9;L578.7,359.5z" style="fill: rgb(35, 31, 32);"/>
		</g>
		<g>
			<g>
				<path class="st11" d="M763.8,496.6c17.1-0.5,34.1-0.6,51.2-0.3c5.3-77.1,11.5-154.1,18.5-231.1c-21-0.7-42.1-0.8-63.1-0.4&#10;&#9;&#9;&#9;&#9;&#9;C767.3,342.1,765.1,419.3,763.8,496.6z" style="fill: rgb(114, 61, 21);"/>
				<path class="st3" d="M762.9,497.4l0-0.9c1.3-76.9,3.6-154.9,6.6-231.8l0-0.8l0.8,0c8.2-0.2,16.5-0.2,24.6-0.2&#10;&#9;&#9;&#9;&#9;&#9;c12.8,0,25.7,0.2,38.5,0.6l0.9,0l-0.1,0.9c-7,76.7-13.3,154.4-18.5,231.1l-0.1,0.8l-0.8,0c-6.6-0.1-13.3-0.2-19.9-0.2&#10;&#9;&#9;&#9;&#9;&#9;c-10.4,0-20.8,0.2-31.2,0.5L762.9,497.4z M771.2,265.6c-3,76.3-5.3,153.8-6.6,230.1c10.1-0.3,20.3-0.5,30.4-0.5&#10;&#9;&#9;&#9;&#9;&#9;c6.4,0,12.8,0.1,19.2,0.2c5.2-76.2,11.4-153.4,18.4-229.5c-12.5-0.4-25.1-0.6-37.6-0.6C787.1,265.4,779.1,265.5,771.2,265.6z" style="fill: rgb(35, 31, 32);"/>
			</g>
			<g>
				
					<linearGradient id="SVGID_6_" gradientUnits="userSpaceOnUse" x1="944.9297" y1="322.3373" x2="944.9297" y2="481.4741" gradientTransform="matrix(-1 0 -4.870000e-02 1 1764.3871 0)">
					<stop offset="0" style="stop-color:#C1763F"/>
					<stop offset="1" style="stop-color:#764C30"/>
				</linearGradient>
				<path class="st13" d="M768.4,496.6c17.1-0.5,34.1-0.6,51.2-0.3c5.3-77.1,11.5-154.1,18.5-231.1c-21-0.7-42.1-0.8-63.1-0.4&#10;&#9;&#9;&#9;&#9;&#9;C771.9,342.1,769.7,419.3,768.4,496.6z" style="fill: url('#SVGID_6_');"/>
				<path class="st3" d="M767.5,497.4l0-0.9c1.3-76.9,3.6-154.9,6.6-231.8l0-0.8l0.8,0c8.2-0.2,16.5-0.2,24.6-0.2&#10;&#9;&#9;&#9;&#9;&#9;c12.8,0,25.7,0.2,38.5,0.6l0.9,0l-0.1,0.9c-7,76.7-13.3,154.4-18.5,231.1l-0.1,0.8l-0.8,0c-6.6-0.1-13.3-0.2-19.9-0.2&#10;&#9;&#9;&#9;&#9;&#9;c-10.4,0-20.8,0.2-31.2,0.5L767.5,497.4z M775.8,265.6c-3,76.3-5.3,153.8-6.6,230.1c10.1-0.3,20.3-0.5,30.4-0.5&#10;&#9;&#9;&#9;&#9;&#9;c6.4,0,12.8,0.1,19.2,0.2c5.2-76.2,11.4-153.4,18.4-229.5c-12.5-0.4-25.1-0.6-37.6-0.6C791.7,265.4,783.7,265.5,775.8,265.6z" style="fill: rgb(35, 31, 32);"/>
			</g>
			<path class="st3" d="M791.1,264.5c0,0-0.2,0.9-0.6,2.5c-0.1,0.4-0.2,0.8-0.4,1.3c-0.1,0.5-0.2,1-0.3,1.5&#10;&#9;&#9;&#9;&#9;c-0.1,0.5-0.2,1.1-0.4,1.7c-0.1,0.6-0.2,1.2-0.3,1.9c-0.1,0.6-0.2,1.3-0.3,2c-0.1,0.7-0.2,1.4-0.2,2.2c-0.1,0.4-0.1,0.7-0.2,1.1&#10;&#9;&#9;&#9;&#9;c0,0.4-0.1,0.8-0.1,1.2c-0.1,0.8-0.2,1.6-0.3,2.4c-0.1,1.7-0.3,3.4-0.4,5.1c-0.1,1.8-0.3,3.6-0.5,5.4c-0.2,1.8-0.3,3.6-0.2,5.4&#10;&#9;&#9;&#9;&#9;c0,1.8,0.2,3.5,0.5,5.2c0.2,1.7,0.5,3.4,0.5,5c0,0.8,0,1.6-0.1,2.3c-0.1,0.7-0.2,1.5-0.3,2.1c-0.1,0.7-0.2,1.3-0.3,2&#10;&#9;&#9;&#9;&#9;c-0.2,0.6-0.3,1.2-0.5,1.7c-0.3,1.1-0.6,2-1,2.8c-0.6,1.5-1.1,2.3-1.1,2.3l-0.3-0.1c0,0,0-1,0.1-2.5c0-0.4,0.1-0.8,0.1-1.3&#10;&#9;&#9;&#9;&#9;c0-0.5,0-1,0.1-1.5c0-0.5,0.1-1.1,0.1-1.7c0-0.6,0-1.2,0.1-1.9c0-0.7,0.1-1.4,0.1-2.1c0-0.7,0.1-1.5,0.1-2.2&#10;&#9;&#9;&#9;&#9;c0.2-1.5,0.4-3.1,0.7-4.8c0.2-1.7,0.4-3.4,0.3-5.2c-0.1-1.8-0.3-3.6-0.6-5.4c-0.2-1.8-0.6-3.6-0.6-5.4c-0.1-1.8-0.1-3.6-0.1-5.3&#10;&#9;&#9;&#9;&#9;c0-0.9,0.1-1.7,0.2-2.6c0-0.4,0.1-0.8,0.1-1.2c0.1-0.4,0.2-0.8,0.2-1.2c0.2-0.8,0.3-1.6,0.5-2.3c0.2-0.7,0.5-1.4,0.7-2.1&#10;&#9;&#9;&#9;&#9;c0.2-0.7,0.4-1.3,0.7-1.9c0.3-0.6,0.5-1.2,0.8-1.7c0.2-0.5,0.5-1,0.7-1.4c0.3-0.4,0.5-0.8,0.7-1.1c0.9-1.3,1.5-2.1,1.5-2.1&#10;&#9;&#9;&#9;&#9;L791.1,264.5z" style="fill: rgb(35, 31, 32);"/>
			<path class="st3" d="M799.5,283.1c0,0,0,0.2-0.1,0.7c0,0.2-0.1,0.5-0.2,0.8c0,0.2-0.1,0.3-0.1,0.5c0,0.2,0,0.4-0.1,0.6&#10;&#9;&#9;&#9;&#9;c-0.1,0.4-0.1,0.9-0.2,1.3c0,0.5-0.1,1-0.1,1.6c0,0.6,0,1.2,0,1.8c0,0.6,0.1,1.3,0.1,2c0.1,1.4,0.3,2.9,0.6,4.5&#10;&#9;&#9;&#9;&#9;c0.3,1.6,0.6,3.3,1,5c0.4,1.8,0.8,3.6,1.2,5.5c0.4,1.9,0.7,3.9,0.8,5.9c0.1,1,0.2,2,0.3,2.9c0.2,1,0.3,1.9,0.4,2.9&#10;&#9;&#9;&#9;&#9;c0.1,1,0.3,1.9,0.4,2.9c0.1,0.9,0.3,1.9,0.5,2.8c0.1,0.5,0.2,0.9,0.2,1.4c0,0.5,0.1,0.9,0.1,1.4c0.1,0.9,0.2,1.8,0.1,2.7&#10;&#9;&#9;&#9;&#9;c-0.1,0.9-0.2,1.7-0.3,2.5c-0.1,0.8-0.4,1.6-0.5,2.3c-0.2,0.7-0.4,1.4-0.6,2.1c-0.2,0.6-0.5,1.2-0.8,1.8&#10;&#9;&#9;&#9;&#9;c-0.2,0.6-0.5,1.1-0.7,1.6c-0.2,0.5-0.5,0.9-0.8,1.3c-0.9,1.5-1.6,2.3-1.6,2.3l-0.3-0.1c0,0,0.2-1,0.6-2.7&#10;&#9;&#9;&#9;&#9;c0.1-0.4,0.2-0.9,0.4-1.4c0.1-0.5,0.2-1,0.3-1.6c0.1-0.6,0.2-1.2,0.4-1.8c0.1-0.6,0.2-1.3,0.3-2c0.1-0.3,0.1-0.7,0.2-1.1&#10;&#9;&#9;&#9;&#9;c0.1-0.4,0.1-0.7,0.2-1.1c0.1-0.8,0.2-1.5,0.3-2.3c0.2-0.8,0.2-1.6,0.4-2.5c0.1-0.9,0.3-1.7,0.4-2.6c0.1-0.9,0.1-1.8,0.1-2.8&#10;&#9;&#9;&#9;&#9;c0-0.9-0.1-1.9-0.3-2.8c-0.1-0.5-0.1-0.9-0.2-1.4c-0.1-0.5-0.2-0.9-0.4-1.4c-0.3-0.9-0.6-1.9-0.9-2.8c-0.6-1.8-1.3-3.7-1.9-5.5&#10;&#9;&#9;&#9;&#9;c-0.6-1.8-1.2-3.6-1.7-5.4c-0.5-1.8-0.9-3.6-1.1-5.3c-0.1-0.9-0.1-1.7-0.2-2.6c0-0.8,0-1.6,0-2.4c0.1-0.8,0.2-1.5,0.3-2.2&#10;&#9;&#9;&#9;&#9;c0.1-0.7,0.3-1.4,0.4-2c0.2-0.6,0.4-1.2,0.6-1.7c0.2-0.5,0.4-1,0.6-1.4c0.2-0.4,0.4-0.8,0.6-1c0.2-0.3,0.3-0.5,0.5-0.7&#10;&#9;&#9;&#9;&#9;c0.3-0.4,0.4-0.6,0.4-0.6L799.5,283.1z" style="fill: rgb(35, 31, 32);"/>
			<path class="st3" d="M822.6,281.1c0,0-0.3-0.2-0.6-0.6c-0.2-0.2-0.3-0.4-0.5-0.7c-0.2-0.3-0.3-0.6-0.5-1&#10;&#9;&#9;&#9;&#9;c-0.3-0.7-0.6-1.6-0.5-2.5c0-0.5,0.1-1,0.1-1.5c0.1-0.5,0.2-1,0.5-1.5c0.2-0.5,0.4-1,0.4-1.5c0-0.5-0.1-1-0.3-1.5&#10;&#9;&#9;&#9;&#9;c-0.2-0.5-0.5-1-0.5-1.4c0-0.5,0.1-0.9,0.2-1.3c0.2-0.8,0.7-1.3,1-1.7c0.2-0.2,0.3-0.3,0.5-0.4c0.1-0.1,0.2-0.1,0.2-0.1l0.3,0.1&#10;&#9;&#9;&#9;&#9;c0,0,0,0.1,0.1,0.2c0.1,0.1,0.2,0.3,0.3,0.6c0.2,0.5,0.3,1.1,0.4,1.8c0,0.4,0,0.7-0.1,1.1c-0.1,0.4-0.4,0.8-0.6,1.2&#10;&#9;&#9;&#9;&#9;c-0.2,0.4-0.5,0.9-0.4,1.4c0,0.5,0.2,1,0.4,1.4c0.3,0.5,0.5,0.9,0.7,1.4c0.1,0.5,0.3,0.9,0.4,1.4c0.2,0.9,0.2,1.8,0,2.5&#10;&#9;&#9;&#9;&#9;c-0.1,0.4-0.2,0.7-0.3,1c-0.1,0.3-0.2,0.6-0.3,0.8c-0.2,0.5-0.4,0.7-0.4,0.7L822.6,281.1z" style="fill: rgb(35, 31, 32);"/>
			<path class="st3" d="M787.4,356.9c0,0,0.2,0.4,0.3,1c0.1,0.3,0.1,0.7,0.2,1.1c0.1,0.4,0.1,0.9,0.1,1.4c0,1,0,2.1-0.3,3.3&#10;&#9;&#9;&#9;&#9;c-0.2,0.6-0.3,1.2-0.5,1.8c-0.2,0.6-0.5,1.2-0.7,1.8c-0.3,0.6-0.5,1.3-0.5,1.9c0,0.3,0,0.6,0.1,0.9c0.1,0.3,0.2,0.6,0.3,0.9&#10;&#9;&#9;&#9;&#9;c0.2,0.6,0.6,1.1,0.7,1.7c0.1,0.5,0.1,1,0.1,1.5c0,0.5,0,0.9,0,1.3c0,0.4-0.1,0.8-0.1,1c-0.1,0.6-0.2,1-0.2,1l-0.3,0.1&#10;&#9;&#9;&#9;&#9;c0,0-0.3-0.2-0.8-0.7c-0.2-0.2-0.4-0.6-0.7-0.9c-0.2-0.4-0.4-0.8-0.6-1.3c-0.2-0.5-0.3-1.1-0.3-1.7c0-0.6,0.2-1.2,0.5-1.9&#10;&#9;&#9;&#9;&#9;c0.2-0.6,0.4-1.3,0.4-1.9c0-0.7-0.1-1.3-0.3-2c-0.2-0.7-0.3-1.4-0.4-2c0-0.7,0-1.3,0-2c0-0.6,0.1-1.2,0.3-1.8&#10;&#9;&#9;&#9;&#9;c0.2-0.6,0.3-1.1,0.6-1.5c0.2-0.5,0.4-0.9,0.7-1.3c0.2-0.4,0.4-0.7,0.6-0.9c0.4-0.5,0.7-0.8,0.7-0.8L787.4,356.9z" style="fill: rgb(35, 31, 32);"/>
			<path class="st3" d="M798.8,384.5c0,0,0,0.2,0,0.5c0,0.3-0.1,0.8-0.2,1.3c0,0.3-0.1,0.6-0.1,0.9c0,0.3,0,0.7-0.1,1.1&#10;&#9;&#9;&#9;&#9;c0,0.8-0.1,1.6-0.1,2.5c0,0.9,0,1.9,0.1,3c0.1,1.1,0.1,2.2,0.2,3.4c0.1,1.2,0.1,2.5,0.2,3.7c0.1,1.3,0,2.6-0.1,4&#10;&#9;&#9;&#9;&#9;c-0.1,1.3-0.1,2.6,0,3.9c0.1,1.3,0.3,2.5,0.6,3.8c0.3,1.2,0.6,2.4,0.6,3.6c0.1,1.1,0,2.2-0.1,3.2c-0.1,1-0.2,1.9-0.4,2.7&#10;&#9;&#9;&#9;&#9;c-0.2,0.8-0.4,1.5-0.5,2c-0.3,1.1-0.6,1.8-0.6,1.8l-0.3,0c0,0-0.2-0.7-0.4-1.8c-0.1-0.6-0.2-1.3-0.3-2.1&#10;&#9;&#9;&#9;&#9;c-0.1-0.8-0.1-1.7-0.2-2.7c0-1-0.1-2,0-3.1c0.1-1.1,0.3-2.2,0.5-3.5c0.1-0.6,0.2-1.2,0.2-1.9c0.1-0.6,0-1.3-0.1-1.9&#10;&#9;&#9;&#9;&#9;c-0.1-1.3-0.4-2.6-0.8-3.8c-0.3-1.3-0.8-2.5-1-3.8c-0.3-1.3-0.5-2.5-0.7-3.8c-0.2-1.2-0.3-2.5-0.2-3.7c0-0.6,0.1-1.2,0.1-1.7&#10;&#9;&#9;&#9;&#9;c0.1-0.6,0.2-1.1,0.3-1.6c0.2-1,0.5-1.9,0.9-2.7c0.3-0.8,0.7-1.4,1-2c0.3-0.5,0.6-0.9,0.8-1.1c0.2-0.2,0.3-0.4,0.3-0.4&#10;&#9;&#9;&#9;&#9;L798.8,384.5z" style="fill: rgb(35, 31, 32);"/>
			<path class="st3" d="M809.3,494.7c0,0-0.2-0.7-0.3-1.8c-0.1-0.6-0.2-1.2-0.2-2c-0.1-0.8-0.1-1.7-0.2-2.6c-0.1-0.9-0.1-1.9-0.1-3&#10;&#9;&#9;&#9;&#9;c0-1.1-0.1-2.2,0-3.3c0-1.2,0.1-2.4,0.1-3.6c0-1.2,0.1-2.5,0.2-3.8c0.1-1.3,0.1-2.5-0.1-3.8c-0.1-1.2-0.5-2.4-0.9-3.6&#10;&#9;&#9;&#9;&#9;c-0.4-1.2-0.8-2.3-0.9-3.4c-0.2-1.1-0.1-2.2,0-3.2c0.1-1,0.3-1.9,0.6-2.7c0.3-0.8,0.5-1.4,0.8-2c0.3-0.5,0.6-0.9,0.7-1.2&#10;&#9;&#9;&#9;&#9;c0.2-0.3,0.3-0.4,0.3-0.4l0.3,0.1c0,0,0,0.2,0,0.5c0,0.3,0,0.7,0,1.3c0,0.3,0,0.6,0,0.9c0,0.3,0,0.7,0,1.1c0,0.7,0,1.6,0,2.5&#10;&#9;&#9;&#9;&#9;c0,0.5,0,0.9,0,1.4c0,0.5,0,1,0,1.5c0,1-0.1,2.2-0.2,3.4c-0.1,1.2-0.1,2.4,0.1,3.7c0.2,1.2,0.5,2.5,0.9,3.7&#10;&#9;&#9;&#9;&#9;c0.3,1.2,0.7,2.5,0.9,3.8c0.3,1.3,0.3,2.5,0.4,3.7c0.1,0.6,0.1,1.2,0.1,1.8c0,0.3,0,0.6,0,0.9c0,0.3,0,0.6-0.1,0.8&#10;&#9;&#9;&#9;&#9;c-0.1,1.1-0.2,2.2-0.4,3.1c-0.1,0.5-0.2,0.9-0.2,1.4c-0.1,0.4-0.2,0.8-0.3,1.2c-0.2,0.8-0.4,1.4-0.6,2c-0.4,1.1-0.6,1.7-0.6,1.7&#10;&#9;&#9;&#9;&#9;L809.3,494.7z" style="fill: rgb(35, 31, 32);"/>
			<path class="st3" d="M786.7,494.8C786.7,494.8,786.6,494.8,786.7,494.8c-0.2-0.1-0.2-0.1-0.4-0.3c-0.2-0.3-0.5-0.7-0.6-1.2&#10;&#9;&#9;&#9;&#9;c-0.2-0.5-0.3-1.2-0.4-1.9c-0.1-0.7-0.1-1.6-0.1-2.4c0.1-1.8,0.3-3.8,0.9-5.8c0.3-1,0.6-2.1,1-3.1c0.3-1.1,0.8-2.1,1.2-3.1&#10;&#9;&#9;&#9;&#9;c0.2-0.5,0.4-1.1,0.4-1.5c0-0.3,0.1-0.6,0.1-0.8c0-0.3,0-0.5,0-0.8c-0.1-1.1-0.4-2.1-0.9-3.1c-0.5-1-1-1.9-1.3-2.8&#10;&#9;&#9;&#9;&#9;c-0.3-0.9-0.5-1.9-0.5-2.8c-0.1-0.9,0-1.7,0-2.5c0.1-0.7,0.3-1.4,0.5-1.9c0.2-0.5,0.4-0.9,0.5-1.1c0.1-0.2,0.2-0.4,0.2-0.4&#10;&#9;&#9;&#9;&#9;l0.3,0.1c0,0,0,0.2,0.1,0.4c0.1,0.3,0.1,0.7,0.2,1.1c0.1,0.5,0.2,1,0.3,1.7c0.2,0.6,0.3,1.3,0.5,2.1c0.2,0.8,0.4,1.6,0.6,2.5&#10;&#9;&#9;&#9;&#9;c0.2,0.9,0.2,2,0.2,3.1c0,1.1,0,2.2,0.2,3.4c0.1,0.6,0.1,1.1,0.2,1.7l0,0.2l0,0.1l0,0c0,0,0,0.1,0,0.1l0,0l0,0.1l0,0.4l0,0.9&#10;&#9;&#9;&#9;&#9;c0,1.2,0.1,2.4-0.1,3.5c-0.1,1.1-0.3,2.2-0.5,3.3c-0.3,2.1-0.9,3.9-1.4,5.5c-0.2,0.8-0.5,1.5-0.7,2.1c-0.2,0.6-0.4,1.2-0.5,1.6&#10;&#9;&#9;&#9;&#9;c-0.1,0.4-0.1,0.8-0.1,1c0,0.1,0,0.2,0,0.3c0,0.1,0,0.1,0,0.1L786.7,494.8z" style="fill: rgb(35, 31, 32);"/>
		</g>
		<g>
			<path class="st14" d="M408.4,464.1c3.4-1.4,9.3-0.7,13.5-2.1c5.6-1.9,8.3-6.3,14.8-6.5c8.5-0.3,21.3,3.7,28.6,5.3&#10;&#9;&#9;&#9;&#9;c14.2,3,16.8,7,23.1,20.7c2.4,5.2,1.7,8.3,7.3,12c4.4,2.9,9-0.4,13.3,4.3c9.8,10.6-3.1,11.9-12.1,13.2c-18.2,2.7-44.5,5-61.8,0.3&#10;&#9;&#9;&#9;&#9;c-11.6-3.1-11.3-6.9-24-4.9C383.1,510.6,389.3,471.9,408.4,464.1z" style="fill: rgb(192, 172, 148);"/>
			<path class="st3" d="M460.2,515.9c-10.3,0-18.9-0.9-25.7-2.8c-4.1-1.1-6.8-2.3-9-3.3c-2.9-1.3-4.8-2.1-8.5-2.1&#10;&#9;&#9;&#9;&#9;c-1.6,0-3.5,0.2-5.8,0.5c-11.2,1.7-19-3.1-20.9-12.8c-2.3-11.5,4.6-28.2,17.1-33.3c2-0.8,4.5-1,7.1-1.2c2.3-0.2,4.7-0.3,6.6-1&#10;&#9;&#9;&#9;&#9;c2-0.7,3.5-1.7,5.2-2.8c2.8-1.8,5.7-3.7,10.1-3.8c6.6-0.2,15.5,2,22.6,3.8c2.4,0.6,4.6,1.1,6.5,1.5c15.2,3.2,18.2,8.1,24.6,21.8&#10;&#9;&#9;&#9;&#9;c0.7,1.6,1.2,3,1.6,4.2c1,2.9,1.5,4.7,5,6.9c1.4,1,3,1,4.8,1.1c2.6,0.1,5.9,0.3,8.8,3.5c3.5,3.8,4.7,6.9,3.7,9.7&#10;&#9;&#9;&#9;&#9;c-1.7,4.7-9.2,5.8-15.8,6.8l-1.2,0.2C487.8,514.3,473.9,515.9,460.2,515.9z M417.1,503.7c4.5,0,7.1,1.2,10.1,2.5&#10;&#9;&#9;&#9;&#9;c2.2,1,4.6,2,8.4,3c6.4,1.7,14.7,2.6,24.6,2.6c13.4,0,27.1-1.6,36.3-3l1.2-0.2c4.4-0.6,11.7-1.7,12.5-4.1&#10;&#9;&#9;&#9;&#9;c0.4-1.1-0.6-3.1-2.9-5.5c-1.8-2-3.7-2.1-6-2.2c-2.1-0.1-4.5-0.2-6.9-1.8c-4.7-3.1-5.6-6-6.6-9.1c-0.4-1.2-0.8-2.4-1.4-3.8&#10;&#9;&#9;&#9;&#9;c-6.1-13.2-8.2-16.7-21.7-19.5c-1.9-0.4-4.2-1-6.6-1.6c-6.8-1.7-15.4-3.8-21.5-3.6c-3.3,0.1-5.5,1.5-8,3.2&#10;&#9;&#9;&#9;&#9;c-1.8,1.2-3.7,2.4-6.2,3.2c-2.4,0.8-5,1-7.6,1.2c-2.3,0.2-4.4,0.3-5.8,0.9c-10.6,4.3-16.6,19-14.7,28.7c0.9,4.5,3.8,9.9,12.5,9.9&#10;&#9;&#9;&#9;&#9;c1.2,0,2.5-0.1,3.8-0.3C413.2,503.9,415.3,503.7,417.1,503.7z" style="fill: rgb(35, 31, 32);"/>
		</g>
		<g>
			<path class="st14" d="M517.8,500.9c6.6,2.2,24.5,16.4,20.7,23.6c-4.3,8.1-25.8,4.7-31.7,0.2c-6.2-4.7-7.2-5.1-2.8-12.6&#10;&#9;&#9;&#9;&#9;C504.9,510.7,516.8,500.6,517.8,500.9z" style="fill: rgb(192, 172, 148);"/>
			<path class="st3" d="M525.6,531.4c-7.6,0-16.2-2.2-20-5.1l-0.6-0.5c-6.6-5-7.5-6.7-2.7-14.8c0.8-1.4,5.7-5.5,7.1-6.7&#10;&#9;&#9;&#9;&#9;c6.7-5.6,7.6-5.6,8.3-5.6h0.3l0.4,0.1c5.5,1.8,18.5,11.4,21.8,19.6c1,2.6,1,4.9,0,6.9C538.2,529.4,533.2,531.4,525.6,531.4z&#10;&#9;&#9;&#9;&#9; M517.9,503.1c-2.5,1.5-11.1,8.8-12.1,10.1c-1.6,2.6-2.6,4.6-2.4,5.6c0.2,0.9,1.8,2.1,4.1,3.8l0.6,0.5c2.7,2,10.1,4.2,17.5,4.2&#10;&#9;&#9;&#9;&#9;c5.7,0,9.8-1.4,11.1-3.8c0.4-0.8,0.4-2-0.2-3.4C533.9,513.7,522.9,505.2,517.9,503.1z" style="fill: rgb(35, 31, 32);"/>
		</g>
		<g>
			<path class="st14" d="M838.9,485c2.6-8.4,2.2-17.9,5.8-25.8c5-11.1,16.7-12,25-20.8c17.3,7.2,58.1,41.2,41.8,61.7&#10;&#9;&#9;&#9;&#9;c-3.5,4.4-13.2,10.5-18.4,11.8c-9.6,2.4-14.5-3.6-23.4-2.6c-3.4,0.4-6,4.6-9.8,5.3c-3.8,0.7-6.6-0.8-9.8-1.2&#10;&#9;&#9;&#9;&#9;c-6-0.7-14.6,0.9-17.4-4.4C829.7,503.7,837.3,490.1,838.9,485z" style="fill: rgb(192, 172, 148);"/>
			<path class="st3" d="M857.8,516.8c-1.9,0-3.6-0.4-5.2-0.8c-1-0.3-2-0.5-3-0.6c-1.4-0.2-3-0.2-4.7-0.2c-5.4-0.1-11.6-0.2-14.3-5.3&#10;&#9;&#9;&#9;&#9;c-2.5-4.7,1.2-13.4,4.2-20.4c0.9-2.1,1.7-3.9,2-5.1c1.1-3.5,1.7-7.3,2.2-11c0.8-5.1,1.5-10.3,3.7-15c3.2-7.1,8.9-10.4,14.5-13.5&#10;&#9;&#9;&#9;&#9;c3.8-2.1,7.6-4.4,10.8-7.8l1-1l1.3,0.5c12.9,5.3,40.8,26.6,46,46.6c1.8,7,0.7,13.2-3.4,18.3c-3.7,4.6-13.7,11-19.6,12.5&#10;&#9;&#9;&#9;&#9;c-1.7,0.4-3.3,0.6-4.9,0.6c-3.4,0-6.2-0.9-9-1.7c-2.6-0.8-5-1.5-7.8-1.5c-0.6,0-1.3,0-1.9,0.1c-1.1,0.1-2.4,1.1-3.7,2.1&#10;&#9;&#9;&#9;&#9;c-1.7,1.3-3.6,2.7-6,3.1C859.4,516.7,858.6,516.8,857.8,516.8z M870.1,440.9c-3.4,3.3-7.1,5.5-10.8,7.5&#10;&#9;&#9;&#9;&#9;c-5.4,3.1-10.1,5.8-12.8,11.7c-1.9,4.2-2.6,8.9-3.4,13.9c-0.6,3.8-1.2,7.8-2.3,11.6c-0.4,1.4-1.2,3.3-2.2,5.5&#10;&#9;&#9;&#9;&#9;c-2.2,5.2-5.9,13.9-4.4,16.9c1.5,2.9,6.2,3,10.8,3.1c1.7,0,3.5,0.1,5.1,0.3c1.2,0.1,2.4,0.4,3.5,0.7c1.4,0.4,2.8,0.7,4.2,0.7&#10;&#9;&#9;&#9;&#9;c0.5,0,1,0,1.6-0.1c1.4-0.3,2.8-1.3,4.2-2.4c1.7-1.3,3.5-2.7,5.7-2.9c0.8-0.1,1.6-0.1,2.4-0.1c3.4,0,6.3,0.9,9,1.7&#10;&#9;&#9;&#9;&#9;c2.6,0.8,5,1.5,7.8,1.5c1.3,0,2.6-0.2,3.9-0.5c5-1.2,14.2-7.1,17.3-11c3.2-4.1,4.1-9,2.6-14.7&#10;&#9;&#9;&#9;&#9;C907.9,466.8,883.2,446.9,870.1,440.9z" style="fill: rgb(35, 31, 32);"/>
		</g>
		<g>
			<path class="st14" d="M970.5,490.3c1.3-14.3-9.2-43.8-27.1-40.6c-22.1,3.9-12.2,18.5-13.5,31.7c-1.4,14-17.3,21.1-19.5,34.2&#10;&#9;&#9;&#9;&#9;c-1.3,7.5,31.1,5.6,35.6,3.5C954.8,514.8,969.5,500.6,970.5,490.3z" style="fill: rgb(192, 172, 148);"/>
			<path class="st3" d="M928.3,523c-10.3,0-16.7-1.4-19-4.2c-0.9-1.1-1.2-2.3-1-3.6c1.2-6.9,5.7-12.1,10-17.1&#10;&#9;&#9;&#9;&#9;c4.5-5.3,8.8-10.3,9.5-17c0.3-3.3-0.1-6.7-0.5-10.1c-1.2-9.5-2.5-20.2,15.7-23.4c1-0.2,2-0.3,3-0.3c5.2,0,10.1,2.4,14.4,7.1&#10;&#9;&#9;&#9;&#9;c8.6,9.5,13,26,12.1,35.9c-1,11-16,25.8-25.7,30.5C944.1,522.2,935.3,523,928.3,523z M946.1,451.5c-0.8,0-1.5,0.1-2.3,0.2&#10;&#9;&#9;&#9;&#9;c-14.3,2.6-13.5,9.4-12.3,18.9c0.4,3.6,0.9,7.3,0.5,11c-0.8,7.9-5.7,13.7-10.5,19.2c-4.2,4.8-8.1,9.4-9.1,15.1&#10;&#9;&#9;&#9;&#9;c0,0.1,0,0.1,0.1,0.3c1,1.2,5.8,2.7,15.8,2.7c8.2,0,15.3-1,16.8-1.7c8.6-4.1,22.5-17.9,23.3-27.1c0.8-9.1-3.4-24.5-11-32.8&#10;&#9;&#9;&#9;&#9;C953.9,453.4,950.1,451.5,946.1,451.5z" style="fill: rgb(35, 31, 32);"/>
		</g>
		<g>
			<path class="st14" d="M862.2,539.2c3.7,5.6,8.8,3,13.8,2.8c5.7-0.3,28.6-1.3,30.6-7.7c3-9.7-12.9-12.9-18.5-13.6&#10;&#9;&#9;&#9;&#9;C879.8,519.8,854.1,527,862.2,539.2z" style="fill: rgb(192, 172, 148);"/>
			<path class="st3" d="M868.7,544.8L868.7,544.8c-3.5,0-6.2-1.5-8.2-4.5c-2.8-4.2-2-7.8-0.8-10c4.2-7.8,19.4-11.7,26.7-11.7&#10;&#9;&#9;&#9;&#9;c0.7,0,1.3,0,1.9,0.1c3.5,0.4,15.1,2.2,19.3,8.5c1.5,2.3,1.8,4.9,1,7.7c-0.6,1.9-2.4,7.8-32.4,9.1c-1,0-2.1,0.2-3.2,0.4&#10;&#9;&#9;&#9;&#9;C871.5,544.6,870.1,544.8,868.7,544.8z M886.4,522.7c-7.2,0-20.1,4-23.1,9.6c-1,1.8-0.8,3.7,0.6,5.8c1.5,2.3,3.2,2.7,4.8,2.7&#10;&#9;&#9;&#9;&#9;c1.1,0,2.3-0.2,3.6-0.4c1.2-0.2,2.4-0.4,3.7-0.4c26.4-1.2,28.5-5.7,28.7-6.2c0.5-1.6,0.3-2.9-0.5-4.2c-2.7-4.1-11.5-6.1-16.3-6.7&#10;&#9;&#9;&#9;&#9;C887.4,522.7,886.9,522.7,886.4,522.7z" style="fill: rgb(35, 31, 32);"/>
		</g>
		<g>
			<path class="st10" d="M452,539.7c6.4,1.1,28.4,1.9,32.2-3.4C494.1,522.9,453.6,521.6,452,539.7z" style="fill: rgb(137, 117, 106);"/>
			<path class="st3" d="M464.5,542.5C464.5,542.5,464.5,542.5,464.5,542.5c-5.5,0-10.5-0.4-12.9-0.8l-1.9-0.3l0.2-1.9&#10;&#9;&#9;&#9;&#9;c0.9-10.1,12.5-15.4,23.4-15.4c6.9,0,12.1,2.1,13.9,5.5c0.8,1.7,1.3,4.4-1.3,7.9C483.4,540.9,476.3,542.5,464.5,542.5z&#10;&#9;&#9;&#9;&#9; M454.4,537.9c2.5,0.3,6.1,0.5,10.1,0.5c0,0,0,0,0,0c11.5,0,16.9-1.8,18-3.3c1.1-1.5,1.4-2.7,0.9-3.6c-1-1.9-5.2-3.3-10.2-3.3&#10;&#9;&#9;&#9;&#9;C466.6,528.2,456.5,530.9,454.4,537.9z" style="fill: rgb(35, 31, 32);"/>
		</g>
		<path class="st3" d="M501.1,453.8c-1.6,0-3-0.4-4.2-1.1c-2.8-1.9-3.3-5.5-3.9-9c-0.3-2.3-0.7-4.8-1.7-6.5c-2.7-4.7-5.1-6.6-8.2-9&#10;&#9;&#9;&#9;c-1.6-1.2-3.3-2.6-5.3-4.4c-4.2-4-7.2-10.9-10.3-18.1c-4.3-9.9-8.6-20.1-15.7-19.8l-0.2-4.1c9.9-0.5,14.9,11.1,19.7,22.3&#10;&#9;&#9;&#9;c2.8,6.6,5.7,13.3,9.4,16.8c1.8,1.7,3.4,3,5,4.2c3.3,2.6,6.2,4.8,9.3,10.2c1.4,2.4,1.8,5.4,2.2,8c0.4,2.7,0.8,5.3,2.1,6.2&#10;&#9;&#9;&#9;c0.9,0.6,2.4,0.6,4.5,0.1l1,4C503.4,453.7,502.2,453.8,501.1,453.8z" style="fill: rgb(35, 31, 32);"/>
		<path class="st3" d="M513.4,418.9c-5.6-1.7-9.2-3.3-12-4.6c-4.9-2.2-8.1-3.6-18-4.2l-1.2-0.1l-0.5-1c0-0.1-0.1-0.1-0.1-0.1&#10;&#9;&#9;&#9;c-0.8-0.4-4.4,1.2-7,2.4c-0.8,0.3-1.5,0.7-2.4,1l-1.6-3.8c0.8-0.4,1.6-0.7,2.3-1c5-2.2,9.3-4.1,11.7-1.4&#10;&#9;&#9;&#9;c9.9,0.7,13.5,2.3,18.5,4.5c2.9,1.3,6.2,2.8,11.6,4.4L513.4,418.9z" style="fill: rgb(35, 31, 32);"/>
		<path class="st3" d="M625.3,153.5c-1.5-4.4-3.8-8.8-6-13c-2.8-5.3-5.7-10.8-7.1-16.7c-1.4-5.7-1.9-9.7-2.2-12.7&#10;&#9;&#9;&#9;c-0.9-7.7-1-8.5-14.9-17.2l2.2-3.5c15.1,9.5,15.7,11.3,16.8,20.2c0.4,3,0.8,6.8,2.1,12.2c1.3,5.3,3.9,10.4,6.8,15.7&#10;&#9;&#9;&#9;c2.3,4.4,4.7,8.9,6.3,13.6L625.3,153.5z" style="fill: rgb(35, 31, 32);"/>
		<path class="st3" d="M682.7,129.8l-2.8-3c1.1-1,2.4-3.1,3.8-5.4c4.3-6.9,10.7-17.2,21-13.9c2.2-3.4,3.8-7.6,5.5-12&#10;&#9;&#9;&#9;c3.3-8.5,6.7-17.2,14.4-21.5l2,3.6c-6.4,3.5-9.5,11.6-12.5,19.4c-2,5-4,10.2-6.9,14.2l-1,1.4l-1.5-0.7c-7.4-3.3-12.1,3-17.4,11.7&#10;&#9;&#9;&#9;C685.6,126.1,684.2,128.4,682.7,129.8z" style="fill: rgb(35, 31, 32);"/>
		<path class="st3" d="M704.7,97.6c-2.9,0-6-0.6-8.9-1.2c-5.9-1.2-11.4-2.3-16.7,0.9l-2.1-3.5c6.7-4,13.5-2.6,19.6-1.4&#10;&#9;&#9;&#9;c6.1,1.2,11.4,2.3,15.7-1.7l2.8,3C711.9,96.7,708.3,97.6,704.7,97.6z" style="fill: rgb(35, 31, 32);"/>
		<path class="st3" d="M823.7,135.5c-0.4-1.1-2.3-3.1-3.9-4.8c-2.3-2.4-4.9-5.2-6.3-8c-1.8-3.8-1.8-8-1.7-12.1&#10;&#9;&#9;&#9;c0.1-3.5,0.1-6.8-1.1-9.3c-1.9-4-7.2-7.7-12.4-11.4c-8.7-6.1-18.6-12.9-13.9-23.2l3.7,1.7c-3,6.7,2.7,11.3,12.5,18.1&#10;&#9;&#9;&#9;c5.6,3.9,11.4,8,13.8,13c1.6,3.4,1.5,7.3,1.5,11.1c-0.1,3.8-0.1,7.3,1.3,10.3c1.1,2.2,3.4,4.7,5.5,6.9c2.3,2.4,4.2,4.4,4.9,6.4&#10;&#9;&#9;&#9;L823.7,135.5z" style="fill: rgb(35, 31, 32);"/>
		<path class="st3" d="M882.9,254.3l-3-2.8c8.7-9.2,7.4-21.9,6-35.4c-1.2-11.7-2.4-23.7,3.6-33.2l3.5,2.2&#10;&#9;&#9;&#9;c-5.2,8.3-4.1,19.1-2.9,30.5C891.5,229.5,892.9,243.8,882.9,254.3z" style="fill: rgb(35, 31, 32);"/>
		<path class="st3" d="M919.3,363.7l-3.6-1.9c5.7-11,7.8-19.2,8.3-33.6c0.1-2.5,0.1-5.3,0-8.3c-0.2-10.6-0.3-22.7,4.9-30.5l3.4,2.3&#10;&#9;&#9;&#9;c-4.5,6.7-4.3,18.6-4.2,28.1c0,3.1,0.1,6,0,8.5C927.5,343.4,925.3,352.3,919.3,363.7z" style="fill: rgb(35, 31, 32);"/>
		<path class="st3" d="M884.4,340.6c-1.4-3.6-1.3-6.4,0.1-8.5c2.5-3.7,8.3-3.9,13.8-4.1c3.2-0.1,6.8-0.2,8.2-1.2&#10;&#9;&#9;&#9;c2.8-1.9,3.6-4.6,4.3-7.5c1-3.8,2.3-8.5,9.6-9.4l0.5,4.1c-4.5,0.5-5.1,2.7-6.1,6.4c-0.9,3.1-1.9,7-6,9.8&#10;&#9;&#9;&#9;c-2.4,1.6-6.3,1.8-10.4,1.9c-4.1,0.1-9.2,0.3-10.6,2.3c-0.8,1.2-0.3,3.3,0.3,4.8L884.4,340.6z" style="fill: rgb(35, 31, 32);"/>
		<path class="st15" d="M611.3,341.1c2.3-23.3,2.3-49.2-7.3-69.9c18.7,0,36.8-6.9,56.5-8.9c22-2.1,45.6-2.1,67.7-0.1&#10;&#9;&#9;&#9;c7.6,0.7,17.5,3.3,24.5,6.3c11.6,5,9.9,8.3,9.9,22.1c0,21.3-2.8,39.3-4.9,60.3c-2.6,25.1,3.8,57.1-3.8,81&#10;&#9;&#9;&#9;c-9.5,1.9-26.2-1.8-35.8-3.2c-10.9-1.6-21.2-1.6-32.9-2.8c-11.9-1.2-23.2-3.1-35.7-2.5c-19.8,1-33.6,13.3-36.5-12.4&#10;&#9;&#9;&#9;C610.3,388,609,364.4,611.3,341.1z" style="fill: rgb(38, 31, 25);"/>
		<path class="st3" d="M542.6,175.2c-2.2,0-4.3-0.2-6-0.6c-5.7-1.5-9.1-5-12.4-8.4c-3.9-4-7.5-7.7-15.1-8l0.1-4.1&#10;&#9;&#9;&#9;c9.2,0.3,13.8,5.1,17.9,9.2c3,3.1,5.9,6.1,10.5,7.3c3.3,0.9,8.4,0.4,13.8,0c5.9-0.5,12-1.1,17.2,0l-0.8,4&#10;&#9;&#9;&#9;c-4.6-0.9-10.4-0.4-16,0.1C548.5,174.9,545.4,175.2,542.6,175.2z" style="fill: rgb(35, 31, 32);"/>
		<path class="st3" d="M541.7,160.9l-2.8-3c2.7-2.5-2.4-12.4-6.1-19.7c-3.4-6.7-6.6-13-7.1-17.9l4.1-0.5c0.5,4.1,3.6,10.4,6.7,16.5&#10;&#9;&#9;&#9;C541.7,146.6,546.6,156.4,541.7,160.9z" style="fill: rgb(35, 31, 32);"/>
		<g>
			<g>
				<path class="st11" d="M647.3,427.9c-10.6-0.4-21.3-0.4-31.9-0.2c-2.8-56.1-6-112.2-9.6-168.3c13.2-0.5,26.5-0.6,39.7-0.2&#10;&#9;&#9;&#9;&#9;&#9;C646.6,315.5,647.2,371.7,647.3,427.9z" style="fill: rgb(114, 61, 21);"/>
				<path class="st3" d="M648.1,428.7l-0.9,0c-10.6-0.4-21.3-0.4-31.8-0.2l-0.8,0l0-0.8c-2.8-55.8-6-112.4-9.6-168.2l-0.1-0.8l0.8,0&#10;&#9;&#9;&#9;&#9;&#9;c7.6-0.3,15.4-0.4,23-0.4c5.6,0,11.2,0.1,16.7,0.2l0.8,0l0,0.8c1,56,1.6,112.7,1.7,168.6L648.1,428.7z M628.8,426.7&#10;&#9;&#9;&#9;&#9;&#9;c5.9,0,11.8,0.1,17.7,0.3c-0.2-55.4-0.7-111.5-1.7-167c-5.3-0.1-10.6-0.2-15.9-0.2c-7.3,0-14.8,0.1-22.1,0.4&#10;&#9;&#9;&#9;&#9;&#9;c3.5,55.3,6.7,111.3,9.5,166.6C620.4,426.8,624.7,426.7,628.8,426.7z" style="fill: rgb(35, 31, 32);"/>
			</g>
			<g>
				
					<linearGradient id="SVGID_7_" gradientUnits="userSpaceOnUse" x1="624.6984" y1="301.098" x2="624.6984" y2="416.8851" gradientTransform="matrix(1 0 3.490000e-02 1 -10.885 0)">
					<stop offset="0" style="stop-color:#C1763F"/>
					<stop offset="1" style="stop-color:#764C30"/>
				</linearGradient>
				<path class="st16" d="M644.5,427.9c-10.6-0.4-21.3-0.4-31.9-0.2c-2.8-56.1-6-112.2-9.6-168.3c13.2-0.5,26.5-0.6,39.7-0.2&#10;&#9;&#9;&#9;&#9;&#9;C643.7,315.5,644.3,371.7,644.5,427.9z" style="fill: url('#SVGID_7_');"/>
				<path class="st3" d="M645.3,428.7l-0.9,0c-10.6-0.4-21.3-0.4-31.8-0.2l-0.8,0l0-0.8c-2.8-55.8-6-112.4-9.6-168.2l-0.1-0.8l0.8,0&#10;&#9;&#9;&#9;&#9;&#9;c7.6-0.3,15.4-0.4,23-0.4c5.6,0,11.2,0.1,16.8,0.2l0.8,0l0,0.8c1,56,1.6,112.7,1.7,168.6L645.3,428.7z M626,426.7&#10;&#9;&#9;&#9;&#9;&#9;c5.9,0,11.8,0.1,17.7,0.3c-0.2-55.4-0.7-111.5-1.7-167c-5.3-0.1-10.6-0.2-15.9-0.2c-7.3,0-14.8,0.1-22.1,0.4&#10;&#9;&#9;&#9;&#9;&#9;c3.5,55.3,6.7,111.3,9.5,166.6C617.5,426.8,621.8,426.7,626,426.7z" style="fill: rgb(35, 31, 32);"/>
			</g>
			<path class="st3" d="M629,259.3c0,0,0,0.1,0.1,0.4c0.1,0.2,0.2,0.6,0.2,1.1c0,0.3,0.1,0.5,0.1,0.8c0,0.3,0.1,0.6,0.1,1&#10;&#9;&#9;&#9;&#9;c0,0.7,0,1.5-0.1,2.3c-0.1,0.8-0.1,1.7-0.2,2.6c-0.1,0.9-0.1,1.8-0.1,2.6c0,0.9,0.2,1.8,0.5,2.7c0.3,1,0.7,2,1,3&#10;&#9;&#9;&#9;&#9;c0.3,1.1,0.7,2.1,0.9,3.2c0.1,0.5,0.2,1.1,0.3,1.6c0,0.3,0.1,0.5,0.1,0.8c0,0.3,0,0.5,0.1,0.8c0.1,1,0.2,2,0.2,3&#10;&#9;&#9;&#9;&#9;c0,0.9-0.1,1.8-0.2,2.6c-0.1,0.8-0.2,1.5-0.3,2.2c-0.1,0.6-0.1,1.2-0.2,1.7c-0.1,0.9-0.3,1.5-0.3,1.5l-0.2,0c0,0-0.2-0.5-0.4-1.5&#10;&#9;&#9;&#9;&#9;c-0.1-0.5-0.2-1.1-0.3-1.7c0-0.7-0.1-1.4-0.1-2.3c0-0.4,0-0.8,0-1.3c0-0.4,0-0.9,0.1-1.3c0.1-0.9,0.3-1.9,0.5-2.9&#10;&#9;&#9;&#9;&#9;c0.1-0.3,0.1-0.5,0.1-0.8c0-0.2,0-0.5,0.1-0.7c0.1-0.5-0.1-1-0.1-1.5c-0.2-1-0.8-1.9-1.3-2.7c-0.3-0.4-0.6-0.9-0.9-1.3&#10;&#9;&#9;&#9;&#9;c-0.3-0.5-0.5-0.9-0.8-1.4c-0.5-1-0.8-2.2-1-3.3c-0.2-1.1-0.1-2.2,0-3.2c0.1-1,0.4-1.8,0.5-2.6c0.2-0.8,0.4-1.5,0.5-2.1&#10;&#9;&#9;&#9;&#9;c0.1-0.6,0.3-1.2,0.4-1.6c0.1-0.4,0.1-0.8,0.2-1.1c0-0.3,0.1-0.4,0.1-0.4L629,259.3z" style="fill: rgb(35, 31, 32);"/>
			<path class="st3" d="M620.9,260.3c0,0,0.2,0.7,0.5,1.9c0.2,0.6,0.3,1.4,0.5,2.2c0.1,0.4,0.2,0.9,0.3,1.4c0.1,0.5,0.2,1,0.2,1.6&#10;&#9;&#9;&#9;&#9;c0.1,1.1,0.3,2.3,0.4,3.6c0.1,1.3,0.2,2.6,0.2,4c0,0.7,0,1.4,0,2.1c0,0.7,0,1.4,0,2.2c0,1.4-0.1,2.9-0.2,4.4&#10;&#9;&#9;&#9;&#9;c-0.1,1.5-0.2,2.9-0.2,4.4c0,1.4,0.1,2.9,0.3,4.2c0.2,1.4,0.3,2.7,0.4,4c0.1,1.3,0,2.4,0,3.5c0,1.1-0.1,2.1-0.1,3&#10;&#9;&#9;&#9;&#9;c0,0.9-0.1,1.7-0.2,2.3c-0.1,1.3-0.3,2-0.3,2l-0.2,0c0,0-0.2-0.7-0.4-2c-0.1-0.6-0.2-1.4-0.3-2.3c-0.1-0.9-0.2-1.9-0.2-3&#10;&#9;&#9;&#9;&#9;c0-1.1-0.1-2.3-0.1-3.6c0-1.3,0.2-2.6,0.3-4c0.1-1.4,0.2-2.8,0.2-4.2c0-1.4-0.1-2.9-0.3-4.4c-0.2-1.5-0.4-2.9-0.5-4.3&#10;&#9;&#9;&#9;&#9;c0-0.7-0.1-1.4-0.1-2.1c-0.1-0.7-0.1-1.4-0.2-2.1c-0.1-1.4-0.2-2.7-0.2-3.9c-0.1-1.2-0.1-2.4-0.1-3.5c0-1.1,0-2.1,0-3&#10;&#9;&#9;&#9;&#9;c0-0.9,0-1.7,0-2.3c0-1.3,0.1-2,0.1-2L620.9,260.3z" style="fill: rgb(35, 31, 32);"/>
			<path class="st3" d="M613.4,260.3c0,0,0,0.1,0,0.3c0,0.1,0,0.2,0,0.4c0,0.1,0,0.3,0,0.5c0,0.4,0,0.8,0,1.3c0,0.5,0.1,1.1,0.2,1.7&#10;&#9;&#9;&#9;&#9;c0.1,0.6,0.2,1.3,0.4,2c0.2,0.7,0.3,1.5,0.5,2.3c0.2,0.8,0.4,1.6,0.5,2.5c0.2,0.9,0.3,1.8,0.5,2.7c0.1,0.9,0.3,1.8,0.6,2.7&#10;&#9;&#9;&#9;&#9;c0.2,0.9,0.6,1.6,1,2.4c0.4,0.8,0.7,1.5,1,2.3c0.1,0.4,0.2,0.8,0.3,1.2c0.1,0.4,0.1,0.8,0.1,1.1c0.1,0.7,0,1.4,0,2&#10;&#9;&#9;&#9;&#9;c0,0.3-0.1,0.6-0.1,0.8c0,0.3-0.1,0.5-0.2,0.7c-0.1,0.4-0.2,0.7-0.3,0.9c-0.1,0.2-0.1,0.3-0.1,0.3l-0.2,0c0,0,0-0.1-0.1-0.3&#10;&#9;&#9;&#9;&#9;c0-0.2-0.1-0.5-0.1-0.9c-0.1-0.8-0.3-1.8-0.6-3.1c-0.1-0.6-0.3-1.3-0.4-2.1c-0.1-0.7-0.2-1.6-0.2-2.4c-0.1-0.9-0.2-1.7-0.5-2.6&#10;&#9;&#9;&#9;&#9;c-0.3-0.8-0.6-1.6-1.1-2.4c-0.4-0.8-0.8-1.6-1.1-2.4c-0.3-0.8-0.6-1.7-0.9-2.5c-0.5-1.7-0.7-3.4-0.7-4.9c0-0.7,0.1-1.4,0.3-2&#10;&#9;&#9;&#9;&#9;c0-0.1,0.1-0.3,0.1-0.4c0-0.1,0.1-0.3,0.1-0.4c0.1-0.2,0.2-0.5,0.3-0.7c0.1-0.2,0.2-0.4,0.3-0.5c0.1-0.1,0.2-0.2,0.2-0.3&#10;&#9;&#9;&#9;&#9;c0.1-0.2,0.2-0.3,0.2-0.3L613.4,260.3z" style="fill: rgb(35, 31, 32);"/>
			<path class="st3" d="M623.3,427.4c0,0-0.1-0.2-0.3-0.6c-0.1-0.2-0.2-0.4-0.3-0.7c-0.1-0.3-0.2-0.6-0.3-0.9&#10;&#9;&#9;&#9;&#9;c-0.1-0.3-0.2-0.7-0.2-1c0-0.3-0.1-0.8-0.1-1.2c0-0.4,0-0.8,0-1.3c0-0.4,0.1-0.9,0.1-1.4c0.1-0.5,0.1-0.9,0-1.4&#10;&#9;&#9;&#9;&#9;c-0.1-0.4-0.2-0.8-0.4-1.2c-0.2-0.4-0.4-0.7-0.5-1.1c-0.1-0.4-0.1-0.8-0.1-1.1c0-0.7,0.1-1.3,0.2-1.7c0.1-0.2,0.1-0.4,0.2-0.5&#10;&#9;&#9;&#9;&#9;c0.1-0.1,0.1-0.2,0.1-0.2l0.2,0c0,0,0,0.1,0.1,0.1c0.1,0.1,0.2,0.2,0.3,0.4c0.2,0.4,0.4,0.9,0.6,1.5c0.1,0.3,0.2,0.7,0.2,1.1&#10;&#9;&#9;&#9;&#9;c0,0.4-0.1,0.8-0.2,1.3c-0.1,0.4-0.1,0.9,0,1.3c0.1,0.4,0.3,0.9,0.5,1.3c0.2,0.4,0.4,0.8,0.5,1.3c0.1,0.4,0.2,0.9,0.3,1.3&#10;&#9;&#9;&#9;&#9;c0.1,0.4,0.2,0.8,0.1,1.3c0,0.4,0,0.8-0.1,1.2c0,0.4-0.1,0.7-0.2,0.9c-0.1,0.3-0.2,0.5-0.3,0.7c-0.2,0.4-0.3,0.6-0.3,0.6&#10;&#9;&#9;&#9;&#9;L623.3,427.4z" style="fill: rgb(35, 31, 32);"/>
			<path class="st3" d="M622.6,344.4c0,0,0,0.5-0.1,1.4c0,0.2-0.1,0.5-0.1,0.7c0,0.3,0,0.5-0.1,0.8c0,0.6-0.1,1.2-0.1,1.9&#10;&#9;&#9;&#9;&#9;c0,0.4,0,0.7,0,1.1c0,0.4,0,0.8,0,1.2c0,0.8,0,1.7,0,2.6c0,0.9,0,1.8,0.1,2.8c0.1,1,0.1,2,0.1,3c0,1,0.1,2,0.3,3&#10;&#9;&#9;&#9;&#9;c0.2,1,0.4,1.9,0.7,2.8c0.3,0.9,0.6,1.8,0.8,2.6c0.2,0.9,0.2,1.7,0.2,2.5c0,0.4,0,0.8,0,1.1c0,0.4-0.1,0.7-0.1,1&#10;&#9;&#9;&#9;&#9;c-0.1,0.6-0.1,1.2-0.3,1.6c-0.2,0.9-0.4,1.4-0.4,1.4l-0.2,0c0,0-0.1-0.5-0.3-1.4c0-0.2-0.1-0.5-0.1-0.7c0-0.3-0.1-0.5-0.1-0.8&#10;&#9;&#9;&#9;&#9;c0-0.3-0.1-0.6-0.1-0.9c0-0.3-0.1-0.7-0.2-1c0-0.4-0.1-0.7-0.1-1.1c-0.1-0.4-0.1-0.8-0.1-1.2c0-0.8,0-1.7,0-2.7&#10;&#9;&#9;&#9;&#9;c0-0.9-0.1-1.9-0.3-2.9c-0.2-1-0.5-1.9-0.8-2.9c-0.3-1-0.6-1.9-0.8-2.9c-0.2-1-0.3-2-0.4-3c-0.1-1-0.1-1.9,0-2.8&#10;&#9;&#9;&#9;&#9;c0-0.5,0.1-0.9,0.1-1.3c0.1-0.4,0.2-0.8,0.2-1.2c0.2-0.8,0.4-1.5,0.6-2.1c0.2-0.6,0.4-1.1,0.7-1.4c0.4-0.8,0.7-1.2,0.7-1.2&#10;&#9;&#9;&#9;&#9;L622.6,344.4z" style="fill: rgb(35, 31, 32);"/>
			<path class="st3" d="M636.3,427.9c0,0-0.2-0.5-0.3-1.4c-0.1-0.5-0.3-0.9-0.4-1.5c0-0.1-0.1-0.3-0.1-0.4c-0.1-0.1-0.1-0.3-0.1-0.5&#10;&#9;&#9;&#9;&#9;c-0.1-0.3-0.2-0.6-0.3-1c-0.2-0.7-0.4-1.4-0.7-2.2c-0.2-0.8-0.5-1.7-0.6-2.6c-0.2-1-0.3-2-0.4-3l0-0.4l0-0.1l0,0c0,0,0-0.2,0-0.1&#10;&#9;&#9;&#9;&#9;l0,0l0,0l0-0.2l0.1-0.8c0-0.5,0.2-1.1,0.3-1.6c0.1-0.5,0.2-1,0.3-1.5c0.1-0.5,0.1-1,0.1-1.5c0-0.2,0-0.5,0-0.7&#10;&#9;&#9;&#9;&#9;c0-0.2,0-0.5-0.1-0.7c-0.1-0.5-0.2-0.9-0.4-1.3c-0.3-0.8-0.7-1.6-1-2.5c-0.3-0.8-0.4-1.6-0.5-2.4c-0.1-0.8-0.1-1.6-0.1-2.2&#10;&#9;&#9;&#9;&#9;c0.1-0.7,0.2-1.3,0.4-1.7c0.1-0.2,0.2-0.4,0.2-0.6c0.1-0.2,0.2-0.3,0.2-0.4c0.1-0.2,0.2-0.3,0.2-0.3l0.2,0.1c0,0,0,0.1,0,0.4&#10;&#9;&#9;&#9;&#9;c0,0.1,0,0.3,0,0.4c0,0.2,0,0.4,0,0.6c0,0.4,0.1,0.9,0.1,1.5c0.1,0.6,0.2,1.2,0.4,1.8c0.2,0.7,0.4,1.4,0.6,2.3&#10;&#9;&#9;&#9;&#9;c0.2,0.8,0.3,1.8,0.3,2.8c0,0.3,0,0.5,0,0.8c0,0.3,0,0.5,0,0.8c0,0.2,0,0.5,0,0.7c0,0.3,0,0.5,0,0.8c0,0.5,0,1,0,1.5&#10;&#9;&#9;&#9;&#9;c0,0.5,0,1,0.1,1.5c0,0.5,0.1,0.9,0.2,1.4l0.1,0.7l0,0.2l0,0l0,0c0,0.1,0-0.1,0-0.1l0,0l0,0.1l0.1,0.3c0.1,0.5,0.2,0.9,0.3,1.4&#10;&#9;&#9;&#9;&#9;c0.1,0.4,0.2,0.9,0.4,1.3c0.3,0.9,0.5,1.7,0.7,2.6c0.2,0.8,0.3,1.7,0.4,2.4c0,0.4,0.1,0.8,0.1,1.1c0,0.2,0,0.4,0,0.5&#10;&#9;&#9;&#9;&#9;c0,0.2,0,0.4,0,0.5c0,0.3,0,0.6,0,0.9c0,0.1,0,0.3,0,0.4c0,0.1,0,0.2-0.1,0.3c-0.2,0.9-0.3,1.4-0.3,1.4L636.3,427.9z" style="fill: rgb(35, 31, 32);"/>
			<path class="st3" d="M633,328.1c0,0,0.1,0.4,0.1,1c0,0.2,0,0.3,0,0.5c0,0.2,0,0.4,0,0.6c0,0.4,0,0.8,0,1.3c0,0.2,0,0.5,0,0.7&#10;&#9;&#9;&#9;&#9;c0,0.3,0,0.5,0,0.8c0,0.3-0.1,0.6-0.1,0.9c-0.1,0.3-0.1,0.6-0.2,0.9c-0.1,0.6-0.2,1.3-0.1,1.9c0.1,0.7,0.3,1.3,0.5,1.9&#10;&#9;&#9;&#9;&#9;c0.2,0.6,0.5,1.3,0.6,1.9c0.2,0.6,0.3,1.3,0.4,1.9c0.1,0.6,0.2,1.2,0.2,1.9c0,0.6,0,1.2,0,1.7c0,0.5-0.1,1-0.2,1.4&#10;&#9;&#9;&#9;&#9;c-0.1,0.4-0.2,0.8-0.2,1.1c-0.2,0.6-0.3,0.9-0.3,0.9l-0.2,0c0,0-0.1-0.3-0.3-0.9c0-0.1-0.1-0.3-0.1-0.5c-0.1-0.2-0.1-0.4-0.1-0.6&#10;&#9;&#9;&#9;&#9;c-0.1-0.4-0.2-0.8-0.3-1.3c-0.2-1-0.4-2.1-0.5-3.3c0-0.6-0.1-1.3-0.1-2c0-0.7,0-1.4,0.1-2.1c0.1-0.7,0.1-1.4,0-2.1&#10;&#9;&#9;&#9;&#9;c-0.1-0.7-0.2-1.3-0.4-2c-0.2-0.6-0.4-1.3-0.4-1.9c0-0.6,0-1.2,0.1-1.7c0.1-0.5,0.2-1,0.4-1.4c0.1-0.2,0.1-0.4,0.2-0.6&#10;&#9;&#9;&#9;&#9;c0.1-0.2,0.2-0.3,0.2-0.4c0.3-0.5,0.5-0.8,0.5-0.8L633,328.1z" style="fill: rgb(35, 31, 32);"/>
		</g>
		<g>
			<g>
				<path class="st11" d="M720.6,434.5c10.7-0.4,21.4-0.5,32.1-0.2c3.3-56.4,7.2-112.8,11.6-169.1c-13.2-0.5-26.4-0.6-39.5-0.3&#10;&#9;&#9;&#9;&#9;&#9;C722.8,321.5,721.5,378,720.6,434.5z" style="fill: rgb(114, 61, 21);"/>
				<path class="st3" d="M719.8,435.4l0-0.9c0.8-56.3,2.2-113.3,4.2-169.6l0-0.8l0.8,0c5.1-0.1,10.3-0.2,15.4-0.2&#10;&#9;&#9;&#9;&#9;&#9;c8,0,16.1,0.1,24.1,0.4l0.9,0l-0.1,0.9c-4.4,56.1-8.3,113-11.6,169.1l0,0.8l-0.8,0c-10.6-0.2-21.4-0.2-32,0.2L719.8,435.4z&#10;&#9;&#9;&#9;&#9;&#9; M725.6,265.8c-1.9,55.7-3.3,112.2-4.1,167.9c10.1-0.4,20.3-0.4,30.5-0.2c3.3-55.5,7.2-111.9,11.5-167.5&#10;&#9;&#9;&#9;&#9;&#9;c-7.7-0.3-15.5-0.4-23.2-0.4C735.3,265.6,730.4,265.7,725.6,265.8z" style="fill: rgb(35, 31, 32);"/>
			</g>
			<g>
				
					<linearGradient id="SVGID_8_" gradientUnits="userSpaceOnUse" x1="1004.0652" y1="307.0636" x2="1004.0652" y2="423.4739" gradientTransform="matrix(-1 0 -4.870000e-02 1 1764.3871 0)">
					<stop offset="0" style="stop-color:#C1763F"/>
					<stop offset="1" style="stop-color:#764C30"/>
				</linearGradient>
				<path class="st17" d="M723.5,434.5c10.7-0.4,21.4-0.5,32.1-0.2c3.3-56.4,7.2-112.8,11.6-169.1c-13.2-0.5-26.4-0.6-39.5-0.3&#10;&#9;&#9;&#9;&#9;&#9;C725.7,321.5,724.3,378,723.5,434.5z" style="fill: url('#SVGID_8_');"/>
				<path class="st3" d="M722.7,435.4l0-0.9c0.8-56.3,2.2-113.3,4.2-169.6l0-0.8l0.8,0c5.1-0.1,10.3-0.2,15.4-0.2&#10;&#9;&#9;&#9;&#9;&#9;c8,0,16.1,0.1,24.1,0.4l0.9,0l-0.1,0.9c-4.4,56.1-8.3,113-11.6,169.1l0,0.8l-0.8,0c-10.6-0.2-21.4-0.2-32,0.2L722.7,435.4z&#10;&#9;&#9;&#9;&#9;&#9; M728.4,265.8c-1.9,55.7-3.3,112.2-4.1,167.9c10.1-0.4,20.3-0.4,30.5-0.2c3.3-55.6,7.2-111.9,11.5-167.5&#10;&#9;&#9;&#9;&#9;&#9;c-7.7-0.3-15.5-0.4-23.2-0.4C738.2,265.6,733.3,265.7,728.4,265.8z" style="fill: rgb(35, 31, 32);"/>
			</g>
			<path class="st3" d="M737.7,264.7c0,0-0.1,0.7-0.4,1.8c-0.1,0.3-0.1,0.6-0.2,0.9c-0.1,0.3-0.1,0.7-0.2,1.1&#10;&#9;&#9;&#9;&#9;c-0.1,0.4-0.1,0.8-0.2,1.2c-0.1,0.4-0.1,0.9-0.2,1.4c-0.1,0.5-0.1,1-0.2,1.5c0,0.5-0.1,1.1-0.2,1.6c0,0.3-0.1,0.5-0.1,0.8&#10;&#9;&#9;&#9;&#9;c0,0.3,0,0.6-0.1,0.9c0,0.6-0.1,1.2-0.2,1.8c-0.1,1.2-0.2,2.5-0.3,3.8c-0.1,1.3-0.2,2.6-0.3,3.9c-0.1,1.3-0.2,2.7-0.2,4&#10;&#9;&#9;&#9;&#9;c0,1.3,0.1,2.6,0.3,3.8c0.1,1.3,0.3,2.5,0.3,3.6c0,0.6,0,1.1-0.1,1.7c0,0.5-0.1,1.1-0.2,1.6c-0.1,0.5-0.1,1-0.2,1.4&#10;&#9;&#9;&#9;&#9;c-0.1,0.5-0.2,0.9-0.3,1.3c-0.2,0.8-0.4,1.5-0.6,2c-0.4,1.1-0.7,1.7-0.7,1.7l-0.2-0.1c0,0,0-0.7,0-1.9c0-0.3,0-0.6,0.1-0.9&#10;&#9;&#9;&#9;&#9;c0-0.3,0-0.7,0-1.1c0-0.4,0-0.8,0.1-1.3c0-0.4,0-0.9,0.1-1.4c0-0.5,0.1-1,0.1-1.5c0-0.5,0-1.1,0.1-1.6c0.1-1.1,0.2-2.3,0.4-3.5&#10;&#9;&#9;&#9;&#9;c0.1-1.2,0.2-2.5,0.2-3.8c0-1.3-0.2-2.6-0.3-3.9c-0.2-1.3-0.3-2.7-0.4-4c-0.1-1.3-0.1-2.6,0-3.9c0-0.6,0.1-1.3,0.1-1.9&#10;&#9;&#9;&#9;&#9;c0-0.3,0.1-0.6,0.1-0.9c0-0.3,0.1-0.6,0.1-0.9c0.1-0.6,0.2-1.1,0.3-1.7c0.1-0.5,0.3-1,0.4-1.5c0.2-0.5,0.3-1,0.4-1.4&#10;&#9;&#9;&#9;&#9;c0.2-0.4,0.3-0.8,0.5-1.2c0.2-0.4,0.3-0.7,0.5-1c0.2-0.3,0.3-0.6,0.5-0.8c0.6-1,0.9-1.5,0.9-1.5L737.7,264.7z" style="fill: rgb(35, 31, 32);"/>
			<path class="st3" d="M743,278.4c0,0,0,0.2-0.1,0.5c0,0.2-0.1,0.4-0.1,0.6c0,0.1,0,0.2-0.1,0.4c0,0.1,0,0.3,0,0.4&#10;&#9;&#9;&#9;&#9;c0,0.3-0.1,0.6-0.1,1c0,0.4,0,0.8-0.1,1.2c0,0.4,0,0.9,0,1.3c0,0.5,0,1,0.1,1.5c0.1,1,0.2,2.1,0.4,3.3c0.2,1.2,0.4,2.4,0.6,3.7&#10;&#9;&#9;&#9;&#9;c0.2,1.3,0.5,2.7,0.7,4c0.3,1.4,0.4,2.8,0.5,4.3c0.1,0.7,0.1,1.4,0.2,2.1c0.1,0.7,0.2,1.4,0.2,2.1c0.1,0.7,0.2,1.4,0.3,2.1&#10;&#9;&#9;&#9;&#9;c0.1,0.7,0.2,1.4,0.3,2.1c0.1,0.3,0.1,0.7,0.1,1c0,0.3,0.1,0.7,0.1,1c0,0.7,0.1,1.3,0,2c0,0.6-0.1,1.3-0.2,1.8&#10;&#9;&#9;&#9;&#9;c-0.1,0.6-0.2,1.2-0.3,1.7c-0.1,0.5-0.2,1.1-0.4,1.5c-0.2,0.5-0.3,0.9-0.5,1.3c-0.1,0.4-0.3,0.8-0.4,1.1&#10;&#9;&#9;&#9;&#9;c-0.2,0.3-0.3,0.6-0.5,0.9c-0.6,1.1-1,1.7-1,1.7l-0.2-0.1c0,0,0.1-0.7,0.4-1.9c0.1-0.3,0.2-0.6,0.2-1c0.1-0.4,0.1-0.8,0.2-1.2&#10;&#9;&#9;&#9;&#9;c0.1-0.4,0.1-0.9,0.2-1.3c0.1-0.5,0.1-1,0.2-1.5c0-0.3,0.1-0.5,0.1-0.8c0-0.3,0.1-0.5,0.1-0.8c0-0.6,0.1-1.1,0.2-1.7&#10;&#9;&#9;&#9;&#9;c0.1-0.6,0.2-1.2,0.2-1.8c0.1-0.6,0.2-1.3,0.2-1.9c0-0.7,0.1-1.3,0.1-2c0-0.7-0.1-1.4-0.2-2.1c0-0.3-0.1-0.7-0.1-1&#10;&#9;&#9;&#9;&#9;c-0.1-0.3-0.2-0.7-0.2-1c-0.2-0.7-0.4-1.4-0.6-2.1c-0.4-1.3-0.8-2.7-1.2-4c-0.4-1.3-0.7-2.7-1-4c-0.3-1.3-0.6-2.6-0.7-3.9&#10;&#9;&#9;&#9;&#9;c-0.1-0.6-0.1-1.3-0.1-1.9c0-0.6,0-1.2,0-1.8c0.1-0.6,0.1-1.1,0.2-1.6c0.1-0.5,0.2-1,0.3-1.4c0.1-0.4,0.2-0.8,0.3-1.2&#10;&#9;&#9;&#9;&#9;c0.1-0.4,0.3-0.7,0.4-1c0.1-0.3,0.2-0.6,0.4-0.8c0.1-0.2,0.2-0.4,0.3-0.5c0.2-0.3,0.3-0.4,0.3-0.4L743,278.4z" style="fill: rgb(35, 31, 32);"/>
			<path class="st3" d="M757.5,276.9c0,0-0.2-0.2-0.4-0.5c-0.1-0.1-0.2-0.3-0.3-0.5c-0.1-0.2-0.2-0.4-0.3-0.7&#10;&#9;&#9;&#9;&#9;c-0.2-0.5-0.4-1.1-0.3-1.8c0-0.3,0-0.7,0.1-1.1c0-0.4,0.2-0.8,0.3-1.1c0.1-0.4,0.2-0.7,0.2-1.1c0-0.4-0.1-0.7-0.2-1.1&#10;&#9;&#9;&#9;&#9;c-0.1-0.4-0.3-0.7-0.3-1c0-0.3,0.1-0.6,0.1-0.9c0.1-0.6,0.4-1,0.6-1.3c0.1-0.1,0.2-0.2,0.3-0.3c0.1-0.1,0.1-0.1,0.1-0.1l0.2,0.1&#10;&#9;&#9;&#9;&#9;c0,0,0,0.1,0.1,0.2c0,0.1,0.1,0.2,0.2,0.4c0.1,0.3,0.2,0.8,0.2,1.3c0,0.3,0,0.5,0,0.8c-0.1,0.3-0.2,0.6-0.4,0.9&#10;&#9;&#9;&#9;&#9;c-0.2,0.3-0.3,0.7-0.3,1c0,0.4,0.1,0.7,0.3,1.1c0.2,0.3,0.3,0.7,0.4,1c0.1,0.3,0.2,0.7,0.2,1c0.1,0.6,0.1,1.3,0,1.8&#10;&#9;&#9;&#9;&#9;c0,0.3-0.1,0.5-0.2,0.8c-0.1,0.2-0.1,0.4-0.2,0.6c-0.1,0.3-0.3,0.5-0.3,0.5L757.5,276.9z" style="fill: rgb(35, 31, 32);"/>
			<path class="st3" d="M735.4,332.4c0,0,0.1,0.3,0.2,0.7c0,0.2,0.1,0.5,0.1,0.8c0,0.3,0.1,0.6,0.1,1c0,0.7,0,1.5-0.2,2.4&#10;&#9;&#9;&#9;&#9;c-0.1,0.4-0.2,0.9-0.3,1.3c-0.1,0.4-0.3,0.9-0.5,1.3c-0.2,0.5-0.3,0.9-0.3,1.4c0,0.2,0,0.5,0,0.7c0,0.2,0.1,0.4,0.2,0.7&#10;&#9;&#9;&#9;&#9;c0.2,0.4,0.4,0.8,0.4,1.2c0.1,0.4,0.1,0.7,0.1,1.1c0,0.3,0,0.7,0,0.9c0,0.3-0.1,0.5-0.1,0.8c-0.1,0.4-0.1,0.7-0.1,0.7l-0.2,0.1&#10;&#9;&#9;&#9;&#9;c0,0-0.2-0.2-0.5-0.5c-0.2-0.2-0.3-0.4-0.4-0.7c-0.1-0.3-0.3-0.6-0.4-1c-0.1-0.4-0.2-0.8-0.2-1.2c0-0.4,0.1-0.9,0.3-1.4&#10;&#9;&#9;&#9;&#9;c0.1-0.5,0.2-0.9,0.2-1.4c0-0.5-0.1-1-0.2-1.5c-0.1-0.5-0.2-1-0.2-1.5c0-0.5,0-1,0-1.4c0-0.5,0.1-0.9,0.2-1.3&#10;&#9;&#9;&#9;&#9;c0.1-0.4,0.2-0.8,0.3-1.1c0.1-0.3,0.3-0.7,0.4-0.9c0.1-0.3,0.3-0.5,0.4-0.7c0.2-0.4,0.4-0.6,0.4-0.6L735.4,332.4z" style="fill: rgb(35, 31, 32);"/>
			<path class="st3" d="M742.6,352.5c0,0,0,0.1,0,0.4c0,0.2-0.1,0.6-0.1,1c0,0.2,0,0.4-0.1,0.7c0,0.2,0,0.5,0,0.8c0,0.6,0,1.2,0,1.9&#10;&#9;&#9;&#9;&#9;c0,0.7,0,1.4,0.1,2.2c0,0.8,0.1,1.6,0.1,2.5c0,0.9,0.1,1.8,0.1,2.7c0,0.9,0,1.9-0.1,2.9c-0.1,1-0.1,1.9,0,2.9&#10;&#9;&#9;&#9;&#9;c0.1,0.9,0.2,1.9,0.4,2.8c0.2,0.9,0.4,1.8,0.4,2.6c0,0.8,0,1.6-0.1,2.3c-0.1,0.7-0.1,1.4-0.3,2c-0.1,0.6-0.2,1.1-0.3,1.5&#10;&#9;&#9;&#9;&#9;c-0.2,0.8-0.4,1.3-0.4,1.3l-0.2,0c0,0-0.1-0.5-0.3-1.3c-0.1-0.4-0.1-0.9-0.2-1.5c0-0.6-0.1-1.2-0.1-1.9c0-0.7,0-1.5,0-2.3&#10;&#9;&#9;&#9;&#9;c0.1-0.8,0.2-1.6,0.3-2.5c0.1-0.4,0.1-0.9,0.2-1.4c0-0.5,0-0.9,0-1.4c-0.1-0.9-0.3-1.9-0.5-2.8c-0.2-0.9-0.5-1.8-0.6-2.8&#10;&#9;&#9;&#9;&#9;c-0.2-0.9-0.3-1.8-0.4-2.8c-0.1-0.9-0.2-1.8-0.1-2.7c0-0.4,0.1-0.9,0.1-1.3c0.1-0.4,0.1-0.8,0.2-1.2c0.2-0.7,0.3-1.4,0.5-2&#10;&#9;&#9;&#9;&#9;c0.2-0.6,0.4-1,0.6-1.4c0.2-0.4,0.4-0.6,0.5-0.8c0.1-0.2,0.2-0.3,0.2-0.3L742.6,352.5z" style="fill: rgb(35, 31, 32);"/>
			<path class="st3" d="M749.1,433.1c0,0-0.1-0.5-0.2-1.3c-0.1-0.4-0.1-0.9-0.2-1.5c0-0.6-0.1-1.2-0.1-1.9c0-0.7-0.1-1.4-0.1-2.2&#10;&#9;&#9;&#9;&#9;c0-0.8,0-1.6,0-2.4c0-0.9,0.1-1.7,0.1-2.6c0-0.9,0.1-1.8,0.1-2.8c0.1-0.9,0.1-1.9-0.1-2.8c-0.1-0.9-0.3-1.8-0.6-2.6&#10;&#9;&#9;&#9;&#9;c-0.2-0.9-0.5-1.7-0.6-2.5c-0.1-0.8-0.1-1.6,0-2.4c0.1-0.7,0.2-1.4,0.4-2c0.2-0.6,0.3-1.1,0.5-1.4c0.2-0.4,0.3-0.7,0.5-0.8&#10;&#9;&#9;&#9;&#9;c0.1-0.2,0.2-0.3,0.2-0.3l0.2,0.1c0,0,0,0.1,0,0.4c0,0.2,0,0.5,0,1c0,0.2,0,0.4,0,0.7c0,0.2,0,0.5,0,0.8c0,0.5,0,1.1,0,1.8&#10;&#9;&#9;&#9;&#9;c0,0.3,0,0.7,0,1c0,0.4,0,0.7,0,1.1c0,0.8-0.1,1.6-0.2,2.5c-0.1,0.9,0,1.8,0.1,2.7c0.1,0.9,0.3,1.8,0.6,2.7&#10;&#9;&#9;&#9;&#9;c0.2,0.9,0.5,1.8,0.6,2.7c0.2,0.9,0.2,1.8,0.3,2.7c0,0.4,0.1,0.9,0.1,1.3c0,0.2,0,0.4,0,0.6c0,0.2,0,0.4,0,0.6&#10;&#9;&#9;&#9;&#9;c-0.1,0.8-0.1,1.6-0.2,2.3c-0.1,0.4-0.1,0.7-0.2,1c-0.1,0.3-0.1,0.6-0.2,0.9c-0.1,0.6-0.3,1-0.4,1.4c-0.2,0.8-0.4,1.2-0.4,1.2&#10;&#9;&#9;&#9;&#9;L749.1,433.1z" style="fill: rgb(35, 31, 32);"/>
			<path class="st3" d="M735,433.2C735,433.2,734.9,433.2,735,433.2c-0.1-0.1-0.2-0.1-0.2-0.2c-0.2-0.2-0.3-0.5-0.4-0.9&#10;&#9;&#9;&#9;&#9;c-0.1-0.4-0.2-0.9-0.2-1.4c-0.1-0.5-0.1-1.1,0-1.8c0-1.3,0.2-2.7,0.6-4.2c0.2-0.7,0.4-1.5,0.6-2.3c0.2-0.8,0.5-1.5,0.7-2.3&#10;&#9;&#9;&#9;&#9;c0.1-0.4,0.2-0.8,0.3-1.1c0-0.2,0-0.4,0-0.6c0-0.2,0-0.4,0-0.6c0-0.8-0.3-1.5-0.6-2.2c-0.3-0.7-0.6-1.4-0.8-2.1&#10;&#9;&#9;&#9;&#9;c-0.2-0.7-0.3-1.4-0.3-2c-0.1-0.7,0-1.3,0-1.8c0.1-0.5,0.2-1,0.3-1.4c0.1-0.4,0.2-0.6,0.3-0.8c0.1-0.2,0.1-0.3,0.1-0.3l0.2,0.1&#10;&#9;&#9;&#9;&#9;c0,0,0,0.1,0.1,0.3c0,0.2,0.1,0.5,0.1,0.8c0.1,0.4,0.1,0.8,0.2,1.2c0.1,0.5,0.2,1,0.3,1.5c0.1,0.6,0.3,1.2,0.4,1.9&#10;&#9;&#9;&#9;&#9;c0.1,0.7,0.1,1.5,0.1,2.3c0,0.8,0,1.6,0.1,2.5c0,0.4,0.1,0.8,0.1,1.2l0,0.2l0,0l0,0c0,0,0,0.1,0,0.1l0,0l0,0.1l0,0.3l0,0.6&#10;&#9;&#9;&#9;&#9;c0,0.9,0,1.7-0.1,2.5c-0.1,0.8-0.2,1.6-0.3,2.4c-0.2,1.5-0.6,2.9-0.9,4c-0.2,0.6-0.3,1.1-0.4,1.6c-0.1,0.5-0.2,0.9-0.3,1.2&#10;&#9;&#9;&#9;&#9;c-0.1,0.3-0.1,0.6-0.1,0.7c0,0.1,0,0.2,0,0.2c0,0,0,0.1,0,0.1L735,433.2z" style="fill: rgb(35, 31, 32);"/>
		</g>
		<g>
			<g>
				<path class="st18" d="M516.1,285c-4.9-23.8-15.9-70.4-15.9-70.4l1.2-7.7l358.3-4.6l1.9,5.9c0,0-10.2,48.5-14.4,72.5&#10;&#9;&#9;&#9;&#9;&#9;C737.2,261.3,624.9,262.8,516.1,285z" style="fill: rgb(76, 38, 12);"/>
				<path class="st3" d="M515.7,285.5l-0.1-0.4c-4.8-23.6-15.8-69.9-15.9-70.4l0-0.1l1.2-8.1l358.9-4.6l2,6.3l0,0.1&#10;&#9;&#9;&#9;&#9;&#9;c-0.1,0.5-10.2,48.8-14.4,72.5l-0.1,0.4l-0.4-0.1c-50.9-9-102.8-13.6-154.4-13.6c-59.1,0-118.5,6-176.4,17.8L515.7,285.5z&#10;&#9;&#9;&#9;&#9;&#9; M500.6,214.6c0.5,2.2,11.1,46.7,15.8,69.9c57.8-11.7,117.1-17.7,176.2-17.7c51.5,0,103.4,4.5,154.2,13.5&#10;&#9;&#9;&#9;&#9;&#9;c4.1-23.3,13.8-69.5,14.3-72l-1.7-5.6l-357.6,4.6L500.6,214.6z" style="fill: rgb(35, 31, 32);"/>
			</g>
			<g>
				<linearGradient id="SVGID_9_" gradientUnits="userSpaceOnUse" x1="680.4458" y1="179.3697" x2="680.4458" y2="340.9058">
					<stop offset="0" style="stop-color:#C1763F"/>
					<stop offset="1" style="stop-color:#764C30"/>
				</linearGradient>
				<path class="st19" d="M516,278.4c-4.9-23.8-9.7-47.7-14.7-71.5c117.8-24,239.3-25.6,358.3-4.6c-4.2,24-8.4,47.9-12.6,71.9&#10;&#9;&#9;&#9;&#9;&#9;C737.1,254.8,624.8,256.3,516,278.4z" style="fill: url('#SVGID_9_');"/>
				<path class="st3" d="M515.3,279.4l-0.2-0.8c-4.8-23.8-9.8-47.8-14.7-71.5l-0.2-0.8l0.8-0.2c62.8-12.8,127.2-19.3,191.3-19.3&#10;&#9;&#9;&#9;&#9;&#9;c55.9,0,112.2,4.9,167.3,14.7l0.8,0.1l-0.1,0.8c-4.2,24-8.4,48.2-12.6,71.9l-0.1,0.8l-0.8-0.1c-50.8-9-102.8-13.6-154.4-13.6&#10;&#9;&#9;&#9;&#9;&#9;c-59.1,0-118.4,6-176.3,17.8L515.3,279.4z M502.3,207.6c4.8,23.2,9.6,46.7,14.3,69.9c57.7-11.7,116.9-17.6,175.8-17.6&#10;&#9;&#9;&#9;&#9;&#9;c51.4,0,103.2,4.5,153.9,13.4c4.1-23.2,8.2-46.8,12.3-70.3c-54.7-9.6-110.6-14.5-166.2-14.5&#10;&#9;&#9;&#9;&#9;&#9;C628.7,188.5,564.7,194.9,502.3,207.6z" style="fill: rgb(35, 31, 32);"/>
			</g>
			<path class="st3" d="M516,215.7c0,0,0.7-0.4,2-0.9c1.3-0.5,3.1-1.2,5.3-2c1.1-0.4,2.3-0.8,3.6-1.1c1.3-0.4,2.7-0.6,4.1-0.9&#10;&#9;&#9;&#9;&#9;c1.5-0.3,2.9-0.5,4.4-0.9c0.8-0.2,1.5-0.3,2.3-0.5c0.8-0.2,1.5-0.4,2.3-0.6c1.5-0.3,3.1-0.7,4.6-0.8c1.6-0.2,3.1-0.3,4.5-0.4&#10;&#9;&#9;&#9;&#9;c1.4-0.1,2.8-0.2,4.1-0.3c0.7,0,1.3-0.1,1.9-0.2c0.6-0.1,1.2-0.1,1.8-0.2c1.1-0.1,2.2-0.4,3.1-0.5c0.9-0.2,1.7-0.4,2.4-0.6&#10;&#9;&#9;&#9;&#9;c1.3-0.4,2.1-0.6,2.1-0.6l0.1,0.2c0,0-0.7,0.4-1.9,1c-0.6,0.3-1.4,0.6-2.3,1c-0.9,0.3-2,0.7-3.1,0.9c-0.6,0.1-1.2,0.3-1.8,0.4&#10;&#9;&#9;&#9;&#9;c-0.6,0.1-1.3,0.2-2,0.3c-1.3,0.2-2.8,0.3-4.3,0.3c-1.5,0-3,0.1-4.5,0.1c-0.8,0-1.5,0-2.3,0.1c-0.8,0.1-1.5,0.1-2.3,0.2&#10;&#9;&#9;&#9;&#9;c-1.5,0.1-3.1,0.4-4.6,0.7c-1.5,0.4-2.9,0.8-4.3,1.3c-1.4,0.5-2.7,1-4,1.4c-1.3,0.4-2.5,0.7-3.6,1.1c-1.1,0.3-2.2,0.6-3.1,0.8&#10;&#9;&#9;&#9;&#9;c-0.9,0.2-1.7,0.4-2.4,0.5c-1.3,0.3-2.1,0.4-2.1,0.4L516,215.7z" style="fill: rgb(35, 31, 32);"/>
			<path class="st3" d="M543.6,228.8c0,0,0.3-0.1,0.7-0.3c0.5-0.2,1.2-0.5,2.1-0.9c0.9-0.4,2-0.8,3.2-1.4c1.2-0.5,2.6-1.1,4.2-1.8&#10;&#9;&#9;&#9;&#9;c1.5-0.6,3.2-1.3,5-2c0.9-0.3,1.8-0.6,2.8-0.9c1-0.3,1.9-0.6,2.9-0.9c1-0.3,2-0.6,3.1-0.9c0.5-0.1,1-0.3,1.6-0.4&#10;&#9;&#9;&#9;&#9;c0.5-0.1,1.1-0.3,1.6-0.4c2.1-0.6,4.3-1.1,6.5-1.6c1.1-0.2,2.2-0.4,3.3-0.5c1.1-0.1,2.2-0.2,3.3-0.2c1.1,0,2.2,0,3.3,0.1&#10;&#9;&#9;&#9;&#9;c1.1,0.1,2.2,0.2,3.2,0.3c2.1,0.3,4.1,0.6,5.9,0.9c1.9,0.3,3.6,0.5,5.2,0.6c1.6,0.1,3.1,0,4.4-0.1c0.7-0.1,1.2-0.2,1.8-0.3&#10;&#9;&#9;&#9;&#9;c0.6-0.1,1-0.3,1.5-0.4c0.9-0.3,1.6-0.6,2-0.9c0.5-0.2,0.7-0.3,0.7-0.3l0.1,0.1c0,0-0.2,0.2-0.6,0.5c-0.4,0.3-1.1,0.7-1.9,1.2&#10;&#9;&#9;&#9;&#9;c-0.9,0.4-2,0.9-3.4,1.2c-1.3,0.4-2.9,0.5-4.6,0.6c-1.7,0-3.5-0.1-5.4-0.4c-1.9-0.2-3.9-0.6-5.9-0.9c-1-0.2-2-0.3-3.1-0.4&#10;&#9;&#9;&#9;&#9;c-1-0.1-2.1-0.1-3.2-0.2c-1.1,0-2.2,0-3.2,0c-1.1,0.1-2.2,0.1-3.3,0.2c-1.1,0.2-2.2,0.2-3.3,0.5c-1.1,0.2-2.2,0.4-3.2,0.7&#10;&#9;&#9;&#9;&#9;c-1,0.3-2.1,0.6-3.1,0.9c-1,0.3-2,0.7-2.9,1.1c-1.9,0.8-3.7,1.6-5.5,2.3c-1.8,0.7-3.4,1.3-5,1.9c-1.6,0.6-3,1.1-4.3,1.5&#10;&#9;&#9;&#9;&#9;c-1.3,0.4-2.4,0.7-3.4,1c-1.9,0.5-3,0.7-3,0.7L543.6,228.8z" style="fill: rgb(35, 31, 32);"/>
			<path class="st3" d="M534.4,251.1c0,0,0.7-0.5,2-1.3c0.6-0.4,1.5-0.8,2.5-1.3c0.5-0.2,1-0.5,1.6-0.7c0.6-0.2,1.2-0.4,1.8-0.7&#10;&#9;&#9;&#9;&#9;c1.2-0.5,2.6-0.9,4.1-1.2c0.7-0.2,1.5-0.3,2.3-0.4c0.8-0.1,1.6-0.3,2.4-0.4c1.6-0.2,3.3-0.5,5-0.7c0.8-0.2,1.7-0.3,2.6-0.5&#10;&#9;&#9;&#9;&#9;c0.9-0.2,1.7-0.3,2.6-0.5c1.7-0.3,3.4-0.7,5.1-1c1.7-0.3,3.4-0.5,5-0.8c3.2-0.5,6.3-0.8,8.9-1.2c1.3-0.1,2.5-0.3,3.5-0.5&#10;&#9;&#9;&#9;&#9;c1.1-0.1,2-0.3,2.7-0.4c1.5-0.2,2.4-0.3,2.4-0.3l0,0.2c0,0-0.8,0.3-2.3,0.8c-0.7,0.3-1.6,0.5-2.7,0.8c-0.5,0.1-1.1,0.3-1.7,0.4&#10;&#9;&#9;&#9;&#9;c-0.6,0.1-1.2,0.3-1.8,0.4c-1.3,0.3-2.7,0.5-4.2,0.8c-0.7,0.1-1.5,0.2-2.3,0.3c-0.8,0.1-1.6,0.2-2.4,0.3c-1.6,0.2-3.3,0.3-5,0.5&#10;&#9;&#9;&#9;&#9;c-1.7,0.2-3.5,0.3-5.2,0.4c-1.7,0.2-3.5,0.3-5.2,0.6c-0.8,0.1-1.7,0.3-2.5,0.5c-0.8,0.2-1.6,0.4-2.4,0.6&#10;&#9;&#9;&#9;&#9;c-1.6,0.4-3.1,0.9-4.5,1.3c-1.4,0.4-2.8,0.8-4,1.2c-0.6,0.2-1.2,0.4-1.8,0.5c-0.6,0.2-1.1,0.4-1.6,0.5c-1,0.3-1.9,0.6-2.6,0.9&#10;&#9;&#9;&#9;&#9;c-1.4,0.6-2.3,0.8-2.3,0.8L534.4,251.1z" style="fill: rgb(35, 31, 32);"/>
			<path class="st3" d="M697.1,213c0,0,0.5-0.3,1.3-0.7c0.2-0.1,0.5-0.2,0.7-0.3c0.3-0.1,0.6-0.2,0.9-0.3c0.6-0.2,1.4-0.3,2.2-0.5&#10;&#9;&#9;&#9;&#9;c0.8-0.1,1.7-0.2,2.6-0.3c0.9,0,1.9,0.1,2.9,0.2c1,0.1,2,0.2,3.1,0.3c1.1,0,2.1,0.1,3.2,0c1.1,0,2.2,0,3.2,0.1&#10;&#9;&#9;&#9;&#9;c1.1,0.1,2.1,0.2,3.1,0.4c0.5,0.1,1,0.2,1.5,0.3c0.5,0.1,0.9,0.2,1.4,0.3c0.9,0.2,1.7,0.5,2.5,0.7c0.8,0.3,1.5,0.5,2.1,0.8&#10;&#9;&#9;&#9;&#9;c0.6,0.3,1.1,0.5,1.5,0.7c0.8,0.5,1.3,0.7,1.3,0.7l-0.1,0.2c0,0-0.5-0.1-1.5-0.3c-0.9-0.2-2.2-0.4-3.8-0.7&#10;&#9;&#9;&#9;&#9;c-0.8-0.2-1.6-0.3-2.5-0.5c-0.9-0.1-1.8-0.4-2.8-0.6c-1-0.2-2-0.4-3-0.6c-1-0.2-2.1-0.4-3.1-0.7c-1-0.2-2.1-0.4-3.1-0.4&#10;&#9;&#9;&#9;&#9;c-0.5,0-1-0.1-1.6,0c-0.5,0-1,0.1-1.5,0.1c-1,0.1-1.9,0.3-2.8,0.3c-0.9,0.1-1.7,0.1-2.5,0.2c-0.8,0.1-1.5,0.1-2.1,0.2&#10;&#9;&#9;&#9;&#9;c-0.6,0.1-1.2,0.1-1.7,0.2c-0.9,0.1-1.5,0.1-1.5,0.1L697.1,213z" style="fill: rgb(35, 31, 32);"/>
			<path class="st3" d="M793,211.7c0,0,0.4-0.1,1.2-0.1c0.4,0,0.8-0.1,1.3-0.1c0.5,0,1.1,0,1.7,0.1c0.6,0.1,1.3,0.1,2,0.2&#10;&#9;&#9;&#9;&#9;c0.7,0.1,1.4,0.4,2.2,0.6c0.7,0.2,1.5,0.5,2.3,0.6c0.8,0.2,1.6,0.2,2.5,0.3c0.8,0.1,1.7,0.2,2.5,0.3c0.8,0.1,1.6,0.3,2.4,0.5&#10;&#9;&#9;&#9;&#9;c0.8,0.2,1.5,0.4,2.2,0.6c0.7,0.3,1.3,0.5,1.9,0.8c0.6,0.3,1.1,0.5,1.5,0.8c0.4,0.3,0.8,0.5,1.1,0.7c0.6,0.4,1,0.7,1,0.7&#10;&#9;&#9;&#9;&#9;l-0.1,0.1c0,0-0.4-0.1-1.1-0.2c-0.7-0.1-1.7-0.4-2.9-0.7c-0.6-0.1-1.2-0.3-1.9-0.5c-0.7-0.2-1.4-0.4-2.1-0.6&#10;&#9;&#9;&#9;&#9;c-0.7-0.2-1.5-0.5-2.2-0.7c-0.8-0.2-1.5-0.5-2.3-0.8c-0.8-0.3-1.6-0.5-2.4-0.7c-0.8-0.2-1.6-0.2-2.4-0.2c-0.8,0-1.5,0-2.2-0.1&#10;&#9;&#9;&#9;&#9;c-0.7,0-1.3-0.2-2-0.3c-0.6-0.1-1.2-0.2-1.6-0.4c-0.5-0.1-0.9-0.2-1.3-0.3c-0.7-0.2-1.1-0.4-1.1-0.4L793,211.7z" style="fill: rgb(35, 31, 32);"/>
			<path class="st3" d="M778.6,243.9c0,0,0.7,0.2,1.8,0.7c0.6,0.2,1.3,0.5,2.1,0.9c0.4,0.2,0.8,0.4,1.3,0.6c0.4,0.2,0.9,0.4,1.4,0.6&#10;&#9;&#9;&#9;&#9;c1,0.4,2,0.9,3.1,1.4c0.5,0.3,1.1,0.5,1.7,0.8c0.6,0.3,1.2,0.6,1.8,0.9c1.2,0.6,2.5,1.2,3.8,1.6c1.3,0.4,2.7,0.8,4.1,1.1&#10;&#9;&#9;&#9;&#9;c1.4,0.3,2.8,0.5,4.2,0.9c1.4,0.3,2.7,0.6,4,0.9c1.3,0.3,2.6,0.6,3.8,0.8c1.2,0.3,2.3,0.5,3.4,0.8c2.1,0.5,3.8,0.9,5,1.3&#10;&#9;&#9;&#9;&#9;c1.2,0.3,1.9,0.6,1.9,0.6l0,0.2c0,0-0.7,0-2-0.1c-0.6,0-1.4-0.1-2.3-0.2c-0.9-0.1-1.9-0.2-2.9-0.3c-1.1-0.2-2.2-0.3-3.4-0.5&#10;&#9;&#9;&#9;&#9;c-0.6-0.1-1.2-0.2-1.9-0.4c-0.6-0.1-1.3-0.3-1.9-0.5c-1.3-0.3-2.7-0.7-4-1.1c-1.4-0.4-2.7-0.9-4.1-1.4c-1.3-0.5-2.7-1.1-4-1.5&#10;&#9;&#9;&#9;&#9;c-1.3-0.4-2.7-0.9-4-1.2c-1.3-0.4-2.6-0.7-3.7-1.2c-1.1-0.5-2.2-1-3.2-1.5c-0.5-0.2-0.9-0.5-1.4-0.7c-0.4-0.2-0.8-0.5-1.2-0.7&#10;&#9;&#9;&#9;&#9;c-0.7-0.5-1.4-0.9-1.9-1.3c-1-0.7-1.6-1.2-1.6-1.2L778.6,243.9z" style="fill: rgb(35, 31, 32);"/>
			<path class="st3" d="M718.2,246.7c0,0-0.1,0-0.4,0.1c-0.1,0-0.1,0-0.2,0c0,0-0.1,0-0.1,0c0-0.2,0,0.5,0-0.5l0,0l0,0l0,0l0,0&#10;&#9;&#9;&#9;&#9;l0.1,0c0.2,0,0.4-0.1,0.7-0.1c1-0.1,2.5-0.3,4.3-0.3c0.9,0,1.8-0.1,2.9,0c1,0,2.1,0.2,3.2,0.3c1.1,0.1,2.3,0.2,3.4,0.2&#10;&#9;&#9;&#9;&#9;c1.2,0,2.3-0.1,3.5-0.1c1.2,0,2.4-0.1,3.6-0.1c1.2,0.1,2.3,0.2,3.4,0.2c1.1,0.1,2.2,0.2,3.2,0.4c1,0.2,1.9,0.4,2.8,0.5&#10;&#9;&#9;&#9;&#9;c0.4,0.1,0.8,0.1,1.2,0.2c0.4,0.1,0.8,0.1,1.1,0.1c0.7,0.1,1.3,0.1,1.8,0.1c0.5,0,0.9,0,1.2,0c0.3,0,0.4,0,0.4,0l0,0.2&#10;&#9;&#9;&#9;&#9;c0,0-0.6,0.2-1.6,0.5c-0.5,0.1-1.2,0.3-1.9,0.3c-0.4,0-0.8,0.1-1.2,0.1c-0.4,0-0.9,0-1.3,0c-0.9,0-1.9-0.2-2.9-0.3&#10;&#9;&#9;&#9;&#9;c-0.5-0.1-1-0.1-1.5-0.2c-0.5-0.1-1.1-0.1-1.6-0.2c-1.1-0.2-2.2-0.3-3.3-0.5c-1.1-0.1-2.3-0.3-3.5-0.5c-0.6-0.1-1.2-0.2-1.8-0.2&#10;&#9;&#9;&#9;&#9;c-0.6,0-1.2-0.1-1.8-0.1c-1.2,0-2.3,0-3.4,0.1c-1.1,0.1-2.2,0.2-3.2,0.3c-1,0-2,0-2.9,0c-1.8-0.1-3.2-0.2-4.3-0.3&#10;&#9;&#9;&#9;&#9;c-0.3,0-0.5-0.1-0.7-0.1l-0.1,0l0,0l0,0l0,0l0,0c0-0.9,0-0.2,0-0.5c0,0,0.1,0,0.1,0c0.1,0,0.2,0,0.2,0c0.3,0.1,0.4,0.1,0.4,0.1&#10;&#9;&#9;&#9;&#9;V246.7z" style="fill: rgb(35, 31, 32);"/>
			<path class="st3" d="M857.9,213.8c0,0-0.1-0.1-0.3-0.2c-0.1-0.1-0.2-0.2-0.4-0.3c-0.1-0.1-0.2-0.1-0.3-0.2&#10;&#9;&#9;&#9;&#9;c-0.1,0-0.2-0.1-0.3-0.1c-0.2-0.1-0.4-0.2-0.7-0.3c-0.2-0.1-0.5-0.2-0.8-0.3c-0.3-0.1-0.6-0.2-1-0.3c-0.3-0.1-0.7-0.2-1.1-0.3&#10;&#9;&#9;&#9;&#9;c-0.8-0.2-1.6-0.4-2.5-0.6c-0.9-0.2-1.8-0.5-2.8-0.7c-1-0.2-2-0.4-3.1-0.5c-1.1-0.1-2.1-0.1-3.2,0c-1.1,0-2.2,0.1-3.3,0&#10;&#9;&#9;&#9;&#9;c-1.1,0-2.2-0.2-3.2-0.4c-1-0.2-2-0.3-2.9-0.6c-0.9-0.2-1.8-0.5-2.5-0.7c-1.5-0.5-2.8-0.9-3.7-1.2c-0.9-0.3-1.4-0.5-1.4-0.5&#10;&#9;&#9;&#9;&#9;l0-0.2c0,0,0.5,0,1.5,0c0.5,0,1.1,0,1.7,0.1c0.7,0.1,1.4,0.2,2.2,0.3c0.8,0.1,1.7,0.3,2.6,0.5c0.9,0.2,1.9,0.4,2.8,0.6&#10;&#9;&#9;&#9;&#9;c1,0.2,1.9,0.5,3,0.6c1,0.1,2.1,0.3,3.2,0.5c2.1,0.4,4.3,0.5,6.4,0.5c0.5,0,1,0,1.5,0c0.5,0,1,0.1,1.5,0.1&#10;&#9;&#9;&#9;&#9;c0.9,0.1,1.8,0.4,2.6,0.6c0.4,0.1,0.8,0.3,1.1,0.5c0.4,0.1,0.7,0.3,1,0.5c0.3,0.2,0.6,0.3,0.8,0.5c0.2,0.2,0.5,0.4,0.6,0.6&#10;&#9;&#9;&#9;&#9;c0.2,0.2,0.3,0.3,0.4,0.5c0.1,0.1,0.2,0.3,0.3,0.4c0.2,0.2,0.2,0.3,0.2,0.3L857.9,213.8z" style="fill: rgb(35, 31, 32);"/>
			<path class="st3" d="M855.3,232.9c0,0-0.4-0.1-1-0.2c-0.3-0.1-0.6-0.2-1-0.4c-0.4-0.2-0.8-0.3-1.3-0.5c-0.5-0.2-1-0.4-1.5-0.6&#10;&#9;&#9;&#9;&#9;c-0.5-0.2-1.1-0.5-1.6-0.9c-0.6-0.3-1.2-0.6-1.8-0.8c-0.6-0.2-1.3-0.3-2-0.3c-0.7,0-1.4-0.1-2-0.2c-0.7-0.1-1.3-0.2-2-0.3&#10;&#9;&#9;&#9;&#9;c-1.3-0.2-2.4-0.5-3.4-0.7c-1-0.3-1.8-0.5-2.4-0.7c-0.6-0.2-0.9-0.4-0.9-0.4l0-0.2c0,0,0.4-0.1,1-0.1c0.6-0.1,1.5-0.1,2.5-0.1&#10;&#9;&#9;&#9;&#9;c0.5,0,1.1,0.1,1.7,0.1c0.6,0.1,1.2,0.2,1.8,0.4c0.6,0.1,1.3,0.3,1.9,0.5c0.7,0.2,1.3,0.5,2,0.7c0.6,0.3,1.3,0.6,1.9,0.7&#10;&#9;&#9;&#9;&#9;c0.3,0.1,0.7,0.2,1,0.2c0.3,0.1,0.7,0.1,1,0.2c0.7,0.1,1.3,0.2,1.9,0.3c0.6,0.2,1.1,0.5,1.6,0.7c0.5,0.3,0.9,0.5,1.2,0.8&#10;&#9;&#9;&#9;&#9;c0.3,0.3,0.6,0.5,0.8,0.7c0.5,0.4,0.7,0.7,0.7,0.7L855.3,232.9z" style="fill: rgb(35, 31, 32);"/>
			<path class="st3" d="M617.7,250.5c0,0,0.2-0.1,0.5-0.4c0.4-0.2,0.8-0.6,1.5-1c0.4-0.2,0.8-0.4,1.2-0.6c0.2-0.1,0.5-0.2,0.7-0.3&#10;&#9;&#9;&#9;&#9;c0.2-0.1,0.5-0.2,0.8-0.3c0.5-0.2,1.1-0.4,1.7-0.5c0.6-0.1,1.3-0.3,1.9-0.4c0.7-0.2,1.4-0.2,2.1-0.3c0.7-0.1,1.5-0.2,2.3-0.2&#10;&#9;&#9;&#9;&#9;c0.8,0,1.6-0.1,2.4,0c0.8,0,1.7,0.1,2.5,0.1c1.7,0.1,3.4,0.3,5.2,0.3c1.8,0.1,3.6,0.1,5.4,0.1c1.8,0,3.6,0,5.4,0.1&#10;&#9;&#9;&#9;&#9;c0.9,0,1.8,0,2.6,0.1c0.9,0,1.7,0,2.5,0c0.8,0,1.6-0.1,2.4-0.1c0.8-0.1,1.6-0.1,2.4-0.1c1.5-0.1,3-0.1,4.4-0.1&#10;&#9;&#9;&#9;&#9;c1.4,0,2.6,0,3.7,0.1c1.1,0,2.1,0.1,2.9,0.1c1.6,0.1,2.5,0.2,2.5,0.2v0.2c0,0-0.9,0.1-2.5,0.3c-0.8,0.1-1.7,0.2-2.8,0.3&#10;&#9;&#9;&#9;&#9;c-1.1,0.1-2.3,0.2-3.7,0.3c-1.3,0.1-2.8,0.2-4.4,0.3c-1.5,0.1-3.2,0.2-4.9,0.2c-1.7-0.1-3.5-0.2-5.2-0.3&#10;&#9;&#9;&#9;&#9;c-1.8-0.1-3.6-0.4-5.4-0.6c-0.9-0.1-1.8-0.2-2.7-0.3c-0.9-0.1-1.8-0.2-2.7-0.2c-1.8-0.1-3.5-0.1-5.2,0c-1.7,0.1-3.3,0.3-4.8,0.4&#10;&#9;&#9;&#9;&#9;c-0.4,0-0.8,0.1-1.1,0.1c-0.4,0-0.7,0.1-1.1,0.1c-0.7,0.1-1.4,0.1-2.1,0.2c-0.7,0.1-1.3,0.2-1.9,0.3c-0.6,0.1-1.1,0.3-1.7,0.4&#10;&#9;&#9;&#9;&#9;c-0.3,0.1-0.5,0.1-0.8,0.2c-0.2,0.1-0.5,0.1-0.7,0.2c-0.4,0.1-0.9,0.3-1.2,0.4c-0.7,0.3-1.3,0.5-1.7,0.7&#10;&#9;&#9;&#9;&#9;c-0.4,0.2-0.6,0.2-0.6,0.2L617.7,250.5z" style="fill: rgb(35, 31, 32);"/>
			<path class="st3" d="M516,271.5c0,0,0.2-0.2,0.4-0.6c0.1-0.2,0.4-0.4,0.6-0.6c0.2-0.3,0.6-0.5,0.9-0.8c0.7-0.5,1.7-1.1,2.8-1.6&#10;&#9;&#9;&#9;&#9;c1.1-0.5,2.5-0.9,3.9-1.3c1.5-0.4,3.1-0.7,4.8-0.9c1.7-0.2,3.5-0.2,5.4-0.3c1.9,0,3.8-0.1,5.7-0.2c1.9-0.1,3.9-0.3,5.9-0.4&#10;&#9;&#9;&#9;&#9;c2-0.2,3.9-0.4,5.9-0.5c1.9-0.1,3.8-0.3,5.7-0.5c0.9-0.1,1.8-0.2,2.7-0.3c0.9-0.1,1.7-0.3,2.6-0.4c1.7-0.3,3.2-0.5,4.7-0.8&#10;&#9;&#9;&#9;&#9;c1.5-0.2,2.8-0.5,3.9-0.7c1.2-0.2,2.2-0.5,3-0.7c0.8-0.2,1.4-0.5,1.8-0.8c0.2-0.1,0.3-0.2,0.4-0.3c0.1-0.1,0.1-0.1,0.1-0.1&#10;&#9;&#9;&#9;&#9;l0.2,0.1c0,0,0,0.1-0.1,0.2c-0.1,0.1-0.2,0.3-0.3,0.5c-0.3,0.4-0.9,0.7-1.7,1.1c-0.8,0.4-1.8,0.8-2.9,1.2&#10;&#9;&#9;&#9;&#9;c-1.2,0.4-2.5,0.8-3.9,1.1c-1.4,0.4-3,0.7-4.7,1c-1.6,0.3-3.5,0.7-5.4,0.8c-1.9,0.1-3.8,0.2-5.7,0.2c-1.9,0-3.9,0-5.9-0.1&#10;&#9;&#9;&#9;&#9;c-2,0-4-0.1-5.9,0c-1.9,0.1-3.8,0.3-5.7,0.6c-1.8,0.2-3.6,0.6-5.2,0.8c-1.7,0.3-3.2,0.5-4.7,0.8c-1.4,0.3-2.7,0.6-3.8,1&#10;&#9;&#9;&#9;&#9;c-0.6,0.2-1.1,0.4-1.6,0.5c-0.5,0.2-0.9,0.4-1.3,0.6c-0.4,0.2-0.7,0.4-1,0.6c-0.3,0.2-0.5,0.3-0.7,0.5c-0.4,0.3-0.6,0.5-0.6,0.5&#10;&#9;&#9;&#9;&#9;L516,271.5z" style="fill: rgb(35, 31, 32);"/>
			<path class="st3" d="M653.2,193.4c0,0,0.6-0.1,1.6-0.3c1-0.1,2.5-0.3,4.2-0.4c0.9,0,1.8-0.1,2.8,0c1,0,2,0.2,3.1,0.3&#10;&#9;&#9;&#9;&#9;c1.1,0.2,2.2,0.3,3.3,0.3c0.6,0,1.1,0,1.7,0.1c0.6,0,1.2,0,1.7,0c1.2,0,2.4-0.1,3.5,0.1c1.1,0.1,2.3,0.3,3.3,0.4&#10;&#9;&#9;&#9;&#9;c0.5,0.1,1.1,0.1,1.6,0.2c0.5,0.1,1,0.1,1.5,0.2c0.5,0.1,0.9,0.1,1.4,0.2c0.4,0.1,0.9,0.1,1.3,0.2c0.4,0,0.8,0.1,1.2,0.1&#10;&#9;&#9;&#9;&#9;c0.2,0,0.4,0,0.6,0c0.2,0,0.4,0,0.5,0c0.7,0,1.3,0,1.8,0c1-0.1,1.6-0.2,1.6-0.2l0.1,0.2c0,0-0.5,0.2-1.5,0.6&#10;&#9;&#9;&#9;&#9;c-0.1,0-0.2,0.1-0.4,0.2c-0.1,0-0.3,0.1-0.4,0.1c-0.3,0.1-0.6,0.1-1,0.2c-0.2,0-0.4,0.1-0.6,0.1c-0.2,0-0.4,0-0.6,0.1&#10;&#9;&#9;&#9;&#9;c-0.4,0-0.8,0.1-1.3,0.1c-0.9,0-1.9,0-2.9-0.1c-1-0.1-2.1-0.3-3.1-0.5c-1.1-0.2-2.2-0.4-3.3-0.7c-0.6-0.1-1.1-0.2-1.7-0.3&#10;&#9;&#9;&#9;&#9;c-0.6-0.1-1.1-0.2-1.7-0.3c-1.1-0.2-2.3-0.5-3.4-0.5c-1.1,0-2.3,0-3.3,0.1c-1.1,0.1-2.1,0.2-3.1,0.2c-1,0-1.9,0-2.8,0&#10;&#9;&#9;&#9;&#9;c-1.7-0.1-3.2-0.2-4.2-0.3c-1-0.1-1.6-0.3-1.6-0.3V193.4z" style="fill: rgb(35, 31, 32);"/>
			
			
		<path d="M 564.109619140625 245.03964233398438 L 564.109619140625 252.16964721679688 L 562.11962890625 252.16964721679688 L 562.11962890625 235.03964233398438 L 566.8096313476562 235.03964233398438 C 568.9163208007812 235.03964233398438 570.4696655273438 235.4396514892578 571.4696655273438 236.23965454101562 C 572.476318359375 237.0463104248047 572.9796142578125 238.2596435546875 572.9796142578125 239.87965393066406 C 572.9796142578125 242.1463165283203 571.8296508789062 243.6763153076172 569.5296630859375 244.4696502685547 L 574.1896362304688 252.16964721679688 L 571.8296508789062 252.16964721679688 L 567.6796264648438 245.03964233398438 L 564.109619140625 245.03964233398438 M 564.109619140625 243.32965087890625 L 566.8396606445312 243.32965087890625 C 568.246337890625 243.32965087890625 569.2763061523438 243.052978515625 569.9296264648438 242.49964904785156 C 570.5896606445312 241.9396514892578 570.9196166992188 241.09963989257812 570.9196166992188 239.97964477539062 C 570.9196166992188 238.8463134765625 570.5830078125 238.02964782714844 569.90966796875 237.52964782714844 C 569.2429809570312 237.02964782714844 568.1729736328125 236.77964782714844 566.6996459960938 236.77964782714844 L 564.109619140625 236.77964782714844 L 564.109619140625 243.32965087890625 ZM 590.3021240234375 240.02964782714844 C 590.3021240234375 241.7629852294922 589.7088012695312 243.0963134765625 588.5221557617188 244.02964782714844 C 587.3421630859375 244.96298217773438 585.6488037109375 245.4296417236328 583.442138671875 245.4296417236328 L 581.43212890625 245.4296417236328 L 581.43212890625 252.16964721679688 L 579.442138671875 252.16964721679688 L 579.442138671875 235.03964233398438 L 583.8821411132812 235.03964233398438 C 588.1621704101562 235.03964233398438 590.3021240234375 236.70298767089844 590.3021240234375 240.02964782714844 M 581.43212890625 243.7196502685547 L 583.22216796875 243.7196502685547 C 584.9888305664062 243.7196502685547 586.2655029296875 243.43630981445312 587.0521240234375 242.86964416503906 C 587.845458984375 242.2963104248047 588.2421264648438 241.37965393066406 588.2421264648438 240.11964416503906 C 588.2421264648438 238.98631286621094 587.8688354492188 238.14297485351562 587.1221313476562 237.5896453857422 C 586.3821411132812 237.03631591796875 585.2254638671875 236.7596435546875 583.6521606445312 236.7596435546875 L 581.43212890625 236.7596435546875 L 581.43212890625 243.7196502685547 ZM 603.0211791992188 252.16964721679688 L 597.211181640625 236.97964477539062 L 597.1112060546875 236.97964477539062 C 597.2244873046875 238.18630981445312 597.2811889648438 239.61631774902344 597.2811889648438 241.2696533203125 L 597.2811889648438 252.16964721679688 L 595.441162109375 252.16964721679688 L 595.441162109375 235.03964233398438 L 598.441162109375 235.03964233398438 L 603.8612060546875 249.16964721679688 L 603.961181640625 249.16964721679688 L 609.43115234375 235.03964233398438 L 612.4011840820312 235.03964233398438 L 612.4011840820312 252.16964721679688 L 610.4111938476562 252.16964721679688 L 610.4111938476562 241.12965393066406 C 610.4111938476562 239.86297607421875 610.4678344726562 238.48965454101562 610.5811767578125 237.0096435546875 L 610.481201171875 237.0096435546875 L 604.6211547851562 252.16964721679688 L 603.0211791992188 252.16964721679688 ZM 631.7467041015625 247.60964965820312 C 631.7467041015625 249.11631774902344 631.2000122070312 250.29298400878906 630.106689453125 251.1396484375 C 629.0133666992188 251.97964477539062 627.530029296875 252.39964294433594 625.6566772460938 252.39964294433594 C 623.6233520507812 252.39964294433594 622.0599975585938 252.1396484375 620.9666748046875 251.61964416503906 L 620.9666748046875 249.69964599609375 C 621.67333984375 249.99298095703125 622.4400024414062 250.226318359375 623.2666625976562 250.39964294433594 C 624.0933227539062 250.57298278808594 624.913330078125 250.65965270996094 625.7266845703125 250.65965270996094 C 627.0533447265625 250.65965270996094 628.0533447265625 250.40631103515625 628.7266845703125 249.89964294433594 C 629.4000244140625 249.39964294433594 629.7366943359375 248.69964599609375 629.7366943359375 247.79965209960938 C 629.7366943359375 247.20631408691406 629.61669921875 246.7196502685547 629.376708984375 246.3396453857422 C 629.1366577148438 245.9596405029297 628.739990234375 245.60964965820312 628.1867065429688 245.28964233398438 C 627.626708984375 244.9696502685547 626.7766723632812 244.60630798339844 625.6366577148438 244.19964599609375 C 624.0433349609375 243.6329803466797 622.9033813476562 242.95631408691406 622.2166748046875 242.16964721679688 C 621.530029296875 241.3896484375 621.1867065429688 240.37298583984375 621.1867065429688 239.11964416503906 C 621.1867065429688 237.79298400878906 621.683349609375 236.73965454101562 622.6766967773438 235.95965576171875 C 623.6700439453125 235.1796417236328 624.9833374023438 234.78964233398438 626.61669921875 234.78964233398438 C 628.3233642578125 234.78964233398438 629.8900146484375 235.1029815673828 631.3167114257812 235.72964477539062 L 630.6966552734375 237.4596405029297 C 629.2833251953125 236.86631774902344 627.9066772460938 236.56964111328125 626.5667114257812 236.56964111328125 C 625.5133666992188 236.56964111328125 624.6900024414062 236.7963104248047 624.0966796875 237.24964904785156 C 623.5033569335938 237.70298767089844 623.2066650390625 238.33297729492188 623.2066650390625 239.1396484375 C 623.2066650390625 239.7329864501953 623.3167114257812 240.2196502685547 623.5366821289062 240.59963989257812 C 623.7567138671875 240.97964477539062 624.126708984375 241.32630920410156 624.6466674804688 241.6396484375 C 625.1666870117188 241.9596405029297 625.9600219726562 242.3096466064453 627.0266723632812 242.6896514892578 C 628.82666015625 243.32965087890625 630.0633544921875 244.0163116455078 630.7366943359375 244.74964904785156 C 631.4100341796875 245.4829864501953 631.7467041015625 246.43630981445312 631.7467041015625 247.60964965820312 ZM 645.6857299804688 252.16964721679688 L 645.2957153320312 250.3396453857422 L 645.2056884765625 250.3396453857422 C 644.5657348632812 251.1463165283203 643.9257202148438 251.69297790527344 643.2857055664062 251.97964477539062 C 642.6524047851562 252.2596435546875 641.8590698242188 252.39964294433594 640.9057006835938 252.39964294433594 C 639.6323852539062 252.39964294433594 638.6356811523438 252.07298278808594 637.9157104492188 251.41964721679688 C 637.1890258789062 250.7663116455078 636.82568359375 249.83297729492188 636.82568359375 248.61964416503906 C 636.82568359375 246.02630615234375 638.8990478515625 244.66632080078125 643.0457153320312 244.53964233398438 L 645.2257080078125 244.4696502685547 L 645.2257080078125 243.66964721679688 C 645.2257080078125 242.66297912597656 645.009033203125 241.91964721679688 644.57568359375 241.4396514892578 C 644.1423950195312 240.9596405029297 643.4490356445312 240.7196502685547 642.4957275390625 240.7196502685547 C 641.4290161132812 240.7196502685547 640.2190551757812 241.04965209960938 638.86572265625 241.7096405029297 L 638.2656860351562 240.2196502685547 C 638.8990478515625 239.87298583984375 639.5923461914062 239.6029815673828 640.345703125 239.40965270996094 C 641.0990600585938 239.21630859375 641.855712890625 239.11964416503906 642.61572265625 239.11964416503906 C 644.1490478515625 239.11964416503906 645.2823486328125 239.45631408691406 646.0156860351562 240.12965393066406 C 646.7557373046875 240.8096466064453 647.125732421875 241.89964294433594 647.125732421875 243.39964294433594 L 647.125732421875 252.16964721679688 L 645.6857299804688 252.16964721679688 M 641.2957153320312 250.79965209960938 C 642.5023803710938 250.79965209960938 643.452392578125 250.46630859375 644.1456909179688 249.79965209960938 C 644.8390502929688 249.1396484375 645.1857299804688 248.2096405029297 645.1857299804688 247.0096435546875 L 645.1857299804688 245.84963989257812 L 643.2357177734375 245.9396514892578 C 641.6890258789062 245.99298095703125 640.57568359375 246.2329864501953 639.8956909179688 246.65965270996094 C 639.2090454101562 247.07965087890625 638.86572265625 247.73965454101562 638.86572265625 248.6396484375 C 638.86572265625 249.3463134765625 639.0790405273438 249.8829803466797 639.5057373046875 250.24964904785156 C 639.932373046875 250.61631774902344 640.529052734375 250.79965209960938 641.2957153320312 250.79965209960938 ZM 659.916015625 252.16964721679688 L 659.916015625 243.85964965820312 C 659.916015625 242.81298828125 659.6793823242188 242.03297424316406 659.2060546875 241.5196533203125 C 658.7260131835938 240.99964904785156 657.9793701171875 240.73965454101562 656.966064453125 240.73965454101562 C 655.619384765625 240.73965454101562 654.6360473632812 241.1029815673828 654.0160522460938 241.82965087890625 C 653.3893432617188 242.5563201904297 653.0760498046875 243.75631713867188 653.0760498046875 245.4296417236328 L 653.0760498046875 252.16964721679688 L 651.1260375976562 252.16964721679688 L 651.1260375976562 239.32965087890625 L 652.7060546875 239.32965087890625 L 653.0260620117188 241.07965087890625 L 653.1160278320312 241.07965087890625 C 653.5160522460938 240.44631958007812 654.0760498046875 239.95631408691406 654.7960205078125 239.60964965820312 C 655.5160522460938 239.2629852294922 656.3160400390625 239.0896453857422 657.196044921875 239.0896453857422 C 658.74267578125 239.0896453857422 659.9093627929688 239.46298217773438 660.696044921875 240.2096405029297 C 661.4760131835938 240.95631408691406 661.8660278320312 242.14964294433594 661.8660278320312 243.78964233398438 L 661.8660278320312 252.16964721679688 L 659.916015625 252.16964721679688 ZM 668.9306640625 256.6796569824219 C 668.1973266601562 256.6796569824219 667.6173706054688 256.5763244628906 667.190673828125 256.3696594238281 L 667.190673828125 254.66964721679688 C 667.7506713867188 254.82298278808594 668.3306884765625 254.89964294433594 668.9306640625 254.89964294433594 C 669.7040405273438 254.89964294433594 670.2906494140625 254.66632080078125 670.690673828125 254.19964599609375 C 671.0973510742188 253.726318359375 671.3006591796875 253.04965209960938 671.3006591796875 252.16964721679688 L 671.3006591796875 235.03964233398438 L 673.2906494140625 235.03964233398438 L 673.2906494140625 252.0096435546875 C 673.2906494140625 253.48965454101562 672.9140014648438 254.6396484375 672.1607055664062 255.4596405029297 C 671.4140014648438 256.2729797363281 670.3373413085938 256.6796569824219 668.9306640625 256.6796569824219 ZM 684.9541015625 239.32965087890625 L 684.9541015625 247.65965270996094 C 684.9541015625 248.70631408691406 685.194091796875 249.48631286621094 685.674072265625 249.99964904785156 C 686.1473999023438 250.5196533203125 686.8907470703125 250.77964782714844 687.9041137695312 250.77964782714844 C 689.250732421875 250.77964782714844 690.2340698242188 250.40965270996094 690.8540649414062 249.66964721679688 C 691.4740600585938 248.93630981445312 691.7840576171875 247.73965454101562 691.7840576171875 246.07965087890625 L 691.7840576171875 239.32965087890625 L 693.7340698242188 239.32965087890625 L 693.7340698242188 252.16964721679688 L 692.1240844726562 252.16964721679688 L 691.8441162109375 250.44964599609375 L 691.7440795898438 250.44964599609375 C 691.3441162109375 251.08297729492188 690.790771484375 251.56631469726562 690.0841064453125 251.89964294433594 C 689.37744140625 252.2329864501953 688.5707397460938 252.39964294433594 687.6640625 252.39964294433594 C 686.097412109375 252.39964294433594 684.9274291992188 252.02964782714844 684.1541137695312 251.28964233398438 C 683.3740844726562 250.54965209960938 682.9840698242188 249.36297607421875 682.9840698242188 247.72964477539062 L 682.9840698242188 239.32965087890625 L 684.9541015625 239.32965087890625 ZM 704.3644409179688 252.16964721679688 L 703.9744262695312 250.3396453857422 L 703.8843994140625 250.3396453857422 C 703.2444458007812 251.1463165283203 702.6044311523438 251.69297790527344 701.9644165039062 251.97964477539062 C 701.3311157226562 252.2596435546875 700.5377807617188 252.39964294433594 699.5844116210938 252.39964294433594 C 698.3110961914062 252.39964294433594 697.3143920898438 252.07298278808594 696.5944213867188 251.41964721679688 C 695.8677368164062 250.7663116455078 695.50439453125 249.83297729492188 695.50439453125 248.61964416503906 C 695.50439453125 246.02630615234375 697.5777587890625 244.66632080078125 701.7244262695312 244.53964233398438 L 703.9044189453125 244.4696502685547 L 703.9044189453125 243.66964721679688 C 703.9044189453125 242.66297912597656 703.687744140625 241.91964721679688 703.25439453125 241.4396514892578 C 702.8211059570312 240.9596405029297 702.1277465820312 240.7196502685547 701.1744384765625 240.7196502685547 C 700.1077270507812 240.7196502685547 698.8977661132812 241.04965209960938 697.54443359375 241.7096405029297 L 696.9443969726562 240.2196502685547 C 697.5777587890625 239.87298583984375 698.2710571289062 239.6029815673828 699.0244140625 239.40965270996094 C 699.7777709960938 239.21630859375 700.534423828125 239.11964416503906 701.29443359375 239.11964416503906 C 702.8277587890625 239.11964416503906 703.9610595703125 239.45631408691406 704.6943969726562 240.12965393066406 C 705.4344482421875 240.8096466064453 705.804443359375 241.89964294433594 705.804443359375 243.39964294433594 L 705.804443359375 252.16964721679688 L 704.3644409179688 252.16964721679688 M 699.9744262695312 250.79965209960938 C 701.1810913085938 250.79965209960938 702.131103515625 250.46630859375 702.8244018554688 249.79965209960938 C 703.5177612304688 249.1396484375 703.8644409179688 248.2096405029297 703.8644409179688 247.0096435546875 L 703.8644409179688 245.84963989257812 L 701.9144287109375 245.9396514892578 C 700.3677368164062 245.99298095703125 699.25439453125 246.2329864501953 698.5744018554688 246.65965270996094 C 697.8877563476562 247.07965087890625 697.54443359375 247.73965454101562 697.54443359375 248.6396484375 C 697.54443359375 249.3463134765625 697.7577514648438 249.8829803466797 698.1844482421875 250.24964904785156 C 698.611083984375 250.61631774902344 699.207763671875 250.79965209960938 699.9744262695312 250.79965209960938 ZM 718.5947875976562 252.16964721679688 L 718.5947875976562 243.85964965820312 C 718.5947875976562 242.81298828125 718.358154296875 242.03297424316406 717.8848266601562 241.5196533203125 C 717.40478515625 240.99964904785156 716.6581420898438 240.73965454101562 715.6448364257812 240.73965454101562 C 714.2981567382812 240.73965454101562 713.3148193359375 241.1029815673828 712.69482421875 241.82965087890625 C 712.068115234375 242.5563201904297 711.7548217773438 243.75631713867188 711.7548217773438 245.4296417236328 L 711.7548217773438 252.16964721679688 L 709.8048095703125 252.16964721679688 L 709.8048095703125 239.32965087890625 L 711.3848266601562 239.32965087890625 L 711.704833984375 241.07965087890625 L 711.7947998046875 241.07965087890625 C 712.19482421875 240.44631958007812 712.7548217773438 239.95631408691406 713.4747924804688 239.60964965820312 C 714.19482421875 239.2629852294922 714.9948120117188 239.0896453857422 715.8748168945312 239.0896453857422 C 717.4215087890625 239.0896453857422 718.588134765625 239.46298217773438 719.3748168945312 240.2096405029297 C 720.15478515625 240.95631408691406 720.5447998046875 242.14964294433594 720.5447998046875 243.78964233398438 L 720.5447998046875 252.16964721679688 L 718.5947875976562 252.16964721679688 Z" transform="matrix(2.1488301753997803, 0, 0, 2.1488301753997803, -683.4539184570312, -301.311279296875)" style="fill: rgb(255, 255, 255); white-space: pre; color: rgb(255, 255, 255);"/></g>
		<linearGradient id="SVGID_10_" gradientUnits="userSpaceOnUse" x1="587.6289" y1="644.3467" x2="587.6289" y2="423.5532">
			<stop offset="0" style="stop-color:#FFFFFF"/>
			<stop offset="0.8376" style="stop-color:#231F20"/>
		</linearGradient>
		<path class="st21" d="M526.8,644.3l-17-1c74.3-114.3,138.9-218.8,139.6-219.8l16,0.4C664.8,425,601.2,529.9,526.8,644.3z" style="fill: url('#SVGID_10_');"/>
		<linearGradient id="SVGID_11_" gradientUnits="userSpaceOnUse" x1="784.9043" y1="641.334" x2="784.9043" y2="427.4663">
			<stop offset="0" style="stop-color:#FFFFFF"/>
			<stop offset="0.8376" style="stop-color:#231F20"/>
		</linearGradient>
		<path class="st22" d="M844.9,641.3c-74.4-114.4-136-212.8-136.7-213.9l15.3,1.1c0.7,1.1,63.6,97,138,211.3L844.9,641.3z" style="fill: url('#SVGID_11_');"/>
		<linearGradient id="SVGID_12_" gradientUnits="userSpaceOnUse" x1="688.1382" y1="625.7531" x2="688.1382" y2="445.8227">
			<stop offset="0" style="stop-color:#C1763F"/>
			<stop offset="1" style="stop-color:#764C30"/>
		</linearGradient>
		<path d="M 831.7999877929688 615 L 544.5 610.5999755859375 L 550.2000122070312 595.9000244140625 L 825.9000244140625 600.0999755859375 Z" class="st23" style="fill: url('#SVGID_12_');"/>
		<path d="M 729 459 L 644.0999755859375 454.6000061035156 L 649.7999877929688 438.3999938964844 L 726.2000122070312 441.70001220703125 Z" class="st6" style="fill: rgb(96, 57, 19);"/>
		<linearGradient id="SVGID_13_" gradientUnits="userSpaceOnUse" x1="686.5222" y1="617.7482" x2="686.5222" y2="446.3363">
			<stop offset="0" style="stop-color:#C1763F"/>
			<stop offset="1" style="stop-color:#764C30"/>
		</linearGradient>
		<path d="M 729 456.6000061035156 L 644.0999755859375 452.29998779296875 L 649.7999877929688 438.3999938964844 L 726.2000122070312 441.70001220703125 Z" class="st24" style="fill: url('#SVGID_13_');"/>
		<path d="M 754.2999877929688 499.1000061035156 L 619 494.79998779296875 L 624.2999877929688 478.70001220703125 L 750.7000122070312 484.20001220703125 Z" class="st6" style="fill: rgb(96, 57, 19);"/>
		<linearGradient id="SVGID_14_" gradientUnits="userSpaceOnUse" x1="686.8999" y1="624.9792" x2="686.8999" y2="446.1096">
			<stop offset="0" style="stop-color:#C1763F"/>
			<stop offset="1" style="stop-color:#764C30"/>
		</linearGradient>
		<path d="M 750.5 494.20001220703125 L 622.7999877929688 489.8999938964844 L 626.5999755859375 475.20001220703125 L 751 479.5 Z" class="st25" style="fill: url('#SVGID_14_');"/>
		<linearGradient id="SVGID_15_" gradientUnits="userSpaceOnUse" x1="686.7192" y1="635.4421" x2="686.7192" y2="436.9546">
			<stop offset="0" style="stop-color:#C1763F"/>
			<stop offset="1" style="stop-color:#764C30"/>
		</linearGradient>
		<path d="M 775.5999755859375 531.7999877929688 L 597.9000244140625 527.5 L 604 510.79998779296875 L 768.4000244140625 516.5999755859375 Z" class="st26" style="fill: url('#SVGID_15_');"/>
		<linearGradient id="SVGID_16_" gradientUnits="userSpaceOnUse" x1="686.7578" y1="635.5574" x2="686.7578" y2="424.3008">
			<stop offset="0" style="stop-color:#C1763F"/>
			<stop offset="1" style="stop-color:#764C30"/>
		</linearGradient>
		<path d="M 800 569.4000244140625 L 573.5 565.0999755859375 L 581.0999755859375 547 L 795 554.5 Z" class="st27" style="fill: url('#SVGID_16_');"/>
		<path class="st15" d="M636.9,433.3c2.1-5.3-11.2-7.2-14.1-2.1C619.2,437.7,635.1,437.8,636.9,433.3z" style="fill: rgb(38, 31, 25);"/>
		<path class="st15" d="M742.2,442.2c4.6,0.2,15.2,2.4,15.3-3.8c-3.1-1.8-6.2-2.3-9.6-1.2C747.2,437.4,740.3,442.1,742.2,442.2z" style="fill: rgb(38, 31, 25);"/>
		<path class="st15" d="M610.8,421.2c4.2-1.7,12.6-3.1,15.4,2.4c3.6,6.9-5.8,10-9.5,13.2c-3.8,3.3-7.1,9.9-12.3,2.2&#10;&#9;&#9;&#9;C600.5,433.2,605.2,423.5,610.8,421.2z" style="fill: rgb(38, 31, 25);"/>
		<path class="st15" d="M760.9,435.8c2.4,12.7-23.8,12-26.8,0.3C730.1,420.8,759.1,426.2,760.9,435.8z" style="fill: rgb(38, 31, 25);"/>
		<path class="st15" d="M748.3,452.3c0.3,1.4,1.2,2.7,1.8,4c7.2,0.8,5.4-10.2-2.5-8.8c-0.6,2.1,0.5,2.7,1.5,4L748.3,452.3z" style="fill: rgb(38, 31, 25);"/>
		<linearGradient id="SVGID_17_" gradientUnits="userSpaceOnUse" x1="593.3884" y1="644.3467" x2="593.3884" y2="423.5391">
			<stop offset="0" style="stop-color:#A1A0A0"/>
			<stop offset="0.9289" style="stop-color:#231F20"/>
		</linearGradient>
		<path d="M 520.2000122070312 643.4000244140625 L 659.2000122070312 423.5 L 666.5999755859375 423.6000061035156 L 526.7999877929688 644.2999877929688 Z" class="st28" style="fill: url('#SVGID_17_');"/>
		<linearGradient id="SVGID_18_" gradientUnits="userSpaceOnUse" x1="780.0127" y1="642.1123" x2="780.0127" y2="427.4663">
			<stop offset="0" style="stop-color:#A1A0A0"/>
			<stop offset="0.9289" style="stop-color:#231F20"/>
		</linearGradient>
		<path d="M 851.7999877929688 641.2000122070312 L 718 428.79998779296875 L 708.2000122070312 427.5 L 845.2000122070312 642.0999755859375 Z" class="st29" style="fill: url('#SVGID_18_');"/>
	</g></svg>