<?xml version="1.0" encoding="utf-8"?>
<svg id="master-artboard" viewBox="0 0 434.0070495605469 434.00701904296875" version="1.1" xmlns="http://www.w3.org/2000/svg" x="0px" y="0px" style="enable-background:new 0 0 500 500;" width="434.0070495605469px" height="434.00701904296875px" xmlns:xlink="http://www.w3.org/1999/xlink"><rect id="ee-background" x="0" y="0" width="434.0070495605469" height="434.00701904296875" style="fill: white; fill-opacity: 0; pointer-events: none;"/>

<path class="st1" d="M190.4,297.2V185.6c0-30.3,24.6-54.9,54.9-54.9h55.3c20.8,0,37.8-16.9,37.8-37.8V35.5H155.7v58.3&#10;&#9;&#9;c0,41.3-33.6,75-75,75H35.5v157.9h125.4C164.2,312,175.7,300.5,190.4,297.2z" style="fill: rgb(239, 223, 193);" transform="matrix(1, 0, 0, 1, -33.63102340698242, -30.048358917236328)"/><path class="st1" d="M355.5,35.5V93c0,30.3-24.6,54.9-54.9,54.9h-55.3c-20.8,0-37.8,16.9-37.8,37.8v111.5&#10;&#9;&#9;c14.6,3.3,26.2,14.8,29.5,29.5h58.2c28,0,50.4-22.9,50.5-51c0.2-37.1,30.5-67.3,67.7-67.3h51.1V59c0-13-10.5-23.5-23.5-23.5H355.5z&#10;&#9;&#9;" style="fill: rgb(239, 223, 193);" transform="matrix(1, 0, 0, 1, -33.63102340698242, -30.048358917236328)"/><path class="st2" d="M383.1,52.2H195.4c-8.1,0-14.7,6.6-14.7,14.7v71.4c0,8.1,6.6,14.7,14.7,14.7h82.7l5.8,10&#10;&#9;&#9;c2.4,4.1,8.4,4.1,10.8,0l5.8-10h82.7c8.1,0,14.7-6.6,14.7-14.7V66.8C397.8,58.7,391.2,52.2,383.1,52.2z" style="opacity: 0.3; fill: rgb(179, 167, 145);" transform="matrix(1, 0, 0, 1, -33.63102340698242, -30.048358917236328)"/><path class="st1" d="M177.1,335.3c0,12.1,9.8,21.9,21.9,21.9c12.1,0,21.9-9.8,21.9-21.9c0-12.1-9.8-21.9-21.9-21.9&#10;&#9;&#9;C186.9,313.4,177.1,323.2,177.1,335.3z" style="fill: rgb(239, 223, 193);" transform="matrix(1, 0, 0, 1, -33.63102340698242, -30.048358917236328)"/><path class="st1" d="M160.9,343.9H35.5V441c0,13,10.5,23.5,23.5,23.5h131.4v-91.1C175.7,370.1,164.2,358.5,160.9,343.9z" style="fill: rgb(239, 223, 193);" transform="matrix(1, 0, 0, 1, -33.63102340698242, -30.048358917236328)"/><path class="st3" d="M138.5,93.8V35.5H59C46,35.5,35.5,46,35.5,59v92.7h45.2C112.7,151.7,138.5,125.8,138.5,93.8z" style="fill: rgb(102, 204, 255);" transform="matrix(1, 0, 0, 1, -33.63102340698242, -30.048358917236328)"/><path class="st3" d="M403.6,428v36.5H441c13,0,23.5-10.5,23.5-23.5v-63.1h-10.7C426,377.9,403.6,400.3,403.6,428z" style="fill: rgb(102, 204, 255);" transform="matrix(1, 0, 0, 1, -33.63102340698242, -30.048358917236328)"/><path class="st4" d="M362.9,276.2c0,37.3-30.4,67.7-67.7,67.7H237c-3.3,14.6-14.8,26.2-29.5,29.5v91.1h178.9V428&#10;&#9;&#9;c0-37.1,30.2-67.3,67.3-67.3h10.7V225.6h-51.1C385.6,225.6,362.9,248.3,362.9,276.2z" style="fill: rgb(163, 222, 121);" transform="matrix(1, 0, 0, 1, -33.63102340698242, -30.048358917236328)"/><path class="st5" d="M366,72.4H197.4c-2.7,0-4.9-2.2-4.9-4.9l0,0c0-2.7,2.2-4.9,4.9-4.9H366c2.7,0,4.9,2.2,4.9,4.9l0,0&#10;&#9;&#9;C371,70.2,368.8,72.4,366,72.4z" style="fill: rgb(179, 167, 145);" transform="matrix(1, 0, 0, 1, -33.63102340698242, -30.048358917236328)"/><path d="M 333.200012 299.5 A 51.5 6 0 0 1 281.700012 305.5 A 51.5 6 0 0 1 230.200012 299.5 A 51.5 6 0 0 1 281.700012 293.5 A 51.5 6 0 0 1 333.200012 299.5 Z" class="st2" style="opacity: 0.3; fill: rgb(179, 167, 145);" transform="matrix(1, 0, 0, 1, -33.63102340698242, -30.048358917236328)"/><path class="st8" d="M281.7,165.2c-30,0-54.3,24.3-54.3,54.3c0,23.7,34,62,48.2,77c3.3,3.5,8.9,3.5,12.2,0&#10;&#9;&#9;&#9;c14.2-14.9,48.2-53.2,48.2-77C336,189.5,311.7,165.2,281.7,165.2z M281.7,249.6c-16.7,0-30.1-13.5-30.1-30.1s13.5-30.1,30.1-30.1&#10;&#9;&#9;&#9;c16.7,0,30.1,13.5,30.1,30.1S298.4,249.6,281.7,249.6z" style="fill: rgb(249, 62, 62);" transform="matrix(1, 0, 0, 1, -33.63102340698242, -30.048358917236328)"/>
<path d="M 712.2000122070312 663.7000122070312 L 720.0999755859375 669.2999877929688 L 710.7999877929688 666.5 L 705.2000122070312 674.5 L 707.9000244140625 665.0999755859375 L 700 659.5999755859375 L 709.2999877929688 662.2999877929688 L 714.9000244140625 654.4000244140625 Z" class="st5" style="fill: rgb(255, 255, 255);" transform="matrix(0.18133920431137085, 0, 0, 0.18133920431137085, 123.83102416992188, 133.8819580078125)"/><path d="M 0 558.234985 H 1138.68396 V 641.737984 H 0 V 558.234985 Z" fill="#4DB1DA" transform="matrix(0.09129928797483444, 0, 0, 0.09129928797483444, 196.8041835456354, 157.5806839042885)"/><g transform="matrix(0.09129928797483444, 0, 0, 0.09129928797483444, 196.8041835456354, 157.5806839042885)">
	<path d="M 515.341003 23.313999 H 825.447998 V 556.386021 H 515.341003 V 23.313999 Z" fill="#ACDAF5"/>
	<path d="M 530.317017 41.518002 H 810.473022 V 556.385983 H 530.317017 V 41.518002 Z" fill="#60C4F0"/>
	<path d="M 612.304016 124.845001 H 728.485016 V 143.844002 H 612.304016 V 124.845001 Z" fill="#ACDAF5"/>
	<path d="M 797.710998 334.497009 A 10.901 10.897 0 0 1 786.809998 345.39401 A 10.901 10.897 0 0 1 775.908998 334.497009 A 10.901 10.897 0 0 1 786.809998 323.600009 A 10.901 10.897 0 0 1 797.710998 334.497009 Z" fill="#ACDAF5"/>
</g><g transform="matrix(0.09129928797483444, 0, 0, 0.09129928797483444, 196.8041835456354, 157.5806839042885)">
	<path d="M 1072.291939 95.614998 A 45.502998 45.488998 0 0 1 1026.78894 141.103996 A 45.502998 45.488998 0 0 1 981.285942 95.614998 A 45.502998 45.488998 0 0 1 1026.78894 50.125999 A 45.502998 45.488998 0 0 1 1072.291939 95.614998 Z" fill="#42BEEE"/>
</g><g transform="matrix(0.09129928797483444, 0, 0, 0.09129928797483444, 196.8041835456354, 157.5806839042885)">
	<path d="M 1068.890022 95.614998 A 45.502998 45.488998 0 0 1 1023.387024 141.103996 A 45.502998 45.488998 0 0 1 977.884026 95.614998 A 45.502998 45.488998 0 0 1 1023.387024 50.125999 A 45.502998 45.488998 0 0 1 1068.890022 95.614998 Z" fill="#60C4F0"/>
</g><path d="M 1063.685024 95.614998 A 40.298 40.285 0 0 1 1023.387024 135.899998 A 40.298 40.285 0 0 1 983.089024 95.614998 A 40.298 40.285 0 0 1 1023.387024 55.329998 A 40.298 40.285 0 0 1 1063.685024 95.614998 Z" fill="#DFF3FD" transform="matrix(0.09129928797483444, 0, 0, 0.09129928797483444, 196.8041835456354, 157.5806839042885)"/><g transform="matrix(0.09129928797483444, 0, 0, 0.09129928797483444, 196.8041835456354, 157.5806839042885)">
	<path fill="#42BEEE" d="M1023.387,134.345L1023.387,134.345c-0.265,0-0.479-0.214-0.479-0.479v-3.546&#10;&#9;&#9;c0-0.264,0.214-0.479,0.479-0.479h0c0.264,0,0.479,0.215,0.479,0.479v3.546C1023.866,134.13,1023.652,134.345,1023.387,134.345z"/>
	<path fill="#42BEEE" d="M1023.387,60.993L1023.387,60.993c-0.265,0-0.479-0.214-0.479-0.479v-3.546&#10;&#9;&#9;c0-0.265,0.214-0.479,0.479-0.479h0c0.264,0,0.479,0.214,0.479,0.479v3.546C1023.866,60.778,1023.652,60.993,1023.387,60.993z"/>
	<path fill="#42BEEE" d="M984.447,95.417L984.447,95.417c0-0.264,0.214-0.479,0.479-0.479h3.548c0.264,0,0.479,0.214,0.479,0.479&#10;&#9;&#9;l0,0c0,0.264-0.214,0.479-0.479,0.479h-3.548C984.661,95.895,984.447,95.681,984.447,95.417z"/>
	<path fill="#42BEEE" d="M1057.822,95.417L1057.822,95.417c0-0.264,0.214-0.479,0.479-0.479h3.548c0.264,0,0.479,0.214,0.479,0.479&#10;&#9;&#9;l0,0c0,0.264-0.214,0.479-0.479,0.479h-3.548C1058.036,95.895,1057.822,95.681,1057.822,95.417z"/>
	<path fill="#42BEEE" d="M995.852,67.89L995.852,67.89c0.187-0.187,0.49-0.187,0.677,0l2.509,2.508c0.187,0.187,0.187,0.49,0,0.677&#10;&#9;&#9;l0,0c-0.187,0.187-0.49,0.187-0.677,0l-2.508-2.508C995.665,68.381,995.665,68.077,995.852,67.89z"/>
	<path fill="#42BEEE" d="M1047.736,119.758L1047.736,119.758c0.187-0.187,0.49-0.187,0.677,0l2.508,2.508&#10;&#9;&#9;c0.187,0.187,0.187,0.49,0,0.677l0,0c-0.187,0.187-0.49,0.187-0.677,0l-2.508-2.508&#10;&#9;&#9;C1047.549,120.248,1047.549,119.945,1047.736,119.758z"/>
	<path fill="#42BEEE" d="M995.852,122.943L995.852,122.943c-0.187-0.187-0.187-0.49,0-0.677l2.508-2.508&#10;&#9;&#9;c0.187-0.187,0.49-0.187,0.677,0l0,0c0.187,0.187,0.187,0.49,0,0.677l-2.509,2.508C996.342,123.13,996.039,123.13,995.852,122.943z&#10;&#9;&#9;"/>
	<path fill="#42BEEE" d="M1047.736,71.075L1047.736,71.075c-0.187-0.187-0.187-0.49,0-0.677l2.508-2.508&#10;&#9;&#9;c0.187-0.187,0.49-0.187,0.677,0l0,0c0.187,0.187,0.187,0.49,0,0.677l-2.508,2.508&#10;&#9;&#9;C1048.227,71.262,1047.923,71.262,1047.736,71.075z"/>
</g><path fill="#42BEEE" d="M1023.387,102.395L1023.387,102.395c-0.529,0-0.958-0.429-0.958-0.958V63.642&#10;&#9;c0-0.529,0.429-0.958,0.958-0.958h0c0.529,0,0.958,0.429,0.958,0.958v37.796C1024.345,101.967,1023.916,102.395,1023.387,102.395z" transform="matrix(0.09129928797483444, 0, 0, 0.09129928797483444, 196.8041835456354, 157.5806839042885)"/><path fill="#42BEEE" d="M1016.809,95.615L1016.809,95.615c0-0.529,0.429-0.958,0.958-0.958h30.656c0.529,0,0.958,0.429,0.958,0.958&#10;&#9;l0,0c0,0.529-0.429,0.958-0.958,0.958h-30.656C1017.238,96.573,1016.809,96.144,1016.809,95.615z" transform="matrix(0.09129928797483444, 0, 0, 0.09129928797483444, 196.8041835456354, 157.5806839042885)"/><g transform="matrix(0.09129928797483444, 0, 0, 0.09129928797483444, 196.8041835456354, 157.5806839042885)">
	<path d="M 125.861 69.903 L 234.509995 34.297001 L 341.174011 73.099998" fill="none" stroke="#2F4148" stroke-width="1.1859" stroke-miterlimit="10"/>
	<path fill="#ACDAF5" d="M94.741,276.033c-11.581,0-21.004-9.448-21.004-21.061V90.786c0-11.613,9.422-21.061,21.004-21.061h277.553&#10;&#9;&#9;c11.581,0,21.004,9.448,21.004,21.061v164.186c0,11.613-9.422,21.061-21.004,21.061H94.741z"/>
	<path fill="#60C4F0" d="M386.744,254.972c0,8.003-6.47,14.49-14.45,14.49H94.741c-7.98,0-14.45-6.487-14.45-14.49V90.786&#10;&#9;&#9;c0-8.002,6.47-14.489,14.45-14.489h277.553c7.98,0,14.45,6.487,14.45,14.489V254.972z"/>
	<g>
		
			<path d="M 95.203003 90.378998 H 178.181 V 173.167999 H 95.203003 V 90.378998 Z" transform="matrix(0.2009 -0.9796 0.9796 0.2009 -19.8563 239.2051)" fill="#ACDAF5"/>
		<g>
			<path fill="#AC4233" d="M147.644,92.453c-0.316,1.539-2.61,3.296-3.521,3.109c-0.72-0.148-2.322-2.76-2.006-4.299&#10;&#9;&#9;&#9;&#9;c0.316-1.539,1.615-1.591,3.15-1.276C146.802,90.302,147.96,90.914,147.644,92.453z"/>
			<path fill="#DD5745" d="M147.713,92.186c-0.316,1.539-1.817,2.532-3.352,2.217c-1.535-0.315-2.524-1.818-2.208-3.358&#10;&#9;&#9;&#9;&#9;s1.817-2.532,3.352-2.217C147.04,89.144,148.029,90.647,147.713,92.186z"/>
		</g>
	</g>
	<g>
		<path d="M 298.7049865722656 234.72799682617188 L 205.88999938964844 252.41799926757812 L 181.98500061035156 124.99299621582031 L 274.79998779296875 107.302001953125 Z" fill="#ACDAF5"/>
		<g>
			
				<path d="M 194.139999 140.473007 H 269.335999 V 142.758007 H 194.139999 V 140.473007 Z" transform="matrix(0.9815 -0.1917 0.1917 0.9815 -22.8451 47.0383)" fill="#60C4F0"/>
			
				<path d="M 195.078995 145.278 H 270.274994 V 147.563 H 195.078995 V 145.278 Z" transform="matrix(0.9815 -0.1917 0.1917 0.9815 -23.7486 47.3074)" fill="#60C4F0"/>
			
				<path d="M 196.018005 150.082993 H 271.214005 V 152.367993 H 196.018005 V 150.082993 Z" transform="matrix(0.9815 -0.1917 0.1917 0.9815 -24.6522 47.5764)" fill="#60C4F0"/>
			
				<path d="M 196.957001 154.888 H 272.153 V 157.173001 H 196.957001 V 154.888 Z" transform="matrix(0.9815 -0.1917 0.1917 0.9815 -25.5559 47.8458)" fill="#60C4F0"/>
			
				<path d="M 200.011002 170.516998 H 275.207001 V 172.801998 H 200.011002 V 170.516998 Z" transform="matrix(0.9815 -0.1917 0.1917 0.9815 -28.4944 48.7204)" fill="#60C4F0"/>
			
				<path d="M 200.949997 175.322006 H 276.145996 V 177.607006 H 200.949997 V 175.322006 Z" transform="matrix(0.9815 -0.1917 0.1917 0.9815 -29.3979 48.9894)" fill="#60C4F0"/>
			
				<path d="M 201.889008 180.128006 H 277.085007 V 182.413006 H 201.889008 V 180.128006 Z" transform="matrix(0.9815 -0.1917 0.1917 0.9815 -30.3015 49.2584)" fill="#60C4F0"/>
			
				<path d="M 206.850006 202.537994 H 282.046005 V 204.822994 H 206.850006 V 202.537994 Z" transform="matrix(0.9815 -0.1917 0.1917 0.9815 -34.5047 50.625)" fill="#60C4F0"/>
			
				<path d="M 207.789001 207.343002 H 282.985001 V 209.628002 H 207.789001 V 207.343002 Z" transform="matrix(0.9815 -0.1917 0.1917 0.9815 -35.4081 50.894)" fill="#60C4F0"/>
			
				<path d="M 208.727997 212.149002 H 283.923996 V 214.434002 H 208.727997 V 212.149002 Z" transform="matrix(0.9815 -0.1917 0.1917 0.9815 -36.3118 51.1631)" fill="#60C4F0"/>
		</g>
		<g>
			<path fill="#AC4233" d="M231.723,116.408c0.336,1.762-1.321,4.612-2.363,4.811c-0.824,0.157-3.65-1.903-3.986-3.665&#10;&#9;&#9;&#9;&#9;c-0.336-1.762,1.012-2.381,2.769-2.715C229.9,114.503,231.387,114.646,231.723,116.408z"/>
			<path fill="#DD5745" d="M231.68,116.096c0.336,1.762-0.816,3.462-2.573,3.797c-1.757,0.335-3.454-0.822-3.79-2.584&#10;&#9;&#9;&#9;&#9;c-0.336-1.762,0.816-3.462,2.573-3.797C229.647,113.177,231.344,114.334,231.68,116.096z"/>
		</g>
	</g>
	<g>
		
			<path d="M 295.420013 100.112 H 373.074013 V 168.988998 H 295.420013 V 100.112 Z" transform="matrix(0.2265 -0.974 0.974 0.2265 127.4816 429.6317)" fill="#ACDAF5"/>
		<g>
			<path fill="#AC4233" d="M345.411,98.009c-0.327,1.404-2.473,2.96-3.304,2.767c-0.657-0.153-2.063-2.587-1.737-3.992&#10;&#9;&#9;&#9;&#9;c0.327-1.405,1.519-1.421,2.92-1.095C344.692,96.015,345.738,96.604,345.411,98.009z"/>
			<path fill="#DD5745" d="M345.481,97.766c-0.327,1.404-1.727,2.279-3.128,1.953c-1.401-0.326-2.271-1.728-1.944-3.133&#10;&#9;&#9;&#9;&#9;c0.327-1.404,1.727-2.279,3.128-1.953C344.937,94.958,345.808,96.361,345.481,97.766z"/>
		</g>
		<g>
			
				<path d="M 339.487 83.352997 H 341.005 V 133.314999 H 339.487 V 83.352997 Z" transform="matrix(0.2265 -0.974 0.974 0.2265 157.6564 415.1963)" fill="#60C4F0"/>
			
				<path d="M 338.75 86.521004 H 340.268 V 136.483006 H 338.75 V 86.521004 Z" transform="matrix(0.2265 -0.974 0.974 0.2265 153.9995 416.9285)" fill="#60C4F0"/>
			
				<path d="M 338.011993 89.690002 H 339.529993 V 139.652004 H 338.011993 V 89.690002 Z" transform="matrix(0.2265 -0.974 0.974 0.2265 150.3428 418.6612)" fill="#60C4F0"/>
		</g>
	</g>
	<g>
		<path d="M 318.037994 194.906998 H 373.579994 V 252.417999 H 318.037994 V 194.906998 Z" fill="#ACDAF5"/>
		<g>
			<path fill="#AC4233" d="M347.898,195.477c0,1.162-1.401,2.777-2.089,2.777c-0.544,0-2.093-1.655-2.093-2.818&#10;&#9;&#9;&#9;&#9;c0-1.163,0.934-1.393,2.093-1.393C346.969,194.043,347.898,194.314,347.898,195.477z"/>
			<path fill="#DD5745" d="M347.908,195.274c0,1.163-0.94,2.105-2.1,2.105c-1.16,0-2.1-0.943-2.1-2.105&#10;&#9;&#9;&#9;&#9;c0-1.163,0.94-2.106,2.1-2.106C346.968,193.168,347.908,194.111,347.908,195.274z"/>
		</g>
		<g>
			<path d="M 325.583008 207.261002 H 365.873009 V 208.485002 H 325.583008 V 207.261002 Z" fill="#60C4F0"/>
			<path d="M 325.583008 209.884995 H 365.873009 V 211.108994 H 325.583008 V 209.884995 Z" fill="#60C4F0"/>
			<path d="M 325.583008 212.507996 H 365.873009 V 213.731996 H 325.583008 V 212.507996 Z" fill="#60C4F0"/>
			<path d="M 325.583008 215.130997 H 365.873009 V 216.354997 H 325.583008 V 215.130997 Z" fill="#60C4F0"/>
			<path d="M 325.583008 223.662994 H 365.873009 V 224.886994 H 325.583008 V 223.662994 Z" fill="#60C4F0"/>
			<path d="M 325.583008 226.285995 H 365.873009 V 227.509995 H 325.583008 V 226.285995 Z" fill="#60C4F0"/>
			<path d="M 325.583008 228.910004 H 365.873009 V 230.134004 H 325.583008 V 228.910004 Z" fill="#60C4F0"/>
		</g>
	</g>
	<g>
		<path fill="#42BEEE" d="M156.526,244.232c-4.141-7.717,3.539-31.589,3.539-31.589l-46.252-9.179l-6.612,33.146&#10;&#9;&#9;&#9;C142.495,248.85,156.526,244.232,156.526,244.232z"/>
	</g>
	<g>
		<path fill="#42BEEE" d="M254.262,93.059c7.796-4.02,15.007-28.023,15.007-28.023l43.36,18.554l-13.356,31.041&#10;&#9;&#9;&#9;C263.215,104.786,254.262,93.059,254.262,93.059z"/>
	</g>
</g><g transform="matrix(0.09129928797483444, 0, 0, 0.09129928797483444, 196.8041835456354, 157.5806839042885)">
	<path fill="#D3E7F0" d="M987.959,258.235v68.352c0,17.842,11.796,32.306,26.347,32.306h8.275V364h21.481v-5.107h8.275&#10;&#9;&#9;c14.551,0,26.347-14.464,26.347-32.306v-68.352c0-9.22-6.095-16.694-13.615-16.694h-63.496&#10;&#9;&#9;C994.054,241.541,987.959,249.015,987.959,258.235z"/>
	<path fill="#9AD5F0" d="M1078.277,267.541h-89.911c-2.321,0-4.202-1.881-4.202-4.202v-2.52c0-10.647,8.631-19.278,19.278-19.278&#10;&#9;&#9;h59.759c10.647,0,19.278,8.631,19.278,19.278v2.52C1082.479,265.66,1080.597,267.541,1078.277,267.541z"/>
	<path fill="#9AD5F0" d="M1078.277,302.82h-89.911c-2.321,0-4.202-1.881-4.202-4.202v-17.596c0-2.321,1.881-4.202,4.202-4.202&#10;&#9;&#9;h89.911c2.32,0,4.202,1.881,4.202,4.202v17.596C1082.479,300.939,1080.597,302.82,1078.277,302.82z"/>
	<path fill="#9AD5F0" d="M1078.277,338.1h-89.911c-2.321,0-4.202-1.881-4.202-4.202v-17.596c0-2.321,1.881-4.202,4.202-4.202h89.911&#10;&#9;&#9;c2.32,0,4.202,1.881,4.202,4.202v17.596C1082.479,336.219,1080.597,338.1,1078.277,338.1z"/>
	<path d="M 1011.268005 364 H 1055.375004 V 375.067 H 1011.268005 V 364 Z" fill="#42BEEE"/>
	<path fill="#D3E7F0" d="M1093.616,386.134h-120.59v-4.326c0-3.723,3.018-6.741,6.741-6.741h107.108&#10;&#9;&#9;c3.723,0,6.741,3.018,6.741,6.741V386.134z"/>
	<path d="M 973.026978 386.134003 H 1093.616974 V 558.236008 H 973.026978 V 386.134003 Z" fill="#D3E7F0"/>
	<path fill="#9AD5F0" d="M1078.684,505.538v-93.05c0-4.344-3.522-7.865-7.867-7.865h-74.991c-4.345,0-7.867,3.521-7.867,7.865v93.05&#10;&#9;&#9;H1078.684z"/>
	<path d="M 987.958984 512.216003 H 1078.683983 V 518.895003 H 987.958984 V 512.216003 Z" fill="#42BEEE"/>
	<path fill="#42BEEE" d="M987.959,525.128v6.755c0,4.344,3.522,7.865,7.867,7.865h74.991c4.345,0,7.867-3.521,7.867-7.865v-6.755&#10;&#9;&#9;H987.959z"/>
	<path d="M 994.351013 440.53299 H 1072.292015 V 472.18499 H 994.351013 V 440.53299 Z" fill="#42BEEE"/>
	<path fill="#42BEEE" d="M1103.194,488.235h-9.578v-73.638h9.578c5.913,0,10.706,4.793,10.706,10.706v52.225&#10;&#9;&#9;C1113.9,483.441,1109.107,488.235,1103.194,488.235z"/>
</g><g transform="matrix(0.09129928797483444, 0, 0, 0.09129928797483444, 196.8041835456354, 157.5806839042885)">
	<path fill="#0074B2" d="M111.935,606.385h235.913c2.856,0,5.172,2.315,5.172,5.172l0,0c0,2.856-2.316,5.172-5.172,5.172H111.935&#10;&#9;&#9;c-2.856,0-5.172-2.316-5.172-5.172l0,0C106.763,608.7,109.078,606.385,111.935,606.385z"/>
	<path d="M 152.956002 598.270996 A 15.488 15.483 0 0 1 137.468002 613.753996 A 15.488 15.483 0 0 1 121.980002 598.270996 A 15.488 15.483 0 0 1 137.468002 582.787996 A 15.488 15.483 0 0 1 152.956002 598.270996 Z" fill="#00648E"/>
	<path d="M 258.062997 598.270996 A 15.488 15.483 0 0 1 242.574997 613.753996 A 15.488 15.483 0 0 1 227.086997 598.270996 A 15.488 15.483 0 0 1 242.574997 582.787996 A 15.488 15.483 0 0 1 258.062997 598.270996 Z" fill="#00648E"/>
	<path d="M 330.218011 598.270996 A 15.488 15.483 0 0 1 314.730011 613.753996 A 15.488 15.483 0 0 1 299.242011 598.270996 A 15.488 15.483 0 0 1 314.730011 582.787996 A 15.488 15.483 0 0 1 330.218011 598.270996 Z" fill="#00648E"/>
	<path fill="#00648E" d="M66.02,457.986l72.525,26.581l-3.525,9.613l-62.911-23.057C66.799,469.177,64.073,463.295,66.02,457.986&#10;&#9;&#9;L66.02,457.986z"/>
	<path fill="#009AD8" d="M102.733,537.851l18.172,12.944v-66.591l-23.511-8.478c-2.323-0.838-4.774,0.883-4.774,3.352v39.157&#10;&#9;&#9;C92.621,526.023,96.388,533.331,102.733,537.851z"/>
	<path d="M 117.009003 362.352997 H 249.876999 V 598.270996 H 117.009003 V 362.352997 Z" fill="#D4EFFC"/>
	<path d="M 242.574997 362.352997 H 262.010998 V 598.270996 H 242.574997 V 362.352997 Z" fill="#FFFFFF"/>
	<path d="M 262.010986 362.352997 H 338.26899 V 598.270996 H 262.010986 V 362.352997 Z" fill="#D4EFFC"/>
	<g>
		<g>
			<g>
				<path d="M 270.335999 406.502014 H 326.780998 V 418.400014 H 270.335999 V 406.502014 Z" fill="#009AD8"/>
			</g>
		</g>
	</g>
	<path d="M 262.010986 362.352997 H 338.26899 V 370.983996 H 262.010986 V 362.352997 Z" fill="#009AD8"/>
	<path d="M 117.009003 362.352997 H 242.574005 V 370.983996 H 117.009003 V 362.352997 Z" fill="#FFFFFF"/>
	
		<path d="M 117.009003 370.984985 H 242.574005 V 433.319984 H 117.009003 V 370.984985 Z" fill="#FFFFFF" stroke="#4D90AA" stroke-width="0.6617" stroke-miterlimit="10"/>
	
		<path d="M 117.009003 433.320007 H 242.574005 V 539.872009 H 117.009003 V 433.320007 Z" fill="#FFFFFF" stroke="#4D90AA" stroke-width="0.6617" stroke-miterlimit="10"/>
	
		<path d="M 117.009003 539.872009 H 242.574005 V 570.112009 H 117.009003 V 539.872009 Z" fill="#FFFFFF" stroke="#4D90AA" stroke-width="0.6617" stroke-miterlimit="10"/>
	
		<path d="M 117.009003 570.112 H 242.574005 V 598.271 H 117.009003 V 570.112 Z" fill="#FFFFFF" stroke="#4D90AA" stroke-width="0.6617" stroke-miterlimit="10"/>
	<g>
		<path d="M 147.837997 406.502014 H 204.282997 V 418.400014 H 147.837997 V 406.502014 Z" fill="#D4EFFC"/>
	</g>
	<g>
		<path d="M 147.837997 549.04303 H 204.282997 V 560.94103 H 147.837997 V 549.04303 Z" fill="#D4EFFC"/>
	</g>
	<g>
		<path d="M 147.837997 577.369995 H 204.282997 V 589.267995 H 147.837997 V 577.369995 Z" fill="#D4EFFC"/>
	</g>
	<path fill="#009AD8" d="M117.116,362.353h134.72v-17.857H134.973C125.111,344.496,117.116,352.491,117.116,362.353L117.116,362.353&#10;&#9;&#9;z"/>
	<path fill="#009AD8" d="M175.034,362.353h163.97v-32.642c0-12.572-10.191-22.763-22.763-22.763H193.915&#10;&#9;&#9;c-10.428,0-18.881,8.453-18.881,18.881V362.353z"/>
	<path fill="#00648E" d="M261.371,362.353h77.633v-32.487c0-12.657-10.261-22.918-22.918-22.918h-54.715V362.353z"/>
	<path fill="#00648E" d="M241.271,362.353h97.733v-17.857h-79.876C249.265,344.496,241.271,352.491,241.271,362.353L241.271,362.353&#10;&#9;&#9;z"/>
	<path fill="#00648E" d="M150.585,315.516l110.786,1.517v16.24h-66.004l-49.378-10.036c-0.804-0.116-1.523-0.563-1.982-1.234l0,0&#10;&#9;&#9;C144.007,318.385,146.967,315.467,150.585,315.516z"/>
	<path d="M 261.3710021972656 317.0329895019531 L 261.3710021972656 327.12298583984375 L 199.4340057373047 323.05499267578125 L 189.11300659179688 315.5159912109375 Z" fill="#009AD8"/>
	<path fill="#009AD8" d="M150.496,315.426h42.699c3.446,0,6.239,2.792,6.239,6.237v1.392l-55.427-1.141l0,0&#10;&#9;&#9;C144.007,318.331,146.912,315.426,150.496,315.426z"/>
</g><g transform="matrix(0.09129928797483444, 0, 0, 0.09129928797483444, 196.8041835456354, 157.5806839042885)">
	<g>
		<g>
			<path d="M 745.093994 500.337006 H 761.076994 V 570.503006 H 745.093994 V 500.337006 Z" fill="#00193B"/>
		</g>
		<g>
			<path fill="#00193B" d="M758.641,508.343h-11.11c-6.799,0-12.31-5.511-12.31-12.31v-26.761h35.73v26.761&#10;&#9;&#9;&#9;&#9;C770.951,502.831,765.439,508.343,758.641,508.343z"/>
		</g>
		<g>
			<g>
				<path fill="#002B4A" d="M811.35,275.847h-70.087c-10.405,0-19.029,8.064-19.724,18.442l-10.758,159.608h110.377l9.923-157.062&#10;&#9;&#9;&#9;&#9;&#9;C831.788,285.461,822.751,275.847,811.35,275.847z"/>
			</g>
		</g>
		<g>
			<defs>
				<path id="SVGID_1_" d="M811.35,275.847h-70.087c-10.405,0-19.029,8.064-19.724,18.442l-10.758,159.608h110.377l9.923-157.062&#10;&#9;&#9;&#9;&#9;&#9;C831.788,285.461,822.751,275.847,811.35,275.847z"/>
			<style id="ee-google-fonts">@import url(https://fonts.googleapis.com/css?family=Architects+Daughter:400);</style></defs>
			<clipPath id="SVGID_2_">
				<use overflow="visible" xlink:href="#SVGID_1_"/>
			</clipPath>
			<g clip-path="url(#SVGID_2_)">
				<g>
					<path fill="#003866" d="M898.734,275.847h-70.087c-10.405,0-19.029,8.064-19.724,18.442l-10.758,159.608h110.377l9.923-157.062&#10;&#9;&#9;&#9;&#9;&#9;&#9;C919.171,285.461,910.134,275.847,898.734,275.847z"/>
				</g>
			</g>
		</g>
	</g>
	<g>
		<path fill="#002B4A" d="M809.817,469.272h-129.9c-6.659,0-12.057-5.398-12.057-12.057l0,0c0-6.659,5.398-12.057,12.057-12.057&#10;&#9;&#9;&#9;h129.9c6.659,0,12.057,5.398,12.057,12.057l0,0C821.874,463.874,816.476,469.272,809.817,469.272z"/>
	</g>
	<g>
		<defs>
			<path id="SVGID_3_" d="M809.817,469.272h-129.9c-6.659,0-12.057-5.398-12.057-12.057l0,0c0-6.659,5.398-12.057,12.057-12.057&#10;&#9;&#9;&#9;&#9;h129.9c6.659,0,12.057,5.398,12.057,12.057l0,0C821.874,463.874,816.476,469.272,809.817,469.272z"/>
		</defs>
		<clipPath id="SVGID_4_">
			<use overflow="visible" xlink:href="#SVGID_3_"/>
		</clipPath>
		<g clip-path="url(#SVGID_4_)">
			<path fill="#003866" d="M903.034,469.272h-129.9c-6.659,0-12.057-5.398-12.057-12.057l0,0c0-6.659,5.398-12.057,12.057-12.057&#10;&#9;&#9;&#9;&#9;h129.9c6.659,0,12.057,5.398,12.057,12.057l0,0C915.091,463.874,909.693,469.272,903.034,469.272z"/>
		</g>
	</g>
	<g>
		<path fill="#00193B" d="M797.72,583.913h-89.27c-3.703,0-6.705-3.002-6.705-6.705l0,0c0-3.703,3.002-6.705,6.705-6.705h89.27&#10;&#9;&#9;&#9;c3.703,0,6.705,3.002,6.705,6.705l0,0C804.425,580.911,801.423,583.913,797.72,583.913z"/>
	</g>
	<g>
		<path fill="#00193B" d="M777.855,583.913h-49.54c-3.26,0-5.904-2.643-5.904-5.904v-1.602c0-3.26,2.643-5.904,5.904-5.904h49.54&#10;&#9;&#9;&#9;c3.26,0,5.904,2.643,5.904,5.904v1.602C783.759,581.269,781.116,583.913,777.855,583.913z"/>
	</g>
	<g>
		<path d="M 714.881021 586.854004 A 8.572 8.569 0 0 1 706.309021 595.423004 A 8.572 8.569 0 0 1 697.737021 586.854004 A 8.572 8.569 0 0 1 706.309021 578.285004 A 8.572 8.569 0 0 1 714.881021 586.854004 Z"/>
	</g>
	<g>
		<path d="M738.261,586.854c0,4.733-3.838,8.569-8.572,8.569c-4.734,0-8.572-3.836-8.572-8.569s3.838-8.569,8.572-8.569&#10;&#9;&#9;&#9;C734.423,578.285,738.261,582.121,738.261,586.854z"/>
	</g>
	<g>
		<path d="M 785.134988 586.854004 A 8.572 8.569 0 0 1 776.562988 595.423004 A 8.572 8.569 0 0 1 767.990989 586.854004 A 8.572 8.569 0 0 1 776.562988 578.285004 A 8.572 8.569 0 0 1 785.134988 586.854004 Z"/>
	</g>
	<g>
		<path d="M 808.514993 586.854004 A 8.572 8.569 0 0 1 799.942993 595.423004 A 8.572 8.569 0 0 1 791.370994 586.854004 A 8.572 8.569 0 0 1 799.942993 578.285004 A 8.572 8.569 0 0 1 808.514993 586.854004 Z"/>
	</g>
</g><g transform="matrix(0.09129928797483444, 0, 0, 0.09129928797483444, 196.8041835456354, 157.5806839042885)">
	<g>
		<path fill="#326D8F" d="M454.556,417.618h32.932l0.699-124.397c0.339-2.857-0.957-5.523-2.685-5.523h-29.591L454.556,417.618z"/>
	</g>
	<g>
		<path fill="#3D80AF" d="M450.682,417.618h32.932l1.355-129.92h-30.842c-1.215,0-2.262,1.446-2.5,3.455L450.682,417.618z"/>
	</g>
	<g>
		<path fill="#56A7C9" d="M429.432,408.664h79.588c2.729,0,5.079,3.747,5.615,8.954l0,0H424.83l0,0&#10;&#9;&#9;&#9;C424.83,412.673,426.891,408.664,429.432,408.664z"/>
	</g>
	<g>
		<defs>
			<path id="SVGID_5_" d="M429.432,408.664h79.588c2.729,0,5.079,3.747,5.615,8.954l0,0H424.83l0,0&#10;&#9;&#9;&#9;&#9;C424.83,412.673,426.891,408.664,429.432,408.664z"/>
		</defs>
		<clipPath id="SVGID_6_">
			<use overflow="visible" xlink:href="#SVGID_5_"/>
		</clipPath>
		<g clip-path="url(#SVGID_6_)">
			<path fill="#326D8F" d="M497.672,408.664h79.588c2.729,0,5.079,3.747,5.615,8.954l0,0H493.07l0,0&#10;&#9;&#9;&#9;&#9;C493.07,412.673,495.13,408.664,497.672,408.664z"/>
		</g>
	</g>
	<path fill="none" d="M361.288,326.405v82.816c0,5.351,4.339,9.689,9.692,9.689h50.768c5.353,0,9.692,4.338,9.692,9.689v44.679&#10;&#9;&#9;c0,12.63,10.242,22.868,22.875,22.868l0,0c12.634,0,22.875-10.238,22.875-22.868V428.6c0-5.351,4.34-9.689,9.692-9.689h57.257"/>
	<g>
		<path fill="#3D80AF" d="M351.4,361.9h245.224c4.102,0,7.428-3.326,7.428-7.428V200.427c0-4.102-3.326-7.428-7.428-7.428H351.4&#10;&#9;&#9;&#9;c-4.102,0-7.428,3.326-7.428,7.428v154.044C343.972,358.574,347.297,361.9,351.4,361.9z"/>
	</g>
	<g>
		<path fill="#56A7C9" d="M341.725,361.9h245.224c4.102,0,7.428-3.326,7.428-7.428V200.427c0-4.102-3.326-7.428-7.428-7.428H341.725&#10;&#9;&#9;&#9;c-4.102,0-7.428,3.326-7.428,7.428v154.044C334.297,358.574,337.623,361.9,341.725,361.9z"/>
	</g>
	<path fill="#FFFFFF" d="M468.729,349.076c-1.475,0-2.67-1.195-2.67-2.669c0-0.656,0.246-1.249,0.639-1.714&#10;&#9;&#9;c-0.714-0.349-1.513-0.549-2.361-0.549c-2.98,0-5.396,2.415-5.396,5.394c0,2.979,2.416,5.394,5.396,5.394&#10;&#9;&#9;c2.98,0,5.396-2.415,5.396-5.394c0-0.219-0.017-0.435-0.042-0.647C469.391,349.007,469.069,349.076,468.729,349.076z"/>
	<g>
		<path d="M 339.127014 200.425995 H 589.548019 V 339.604996 H 339.127014 V 200.425995 Z" fill="#FFFFFF"/>
	</g>
	<g>
		<path fill="#EBEBEB" d="M581.575,332.092c0,2.03-1.647,3.676-3.678,3.676H349.541c-2.031,0-3.678-1.646-3.678-3.676V208.622&#10;&#9;&#9;&#9;c0-2.03,1.647-3.676,3.678-3.676h228.356c2.031,0,3.678,1.646,3.678,3.676V332.092z"/>
		<path d="M 351.459991 303.207001 H 575.946991 V 329.303001 H 351.459991 V 303.207001 Z" fill="#91E1C0"/>
		<path d="M 351.104004 220.858994 H 576.335007 V 247.223993 H 351.104004 V 220.858994 Z" fill="#007AB3"/>
		<path d="M 345.864014 204.945999 H 581.575012 V 216.342999 H 345.864014 V 204.945999 Z" fill="#BF93C3"/>
		<path d="M 357.799011 226.604996 H 569.606018 V 239.103995 H 357.799011 V 226.604996 Z" fill="#FFFFFF"/>
		<path d="M 351.459991 279.054993 H 429.719994 V 297.200993 H 351.459991 V 279.054993 Z" fill="#BF93C3"/>
		<path d="M 435.029999 279.054993 H 576.334991 V 297.200993 H 435.029999 V 279.054993 Z" fill="#91E1C0"/>
		<path d="M 357.78299 310.227997 H 429.370987 V 315.244997 H 357.78299 V 310.227997 Z" fill="#FFFFFF"/>
		<path d="M 435.932007 310.227997 H 570.755005 V 315.244997 H 435.932007 V 310.227997 Z" fill="#FFFFFF"/>
		<path d="M 357.78299 319.234985 H 429.370987 V 324.251986 H 357.78299 V 319.234985 Z" fill="#FFFFFF"/>
		<path d="M 435.932007 319.234985 H 570.755005 V 324.251986 H 435.932007 V 319.234985 Z" fill="#FFFFFF"/>
		<path fill="#FFFFFF" d="M552.503,210.644c0,1.49-1.208,2.699-2.699,2.699s-2.7-1.208-2.7-2.699s1.209-2.699,2.7-2.699&#10;&#9;&#9;&#9;S552.503,209.154,552.503,210.644z"/>
		<path fill="#FFFFFF" d="M563.547,210.644c0,1.49-1.209,2.699-2.7,2.699c-1.491,0-2.699-1.208-2.699-2.699s1.208-2.699,2.699-2.699&#10;&#9;&#9;&#9;C562.338,207.945,563.547,209.154,563.547,210.644z"/>
		<path fill="#FFFFFF" d="M574.59,210.644c0,1.49-1.208,2.699-2.699,2.699c-1.491,0-2.7-1.208-2.7-2.699s1.208-2.699,2.7-2.699&#10;&#9;&#9;&#9;C573.382,207.945,574.59,209.154,574.59,210.644z"/>
		<path d="M 557.104004 226.604996 H 569.607004 V 239.103995 H 557.104004 V 226.604996 Z" fill="#91E1C0"/>
	</g>
</g><g transform="matrix(0.09129928797483444, 0, 0, 0.09129928797483444, 196.8041835456354, 157.5806839042885)">
	<g>
		
			<path d="M 848.51001 432.162994 H 1027.236008 V 610.832001 H 848.51001 V 432.162994 Z" transform="matrix(-1 -1.224647e-16 1.224647e-16 -1 1875.7463 1042.9943)" fill="#0074B2"/>
		<path d="M 1027.2359619140625 432.1629943847656 L 861.052978515625 432.1629943847656 L 861.052978515625 439.3500061035156 L 1027.2359619140625 492.8450012207031 Z" fill="#005484"/>
		<g>
			<path d="M 484.723999 417.570007 H 1043.070007 V 432.163008 H 484.723999 V 417.570007 Z" fill="#D8D9DA"/>
		</g>
		
			<path d="M 353.51001 432.162994 H 639.671021 V 610.832001 H 353.51001 V 432.162994 Z" transform="matrix(-1 -1.224647e-16 1.224647e-16 -1 993.1811 1042.9941)" fill="#0074B2"/>
		<path d="M 353.87799072265625 432.1629943847656 L 639.14697265625 432.1629943847656 L 639.14697265625 531.6749877929688 L 353.87799072265625 439.3500061035156 Z" fill="#005484"/>
		<g>
			<path d="M 333.872009 432.162994 H 465.162003 V 610.832001 H 333.872009 V 432.162994 Z" fill="#71D0F6"/>
		</g>
		<g>
			<g>
				<path d="M 336.756989 442.018005 H 462.276985 V 494.790005 H 336.756989 V 442.018005 Z" fill="#71D0F6"/>
				<path d="M 375.368011 464.454987 H 424.73201 V 471.995986 H 375.368011 V 464.454987 Z"/>
			</g>
			<g>
				<path d="M 336.756989 495.110992 H 462.276985 V 547.882992 H 336.756989 V 495.110992 Z" fill="#71D0F6"/>
				<path d="M 375.368011 516.171997 H 424.73201 V 523.712997 H 375.368011 V 516.171997 Z"/>
			</g>
			<g>
				<path d="M 336.756989 548.203979 H 462.276985 V 600.975979 H 336.756989 V 548.203979 Z" fill="#71D0F6"/>
				
					<path d="M 335.313995 495.110992 L 463.718994 495.110992" fill="none" stroke="#4D90AA" stroke-width="0.7187" stroke-miterlimit="10"/>
				
					<path d="M 335.313995 544.773987 L 463.718994 544.773987" fill="none" stroke="#4D90AA" stroke-width="0.7187" stroke-miterlimit="10"/>
				
					<path d="M 335.313995 594.437988 L 463.718994 594.437988" fill="none" stroke="#4D90AA" stroke-width="0.7187" stroke-miterlimit="10"/>
				
					<path d="M 335.313995 442.018005 L 463.718994 442.018005" fill="none" stroke="#4D90AA" stroke-width="0.7187" stroke-miterlimit="10"/>
				<path d="M 375.368011 565.835999 H 424.73201 V 573.376998 H 375.368011 V 565.835999 Z"/>
			</g>
		</g>
		<g>
			<path d="M 722.604004 432.162994 H 860.549011 V 610.832001 H 722.604004 V 432.162994 Z" fill="#71D0F6"/>
		</g>
		<path d="M 734.231995 432.162994 H 848.509995 V 610.832001 H 734.231995 V 432.162994 Z" fill="#0074B2"/>
		<path d="M 734.231995 486.752991 H 848.083992 V 495.351991 H 734.231995 V 486.752991 Z" fill="#71D0F6"/>
		<path d="M 734.231995 547.375977 H 848.083992 V 555.974977 H 734.231995 V 547.375977 Z" fill="#71D0F6"/>
		<g>
			<path d="M 318.037994 417.570007 H 876.384003 V 432.163008 H 318.037994 V 417.570007 Z" fill="#FFFFFF"/>
		</g>
	</g>
</g><g transform="matrix(0.09129928797483444, 0, 0, 0.09129928797483444, 196.8041835456354, 157.5806839042885)">
	<g>
		<path fill="#2E3133" d="M509.798,412.227h164.795c3.173,0,5.905,2.238,6.528,5.349l0,0H504.448l0,0&#10;&#9;&#9;&#9;C504.448,414.622,506.844,412.227,509.798,412.227z"/>
	</g>
	<g>
		<defs>
			<path id="SVGID_7_" d="M509.798,412.227h164.795c3.173,0,5.905,2.238,6.528,5.349l0,0H504.448l0,0&#10;&#9;&#9;&#9;&#9;C504.448,414.622,506.844,412.227,509.798,412.227z"/>
		</defs>
		<clipPath id="SVGID_8_">
			<use overflow="visible" xlink:href="#SVGID_7_"/>
		</clipPath>
		<g clip-path="url(#SVGID_8_)">
			<path fill="#424646" d="M661.399,412.227h92.533c3.173,0,5.905,2.238,6.528,5.349l0,0H656.049l0,0&#10;&#9;&#9;&#9;&#9;C656.049,414.622,658.444,412.227,661.399,412.227z"/>
		</g>
	</g>
</g><g transform="matrix(0.09129928797483444, 0, 0, 0.09129928797483444, 196.8041835456354, 157.5806839042885)">
	<g>
		<g>
			<path d="M 608.182983 541.208008 H 624.802984 V 614.172005 H 608.182983 V 541.208008 Z" fill="#00193B"/>
		</g>
		<g>
			<path fill="#00193B" d="M610.716,549.532h11.554c7.07,0,12.801-5.731,12.801-12.801v-27.828h-37.155v27.828&#10;&#9;&#9;&#9;&#9;C597.916,543.801,603.647,549.532,610.716,549.532z"/>
		</g>
		<g>
			<path fill="#002B4A" d="M557.499,508.903H692.58c6.924,0,12.538-5.613,12.538-12.538l0,0c0-6.924-5.613-12.538-12.538-12.538&#10;&#9;&#9;&#9;&#9;H557.499c-6.924,0-12.538,5.613-12.538,12.538l0,0C544.961,503.29,550.574,508.903,557.499,508.903z"/>
		</g>
		<g>
			<defs>
				<path id="SVGID_9_" d="M557.499,508.903H692.58c6.924,0,12.538-5.613,12.538-12.538l0,0c0-6.924-5.613-12.538-12.538-12.538&#10;&#9;&#9;&#9;&#9;&#9;H557.499c-6.924,0-12.538,5.613-12.538,12.538l0,0C544.961,503.29,550.574,508.903,557.499,508.903z"/>
			</defs>
			<clipPath id="SVGID_10_">
				<use overflow="visible" xlink:href="#SVGID_9_"/>
			</clipPath>
			<g clip-path="url(#SVGID_10_)">
				<path fill="#003866" d="M653.118,508.903h135.081c6.924,0,12.538-5.613,12.538-12.538l0,0c0-6.924-5.613-12.538-12.538-12.538&#10;&#9;&#9;&#9;&#9;&#9;H653.118c-6.924,0-12.538,5.613-12.538,12.538l0,0C640.58,503.29,646.194,508.903,653.118,508.903z"/>
			</g>
		</g>
		<g>
			<g>
				<path fill="#002B4A" d="M546.024,298.677h72.882c10.82,0,19.788,8.385,20.511,19.178l10.142,150.469&#10;&#9;&#9;&#9;&#9;&#9;c0.565,8.389-6.089,15.504-14.499,15.504h-85.723c-7.596,0-13.884-5.901-14.362-13.479l-9.467-149.846&#10;&#9;&#9;&#9;&#9;&#9;C524.772,308.674,534.17,298.677,546.024,298.677z"/>
			</g>
		</g>
		<g>
			<defs>
				<path id="SVGID_11_" d="M546.024,298.677h72.882c10.82,0,19.788,8.385,20.511,19.178l10.142,150.469&#10;&#9;&#9;&#9;&#9;&#9;c0.565,8.389-6.089,15.504-14.499,15.504h-85.723c-7.596,0-13.884-5.901-14.362-13.479l-9.467-149.846&#10;&#9;&#9;&#9;&#9;&#9;C524.772,308.674,534.17,298.677,546.024,298.677z"/>
			</defs>
			<clipPath id="SVGID_12_">
				<use overflow="visible" xlink:href="#SVGID_11_"/>
			</clipPath>
			<g clip-path="url(#SVGID_12_)">
				<g>
					<path fill="#003866" d="M637.051,298.677h72.882c10.82,0,19.788,8.385,20.511,19.178l10.142,150.469&#10;&#9;&#9;&#9;&#9;&#9;&#9;c0.565,8.389-6.089,15.504-14.499,15.504h-85.723c-7.596,0-13.883-5.901-14.362-13.479l-9.467-149.846&#10;&#9;&#9;&#9;&#9;&#9;&#9;C615.798,308.674,625.196,298.677,637.051,298.677z"/>
				</g>
			</g>
		</g>
	</g>
	<g>
		<path fill="#00193B" d="M570.078,628.116h92.83c3.851,0,6.972-3.121,6.972-6.972l0,0c0-3.851-3.122-6.972-6.972-6.972h-92.83&#10;&#9;&#9;&#9;c-3.851,0-6.972,3.122-6.972,6.972l0,0C563.106,624.995,566.228,628.116,570.078,628.116z"/>
	</g>
	<g>
		<path fill="#00193B" d="M590.735,628.116h51.516c3.391,0,6.139-2.749,6.139-6.139v-1.666c0-3.391-2.749-6.139-6.139-6.139h-51.516&#10;&#9;&#9;&#9;c-3.391,0-6.139,2.749-6.139,6.139v1.666C584.596,625.367,587.345,628.116,590.735,628.116z"/>
	</g>
	<g>
		<path d="M 674.049009 631.174988 A 8.914 8.911 0 0 1 665.13501 640.085988 A 8.914 8.911 0 0 1 656.22101 631.174988 A 8.914 8.911 0 0 1 665.13501 622.263988 A 8.914 8.911 0 0 1 674.049009 631.174988 Z" transform="matrix(1 -0.0015 0.0015 1 -0.9721 1.026)"/>
	</g>
	<g>
		<path d="M 649.736998 631.174988 A 8.914 8.911 0 0 1 640.822998 640.085988 A 8.914 8.911 0 0 1 631.908998 631.174988 A 8.914 8.911 0 0 1 640.822998 622.263988 A 8.914 8.911 0 0 1 649.736998 631.174988 Z" transform="matrix(1 -0.0015 0.0015 1 -0.9765 0.993)"/>
	</g>
	<g>
		<path d="M 600.992979 631.174988 A 8.914 8.911 0 0 1 592.078979 640.085988 A 8.914 8.911 0 0 1 583.16498 631.174988 A 8.914 8.911 0 0 1 592.078979 622.263988 A 8.914 8.911 0 0 1 600.992979 631.174988 Z" transform="matrix(1 -0.0016 0.0016 1 -0.999 0.9386)"/>
	</g>
	<g>
		<path d="M 576.681028 631.174988 A 8.914 8.911 0 0 1 567.767029 640.085988 A 8.914 8.911 0 0 1 558.853029 631.174988 A 8.914 8.911 0 0 1 567.767029 622.263988 A 8.914 8.911 0 0 1 576.681028 631.174988 Z" transform="matrix(1 -0.0015 0.0015 1 -0.9766 0.8799)"/>
	</g>
</g><g transform="matrix(0.09129928797483444, 0, 0, 0.09129928797483444, 196.8041835456354, 157.5806839042885)">
	<g>
		<g>
			<path fill="#1C9E7F" d="M947.78,355.013h-10.231c-4.663,0-9.258-4.435-9.258-9.098v-6.562c0-2.558,2.164-4.633,4.723-4.633&#10;&#9;&#9;&#9;&#9;s4.723,2.074,4.723,4.633v6.237c0,0.046,0.092-0.023,0.138-0.023h8.88c0.29-2.099,2.237-3.97,4.596-3.97&#10;&#9;&#9;&#9;&#9;c2.558,0,4.633,2.12,4.633,4.678C955.983,351.146,952.38,355.013,947.78,355.013z"/>
		</g>
		<g>
			<path fill="#1C9E7F" d="M958.902,374.955h10.231c4.663,0,9.014-4.25,9.014-8.912v-6.563c0-2.558-2.164-4.632-4.723-4.632&#10;&#9;&#9;&#9;&#9;s-4.723,2.074-4.723,4.632v6.238c0,0.046,0.153,0.316,0.107,0.316h-8.88c-0.29-2.099-2.237-4.139-4.596-4.139&#10;&#9;&#9;&#9;&#9;c-2.558,0-4.633,1.942-4.633,4.5C950.699,371.265,954.302,374.955,958.902,374.955z"/>
		</g>
		<g>
			<path fill="#1C9E7F" d="M962.927,380.465V335.33c0-5.65-4.58-10.23-10.23-10.23h-1.056c-5.65,0-10.23,4.581-10.23,10.23v45.135&#10;&#9;&#9;&#9;&#9;H962.927z"/>
		</g>
		<path d="M 968.81298828125 416.93798828125 L 936.9869995117188 416.93798828125 L 932.43798828125 389.64898681640625 L 973.0390014648438 389.64898681640625 Z" fill="#0074B2"/>
		<path d="M 929.341003 380.72699 H 974.997002 V 392.27199 H 929.341003 V 380.72699 Z" fill="#005484"/>
	</g>
</g><g transform="matrix(0.09129928797483444, 0, 0, 0.09129928797483444, 196.8041835456354, 157.5806839042885)">
	<g>
		<path fill="#FFFFFF" d="M861.048,391.155h-5.197c-2.609,0-4.725,2.115-4.725,4.725v10.394c0,2.61,2.115,4.725,4.725,4.725h5.197&#10;&#9;&#9;&#9;c2.609,0,4.725-2.115,4.725-4.725V395.88C865.772,393.27,863.657,391.155,861.048,391.155z M862.465,404.353&#10;&#9;&#9;&#9;c0,1.576-1.399,2.866-2.974,2.866h-3.138c-1.575,0-2.865-1.29-2.865-2.866v-6.275c0-1.575,1.29-2.671,2.865-2.671h3.138&#10;&#9;&#9;&#9;c1.575,0,2.974,1.095,2.974,2.671V404.353z"/>
		<path fill="#FFFFFF" d="M828.157,385.388v27.403c0,2.61,2.115,4.725,4.725,4.725h18.426c2.609,0,4.725-2.115,4.725-4.725v-27.403&#10;&#9;&#9;&#9;H828.157z"/>
		<g>
			<g>
				<path fill="#FF6A45" d="M838.64,405.022c0,0.71,0.497,0.988,1.104,0.619l5.755-3.517c0.608-0.37,0.608-0.977,0-1.346&#10;&#9;&#9;&#9;&#9;&#9;l-5.755-3.516c-0.607-0.37-1.104-0.093-1.104,0.619V405.022z"/>
			</g>
		</g>
	</g>
</g><path d="M 162.980224609375 85.87197875976562 C 162.6068878173828 85.031982421875 162.42022705078125 84.04198455810547 162.42022705078125 82.9019775390625 C 162.42022705078125 81.75531768798828 162.6035614013672 80.74198150634766 162.97023010253906 79.86198425292969 C 163.33688354492188 78.98197937011719 163.84022521972656 78.22198486328125 164.480224609375 77.58198547363281 C 165.84022521972656 76.24864959716797 167.54354858398438 75.58198547363281 169.59022521972656 75.58198547363281 C 171.730224609375 75.58198547363281 173.49356079101562 76.0753173828125 174.88021850585938 77.06198120117188 C 176.44688415527344 78.18864440917969 177.230224609375 79.79864501953125 177.230224609375 81.89198303222656 C 177.230224609375 84.48531341552734 176.63356018066406 86.39865112304688 175.44021606445312 87.6319808959961 C 174.24021911621094 88.86531829833984 172.37689208984375 89.48197937011719 169.8502197265625 89.48197937011719 C 166.33021545410156 89.48197937011719 164.04022216796875 88.27864837646484 162.980224609375 85.87197875976562 M 164.34022521972656 82.4319839477539 C 164.34022521972656 86.11864471435547 166.20022583007812 87.96198272705078 169.92022705078125 87.96198272705078 C 171.74688720703125 87.96198272705078 173.230224609375 87.41531372070312 174.37022399902344 86.32198333740234 C 175.51022338867188 85.24198150634766 176.08023071289062 83.82865142822266 176.08023071289062 82.08197784423828 C 176.08023071289062 80.43531799316406 175.4002227783203 79.18531799316406 174.04022216796875 78.33198547363281 C 172.8868865966797 77.57864379882812 171.42689514160156 77.20198059082031 169.66021728515625 77.20198059082031 C 168.25355529785156 77.20198059082031 167.01022338867188 77.70864868164062 165.9302215576172 78.72198486328125 C 164.87022399902344 79.74198150634766 164.34022521972656 80.97864532470703 164.34022521972656 82.4319839477539 ZM 192.06832885742188 81.98197937011719 C 192.14166259765625 81.98197937011719 192.17832946777344 82.19197845458984 192.17832946777344 82.61198425292969 C 192.17832946777344 83.03865051269531 192.1949920654297 83.32865142822266 192.22833251953125 83.48197937011719 L 184.18833923339844 84.47198486328125 L 184.60833740234375 89.67198181152344 L 182.7083282470703 89.58197784423828 C 182.7083282470703 88.1753158569336 182.55499267578125 86.56531524658203 182.2483367919922 84.75198364257812 L 179.19833374023438 85.92198181152344 C 178.99166870117188 85.92198181152344 178.81832885742188 85.80531311035156 178.67832946777344 85.57198333740234 C 178.43167114257812 85.16531372070312 178.30833435058594 84.79864501953125 178.30833435058594 84.47198486328125 L 181.8683319091797 83.20198059082031 C 181.55499267578125 80.51531219482422 181.39833068847656 78.33198547363281 181.39833068847656 76.6519775390625 C 181.39833068847656 74.97198486328125 181.538330078125 73.66197967529297 181.81832885742188 72.72198486328125 C 182.10499572753906 71.78865051269531 182.51499938964844 71.16197967529297 183.04833984375 70.84197998046875 C 183.5883331298828 70.52198028564453 184.1649932861328 70.36198425292969 184.77833557128906 70.36198425292969 C 185.38499450683594 70.36198425292969 186.0050048828125 70.49531555175781 186.63833618164062 70.76197814941406 C 187.27166748046875 71.02198028564453 187.87832641601562 71.35531616210938 188.4583282470703 71.76197814941406 C 189.0316619873047 72.16864776611328 189.52166748046875 72.62531280517578 189.92832946777344 73.1319808959961 C 190.33499145507812 73.64531707763672 190.538330078125 74.14198303222656 190.538330078125 74.62197875976562 C 190.538330078125 74.99531555175781 190.5016632080078 75.26197814941406 190.42832946777344 75.42198181152344 C 189.80166625976562 74.54864501953125 189.0416717529297 73.76864624023438 188.14833068847656 73.08198547363281 C 187.0883331298828 72.26864624023438 186.0883331298828 71.86198425292969 185.14833068847656 71.86198425292969 C 184.2616729736328 71.86198425292969 183.6683349609375 72.49531555175781 183.3683319091797 73.76197814941406 C 183.22833251953125 74.41531372070312 183.1583251953125 75.3386459350586 183.1583251953125 76.531982421875 C 183.1583251953125 77.73197937011719 183.18833923339844 78.8253173828125 183.2483367919922 79.81198120117188 C 183.31500244140625 80.80531311035156 183.5050048828125 81.8019790649414 183.81832885742188 82.8019790649414 C 184.78500366210938 82.8019790649414 185.8683319091797 82.71531677246094 187.06832885742188 82.54198455810547 C 189.3816680908203 82.18864440917969 191.04833984375 82.00198364257812 192.06832885742188 81.98197937011719 ZM 194.9683074951172 78.79197692871094 C 195.1749725341797 81.7186508178711 195.34829711914062 85.10198211669922 195.48829650878906 88.94197845458984 C 195.3949737548828 89.42864990234375 195.01829528808594 89.67198181152344 194.35830688476562 89.67198181152344 C 194.19163513183594 89.67198181152344 194.01829528808594 89.63531494140625 193.8383026123047 89.56198120117188 C 193.65829467773438 89.49531555175781 193.5449676513672 89.39865112304688 193.49830627441406 89.27198028564453 L 193.49830627441406 78.79197692871094 L 194.9683074951172 78.79197692871094 M 192.78829956054688 75.61198425292969 C 192.78829956054688 75.06531524658203 193.10830688476562 74.79197692871094 193.74830627441406 74.79197692871094 C 194.1749725341797 74.79197692871094 194.51829528808594 74.88531494140625 194.77830505371094 75.07198333740234 C 194.83163452148438 75.24531555175781 194.85830688476562 75.41197967529297 194.85830688476562 75.57198333740234 C 194.85830688476562 75.7386474609375 194.7949676513672 75.89865112304688 194.66830444335938 76.0519790649414 C 194.54164123535156 76.21198272705078 194.35496520996094 76.29197692871094 194.10830688476562 76.29197692871094 C 193.85496520996094 76.29197692871094 193.60496520996094 76.23197937011719 193.35830688476562 76.11198425292969 C 193.10496520996094 75.99198150634766 192.9149627685547 75.8253173828125 192.78829956054688 75.61198425292969 ZM 205.9711151123047 87.34197998046875 C 205.9711151123047 87.34197998046875 206.13111877441406 87.27531433105469 206.45111083984375 87.14198303222656 C 206.7644500732422 87.01531219482422 207.227783203125 86.84197998046875 207.8411102294922 86.62197875976562 C 208.44778442382812 86.4019775390625 209.0277862548828 86.29198455810547 209.58111572265625 86.29198455810547 C 210.1344451904297 86.29198455810547 210.41111755371094 86.46531677246094 210.41111755371094 86.81198120117188 C 210.41111755371094 86.89198303222656 210.3944549560547 87.01197814941406 210.36111450195312 87.17198181152344 C 210.3211212158203 87.3386459350586 210.1077880859375 87.53531646728516 209.7211151123047 87.76197814941406 C 209.3411102294922 87.9886474609375 208.87445068359375 88.20198059082031 208.3211212158203 88.4019775390625 C 207.7677764892578 88.60865020751953 207.16111755371094 88.79864501953125 206.50111389160156 88.97198486328125 C 205.8477783203125 89.1386489868164 205.20777893066406 89.28531646728516 204.58111572265625 89.41197967529297 C 203.28111267089844 89.67864990234375 202.3577880859375 89.81198120117188 201.8111114501953 89.81198120117188 C 201.2644500732422 89.81198120117188 200.67445373535156 89.74864959716797 200.04110717773438 89.62197875976562 C 199.40777587890625 89.49531555175781 198.81777954101562 89.29198455810547 198.2711181640625 89.01197814941406 C 197.0111083984375 88.35865020751953 196.38111877441406 87.39198303222656 196.38111877441406 86.11198425292969 C 196.38111877441406 86.01864624023438 196.38111877441406 85.82865142822266 196.38111877441406 85.54198455810547 C 196.38111877441406 85.26197814941406 196.49778747558594 84.86198425292969 196.73110961914062 84.34197998046875 C 196.96444702148438 83.81531524658203 197.314453125 83.29198455810547 197.78111267089844 82.77198028564453 C 198.25445556640625 82.24531555175781 198.80111694335938 81.76531219482422 199.42111206054688 81.33198547363281 C 200.7344512939453 80.39198303222656 202.11111450195312 79.781982421875 203.55111694335938 79.50198364257812 C 204.05111694335938 79.3886489868164 204.4677734375 79.33198547363281 204.80111694335938 79.33198547363281 C 205.14111328125 79.33198547363281 205.41778564453125 79.3386459350586 205.63111877441406 79.35198211669922 C 205.8511199951172 79.35865020751953 206.07777404785156 79.37197875976562 206.3111114501953 79.39198303222656 C 206.54444885253906 79.41864776611328 206.74778747558594 79.47864532470703 206.92111206054688 79.57198333740234 C 207.32777404785156 79.77198028564453 207.53111267089844 80.16864776611328 207.53111267089844 80.76197814941406 C 207.53111267089844 81.14198303222656 207.2677764892578 81.50865173339844 206.74111938476562 81.86198425292969 C 206.59445190429688 81.96198272705078 206.4677734375 82.04864501953125 206.36111450195312 82.12197875976562 C 206.28111267089844 81.76197814941406 206.18112182617188 81.45864868164062 206.0611114501953 81.21198272705078 C 205.9344482421875 80.95864868164062 205.66111755371094 80.83198547363281 205.24111938476562 80.83198547363281 C 203.3944549560547 81.22531127929688 201.8077850341797 81.81198120117188 200.48110961914062 82.59197998046875 C 198.98110961914062 83.48531341552734 198.23110961914062 84.42198181152344 198.23110961914062 85.4019775390625 C 198.23110961914062 85.51531219482422 198.23777770996094 85.63531494140625 198.25111389160156 85.76197814941406 C 198.25111389160156 86.76197814941406 198.6344451904297 87.47198486328125 199.40110778808594 87.89198303222656 C 199.98110961914062 88.20531463623047 200.727783203125 88.36198425292969 201.64111328125 88.36198425292969 C 202.554443359375 88.36198425292969 203.3477783203125 88.25531768798828 204.0211181640625 88.04198455810547 C 204.68777465820312 87.82865142822266 205.33778381347656 87.5953140258789 205.9711151123047 87.34197998046875 ZM 213.78858947753906 78.79197692871094 C 213.99525451660156 81.7186508178711 214.1685791015625 85.10198211669922 214.30857849121094 88.94197845458984 C 214.2152557373047 89.42864990234375 213.8385772705078 89.67198181152344 213.1785888671875 89.67198181152344 C 213.0119171142578 89.67198181152344 212.8385772705078 89.63531494140625 212.65858459472656 89.56198120117188 C 212.47857666015625 89.49531555175781 212.36524963378906 89.39865112304688 212.31858825683594 89.27198028564453 L 212.31858825683594 78.79197692871094 L 213.78858947753906 78.79197692871094 M 211.60858154296875 75.61198425292969 C 211.60858154296875 75.06531524658203 211.9285888671875 74.79197692871094 212.56858825683594 74.79197692871094 C 212.99525451660156 74.79197692871094 213.3385772705078 74.88531494140625 213.5985870361328 75.07198333740234 C 213.65191650390625 75.24531555175781 213.6785888671875 75.41197967529297 213.6785888671875 75.57198333740234 C 213.6785888671875 75.7386474609375 213.61524963378906 75.89865112304688 213.48858642578125 76.0519790649414 C 213.36192321777344 76.21198272705078 213.1752471923828 76.29197692871094 212.9285888671875 76.29197692871094 C 212.6752471923828 76.29197692871094 212.4252471923828 76.23197937011719 212.1785888671875 76.11198425292969 C 211.9252471923828 75.99198150634766 211.73524475097656 75.8253173828125 211.60858154296875 75.61198425292969 ZM 224.45140075683594 84.6819839477539 C 224.45140075683594 82.82198333740234 224.3513946533203 81.45531463623047 224.15139770507812 80.58198547363281 C 224.27806091308594 80.34197998046875 224.09140014648438 80.22198486328125 223.59140014648438 80.22198486328125 C 223.0580596923828 80.22198486328125 222.36805725097656 80.35531616210938 221.52139282226562 80.62197875976562 C 220.681396484375 80.8886489868164 219.99473571777344 81.15531158447266 219.46139526367188 81.42198181152344 C 218.19473266601562 82.02864837646484 217.49139404296875 82.62197875976562 217.3513946533203 83.20198059082031 L 217.3513946533203 89.58197784423828 L 215.78140258789062 89.58197784423828 C 215.58139038085938 89.04864501953125 215.4813995361328 87.55531311035156 215.4813995361328 85.10198211669922 C 215.4813995361328 82.91531372070312 215.5247344970703 81.30531311035156 215.61138916015625 80.27198028564453 C 215.69139099121094 79.2386474609375 215.758056640625 78.6519775390625 215.8114013671875 78.51197814941406 C 216.21139526367188 78.24531555175781 216.53807067871094 78.11198425292969 216.79139709472656 78.11198425292969 C 217.18472290039062 78.11198425292969 217.3813934326172 78.5753173828125 217.3813934326172 79.50198364257812 C 217.3813934326172 79.86198425292969 217.36138916015625 80.20864868164062 217.32139587402344 80.54197692871094 C 217.28140258789062 80.87531280517578 217.2613983154297 81.10531616210938 217.2613983154297 81.23197937011719 C 219.7947235107422 79.37197875976562 221.75473022460938 78.44197845458984 223.1414031982422 78.44197845458984 C 224.7213897705078 78.44197845458984 225.62139892578125 79.71531677246094 225.84140014648438 82.26197814941406 C 225.93472290039062 83.15531158447266 225.9813995361328 84.39198303222656 225.9813995361328 85.97198486328125 L 225.95140075683594 87.82198333740234 C 225.95140075683594 88.50865173339844 225.9680633544922 89.17198181152344 226.00140380859375 89.81198120117188 C 225.8480682373047 89.90531158447266 225.7247314453125 89.95198059082031 225.6313934326172 89.95198059082031 C 225.58473205566406 89.93864440917969 225.4813995361328 89.91531372070312 225.32139587402344 89.8819808959961 C 225.16806030273438 89.84864807128906 224.96473693847656 89.8253173828125 224.71139526367188 89.81198120117188 C 224.5580596923828 89.18531799316406 224.4713897705078 88.54864501953125 224.45140075683594 87.9019775390625 C 224.4380645751953 87.25531768798828 224.431396484375 86.65864562988281 224.431396484375 86.11198425292969 L 224.45140075683594 84.6819839477539 ZM 236.5213623046875 85.92198181152344 C 235.35470581054688 87.76197814941406 233.79469299316406 88.9019775390625 231.84136962890625 89.34197998046875 C 231.38803100585938 89.43531799316406 230.97802734375 89.48197937011719 230.61135864257812 89.48197937011719 C 230.2447052001953 89.48197937011719 229.9380340576172 89.47864532470703 229.6913604736328 89.47198486328125 C 229.4513702392578 89.46531677246094 229.18136596679688 89.42864990234375 228.88136291503906 89.36198425292969 C 228.58802795410156 89.3019790649414 228.314697265625 89.20198059082031 228.06137084960938 89.06198120117188 C 227.488037109375 88.73531341552734 227.2013702392578 88.27531433105469 227.2013702392578 87.6819839477539 C 227.13470458984375 87.4019775390625 227.1013641357422 87.08531188964844 227.1013641357422 86.73197937011719 C 227.1013641357422 86.37864685058594 227.18136596679688 85.91197967529297 227.34136962890625 85.33197784423828 C 227.4947052001953 84.75865173339844 227.7780303955078 84.13531494140625 228.1913604736328 83.46198272705078 C 228.60470581054688 82.78865051269531 229.1080322265625 82.17198181152344 229.7013702392578 81.61198425292969 C 230.9413604736328 80.4253158569336 232.2780303955078 79.65864562988281 233.71136474609375 79.31198120117188 C 234.13136291503906 79.2186508178711 234.51803588867188 79.17198181152344 234.87136840820312 79.17198181152344 C 235.22470092773438 79.17198181152344 235.54136657714844 79.1953125 235.8213653564453 79.24198150634766 C 236.72802734375 79.24198150634766 237.33802795410156 79.85865020751953 237.6513671875 81.09197998046875 C 237.8513641357422 81.87197875976562 237.9713592529297 82.96198272705078 238.01136779785156 84.36198425292969 C 238.05136108398438 85.76197814941406 238.09136962890625 86.84197998046875 238.13136291503906 87.60198211669922 C 238.17137145996094 88.35531616210938 238.26803588867188 89.0453109741211 238.42137145996094 89.67198181152344 L 237.04136657714844 89.67198181152344 C 236.9813690185547 89.25198364257812 236.9346923828125 88.87531280517578 236.9013671875 88.54198455810547 C 236.86802673339844 88.21531677246094 236.83802795410156 87.91197967529297 236.81137084960938 87.6319808959961 C 236.7313690185547 86.97864532470703 236.63470458984375 86.40864562988281 236.5213623046875 85.92198181152344 M 236.43136596679688 82.29198455810547 C 236.43136596679688 81.38531494140625 235.9846954345703 80.9319839477539 235.09136962890625 80.9319839477539 C 234.9846954345703 80.91197967529297 234.87803649902344 80.9019775390625 234.7713623046875 80.9019775390625 C 233.63136291503906 80.9019775390625 232.42803955078125 81.44864654541016 231.16136169433594 82.54198455810547 C 230.5680389404297 83.04198455810547 230.0580291748047 83.60531616210938 229.63136291503906 84.23197937011719 C 229.01136779785156 85.12531280517578 228.7013702392578 85.92198181152344 228.7013702392578 86.62197875976562 C 228.7013702392578 87.54864501953125 229.2313690185547 88.0953140258789 230.29136657714844 88.26197814941406 C 231.69802856445312 88.23531341552734 233.04136657714844 87.5953140258789 234.3213653564453 86.34197998046875 C 234.86802673339844 85.7953109741211 235.3213653564453 85.20198059082031 235.68136596679688 84.56198120117188 C 236.18136596679688 83.70198059082031 236.43136596679688 82.9453125 236.43136596679688 82.29198455810547 Z" transform="matrix(1.309342622756958, 0, 0, 1.309342622756958, -52.54109191894531, -49.75652313232422)" style="fill: rgb(51, 51, 51); white-space: pre; color: rgb(51, 51, 51);"/><path d="M 182.1544952392578 108.15145111083984 L 182.80450439453125 108.15145111083984 C 183.0711669921875 108.15145111083984 183.3278350830078 108.17478942871094 183.57449340820312 108.22145080566406 C 183.8144989013672 108.26811981201172 183.9344940185547 108.44145202636719 183.9344940185547 108.741455078125 C 184.04116821289062 109.36811828613281 183.67449951171875 109.67145538330078 182.83450317382812 109.65145111083984 C 182.60116577148438 109.63812255859375 182.38450622558594 109.62145233154297 182.1844940185547 109.60145568847656 C 181.9911651611328 109.58811950683594 181.83116149902344 109.58478546142578 181.70449829101562 109.5914535522461 C 181.5778350830078 109.5981216430664 181.52450561523438 109.64144897460938 181.54449462890625 109.72145080566406 C 181.6978302001953 110.17478942871094 181.864501953125 110.68478393554688 182.04449462890625 111.25144958496094 C 182.22450256347656 111.81145477294922 182.42449951171875 112.37145233154297 182.64450073242188 112.93144989013672 C 183.20449829101562 114.32478332519531 183.7344970703125 115.32478332519531 184.2344970703125 115.93144989013672 C 183.96783447265625 116.26478576660156 183.66116333007812 116.53811645507812 183.3144989013672 116.75144958496094 C 182.96116638183594 116.97145080566406 182.7711639404297 117.08145141601562 182.7445068359375 117.08145141601562 C 182.72450256347656 117.08145141601562 182.7078399658203 117.07478332519531 182.6945037841797 117.06145477294922 L 179.38450622558594 110.10145568847656 L 172.9844970703125 111.67145538330078 L 172.75450134277344 112.65145111083984 C 172.30116271972656 114.45145416259766 171.79449462890625 115.70145416259766 171.2344970703125 116.40145111083984 C 171.13450622558594 116.56145477294922 170.93783569335938 116.57811737060547 170.64450073242188 116.45145416259766 C 170.14450073242188 116.26478576660156 169.89450073242188 116.10811614990234 169.89450073242188 115.98145294189453 C 169.89450073242188 115.9481201171875 170.05783081054688 115.49478912353516 170.38450622558594 114.62145233154297 C 170.71116638183594 113.74812316894531 171.04449462890625 112.8614501953125 171.38450622558594 111.96145629882812 C 171.71783447265625 111.06145477294922 172.06784057617188 110.12145233154297 172.4344940185547 109.14144897460938 C 172.80116271972656 108.15478515625 173.1511688232422 107.21478271484375 173.4844970703125 106.32145690917969 C 173.81117248535156 105.43478393554688 174.1078338623047 104.6347885131836 174.37449645996094 103.92145538330078 C 174.63450622558594 103.20812225341797 174.8211669921875 102.69145202636719 174.9344940185547 102.37145233154297 C 175.04116821289062 102.05145263671875 175.114501953125 101.77145385742188 175.1544952392578 101.53145599365234 C 175.1945037841797 101.29145050048828 175.25450134277344 101.08478546142578 175.33450317382812 100.91145324707031 C 175.4878387451172 100.55145263671875 175.87783813476562 100.37145233154297 176.50450134277344 100.37145233154297 C 177.17782592773438 100.74478912353516 177.6978302001953 101.23478698730469 178.0644989013672 101.8414535522461 C 178.43116760253906 102.44145202636719 178.7411651611328 103.08478546142578 178.9945068359375 103.77145385742188 C 179.25450134277344 104.45812225341797 179.51116943359375 105.15145111083984 179.76449584960938 105.85145568847656 C 180.01116943359375 106.55812072753906 180.34449768066406 107.20145416259766 180.76449584960938 107.78145599365234 C 180.91116333007812 107.99478912353516 181.12449645996094 108.1114501953125 181.4044952392578 108.13145446777344 C 181.6844940185547 108.14478302001953 181.9344940185547 108.15145111083984 182.1544952392578 108.15145111083984 M 176.29449462890625 103.0914535522461 C 176.16783142089844 104.04478454589844 175.88450622558594 105.02145385742188 175.4445037841797 106.02145385742188 C 175.01116943359375 107.02145385742188 174.66116333007812 107.7981185913086 174.39450073242188 108.35145568847656 C 174.12783813476562 108.90478515625 173.9011688232422 109.41812133789062 173.71449279785156 109.89144897460938 C 174.77450561523438 109.89144897460938 176.0778350830078 109.57811737060547 177.62449645996094 108.95145416259766 C 178.01783752441406 108.77812194824219 178.39450073242188 108.62145233154297 178.75450134277344 108.48145294189453 C 178.0211639404297 105.3414535522461 177.201171875 103.54478454589844 176.29449462890625 103.0914535522461 ZM 196.37637329101562 97.91145324707031 C 196.37637329101562 99.41145324707031 196.33303833007812 100.87478637695312 196.24636840820312 102.30145263671875 C 196.15969848632812 103.73478698730469 196.08303833007812 105.1347885131836 196.01637268066406 106.50144958496094 C 195.9430389404297 107.86811828613281 195.9063720703125 109.32145690917969 195.9063720703125 110.8614501953125 C 195.9063720703125 112.40145111083984 196.01637268066406 114.03145599365234 196.2363739013672 115.75144958496094 C 196.2363739013672 116.10478973388672 196.16970825195312 116.3614501953125 196.036376953125 116.52145385742188 C 195.90304565429688 116.67478942871094 195.67970275878906 116.75144958496094 195.3663787841797 116.75144958496094 C 194.63304138183594 116.75144958496094 194.26637268066406 116.14478302001953 194.26637268066406 114.93144989013672 L 194.26637268066406 114.15145111083984 C 192.04637145996094 115.81145477294922 190.16970825195312 116.6414566040039 188.63636779785156 116.6414566040039 C 188.0297088623047 116.6414566040039 187.40969848632812 116.491455078125 186.7763671875 116.19145202636719 C 186.14303588867188 115.89811706542969 185.54637145996094 115.2981185913086 184.9863739013672 114.3914566040039 C 184.9063720703125 114.0114517211914 184.8663787841797 113.62812042236328 184.8663787841797 113.241455078125 C 184.8663787841797 112.8481216430664 184.93971252441406 112.37478637695312 185.08636474609375 111.82145690917969 C 185.2397003173828 111.26811981201172 185.54637145996094 110.69478607177734 186.00637817382812 110.10145568847656 C 186.46636962890625 109.50811767578125 187.02304077148438 108.98478698730469 187.67637634277344 108.53145599365234 C 189.1163787841797 107.55812072753906 190.67303466796875 107.07145690917969 192.34637451171875 107.07145690917969 C 193.06637573242188 107.07145690917969 193.75303649902344 107.18144989013672 194.4063720703125 107.40145111083984 C 194.4063720703125 107.12145233154297 194.42637634277344 106.63145446777344 194.46636962890625 105.93144989013672 C 194.50637817382812 105.22478485107422 194.54971313476562 104.48145294189453 194.59637451171875 103.70145416259766 C 194.68971252441406 101.66812133789062 194.75303649902344 100.4681167602539 194.786376953125 100.10145568847656 C 194.8130340576172 99.73478698730469 194.85304260253906 99.42145538330078 194.9063720703125 99.16145324707031 C 194.96636962890625 98.90811920166016 195.04971313476562 98.68811798095703 195.1563720703125 98.50144958496094 C 195.38970947265625 98.10812377929688 195.79637145996094 97.91145324707031 196.37637329101562 97.91145324707031 M 186.5763702392578 113.05145263671875 C 186.5763702392578 114.2847900390625 187.02304077148438 114.90145111083984 187.91636657714844 114.90145111083984 C 188.05636596679688 114.90145111083984 188.21304321289062 114.8847885131836 188.38636779785156 114.85145568847656 C 189.0263671875 114.85145568847656 189.8130340576172 114.66478729248047 190.74636840820312 114.29145050048828 C 192.5330352783203 113.5914535522461 193.6197052001953 112.98145294189453 194.00637817382812 112.46145629882812 L 194.00637817382812 109.35145568847656 C 194.00637817382812 108.8047866821289 193.5630340576172 108.53145599365234 192.67637634277344 108.53145599365234 C 192.5630340576172 108.5114517211914 192.41636657714844 108.50144958496094 192.2363739013672 108.50144958496094 C 192.05636596679688 108.50144958496094 191.7797088623047 108.54145050048828 191.4063720703125 108.62145233154297 C 191.0330352783203 108.70145416259766 190.60971069335938 108.8414535522461 190.13636779785156 109.04145050048828 C 189.66970825195312 109.24812316894531 189.20970153808594 109.49812316894531 188.75637817382812 109.79145050048828 C 187.80303955078125 110.43144989013672 187.14637756347656 111.18144989013672 186.786376953125 112.04145050048828 C 186.64637756347656 112.36811828613281 186.5763702392578 112.70478820800781 186.5763702392578 113.05145263671875 ZM 199.53857421875 116.35145568847656 C 198.89857482910156 116.61811828613281 198.47190856933594 116.75144958496094 198.25857543945312 116.75144958496094 C 198.0452423095703 116.75144958496094 197.9019012451172 116.72811889648438 197.8285675048828 116.68144989013672 C 197.74856567382812 116.6347885131836 197.6619110107422 116.52478790283203 197.56857299804688 116.35145568847656 C 197.56857299804688 115.83811950683594 197.5885772705078 115.19145202636719 197.62857055664062 114.41145324707031 C 197.6685791015625 113.63145446777344 197.701904296875 112.79478454589844 197.72857666015625 111.90145111083984 C 197.76190185546875 111.01478576660156 197.77857971191406 110.11811828613281 197.77857971191406 109.21145629882812 C 197.77857971191406 108.3047866821289 197.73190307617188 107.47478485107422 197.63856506347656 106.72145080566406 C 197.63856506347656 106.22145080566406 197.97523498535156 105.97145080566406 198.64857482910156 105.97145080566406 C 198.80191040039062 105.97145080566406 198.92190551757812 106.2547836303711 199.00857543945312 106.82145690917969 C 199.09524536132812 107.38145446777344 199.1585693359375 107.81812286376953 199.19857788085938 108.13145446777344 C 199.2385711669922 108.44478607177734 199.27191162109375 108.67145538330078 199.29856872558594 108.81145477294922 C 199.7052459716797 108.07811737060547 200.51190185546875 107.49812316894531 201.71856689453125 107.07145690917969 C 202.3585662841797 106.87145233154297 202.9585723876953 106.77145385742188 203.51856994628906 106.77145385742188 C 204.08523559570312 106.77145385742188 204.5819091796875 106.83811950683594 205.00857543945312 106.97145080566406 C 205.44190979003906 107.10478210449219 205.80857849121094 107.34478759765625 206.1085662841797 107.69145202636719 C 206.4152374267578 108.04478454589844 206.56857299804688 108.5114517211914 206.56857299804688 109.0914535522461 C 206.97523498535156 108.32478332519531 207.88858032226562 107.63812255859375 209.30857849121094 107.03145599365234 C 210.6085662841797 106.45145416259766 211.77191162109375 106.16145324707031 212.79856872558594 106.16145324707031 C 214.2852325439453 106.16145324707031 215.01190185546875 106.72478485107422 214.97857666015625 107.85145568847656 L 215.47857666015625 116.57144927978516 C 215.47857666015625 116.64478302001953 215.2519073486328 116.6981201171875 214.79856872558594 116.73145294189453 C 213.9185791015625 116.79145050048828 213.47857666015625 116.71478271484375 213.47857666015625 116.50144958496094 C 213.46524047851562 116.18811798095703 213.4585723876953 115.87478637695312 213.4585723876953 115.56145477294922 L 213.5785675048828 111.78145599365234 C 213.5785675048828 110.02145385742188 213.40524291992188 108.62478637695312 213.05857849121094 107.5914535522461 C 212.02523803710938 107.67145538330078 211.23190307617188 107.83811950683594 210.67857360839844 108.0914535522461 C 210.125244140625 108.35145568847656 209.63858032226562 108.67145538330078 209.21856689453125 109.05145263671875 C 208.79856872558594 109.43811798095703 208.42190551757812 109.95145416259766 208.0885772705078 110.5914535522461 C 207.35523986816406 112.03145599365234 206.9885711669922 113.93811798095703 206.9885711669922 116.31145477294922 C 206.89523315429688 116.63812255859375 206.59190368652344 116.80145263671875 206.0785675048828 116.80145263671875 C 205.73190307617188 116.80145263671875 205.44857788085938 116.741455078125 205.22857666015625 116.62145233154297 C 205.01524353027344 116.50811767578125 204.93190002441406 116.40478515625 204.97857666015625 116.31145477294922 C 205.27191162109375 114.65145111083984 205.4185791015625 113.3614501953125 205.4185791015625 112.44145202636719 C 205.4185791015625 111.70812225341797 205.34524536132812 111.00811767578125 205.19857788085938 110.3414535522461 C 205.05191040039062 109.68144989013672 204.8685760498047 108.92145538330078 204.64857482910156 108.06145477294922 C 202.39523315429688 108.06145477294922 200.87857055664062 108.95812225341797 200.09857177734375 110.75144958496094 C 199.75857543945312 111.55145263671875 199.56857299804688 112.2981185913086 199.52857971191406 112.991455078125 C 199.4885711669922 113.68478393554688 199.46856689453125 114.27812194824219 199.46856689453125 114.77145385742188 C 199.46856689453125 115.26478576660156 199.49191284179688 115.79145050048828 199.53857421875 116.35145568847656 ZM 218.3744659423828 105.71145629882812 C 218.5811309814453 108.63812255859375 218.75445556640625 112.02145385742188 218.8944549560547 115.8614501953125 C 218.80113220214844 116.3481216430664 218.42445373535156 116.5914535522461 217.76446533203125 116.5914535522461 C 217.59779357910156 116.5914535522461 217.42445373535156 116.5547866821289 217.2444610595703 116.48145294189453 C 217.064453125 116.41478729248047 216.9511260986328 116.31812286376953 216.9044647216797 116.19145202636719 L 216.9044647216797 105.71145629882812 L 218.3744659423828 105.71145629882812 M 216.1944580078125 102.53145599365234 C 216.1944580078125 101.98478698730469 216.51446533203125 101.71145629882812 217.1544647216797 101.71145629882812 C 217.5811309814453 101.71145629882812 217.92445373535156 101.8047866821289 218.18446350097656 101.991455078125 C 218.23779296875 102.16478729248047 218.26446533203125 102.33145141601562 218.26446533203125 102.491455078125 C 218.26446533203125 102.65811920166016 218.2011260986328 102.81812286376953 218.074462890625 102.97145080566406 C 217.9477996826172 103.13145446777344 217.76112365722656 103.21145629882812 217.51446533203125 103.21145629882812 C 217.26112365722656 103.21145629882812 217.01112365722656 103.15145111083984 216.76446533203125 103.03145599365234 C 216.51112365722656 102.91145324707031 216.3211212158203 102.74478912353516 216.1944580078125 102.53145599365234 ZM 229.0365447998047 111.60145568847656 C 229.0365447998047 109.741455078125 228.93653869628906 108.37478637695312 228.73654174804688 107.50144958496094 C 228.8632049560547 107.2614517211914 228.67654418945312 107.14144897460938 228.17654418945312 107.14144897460938 C 227.64320373535156 107.14144897460938 226.9532012939453 107.27478790283203 226.10653686523438 107.54145050048828 C 225.26654052734375 107.80812072753906 224.5798797607422 108.07478332519531 224.04653930664062 108.3414535522461 C 222.77987670898438 108.9481201171875 222.0765380859375 109.54145050048828 221.93653869628906 110.12145233154297 L 221.93653869628906 116.50144958496094 L 220.36654663085938 116.50144958496094 C 220.16653442382812 115.9681167602539 220.06654357910156 114.47478485107422 220.06654357910156 112.02145385742188 C 220.06654357910156 109.83478546142578 220.10987854003906 108.22478485107422 220.196533203125 107.19145202636719 C 220.2765350341797 106.15811920166016 220.34320068359375 105.57145690917969 220.39654541015625 105.43144989013672 C 220.79653930664062 105.16478729248047 221.1232147216797 105.03145599365234 221.3765411376953 105.03145599365234 C 221.76986694335938 105.03145599365234 221.96653747558594 105.49478912353516 221.96653747558594 106.42145538330078 C 221.96653747558594 106.78145599365234 221.946533203125 107.12812042236328 221.9065399169922 107.46145629882812 C 221.86654663085938 107.79478454589844 221.84654235839844 108.02478790283203 221.84654235839844 108.15145111083984 C 224.37986755371094 106.29145050048828 226.33987426757812 105.3614501953125 227.72654724121094 105.3614501953125 C 229.30653381347656 105.3614501953125 230.20654296875 106.6347885131836 230.42654418945312 109.18144989013672 C 230.51986694335938 110.07478332519531 230.56654357910156 111.31145477294922 230.56654357910156 112.8914566040039 L 230.5365447998047 114.741455078125 C 230.5365447998047 115.42811584472656 230.55320739746094 116.0914535522461 230.5865478515625 116.73145294189453 C 230.43321228027344 116.82478332519531 230.30987548828125 116.87145233154297 230.21653747558594 116.87145233154297 C 230.1698760986328 116.85811614990234 230.06654357910156 116.83478546142578 229.9065399169922 116.80145263671875 C 229.75320434570312 116.76811981201172 229.5498809814453 116.74478912353516 229.29653930664062 116.73145294189453 C 229.14320373535156 116.10478973388672 229.05653381347656 115.4681167602539 229.0365447998047 114.82144927978516 C 229.02320861816406 114.17478942871094 229.01654052734375 113.57811737060547 229.01654052734375 113.03145599365234 L 229.0365447998047 111.60145568847656 ZM 234.00411987304688 105.71145629882812 C 234.21078491210938 108.63812255859375 234.3841094970703 112.02145385742188 234.52410888671875 115.8614501953125 C 234.4307861328125 116.3481216430664 234.05410766601562 116.5914535522461 233.3941192626953 116.5914535522461 C 233.22744750976562 116.5914535522461 233.05410766601562 116.5547866821289 232.87411499023438 116.48145294189453 C 232.69410705566406 116.41478729248047 232.58078002929688 116.31812286376953 232.53411865234375 116.19145202636719 L 232.53411865234375 105.71145629882812 L 234.00411987304688 105.71145629882812 M 231.82411193847656 102.53145599365234 C 231.82411193847656 101.98478698730469 232.1441192626953 101.71145629882812 232.78411865234375 101.71145629882812 C 233.21078491210938 101.71145629882812 233.55410766601562 101.8047866821289 233.81411743164062 101.991455078125 C 233.86744689941406 102.16478729248047 233.8941192626953 102.33145141601562 233.8941192626953 102.491455078125 C 233.8941192626953 102.65811920166016 233.83078002929688 102.81812286376953 233.70411682128906 102.97145080566406 C 233.57745361328125 103.13145446777344 233.39077758789062 103.21145629882812 233.1441192626953 103.21145629882812 C 232.89077758789062 103.21145629882812 232.64077758789062 103.15145111083984 232.3941192626953 103.03145599365234 C 232.14077758789062 102.91145324707031 231.95077514648438 102.74478912353516 231.82411193847656 102.53145599365234 ZM 243.54617309570312 110.68144989013672 C 245.26617431640625 110.68144989013672 246.1261749267578 111.12145233154297 246.1261749267578 112.00144958496094 C 246.1261749267578 112.65478515625 245.64950561523438 113.41812133789062 244.69618225097656 114.29145050048828 C 243.26951599121094 115.5914535522461 241.35284423828125 116.63145446777344 238.94618225097656 117.41145324707031 C 238.83950805664062 117.41145324707031 238.71951293945312 117.30145263671875 238.586181640625 117.08145141601562 C 238.45285034179688 116.8614501953125 238.35284423828125 116.69478607177734 238.2861785888672 116.58145141601562 C 238.2128448486328 116.46145629882812 238.15951538085938 116.3847885131836 238.1261749267578 116.35145568847656 C 239.92617797851562 115.75811767578125 241.40284729003906 115.04145050048828 242.55618286132812 114.20145416259766 C 243.3428497314453 113.6347885131836 243.73617553710938 113.17478942871094 243.73617553710938 112.82144927978516 C 243.73617553710938 112.46145629882812 243.27284240722656 112.28145599365234 242.34617614746094 112.28145599365234 C 241.42617797851562 112.28145599365234 240.076171875 112.49812316894531 238.29617309570312 112.93144989013672 C 237.48284912109375 112.90478515625 236.77951049804688 112.61811828613281 236.18617248535156 112.07145690917969 C 235.6728515625 111.58478546142578 235.4161834716797 111.09478759765625 235.4161834716797 110.60145568847656 C 235.4161834716797 110.10811614990234 235.55618286132812 109.65478515625 235.836181640625 109.241455078125 C 236.11618041992188 108.82811737060547 236.48951721191406 108.44145202636719 236.9561767578125 108.08145141601562 C 237.4295196533203 107.72145080566406 237.97618103027344 107.39478302001953 238.59617614746094 107.10145568847656 C 240.1295166015625 106.36811828613281 241.7161865234375 106.00144958496094 243.35618591308594 106.00144958496094 C 243.8428497314453 106.00144958496094 244.31285095214844 106.0481185913086 244.76617431640625 106.14144897460938 C 245.13951110839844 106.14144897460938 245.35618591308594 106.3047866821289 245.4161834716797 106.63145446777344 C 245.48284912109375 106.95812225341797 245.51617431640625 107.49812316894531 245.51617431640625 108.25144958496094 C 244.58950805664062 107.82478332519531 243.5495147705078 107.6114501953125 242.39617919921875 107.6114501953125 C 240.9561767578125 107.6114501953125 239.76951599121094 107.90145111083984 238.836181640625 108.48145294189453 C 237.8628387451172 109.04145050048828 237.3628387451172 109.77478790283203 237.336181640625 110.68144989013672 C 237.336181640625 111.12145233154297 237.6561737060547 111.3414535522461 238.29617309570312 111.3414535522461 L 240.0061798095703 111.15145111083984 C 241.47283935546875 110.83811950683594 242.65284729003906 110.68144989013672 243.54617309570312 110.68144989013672 ZM 251.11061096191406 114.48145294189453 L 251.16061401367188 110.73145294189453 C 251.16061401367188 110.13812255859375 251.10394287109375 109.63145446777344 250.99061584472656 109.21145629882812 L 247.36061096191406 109.21145629882812 L 247.32061767578125 107.5914535522461 L 250.8306121826172 107.5914535522461 L 250.8306121826172 101.54145050048828 C 250.8772735595703 101.40145111083984 250.97061157226562 101.2614517211914 251.11061096191406 101.12145233154297 C 251.3306121826172 100.90145111083984 251.51394653320312 100.79145050048828 251.66061401367188 100.79145050048828 C 251.81394958496094 100.79145050048828 251.94393920898438 100.80812072753906 252.0506134033203 100.8414535522461 C 252.1572723388672 100.87478637695312 252.27394104003906 100.98478698730469 252.40061950683594 101.17145538330078 C 252.65394592285156 102.1981201171875 252.78060913085938 103.75144958496094 252.78060913085938 105.83145141601562 C 252.78060913085938 106.34478759765625 252.80393981933594 106.85145568847656 252.85061645507812 107.35145568847656 C 253.35061645507812 107.29145050048828 253.85061645507812 107.2614517211914 254.35061645507812 107.2614517211914 C 254.35061645507812 107.2614517211914 254.7572784423828 107.2614517211914 255.57061767578125 107.2614517211914 C 255.86395263671875 107.2614517211914 256.13726806640625 107.24478912353516 256.390625 107.21145629882812 L 256.32061767578125 108.90145111083984 L 252.89060974121094 108.81145477294922 L 253.0106201171875 116.8914566040039 C 252.73060607910156 117.01811981201172 252.48727416992188 117.08145141601562 252.28060913085938 117.08145141601562 C 251.5006103515625 117.08145141601562 251.11061096191406 116.21478271484375 251.11061096191406 114.48145294189453 ZM 268.78179931640625 108.18144989013672 C 268.1284484863281 107.70812225341797 267.2851257324219 107.47145080566406 266.25177001953125 107.47145080566406 C 265.2851257324219 107.47145080566406 264.3851318359375 107.65145111083984 263.5517883300781 108.0114517211914 C 261.9917907714844 108.67145538330078 260.9217834472656 109.51478576660156 260.341796875 110.54145050048828 C 260.0951232910156 111.01478576660156 259.9717712402344 111.51478576660156 259.9717712402344 112.04145050048828 C 259.9717712402344 112.1347885131836 259.9717712402344 112.39811706542969 259.9717712402344 112.83145141601562 C 259.9717712402344 113.25811767578125 260.0484619140625 113.83478546142578 260.2017822265625 114.56145477294922 C 260.3617858886719 115.28811645507812 260.4417724609375 116.02812194824219 260.4417724609375 116.78145599365234 C 260.10845947265625 116.79478454589844 259.841796875 116.83145141601562 259.64178466796875 116.8914566040039 C 259.4417724609375 116.95812225341797 259.2684631347656 116.991455078125 259.1217956542969 116.991455078125 C 258.9817810058594 116.991455078125 258.8617858886719 116.92811584472656 258.76177978515625 116.80145263671875 C 258.6617736816406 116.67478942871094 258.5484619140625 116.43144989013672 258.4217834472656 116.07144927978516 C 258.408447265625 115.97811889648438 258.3784484863281 115.71478271484375 258.331787109375 115.28145599365234 C 258.2851257324219 114.8414535522461 258.2251281738281 114.30812072753906 258.15179443359375 113.68144989013672 C 258.0851135253906 113.06145477294922 258.0084533691406 112.37812042236328 257.9217834472656 111.63145446777344 C 257.8351135253906 110.89144897460938 257.75177001953125 110.16145324707031 257.6717834472656 109.44145202636719 C 257.4984436035156 107.88145446777344 257.3651123046875 106.73478698730469 257.27178955078125 106.00144958496094 C 257.27178955078125 105.62145233154297 257.54510498046875 105.43144989013672 258.091796875 105.43144989013672 C 258.42510986328125 105.43144989013672 258.68511962890625 105.56812286376953 258.8717956542969 105.8414535522461 C 259.0584411621094 106.11478424072266 259.2051086425781 106.42811584472656 259.3117980957031 106.78145599365234 C 259.42510986328125 107.1347885131836 259.4984436035156 107.48145294189453 259.53179931640625 107.82145690917969 C 259.57177734375 108.16812133789062 259.60845947265625 108.41145324707031 259.64178466796875 108.55145263671875 C 261.7017822265625 106.70478820800781 264.2651062011719 105.78145599365234 267.331787109375 105.78145599365234 C 267.6717834472656 105.78145599365234 268.03179931640625 105.79145050048828 268.4117736816406 105.81145477294922 C 268.505126953125 105.79145050048828 268.6217956542969 105.78145599365234 268.76177978515625 105.78145599365234 C 268.90179443359375 105.78145599365234 269.0417785644531 105.87812042236328 269.1817932128906 106.07145690917969 C 269.3551025390625 106.2847900390625 269.4417724609375 106.5481185913086 269.4417724609375 106.8614501953125 C 269.4417724609375 107.64144897460938 269.2217712402344 108.08145141601562 268.78179931640625 108.18144989013672 ZM 279.7212829589844 112.8414535522461 C 278.55462646484375 114.68144989013672 276.99462890625 115.82144927978516 275.0412902832031 116.2614517211914 C 274.58795166015625 116.35478973388672 274.1779479980469 116.40145111083984 273.811279296875 116.40145111083984 C 273.4446105957031 116.40145111083984 273.137939453125 116.39811706542969 272.89129638671875 116.3914566040039 C 272.6512756347656 116.3847885131836 272.38128662109375 116.3481216430664 272.081298828125 116.28145599365234 C 271.7879638671875 116.22145080566406 271.5146179199219 116.12145233154297 271.26129150390625 115.98145294189453 C 270.6879577636719 115.65478515625 270.4012756347656 115.19478607177734 270.4012756347656 114.60145568847656 C 270.3346252441406 114.32144927978516 270.3013000488281 114.0047836303711 270.3013000488281 113.65145111083984 C 270.3013000488281 113.2981185913086 270.38128662109375 112.83145141601562 270.5412902832031 112.25144958496094 C 270.6946105957031 111.67811584472656 270.97796630859375 111.0547866821289 271.39129638671875 110.38145446777344 C 271.80462646484375 109.70812225341797 272.3079528808594 109.0914535522461 272.9012756347656 108.53145599365234 C 274.14129638671875 107.34478759765625 275.47796630859375 106.57811737060547 276.9112854003906 106.23145294189453 C 277.331298828125 106.13812255859375 277.71795654296875 106.0914535522461 278.0712890625 106.0914535522461 C 278.42462158203125 106.0914535522461 278.74127197265625 106.11478424072266 279.02130126953125 106.16145324707031 C 279.9279479980469 106.16145324707031 280.5379638671875 106.77812194824219 280.8512878417969 108.0114517211914 C 281.0513000488281 108.79145050048828 281.1712951660156 109.88145446777344 281.2112731933594 111.28145599365234 C 281.25128173828125 112.68144989013672 281.2912902832031 113.7614517211914 281.331298828125 114.52145385742188 C 281.37127685546875 115.27478790283203 281.46795654296875 115.96478271484375 281.62127685546875 116.5914535522461 L 280.24127197265625 116.5914535522461 C 280.1812744140625 116.17145538330078 280.1346130371094 115.79478454589844 280.1012878417969 115.46145629882812 C 280.0679626464844 115.1347885131836 280.0379638671875 114.83145141601562 280.01129150390625 114.55145263671875 C 279.9312744140625 113.89811706542969 279.8346252441406 113.32811737060547 279.7212829589844 112.8414535522461 M 279.63128662109375 109.21145629882812 C 279.63128662109375 108.3047866821289 279.18463134765625 107.85145568847656 278.2912902832031 107.85145568847656 C 278.18463134765625 107.83145141601562 278.07794189453125 107.82145690917969 277.9712829589844 107.82145690917969 C 276.831298828125 107.82145690917969 275.6279602050781 108.36811828613281 274.3612976074219 109.46145629882812 C 273.7679443359375 109.96145629882812 273.2579650878906 110.52478790283203 272.831298828125 111.15145111083984 C 272.2112731933594 112.04478454589844 271.9012756347656 112.8414535522461 271.9012756347656 113.54145050048828 C 271.9012756347656 114.4681167602539 272.4312744140625 115.01478576660156 273.49127197265625 115.18144989013672 C 274.89794921875 115.15478515625 276.24127197265625 114.51478576660156 277.52130126953125 113.2614517211914 C 278.0679626464844 112.71478271484375 278.52130126953125 112.12145233154297 278.88128662109375 111.48145294189453 C 279.38128662109375 110.62145233154297 279.63128662109375 109.86478424072266 279.63128662109375 109.21145629882812 ZM 286.2597351074219 114.48145294189453 L 286.3097229003906 110.73145294189453 C 286.3097229003906 110.13812255859375 286.2530517578125 109.63145446777344 286.13970947265625 109.21145629882812 L 282.5097351074219 109.21145629882812 L 282.4697265625 107.5914535522461 L 285.979736328125 107.5914535522461 L 285.979736328125 101.54145050048828 C 286.0263977050781 101.40145111083984 286.1197204589844 101.2614517211914 286.2597351074219 101.12145233154297 C 286.479736328125 100.90145111083984 286.6630554199219 100.79145050048828 286.8097229003906 100.79145050048828 C 286.9630432128906 100.79145050048828 287.0930480957031 100.80812072753906 287.19970703125 100.8414535522461 C 287.306396484375 100.87478637695312 287.4230651855469 100.98478698730469 287.5497131347656 101.17145538330078 C 287.80303955078125 102.1981201171875 287.9297180175781 103.75144958496094 287.9297180175781 105.83145141601562 C 287.9297180175781 106.34478759765625 287.95306396484375 106.85145568847656 287.9997253417969 107.35145568847656 C 288.4997253417969 107.29145050048828 288.9997253417969 107.2614517211914 289.4997253417969 107.2614517211914 C 289.4997253417969 107.2614517211914 289.9064025878906 107.2614517211914 290.7197265625 107.2614517211914 C 291.0130615234375 107.2614517211914 291.286376953125 107.24478912353516 291.53973388671875 107.21145629882812 L 291.4697265625 108.90145111083984 L 288.03973388671875 108.81145477294922 L 288.15972900390625 116.8914566040039 C 287.8797302246094 117.01811981201172 287.6363830566406 117.08145141601562 287.4297180175781 117.08145141601562 C 286.64971923828125 117.08145141601562 286.2597351074219 116.21478271484375 286.2597351074219 114.48145294189453 ZM 294.5308837890625 105.71145629882812 C 294.737548828125 108.63812255859375 294.910888671875 112.02145385742188 295.0509033203125 115.8614501953125 C 294.9575500488281 116.3481216430664 294.5809020996094 116.5914535522461 293.9208984375 116.5914535522461 C 293.7542419433594 116.5914535522461 293.5809020996094 116.5547866821289 293.40087890625 116.48145294189453 C 293.22088623046875 116.41478729248047 293.1075744628906 116.31812286376953 293.0608825683594 116.19145202636719 L 293.0608825683594 105.71145629882812 L 294.5308837890625 105.71145629882812 M 292.35089111328125 102.53145599365234 C 292.35089111328125 101.98478698730469 292.6708984375 101.71145629882812 293.3108825683594 101.71145629882812 C 293.737548828125 101.71145629882812 294.0809020996094 101.8047866821289 294.34088134765625 101.991455078125 C 294.39422607421875 102.16478729248047 294.4208984375 102.33145141601562 294.4208984375 102.491455078125 C 294.4208984375 102.65811920166016 294.3575744628906 102.81812286376953 294.23089599609375 102.97145080566406 C 294.1042175292969 103.13145446777344 293.9175720214844 103.21145629882812 293.6708984375 103.21145629882812 C 293.4175720214844 103.21145629882812 293.1675720214844 103.15145111083984 292.9208984375 103.03145599365234 C 292.6675720214844 102.91145324707031 292.4775695800781 102.74478912353516 292.35089111328125 102.53145599365234 ZM 296.2629699707031 107.66145324707031 C 296.2362976074219 107.58145141601562 296.22296142578125 107.491455078125 296.22296142578125 107.39144897460938 C 296.22296142578125 107.29145050048828 296.2596435546875 107.15478515625 296.3329772949219 106.98145294189453 C 296.4129638671875 106.80812072753906 296.52630615234375 106.65811920166016 296.6729736328125 106.53145599365234 C 296.8262939453125 106.41145324707031 296.99298095703125 106.35478210449219 297.1729736328125 106.3614501953125 C 297.35296630859375 106.36811828613281 297.4963073730469 106.48145294189453 297.60296630859375 106.70145416259766 L 301.54296875 114.0114517211914 C 301.6629638671875 113.82478332519531 301.8596496582031 113.47811889648438 302.1329650878906 112.97145080566406 C 302.4129638671875 112.46478271484375 302.726318359375 111.89144897460938 303.0729675292969 111.25144958496094 C 303.4263000488281 110.60478973388672 303.79296875 109.93478393554688 304.1729736328125 109.241455078125 C 304.55963134765625 108.5481185913086 304.91632080078125 107.91145324707031 305.24298095703125 107.33145141601562 C 305.9963073730469 106.0047836303711 306.4429626464844 105.3414535522461 306.5829772949219 105.3414535522461 C 306.9096374511719 105.3414535522461 307.14630126953125 105.46145629882812 307.29296875 105.70145416259766 C 307.43963623046875 105.9481201171875 307.5129699707031 106.13145446777344 307.5129699707031 106.25144958496094 C 307.5129699707031 106.37812042236328 307.5129699707031 106.46478271484375 307.5129699707031 106.5114517211914 C 306.6396484375 108.41812133789062 305.8329772949219 110.17478942871094 305.0929870605469 111.78145599365234 C 304.3463134765625 113.39478302001953 303.85296630859375 114.43811798095703 303.61297607421875 114.91145324707031 C 303.37298583984375 115.3914566040039 303.1596374511719 115.77145385742188 302.97296142578125 116.05145263671875 C 302.6396484375 116.53811645507812 302.31964111328125 116.78145599365234 302.0129699707031 116.78145599365234 C 301.69964599609375 116.78145599365234 301.3396301269531 116.5347900390625 300.9329833984375 116.04145050048828 C 300.52630615234375 115.5481185913086 300.0663146972656 114.88812255859375 299.552978515625 114.06145477294922 C 298.64630126953125 112.56145477294922 297.5496520996094 110.42811584472656 296.2629699707031 107.66145324707031 ZM 317.7057189941406 112.8414535522461 C 316.5390625 114.68144989013672 314.97906494140625 115.82144927978516 313.0257263183594 116.2614517211914 C 312.5723876953125 116.35478973388672 312.1623840332031 116.40145111083984 311.79571533203125 116.40145111083984 C 311.4290466308594 116.40145111083984 311.12237548828125 116.39811706542969 310.875732421875 116.3914566040039 C 310.6357116699219 116.3847885131836 310.36572265625 116.3481216430664 310.06573486328125 116.28145599365234 C 309.77239990234375 116.22145080566406 309.4990539550781 116.12145233154297 309.2457275390625 115.98145294189453 C 308.6723937988281 115.65478515625 308.3857116699219 115.19478607177734 308.3857116699219 114.60145568847656 C 308.3190612792969 114.32144927978516 308.2857360839844 114.0047836303711 308.2857360839844 113.65145111083984 C 308.2857360839844 113.2981185913086 308.36572265625 112.83145141601562 308.5257263183594 112.25144958496094 C 308.6790466308594 111.67811584472656 308.96240234375 111.0547866821289 309.375732421875 110.38145446777344 C 309.7890625 109.70812225341797 310.2923889160156 109.0914535522461 310.8857116699219 108.53145599365234 C 312.125732421875 107.34478759765625 313.46240234375 106.57811737060547 314.8957214355469 106.23145294189453 C 315.31573486328125 106.13812255859375 315.702392578125 106.0914535522461 316.05572509765625 106.0914535522461 C 316.4090576171875 106.0914535522461 316.7257080078125 106.11478424072266 317.0057373046875 106.16145324707031 C 317.9123840332031 106.16145324707031 318.52239990234375 106.77812194824219 318.8357238769531 108.0114517211914 C 319.0357360839844 108.79145050048828 319.1557312011719 109.88145446777344 319.1957092285156 111.28145599365234 C 319.2357177734375 112.68144989013672 319.2757263183594 113.7614517211914 319.31573486328125 114.52145385742188 C 319.355712890625 115.27478790283203 319.452392578125 115.96478271484375 319.605712890625 116.5914535522461 L 318.2257080078125 116.5914535522461 C 318.16571044921875 116.17145538330078 318.1190490722656 115.79478454589844 318.0857238769531 115.46145629882812 C 318.0523986816406 115.1347885131836 318.02239990234375 114.83145141601562 317.9957275390625 114.55145263671875 C 317.91571044921875 113.89811706542969 317.8190612792969 113.32811737060547 317.7057189941406 112.8414535522461 M 317.61572265625 109.21145629882812 C 317.61572265625 108.3047866821289 317.1690673828125 107.85145568847656 316.2757263183594 107.85145568847656 C 316.1690673828125 107.83145141601562 316.0623779296875 107.82145690917969 315.9557189941406 107.82145690917969 C 314.81573486328125 107.82145690917969 313.6123962402344 108.36811828613281 312.3457336425781 109.46145629882812 C 311.75238037109375 109.96145629882812 311.2424011230469 110.52478790283203 310.81573486328125 111.15145111083984 C 310.1957092285156 112.04478454589844 309.8857116699219 112.8414535522461 309.8857116699219 113.54145050048828 C 309.8857116699219 114.4681167602539 310.41571044921875 115.01478576660156 311.4757080078125 115.18144989013672 C 312.88238525390625 115.15478515625 314.2257080078125 114.51478576660156 315.5057373046875 113.2614517211914 C 316.0523986816406 112.71478271484375 316.5057373046875 112.12145233154297 316.86572265625 111.48145294189453 C 317.36572265625 110.62145233154297 317.61572265625 109.86478424072266 317.61572265625 109.21145629882812 Z" transform="matrix(1.2446389198303223, 0, 0, 1.2446389198303223, -51.25846862792969, -44.904232025146484)" style="fill: rgb(51, 51, 51); white-space: pre; color: rgb(51, 51, 51);"/></svg>