<?xml version="1.0" encoding="utf-8"?>
<svg id="master-artboard" viewBox="0 0 351.6351013183594 411.568359375" version="1.1" xmlns="http://www.w3.org/2000/svg" x="0px" y="0px" enable-background="new 0 0 1400 980" width="351.6351013183594px" height="411.568359375px"><rect id="ee-background" x="0" y="0" width="351.6351013183594" height="411.568359375" style="fill: white; fill-opacity: 0; pointer-events: none;"/>
<path d="M 106.19999694824219 221.89999389648438 L 96.19999694824219 319.79998779296875 L 426 319.79998779296875 L 416 221.89999389648438 Z" fill="#FEE283" transform="matrix(1, 0, 0, 1, -82.82536504925912, -113.45940417706741)"/><path d="M 96.19999694824219 515.4000244140625 L 426 515.4000244140625 L 416 417.6000061035156 L 106.19999694824219 417.6000061035156 Z" fill="#FEE283" transform="matrix(1, 0, 0, 1, -82.82536504925912, -113.45940417706741)"/><path d="M 106.19999694824219 417.6000061035156 L 416 417.6000061035156 L 426 319.79998779296875 L 96.19999694824219 319.79998779296875 Z" fill="#F9D778" transform="matrix(1, 0, 0, 1, -82.82536504925912, -113.45940417706741)"/><path d="M 368.29998779296875 124.0999984741211 L 96.19999694824219 124.0999984741211 L 106.19999694824219 221.89999389648438 L 416 221.89999389648438 L 416 206.10000610351562 Z" fill="#FFEEB3" transform="matrix(1, 0, 0, 1, -82.82536504925912, -113.45940417706741)"/><path d="M 355.79998779296875 178.60000610351562 L 416 206.10000610351562 L 368.29998779296875 124.0999984741211 Z" fill="#F9D778" transform="matrix(1, 0, 0, 1, -82.82536504925912, -113.45940417706741)"/><g transform="matrix(1, 0, 0, 1, -82.82536504925912, -113.45940417706741)">
					<path fill="#7CB542" d="M251.2,495.4c-8.4,0-17.5-2.6-26.1-7.4c-10.5-5.9-19.4-14.2-28-22.2L151.4,423&#10;&#9;&#9;&#9;&#9;&#9;&#9;c-6.2-5.8-11.9-12.3-11.2-19.9c0.4-3.9,2.5-7.3,4.5-10.6c2.2-3.6,4.2-6.9,4.4-10.8c0.3-6.9-5.2-11.7-11-16.7&#10;&#9;&#9;&#9;&#9;&#9;&#9;c-5.3-4.6-10.8-9.3-11.8-16c-1.1-7.2,3.2-14.5,13.3-22.3l0.1-0.1c6.9-5.4,14.8-11.5,15.5-20.1c0.5-5.6-2.2-10.6-5-15.9&#10;&#9;&#9;&#9;&#9;&#9;&#9;c-1.6-3.1-3.3-6.2-4.3-9.5c-3-9.7-0.1-20.4,2.2-28.9c2.6-9.5,5.5-18.5,12.9-23.4c1.6-1.1,3.3-1.9,5.1-2.7&#10;&#9;&#9;&#9;&#9;&#9;&#9;c3.3-1.6,6.5-3.1,8.3-6c1.9-2.9,1.9-6.4,1.9-10.1c0-2.9,0-5.8,1-8.6c2.8-8.2,12.5-11.1,20.5-11.1c0.5,0,1,0,1.5,0&#10;&#9;&#9;&#9;&#9;&#9;&#9;c2.9,0.1,5.8,0.5,8.6,0.9c3.5,0.4,7,0.9,10.5,0.9c2.4,0,4.5-0.2,6.5-0.7c8.6-1.9,15.4-8.2,22-14.3c1.8-1.6,3.6-3.3,5.4-4.9&#10;&#9;&#9;&#9;&#9;&#9;&#9;c7.3-6.4,15.5-10,22.5-10c3.3,0,6.3,0.8,9,2.4c4.7,2.7,7.6,7.5,10.3,12.1c2.5,4.1,5.1,8.4,9,11.1c2.8,2,6.1,3.1,9.3,4.2&#10;&#9;&#9;&#9;&#9;&#9;&#9;c0.8,0.3,1.5,0.5,2.3,0.8c7.2,2.6,14,6.2,20.1,10.8c5.5,4.1,10.5,9.1,15.3,13.8l20.9,20.7c8.6,8.5,18.3,18.1,23.6,30&#10;&#9;&#9;&#9;&#9;&#9;&#9;c8.1,18.1,4.5,41.1-8.7,55.9c-2.6,2.9-5.6,5.6-8.5,8.3c-7.5,6.9-15.3,14-16.1,23.9c-0.5,6.7,2.4,13.1,5.2,19.4&#10;&#9;&#9;&#9;&#9;&#9;&#9;c3,6.6,6.1,13.4,5.2,20.6c-0.7,5.4-3.6,10.1-6.4,14.6c-2.3,3.8-4.7,7.6-5.8,11.9c-1.9,7.1-0.3,14.9,1.3,22.4&#10;&#9;&#9;&#9;&#9;&#9;&#9;c2.1,9.9,4,19.3-1.4,27.3c-4.2,6.2-12.2,9.6-22.5,9.6c0,0,0,0,0,0c-2.1,0-4.2-0.1-6.4-0.4c-3.1-0.4-6.3-1-9.4-1.6&#10;&#9;&#9;&#9;&#9;&#9;&#9;c-5.3-1-10.8-2.1-16.2-2.1c-1.9,0-3.6,0.1-5.3,0.4c-7.5,1.1-14.3,4.8-20.9,8.4c-6,3.2-12.1,6.6-18.9,8.1&#10;&#9;&#9;&#9;&#9;&#9;&#9;C257,495.1,254.1,495.4,251.2,495.4z M197.7,191.2c-7.7,0-16.9,2.7-19.6,10.4c-0.9,2.6-0.9,5.5-0.9,8.2c0,3.7-0.1,7.5-2.1,10.6&#10;&#9;&#9;&#9;&#9;&#9;&#9;c-2,3.2-5.4,4.8-8.7,6.4c-1.7,0.8-3.4,1.6-4.9,2.7c-7.1,4.8-10,13.5-12.5,22.8c-2.3,8.4-5.1,18.9-2.2,28.4&#10;&#9;&#9;&#9;&#9;&#9;&#9;c1,3.2,2.7,6.3,4.3,9.3c2.8,5.2,5.6,10.5,5.1,16.4c-0.8,9-8.8,15.3-15.9,20.8l-0.1,0.1c-9.7,7.5-13.9,14.5-12.9,21.3&#10;&#9;&#9;&#9;&#9;&#9;&#9;c1,6.3,6.3,10.9,11.5,15.4c5.7,5,11.7,10.1,11.4,17.5c-0.2,4.2-2.4,7.8-4.5,11.3c-2,3.2-4,6.5-4.3,10.2&#10;&#9;&#9;&#9;&#9;&#9;&#9;c-0.8,7.5,5.2,13.8,10.8,19.1l45.7,42.8c8.5,8,17.4,16.3,27.8,22.1c11.5,6.4,23.6,8.7,34,6.4c6.6-1.5,12.7-4.8,18.6-8&#10;&#9;&#9;&#9;&#9;&#9;&#9;c6.7-3.6,13.6-7.4,21.2-8.5c1.8-0.3,3.6-0.4,5.5-0.4c5.5,0,11,1.1,16.4,2.1c3.1,0.6,6.2,1.2,9.3,1.6c2.1,0.3,4.2,0.4,6.2,0.4&#10;&#9;&#9;&#9;&#9;&#9;&#9;c5.8,0,16.3-1.2,21.7-9.2c5.2-7.6,3.3-16.8,1.2-26.5c-1.6-7.6-3.2-15.5-1.3-22.8c1.2-4.4,3.6-8.3,5.9-12.1&#10;&#9;&#9;&#9;&#9;&#9;&#9;c2.9-4.7,5.6-9.1,6.2-14.2c0.9-6.9-2.1-13.6-5.1-20.1c-2.9-6.3-5.9-12.9-5.3-19.8c0.8-10.2,8.7-17.5,16.4-24.6&#10;&#9;&#9;&#9;&#9;&#9;&#9;c2.9-2.7,5.9-5.4,8.4-8.2c12.9-14.5,16.4-37,8.5-54.8c-5.2-11.7-14.9-21.3-23.4-29.7l-20.9-20.7c-4.8-4.7-9.7-9.6-15.2-13.7&#10;&#9;&#9;&#9;&#9;&#9;&#9;c-6-4.5-12.7-8.1-19.8-10.6c-0.8-0.3-1.5-0.5-2.3-0.8c-3.3-1.1-6.7-2.2-9.6-4.3c-4-2.9-6.7-7.2-9.3-11.4&#10;&#9;&#9;&#9;&#9;&#9;&#9;c-2.9-4.7-5.6-9.1-10-11.7c-2.5-1.5-5.4-2.3-8.5-2.3c-6.7,0-14.7,3.6-21.8,9.8c-1.8,1.6-3.6,3.2-5.3,4.9&#10;&#9;&#9;&#9;&#9;&#9;&#9;c-6.7,6.2-13.5,12.6-22.4,14.6c-2.1,0.5-4.3,0.7-6.7,0.7c-3.5,0-7.1-0.5-10.6-0.9c-2.8-0.4-5.7-0.7-8.5-0.9&#10;&#9;&#9;&#9;&#9;&#9;&#9;C198.6,191.2,198.2,191.2,197.7,191.2z"/>
				</g><path fill="#8AC249" d="M244.6,466.1c-13.7,0-27.2-9.1-32.1-21.7c-0.9-2.3-1.5-4.7-2.1-7c-1-3.8-2.1-7.7-4.1-11&#10;&#9;&#9;&#9;&#9;&#9;&#9;c-3.9-6.2-10.8-9.7-17.4-13c-1.7-0.9-3.4-1.7-5.1-2.6c-4-2.2-17.1-10.3-15.1-22.2c0.4-2.6,1.6-5,2.8-7.3&#10;&#9;&#9;&#9;&#9;&#9;&#9;c1.4-2.8,2.7-5.5,2.8-8.5c0.2-5.9-4.1-10.2-8.7-14.9c-4.5-4.6-9.1-9.3-9-15.5c0.1-6.9,5.5-11.1,11.2-15.5&#10;&#9;&#9;&#9;&#9;&#9;&#9;c4-3.1,8.2-6.4,10.3-10.7c4.6-9.1-0.8-19.9-6.1-29.4c-7.6-13.4-8.9-23.3-3.9-30.4c2.6-3.6,6.5-5.8,10.3-8&#10;&#9;&#9;&#9;&#9;&#9;&#9;c3.8-2.1,7.6-4.3,10-7.8c2.2-3.1,3-7.1,3.8-11c1-4.7,2-9.6,5.6-13c4.1-3.9,10.7-4.9,19.6-2.9c0.9,0.2,1.9,0.4,2.8,0.6&#10;&#9;&#9;&#9;&#9;&#9;&#9;c3.7,0.9,7.6,1.8,11.3,1.8c2,0,3.8-0.3,5.5-0.8c6.7-2.1,11.1-8.4,14.9-14.8l0.5-0.9c3.6-6.1,7.3-12.5,13.6-15.8&#10;&#9;&#9;&#9;&#9;&#9;&#9;c2-1,4.3-1.6,6.8-1.6c5,0,10.7,2.5,11.9,8c0.4,1.9,0.2,3.9,0,5.8c-0.2,1.7-0.4,3.4-0.1,5c0.8,4.9,5.4,8.3,9.1,10.2&#10;&#9;&#9;&#9;&#9;&#9;&#9;c1.2,0.6,2.5,1.2,3.8,1.8c3.2,1.5,6.5,3,9.1,5.4c4.6,4.2,6.6,10.3,8.4,16.2c1.6,4.9,3.2,10,6.3,14c3.5,4.4,8.7,7.2,13.7,9.8&#10;&#9;&#9;&#9;&#9;&#9;&#9;c2.5,1.3,5,2.7,7.4,4.2c10,6.6,17.2,17.6,19.1,29.4c1.9,11.9-1.4,24.5-8.9,33.9c-2.5,3.2-5.5,6-8.4,8.8c-2,1.9-4.1,3.9-6.1,6&#10;&#9;&#9;&#9;&#9;&#9;&#9;c-5.6,6.1-8.4,12.2-8.4,18c0.1,5.5,2.7,10.6,5.3,15.5c0.7,1.3,1.4,2.7,2,4c2.3,4.9,5.6,14.1,0.6,20.7c-2.1,2.9-5.4,4.6-8.5,6.3&#10;&#9;&#9;&#9;&#9;&#9;&#9;c-3.6,1.9-6.9,3.7-8.7,7c-2.7,5-1.1,11.4,5.1,19.7c4.9,6.6,9.4,13.5,7,20.5c-2.3,6.8-9.9,9.2-16.2,9.2c0,0,0,0,0,0&#10;&#9;&#9;&#9;&#9;&#9;&#9;c-1.9,0-3.7-0.2-5.5-0.6c-3.2-0.7-6.4-1.8-9.5-2.9c-4.6-1.6-9.4-3.3-14.3-3.5c-7.5-0.3-14.6,2.7-21.4,5.6&#10;&#9;&#9;&#9;&#9;&#9;&#9;c-5.4,2.3-10.9,4.6-16.7,5.5C247.6,466,246.1,466.1,244.6,466.1z M209.2,213.8c-4.6,0-8.2,1.2-10.8,3.6&#10;&#9;&#9;&#9;&#9;&#9;&#9;c-3.3,3.2-4.3,7.7-5.3,12.5c-0.8,3.9-1.7,8-4,11.3c-2.5,3.7-6.5,5.9-10.4,8.1c-3.7,2.1-7.6,4.3-10,7.7&#10;&#9;&#9;&#9;&#9;&#9;&#9;c-4.7,6.7-3.4,16.3,3.9,29.3c5.5,9.7,11,20.8,6.2,30.3c-2.3,4.5-6.5,7.8-10.6,11c-5.5,4.3-10.7,8.4-10.8,14.8&#10;&#9;&#9;&#9;&#9;&#9;&#9;c-0.1,5.8,4.4,10.4,8.7,14.8c4.5,4.6,9.2,9.3,9,15.6c-0.1,3.2-1.5,6.1-2.9,8.9c-1.1,2.3-2.2,4.6-2.7,7.1&#10;&#9;&#9;&#9;&#9;&#9;&#9;c-1.5,8.9,6.5,16.7,14.6,21.1c1.6,0.9,3.4,1.8,5.1,2.6c6.8,3.4,13.8,7,17.8,13.4c2.1,3.4,3.2,7.4,4.2,11.3&#10;&#9;&#9;&#9;&#9;&#9;&#9;c0.6,2.3,1.3,4.7,2.1,6.9c4.7,12.2,17.8,21,31.2,21c1.5,0,2.9-0.1,4.3-0.3c5.7-0.8,11.1-3.1,16.5-5.4c7-3,14.2-6,21.9-5.7&#10;&#9;&#9;&#9;&#9;&#9;&#9;c5.1,0.2,9.9,1.9,14.6,3.6c3.1,1.1,6.2,2.2,9.4,2.9c1.7,0.4,3.5,0.6,5.3,0.6c6,0,13.1-2.2,15.2-8.5c2.2-6.5-2.2-13.3-6.9-19.6&#10;&#9;&#9;&#9;&#9;&#9;&#9;c-6.4-8.7-8.1-15.5-5.2-20.8c2-3.5,5.6-5.5,9.1-7.4c3-1.6,6.2-3.3,8.2-6c4.6-6.2,1.5-15-0.7-19.7c-0.6-1.3-1.3-2.7-2-4&#10;&#9;&#9;&#9;&#9;&#9;&#9;c-2.6-5-5.3-10.2-5.4-16c-0.1-6.1,2.8-12.3,8.6-18.6c1.9-2.1,4.1-4.1,6.1-6.1c2.9-2.7,5.8-5.5,8.3-8.6&#10;&#9;&#9;&#9;&#9;&#9;&#9;c7.3-9.2,10.5-21.6,8.7-33.1c-1.9-11.6-8.8-22.3-18.6-28.8c-2.3-1.5-4.9-2.9-7.3-4.2c-5.1-2.7-10.4-5.5-14.1-10.1&#10;&#9;&#9;&#9;&#9;&#9;&#9;c-3.3-4.1-4.9-9.3-6.5-14.3c-1.9-6.1-3.7-11.8-8.1-15.8c-2.5-2.3-5.7-3.8-8.9-5.2c-1.3-0.6-2.6-1.2-3.8-1.8&#10;&#9;&#9;&#9;&#9;&#9;&#9;c-3.9-2.1-8.8-5.6-9.6-11c-0.3-1.8-0.1-3.6,0.1-5.3c0.2-1.9,0.4-3.7,0-5.4c-1.1-5-6.2-7.2-10.9-7.2c-2.3,0-4.5,0.5-6.3,1.5&#10;&#9;&#9;&#9;&#9;&#9;&#9;c-6,3.2-9.7,9.4-13.2,15.4l-0.5,0.9c-3.9,6.6-8.5,13-15.5,15.3c-1.8,0.6-3.7,0.8-5.8,0.8c-3.8,0-7.7-0.9-11.5-1.8&#10;&#9;&#9;&#9;&#9;&#9;&#9;c-0.9-0.2-1.9-0.4-2.8-0.6C214.3,214.1,211.6,213.8,209.2,213.8z" transform="matrix(1, 0, 0, 1, -82.82536504925906, -113.45940417706741)"/><path fill="#ADD482" d="M249.7,434.7c-2.2,0-4.1-0.4-6-1.3c-5.4-2.6-7.7-8.2-10-13.7c-1.6-3.9-3.3-7.9-6-10.8&#10;&#9;&#9;&#9;&#9;&#9;&#9;c-2.2-2.4-5.1-4.1-8-5.8c-1.6-0.9-3.2-1.9-4.7-2.9c-4.2-3-8.2-8.1-6.8-13.5c0.3-1.3,1-2.6,1.6-3.7c0.7-1.4,1.5-2.7,1.7-4.2&#10;&#9;&#9;&#9;&#9;&#9;&#9;c0.8-5.7-6.2-10.2-9.3-11.9c-2.7-1.5-4.9-3.6-6.2-6c-3.9-7.1,1.2-13,6.2-18.8c1.3-1.4,2.5-2.9,3.6-4.4&#10;&#9;&#9;&#9;&#9;&#9;&#9;c5.9-7.9,7.1-19.2,2.8-28.1c-1.2-2.5-2.8-4.8-4.3-7.1c-1.8-2.6-3.6-5.2-4.8-8.1c-2.4-5.6-2.2-13.3,3-16.7&#10;&#9;&#9;&#9;&#9;&#9;&#9;c0.9-0.6,1.9-1,2.8-1.4c1-0.4,1.9-0.8,2.7-1.4c3.3-2.3,4.2-6.3,5.1-10.6c0.8-3.6,1.6-7.3,3.9-10.1c2.5-3,6.9-4.7,12.2-4.7&#10;&#9;&#9;&#9;&#9;&#9;&#9;c0.3,0,0.6,0,0.9,0c2.1,0.1,4.3,0.4,6.4,0.6c2.4,0.3,4.8,0.6,7.2,0.6l0.2,0c7.2-0.1,14.6-3.5,19.7-9.1c1.5-1.7,3.6-2.6,5.9-2.6&#10;&#9;&#9;&#9;&#9;&#9;&#9;c3.5,0,7.5,2.5,8,7.1c0.1,1.2,0.2,2.4,0.2,3.6c0,1.8-0.2,3.6-0.3,5.4c-0.4,4.6-0.8,9.4,0.7,13.7c2.6,7.5,10.2,12.1,15.7,14.9&#10;&#9;&#9;&#9;&#9;&#9;&#9;c1.2,0.6,2.5,1.2,3.7,1.9c6.2,3,12.7,6.2,17,11.8c3.1,4.1,4.4,9,3.6,13.5c-1.2,6.6-6,8.8-10.6,11c-2.9,1.4-5.7,2.7-7.6,5&#10;&#9;&#9;&#9;&#9;&#9;&#9;c-4.7,5.6-2.5,14.2,0,21.1c2.9,8,4.9,16.2,0.4,22.1c-1.9,2.5-4.7,4.1-7.4,5.6c-3,1.7-5.7,3.3-7.5,6c-4,6.2,0.3,14.3,1.8,16.6&#10;&#9;&#9;&#9;&#9;&#9;&#9;c1.1,1.8,2.4,3.6,3.6,5.3c3.4,4.6,6.8,9.3,7.3,15.6c0.3,4.1-1.3,7.9-4.4,10c-1.7,1.2-3.7,1.8-6,1.8l0,0c-2.3,0-4.7-0.6-6.9-1.2&#10;&#9;&#9;&#9;&#9;&#9;&#9;c-1.9-0.5-3.9-1-5.8-1.1c-4.5-0.3-9.1,1.3-13.5,2.8C257.7,433.3,253.6,434.7,249.7,434.7z M229.4,250.7&#10;&#9;&#9;&#9;&#9;&#9;&#9;c-2.9,0-8.3,0.6-11.5,4.3c-2.2,2.6-2.9,6.2-3.7,9.6c-0.9,4.3-1.9,8.8-5.5,11.2c-0.9,0.6-1.9,1-2.9,1.5&#10;&#9;&#9;&#9;&#9;&#9;&#9;c-0.9,0.4-1.8,0.8-2.6,1.3c-4.7,3.1-4.9,10.3-2.6,15.5c1.2,2.8,3,5.4,4.7,8c1.6,2.3,3.2,4.7,4.4,7.2c4.4,9.2,3.3,20.9-2.9,29.1&#10;&#9;&#9;&#9;&#9;&#9;&#9;c-1.1,1.5-2.4,3-3.7,4.4c-4.8,5.5-9.7,11.1-6.1,17.6c1.2,2.2,3.2,4.2,5.8,5.6c3.2,1.8,10.7,6.6,9.8,12.9&#10;&#9;&#9;&#9;&#9;&#9;&#9;c-0.2,1.6-1,3.1-1.8,4.5c-0.6,1.2-1.2,2.3-1.5,3.5c-1.3,4.9,2.5,9.6,6.4,12.4c1.5,1,3.1,2,4.6,2.9c2.9,1.7,5.9,3.4,8.2,6&#10;&#9;&#9;&#9;&#9;&#9;&#9;c2.8,3.1,4.5,7.2,6.2,11.1c2.3,5.5,4.5,10.8,9.5,13.2c1.7,0.8,3.5,1.2,5.5,1.2c3.7,0,7.5-1.3,11.6-2.7&#10;&#9;&#9;&#9;&#9;&#9;&#9;c4.5-1.6,9.2-3.2,13.9-2.8c2,0.1,4,0.7,6,1.2c2.3,0.6,4.5,1.1,6.7,1.1c2.1,0,3.8-0.5,5.4-1.6c2.7-1.9,4.3-5.4,4-9.1&#10;&#9;&#9;&#9;&#9;&#9;&#9;c-0.4-6-3.7-10.4-7.1-15.1c-1.3-1.7-2.5-3.5-3.7-5.3c-4-6.5-4.7-13.2-1.8-17.7c1.9-2.9,4.9-4.6,7.8-6.3c2.6-1.5,5.3-3,7.1-5.4&#10;&#9;&#9;&#9;&#9;&#9;&#9;c4.3-5.6,2.3-13.5-0.5-21.2c-2.6-7.1-4.9-16.1,0.2-22.1c2.1-2.5,5.1-3.9,8-5.3c4.6-2.2,8.9-4.2,10.1-10.3&#10;&#9;&#9;&#9;&#9;&#9;&#9;c0.8-4.3-0.4-8.9-3.4-12.8c-4.2-5.5-10.5-8.5-16.7-11.5c-1.3-0.6-2.5-1.2-3.8-1.9c-5.7-2.9-13.5-7.6-16.2-15.5&#10;&#9;&#9;&#9;&#9;&#9;&#9;c-1.6-4.5-1.2-9.4-0.8-14.1c0.1-1.8,0.3-3.6,0.3-5.3c0-1.2,0-2.4-0.1-3.5c-0.4-4.1-3.9-6.2-7-6.2c-2,0-3.8,0.8-5.2,2.3&#10;&#9;&#9;&#9;&#9;&#9;&#9;c-5.3,5.8-12.9,9.3-20.4,9.4l-0.2,0c-2.5,0-5-0.3-7.4-0.6c-2.1-0.3-4.2-0.6-6.3-0.6C229.9,250.7,229.6,250.7,229.4,250.7z" transform="matrix(1, 0, 0, 1, -82.82536504925906, -113.45940417706741)"/><path fill="#455A66" d="M206.6,337.1c-0.7-0.4-1.6-0.2-2.1,0.5l-1.6,2.6c-0.4,0.7-0.2,1.6,0.5,2.1c0.2,0.1,0.5,0.2,0.8,0.2&#10;&#9;&#9;&#9;&#9;&#9;c0.5,0,1-0.3,1.3-0.7l1.6-2.6C207.5,338.5,207.3,337.6,206.6,337.1z" transform="matrix(1, 0, 0, 1, -82.82536504925912, -113.45940417706741)"/><path fill="#455A66" d="M212.3,330.7l1.6-2.6c0.4-0.7,0.2-1.6-0.5-2.1c-0.7-0.4-1.6-0.2-2.1,0.5l-1.6,2.6&#10;&#9;&#9;&#9;&#9;&#9;c-0.4,0.7-0.2,1.6,0.5,2.1c0.2,0.1,0.5,0.2,0.8,0.2C211.5,331.4,212,331.1,212.3,330.7z" transform="matrix(1, 0, 0, 1, -82.82536504925912, -113.45940417706741)"/><path fill="#364750" d="M241.2,422.4l-2.9-0.8c-0.8-0.2-1.6,0.3-1.8,1.1c-0.2,0.8,0.3,1.6,1.1,1.8l2.9,0.8&#10;&#9;&#9;&#9;&#9;&#9;c0.1,0,0.3,0.1,0.4,0.1c0.7,0,1.3-0.4,1.4-1.1C242.4,423.5,242,422.6,241.2,422.4z" transform="matrix(1, 0, 0, 1, -82.82536504925912, -113.45940417706741)"/><path fill="#455A66" d="M206.3,407.8l-2.4-1.8c-0.7-0.5-1.6-0.3-2.1,0.3c-0.5,0.7-0.3,1.6,0.3,2.1l2.4,1.8&#10;&#9;&#9;&#9;&#9;&#9;c0.3,0.2,0.6,0.3,0.9,0.3c0.5,0,0.9-0.2,1.2-0.6C207.1,409.2,207,408.3,206.3,407.8z" transform="matrix(1, 0, 0, 1, -82.82536504925912, -113.45940417706741)"/><path fill="#364750" d="M213.2,230.8c0.2,0.2,0.5,0.2,0.8,0.2c0.5,0,1-0.3,1.3-0.7c0.4-0.7,0.2-1.6-0.5-2.1l-2.5-1.6&#10;&#9;&#9;&#9;&#9;&#9;c-0.7-0.4-1.6-0.2-2.1,0.5c-0.4,0.7-0.2,1.6,0.5,2.1L213.2,230.8z" transform="matrix(1, 0, 0, 1, -82.82536504925912, -113.45940417706741)"/><path fill="#455A66" d="M199.8,348.2c-0.7-0.4-1.6-0.2-2.1,0.5l-1.6,2.6c-0.4,0.7-0.2,1.6,0.5,2.1c0.2,0.1,0.5,0.2,0.8,0.2&#10;&#9;&#9;&#9;&#9;&#9;c0.5,0,1-0.3,1.3-0.7l1.6-2.6C200.8,349.6,200.5,348.7,199.8,348.2z" transform="matrix(1, 0, 0, 1, -82.82536504925912, -113.45940417706741)"/><path fill="#364750" d="M237.4,244.1c0.4-0.7,0.2-1.6-0.5-2.1l-2.5-1.6c-0.7-0.4-1.6-0.2-2.1,0.5c-0.4,0.7-0.2,1.6,0.5,2.1&#10;&#9;&#9;&#9;&#9;&#9;l2.5,1.6c0.2,0.2,0.5,0.2,0.8,0.2C236.6,244.8,237.1,244.5,237.4,244.1z" transform="matrix(1, 0, 0, 1, -82.82536504925912, -113.45940417706741)"/><path fill="#364750" d="M231.8,310.6l-2.7,1.4c-0.7,0.4-1,1.3-0.7,2c0.3,0.5,0.8,0.8,1.3,0.8c0.2,0,0.5-0.1,0.7-0.2l2.7-1.4&#10;&#9;&#9;&#9;&#9;&#9;c0.7-0.4,1-1.3,0.7-2C233.5,310.6,232.6,310.3,231.8,310.6z" transform="matrix(1, 0, 0, 1, -82.82536504925912, -113.45940417706741)"/><path fill="#364750" d="M220.2,316.5l-2.7,1.4c-0.7,0.4-1,1.3-0.7,2c0.3,0.5,0.8,0.8,1.3,0.8c0.2,0,0.5-0.1,0.7-0.2l2.7-1.4&#10;&#9;&#9;&#9;&#9;&#9;c0.7-0.4,1-1.3,0.7-2C221.9,316.5,221,316.2,220.2,316.5z" transform="matrix(1, 0, 0, 1, -82.82536504925912, -113.45940417706741)"/><path fill="#364750" d="M224.3,237.7c0.2,0.2,0.5,0.2,0.8,0.2c0.5,0,1-0.3,1.3-0.7c0.4-0.7,0.2-1.6-0.5-2.1l-2.5-1.6&#10;&#9;&#9;&#9;&#9;&#9;c-0.7-0.4-1.6-0.2-2.1,0.5c-0.4,0.7-0.2,1.6,0.5,2.1L224.3,237.7z" transform="matrix(1, 0, 0, 1, -82.82536504925912, -113.45940417706741)"/><path fill="#455A66" d="M216.8,415.4l-2.4-1.8c-0.7-0.5-1.6-0.3-2.1,0.3c-0.5,0.7-0.3,1.6,0.3,2.1l2.4,1.8&#10;&#9;&#9;&#9;&#9;&#9;c0.3,0.2,0.6,0.3,0.9,0.3c0.5,0,0.9-0.2,1.2-0.6C217.6,416.9,217.5,415.9,216.8,415.4z" transform="matrix(1, 0, 0, 1, -82.82536504925912, -113.45940417706741)"/><path fill="#455A66" d="M195.8,400.1l-2.4-1.8c-0.7-0.5-1.6-0.3-2.1,0.3c-0.5,0.7-0.3,1.6,0.3,2.1l2.4,1.8&#10;&#9;&#9;&#9;&#9;&#9;c0.3,0.2,0.6,0.3,0.9,0.3c0.5,0,0.9-0.2,1.2-0.6C196.6,401.5,196.5,400.6,195.8,400.1z" transform="matrix(1, 0, 0, 1, -82.82536504925912, -113.45940417706741)"/><path fill="#455A66" d="M235.3,206c0.2,0,0.5-0.1,0.7-0.2l2.7-1.4c0.7-0.4,1-1.3,0.6-2c-0.4-0.7-1.3-1-2-0.6l-2.7,1.4&#10;&#9;&#9;&#9;&#9;&#9;c-0.7,0.4-1,1.3-0.6,2C234.2,205.7,234.7,206,235.3,206z" transform="matrix(1, 0, 0, 1, -82.82536504925912, -113.45940417706741)"/><path fill="#455A66" d="M246.8,200c0.2,0,0.5-0.1,0.7-0.2l2.7-1.4c0.7-0.4,1-1.3,0.6-2c-0.4-0.7-1.3-1-2-0.6l-2.7,1.4&#10;&#9;&#9;&#9;&#9;&#9;c-0.7,0.4-1,1.3-0.6,2C245.7,199.7,246.3,200,246.8,200z" transform="matrix(1, 0, 0, 1, -82.82536504925912, -113.45940417706741)"/><path fill="#455A66" d="M192,363.9l1.6-2.6c0.4-0.7,0.2-1.6-0.5-2.1c-0.7-0.4-1.6-0.2-2.1,0.5l-1.6,2.6&#10;&#9;&#9;&#9;&#9;&#9;c-0.4,0.7-0.2,1.6,0.5,2.1c0.2,0.1,0.5,0.2,0.8,0.2C191.2,364.7,191.7,364.4,192,363.9z" transform="matrix(1, 0, 0, 1, -82.82536504925912, -113.45940417706741)"/><path fill="#455A66" d="M258.3,194c0.2,0,0.5-0.1,0.7-0.2l2.7-1.4c0.7-0.4,1-1.3,0.6-2c-0.4-0.7-1.3-1-2-0.6l-2.7,1.4&#10;&#9;&#9;&#9;&#9;&#9;c-0.7,0.4-1,1.3-0.6,2C257.3,193.7,257.8,194,258.3,194z" transform="matrix(1, 0, 0, 1, -82.82536504925912, -113.45940417706741)"/><path fill="#455A66" d="M345.6,405.8l0.5,3c0.1,0.7,0.8,1.2,1.5,1.2c0.1,0,0.2,0,0.3,0c0.8-0.1,1.4-0.9,1.2-1.7l-0.5-3&#10;&#9;&#9;&#9;&#9;&#9;c-0.1-0.8-0.9-1.4-1.7-1.2C346,404.2,345.4,405,345.6,405.8z" transform="matrix(1, 0, 0, 1, -82.82536504925912, -113.45940417706741)"/><path fill="#455A66" d="M281.4,181.9c0.2,0,0.5-0.1,0.7-0.2l2.7-1.4c0.7-0.4,1-1.3,0.6-2c-0.4-0.7-1.3-1-2-0.6l-2.7,1.4&#10;&#9;&#9;&#9;&#9;&#9;c-0.7,0.4-1,1.3-0.6,2C280.3,181.6,280.8,181.9,281.4,181.9z" transform="matrix(1, 0, 0, 1, -82.82536504925912, -113.45940417706741)"/><path fill="#455A66" d="M269.8,187.9c0.2,0,0.5-0.1,0.7-0.2l2.7-1.4c0.7-0.4,1-1.3,0.6-2c-0.4-0.7-1.3-1-2-0.6l-2.7,1.4&#10;&#9;&#9;&#9;&#9;&#9;c-0.7,0.4-1,1.3-0.6,2C268.8,187.6,269.3,187.9,269.8,187.9z" transform="matrix(1, 0, 0, 1, -82.82536504925912, -113.45940417706741)"/><path fill="#455A66" d="M223.7,212c0.2,0,0.5-0.1,0.7-0.2l2.7-1.4c0.7-0.4,1-1.3,0.6-2c-0.4-0.7-1.3-1-2-0.6l-2.7,1.4&#10;&#9;&#9;&#9;&#9;&#9;c-0.7,0.4-1,1.3-0.6,2C222.7,211.7,223.2,212,223.7,212z" transform="matrix(1, 0, 0, 1, -82.82536504925912, -113.45940417706741)"/><path fill="#455A66" d="M186.3,370.4c-0.7-0.4-1.6-0.2-2.1,0.5l-1.6,2.6c-0.4,0.7-0.2,1.6,0.5,2.1c0.2,0.1,0.5,0.2,0.8,0.2&#10;&#9;&#9;&#9;&#9;&#9;c0.5,0,1-0.3,1.3-0.7l1.6-2.6C187.2,371.8,187,370.8,186.3,370.4z" transform="matrix(1, 0, 0, 1, -82.82536504925912, -113.45940417706741)"/><path fill="#455A66" d="M185.3,392.4l-2.4-1.8c-0.7-0.5-1.6-0.3-2.1,0.3c-0.5,0.7-0.3,1.6,0.3,2.1l2.4,1.8&#10;&#9;&#9;&#9;&#9;&#9;c0.3,0.2,0.6,0.3,0.9,0.3c0.5,0,0.9-0.2,1.2-0.6C186.1,393.9,186,392.9,185.3,392.4z" transform="matrix(1, 0, 0, 1, -82.82536504925912, -113.45940417706741)"/><path fill="#455A66" d="M212.2,218c0.2,0,0.5-0.1,0.7-0.2l2.7-1.4c0.7-0.4,1-1.3,0.6-2c-0.4-0.7-1.3-1-2-0.6l-2.7,1.4&#10;&#9;&#9;&#9;&#9;&#9;c-0.7,0.4-1,1.3-0.6,2C211.2,217.7,211.7,218,212.2,218z" transform="matrix(1, 0, 0, 1, -82.82536504925912, -113.45940417706741)"/><path fill="#455A66" d="M179.5,381.5c-0.7-0.4-1.6-0.2-2.1,0.5l-1.6,2.6c-0.4,0.7-0.2,1.6,0.5,2.1c0.2,0.1,0.5,0.2,0.8,0.2&#10;&#9;&#9;&#9;&#9;&#9;c0.5,0,1-0.3,1.3-0.7l1.6-2.6C180.4,382.9,180.2,381.9,179.5,381.5z" transform="matrix(1, 0, 0, 1, -82.82536504925912, -113.45940417706741)"/><path fill="#364750" d="M228.6,419.1l-2.9-0.8c-0.8-0.2-1.6,0.3-1.8,1.1c-0.2,0.8,0.3,1.6,1.1,1.8l2.9,0.8&#10;&#9;&#9;&#9;&#9;&#9;c0.1,0,0.3,0.1,0.4,0.1c0.7,0,1.3-0.4,1.4-1.1C229.9,420.1,229.4,419.3,228.6,419.1z" transform="matrix(1, 0, 0, 1, -82.82536504925912, -113.45940417706741)"/><path fill="#364750" d="M304,439.1l-2.9-0.8c-0.8-0.2-1.6,0.3-1.8,1.1c-0.2,0.8,0.3,1.6,1.1,1.8l2.9,0.8c0.1,0,0.3,0.1,0.4,0.1&#10;&#9;&#9;&#9;&#9;&#9;c0.7,0,1.3-0.4,1.4-1.1C305.3,440.2,304.8,439.4,304,439.1z" transform="matrix(1, 0, 0, 1, -82.82536504925912, -113.45940417706741)"/><path fill="#455A66" d="M294.9,171.7l-2.7,1.4c-0.7,0.4-1,1.3-0.6,2c0.3,0.5,0.8,0.8,1.3,0.8c0.2,0,0.5-0.1,0.7-0.2l2.7-1.4&#10;&#9;&#9;&#9;&#9;&#9;c0.7-0.4,1-1.3,0.6-2C296.5,171.6,295.6,171.3,294.9,171.7z" transform="matrix(1, 0, 0, 1, -82.82536504925912, -113.45940417706741)"/><path fill="#364750" d="M243.4,304.8l-2.7,1.4c-0.7,0.4-1,1.3-0.7,2c0.3,0.5,0.8,0.8,1.3,0.8c0.2,0,0.5-0.1,0.7-0.2l2.7-1.4&#10;&#9;&#9;&#9;&#9;&#9;c0.7-0.4,1-1.3,0.7-2C245,304.7,244.1,304.4,243.4,304.8z" transform="matrix(1, 0, 0, 1, -82.82536504925912, -113.45940417706741)"/><path fill="#455A66" d="M204.7,220.5c-0.4-0.7-1.3-1-2-0.6l-1.5,0.8c-0.5,0.2-0.8,0.7-0.8,1.3c0,0,0,0,0,0.1h4.2&#10;&#9;&#9;&#9;&#9;&#9;C204.9,221.5,204.9,220.9,204.7,220.5z" transform="matrix(1, 0, 0, 1, -82.82536504925912, -113.45940417706741)"/><path fill="#364750" d="M201.1,223.2l1.1,0.7c0.2,0.2,0.5,0.2,0.8,0.2c0.5,0,1-0.3,1.3-0.7c0.2-0.4,0.3-0.8,0.2-1.2&#10;&#9;&#9;&#9;&#9;&#9;c0.1-0.1,0.1-0.2,0.2-0.3h-4.2C200.4,222.4,200.6,222.9,201.1,223.2z" transform="matrix(1, 0, 0, 1, -82.82536504925912, -113.45940417706741)"/><path fill="#364750" d="M325.6,430.3l-2.6,1.6c-0.7,0.4-0.9,1.4-0.5,2.1c0.3,0.5,0.8,0.7,1.3,0.7c0.3,0,0.5-0.1,0.8-0.2l2.6-1.6&#10;&#9;&#9;&#9;&#9;&#9;c0.7-0.4,0.9-1.4,0.5-2.1C327.3,430.1,326.3,429.8,325.6,430.3z" transform="matrix(1, 0, 0, 1, -82.82536504925912, -113.45940417706741)"/><path fill="#364750" d="M292.1,276.4l-2.5-1.6c-0.7-0.4-1.6-0.2-2.1,0.5c-0.4,0.7-0.2,1.6,0.5,2.1l2.5,1.6&#10;&#9;&#9;&#9;&#9;&#9;c0.2,0.2,0.5,0.2,0.8,0.2c0.5,0,1-0.3,1.3-0.7C293,277.7,292.8,276.8,292.1,276.4z" transform="matrix(1, 0, 0, 1, -82.82536504925912, -113.45940417706741)"/><path fill="#364750" d="M349.9,417.2c-0.4-0.7-1.4-0.9-2.1-0.5l-2.6,1.6c-0.7,0.4-0.9,1.4-0.5,2.1c0.3,0.5,0.8,0.7,1.3,0.7&#10;&#9;&#9;&#9;&#9;&#9;c0.3,0,0.5-0.1,0.8-0.2l2.6-1.6C350.1,418.8,350.3,417.9,349.9,417.2z" transform="matrix(1, 0, 0, 1, -82.82536504925912, -113.45940417706741)"/><path fill="#455A66" d="M345.5,397.1c0.8-0.1,1.4-0.9,1.2-1.7l-0.5-3c-0.1-0.8-0.9-1.4-1.7-1.2c-0.8,0.1-1.4,0.9-1.2,1.7l0.5,3&#10;&#9;&#9;&#9;&#9;&#9;c0.1,0.7,0.8,1.2,1.5,1.2C345.4,397.2,345.5,397.2,345.5,397.1z" transform="matrix(1, 0, 0, 1, -82.82536504925912, -113.45940417706741)"/><path fill="#455A66" d="M344.5,382.6l-0.5-3c-0.1-0.8-0.9-1.4-1.7-1.2c-0.8,0.1-1.4,0.9-1.2,1.7l0.5,3c0.1,0.7,0.8,1.2,1.5,1.2&#10;&#9;&#9;&#9;&#9;&#9;c0.1,0,0.2,0,0.3,0C344.1,384.2,344.6,383.4,344.5,382.6z" transform="matrix(1, 0, 0, 1, -82.82536504925912, -113.45940417706741)"/><path fill="#455A66" d="M342.2,369.8l-0.5-3c-0.1-0.8-0.9-1.4-1.7-1.2c-0.8,0.1-1.4,0.9-1.2,1.7l0.5,3c0.1,0.7,0.8,1.2,1.5,1.2&#10;&#9;&#9;&#9;&#9;&#9;c0.1,0,0.2,0,0.3,0C341.8,371.4,342.3,370.6,342.2,369.8z" transform="matrix(1, 0, 0, 1, -82.82536504925912, -113.45940417706741)"/><path fill="#364750" d="M336.7,423.5l-2.6,1.6c-0.7,0.4-0.9,1.4-0.5,2.1c0.3,0.5,0.8,0.7,1.3,0.7c0.3,0,0.5-0.1,0.8-0.2l2.6-1.6&#10;&#9;&#9;&#9;&#9;&#9;c0.7-0.4,0.9-1.4,0.5-2.1C338.4,423.3,337.4,423,336.7,423.5z" transform="matrix(1, 0, 0, 1, -82.82536504925912, -113.45940417706741)"/><path fill="#364750" d="M314.6,437.1l-2.6,1.6c-0.7,0.4-0.9,1.4-0.5,2.1c0.3,0.5,0.8,0.7,1.3,0.7c0.3,0,0.5-0.1,0.8-0.2l2.6-1.6&#10;&#9;&#9;&#9;&#9;&#9;c0.7-0.4,0.9-1.4,0.5-2.1C316.2,436.8,315.3,436.6,314.6,437.1z" transform="matrix(1, 0, 0, 1, -82.82536504925912, -113.45940417706741)"/><path fill="#364750" d="M259,255.7l-2.5-1.6c-0.7-0.4-1.6-0.2-2.1,0.5c-0.4,0.7-0.2,1.6,0.5,2.1l2.5,1.6&#10;&#9;&#9;&#9;&#9;&#9;c0.2,0.2,0.5,0.2,0.8,0.2c0.5,0,1-0.3,1.3-0.7C259.9,257.1,259.7,256.2,259,255.7z" transform="matrix(1, 0, 0, 1, -82.82536504925912, -113.45940417706741)"/><path fill="#364750" d="M255,298.9l-2.7,1.4c-0.7,0.4-1,1.3-0.7,2c0.3,0.5,0.8,0.8,1.3,0.8c0.2,0,0.5-0.1,0.7-0.2l2.7-1.4&#10;&#9;&#9;&#9;&#9;&#9;c0.7-0.4,1-1.3,0.7-2C256.6,298.8,255.7,298.5,255,298.9z" transform="matrix(1, 0, 0, 1, -82.82536504925912, -113.45940417706741)"/><path fill="#364750" d="M266.6,293l-2.7,1.4c-0.7,0.4-1,1.3-0.7,2c0.3,0.5,0.8,0.8,1.3,0.8c0.2,0,0.5-0.1,0.7-0.2l2.7-1.4&#10;&#9;&#9;&#9;&#9;&#9;c0.7-0.4,1-1.3,0.7-2C268.2,292.9,267.3,292.6,266.6,293z" transform="matrix(1, 0, 0, 1, -82.82536504925912, -113.45940417706741)"/><path fill="#364750" d="M266.3,429.1l-2.9-0.8c-0.8-0.2-1.6,0.3-1.8,1.1c-0.2,0.8,0.3,1.6,1.1,1.8l2.9,0.8&#10;&#9;&#9;&#9;&#9;&#9;c0.1,0,0.3,0.1,0.4,0.1c0.7,0,1.3-0.4,1.4-1.1C267.6,430.1,267.1,429.3,266.3,429.1z" transform="matrix(1, 0, 0, 1, -82.82536504925912, -113.45940417706741)"/><path fill="#364750" d="M247.9,248.9l-2.5-1.6c-0.7-0.4-1.6-0.2-2.1,0.5c-0.4,0.7-0.2,1.6,0.5,2.1l2.5,1.6&#10;&#9;&#9;&#9;&#9;&#9;c0.2,0.2,0.5,0.2,0.8,0.2c0.5,0,1-0.3,1.3-0.7C248.9,250.2,248.6,249.3,247.9,248.9z" transform="matrix(1, 0, 0, 1, -82.82536504925912, -113.45940417706741)"/><path fill="#364750" d="M253.7,425.8l-2.9-0.8c-0.8-0.2-1.6,0.3-1.8,1.1c-0.2,0.8,0.3,1.6,1.1,1.8l2.9,0.8&#10;&#9;&#9;&#9;&#9;&#9;c0.1,0,0.3,0.1,0.4,0.1c0.7,0,1.3-0.4,1.4-1.1C255,426.8,254.5,426,253.7,425.8z" transform="matrix(1, 0, 0, 1, -82.82536504925912, -113.45940417706741)"/><path fill="#364750" d="M278.2,287.1l-2.7,1.4c-0.7,0.4-1,1.3-0.7,2c0.3,0.5,0.8,0.8,1.3,0.8c0.2,0,0.5-0.1,0.7-0.2l2.7-1.4&#10;&#9;&#9;&#9;&#9;&#9;c0.7-0.4,1-1.3,0.7-2C279.8,287,278.9,286.7,278.2,287.1z" transform="matrix(1, 0, 0, 1, -82.82536504925912, -113.45940417706741)"/><path fill="#364750" d="M281,269.5l-2.5-1.6c-0.7-0.4-1.6-0.2-2.1,0.5c-0.4,0.7-0.2,1.6,0.5,2.1l2.5,1.6&#10;&#9;&#9;&#9;&#9;&#9;c0.2,0.2,0.5,0.2,0.8,0.2c0.5,0,1-0.3,1.3-0.7C282,270.9,281.7,269.9,281,269.5z" transform="matrix(1, 0, 0, 1, -82.82536504925912, -113.45940417706741)"/><path fill="#364750" d="M287.8,285.4c0.2,0,0.5-0.1,0.7-0.2l2.7-1.4c0.7-0.4,1-1.3,0.7-2c-0.4-0.7-1.3-1-2-0.7l-2.7,1.4&#10;&#9;&#9;&#9;&#9;&#9;c-0.7,0.4-1,1.3-0.7,2C286.7,285.1,287.2,285.4,287.8,285.4z" transform="matrix(1, 0, 0, 1, -82.82536504925912, -113.45940417706741)"/><path fill="#364750" d="M270,262.6l-2.5-1.6c-0.7-0.4-1.6-0.2-2.1,0.5c-0.4,0.7-0.2,1.6,0.5,2.1l2.5,1.6&#10;&#9;&#9;&#9;&#9;&#9;c0.2,0.2,0.5,0.2,0.8,0.2c0.5,0,1-0.3,1.3-0.7C270.9,264,270.7,263,270,262.6z" transform="matrix(1, 0, 0, 1, -82.82536504925912, -113.45940417706741)"/><path fill="#364750" d="M278.9,432.5l-2.9-0.8c-0.8-0.2-1.6,0.3-1.8,1.1c-0.2,0.8,0.3,1.6,1.1,1.8l2.9,0.8&#10;&#9;&#9;&#9;&#9;&#9;c0.1,0,0.3,0.1,0.4,0.1c0.7,0,1.3-0.4,1.4-1.1C280.1,433.5,279.7,432.7,278.9,432.5z" transform="matrix(1, 0, 0, 1, -82.82536504925912, -113.45940417706741)"/><path fill="#364750" d="M291.4,435.8l-2.9-0.8c-0.8-0.2-1.6,0.3-1.8,1.1c-0.2,0.8,0.3,1.6,1.1,1.8l2.9,0.8&#10;&#9;&#9;&#9;&#9;&#9;c0.1,0,0.3,0.1,0.4,0.1c0.7,0,1.3-0.4,1.4-1.1C292.7,436.8,292.2,436,291.4,435.8z" transform="matrix(1, 0, 0, 1, -82.82536504925912, -113.45940417706741)"/><path fill="#D84727" d="M346.2,359.5l-6.7-6.7l6.7-6.7c0.7-0.7,0.7-1.9,0-2.6c-0.7-0.7-1.9-0.7-2.6,0l-6.7,6.7l-6.7-6.7&#10;&#9;&#9;&#9;&#9;c-0.7-0.7-1.9-0.7-2.6,0c-0.7,0.7-0.7,1.9,0,2.6l6.7,6.7l-6.7,6.7c-0.7,0.7-0.7,1.9,0,2.6c0.7,0.7,1.9,0.7,2.6,0l6.7-6.7l6.7,6.7&#10;&#9;&#9;&#9;&#9;c0.7,0.7,1.9,0.7,2.6,0C346.9,361.4,346.9,360.2,346.2,359.5z" transform="matrix(1, 0, 0, 1, -82.82536504925912, -113.45940417706741)"/><path d="M 330 260.79998779296875 L 316.5 274.5 L 343.29998779296875 274.5 Z" fill="#8E6F62" transform="matrix(1, 0, 0, 1, -82.82536504925912, -113.45940417706741)"/><path d="M 311.79998779296875 264.5 L 301.8999938964844 274.5 L 321.5 274.5 Z" fill="#8E6F62" transform="matrix(1, 0, 0, 1, -82.82536504925912, -113.45940417706741)"/>
</svg>