<?xml version="1.0" encoding="utf-8"?>
<svg id="master-artboard" viewBox="0 0 231.99102783203125 183.7345428466797" version="1.1" xmlns="http://www.w3.org/2000/svg" x="0px" y="0px" width="231.99102783203125px" height="183.7345428466797px" style="enable-background:new 0 0 1400 980;"><rect id="ee-background" x="0" y="0" width="231.99102783203125" height="183.7345428466797" style="fill: white; fill-opacity: 0; pointer-events: none;"/>

<path style="fill:#98A4AB;" d="M1096.834,496.253l-40.268-44.906l31.896-28.602c13.142-11.785,30.671-17.432,48.22-15.535&#10;&#9;&#9;&#9;l12.741,1.377l-0.014,12.815c-0.02,17.652-7.537,34.464-20.679,46.249L1096.834,496.253z" transform="matrix(1, 0, 0, 1, -931.653551052676, -405.01687625812144)"/><path style="fill:#B1BEC5;" d="M1088.462,433.002c13.142-11.785,30.671-17.432,48.22-15.535l12.73,1.376l0.011-10.256&#10;&#9;&#9;&#9;l-12.741-1.377c-17.549-1.897-35.078,3.751-48.22,15.535l-31.896,28.602l5.098,5.685L1088.462,433.002z" transform="matrix(1, 0, 0, 1, -931.653551052676, -405.01687625812144)"/><path style="fill:#5A0000;" d="M1096.834,497.835c-0.028,0-0.057-0.001-0.086-0.002c-0.419-0.023-0.812-0.211-1.092-0.523&#10;&#9;&#9;&#9;l-40.269-44.905c-0.28-0.312-0.425-0.723-0.402-1.142c0.023-0.419,0.211-0.811,0.523-1.092l31.896-28.602&#10;&#9;&#9;&#9;c13.456-12.066,31.478-17.871,49.446-15.93l12.741,1.377c0.804,0.087,1.413,0.766,1.412,1.574l-0.014,12.815&#10;&#9;&#9;&#9;c-0.02,18.073-7.749,35.358-21.205,47.424l-31.896,28.603C1097.599,497.692,1097.223,497.835,1096.834,497.835z M1058.799,451.469&#10;&#9;&#9;&#9;l38.156,42.55l30.719-27.546c12.788-11.468,20.134-27.896,20.153-45.073l0.013-11.394l-11.328-1.224&#10;&#9;&#9;&#9;c-17.079-1.846-34.206,3.673-46.994,15.14L1058.799,451.469z" transform="matrix(1, 0, 0, 1, -931.653551052676, -405.01687625812144)"/><path style="fill:#5A0000;" d="M1085.662,485.377c-0.449,0-0.877-0.191-1.178-0.526l-17.925-19.989&#10;&#9;&#9;&#9;c-0.307-0.342-0.45-0.801-0.391-1.257c0.058-0.456,0.312-0.864,0.695-1.118l36.194-23.984l1.747,2.637l-34.668,22.973&#10;&#9;&#9;&#9;l15.48,17.263l26.601-31.969l2.432,2.024l-27.772,33.377c-0.294,0.353-0.727,0.561-1.187,0.57&#10;&#9;&#9;&#9;C1085.682,485.377,1085.672,485.377,1085.662,485.377z" transform="matrix(1, 0, 0, 1, -931.653551052676, -405.01687625812144)"/><path d="M 1062.926025 469.127991 H 1078.717026 V 489.015991 H 1062.926025 V 469.127991 Z" transform="matrix(0.7445001006126403, -0.6676000952720643, 0.6676000952720643, 0.7445001006126403, -977.8986491666894, 432.28732296062844)" style="fill:#DCEBF3;"/><path d="M 1058.68396 470.751007 H 1074.47496 V 477.931007 H 1058.68396 V 470.751007 Z" transform="matrix(0.7445001006126403, -0.6676000952720643, 0.6676000952720643, 0.7445001006126403, -975.8243503080471, 428.2467345817224)" style="fill:#FBFDFF;"/><path style="fill:#5A0000;" d="M1071.582,493.328c-0.028,0-0.057-0.001-0.086-0.002c-0.419-0.023-0.812-0.211-1.092-0.523&#10;&#9;&#9;&#9;l-13.277-14.806c-0.583-0.65-0.529-1.65,0.122-2.234l11.756-10.542c0.312-0.28,0.722-0.424,1.142-0.402&#10;&#9;&#9;&#9;c0.419,0.023,0.812,0.211,1.092,0.523l13.277,14.806c0.583,0.651,0.529,1.65-0.122,2.234l-11.756,10.543&#10;&#9;&#9;&#9;C1072.347,493.185,1071.971,493.328,1071.582,493.328z M1060.539,477.061l11.165,12.451l9.401-8.43l-11.165-12.451&#10;&#9;&#9;&#9;L1060.539,477.061z" transform="matrix(1, 0, 0, 1, -931.653551052676, -405.01687625812144)"/><path d="M 976.870972 513.491028 H 1077.675972 V 522.756028 H 976.870972 V 513.491028 Z" transform="matrix(0.7445001006126403, -0.6676000952720643, 0.6676000952720643, 0.7445001006126403, -1015.0969485746484, 413.1909484489099)" style="fill:#94D9F8;"/><path d="M 975.52002 514.007019 H 1076.32502 V 519.227019 H 975.52002 V 514.007019 Z" transform="matrix(0.7445001006126403, -0.6676000952720643, 0.6676000952720643, 0.7445001006126403, -1014.4365481840236, 411.90451046062867)" style="fill:#E4F5FD;"/><path style="fill:#5A0000;" d="M992.842,556.804c-0.434,0-0.866-0.177-1.178-0.526l-6.186-6.898&#10;&#9;&#9;&#9;c-0.28-0.312-0.425-0.723-0.402-1.142c0.023-0.419,0.211-0.812,0.523-1.092l75.049-67.299c0.65-0.584,1.651-0.529,2.234,0.122&#10;&#9;&#9;&#9;l6.186,6.898c0.28,0.312,0.425,0.723,0.402,1.142c-0.023,0.419-0.211,0.812-0.523,1.092L993.897,556.4&#10;&#9;&#9;&#9;C993.595,556.67,993.218,556.804,992.842,556.804z M988.889,548.445l4.074,4.543l72.694-65.187l-4.074-4.543L988.889,548.445z" transform="matrix(1, 0, 0, 1, -931.653551052676, -405.01687625812144)"/><path style="fill:#5A0000;" d="M986.879,584.438c-0.002,0-0.003,0-0.005,0c-0.448-0.001-0.874-0.193-1.173-0.526l-28.342-31.605&#10;&#9;&#9;&#9;c-0.296-0.33-0.439-0.768-0.396-1.209c0.043-0.441,0.268-0.844,0.622-1.11l18.347-13.824c0.655-0.495,1.581-0.405,2.13,0.207&#10;&#9;&#9;&#9;l25.469,28.401c0.541,0.604,0.538,1.519-0.007,2.12l-15.474,17.029C987.749,584.25,987.324,584.438,986.879,584.438z&#10;&#9;&#9;&#9; M960.864,551.478l26.022,29.018l13.335-14.675l-23.545-26.257L960.864,551.478z" transform="matrix(1, 0, 0, 1, -931.653551052676, -405.01687625812144)"/><path d="M 977.557983 446.713013 H 999.187983 V 456.629013 H 977.557983 V 446.713013 Z" transform="matrix(0.7958998680114745, -0.6054000258445741, 0.6054000258445741, 0.7958998680114745, -1003.3973483549221, 285.48580928875367)" style="fill:#98A4AB;"/><path style="fill:#5A0000;" d="M982.766,463.747c-0.071,0-0.142-0.005-0.213-0.014c-0.416-0.056-0.792-0.276-1.046-0.61&#10;&#9;&#9;&#9;l-6.003-7.893c-0.529-0.695-0.394-1.688,0.301-2.216l17.216-13.094c0.334-0.254,0.756-0.365,1.171-0.308&#10;&#9;&#9;&#9;c0.416,0.056,0.792,0.276,1.046,0.61l6.003,7.893c0.529,0.695,0.394,1.688-0.301,2.216l-17.216,13.094&#10;&#9;&#9;&#9;C983.447,463.634,983.11,463.747,982.766,463.747z M978.98,454.573l4.088,5.375l14.698-11.179l-4.088-5.375L978.98,454.573z" transform="matrix(1, 0, 0, 1, -931.653551052676, -405.01687625812144)"/><path style="fill:#DCEBF3;" d="M942.084,486.47c0,0,16.738-70.733,96.488-69.939l3.229,4.246&#10;&#9;&#9;&#9;c-51.755,9.203-94.827,72.123-94.827,72.123L942.084,486.47z" transform="matrix(1, 0, 0, 1, -931.653551052676, -405.01687625812144)"/><path style="fill:#FBFDFF;" d="M950.586,487.628c0,0,15.678-66.247,88.975-69.797l-0.989-1.301&#10;&#9;&#9;&#9;c-79.75-0.793-96.488,69.939-96.488,69.939l4.89,6.43c0,0,1.307-1.909,3.737-5.108L950.586,487.628z" transform="matrix(1, 0, 0, 1, -931.653551052676, -405.01687625812144)"/><path style="fill:#5A0000;" d="M946.975,494.482c-0.493,0-0.959-0.23-1.259-0.624l-4.891-6.43&#10;&#9;&#9;&#9;c-0.286-0.377-0.389-0.861-0.28-1.322c0.174-0.736,4.43-18.235,18.645-35.895c8.358-10.384,18.433-18.626,29.943-24.496&#10;&#9;&#9;&#9;c14.367-7.327,31-10.938,49.455-10.766c0.489,0.005,0.947,0.235,1.243,0.624l3.23,4.246c0.334,0.439,0.415,1.02,0.214,1.533&#10;&#9;&#9;&#9;c-0.201,0.514-0.654,0.885-1.196,0.982c-26.32,4.68-50.39,23.814-65.948,39.042c-16.942,16.582-27.744,32.261-27.851,32.417&#10;&#9;&#9;&#9;c-0.287,0.419-0.758,0.675-1.266,0.688C947.001,494.482,946.988,494.482,946.975,494.482z M943.81,486.127l3.122,4.105&#10;&#9;&#9;&#9;c3.346-4.611,13.132-17.55,26.941-31.073c10.087-9.878,20.324-18.143,30.429-24.566c11.804-7.503,23.464-12.503,34.701-14.883&#10;&#9;&#9;&#9;l-1.22-1.604c-0.188-0.001-0.378-0.001-0.565-0.001c-31.887,0-57.276,11.43-75.482,33.988&#10;&#9;&#9;&#9;C949.503,467.249,944.761,482.682,943.81,486.127z" transform="matrix(1, 0, 0, 1, -931.653551052676, -405.01687625812144)"/><path style="fill:#98A4AB;" d="M989.534,432.192L989.534,432.192c-4.963,7.131-12.046,12.518-20.243,15.397h0l-6.396-8.409v0&#10;&#9;&#9;&#9;c5.838-6.23,12.681-11.435,20.243-15.397l0,0L989.534,432.192z" transform="matrix(1, 0, 0, 1, -931.653551052676, -405.01687625812144)"/><path style="fill:#5A0000;" d="M969.291,449.17c-0.484,0-0.954-0.223-1.259-0.624l-6.395-8.409&#10;&#9;&#9;&#9;c-0.467-0.614-0.423-1.476,0.105-2.039c5.973-6.374,12.925-11.662,20.663-15.716c0.683-0.359,1.526-0.171,1.993,0.444l6.395,8.409&#10;&#9;&#9;&#9;c0.415,0.546,0.431,1.298,0.039,1.861c-5.185,7.45-12.453,12.978-21.017,15.985C969.643,449.141,969.466,449.17,969.291,449.17z&#10;&#9;&#9;&#9; M964.971,439.296l4.872,6.406c7.11-2.725,13.201-7.357,17.725-13.481l-4.872-6.406&#10;&#9;&#9;&#9;C976.133,429.402,970.181,433.929,964.971,439.296z" transform="matrix(1, 0, 0, 1, -931.653551052676, -405.01687625812144)"/><path style="fill:#F37761;" d="M1081.6,565.197c0,0-10.8,8.612-13.433,6.038c-27.358-26.74-61.714-91.773-80.997-112.42&#10;&#9;&#9;&#9;l8.564-6.514L1081.6,565.197z" transform="matrix(1, 0, 0, 1, -931.653551052676, -405.01687625812144)"/><path style="fill:#FBBD97;" d="M1071.643,567.856c-27.172-26.558-61.246-90.885-80.6-111.986l-3.872,2.945&#10;&#9;&#9;&#9;c19.283,20.647,53.64,85.68,80.998,112.42c2.633,2.573,13.433-6.038,13.433-6.038l-0.426-0.56&#10;&#9;&#9;&#9;C1077.805,566.883,1073.234,569.411,1071.643,567.856z" transform="matrix(1, 0, 0, 1, -931.653551052676, -405.01687625812144)"/><path style="fill:#5A0000;" d="M1069.535,573.299c-1.022,0-1.838-0.312-2.473-0.933c-15.604-15.252-33.548-42.986-49.38-67.456&#10;&#9;&#9;&#9;c-12.029-18.592-23.39-36.152-31.668-45.015c-0.305-0.327-0.458-0.768-0.42-1.213c0.038-0.446,0.263-0.855,0.619-1.125&#10;&#9;&#9;&#9;l8.565-6.514c0.334-0.254,0.753-0.365,1.171-0.308c0.416,0.056,0.792,0.276,1.046,0.61l85.866,112.896&#10;&#9;&#9;&#9;c0.52,0.684,0.399,1.659-0.273,2.195c-0.114,0.091-2.815,2.238-5.897,4.101C1073.63,572.385,1071.283,573.299,1069.535,573.299z&#10;&#9;&#9;&#9; M1069.273,570.104c0.011,0.001,1.268,0.505,6.08-2.46c1.575-0.97,3.047-2.018,4.031-2.747l-83.952-110.379l-5.931,4.511&#10;&#9;&#9;&#9;c8.337,9.389,19.28,26.304,30.836,44.163C1036.08,527.523,1053.922,555.1,1069.273,570.104&#10;&#9;&#9;&#9;C1069.273,570.104,1069.273,570.104,1069.273,570.104z" transform="matrix(1, 0, 0, 1, -931.653551052676, -405.01687625812144)"/><path style="fill:#5A0000;" d="M1062.247,555.418c-7.404-6.971-25.51-33.395-26.277-34.516l2.611-1.786&#10;&#9;&#9;&#9;c0.186,0.272,18.679,27.261,25.835,33.999L1062.247,555.418z" transform="matrix(1, 0, 0, 1, -931.653551052676, -405.01687625812144)"/>
</svg>