<?xml version="1.0" encoding="utf-8"?>
<svg id="master-artboard" viewBox="0 0 710.1668090820312 422.9142761230469" version="1.1" xmlns="http://www.w3.org/2000/svg" x="0px" y="0px" enable-background="new 0 0 1400 980" width="710.1668090820312px" height="422.9142761230469px"><rect id="ee-background" x="0" y="0" width="710.1668090820312" height="422.9142761230469" style="fill: white; fill-opacity: 0; pointer-events: none;"/>
<g transform="matrix(1, 0, 0, 1, -612.6808273437246, -487.87547927476277)">
			<path d="M 618.2999877929688 902.2999877929688 L 647.2999877929688 795.7999877929688 L 675.2999877929688 785.2999877929688 L 690.2999877929688 729.2999877929688 L 790.2999877929688 689.2999877929688 L 790.2999877929688 625.2999877929688 L 874.2999877929688 593.2999877929688 L 890.2999877929688 545.2999877929688 L 1006.2999877929688 495.29998779296875 L 1020.2999877929688 547.2999877929688 L 1085.300048828125 547.2999877929688 L 1098.300048828125 594.2999877929688 L 1135.300048828125 621.2999877929688 L 1147.300048828125 682.2999877929688 L 1189.300048828125 676.2999877929688 L 1189.300048828125 642.2999877929688 L 1210.300048828125 631.2999877929688 L 1210.300048828125 698.7999877929688 L 1232.300048828125 710.2999877929688 L 1232.300048828125 783.2999877929688 L 1270.300048828125 795.7999877929688 L 1287.300048828125 842.2999877929688 L 1302.300048828125 850.2999877929688 L 1319.300048828125 902.2999877929688 Z" fill="#A97C50"/>
			<path d="M 906.2999877929688 651.2999877929688 L 913.7000122070312 610.7000122070312 L 993.7000122070312 564 L 1005 620.7000122070312 L 1016.2999877929688 588 L 1067 586.7000122070312 L 1071 611.2999877929688 L 1095 626.7000122070312 L 1110.300048828125 736 L 1147.699951171875 736 L 1155.699951171875 814.2999877929688 L 1201 825.2999877929688 L 1208.300048828125 853.2999877929688 L 1251.699951171875 866 L 1267.699951171875 902.2999877929688 L 906.2999877929688 902.2999877929688 Z" fill="#8B5E3C"/>
			<path d="M 836.299988 642.299988 H 874.299988 V 902.299988 H 836.299988 V 642.299988 Z" fill="#F9C12E"/>
			<path d="M 1037.300049 642.299988 H 1075.300049 V 902.299988 H 1037.300049 V 642.299988 Z" fill="#F9C12E"/>
			<path d="M 825.299988 651.299988 H 1085.299988 V 689.299988 H 825.299988 V 651.299988 Z" fill="#FDD836"/>
			<path d="M 874.299988 689.299988 H 1037.299988 V 902.299988 H 874.299988 V 689.299988 Z" fill="#4C362F"/>
			<path d="M 836.2999877929688 708.7000122070312 L 800.2999877929688 715.2999877929688 L 800.2999877929688 756.7000122070312 L 720.2999877929688 772.2999877929688 L 699.7000122070312 859.2999877929688 L 681.7000122070312 808.7000122070312 L 658.2999877929688 818 L 671 876 L 653 856.7000122070312 L 639 902.2999877929688 L 836.2999877929688 902.2999877929688 Z" fill="#8B5E3C"/>
			<path d="M 1189.300048828125 642.2999877929688 L 1189.300048828125 676.2999877929688 L 1201.699951171875 674 L 1198 672 L 1200.300048828125 636.5999755859375 Z" fill="#8B5E3C"/>
			<path d="M 1201.699951171875 761.7999877929688 L 1185.699951171875 754.2999877929688 L 1184 729.7000122070312 L 1181.300048828125 728.5 L 1185.699951171875 694 L 1169.699951171875 696.7000122070312 L 1174 795.7999877929688 L 1204.300048828125 800.7999877929688 Z" fill="#8B5E3C"/>
		</g>
</svg>