<?xml version="1.0" encoding="utf-8"?>
<svg id="master-artboard" viewBox="0 0 163.04336547851562 196.32301330566406" version="1.1" xmlns="http://www.w3.org/2000/svg" x="0px" y="0px" style="enable-background:new 0 0 336 235.2;" width="163.04336547851562px" height="196.32301330566406px"><rect id="ee-background" x="0" y="0" width="163.04336547851562" height="196.32301330566406" style="fill: white; fill-opacity: 0; pointer-events: none;"/>


<path id="shadow_4_" class="st5" d="M263.1,49.1l0.1-6.1h0c0,0-0.1-0.9-1.8-1.5c-1.2-0.4-2.5-0.4-3.7,0c-0.8,0.2-1.6,0.7-1.8,1.4&#10;&#9;&#9;&#9;h0l0,6.1h0l0,7.5h0h0l-0.1,138.7h0l2.7,10.9l0.9,3.5c0,0.2,0.3,0.3,0.5,0.4c0,0,0,0,0,0h0c0,0,0,0,0,0c0,0,0,0,0,0h0&#10;&#9;&#9;&#9;c0.2,0,0.4-0.1,0.4-0.3l0.7-3.6l2.1-10.8h0l0.1-140.5L263.1,49.1L263.1,49.1z" style="opacity: 0.2;" transform="matrix(1, 0, 0, 1, -102.5495015325221, -15.918131581167607)"/><path d="M 184.100006 119.900002 H 327.600006 V 127.200002 H 184.100006 V 119.900002 Z" transform="matrix(-0.0009528499213047326, 1, -1, -0.0009528499213047326, 277.06210125068105, -148.00843309483952)" class="st8" style="fill: rgb(118, 149, 193);"/><path d="M 252.1999969482422 42.900001525878906 L 252.1999969482422 50.400001525878906 L 252.1999969482422 50.400001525878906 L 252.1999969482422 50.400001525878906 L 259.5 50.400001525878906 L 259.6000061035156 43 Z" class="st6" style="fill: rgb(102, 102, 102);" transform="matrix(1, 0, 0, 1, -102.5495015325221, -15.918131581167593)"/><path d="M 252.1999969482422 49.099998474121094 L 252.1999969482422 56.599998474121094 L 252.1999969482422 56.599998474121094 L 252.1999969482422 56.599998474121094 L 259.5 56.5 L 259.6000061035156 49.099998474121094 Z" class="st4" style="fill: rgb(249, 203, 134);" transform="matrix(1, 0, 0, 1, -102.5495015325221, -15.918131581167593)"/><path class="st10" d="M252.2,43l7.4,0c0,0-0.1-0.9-1.8-1.5c-1.2-0.4-2.5-0.4-3.7,0C253.3,41.8,252.4,42.2,252.2,43" style="fill: rgb(63, 170, 221);" transform="matrix(1, 0, 0, 1, -102.5495015325221, -15.918131581167593)"/><path class="st4" d="M257.3,206.2l2.1-10.8l-0.3-0.2c0,0,0,0,0,0l-1.7-1.1c0,0-0.1,0-0.2,0c-0.1,0-0.1,0-0.2,0.1l-1.2,1.1&#10;&#9;&#9;&#9;&#9;&#9;c-0.1,0-0.3,0-0.4,0l-1.5-1c-0.1,0-0.1-0.1-0.2-0.1c-0.1,0-0.1,0-0.2,0.1l-1.6,1.2l2.7,10.9c0.4-0.2,0.8-0.3,1.3-0.3&#10;&#9;&#9;&#9;&#9;&#9;C256.5,205.9,256.9,206,257.3,206.2z" style="fill: rgb(249, 203, 134);" transform="matrix(1, 0, 0, 1, -102.54950153252209, -15.918131581167593)"/><path class="st6" d="M256.1,210.1C256.1,210.1,256.1,210.1,256.1,210.1L256.1,210.1C256.2,210.1,256.2,210.1,256.1,210.1&#10;&#9;&#9;&#9;&#9;&#9;C256.2,210.1,256.2,210.1,256.1,210.1L256.1,210.1c0.3,0,0.4-0.1,0.5-0.3l0.7-3.6c-0.4-0.2-0.8-0.3-1.2-0.3&#10;&#9;&#9;&#9;&#9;&#9;c-0.5,0-0.9,0.1-1.3,0.3l0.9,3.5C255.7,209.9,255.9,210,256.1,210.1z" style="fill: rgb(102, 102, 102);" transform="matrix(1, 0, 0, 1, -102.54950153252209, -15.918131581167593)"/>
<g id="documents" transform="matrix(1, 0, 0, 1, -102.54950153252219, -15.918131581167621)">
		<path id="shadow_6_" class="st5" d="M107.9,204.1c0,3.3,2.7,6,6,6H239c3.3,0,6-2.7,6-6V47.8c0-3.3-2.7-6-6-6H113.9&#10;&#9;&#9;&#9;c-3.3,0-6,2.7-6,6V204.1z" style="opacity: 0.2;"/>
		<path class="st3" d="M104.4,204.1c0,3.3,2.7,6,6,6h125.1c3.3,0,6-2.7,6-6V47.8c0-3.3-2.7-6-6-6H110.3c-3.3,0-6,2.7-6,6V204.1z" style="fill: rgb(73, 186, 231);"/>
		<path id="shadow_7_" class="st5" d="M203.8,51.3v-9.8c0,0-5.9-3.2-24.3-3.2c0-3.1,0-4.9,0-5.6c3.4-1.1,5.8-4.2,5.8-8&#10;&#9;&#9;&#9;c0-4.7-3.8-8.4-8.4-8.4c-4.6,0-8.4,3.8-8.4,8.4c0,3.5,2.2,6.6,5.3,7.8c0,0.6,0,2.4,0,5.7c-18.3,0-24.3,3.2-24.3,3.2v9.7l-31.8,0&#10;&#9;&#9;&#9;v148l117.2,0.1l0.1-148L203.8,51.3z M171.8,24.8c0-2.9,2.3-5.2,5.2-5.2c2.9,0,5.2,2.3,5.2,5.2c0,2.9-2.3,5.2-5.2,5.2&#10;&#9;&#9;&#9;C174.1,30,171.8,27.7,171.8,24.8z" style="opacity: 0.2;"/>
		<path d="M 113.9000015258789 199.3000030517578 L 231.10000610351562 199.3000030517578 L 231.1999969482422 51.29999923706055 L 113.9000015258789 51.20000076293945 Z" id="paper" class="st2" style="fill: rgb(255, 255, 255);"/>
		<path id="clip" class="st6" d="M175.7,38.3c0-3.1,0-4.9,0-5.6c3.4-1.1,5.8-4.2,5.8-8c0-4.7-3.8-8.4-8.4-8.4&#10;&#9;&#9;&#9;c-4.7,0-8.4,3.8-8.4,8.4c0,3.5,2.2,6.6,5.3,7.8c0,0.6,0,2.4,0,5.7c-18.3,0-24.3,3.2-24.3,3.2v9.8h25h4.2h25v-9.8&#10;&#9;&#9;&#9;C199.9,41.5,194,38.3,175.7,38.3z M173.1,30c-2.9,0-5.2-2.3-5.2-5.2c0-2.9,2.3-5.2,5.2-5.2c2.9,0,5.2,2.3,5.2,5.2&#10;&#9;&#9;&#9;C178.3,27.7,176,30,173.1,30z" style="fill: rgb(102, 102, 102);"/>
		<g id="texts">
			<g>
				<g>
					<path d="M 137.5 126.199997 H 224.400002 V 129.199997 H 137.5 V 126.199997 Z" class="st7" style="fill: rgb(198, 198, 198);"/>
				</g>
				<g>
					<path d="M 137.5 120.400002 H 188.799999 V 123.400002 H 137.5 V 120.400002 Z" class="st7" style="fill: rgb(198, 198, 198);"/>
				</g>
			</g>
			<g>
				<g>
					<path d="M 137.5 104.099998 H 182.700001 V 107.099998 H 137.5 V 104.099998 Z" class="st7" style="fill: rgb(198, 198, 198);"/>
				</g>
				<g>
					<path d="M 137.5 98.400002 H 207 V 101.400002 H 137.5 V 98.400002 Z" class="st7" style="fill: rgb(198, 198, 198);"/>
				</g>
			</g>
			<g>
				<g>
					<path d="M 137.5 81.900002 H 207 V 84.900002 H 137.5 V 81.900002 Z" class="st7" style="fill: rgb(198, 198, 198);"/>
				</g>
				<g>
					<path d="M 137.5 76.199997 H 224.599998 V 79.199997 H 137.5 V 76.199997 Z" class="st7" style="fill: rgb(198, 198, 198);"/>
				</g>
			</g>
			<g>
				<g>
					<path d="M 137.5 148.600006 H 224.400002 V 151.600006 H 137.5 V 148.600006 Z" class="st7" style="fill: rgb(198, 198, 198);"/>
				</g>
				<g>
					<path d="M 137.5 167.899994 H 224.400002 V 170.899994 H 137.5 V 167.899994 Z" class="st7" style="fill: rgb(198, 198, 198);"/>
				</g>
				<g>
					<path d="M 137.5 142.800003 H 216.5 V 145.800003 H 137.5 V 142.800003 Z" class="st7" style="fill: rgb(198, 198, 198);"/>
				</g>
			</g>
		</g>
		<g id="circles">
			<g>
				<path class="st4" d="M126.9,87.9c-4.1,0-7.4-3.3-7.4-7.4c0-4.1,3.3-7.4,7.4-7.4c4.1,0,7.4,3.3,7.4,7.4&#10;&#9;&#9;&#9;&#9;&#9;C134.3,84.6,131,87.9,126.9,87.9z M126.9,74.4c-3.4,0-6.1,2.7-6.1,6.1c0,3.4,2.7,6.1,6.1,6.1c3.4,0,6.1-2.7,6.1-6.1&#10;&#9;&#9;&#9;&#9;&#9;C133.1,77.2,130.3,74.4,126.9,74.4z" style="fill: rgb(249, 203, 134);"/>
			</g>
			<g>
				<path class="st4" d="M126.9,110.1c-4.1,0-7.4-3.3-7.4-7.4s3.3-7.4,7.4-7.4c4.1,0,7.4,3.3,7.4,7.4S131,110.1,126.9,110.1z&#10;&#9;&#9;&#9;&#9;&#9; M126.9,96.6c-3.4,0-6.1,2.7-6.1,6.1c0,3.4,2.7,6.1,6.1,6.1c3.4,0,6.1-2.7,6.1-6.1C133.1,99.4,130.3,96.6,126.9,96.6z" style="fill: rgb(249, 203, 134);"/>
			</g>
			<g>
				<path class="st4" d="M126.9,132.4c-4.1,0-7.4-3.3-7.4-7.4c0-4.1,3.3-7.4,7.4-7.4c4.1,0,7.4,3.3,7.4,7.4&#10;&#9;&#9;&#9;&#9;&#9;C134.3,129,131,132.4,126.9,132.4z M126.9,118.9c-3.4,0-6.1,2.8-6.1,6.1c0,3.4,2.7,6.1,6.1,6.1c3.4,0,6.1-2.7,6.1-6.1&#10;&#9;&#9;&#9;&#9;&#9;C133.1,121.6,130.3,118.9,126.9,118.9z" style="fill: rgb(249, 203, 134);"/>
			</g>
			<g>
				<path class="st4" d="M126.9,154.6c-4.1,0-7.4-3.3-7.4-7.4c0-4.1,3.3-7.4,7.4-7.4c4.1,0,7.4,3.3,7.4,7.4&#10;&#9;&#9;&#9;&#9;&#9;C134.3,151.3,131,154.6,126.9,154.6z M126.9,141.1c-3.4,0-6.1,2.8-6.1,6.1c0,3.4,2.7,6.1,6.1,6.1c3.4,0,6.1-2.8,6.1-6.1&#10;&#9;&#9;&#9;&#9;&#9;C133.1,143.8,130.3,141.1,126.9,141.1z" style="fill: rgb(249, 203, 134);"/>
			</g>
			<g>
				<path class="st4" d="M126.9,176.8c-4.1,0-7.4-3.3-7.4-7.4c0-4.1,3.3-7.4,7.4-7.4c4.1,0,7.4,3.3,7.4,7.4&#10;&#9;&#9;&#9;&#9;&#9;C134.3,173.5,131,176.8,126.9,176.8z M126.9,163.3c-3.4,0-6.1,2.7-6.1,6.1c0,3.4,2.7,6.1,6.1,6.1c3.4,0,6.1-2.7,6.1-6.1&#10;&#9;&#9;&#9;&#9;&#9;C133.1,166,130.3,163.3,126.9,163.3z" style="fill: rgb(249, 203, 134);"/>
			</g>
		</g>
		<g id="check_mark_6_">
			<path d="M 127 82.9000015258789 L 121.5999984741211 77.4000015258789 L 122.9000015258789 76.0999984741211 L 127 80.19999694824219 L 136 71.30000305175781 L 137.3000030517578 72.5999984741211 Z" class="st8" style="fill: rgb(118, 149, 193);"/>
		</g>
		<g id="check_mark_2_">
			<path d="M 127 104.9000015258789 L 121.5999984741211 99.4000015258789 L 122.9000015258789 98 L 127 102.19999694824219 L 136 93.19999694824219 L 137.3000030517578 94.5999984741211 Z" class="st8" style="fill: rgb(118, 149, 193);"/>
		</g>
		<g id="check_mark_1_">
			<path d="M 127 126.80000305175781 L 121.5999984741211 121.4000015258789 L 122.9000015258789 120 L 127 124.19999694824219 L 136 115.19999694824219 L 137.3000030517578 116.5999984741211 Z" class="st8" style="fill: rgb(118, 149, 193);"/>
		</g>
	</g></svg>