<?xml version="1.0" encoding="utf-8"?>
<svg id="master-artboard" viewBox="0 0 259.7330322265625 284.4938659667969" version="1.1" xmlns="http://www.w3.org/2000/svg" x="0px" y="0px" style="enable-background:new 0 0 1400 980;" width="259.7330322265625px" height="284.4938659667969px"><rect id="ee-background" x="0" y="0" width="259.7330322265625" height="284.4938659667969" style="fill: white; fill-opacity: 0; pointer-events: none;"/>




<path id="XMLID_318_" class="st2" d="M490.1,300.9c0-0.3-0.1-0.5-0.1-0.7c0-0.3-0.1-0.6-0.1-0.9l-11.2-60.3c0-0.2-0.1-0.5-0.2-0.7&#10;&#9;&#9;c-0.2-0.8-0.4-1.6-0.7-2.4c-0.1-0.3-0.2-0.5-0.3-0.8c-0.2-0.4-0.4-0.9-0.7-1.5l-33.3-63.8c-0.1-0.3-0.3-0.6-0.5-0.8&#10;&#9;&#9;c-0.3-0.4-0.5-0.9-0.8-1.3c-0.2-0.2-0.3-0.5-0.5-0.7c-0.6-0.7-1.2-1.4-1.9-2.1c-0.2-0.2-0.4-0.3-0.5-0.5c-0.3-0.2-0.6-0.5-1-0.9&#10;&#9;&#9;c-0.4-0.3-0.7-0.5-0.9-0.7c-0.1-0.1-0.2-0.2-0.3-0.2c-0.6-0.4-1.2-0.7-1.8-1.1c-0.2-0.1-0.4-0.2-0.6-0.3c-0.9-0.4-1.8-0.7-2.7-1&#10;&#9;&#9;c-0.2-0.1-0.4-0.1-0.7-0.2c-0.7-0.2-1.4-0.3-2.1-0.4c-0.2,0-0.5-0.1-0.8-0.1c-0.6-0.1-1.2-0.1-1.8-0.1l-0.1,0c0,0-0.1,0-0.1,0&#10;&#9;&#9;c-0.3,0-0.6,0-0.8,0c-0.8,0-1.6,0.1-2.4,0.3c-0.2,0-0.4,0.1-0.6,0.1l0,0c-0.3,0.1-0.5,0.1-0.8,0.2c-0.3,0.1-0.7,0.2-1.1,0.3&#10;&#9;&#9;l-65.8,21.1l-77,17.1c-0.2,0-0.4,0.1-0.6,0.1c-0.2,0-0.3,0.1-0.5,0.1c-0.5,0.1-0.9,0.3-1.3,0.4c-0.1,0.1-0.3,0.1-0.4,0.2&#10;&#9;&#9;c0,0-0.1,0-0.1,0.1c-0.3,0.1-0.5,0.2-0.8,0.3c-0.5,0.2-0.9,0.4-1.2,0.6c-0.1,0.1-0.2,0.1-0.4,0.2c-0.3,0.2-0.6,0.3-0.8,0.5&#10;&#9;&#9;c-0.2,0.1-0.4,0.3-0.7,0.4c-0.1,0.1-0.2,0.2-0.3,0.3c-0.2,0.2-0.5,0.4-0.9,0.7c-0.2,0.2-0.4,0.3-0.6,0.5c-0.2,0.2-0.4,0.4-0.6,0.6&#10;&#9;&#9;c-0.2,0.2-0.5,0.5-0.8,0.8c-0.3,0.3-0.5,0.6-0.7,0.8c-0.1,0.1-0.2,0.2-0.3,0.4c-0.2,0.2-0.4,0.5-0.7,0.9c-0.2,0.2-0.3,0.5-0.5,0.8&#10;&#9;&#9;c-0.2,0.3-0.3,0.5-0.5,0.8l-24,43.3c-3.5,6.4-3.2,14.1,0.9,20.1l26.9,39.3l8.5,61.9c0.1,0.5,0.1,0.9,0.2,1.3&#10;&#9;&#9;c0.1,0.5,0.3,1.1,0.4,1.6c0.1,0.3,0.2,0.7,0.4,1.2c0.4,1.1,0.9,2.2,1.5,3.1c0.1,0.2,0.2,0.4,0.3,0.5c0.5,0.8,1.1,1.6,1.7,2.3&#10;&#9;&#9;c0.3,0.4,0.6,0.7,0.8,0.8c0.4,0.4,0.8,0.8,1.3,1.2c0.3,0.3,0.7,0.6,1.1,0.8c0.3,0.2,0.6,0.4,1,0.7c0.3,0.2,0.6,0.3,0.9,0.5&#10;&#9;&#9;c0.3,0.2,0.6,0.3,1,0.5c0.4,0.2,0.8,0.4,1.1,0.5l46.2,19l10.6,15.3c0.6,0.8,1.2,1.6,1.9,2.4c0.2,0.2,0.3,0.3,0.5,0.5&#10;&#9;&#9;c0.9,0.8,1.8,1.6,2.8,2.3c0.2,0.1,0.4,0.3,0.6,0.4c0.9,0.5,1.8,1,2.8,1.4c0.2,0.1,0.3,0.1,0.5,0.2c0.2,0.1,0.3,0.1,0.5,0.2&#10;&#9;&#9;c0.8,0.3,1.6,0.5,2.4,0.6c0.3,0.1,0.5,0.1,0.8,0.1c0.9,0.1,1.8,0.2,2.7,0.2c0.1,0,0.2,0,0.3,0c0.8,0,1.6,0,2.4-0.1&#10;&#9;&#9;c0.3,0,0.6-0.1,0.9-0.1c0.4-0.1,0.9-0.2,1.5-0.3c0.4-0.1,0.7-0.2,0.9-0.3c0.3-0.1,0.8-0.3,1.3-0.5c0.3-0.1,0.6-0.3,0.8-0.3&#10;&#9;&#9;c0.3-0.1,0.6-0.3,1.1-0.5c0.1,0,0.2-0.1,0.3-0.1c0.1,0,0.1-0.1,0.2-0.1l43-24c0.3-0.2,0.7-0.4,1-0.6c0.4-0.3,0.9-0.6,1.3-0.9&#10;&#9;&#9;c0.3-0.2,0.6-0.4,0.8-0.7c0.5-0.4,1-0.9,1.5-1.4c0.2-0.3,0.5-0.5,0.7-0.8c0.7-0.8,1.3-1.7,1.8-2.5c0.1-0.2,0.2-0.3,0.3-0.5&#10;&#9;&#9;c0.4-0.7,0.8-1.5,1.1-2.2c0.2-0.4,0.3-0.7,0.4-1c0.1-0.4,0.3-0.9,0.4-1.5l11.4-45.8l1.2-2l44.2-24.4c0.3-0.1,0.5-0.3,0.7-0.4&#10;&#9;&#9;c0.2-0.1,0.4-0.2,0.6-0.4c0.4-0.2,0.6-0.4,0.8-0.6c0.2-0.1,0.5-0.3,0.7-0.6c0.3-0.2,0.5-0.4,0.7-0.6c0.2-0.2,0.4-0.4,0.6-0.5&#10;&#9;&#9;c0.1-0.1,0.2-0.2,0.4-0.4c0.2-0.2,0.3-0.4,0.5-0.5c0.3-0.4,0.6-0.7,0.8-0.9c0.2-0.2,0.3-0.4,0.4-0.6c0.2-0.3,0.4-0.5,0.6-0.8&#10;&#9;&#9;c0.2-0.4,0.4-0.7,0.5-0.9c0.1-0.1,0.1-0.2,0.2-0.3c0.2-0.3,0.3-0.6,0.5-0.9c0.1-0.3,0.3-0.6,0.4-0.9c0.1-0.1,0.1-0.3,0.2-0.4&#10;&#9;&#9;c0.1-0.4,0.3-0.7,0.4-1.1c0.1-0.4,0.2-0.8,0.3-1c0.1-0.2,0.1-0.5,0.2-0.7c0.1-0.3,0.1-0.7,0.2-1.1c0.1-0.4,0.1-0.8,0.1-1.1&#10;&#9;&#9;c0-0.2,0.1-0.5,0.1-0.9c0-0.3,0-0.6,0-0.9c0-0.3,0-0.6,0-0.9C490.2,301.7,490.2,301.4,490.1,300.9z" style="fill: rgb(255, 255, 255);" transform="matrix(1, 0, 0, 1, -233.72637260475886, -150.90100755549963)"/><g id="XMLID_45_" transform="matrix(1, 0, 0, 1, -233.7263726047588, -150.9010075554997)">
			<g id="XMLID_52_">
				<path d="M 417 338.5 L 422.3999938964844 329.6000061035156 L 418.20001220703125 331.3999938964844 Z" id="XMLID_245_" class="st2" style="fill: rgb(255, 255, 255);"/>
				<path id="XMLID_246_" class="st12" d="M417,342.7c-0.5,0-1-0.1-1.5-0.3c-1.9-0.7-3-2.7-2.7-4.6l1.2-7.1c0.2-1.4,1.2-2.6,2.5-3.1&#10;&#9;&#9;&#9;&#9;&#9;l4.2-1.8c1.7-0.7,3.6-0.3,4.8,1.1c1.2,1.4,1.4,3.4,0.4,4.9l-5.4,8.9C419.8,342,418.4,342.7,417,342.7z" style="fill: rgb(28, 37, 86);"/>
			</g>
			<g id="XMLID_38_">
				<g id="XMLID_42_">
					<path d="M 426.5 178.6999969482422 L 359.8999938964844 200.10000610351562 L 422.6000061035156 241 Z" id="XMLID_241_" class="st0" style="fill: rgb(130, 133, 210);"/>
					<path id="XMLID_242_" class="st12" d="M422.6,245.1c-0.8,0-1.6-0.2-2.3-0.7l-62.7-40.9c-1.4-0.9-2.1-2.5-1.9-4.1&#10;&#9;&#9;&#9;&#9;&#9;&#9;c0.2-1.6,1.3-2.9,2.9-3.4l66.6-21.4c1.3-0.4,2.8-0.2,3.9,0.7c1.1,0.9,1.7,2.2,1.6,3.6l-3.9,62.3c-0.1,1.5-1,2.8-2.3,3.5&#10;&#9;&#9;&#9;&#9;&#9;&#9;C423.9,245,423.2,245.1,422.6,245.1z M369.5,201.4l49.3,32.1l3.1-49L369.5,201.4z" style="fill: rgb(28, 37, 86);"/>
				</g>
				<g id="XMLID_54_">
					<path d="M 359.8999938964844 200.10000610351562 L 282 217.39999389648438 L 349.8999938964844 255.6999969482422 Z" id="XMLID_237_" class="st13" style="fill: rgb(113, 70, 166);"/>
					<path id="XMLID_238_" class="st12" d="M349.9,259.9c-0.7,0-1.4-0.2-2.1-0.5L279.9,221c-1.5-0.9-2.3-2.6-2.1-4.3&#10;&#9;&#9;&#9;&#9;&#9;&#9;c0.3-1.7,1.5-3.1,3.2-3.5L359,196c1.4-0.3,2.8,0.1,3.8,1.1c1,1,1.5,2.4,1.2,3.8l-9.9,55.6c-0.2,1.3-1.1,2.5-2.3,3.1&#10;&#9;&#9;&#9;&#9;&#9;&#9;C351.1,259.7,350.5,259.9,349.9,259.9z M293.6,219.1l53.2,30l7.8-43.6L293.6,219.1z" style="fill: rgb(28, 37, 86);"/>
				</g>
				<g id="XMLID_30_">
					<g id="XMLID_53_">
						<path d="M 359.8999938964844 200.10000610351562 L 349.8999938964844 255.6999969482422 L 422.6000061035156 241 Z" id="XMLID_233_" class="st14" style="fill: rgb(140, 200, 234);"/>
						<path id="XMLID_234_" class="st12" d="M349.9,259.9c-1.1,0-2.1-0.4-2.9-1.2c-1-1-1.4-2.4-1.2-3.7l9.9-55.6&#10;&#9;&#9;&#9;&#9;&#9;&#9;&#9;c0.2-1.4,1.2-2.6,2.5-3.1c1.3-0.6,2.8-0.4,4,0.3l62.7,40.9c1.4,0.9,2.2,2.6,1.8,4.3c-0.3,1.7-1.6,3-3.3,3.3l-72.7,14.7&#10;&#9;&#9;&#9;&#9;&#9;&#9;&#9;C350.5,259.8,350.2,259.9,349.9,259.9z M362.9,207.1l-7.7,43.3l56.6-11.4L362.9,207.1z" style="fill: rgb(28, 37, 86);"/>
					</g>
					<g id="XMLID_56_">
						<path d="M 426.5 178.6999969482422 L 422.6000061035156 241 L 459.79998779296875 242.5 Z" id="XMLID_229_" class="st13" style="fill: rgb(113, 70, 166);"/>
						<path id="XMLID_230_" class="st12" d="M459.8,246.7c-0.1,0-0.1,0-0.2,0l-37.2-1.5c-1.1,0-2.2-0.5-2.9-1.4&#10;&#9;&#9;&#9;&#9;&#9;&#9;&#9;c-0.8-0.8-1.1-1.9-1.1-3.1l3.9-62.3c0.1-1.9,1.5-3.5,3.3-3.8c1.8-0.4,3.7,0.5,4.6,2.2l33.3,63.8c0.7,1.3,0.6,2.9-0.2,4.2&#10;&#9;&#9;&#9;&#9;&#9;&#9;&#9;C462.5,245.9,461.2,246.7,459.8,246.7z M427,236.9l25.7,1l-23-44L427,236.9z" style="fill: rgb(28, 37, 86);"/>
					</g>
					<g id="XMLID_40_">
						<g id="XMLID_58_">
							<path d="M 348 391.29998779296875 L 361.79998779296875 411.1000061035156 L 355.5 394 Z" id="XMLID_227_" class="st2" style="fill: rgb(255, 255, 255);"/>
							<path id="XMLID_228_" class="st12" d="M361.8,415.3c-1.3,0-2.6-0.6-3.4-1.8l-13.8-19.9c-1-1.5-1-3.5,0.1-4.9&#10;&#9;&#9;&#9;&#9;&#9;&#9;&#9;&#9;c1.1-1.5,3-2,4.7-1.4l7.6,2.7c1.2,0.4,2.1,1.3,2.5,2.5l6.3,17.2c0.7,2-0.1,4.2-2,5.2C363.1,415.2,362.5,415.3,361.8,415.3z" style="fill: rgb(28, 37, 86);"/>
						</g>
						<g id="XMLID_41_">
							<g id="XMLID_57_">
								<path d="M 361.79998779296875 411.1000061035156 L 404.79998779296875 387.1000061035156 L 355.5 394 Z" id="XMLID_223_" class="st15" style="fill: rgb(47, 55, 114);"/>
								<path id="XMLID_224_" class="st12" d="M361.8,415.3c-0.5,0-1-0.1-1.5-0.3c-1.2-0.4-2.1-1.3-2.5-2.5l-6.3-17.2&#10;&#9;&#9;&#9;&#9;&#9;&#9;&#9;&#9;&#9;c-0.4-1.2-0.3-2.5,0.3-3.6c0.7-1.1,1.8-1.8,3-2l49.3-6.8c2-0.2,3.9,0.9,4.6,2.8c0.6,1.9-0.2,4-1.9,5l-43,24&#10;&#9;&#9;&#9;&#9;&#9;&#9;&#9;&#9;&#9;C363.2,415.2,362.5,415.3,361.8,415.3z M361.3,397.4l2.8,7.7l19.2-10.7L361.3,397.4z" style="fill: rgb(28, 37, 86);"/>
							</g>
							<g id="XMLID_61_">
								<path d="M 296.5 370.1000061035156 L 348 391.29998779296875 L 355.5 394 L 347.1000061035156 360.79998779296875 Z" id="XMLID_219_" class="st13" style="fill: rgb(113, 70, 166);"/>
								<path id="XMLID_220_" class="st12" d="M355.5,398.2c-0.5,0-1-0.1-1.4-0.2l-7.6-2.7l-51.7-21.3c-1.7-0.7-2.8-2.5-2.6-4.3&#10;&#9;&#9;&#9;&#9;&#9;&#9;&#9;&#9;&#9;c0.2-1.9,1.6-3.4,3.4-3.7l50.6-9.3c2.2-0.4,4.3,1,4.8,3.1l8.4,33.2c0.4,1.5-0.1,3.1-1.2,4.1&#10;&#9;&#9;&#9;&#9;&#9;&#9;&#9;&#9;&#9;C357.6,397.8,356.6,398.2,355.5,398.2z M311.3,371.6l38.2,15.7l-5.5-21.8L311.3,371.6z" style="fill: rgb(28, 37, 86);"/>
							</g>
						</g>
					</g>
					<g id="XMLID_39_">
						<g id="XMLID_55_">
							<path d="M 282 217.39999389648438 L 287.3999938964844 303.70001220703125 L 347.1000061035156 360.79998779296875 L 349.8999938964844 255.6999969482422 Z" id="XMLID_215_" class="st0" style="fill: rgb(130, 133, 210);"/>
							<path id="XMLID_216_" class="st12" d="M347.1,365c-1.1,0-2.1-0.4-2.9-1.2l-59.7-57.1c-0.8-0.7-1.2-1.7-1.3-2.8l-5.4-86.3&#10;&#9;&#9;&#9;&#9;&#9;&#9;&#9;&#9;c-0.1-1.5,0.7-3,2-3.8c1.3-0.8,3-0.9,4.3-0.1L352,252c1.4,0.8,2.2,2.2,2.1,3.8l-2.8,105.1c0,1.7-1.1,3.1-2.6,3.8&#10;&#9;&#9;&#9;&#9;&#9;&#9;&#9;&#9;C348.2,364.9,347.6,365,347.1,365z M291.5,301.8l51.7,49.4l2.5-93.1l-59-33.2L291.5,301.8z" style="fill: rgb(28, 37, 86);"/>
						</g>
						<g id="XMLID_59_">
							<path d="M 296.5 370.1000061035156 L 347.1000061035156 360.79998779296875 L 287.3999938964844 303.70001220703125 Z" id="XMLID_211_" class="st14" style="fill: rgb(140, 200, 234);"/>
							<path id="XMLID_212_" class="st12" d="M296.5,374.3c-0.9,0-1.7-0.3-2.5-0.8c-0.9-0.7-1.5-1.7-1.7-2.8l-9.1-66.4&#10;&#9;&#9;&#9;&#9;&#9;&#9;&#9;&#9;c-0.2-1.8,0.7-3.5,2.3-4.3c1.6-0.8,3.5-0.5,4.8,0.7l59.7,57.1c1.1,1.1,1.6,2.7,1.1,4.2c-0.5,1.5-1.7,2.6-3.3,2.9l-50.6,9.3&#10;&#9;&#9;&#9;&#9;&#9;&#9;&#9;&#9;C297,374.2,296.8,374.3,296.5,374.3z M293.2,315l6.9,50.1l38.2-7L293.2,315z" style="fill: rgb(28, 37, 86);"/>
						</g>
						<g id="XMLID_60_">
							<path d="M 258 260.6000061035156 L 287.3999938964844 303.70001220703125 L 282 217.39999389648438 Z" id="XMLID_207_" class="st16" style="fill: rgb(225, 253, 253);"/>
							<path id="XMLID_208_" class="st12" d="M287.4,307.9c-1.4,0-2.7-0.7-3.5-1.8l-29.4-43c-0.9-1.3-1-3-0.2-4.4l24-43.3&#10;&#9;&#9;&#9;&#9;&#9;&#9;&#9;&#9;c0.9-1.6,2.8-2.5,4.6-2.1c1.8,0.4,3.1,2,3.3,3.8l5.4,86.3c0.1,1.9-1,3.6-2.8,4.2C288.3,307.8,287.9,307.9,287.4,307.9z&#10;&#9;&#9;&#9;&#9;&#9;&#9;&#9;&#9; M262.9,260.4l19.3,28.3l-3.6-56.7L262.9,260.4z" style="fill: rgb(28, 37, 86);"/>
						</g>
					</g>
				</g>
			</g>
		</g><path d="M 387.5 326.20001220703125 L 418.20001220703125 331.3999938964844 L 422.3999938964844 329.6000061035156 L 471 302.79998779296875 L 400.8999938964844 303.6000061035156 Z" id="XMLID_203_" class="st0" style="fill: rgb(130, 133, 210);" transform="matrix(1, 0, 0, 1, -233.7263726047588, -150.9010075554997)"/><path id="XMLID_204_" class="st12" d="M418.2,335.6c-0.2,0-0.5,0-0.7-0.1l-30.7-5.2c-1.4-0.2-2.5-1.1-3.1-2.4&#10;&#9;&#9;&#9;&#9;c-0.6-1.3-0.5-2.7,0.2-3.9l13.4-22.6c0.7-1.3,2.1-2,3.6-2.1l70.1-0.8c0,0,0,0,0,0c1.9,0,3.6,1.3,4.1,3.1c0.5,1.9-0.3,3.8-2,4.7&#10;&#9;&#9;&#9;&#9;l-48.7,26.8c-0.1,0.1-0.2,0.1-0.4,0.2l-4.2,1.8C419.3,335.5,418.8,335.6,418.2,335.6z M394.2,323.1l23.5,4l2.9-1.2l33.8-18.7&#10;&#9;&#9;&#9;&#9;l-51.1,0.6L394.2,323.1z" style="fill: rgb(28, 37, 86);" transform="matrix(1, 0, 0, 1, -233.7263726047588, -150.9010075554997)"/><path d="M 355.5 394 L 404.79998779296875 387.1000061035156 L 417 338.5 L 418.20001220703125 331.3999938964844 L 387.5 326.20001220703125 Z" id="XMLID_199_" class="st16" style="fill: rgb(225, 253, 253);" transform="matrix(1, 0, 0, 1, -233.7263726047588, -150.9010075554997)"/><path id="XMLID_200_" class="st12" d="M355.5,398.2c-1.3,0-2.6-0.6-3.4-1.7c-0.9-1.2-1.1-2.9-0.4-4.3l31.9-67.7&#10;&#9;&#9;&#9;&#9;c0.8-1.7,2.6-2.7,4.5-2.4l30.7,5.2c1.1,0.2,2.1,0.8,2.7,1.7c0.6,0.9,0.9,2,0.7,3.1l-1.2,7.1c0,0.1,0,0.2-0.1,0.3l-12.1,48.7&#10;&#9;&#9;&#9;&#9;c-0.4,1.7-1.8,2.9-3.5,3.1l-49.3,6.8C355.9,398.1,355.7,398.2,355.5,398.2z M389.9,330.9l-27.3,57.8l38.8-5.4l11.4-45.8l0.5-2.8&#10;&#9;&#9;&#9;&#9;L389.9,330.9z" style="fill: rgb(28, 37, 86);" transform="matrix(1, 0, 0, 1, -233.7263726047588, -150.9010075554997)"/><path d="M 355.5 394 L 387.5 326.20001220703125 L 400.8999938964844 303.6000061035156 L 347.1000061035156 360.79998779296875 Z" id="XMLID_195_" class="st17" style="fill: rgb(78, 65, 117);" transform="matrix(1, 0, 0, 1, -233.7263726047588, -150.9010075554997)"/><path id="XMLID_196_" class="st12" d="M355.5,398.2c-0.1,0-0.3,0-0.4,0c-1.8-0.2-3.2-1.4-3.7-3.1l-8.4-33.2c-0.4-1.4,0-2.9,1-3.9&#10;&#9;&#9;&#9;&#9;l53.8-57.2c1.5-1.6,3.9-1.8,5.6-0.5c1.7,1.3,2.2,3.7,1.1,5.5l-13.3,22.5l-31.8,67.5C358.6,397.2,357.2,398.2,355.5,398.2z&#10;&#9;&#9;&#9;&#9; M351.7,362l5,19.6l23.6-50L351.7,362z" style="fill: rgb(28, 37, 86);" transform="matrix(1, 0, 0, 1, -233.7263726047588, -150.9010075554997)"/><path d="M 422.6000061035156 241 L 471 302.79998779296875 L 459.79998779296875 242.5 Z" id="XMLID_191_" class="st17" style="fill: rgb(78, 65, 117);" transform="matrix(1, 0, 0, 1, -233.7263726047588, -150.9010075554997)"/><path id="XMLID_192_" class="st12" d="M471,307c-1.3,0-2.5-0.6-3.3-1.6l-48.4-61.9c-1-1.3-1.2-3-0.4-4.5c0.7-1.5,2.3-2.4,3.9-2.3&#10;&#9;&#9;&#9;&#9;l37.2,1.5c2,0.1,3.6,1.5,4,3.4l11.2,60.3c0.4,1.9-0.6,3.8-2.4,4.6C472.2,306.9,471.6,307,471,307z M431.5,245.5l32.3,41.2&#10;&#9;&#9;&#9;&#9;l-7.5-40.2L431.5,245.5z" style="fill: rgb(28, 37, 86);" transform="matrix(1, 0, 0, 1, -233.7263726047588, -150.9010075554997)"/><path d="M 422.6000061035156 241 L 400.8999938964844 303.6000061035156 L 471 302.79998779296875 Z" id="XMLID_187_" class="st16" style="fill: rgb(225, 253, 253);" transform="matrix(1, 0, 0, 1, -233.7263726047588, -150.9010075554997)"/><path id="XMLID_188_" class="st12" d="M400.9,307.8c-1.3,0-2.6-0.6-3.4-1.7c-0.8-1.1-1-2.5-0.6-3.8l21.7-62.6&#10;&#9;&#9;&#9;&#9;c0.5-1.5,1.8-2.5,3.3-2.8c1.5-0.3,3,0.3,4,1.6l48.4,61.9c1,1.3,1.2,3,0.5,4.4c-0.7,1.4-2.1,2.4-3.7,2.4L400.9,307.8&#10;&#9;&#9;&#9;&#9;C400.9,307.8,400.9,307.8,400.9,307.8z M424,249.6l-17.2,49.7l55.7-0.6L424,249.6z" style="fill: rgb(28, 37, 86);" transform="matrix(1, 0, 0, 1, -233.7263726047588, -150.9010075554997)"/><g id="XMLID_46_" transform="matrix(1, 0, 0, 1, -233.7263726047588, -150.9010075554997)">
				<path d="M 347.1000061035156 360.79998779296875 L 400.8999938964844 303.6000061035156 L 349.8999938964844 255.6999969482422 Z" id="XMLID_183_" class="st18" style="fill: rgb(86, 94, 180);"/>
				<path id="XMLID_184_" class="st12" d="M347.1,365c-0.5,0-1.1-0.1-1.6-0.3c-1.6-0.7-2.6-2.3-2.6-4l2.8-105.1&#10;&#9;&#9;&#9;&#9;&#9;c0-1.7,1.1-3.1,2.6-3.8c1.5-0.6,3.3-0.3,4.5,0.8l51,47.9c0.8,0.8,1.3,1.8,1.3,2.9c0,1.1-0.4,2.2-1.1,3l-53.8,57.2&#10;&#9;&#9;&#9;&#9;&#9;C349.4,364.5,348.2,365,347.1,365z M353.9,265.1l-2.3,84.7l43.4-46.1L353.9,265.1z" style="fill: rgb(28, 37, 86);"/>
			</g><path d="M 349.8999938964844 255.6999969482422 L 400.8999938964844 303.6000061035156 L 422.6000061035156 241 Z" id="XMLID_179_" class="st19" style="fill: rgb(198, 170, 234);" transform="matrix(1, 0, 0, 1, -233.72637260475875, -150.9010075554997)"/><path id="XMLID_180_" class="st12" d="M400.9,307.8c-1.1,0-2.1-0.4-2.9-1.1l-51-47.9c-1.1-1.1-1.6-2.7-1.2-4.2&#10;&#9;&#9;&#9;&#9;&#9;c0.4-1.5,1.7-2.7,3.2-3l72.7-14.7c1.5-0.3,3,0.2,4,1.4c1,1.1,1.3,2.7,0.8,4.1L404.8,305c-0.5,1.3-1.6,2.4-3,2.7&#10;&#9;&#9;&#9;&#9;&#9;C401.6,307.8,401.2,307.8,400.9,307.8z M358.7,258.2l40.3,37.9l17.2-49.6L358.7,258.2z" style="fill: rgb(28, 37, 86);" transform="matrix(1, 0, 0, 1, -233.72637260475875, -150.9010075554997)"/>



</svg>