<?xml version="1.0" encoding="utf-8"?>
<svg id="master-artboard" viewBox="0 0 336.2491455078125 387.74188232421875" version="1.1" xmlns="http://www.w3.org/2000/svg" x="0px" y="0px" style="enable-background:new 0 0 1312 980;" width="336.2491455078125px" height="387.74188232421875px"><rect id="ee-background" x="0" y="0" width="336.2491455078125" height="387.74188232421875" style="fill: white; fill-opacity: 0; pointer-events: none;"/>

<radialGradient id="SVGID_1_" cx="756.4081" cy="489.0901" r="1109.9412" gradientTransform="matrix(0.9379 0 0 0.7131 -53.335 140.3434)" gradientUnits="userSpaceOnUse">
		<stop offset="0" style="stop-color:#FFFFFF"/>
		<stop offset="0.4283" style="stop-color:#FCFCFC"/>
		<stop offset="0.5826" style="stop-color:#F5F5F5"/>
		<stop offset="0.6926" style="stop-color:#EBEBEC"/>
		<stop offset="0.7815" style="stop-color:#DCDEDF"/>
		<stop offset="0.8576" style="stop-color:#CACCCE"/>
		<stop offset="0.925" style="stop-color:#B4B6B8"/>
		<stop offset="0.9845" style="stop-color:#9B9D9F"/>
		<stop offset="1" style="stop-color:#939598"/>
	</radialGradient><path class="st1" d="M1260.1,421.9c-6-23.4-24.9-47.3-100.4-84.8l-36.2,129.4l-9.8-73.2c0,0,13.6-7.6,14.3-22.7&#10;&#9;&#9;&#9;c0.8-15.1-27.2-13.6-27.2-13.6s-27.9-1.5-27.2,13.6c0.8,15.1,14.3,22.7,14.3,22.7l-9.8,73.2l-36.2-129.4&#10;&#9;&#9;&#9;c-75.5,37.5-94.4,61.4-100.4,84.8c-6,23.4,0,57.1,0,57.1h159.3h159.3C1260.1,479,1266.1,445.3,1260.1,421.9z" style="fill: rgb(65, 64, 66);" transform="matrix(1, 0, 0, 1, -932.6363023354941, -99.84427567581935)"/><path class="st1" d="M1179.2,285.2c0,0,19.6-1.5,26.4-33.2c6.8-31.7-14.3-34-14.3-34s3-60.4-45.3-83.8&#10;&#9;&#9;&#9;c-24.2-11.7-37-14.4-46.3-16.3c-9.2-1.9-14.9-3-24.7-11.4v17.9c0,0-7.6-0.5-13.6-8.9c-6-8.4,0,15,0,15s-60.4,5.3-51.3,87.6&#10;&#9;&#9;&#9;c0,0-22.7,4.5-16.6,33.2c6,28.7,31,35.5,31,35.5s12,55,75.3,56.5c0.3,0,0.6,0,1,0C1164.8,344.1,1179.2,285.2,1179.2,285.2z&#10;&#9;&#9;&#9; M1099.7,329.8c-14.6,0-40.6-1.5-65.5-52.1c0,0-22-2.8-25.7-30.2c-3.7-27.4,20.4-17.1,24.2-7c3.8,10,12.8-1.3,10.6-11.1&#10;&#9;&#9;&#9;c-2.3-9.8-12.5-58.9,56.4-55.9c68.9-3,58.7,46.1,56.4,55.9c-2.3,9.8,6.8,21.1,10.6,11.1c3.8-10,27.9-20.4,24.2,7&#10;&#9;&#9;&#9;c-3.7,27.4-25.7,30.2-25.7,30.2C1140.3,328.3,1114.3,329.8,1099.7,329.8z" style="fill: rgb(65, 64, 66);" transform="matrix(1, 0, 0, 1, -932.6363023354941, -99.84427567581935)"/>

</svg>