<?xml version="1.0" encoding="utf-8"?>
<svg id="master-artboard" viewBox="0 0 364.1156005859375 368.45379638671875" version="1.1" xmlns="http://www.w3.org/2000/svg" x="0px" y="0px" style="enable-background:new 0 0 1400 980;" width="364.1156005859375px" height="368.45379638671875px"><rect id="ee-background" x="0" y="0" width="364.1156005859375" height="368.45379638671875" style="fill: white; fill-opacity: 0; pointer-events: none;"/>




<g>
	
	
	
	
	
	
	<path class="st8" d="M737,548.7l-74.5,43.4l34.3,14.6l-61.1,92.4l-5.1,13.6l-23.4,100.8l132.6,54.5c79.6-18.3,139-89.6,139-174.8&#10;&#9;&#9;c0-36.3-10.8-70.1-29.4-98.4L737,548.7z" style="fill: rgb(110, 153, 159);" transform="matrix(1, 0, 0, 1, -516.2402890056567, -507.16353667149144)"/>
	<path class="st9" d="M630.6,712.8l5.1-13.6l61.1-92.4l-34.3-14.6l74.5-43.4L849.4,595c-32.1-48.8-87.3-81-150-81&#10;&#9;&#9;C600.3,514,520,594.3,520,693.4c0,99.1,80.3,179.4,179.4,179.4c13.9,0,27.4-1.6,40.4-4.6l-132.6-54.5L630.6,712.8z" style="fill: rgb(137, 192, 199);" transform="matrix(1, 0, 0, 1, -516.2402890056567, -507.16353667149144)"/>
	
	
	
	
	
	
	
	
	
	<g transform="matrix(1, 0, 0, 1, -516.2402890056567, -507.16353667149144)">
		<path d="M 620.400024 758.299988 H 665.500023 V 774.999989 H 620.400024 V 758.299988 Z" class="st17" style="fill: rgb(255, 255, 255);"/>
		<path d="M 676.799988 726 H 721.899986 V 742.700001 H 676.799988 V 726 Z" class="st17" style="fill: rgb(255, 255, 255);"/>
		<path d="M 620.400024 726 H 665.500023 V 742.700001 H 620.400024 V 726 Z" class="st17" style="fill: rgb(255, 255, 255);"/>
		<path d="M 733.299988 726 H 778.399986 V 742.700001 H 733.299988 V 726 Z" class="st17" style="fill: rgb(255, 255, 255);"/>
		<path class="st12" d="M607.2,702.9v110.7h84.1v-38.7h27.9v38.7h72.4V702.9H607.2z M665.5,774.9h-45.1v-16.7h45.1V774.9z&#10;&#9;&#9;&#9; M665.5,742.7h-45.1V726h45.1V742.7z M721.9,742.7h-45.1V726h45.1V742.7z M778.4,742.7h-45.1V726h45.1V742.7z" style="fill: rgb(232, 76, 61);"/>
		<path class="st17" d="M743.2,562.6c0.4-1.2,0.7-2.4,0.7-3.7c0-6-4.9-10.9-10.9-10.9c-4.8,0-8.9,3.2-10.3,7.5&#10;&#9;&#9;&#9;c-2.4,0.1-4.7,0.8-6.7,1.9c-0.7-5.8-5.6-10.2-11.5-10.2c-6.1,0-11.1,4.7-11.6,10.6c-2.6-2.9-6.4-4.7-10.6-4.7&#10;&#9;&#9;&#9;c-7.9,0-14.3,6.4-14.3,14.3c0,1.1,0.1,2.1,0.4,3.1c-0.2,0-0.5-0.1-0.7-0.1c-6.2,0-11.3,5.1-11.3,11.3c0,6.2,5,11.3,11.3,11.3&#10;&#9;&#9;&#9;c2.1,0,4-0.6,5.6-1.6c1.9,3,5.2,5,9,5c5.5,0,10-4.2,10.6-9.5c2.4,2.5,5.7,4.1,9.4,4.1c2.3,0,4.5-0.6,6.4-1.7&#10;&#9;&#9;&#9;c1.9,3.7,5.7,6.2,10.1,6.2c6.3,0,11.3-5.1,11.3-11.4c0-0.1,0-0.2,0-0.3c0.6-0.3,1.2-0.6,1.8-1c2.3,2.8,5.8,4.5,9.7,4.5&#10;&#9;&#9;&#9;c6.9,0,12.5-5.6,12.5-12.5C754.1,568.7,749.4,563.4,743.2,562.6z" style="fill: rgb(255, 255, 255);"/>
		<path d="M 644.4000244140625 606.7000122070312 L 635.7000122070312 699.2000122070312 L 692.7999877929688 699.2000122070312 L 688.2000122070312 606.7000122070312 Z" class="st12" style="fill: rgb(232, 76, 61);"/>
		<path d="M 696.7999877929688 606.7000122070312 L 688.2000122070312 606.7000122070312 L 692.7999877929688 699.2000122070312 L 705.5999755859375 699.2000122070312 Z" class="st22" style="fill: rgb(212, 68, 57);"/>
		<path class="st12" d="M745.4,670.7c-8.5,1-15.1,8.1-15.1,16.9v11.5h27.4v-14.3C757.7,676.4,747.7,671.7,745.4,670.7z" style="fill: rgb(232, 76, 61);"/>
		<path class="st22" d="M764.5,687.6c0-9.4-7.6-17.1-17.1-17.1c-0.7,0-1.3,0.1-2,0.2c2.3,0.9,12.3,5.6,12.3,14.1v14.3h6.8V687.6z" style="fill: rgb(212, 68, 57);"/>
		<path d="M 620.4000244140625 742.7000122070312 L 621.5 744.2000122070312 L 666.7000122070312 744.2000122070312 L 666.7000122070312 727.2000122070312 L 665.5 726 L 665.5 742.7000122070312 Z" class="st23" style="fill: rgb(201, 64, 54);"/>
		<path d="M 620.4000244140625 774.9000244140625 L 621.5 776.4000244140625 L 666.7000122070312 776.4000244140625 L 666.7000122070312 759.4000244140625 L 665.5 758.2999877929688 L 665.5 774.9000244140625 Z" class="st23" style="fill: rgb(201, 64, 54);"/>
		<path d="M 676.7999877929688 742.7000122070312 L 678 744.2000122070312 L 723.2000122070312 744.2000122070312 L 723.2000122070312 727.2000122070312 L 721.9000244140625 726 L 721.9000244140625 742.7000122070312 Z" class="st23" style="fill: rgb(201, 64, 54);"/>
		<path d="M 733.2999877929688 742.7000122070312 L 734.5 744.2000122070312 L 779.7000122070312 744.2000122070312 L 779.7000122070312 727.2000122070312 L 778.4000244140625 726 L 778.4000244140625 742.7000122070312 Z" class="st23" style="fill: rgb(201, 64, 54);"/>
	</g>
	
	
	
	
	
	
	
</g></svg>