<?xml version="1.0" encoding="utf-8"?>
<svg id="master-artboard" viewBox="0 0 1400 980" version="1.1" xmlns="http://www.w3.org/2000/svg" x="0px" y="0px" style="enable-background:new 0 0 1400 980;" width="1400px" height="980px" xmlns:xlink="http://www.w3.org/1999/xlink">

<path class="st6" d="M257.5,509.7c0,0,1.2,7.5,4.4,6.2c1-0.4,1.5-1.4,3.1-1.3c1.9,0.1,3.3,0.2,5.6-0.6c0.5-0.2,0.9-1,2.6-0.7&#10;&#9;&#9;&#9;c2.9,0.5,4.3-3.7,5.2-5.2C280.4,505,257.5,509.7,257.5,509.7z" style="fill: rgb(230, 159, 135);" transform="matrix(1, 0, 0, 1, 5.684341886080802e-14, 1.4210854715202004e-14)"/><path class="st9" d="M92.5,847.2c-3.7-3.7-12.1-3.3-17.6-7c-6.2-4.1-9.6-14.7-9.6-14.7l-25.9-5l-5.7,17.2l34.7,21.1H97&#10;&#9;&#9;&#9;C95.4,851.8,94.6,849.3,92.5,847.2z" style="fill: rgb(34, 32, 39);" transform="matrix(1, 0, 0, 1, 5.684341886080802e-14, 1.4210854715202004e-14)"/><path class="st7" d="M160.2,380.9c-6.6-0.7-11.2-3.8-12.5-10.4c-1.4-6.9-2.6-29.7-2.6-29.7h-33.8c0,0-0.8,22.8-2.4,30.6&#10;&#9;&#9;&#9;c-1.3,6.2-3.8,11.5-25.3,11.9c-8.4,0.2-14.7,7.7-13.8,16c6.3,55.1,20.9,83.5,16.3,159.9l90.6-1.5c-5.7-76.8-1.4-112.9,1.9-150.3&#10;&#9;&#9;&#9;C179.2,398.7,186.1,383.8,160.2,380.9z" style="fill: rgb(255, 178, 150);" transform="matrix(1, 0, 0, 1, 5.684341886080802e-14, 1.4210854715202004e-14)"/><path class="st9" d="M200.5,845.5c-11.6-4.9-20.8-11.2-20.8-11.2h-25.2l-1.3,24.5l69.1,0C220.5,844.7,203.3,846.6,200.5,845.5z" style="fill: rgb(34, 32, 39);" transform="matrix(1, 0, 0, 1, 5.684341886080802e-14, 1.4210854715202004e-14)"/><path class="st10" d="M110.6,354.8c2.5,2.4,19.2,14.4,37,15.3c-1.3-7.4-2.5-29.2-2.5-29.2h-33.8&#10;&#9;&#9;&#9;C111.3,340.9,111.1,346.9,110.6,354.8z" style="fill: rgb(214, 149, 126);" transform="matrix(1, 0, 0, 1, 5.684341886080802e-14, 1.4210854715202004e-14)"/><path class="st7" d="M166,324c1.7,18.9-3.4,35.8-8.6,38.5c-11.4,5.8-31.7-1.3-43.2-5.9c-15.1-6.1-22-26.2-18.8-42.6&#10;&#9;&#9;&#9;c3.5-18.5,20.7-28.9,39.4-27.6C149.1,287.4,163.4,294.3,166,324z" style="fill: rgb(255, 178, 150);" transform="matrix(1, 0, 0, 1, 5.684341886080802e-14, 1.4210854715202004e-14)"/><path class="st9" d="M156.6,300.9c0,0-3.2,6.6-23.1,13.6c-7.6,2.7-14.8,18.6-14.8,18.6s-4.6-9-9.6-6.4c-5.1,2.7-5.1,10,0.5,13.7&#10;&#9;&#9;&#9;c3.5,2.3,7.1,3.2,7.1,3.2s-0.1,5.7-2.2,11.6c-1.7,4.7-4.6,6.8-4.6,6.8s-13.4-11.6-17.7-28.5c-4-15.8-2.1-42,24.4-50.6&#10;&#9;&#9;&#9;c21.7-7.1,41.4,1.3,45.6,13.3c1.9,5.3,2.3,7.6,1.1,13.4C159.9,302.9,156.6,300.9,156.6,300.9z" style="fill: rgb(34, 32, 39);" transform="matrix(1, 0, 0, 1, 5.684341886080802e-14, 1.4210854715202004e-14)"/><path class="st53" d="M172.8,386.7c-11.7,4.7-11.4,23.5-5.9,48.2c8.5,38.3,16.2,42.7,26.7,49.1c18.6,11.4,63.3,25,63.3,25&#10;&#9;&#9;&#9;l3.2-20.7c0,0-24.8-12.9-46.7-24c-12.9-6.5-14.5-5.4-17.1-32.1C194.2,410.8,190.8,379.4,172.8,386.7z" style="fill: rgb(212, 116, 51);" transform="matrix(1, 0, 0, 1, 5.684341886080802e-14, 1.4210854715202004e-14)"/><path class="st13" d="M81.4,419.8c0.6-17.8-2-35.8-2-35.8s4.2-1.6,10.9-2.6c6.8-1,12-1,12-1s13.1,11.1,28.1,11.1&#10;&#9;&#9;&#9;c14.9,0,26.2-11.3,26.2-11.3s0,0,0,0l0,0c0,0,5.7,0.1,12.8,1.4c8.3,1.5,12.6,4.9,12.6,4.9s-5.9,9.8-5.7,27.6&#10;&#9;&#9;&#9;c0.4,31.4,2.2,47.8,2.2,47.8l-1.7,95.1l-43.6,1l-47,1.1c0,0-4.1-73.5-5.8-88.1s-1.9-20.4-1.9-20.4S80.6,442.5,81.4,419.8z" style="fill: rgb(241, 133, 57);" transform="matrix(1, 0, 0, 1, 5.684341886080802e-14, 1.4210854715202004e-14)"/><path class="st16" d="M90.6,320c0,0,26.1,7.6,50.9,6.3s46.7-5.5,43.4-8c-3.3-2.5-13.3-5.9-13.3-5.9s-4.4-23.6-21-32.7&#10;&#9;&#9;&#9;&#9;c-14.4-7.9-44-6.3-54.9,12c-3.6,6.1-4.3,13.1-4.7,18.7C88.8,314.6,90.6,320,90.6,320z" style="fill: rgb(255, 196, 61);" transform="matrix(1, 0, 0, 1, 8.526512829121202e-14, 2.1316282072803006e-14)"/><path class="st17" d="M169.1,312.5c-0.7-5.1-0.7-9.7-6.8-17.2c-3.8-4.6-9.4-12.1-17.2-16.6c-4.6-2.6-9.5-4.4-18.6-3.9&#10;&#9;&#9;&#9;&#9;c-9.8,0.5-14.1,3.6-14.1,3.6s13.8-3.5,22.7,2.3c5.8,3.7,9.2,7.4,6,18.5c-3.6,12.8-1.8,18.3-1.8,18.3s0,1.4,5,0.9&#10;&#9;&#9;&#9;&#9;C149.3,317.9,163.4,316.5,169.1,312.5z" style="fill: rgb(255, 207, 97);" transform="matrix(1, 0, 0, 1, 8.526512829121202e-14, 2.1316282072803006e-14)"/><path class="st18" d="M184.9,318.3c-3.3-2.5-13.3-5.9-13.3-5.9l-2.5,0.1c0,0-25.8,3.7-29.8,5.1c-4,1.3-8.2,2.7-14.8,3.1&#10;&#9;&#9;&#9;&#9;c-4.9,0.4-16.9-1.8-22.6-2.9c-2.1-0.4-4.3-0.3-6.4,0.4l-4.9,1.8c0,0,26.1,7.6,50.9,6.3C166.3,325,188.2,320.8,184.9,318.3z" style="fill: rgb(255, 182, 20);" transform="matrix(1, 0, 0, 1, 8.526512829121202e-14, 2.1316282072803006e-14)"/><path d="M 134.5 591.4000244140625 L 160.1999969482422 698.0999755859375 L 152.5 836 L 189 835.5 L 197.6999969482422 700.2999877929688 L 176.60000610351562 557.0999755859375 L 86 558.5 L 75.5999984741211 700.2000122070312 L 36.900001525878906 820.0999755859375 L 70.19999694824219 828.5999755859375 L 110.80000305175781 705.7000122070312 L 128.6999969482422 591.4000244140625 Z" class="st8" style="fill: rgb(22, 61, 84);" transform="matrix(1, 0, 0, 1, 5.684341886080802e-14, 1.4210854715202004e-14)"/><path class="st8" d="M81.8,409.3c0-0.7,0.7-1.2,1.4-1c1.3,0.4,15.4,4,33.1,4.7c24.8,1,55.5-0.8,57.2-1.1c1.3-0.2,2.5,0.8,2.6,2.2&#10;&#9;&#9;&#9;c0,0-0.3,12.4,0.9,29.4c1.3,18.4,1.4,26.2,1.4,26.2l-1.8,87.4L86,559.2c0,0-4.1-73.5-5.8-88.1s-1.9-20.4-1.9-20.4&#10;&#9;&#9;&#9;s2.3-8.2,3.1-30.9L81.8,409.3z" style="fill: rgb(22, 61, 84);" transform="matrix(1, 0, 0, 1, 5.684341886080802e-14, 1.4210854715202004e-14)"/><path class="st8" d="M168,381.4c0,0-3.4-1.7-6-1.7s-5.5,0.5-5.5,0.5l0.8,39.1H169L168,381.4z" style="fill: rgb(22, 61, 84);" transform="matrix(1, 0, 0, 1, 5.684341886080802e-14, 1.4210854715202004e-14)"/><path class="st8" d="M91.3,381.1c0,0,1.6-0.4,5.1-0.7c2.6-0.2,5.8-0.1,5.8-0.1l1.9,39.1H92.5L91.3,381.1z" style="fill: rgb(22, 61, 84);" transform="matrix(1, 0, 0, 1, 5.684341886080802e-14, 1.4210854715202004e-14)"/><path d="M 166.699997 418.299988 A 3.5 3.5 0 0 1 163.199997 421.799988 A 3.5 3.5 0 0 1 159.699997 418.299988 A 3.5 3.5 0 0 1 163.199997 414.799988 A 3.5 3.5 0 0 1 166.699997 418.299988 Z" class="st15" style="fill: rgb(255, 255, 255);" transform="matrix(1, 0, 0, 1, 5.684341886080802e-14, 1.4210854715202004e-14)"/><path d="M 102.800003 418.299988 A 3.5 3.5 0 0 1 99.300003 421.799988 A 3.5 3.5 0 0 1 95.800003 418.299988 A 3.5 3.5 0 0 1 99.300003 414.799988 A 3.5 3.5 0 0 1 102.800003 418.299988 Z" class="st15" style="fill: rgb(255, 255, 255);" transform="matrix(1, 0, 0, 1, 5.684341886080802e-14, 1.4210854715202004e-14)"/><path class="st54" d="M102.4,475.4h59.8c1.7,0,3.2,1.4,3.2,3.2v30.3c0,11.1-9,20.1-20.1,20.1h-25.8c-11.1,0-20.1-9-20.1-20.1&#10;&#9;&#9;&#9;v-30.3C99.3,476.8,100.7,475.4,102.4,475.4z" style="fill: rgb(29, 82, 115);" transform="matrix(1, 0, 0, 1, 5.684341886080802e-14, 1.4210854715202004e-14)"/><path class="st7" d="M163.9,538.8c2.4,0.8,10.6,3.8,10.6,3.8s16.5,6.1,17.7,3.7c1.2-2.4-14.6-6.8-14-8.1&#10;&#9;&#9;&#9;c0.5-1.1,18.8,8.3,20.3,4.5c1.6-3.8-18.4-9-17.8-10.3c0.7-1.4,20.9,6.3,22.5,3.3c2.1-4.1-20.8-8.7-20-10.1&#10;&#9;&#9;&#9;c0.8-1.4,18,5.5,19.1,1.9c1-3.3-12.9-7-19.8-9.1c-8.8-2.7-11.7-4.1-6.6-5.3c3.4-0.8,6.1-3.2,6.3-4.5c0.3-3.1-5.5-0.8-10.2-1.2&#10;&#9;&#9;&#9;c-4.3-0.3-16.4,3-20.2,5.3C145.3,516.7,138.1,529.7,163.9,538.8z" style="fill: rgb(255, 178, 150);" transform="matrix(1, 0, 0, 1, 5.684341886080802e-14, 1.4210854715202004e-14)"/><path class="st13" d="M71,386.4c-13.9,5.4-13,26.6-14,56.5c-1.5,43.3,2.4,44.1,11.8,54.6c12.4,13.9,80.7,36.3,80.7,36.3l3.3-23.6&#10;&#9;&#9;&#9;c0,0-32-15.7-57.6-29.5c-7.3-3.9-4.9-11.2-2.3-41.6c1.5-17.8,2.6-47.5-5.7-56.5C87.1,382.4,79.3,383.1,71,386.4z" style="fill: rgb(241, 133, 57);" transform="matrix(1, 0, 0, 1, 5.684341886080802e-14, 1.4210854715202004e-14)"/><path class="st7" d="M260.1,488.4c0,0,11.1-3.2,15.4,1.5c5.1,5.5,11.4,7.6,8.5,9.1c-6.4,3.2-8.5-4.5-15.1-3&#10;&#9;&#9;&#9;c-3.5,0.8-9.7-1.1-9.7-1.1L260.1,488.4z" style="fill: rgb(255, 178, 150);" transform="matrix(1, 0, 0, 1, 5.684341886080802e-14, 1.4210854715202004e-14)"/><path class="st7" d="M260.9,516.7c2.7-0.8,3-3.5,2.5-5.1c-0.5-1.7-2.4-1.9-4.4-1.3s-3.4,1.9-2.9,3.5&#10;&#9;&#9;&#9;C256.5,515.4,258.1,517.5,260.9,516.7z" style="fill: rgb(255, 178, 150);" transform="matrix(1, 0, 0, 1, 5.684341886080802e-14, 1.4210854715202004e-14)"/><path class="st7" d="M267.9,515.2c2.7-0.5,3.3-3.1,3-4.8c-0.3-1.7-2.1-2.2-4.2-1.9c-2.1,0.4-3.6,1.4-3.3,3.2&#10;&#9;&#9;&#9;C263.7,513.4,265.1,515.7,267.9,515.2z" style="fill: rgb(255, 178, 150);" transform="matrix(1, 0, 0, 1, 5.684341886080802e-14, 1.4210854715202004e-14)"/><path class="st7" d="M275,513.6c2.5-0.4,3-2.8,2.7-4.3c-0.3-1.5-1.9-2-3.8-1.7c-1.9,0.3-3.3,1.3-3,2.8&#10;&#9;&#9;&#9;C271.3,512,272.5,514,275,513.6z" style="fill: rgb(255, 178, 150);" transform="matrix(1, 0, 0, 1, 5.684341886080802e-14, 1.4210854715202004e-14)"/><path class="st55" d="M509.8,558.2H397.6c-2.7,0-4.9,2.2-4.9,4.9v6.6c0,2.7,2.2,4.9,4.9,4.9h112.2c2.7,0,4.9-2.2,4.9-4.9v-6.6&#10;&#9;&#9;&#9;C514.7,560.4,512.5,558.2,509.8,558.2z" style="fill: rgb(188, 77, 57);" transform="matrix(1, 0, 0, 1, 5.684341886080802e-14, 1.4210854715202004e-14)"/><path class="st7" d="M282.4,512.3c2.3-0.4,2.8-2.6,2.6-4c-0.2-1.4-1.8-1.9-3.5-1.6s-3,1.2-2.8,2.6S280,512.7,282.4,512.3z" style="fill: rgb(255, 178, 150);" transform="matrix(1, 0, 0, 1, 5.684341886080802e-14, 1.4210854715202004e-14)"/><g transform="matrix(1, 0, 0, 1, 5.684341886080802e-14, 1.4210854715202004e-14)">
			<path class="st56" d="M1196,568.6c0,0-2.2,7.7-3.2,7.9c-2.2,0.4-6.3-0.1-6.9,0.7c-1.3,1.6,6.2,2.4,6.2,2.4s-6,1.1-7.1,2.4&#10;&#9;&#9;&#9;&#9;c-0.5,0.6,0.1,1.5,0.7,1.5c2.2,0,6.6-1.2,6.6-1.2s-2.5,2.8-5.8,4c-1.5,0.6-1.6,2.1-1.1,2.4c1.8,1.4,4,0.6,6.8-1.1&#10;&#9;&#9;&#9;&#9;c2.8-1.7,7.1-13.3,7.1-13.3L1196,568.6z" style="fill: rgb(209, 145, 123);"/>
			<path class="st7" d="M1204.9,547.8h-15.2c-0.1,0.5-0.3,1.1-0.5,1.8c-1.3,3.7-3.6,9.6-3.6,13.5c0,3.8-2.2,7.8-2.7,10&#10;&#9;&#9;&#9;&#9;c-0.6,2.4-2.5,7-0.1,6.9c2.4-0.1,3.8-2.2,5.9-5.9c2.1-3.7,4-4.8,6.7-4.2c3.9,0.8,1,10.1-0.1,12.4c-0.7,1.6-5.9,4.3-8.1,5.4&#10;&#9;&#9;&#9;&#9;c-1.6,0.8-2.5,3.5-1.8,3.7c2.4,0.5,8.1-1,13.1-3.6c2.2-1.1,7.9-10.6,8.5-13.3c0.6-2.8-0.6-11.3-1.2-17.3&#10;&#9;&#9;&#9;&#9;C1205.6,555.2,1205.2,550.9,1204.9,547.8z" style="fill: rgb(255, 178, 150);"/>
		</g><path class="st7" d="M1098.2,370.2c6.6-0.7,11.2-3.8,12.5-10.3c1.4-6.9,2.6-29.6,2.6-29.6h33.7c0,0,0.8,22.8,2.4,30.5&#10;&#9;&#9;&#9;c1.3,6.2,3.8,11.5,25.2,11.9c8.3,0.2,14.7,7.6,13.7,15.9c-6.3,54.9-20.8,83.2-16.2,159.3l-90.2-1.5c5.7-76.5,1.4-112.5-1.9-149.8&#10;&#9;&#9;&#9;C1079.2,387.9,1072.4,373.1,1098.2,370.2z" style="fill: rgb(255, 178, 150);" transform="matrix(1, 0, 0, 1, 5.684341886080802e-14, 1.4210854715202004e-14)"/><path d="M 1081.800048828125 540.5 L 1172.0999755859375 542 L 1177.0999755859375 842.2999877929688 L 1147.699951171875 842.2999877929688 L 1129.5999755859375 580.5999755859375 L 1123.800048828125 580.5999755859375 L 1110.0999755859375 842.2999877929688 L 1078 842.2999877929688 Z" class="st8" style="fill: rgb(22, 61, 84);" transform="matrix(1, 0, 0, 1, 5.684341886080802e-14, 1.4210854715202004e-14)"/><path class="st9" d="M1206.1,851.8c-10-4.9-31.4-9.5-31.4-9.5h-26.8v18.1h68.9C1210.7,854.3,1208.7,853.1,1206.1,851.8z" style="fill: rgb(34, 32, 39);" transform="matrix(1, 0, 0, 1, 5.684341886080802e-14, 1.4210854715202004e-14)"/><path class="st9" d="M1051.9,851.8c10-4.9,31.4-9.5,31.4-9.5h26.8v18.1h-66.5C1047.3,854.3,1049.3,853.1,1051.9,851.8z" style="fill: rgb(34, 32, 39);" transform="matrix(1, 0, 0, 1, 5.684341886080802e-14, 1.4210854715202004e-14)"/><path class="st57" d="M1175.6,373.6c13-2.4,19,12.2,24.7,38.2c7,32,9.8,65.7,9.5,80.1c-0.8,36.6-3.6,60.4-3.6,60.4l-18.9-0.6&#10;&#9;&#9;&#9;c0,0-1.5-25.5-1.6-70.8c0-13-4.6-27.8-10.5-59C1171,399.7,1155.6,377.2,1175.6,373.6z" style="fill: rgb(242, 244, 246);" transform="matrix(1, 0, 0, 1, 5.684341886080802e-14, 1.4210854715202004e-14)"/><path class="st54" d="M1176.7,408.9c-0.6-17.7,4.8-35.2,4.8-35.2s-6.9-2-13.6-3.1c-6.7-1-11.9-1-11.9-1s-13.1,11.1-28,11.1&#10;&#9;&#9;&#9;c-14.9,0-26.1-11.2-26.1-11.2s0,0,0,0l0,0c0,0-5.7,0.1-12.7,1.4c-8.3,1.5-12,2.8-12,2.8s1.2,16.4,1.8,34.1&#10;&#9;&#9;&#9;c1,31.3,1.2,43.2,1.2,43.2l1.5,42.7l-1,52.4l44.6,0.7l48.2,1.1c0,0,2.7-73.2,4.5-87.8c1.7-14.6,1.7-16.5,1.7-16.5&#10;&#9;&#9;&#9;S1177.5,431.6,1176.7,408.9z" style="fill: rgb(29, 82, 115);" transform="matrix(1, 0, 0, 1, 5.684341886080802e-14, 1.4210854715202004e-14)"/><path class="st10" d="M1112.2,346.4c0,0,8.6,15.7,18.1,15.7c8.9,0,17.5-15.7,17.5-15.7H1112.2z" style="fill: rgb(214, 149, 126);" transform="matrix(1, 0, 0, 1, 5.684341886080802e-14, 1.4210854715202004e-14)"/><g transform="matrix(1, 0, 0, 1, 8.526512829121202e-14, 2.1316282072803006e-14)">
				<path class="st58" d="M1103.5,317.2c1,4.3-0.2,8.3-2.8,8.9c-2.6,0.6-5.2-4.6-6.2-8.9c-1-4.3-0.2-6,2.4-6.7&#10;&#9;&#9;&#9;&#9;&#9;S1102.4,312.9,1103.5,317.2z" style="fill: rgb(235, 164, 138);"/>
				<path class="st58" d="M1157.1,317.2c-1,4.3,0.2,8.3,2.8,8.9c2.6,0.6,5.2-4.6,6.2-8.9s0.2-6-2.4-6.7S1158.1,312.9,1157.1,317.2z" style="fill: rgb(235, 164, 138);"/>
			</g><path class="st7" d="M1130.3,271.3c-24.1,0-31.7,17.2-30.5,35.7l1.1,18c0.5,7.7,3.9,14.8,9.5,19.8l10.3,9&#10;&#9;&#9;&#9;&#9;c5.6,4.9,13.8,4.9,19.3,0l10.3-9c5.6-4.9,9.1-12.1,9.5-19.8l1.1-18C1161.9,288.5,1155.3,271.3,1130.3,271.3z" style="fill: rgb(255, 178, 150);" transform="matrix(1, 0, 0, 1, 8.526512829121202e-14, 2.1316282072803006e-14)"/><path class="st59" d="M1153.6,274.9c-3.6-7.3-15.5-9.7-25.9-9c-41.8,2.7-30,44.7-30,44.7l2.4,4.3c0,0,0.4-6.7,2.6-11.7&#10;&#9;&#9;&#9;&#9;c2.2-5,4.9-3.5,20.8-4.3c11.4-0.6,19.6-5.8,23.4-8.7c-0.8,1.3-1.7,2.4-2.7,3.3c-1.8,1.7-3.6,3-5.3,3.9c-1.6,1-3,1.7-4,2.2&#10;&#9;&#9;&#9;&#9;c-1,0.5-1.5,0.8-1.5,0.8s0.6-0.2,1.6-0.5c1-0.3,2.5-0.9,4.3-1.7c1.8-0.8,3.8-1.9,5.9-3.6c1.6-1.4,3.1-3.2,4.2-5.3&#10;&#9;&#9;&#9;&#9;c0.3,3.1,1,5.8,1.7,7.8c0.5,1.4,1,2.4,1.3,3.2c0.4,0.7,0.6,1.1,0.6,1.1s-0.1-0.4-0.3-1.2c-0.2-0.8-0.5-1.9-0.7-3.3&#10;&#9;&#9;&#9;&#9;c-0.3-1.8-0.7-4.1-0.8-6.7c1.2,1.5,2.6,3.9,3,7.1c0.7,6.1,6.3,19,6.3,19l1.5-7.3C1162,308.9,1171.8,279.1,1153.6,274.9z" style="fill: rgb(0, 0, 56);" transform="matrix(1, 0, 0, 1, 8.526512829121202e-14, 2.1316282072803006e-14)"/><path class="st57" d="M1183,374.3c0,0-14.9-4.9-24.1-4.9s-19.6,19.5-19.6,19.5l-7.4,13.9l-2,177.5c0,1.7,1.3,3.1,3,3.2l39.1,1.7&#10;&#9;&#9;&#9;&#9;c1.8,0.1,3.3-1.4,3.3-3.2c-0.2-16.2-0.6-86.7,4.1-113.2C1182.6,449.7,1183,374.3,1183,374.3z" style="fill: rgb(242, 244, 246);" transform="matrix(1, 0, 0, 1, 8.526512829121202e-14, 2.1316282072803006e-14)"/><path class="st57" d="M1100.9,369.4c-10.4,0-24.1,4.3-24.1,4.3s2.2,75.7,3.7,95.1c1.4,17.2-1.7,96.9-2.4,114.8&#10;&#9;&#9;&#9;&#9;c-0.1,1.9,1.5,3.4,3.4,3.3l38.7-3.4c1.6-0.1,2.8-1.5,2.9-3.1l4.8-177.6l-7.4-13.9C1120.5,388.9,1110.1,369.4,1100.9,369.4z" style="fill: rgb(242, 244, 246);" transform="matrix(1, 0, 0, 1, 8.526512829121202e-14, 2.1316282072803006e-14)"/><path class="st60" d="M1150.4,363.6l-18.5,39.3l8.1-14.2l5.3,13.3l13.6-32.5c0,0-1.6-2.5-3.6-3.8&#10;&#9;&#9;&#9;C1153.3,364.2,1150.4,363.6,1150.4,363.6z" style="fill: rgb(173, 173, 173);" transform="matrix(1, 0, 0, 1, 5.684341886080802e-14, 1.4210854715202004e-14)"/><path class="st60" d="M1109.4,363.6l18.5,39.3l-8.1-14.2l-5.3,13.3l-13.6-32.5c0,0,1.6-2.5,3.6-3.8&#10;&#9;&#9;&#9;C1106.4,364.2,1109.4,363.6,1109.4,363.6z" style="fill: rgb(173, 173, 173);" transform="matrix(1, 0, 0, 1, 5.684341886080802e-14, 1.4210854715202004e-14)"/><g transform="matrix(1, 0, 0, 1, 8.526512829121202e-14, 2.1316282072803006e-14)">
				<path class="st18" d="M1095.2,290.3h-2c-0.7,0-1.2,0.6-1.2,1.3v10.1c0,0.7,0.5,1.3,1.2,1.3h2c0.7,0,1.2-0.6,1.2-1.3v-10.1&#10;&#9;&#9;&#9;&#9;&#9;C1096.4,290.8,1095.9,290.3,1095.2,290.3z" style="fill: rgb(255, 182, 20);"/>
				<path class="st18" d="M1167.5,290.3h-2c-0.7,0-1.2,0.6-1.2,1.3v10.1c0,0.7,0.5,1.3,1.2,1.3h2c0.7,0,1.2-0.6,1.2-1.3v-10.1&#10;&#9;&#9;&#9;&#9;&#9;C1168.7,290.8,1168.2,290.3,1167.5,290.3z" style="fill: rgb(255, 182, 20);"/>
			</g><path class="st16" d="M1161.2,272.3c-5.2-8-21.2-11.8-30.8-11.8c-9.6,0-25.6,3.7-30.8,11.8c-3.7,5.8-5,17.6-6.4,30.6h37.1h37.1&#10;&#9;&#9;&#9;&#9;C1166.3,289.9,1165,278.1,1161.2,272.3z" style="fill: rgb(255, 196, 61);" transform="matrix(1, 0, 0, 1, 8.526512829121202e-14, 2.1316282072803006e-14)"/><path class="st17" d="M1141.3,298.4h-22v-35c0-1.7,1.2-3.2,3-3.6c2-0.5,4.9-1,8-1c3.3,0,6.1,0.5,8,0.9c1.7,0.4,3,1.9,3,3.6V298.4&#10;&#9;&#9;&#9;&#9;z" style="fill: rgb(255, 207, 97);" transform="matrix(1, 0, 0, 1, 8.526512829121202e-14, 2.1316282072803006e-14)"/><path class="st18" d="M1166.7,305.4h-72.5c-1.1,0-2-0.9-2-2v-0.9c0-1.1,0.9-2,2-2h72.5c1.1,0,2,0.9,2,2v0.9&#10;&#9;&#9;&#9;&#9;C1168.7,304.5,1167.8,305.4,1166.7,305.4z" style="fill: rgb(255, 182, 20);" transform="matrix(1, 0, 0, 1, 8.526512829121202e-14, 2.1316282072803006e-14)"/><path class="st61" d="M1090.3,474.5c-0.7-14.1-7-42.7-7-42.7s-1.8,1.7-4.4,5.2c0.5,13.5,1.1,25.5,1.6,31.8&#10;&#9;&#9;&#9;c1.4,17.2-1.7,96.9-2.4,114.8c-0.1,1.9,1.5,3.4,3.4,3.3l8.2-0.7c5.6-20.8-4.9-84.6,7.2-90c10.4-4.7,17-5.9,22.2-14.7l-27.6,7&#10;&#9;&#9;&#9;C1091.6,488.5,1091,488.6,1090.3,474.5z" style="fill: rgb(214, 214, 214);" transform="matrix(1, 0, 0, 1, 5.684341886080802e-14, 1.4210854715202004e-14)"/><path class="st62" d="M1166.5,501.7l-46,4.1c-2.7,0.2-5-1.7-5.2-4.4l-6.6-74.5c-0.2-2.7,1.7-5,4.4-5.2l46-4.1&#10;&#9;&#9;&#9;c2.7-0.2,5,1.7,5.2,4.4l6.6,74.5C1171.2,499.1,1169.2,501.4,1166.5,501.7z" style="fill: rgb(51, 49, 59);" transform="matrix(1, 0, 0, 1, 5.684341886080802e-14, 1.4210854715202004e-14)"/><path class="st9" d="M1163.3,501.7l-46,4.1c-2.7,0.2-5-1.7-5.2-4.4l-6.6-74.5c-0.2-2.7,1.7-5,4.4-5.2l46-4.1&#10;&#9;&#9;&#9;c2.7-0.2,5,1.7,5.2,4.4l6.6,74.5C1167.9,499.1,1165.9,501.4,1163.3,501.7z" style="fill: rgb(34, 32, 39);" transform="matrix(1, 0, 0, 1, 5.684341886080802e-14, 1.4210854715202004e-14)"/><path class="st7" d="M1145.6,476.5c2.1-0.3,9.5-1.2,9.5-1.2s14.7-1.7,14.7-4c0-2.2-13.6,0.5-13.6-0.8c0-1.1,17.3-0.9,17-4.4&#10;&#9;&#9;&#9;c-0.3-3.5-17.2,0.3-17.3-1c-0.1-1.3,18.1-3.2,18.2-6.1c0-3.9-19,1.4-18.9,0c0.1-1.3,15.6-2.7,15.1-5.8c-0.5-2.9-12.4-0.3-18.3,0.7&#10;&#9;&#9;&#9;c-7.6,1.3-10.4,1.4-7-1.4c2.3-1.9,3.4-4.7,3-5.8c-1-2.5-4.5,1.5-8.1,3c-3.4,1.4-11.2,8.5-13.2,11.7&#10;&#9;&#9;&#9;C1123.2,467,1122.8,479.5,1145.6,476.5z" style="fill: rgb(255, 178, 150);" transform="matrix(1, 0, 0, 1, 5.684341886080802e-14, 1.4210854715202004e-14)"/><path class="st57" d="M1082,372.8c-12.5,0.4-21.5,11.4-26.7,44.2c-5.7,36.5-9.9,63.4-0.3,70.2c16.7,11.9,76.2-9.8,76.2-9.8&#10;&#9;&#9;&#9;l-3.1-18.7c0,0-24.1-0.8-50.2,2.7c-2.9,0.4,6.3-28.6,8.3-46.2C1087.4,405.4,1096.4,372.4,1082,372.8z" style="fill: rgb(242, 244, 246);" transform="matrix(1, 0, 0, 1, 5.684341886080802e-14, 1.4210854715202004e-14)"/><path d="M 1114.300049 428.5 A 2.5 2.5 0 0 1 1111.800049 431 A 2.5 2.5 0 0 1 1109.300049 428.5 A 2.5 2.5 0 0 1 1111.800049 426 A 2.5 2.5 0 0 1 1114.300049 428.5 Z" class="st57" style="fill: rgb(242, 244, 246);" transform="matrix(1, 0, 0, 1, 5.684341886080802e-14, 1.4210854715202004e-14)"/><path class="st29" d="M1220.6,834.4v-258h-91.3v258c-12.4,1.9-21.9,12.1-21.9,24.3l0,0h21.9h91.3h21.7l0,0&#10;&#9;&#9;C1242.3,846.5,1232.9,836.4,1220.6,834.4z" style="fill: rgb(86, 89, 81);" transform="matrix(1, 0, 0, 1, 2.842170943040401e-14, 7.105427357601002e-15)"/><path class="st29" d="M394.8,834.4v-258h-91.3v258c-12.4,1.9-21.9,12.1-21.9,24.3l0,0h21.9h91.3h21.7l0,0&#10;&#9;&#9;C416.5,846.5,407.1,836.4,394.8,834.4z" style="fill: rgb(86, 89, 81);" transform="matrix(1, 0, 0, 1, 2.842170943040401e-14, 7.105427357601002e-15)"/><path class="st21" d="M191.9,574.6c-18.6,0-33.7,15.1-33.7,33.7v27.6c0,18.6,15.1,33.7,33.7,33.7H1400v-95H191.9z" style="fill: rgb(123, 107, 92);" transform="matrix(1, 0, 0, 1, 5.684341886080802e-14, 1.4210854715202004e-14)"/><path class="st22" d="M195,585.7c-14.3,0-25.9,11.6-25.9,25.9v21.1c0,14.3,11.6,25.9,25.9,25.9h1205v-72.9H195z" style="fill: rgb(73, 58, 39);" transform="matrix(1, 0, 0, 1, 5.684341886080802e-14, 1.4210854715202004e-14)"/><g transform="matrix(1, 0, 0, 1, 8.526512829121202e-14, 2.1316282072803006e-14)">
				<g>
					<g>
						<path class="st27" d="M669.2,642.6c-29.9,23-64-11.1-41-41C658,578.7,692.1,612.8,669.2,642.6z" style="fill: rgb(48, 36, 21);"/>
					</g>
					<g>
						<path class="st27" d="M803.6,642.6c-29.9,23-64-11.1-41-41C792.5,578.7,826.6,612.8,803.6,642.6z" style="fill: rgb(48, 36, 21);"/>
					</g>
				</g>
				<g>
					<g>
						<path class="st27" d="M947.3,642.6c-29.9,23-64-11.1-41-41C936.2,578.7,970.3,612.8,947.3,642.6z" style="fill: rgb(48, 36, 21);"/>
					</g>
					<g>
						<path class="st27" d="M1061.3,650.2c-15.5,0-28-12.6-28-28s12.6-28,28-28s28,12.6,28,28S1076.7,650.2,1061.3,650.2z" style="fill: rgb(48, 36, 21);"/>
					</g>
				</g>
			</g><g transform="matrix(1, 0, 0, 1, 1.1368683772161603e-13, 2.842170943040401e-14)">
					<path class="st27" d="M1214.6,650.2c-15.5,0-28-12.6-28-28s12.6-28,28-28s28,12.6,28,28S1230,650.2,1214.6,650.2z" style="fill: rgb(48, 36, 21);"/>
				</g><path class="st27" d="M1349,650.2c-15.5,0-28-12.6-28-28s12.6-28,28-28c15.5,0,28,12.6,28,28S1364.5,650.2,1349,650.2z" style="fill: rgb(48, 36, 21);" transform="matrix(1, 0, 0, 1, 1.4210854715202004e-13, 3.552713678800501e-14)"/><g transform="matrix(1, 0, 0, 1, 8.526512829121202e-14, 2.1316282072803006e-14)">
				<g>
					<path d="M 666.300013 622.200012 A 17.6 17.6 0 0 1 648.700012 639.800013 A 17.6 17.6 0 0 1 631.100012 622.200012 A 17.6 17.6 0 0 1 648.700012 604.600012 A 17.6 17.6 0 0 1 666.300013 622.200012 Z" class="st28" style="fill: rgb(65, 48, 28);"/>
					<path d="M 800.699976 622.200012 A 17.6 17.6 0 0 1 783.099976 639.800013 A 17.6 17.6 0 0 1 765.499975 622.200012 A 17.6 17.6 0 0 1 783.099976 604.600012 A 17.6 17.6 0 0 1 800.699976 622.200012 Z" class="st28" style="fill: rgb(65, 48, 28);"/>
				</g>
				<g>
					<path d="M 944.399988 622.200012 A 17.6 17.6 0 0 1 926.799988 639.800013 A 17.6 17.6 0 0 1 909.199987 622.200012 A 17.6 17.6 0 0 1 926.799988 604.600012 A 17.6 17.6 0 0 1 944.399988 622.200012 Z" class="st28" style="fill: rgb(65, 48, 28);"/>
					<g>
						<g>
							<path class="st27" d="M253,642.6c-29.9,23-64-11.1-41-41C241.9,578.7,276,612.8,253,642.6z" style="fill: rgb(48, 36, 21);"/>
						</g>
						<g>
							<path class="st27" d="M387.5,642.6c-29.9,23-64-11.1-41-41C376.4,578.7,410.4,612.8,387.5,642.6z" style="fill: rgb(48, 36, 21);"/>
						</g>
					</g>
					<g>
						<path class="st27" d="M531.2,642.6c-29.9,23-64-11.1-41-41C520,578.7,554.1,612.8,531.2,642.6z" style="fill: rgb(48, 36, 21);"/>
					</g>
					<g>
						<path d="M 250.1 622.200012 A 17.6 17.6 0 0 1 232.5 639.800013 A 17.6 17.6 0 0 1 214.9 622.200012 A 17.6 17.6 0 0 1 232.5 604.600012 A 17.6 17.6 0 0 1 250.1 622.200012 Z" class="st28" style="fill: rgb(65, 48, 28);"/>
						<path d="M 384.6 622.200012 A 17.6 17.6 0 0 1 367 639.800013 A 17.6 17.6 0 0 1 349.4 622.200012 A 17.6 17.6 0 0 1 367 604.600012 A 17.6 17.6 0 0 1 384.6 622.200012 Z" class="st28" style="fill: rgb(65, 48, 28);"/>
					</g>
					<path d="M 528.300013 622.200012 A 17.6 17.6 0 0 1 510.700012 639.800013 A 17.6 17.6 0 0 1 493.100012 622.200012 A 17.6 17.6 0 0 1 510.700012 604.600012 A 17.6 17.6 0 0 1 528.300013 622.200012 Z" class="st28" style="fill: rgb(65, 48, 28);"/>
					<path d="M 1078.900049 622.200012 A 17.6 17.6 0 0 1 1061.300049 639.800013 A 17.6 17.6 0 0 1 1043.700048 622.200012 A 17.6 17.6 0 0 1 1061.300049 604.600012 A 17.6 17.6 0 0 1 1078.900049 622.200012 Z" class="st28" style="fill: rgb(65, 48, 28);"/>
				</g>
			</g><path d="M 1232.199976 622.200012 A 17.6 17.6 0 0 1 1214.599976 639.800013 A 17.6 17.6 0 0 1 1196.999975 622.200012 A 17.6 17.6 0 0 1 1214.599976 604.600012 A 17.6 17.6 0 0 1 1232.199976 622.200012 Z" class="st28" style="fill: rgb(65, 48, 28);" transform="matrix(1, 0, 0, 1, 1.1368683772161603e-13, 2.842170943040401e-14)"/><path d="M 1366.6 622.200012 A 17.6 17.6 0 0 1 1349 639.800013 A 17.6 17.6 0 0 1 1331.4 622.200012 A 17.6 17.6 0 0 1 1349 604.600012 A 17.6 17.6 0 0 1 1366.6 622.200012 Z" class="st28" style="fill: rgb(65, 48, 28);" transform="matrix(1, 0, 0, 1, 1.1368683772161603e-13, 2.842170943040401e-14)"/><path class="st64" d="M278.1,55.6H102.7c-3.7,0-6.7,3-6.7,6.7V122c0,3.7,3,6.7,6.7,6.7h175.3c3.7,0,6.7-3,6.7-6.7V62.2&#10;&#9;&#9;&#9;C284.8,58.5,281.8,55.6,278.1,55.6z" style="fill: rgb(62, 64, 59);" transform="matrix(1, 0, 0, 1, 5.684341886080802e-14, 1.4210854715202004e-14)"/><path class="st9" d="M274,66.5H106.8c-1.2,0-2.2,1-2.2,2.2c0,1.2,1,2.2,2.2,2.2H274c1.2,0,2.2-1,2.2-2.2&#10;&#9;&#9;&#9;&#9;C276.2,67.5,275.2,66.5,274,66.5z" style="fill: rgb(34, 32, 39);" transform="matrix(1, 0, 0, 1, 8.526512829121202e-14, 2.1316282072803006e-14)"/><path class="st9" d="M274,78.9H106.8c-1.2,0-2.2,1-2.2,2.2s1,2.2,2.2,2.2H274c1.2,0,2.2-1,2.2-2.2S275.2,78.9,274,78.9z" style="fill: rgb(34, 32, 39);" transform="matrix(1, 0, 0, 1, 8.526512829121202e-14, 2.1316282072803006e-14)"/><path class="st9" d="M274,90.3H106.8c-1.2,0-2.2,1-2.2,2.2c0,1.2,1,2.2,2.2,2.2H274c1.2,0,2.2-1,2.2-2.2&#10;&#9;&#9;&#9;&#9;C276.2,91.3,275.2,90.3,274,90.3z" style="fill: rgb(34, 32, 39);" transform="matrix(1, 0, 0, 1, 8.526512829121202e-14, 2.1316282072803006e-14)"/><path class="st9" d="M274,100.9H106.8c-1.2,0-2.2,1-2.2,2.2c0,1.2,1,2.2,2.2,2.2H274c1.2,0,2.2-1,2.2-2.2&#10;&#9;&#9;&#9;&#9;C276.2,101.9,275.2,100.9,274,100.9z" style="fill: rgb(34, 32, 39);" transform="matrix(1, 0, 0, 1, 8.526512829121202e-14, 2.1316282072803006e-14)"/><path class="st9" d="M274,113.3H106.8c-1.2,0-2.2,1-2.2,2.2c0,1.2,1,2.2,2.2,2.2H274c1.2,0,2.2-1,2.2-2.2&#10;&#9;&#9;&#9;&#9;C276.2,114.3,275.2,113.3,274,113.3z" style="fill: rgb(34, 32, 39);" transform="matrix(1, 0, 0, 1, 8.526512829121202e-14, 2.1316282072803006e-14)"/><path class="st64" d="M548.5,55.6H373.2c-3.7,0-6.7,3-6.7,6.7V122c0,3.7,3,6.7,6.7,6.7h175.3c3.7,0,6.7-3,6.7-6.7V62.2&#10;&#9;&#9;&#9;C555.2,58.5,552.2,55.6,548.5,55.6z" style="fill: rgb(62, 64, 59);" transform="matrix(1, 0, 0, 1, 5.684341886080802e-14, 1.4210854715202004e-14)"/><path class="st9" d="M544.5,66.5H377.3c-1.2,0-2.2,1-2.2,2.2c0,1.2,1,2.2,2.2,2.2h167.2c1.2,0,2.2-1,2.2-2.2&#10;&#9;&#9;&#9;&#9;C546.7,67.5,545.7,66.5,544.5,66.5z" style="fill: rgb(34, 32, 39);" transform="matrix(1, 0, 0, 1, 8.526512829121202e-14, 2.1316282072803006e-14)"/><path class="st9" d="M544.5,78.9H377.3c-1.2,0-2.2,1-2.2,2.2s1,2.2,2.2,2.2h167.2c1.2,0,2.2-1,2.2-2.2S545.7,78.9,544.5,78.9z" style="fill: rgb(34, 32, 39);" transform="matrix(1, 0, 0, 1, 8.526512829121202e-14, 2.1316282072803006e-14)"/><path class="st9" d="M544.5,90.3H377.3c-1.2,0-2.2,1-2.2,2.2c0,1.2,1,2.2,2.2,2.2h167.2c1.2,0,2.2-1,2.2-2.2&#10;&#9;&#9;&#9;&#9;C546.7,91.3,545.7,90.3,544.5,90.3z" style="fill: rgb(34, 32, 39);" transform="matrix(1, 0, 0, 1, 8.526512829121202e-14, 2.1316282072803006e-14)"/><path class="st9" d="M544.5,100.9H377.3c-1.2,0-2.2,1-2.2,2.2c0,1.2,1,2.2,2.2,2.2h167.2c1.2,0,2.2-1,2.2-2.2&#10;&#9;&#9;&#9;&#9;C546.7,101.9,545.7,100.9,544.5,100.9z" style="fill: rgb(34, 32, 39);" transform="matrix(1, 0, 0, 1, 8.526512829121202e-14, 2.1316282072803006e-14)"/><path class="st9" d="M544.5,113.3H377.3c-1.2,0-2.2,1-2.2,2.2c0,1.2,1,2.2,2.2,2.2h167.2c1.2,0,2.2-1,2.2-2.2&#10;&#9;&#9;&#9;&#9;C546.7,114.3,545.7,113.3,544.5,113.3z" style="fill: rgb(34, 32, 39);" transform="matrix(1, 0, 0, 1, 8.526512829121202e-14, 2.1316282072803006e-14)"/><path class="st64" d="M1095.7,55.6H920.4c-3.7,0-6.7,3-6.7,6.7V122c0,3.7,3,6.7,6.7,6.7h175.3c3.7,0,6.7-3,6.7-6.7V62.2&#10;&#9;&#9;&#9;C1102.4,58.5,1099.4,55.6,1095.7,55.6z" style="fill: rgb(62, 64, 59);" transform="matrix(1, 0, 0, 1, 5.684341886080802e-14, 1.4210854715202004e-14)"/><path class="st9" d="M1091.7,66.5H924.5c-1.2,0-2.2,1-2.2,2.2c0,1.2,1,2.2,2.2,2.2h167.2c1.2,0,2.2-1,2.2-2.2&#10;&#9;&#9;&#9;&#9;C1093.9,67.5,1092.9,66.5,1091.7,66.5z" style="fill: rgb(34, 32, 39);" transform="matrix(1, 0, 0, 1, 8.526512829121202e-14, 2.1316282072803006e-14)"/><path class="st9" d="M1091.7,78.9H924.5c-1.2,0-2.2,1-2.2,2.2s1,2.2,2.2,2.2h167.2c1.2,0,2.2-1,2.2-2.2S1092.9,78.9,1091.7,78.9z&#10;&#9;&#9;&#9;&#9;" style="fill: rgb(34, 32, 39);" transform="matrix(1, 0, 0, 1, 8.526512829121202e-14, 2.1316282072803006e-14)"/><path class="st9" d="M1091.7,90.3H924.5c-1.2,0-2.2,1-2.2,2.2c0,1.2,1,2.2,2.2,2.2h167.2c1.2,0,2.2-1,2.2-2.2&#10;&#9;&#9;&#9;&#9;C1093.9,91.3,1092.9,90.3,1091.7,90.3z" style="fill: rgb(34, 32, 39);" transform="matrix(1, 0, 0, 1, 8.526512829121202e-14, 2.1316282072803006e-14)"/><path class="st9" d="M1091.7,100.9H924.5c-1.2,0-2.2,1-2.2,2.2c0,1.2,1,2.2,2.2,2.2h167.2c1.2,0,2.2-1,2.2-2.2&#10;&#9;&#9;&#9;&#9;C1093.9,101.9,1092.9,100.9,1091.7,100.9z" style="fill: rgb(34, 32, 39);" transform="matrix(1, 0, 0, 1, 8.526512829121202e-14, 2.1316282072803006e-14)"/><path class="st9" d="M1091.7,113.3H924.5c-1.2,0-2.2,1-2.2,2.2c0,1.2,1,2.2,2.2,2.2h167.2c1.2,0,2.2-1,2.2-2.2&#10;&#9;&#9;&#9;&#9;C1093.9,114.3,1092.9,113.3,1091.7,113.3z" style="fill: rgb(34, 32, 39);" transform="matrix(1, 0, 0, 1, 8.526512829121202e-14, 2.1316282072803006e-14)"/><path class="st64" d="M1340.5,55.6h-175.3c-3.7,0-6.7,3-6.7,6.7V122c0,3.7,3,6.7,6.7,6.7h175.3c3.7,0,6.7-3,6.7-6.7V62.2&#10;&#9;&#9;&#9;C1347.2,58.5,1344.2,55.6,1340.5,55.6z" style="fill: rgb(62, 64, 59);" transform="matrix(1, 0, 0, 1, 5.684341886080802e-14, 1.4210854715202004e-14)"/><path class="st9" d="M1336.4,66.5h-167.2c-1.2,0-2.2,1-2.2,2.2c0,1.2,1,2.2,2.2,2.2h167.2c1.2,0,2.2-1,2.2-2.2&#10;&#9;&#9;&#9;&#9;C1338.6,67.5,1337.6,66.5,1336.4,66.5z" style="fill: rgb(34, 32, 39);" transform="matrix(1, 0, 0, 1, 8.526512829121202e-14, 2.1316282072803006e-14)"/><path class="st9" d="M1336.4,78.9h-167.2c-1.2,0-2.2,1-2.2,2.2s1,2.2,2.2,2.2h167.2c1.2,0,2.2-1,2.2-2.2S1337.6,78.9,1336.4,78.9&#10;&#9;&#9;&#9;&#9;z" style="fill: rgb(34, 32, 39);" transform="matrix(1, 0, 0, 1, 8.526512829121202e-14, 2.1316282072803006e-14)"/><path class="st9" d="M1336.4,90.3h-167.2c-1.2,0-2.2,1-2.2,2.2c0,1.2,1,2.2,2.2,2.2h167.2c1.2,0,2.2-1,2.2-2.2&#10;&#9;&#9;&#9;&#9;C1338.6,91.3,1337.6,90.3,1336.4,90.3z" style="fill: rgb(34, 32, 39);" transform="matrix(1, 0, 0, 1, 8.526512829121202e-14, 2.1316282072803006e-14)"/><path class="st9" d="M1336.4,100.9h-167.2c-1.2,0-2.2,1-2.2,2.2c0,1.2,1,2.2,2.2,2.2h167.2c1.2,0,2.2-1,2.2-2.2&#10;&#9;&#9;&#9;&#9;C1338.6,101.9,1337.6,100.9,1336.4,100.9z" style="fill: rgb(34, 32, 39);" transform="matrix(1, 0, 0, 1, 8.526512829121202e-14, 2.1316282072803006e-14)"/><path class="st9" d="M1336.4,113.3h-167.2c-1.2,0-2.2,1-2.2,2.2c0,1.2,1,2.2,2.2,2.2h167.2c1.2,0,2.2-1,2.2-2.2&#10;&#9;&#9;&#9;&#9;C1338.6,114.3,1337.6,113.3,1336.4,113.3z" style="fill: rgb(34, 32, 39);" transform="matrix(1, 0, 0, 1, 8.526512829121202e-14, 2.1316282072803006e-14)"/><g transform="matrix(1, 0, 0, 1, 5.684341886080802e-14, 1.4210854715202004e-14)">
			<path d="M 642.700012 0 H 837.900009 V 276.600006 H 642.700012 V 0 Z" class="st24" style="fill: rgb(72, 74, 67);"/>
			<g>
				<defs>
					<path d="M 642.700012 0 H 837.900009 V 276.600006 H 642.700012 V 0 Z" id="SVGID_9_"/>
				</defs>
				<clipPath id="SVGID_2_">
					<use style="overflow:visible;" xlink:href="#SVGID_9_"/>
				</clipPath>
				<g class="st14" style="clip-path: url('#SVGID_2_');">
					<g>
						<g>
							<g>
								<path class="st3" d="M849.1,266.5c-72.4-2.6-145.1-2.6-217.5,0c-0.2-1.5-0.3-3-0.5-4.4c72.8-2.6,145.8-2.6,218.5,0&#10;&#9;&#9;&#9;&#9;&#9;&#9;&#9;&#9;&#9;C849.4,263.6,849.3,265.1,849.1,266.5z" style="fill: rgb(228, 222, 208);"/>
								<path class="st3" d="M849.1,214.4c-72.4-2.6-145.1-2.6-217.5,0c-0.2-1.5-0.3-3-0.5-4.4c72.8-2.6,145.8-2.6,218.5,0&#10;&#9;&#9;&#9;&#9;&#9;&#9;&#9;&#9;&#9;C849.4,211.4,849.3,212.9,849.1,214.4z" style="fill: rgb(228, 222, 208);"/>
								<path class="st3" d="M849.1,162.2c-72.4-2.6-145.1-2.6-217.5,0c-0.2-1.5-0.3-3-0.5-4.4c72.8-2.6,145.8-2.6,218.5,0&#10;&#9;&#9;&#9;&#9;&#9;&#9;&#9;&#9;&#9;C849.4,159.2,849.3,160.7,849.1,162.2z" style="fill: rgb(228, 222, 208);"/>
								<path class="st3" d="M849.1,110c-72.4-2.6-145.1-2.6-217.5,0c-0.2-1.5-0.3-3-0.5-4.4c72.8-2.6,145.8-2.6,218.5,0&#10;&#9;&#9;&#9;&#9;&#9;&#9;&#9;&#9;&#9;C849.4,107.1,849.3,108.5,849.1,110z" style="fill: rgb(228, 222, 208);"/>
							</g>
						</g>
						<g>
							<g>
								<path class="st3" d="M849.1,237.3c-72.4-2.6-145.1-2.6-217.5,0c-0.2-1.5-0.3-3-0.5-4.4c72.8-2.6,145.8-2.6,218.5,0&#10;&#9;&#9;&#9;&#9;&#9;&#9;&#9;&#9;&#9;C849.4,234.3,849.3,235.8,849.1,237.3z" style="fill: rgb(228, 222, 208);"/>
								<path class="st3" d="M849.1,185.1c-72.4-2.6-145.1-2.6-217.5,0c-0.2-1.5-0.3-3-0.5-4.4c72.8-2.6,145.8-2.6,218.5,0&#10;&#9;&#9;&#9;&#9;&#9;&#9;&#9;&#9;&#9;C849.4,182.1,849.3,183.6,849.1,185.1z" style="fill: rgb(228, 222, 208);"/>
								<path class="st3" d="M849.1,132.9c-72.4-2.6-145.1-2.6-217.5,0c-0.2-1.5-0.3-3-0.5-4.4c72.8-2.6,145.8-2.6,218.5,0&#10;&#9;&#9;&#9;&#9;&#9;&#9;&#9;&#9;&#9;C849.4,130,849.3,131.4,849.1,132.9z" style="fill: rgb(228, 222, 208);"/>
							</g>
						</g>
					</g>
				</g>
				<g class="st14" style="clip-path: url('#SVGID_2_');">
					<g>
						<g>
							<g>
								<path class="st3" d="M849.1,86.2c-72.4-2.6-145.1-2.6-217.5,0c-0.2-1.5-0.3-3-0.5-4.4c72.8-2.6,145.8-2.6,218.5,0&#10;&#9;&#9;&#9;&#9;&#9;&#9;&#9;&#9;&#9;C849.4,83.2,849.3,84.7,849.1,86.2z" style="fill: rgb(228, 222, 208);"/>
								<path class="st3" d="M849.1,36.4c-72.4-2.6-145.1-2.6-217.5,0c-0.2-1.5-0.3-3-0.5-4.4c72.8-2.6,145.8-2.6,218.5,0&#10;&#9;&#9;&#9;&#9;&#9;&#9;&#9;&#9;&#9;C849.4,33.4,849.3,34.9,849.1,36.4z" style="fill: rgb(228, 222, 208);"/>
							</g>
						</g>
						<g>
							<g>
								<path class="st3" d="M849.1,59.3c-72.4-2.6-145.1-2.6-217.5,0c-0.2-1.5-0.3-3-0.5-4.4c72.8-2.6,145.8-2.6,218.5,0&#10;&#9;&#9;&#9;&#9;&#9;&#9;&#9;&#9;&#9;C849.4,56.3,849.3,57.8,849.1,59.3z" style="fill: rgb(228, 222, 208);"/>
								<path class="st3" d="M849.1,14.8c-72.4-2.6-145.1-2.6-217.5,0c-0.2-1.5-0.3-3-0.5-4.4c72.8-2.6,145.8-2.6,218.5,0&#10;&#9;&#9;&#9;&#9;&#9;&#9;&#9;&#9;&#9;C849.4,11.8,849.3,13.3,849.1,14.8z" style="fill: rgb(228, 222, 208);"/>
							</g>
						</g>
					</g>
				</g>
			</g>
		</g><path d="M 632.700012 271.100006 H 901.700012 V 858.699982 H 632.700012 V 271.100006 Z" class="st5" style="fill: rgb(101, 104, 95);" transform="matrix(1, 0, 0, 1, 8.526512829121202e-14, 2.1316282072803006e-14)"/><path d="M 565.900024 271.100006 H 834.900024 V 858.699982 H 565.900024 V 271.100006 Z" class="st37" style="fill: rgb(125, 130, 124);" transform="matrix(1, 0, 0, 1, 8.526512829121202e-14, 2.1316282072803006e-14)"/><path class="st66" d="M901.7,271.1H565.9L580,255c17.6-20.1,43.1-31.7,69.8-31.7h167.9c26.7,0,52.2,11.5,69.8,31.7L901.7,271.1z" style="fill: rgb(87, 89, 82);" transform="matrix(1, 0, 0, 1, 8.526512829121202e-14, 2.1316282072803006e-14)"/><path d="M 590.400024 307.5 H 810.600021 V 492.699997 H 590.400024 V 307.5 Z" class="st5" style="fill: rgb(101, 104, 95);" transform="matrix(1, 0, 0, 1, 8.526512829121202e-14, 2.1316282072803006e-14)"/><g transform="matrix(1, 0, 0, 1, 1.1368683772161603e-13, 2.842170943040401e-14)">
					<path d="M 636.599988 338.5 A 14.3 14.3 0 0 1 622.299988 352.8 A 14.3 14.3 0 0 1 607.999988 338.5 A 14.3 14.3 0 0 1 622.299988 324.2 A 14.3 14.3 0 0 1 636.599988 338.5 Z" class="st3" style="fill: rgb(228, 222, 208);"/>
					<path d="M 688.200025 338.5 A 14.3 14.3 0 0 1 673.900024 352.8 A 14.3 14.3 0 0 1 659.600024 338.5 A 14.3 14.3 0 0 1 673.900024 324.2 A 14.3 14.3 0 0 1 688.200025 338.5 Z" class="st3" style="fill: rgb(228, 222, 208);"/>
					<path d="M 739.500012 338.5 A 14.3 14.3 0 0 1 725.200012 352.8 A 14.3 14.3 0 0 1 710.900012 338.5 A 14.3 14.3 0 0 1 725.200012 324.2 A 14.3 14.3 0 0 1 739.500012 338.5 Z" class="st3" style="fill: rgb(228, 222, 208);"/>
					<path d="M 792.8 338.5 A 14.3 14.3 0 0 1 778.5 352.8 A 14.3 14.3 0 0 1 764.2 338.5 A 14.3 14.3 0 0 1 778.5 324.2 A 14.3 14.3 0 0 1 792.8 338.5 Z" class="st3" style="fill: rgb(228, 222, 208);"/>
				</g><path d="M 618.799988 368.200012 H 625.799988 V 474.300011 H 618.799988 V 368.200012 Z" class="st9" style="fill: rgb(34, 32, 39);" transform="matrix(1, 0, 0, 1, 1.4210854715202004e-13, 3.552713678800501e-14)"/><path d="M 670.299988 368.200012 H 677.299988 V 474.300011 H 670.299988 V 368.200012 Z" class="st9" style="fill: rgb(34, 32, 39);" transform="matrix(1, 0, 0, 1, 1.4210854715202004e-13, 3.552713678800501e-14)"/><path d="M 721.700012 368.200012 H 728.700012 V 474.300011 H 721.700012 V 368.200012 Z" class="st9" style="fill: rgb(34, 32, 39);" transform="matrix(1, 0, 0, 1, 1.4210854715202004e-13, 3.552713678800501e-14)"/><path d="M 775 368.200012 H 782 V 474.300011 H 775 V 368.200012 Z" class="st9" style="fill: rgb(34, 32, 39);" transform="matrix(1, 0, 0, 1, 1.4210854715202004e-13, 3.552713678800501e-14)"/><path d="M 591.200012 512.5 H 678.200012 V 585.599998 H 591.200012 V 512.5 Z" class="st5" style="fill: rgb(101, 104, 95);" transform="matrix(1, 0, 0, 1, 1.1368683772161603e-13, 2.842170943040401e-14)"/><path d="M 597.700012 518 H 671.700012 V 580.200001 H 597.700012 V 518 Z" class="st67" style="fill: rgb(57, 59, 53);" transform="matrix(1, 0, 0, 1, 1.1368683772161603e-13, 2.842170943040401e-14)"/><path d="M 696.900024 513.799988 H 806.800026 V 586.099991 H 696.900024 V 513.799988 Z" class="st5" style="fill: rgb(101, 104, 95);" transform="matrix(1, 0, 0, 1, 1.1368683772161603e-13, 2.842170943040401e-14)"/><path d="M 763.799988 518.099976 H 781.699987 V 529.099976 H 763.799988 V 518.099976 Z" class="st3" style="fill: rgb(228, 222, 208);" transform="matrix(1, 0, 0, 1, 1.4210854715202004e-13, 3.552713678800501e-14)"/><path d="M 742.700012 557.599976 H 761.400013 V 568.099976 H 742.700012 V 557.599976 Z" class="st3" style="fill: rgb(228, 222, 208);" transform="matrix(1, 0, 0, 1, 1.4210854715202004e-13, 3.552713678800501e-14)"/><path d="M 763.799988 544.200012 H 781.699987 V 555.200012 H 763.799988 V 544.200012 Z" class="st3" style="fill: rgb(228, 222, 208);" transform="matrix(1, 0, 0, 1, 1.4210854715202004e-13, 3.552713678800501e-14)"/><path d="M 763.799988 531.5 H 781.699987 V 542 H 763.799988 V 531.5 Z" class="st3" style="fill: rgb(228, 222, 208);" transform="matrix(1, 0, 0, 1, 1.4210854715202004e-13, 3.552713678800501e-14)"/><path d="M 742.700012 544.200012 H 761.400013 V 555.200012 H 742.700012 V 544.200012 Z" class="st3" style="fill: rgb(228, 222, 208);" transform="matrix(1, 0, 0, 1, 1.4210854715202004e-13, 3.552713678800501e-14)"/><path d="M 742.700012 570.299988 H 761.400013 V 581.299988 H 742.700012 V 570.299988 Z" class="st3" style="fill: rgb(228, 222, 208);" transform="matrix(1, 0, 0, 1, 1.4210854715202004e-13, 3.552713678800501e-14)"/><path d="M 742.700012 518.099976 H 761.400013 V 529.099976 H 742.700012 V 518.099976 Z" class="st3" style="fill: rgb(228, 222, 208);" transform="matrix(1, 0, 0, 1, 1.4210854715202004e-13, 3.552713678800501e-14)"/><path d="M 722.599976 557.599976 H 740.499975 V 568.099976 H 722.599976 V 557.599976 Z" class="st3" style="fill: rgb(228, 222, 208);" transform="matrix(1, 0, 0, 1, 1.4210854715202004e-13, 3.552713678800501e-14)"/><path d="M 763.799988 570.299988 H 781.699987 V 581.299988 H 763.799988 V 570.299988 Z" class="st3" style="fill: rgb(228, 222, 208);" transform="matrix(1, 0, 0, 1, 1.4210854715202004e-13, 3.552713678800501e-14)"/><path d="M 742.700012 531.5 H 761.400013 V 542 H 742.700012 V 531.5 Z" class="st3" style="fill: rgb(228, 222, 208);" transform="matrix(1, 0, 0, 1, 1.4210854715202004e-13, 3.552713678800501e-14)"/><path d="M 784 570.299988 H 802.700001 V 581.299988 H 784 V 570.299988 Z" class="st3" style="fill: rgb(228, 222, 208);" transform="matrix(1, 0, 0, 1, 1.4210854715202004e-13, 3.552713678800501e-14)"/><path d="M 784 518.099976 H 802.700001 V 529.099976 H 784 V 518.099976 Z" class="st3" style="fill: rgb(228, 222, 208);" transform="matrix(1, 0, 0, 1, 1.4210854715202004e-13, 3.552713678800501e-14)"/><path d="M 784 531.5 H 802.700001 V 542 H 784 V 531.5 Z" class="st3" style="fill: rgb(228, 222, 208);" transform="matrix(1, 0, 0, 1, 1.4210854715202004e-13, 3.552713678800501e-14)"/><path d="M 784 544.200012 H 802.700001 V 555.200012 H 784 V 544.200012 Z" class="st3" style="fill: rgb(228, 222, 208);" transform="matrix(1, 0, 0, 1, 1.4210854715202004e-13, 3.552713678800501e-14)"/><path d="M 784 557.599976 H 802.700001 V 568.099976 H 784 V 557.599976 Z" class="st3" style="fill: rgb(228, 222, 208);" transform="matrix(1, 0, 0, 1, 1.4210854715202004e-13, 3.552713678800501e-14)"/><path d="M 763.799988 557.599976 H 781.699987 V 568.099976 H 763.799988 V 557.599976 Z" class="st3" style="fill: rgb(228, 222, 208);" transform="matrix(1, 0, 0, 1, 1.4210854715202004e-13, 3.552713678800501e-14)"/><path d="M 722.599976 570.299988 H 740.499975 V 581.299988 H 722.599976 V 570.299988 Z" class="st3" style="fill: rgb(228, 222, 208);" transform="matrix(1, 0, 0, 1, 1.4210854715202004e-13, 3.552713678800501e-14)"/><path d="M 701.5 557.599976 H 720.200001 V 568.099976 H 701.5 V 557.599976 Z" class="st3" style="fill: rgb(228, 222, 208);" transform="matrix(1, 0, 0, 1, 1.4210854715202004e-13, 3.552713678800501e-14)"/><path d="M 722.599976 544.200012 H 740.499975 V 555.200012 H 722.599976 V 544.200012 Z" class="st3" style="fill: rgb(228, 222, 208);" transform="matrix(1, 0, 0, 1, 1.4210854715202004e-13, 3.552713678800501e-14)"/><path d="M 701.5 570.299988 H 720.200001 V 581.299988 H 701.5 V 570.299988 Z" class="st3" style="fill: rgb(228, 222, 208);" transform="matrix(1, 0, 0, 1, 1.4210854715202004e-13, 3.552713678800501e-14)"/><path d="M 722.599976 531.5 H 740.499975 V 542 H 722.599976 V 531.5 Z" class="st3" style="fill: rgb(228, 222, 208);" transform="matrix(1, 0, 0, 1, 1.4210854715202004e-13, 3.552713678800501e-14)"/><path d="M 722.599976 518.099976 H 740.499975 V 529.099976 H 722.599976 V 518.099976 Z" class="st3" style="fill: rgb(228, 222, 208);" transform="matrix(1, 0, 0, 1, 1.4210854715202004e-13, 3.552713678800501e-14)"/><path d="M 701.5 544.200012 H 720.200001 V 555.200012 H 701.5 V 544.200012 Z" class="st3" style="fill: rgb(228, 222, 208);" transform="matrix(1, 0, 0, 1, 1.4210854715202004e-13, 3.552713678800501e-14)"/><path d="M 701.5 531.5 H 720.200001 V 542 H 701.5 V 531.5 Z" class="st3" style="fill: rgb(228, 222, 208);" transform="matrix(1, 0, 0, 1, 1.4210854715202004e-13, 3.552713678800501e-14)"/><path d="M 701.5 518.099976 H 720.200001 V 529.099976 H 701.5 V 518.099976 Z" class="st3" style="fill: rgb(228, 222, 208);" transform="matrix(1, 0, 0, 1, 1.4210854715202004e-13, 3.552713678800501e-14)"/><path class="st53" d="M388,491.2c0,0-32.6-17.2-56.3-24c1.8-5.4,14-43.7,15.6-49.5c5.1-18.5,9.7-46.4-8.9-45.7&#10;&#9;&#9;&#9;c-11.6,0.5-19,16.2-22.8,39.2c-5.9,35.7-15,66.9-5.3,72c28.1,14.8,70,22.6,70,22.6L388,491.2z" style="fill: rgb(212, 116, 51);" transform="matrix(1, 0, 0, 1, 5.684341886080802e-14, 1.4210854715202004e-14)"/><path class="st53" d="M505.5,457.1c0,0-27.6,2.8-52.4,9.4c0-5.7-0.8-45.8-1.2-51.9c-1.1-19.1-5.8-47.1-23.2-40.4&#10;&#9;&#9;&#9;c-10.8,4.2-12.7,21.4-8.9,44.4c5.9,35.7,5,69,18.2,69.9c31.7,2.2,74.1-16.1,74.1-16.1L505.5,457.1z" style="fill: rgb(212, 116, 51);" transform="matrix(1, 0, 0, 1, 5.684341886080802e-14, 1.4210854715202004e-14)"/><path class="st7" d="M417.6,369.5c-6.8-0.8-11.5-3.9-12.8-10.6c-1.4-7-2.7-30.4-2.7-30.4h-34.6c0,0-0.8,23.4-2.5,31.3&#10;&#9;&#9;&#9;c-1.4,6.4-3.9,11.8-25.9,12.2c-8.6,0.2-0.3,7.8,0.7,16.4c6.5,56.5,6.6,85.5,1.9,163.7l92.7-1.5c-5.8-78.6-5.4-115.9-2.1-154.2&#10;&#9;&#9;&#9;C433.1,387.3,444.1,372.4,417.6,369.5z" style="fill: rgb(255, 178, 150);" transform="matrix(1, 0, 0, 1, 5.684341886080802e-14, 1.4210854715202004e-14)"/><path class="st9" d="M458.9,845.2c-11.9-5-21.3-11.5-21.3-11.5h-25.8l-1.3,25.1h70.8C479.3,844.3,461.7,846.3,458.9,845.2z" style="fill: rgb(34, 32, 39);" transform="matrix(1, 0, 0, 1, 5.684341886080802e-14, 1.4210854715202004e-14)"/><path class="st9" d="M383.9,845.2c-11.9-5-21.3-11.5-21.3-11.5h-25.8l-1.3,25.1h70.8C404.3,844.3,386.7,846.3,383.9,845.2z" style="fill: rgb(34, 32, 39);" transform="matrix(1, 0, 0, 1, 5.684341886080802e-14, 1.4210854715202004e-14)"/><path class="st7" d="M423.7,310.7c-0.1,19.4-3.6,37.2-8.9,39.9c-11.7,6-32.5-1.3-44.2-6.1c-15.4-6.3-22.5-26.8-19.3-43.6&#10;&#9;&#9;&#9;c3.6-18.9,21.2-29.6,40.4-28.3C406.2,273.7,423.8,280.2,423.7,310.7z" style="fill: rgb(255, 178, 150);" transform="matrix(1, 0, 0, 1, 5.684341886080802e-14, 1.4210854715202004e-14)"/><path class="st68" d="M413.9,287.5c0,0,22.8,9.7,2.3,16.8c-2.2,0.8,1.5,17.1-1,23.6c-0.9,2.3-10-12.4-15.6-3.5&#10;&#9;&#9;&#9;c-5.1,8,7.3,12.8,12,14.5c-0.8,7.5-5.5,13.8-5.5,13.8s-26.1,2.6-39.8-3.3c-8.9-8-16.4-19.6-18.7-32c-3-16.5-1.9-39.7,25.3-48.6&#10;&#9;&#9;&#9;c22.3-7.2,42.4,1.4,46.7,13.6c1.9,5.5,2.4,7.8,1.1,13.7C417.3,289.6,413.9,287.5,413.9,287.5z" style="fill: rgb(47, 45, 54);" transform="matrix(1, 0, 0, 1, 5.684341886080802e-14, 1.4210854715202004e-14)"/><path class="st13" d="M336.9,409.3c0.6-18.2-2.1-36.6-2.1-36.6s4.3-1.6,11.1-2.7c6.9-1.1,12.3-1.1,12.3-1.1s20.7,2.6,27.6,2.6&#10;&#9;&#9;&#9;c7,0,27.9-2.7,27.9-2.7s0,0,0,0l0,0c0,0,5.9,0.1,13.1,1.4c8.5,1.5,12.9,5,12.9,5s-6.2,9.6-6,27.9c0.4,32.1,2.4,49.4,2.4,49.4&#10;&#9;&#9;&#9;l-1.8,97.4l-44.6,1l-48.1,1.2c0,0-4.2-75.2-6-90.2c-1.8-15-2-20.9-2-20.9S336.1,432.5,336.9,409.3z" style="fill: rgb(241, 133, 57);" transform="matrix(1, 0, 0, 1, 5.684341886080802e-14, 1.4210854715202004e-14)"/><path d="M 397.8999938964844 584.7999877929688 L 409.70001220703125 835.5 L 447.1000061035156 835 L 434.3999938964844 549.7999877929688 L 341.6000061035156 551.2999877929688 L 334.5 835.5 L 368.20001220703125 835.5999755859375 L 385.29998779296875 585 Z" class="st8" style="fill: rgb(22, 61, 84);" transform="matrix(1, 0, 0, 1, 5.684341886080802e-14, 1.4210854715202004e-14)"/><path class="st8" d="M337.3,398.5c0-0.7,21.3,4.3,39.4,5c40.7,1.6,56.9-4.8,57-3.4c0,0-0.1,16,1.1,33.4&#10;&#9;&#9;&#9;c1.3,18.8,1.4,26.8,1.4,26.8l-1.9,89.5l-92.7,2.2c0,0-4.2-75.2-6-90.2c-1.8-15-2-20.9-2-20.9s2.4-8.4,3.2-31.7L337.3,398.5z" style="fill: rgb(22, 61, 84);" transform="matrix(1, 0, 0, 1, 5.684341886080802e-14, 1.4210854715202004e-14)"/><path class="st8" d="M425.6,369.9c0,0-3.5-1.7-6.1-1.7c-2.6,0-5.7,0.5-5.7,0.5l-2.6,40h11.9L425.6,369.9z" style="fill: rgb(22, 61, 84);" transform="matrix(1, 0, 0, 1, 5.684341886080802e-14, 1.4210854715202004e-14)"/><path class="st8" d="M347,369.6c0,0,1.7-0.5,5.3-0.7c2.6-0.2,5.9-0.1,5.9-0.1l1.9,40h-11.9L347,369.6z" style="fill: rgb(22, 61, 84);" transform="matrix(1, 0, 0, 1, 5.684341886080802e-14, 1.4210854715202004e-14)"/><path class="st16" d="M346.5,309.6c0,0-10.6-53.8,45.3-48.4c26.5,2.6,29.8,27.5,29.8,27.5s8.5,0.9,9.4,7.2&#10;&#9;&#9;&#9;c1,7.4-10.9,10.7-10.9,10.7S404.7,312,376,312C358.7,312,346.5,309.6,346.5,309.6z" style="fill: rgb(255, 196, 61);" transform="matrix(1, 0, 0, 1, 5.684341886080802e-14, 1.4210854715202004e-14)"/><path class="st17" d="M403.9,264.5c0,0-15.5-3.5-25.4,7.2c-8,8.7-6.8,33.3-6.8,33.3s-2.8,1.7-11.9,0.9c-6.7-0.6-8.5-2.2-8.5-2.2&#10;&#9;&#9;&#9;s0.6-21.6,6.1-31c5-8.4,10.2-11.4,20.2-12.4C394.7,258.4,403.9,264.5,403.9,264.5z" style="fill: rgb(255, 207, 97);" transform="matrix(1, 0, 0, 1, 5.684341886080802e-14, 1.4210854715202004e-14)"/><path class="st18" d="M413.3,300.9c-12,2.9-25,4.2-43.3,4.1c-13.3-0.1-24.3-2.1-24.3-2.1c0.2,4.1,0.7,6.7,0.7,6.7&#10;&#9;&#9;&#9;s12.3,2.4,29.5,2.4c28.7,0,44.2-5.3,44.2-5.3s11.8-3.3,10.9-10.7c-0.8-6.3-9.4-7.2-9.4-7.2S428.3,297.3,413.3,300.9z" style="fill: rgb(255, 182, 20);" transform="matrix(1, 0, 0, 1, 5.684341886080802e-14, 1.4210854715202004e-14)"/><path class="st68" d="M415.4,311.1c0,0,1.8,13.1,1.6,23.4c-0.2,9.5,2.7,9.2,2.7,9.2s-0.4,5.6-2.5,7.7c-1.7,1.7-5.7,0.4-5.7,0.4&#10;&#9;&#9;&#9;s5.3-19.8,1.8-24.6C410.7,323.4,415.4,311.1,415.4,311.1z" style="fill: rgb(47, 45, 54);" transform="matrix(1, 0, 0, 1, 5.684341886080802e-14, 1.4210854715202004e-14)"/><path d="M 1129.300049 669.700012 H 1220.600052 V 709.100014 H 1129.300049 V 669.700012 Z" class="st70" style="fill: rgb(66, 69, 62);" transform="matrix(1, 0, 0, 1, 2.842170943040401e-14, 7.105427357601002e-15)"/>
<g transform="matrix(1, 0, 0, 1, 1.1351488829151322, -2.9513881354829437)">
			<path class="st56" d="M523.7,459.3c0,0,6.2-3.9,6.1-4.9c-0.2-2-1.7-5.5-1.2-6.3c1.1-1.6,3.8,4.8,3.8,4.8s-0.6-5.6,0.3-6.9&#10;&#9;&#9;&#9;&#9;c0.4-0.6,1.3-0.3,1.5,0.3c0.6,2,0.7,6.1,0.7,6.1s1.8-2.9,2.1-6.1c0.1-1.4,1.4-1.9,1.8-1.6c1.7,1.2,1.6,3.4,0.9,6.3&#10;&#9;&#9;&#9;&#9;s-9.8,9.7-9.8,9.7L523.7,459.3z" style="fill: rgb(209, 145, 123);"/>
			<path class="st63" d="M461,460.8c0,0,5.2-11.6,24.2-12.1c10.7-0.3,19.8-9,24.7-11.5c3.8-2,3.8,2.2,7,1.9&#10;&#9;&#9;&#9;&#9;c7.4-0.6,15.5-4.2,15.5-4.2l5.5,20c0,0-4.8,2.4-17.3,3.4c-13.3,1.1-22.5,4-36.4,4.7C475.5,463.4,461,460.8,461,460.8z" style="fill: rgb(138, 57, 43);"/>
			<path class="st7" d="M507.7,472.5l-4-13.4c0.4-0.2,0.9-0.5,1.5-0.9c3-2.1,7.6-5.7,10.9-6.7c3.3-1,6.3-3.9,8.1-5&#10;&#9;&#9;&#9;&#9;c2-1.2,5.5-4,6-1.9c0.5,2.2-0.9,3.9-3.7,6.7c-2.8,2.8-3.1,4.8-2,7c1.7,3.3,9.1-1.8,10.9-3.3c1.2-1,2.2-6.3,2.7-8.5&#10;&#9;&#9;&#9;&#9;c0.3-1.6,2.4-3.1,2.8-2.5c1,2,1.2,7.4,0.3,12.5c-0.4,2.2-7.2,9.8-9.5,11c-2.3,1.3-10.1,2.4-15.5,3.4&#10;&#9;&#9;&#9;&#9;C514.5,471.3,510.5,472,507.7,472.5z" style="fill: rgb(255, 178, 150);"/>
		</g><g transform="matrix(0.38672199845314026, 0, 0, 0.38672199845314026, 881.2042190979731, 407.3320359102065)">
	<g>
		<path d="M 242.89999389648438 364.29998779296875 L 296.20001220703125 226.5 L 312.1000061035156 241.3000030517578 L 240 406.29998779296875 Z" fill="#590C0E"/>
		<path d="M 345.3999938964844 257.70001220703125 L 341.3999938964844 312.70001220703125 L 267.3999938964844 411.6000061035156 L 240 406.29998779296875 L 312.1000061035156 241.3000030517578 Z" fill="#941A1D"/>
		<path d="M 361.79998779296875 226 L 345.3999938964844 257.70001220703125 L 341.3999938964844 312.70001220703125 L 355.20001220703125 289.20001220703125 L 364.1000061035156 257.70001220703125 Z" fill="#EE2B2E"/>
		<path d="M 267.3999938964844 411.6000061035156 L 290.6000061035156 411.6000061035156 L 341.3999938964844 312.70001220703125 Z" fill="#D42027"/>
		<path d="M 338.20001220703125 208.3000030517578 L 312.1000061035156 241.3000030517578 L 345.3999938964844 257.70001220703125 L 361.79998779296875 226 Z" fill="#D42027"/>
		<path d="M 296.20001220703125 226.5 L 312.1000061035156 241.3000030517578 L 338.20001220703125 208.3000030517578 Z" fill="#941A1D"/>
		<path d="M 181.1999969482422 411.6000061035156 L 202.39999389648438 107.5 L 225.1999969482422 124.80000305175781 L 203.1999969482422 411.6000061035156 Z" fill="#590C0E"/>
		<path d="M 272.20001220703125 131.39999389648438 L 225.1999969482422 124.80000305175781 L 203.1999969482422 411.6000061035156 L 251.39999389648438 411.6000061035156 Z" fill="#941A1D"/>
		<path d="M 292.70001220703125 118.0999984741211 L 272.20001220703125 131.39999389648438 L 251.39999389648438 411.6000061035156 L 267.3999938964844 411.6000061035156 Z" fill="#D42027"/>
		<path d="M 259.79998779296875 46 L 202.39999389648438 107.5 L 225.1999969482422 124.80000305175781 Z" fill="#941A1D"/>
		<path d="M 272.20001220703125 131.39999389648438 L 225.1999969482422 124.80000305175781 L 259.79998779296875 46 Z" fill="#D42027"/>
		<path d="M 292.70001220703125 118.0999984741211 L 259.79998779296875 46 L 272.20001220703125 131.39999389648438 Z" fill="#EE2B2E"/>
		<path d="M 173.5 411.6000061035156 L 93.30000305175781 329.1000061035156 L 114.5999984741211 321.3999938964844 L 189.39999389648438 411.6000061035156 Z" fill="#941A1D"/>
		<path d="M 114.5999984741211 321.3999938964844 L 127.9000015258789 303.79998779296875 L 220.6999969482422 411.6000061035156 L 189.39999389648438 411.6000061035156 Z" fill="#D42027"/>
		<path d="M 93.30000305175781 329.1000061035156 L 94.4000015258789 297.29998779296875 L 114.5999984741211 321.3999938964844 Z" fill="#D42027"/>
		<path d="M 127.9000015258789 303.79998779296875 L 114.5999984741211 321.3999938964844 L 94.4000015258789 297.29998779296875 Z" fill="#EE2B2E"/>
		<path d="M 163.5 231.3000030517578 L 148.89999389648438 398.29998779296875 L 173.5 411.6000061035156 L 181.1999969482422 255.89999389648438 Z" fill="#590C0E"/>
		<path d="M 230.89999389648438 263 L 220.6999969482422 411.6000061035156 L 240 411.6000061035156 L 251.39999389648438 246.60000610351562 Z" fill="#D42027"/>
		<path d="M 181.1999969482422 255.89999389648438 L 173.5 411.6000061035156 L 220.6999969482422 411.6000061035156 L 230.89999389648438 263 Z" fill="#941A1D"/>
		<path d="M 251.39999389648438 246.60000610351562 L 217.39999389648438 200.60000610351562 L 230.89999389648438 263 Z" fill="#EE2B2E"/>
		<path d="M 217.39999389648438 200.60000610351562 L 163.5 231.3000030517578 L 181.1999969482422 255.89999389648438 Z" fill="#941A1D"/>
		<path d="M 230.89999389648438 263 L 217.39999389648438 200.60000610351562 L 181.1999969482422 255.89999389648438 Z" fill="#D42027"/>
		<g>
			<path d="M 245.3000030517578 395.70001220703125 L 273 375.79998779296875 L 249 342.70001220703125 L 187.1999969482422 375.79998779296875 L 207.89999389648438 395.70001220703125 Z" fill="#EE2B2E"/>
			<path d="M 207.89999389648438 395.70001220703125 L 187.1999969482422 375.79998779296875 L 176.10000610351562 415.20001220703125 L 219.89999389648438 444 L 219.89999389648438 427.5 Z" fill="#590C0E"/>
			<path d="M 273 375.79998779296875 L 245.3000030517578 395.70001220703125 L 219.89999389648438 427.5 L 219.89999389648438 444 L 285.79998779296875 425.6000061035156 Z" fill="#941A1D"/>
			<path d="M 219.89999389648438 427.5 L 245.3000030517578 395.70001220703125 L 207.89999389648438 395.70001220703125 Z" fill="#D42027"/>
		</g>
	</g>
	<g>
		<path d="M 480.1000061035156 392.29998779296875 L 501.20001220703125 123.5999984741211 L 524 138.89999389648438 L 502 392.29998779296875 Z" fill="#04261D"/>
		<path d="M 571 144.8000030517578 L 524 138.89999389648438 L 502 392.29998779296875 L 550.2000122070312 392.29998779296875 Z" fill="#064C29"/>
		<path d="M 591.5 133 L 571 144.8000030517578 L 550.2000122070312 392.29998779296875 L 566.2000122070312 392.29998779296875 Z" fill="#188040"/>
		<path d="M 558.5999755859375 69.30000305175781 L 501.20001220703125 123.5999984741211 L 524 138.89999389648438 Z" fill="#188040"/>
		<path d="M 571 144.8000030517578 L 524 138.89999389648438 L 558.5999755859375 69.30000305175781 Z" fill="#50B956"/>
		<path d="M 591.5 133 L 558.5999755859375 69.30000305175781 L 571 144.8000030517578 Z" fill="#A1D186"/>
		<path d="M 529.9000244140625 385.5 L 631.9000244140625 180.3000030517578 L 645 199.60000610351562 L 547.2000122070312 392.5 Z" fill="#04261D"/>
		<path d="M 680.2000122070312 219.1999969482422 L 645 199.60000610351562 L 547.2000122070312 392.5 L 585.2000122070312 407.79998779296875 Z" fill="#064C29"/>
		<path d="M 700.2000122070312 216.39999389648438 L 680.2000122070312 219.1999969482422 L 585.2000122070312 407.79998779296875 L 597.9000244140625 412.8999938964844 Z" fill="#188040"/>
		<path d="M 694.4000244140625 155.6999969482422 L 631.9000244140625 180.3000030517578 L 645 199.60000610351562 Z" fill="#188040"/>
		<path d="M 680.2000122070312 219.1999969482422 L 645 199.60000610351562 L 694.4000244140625 155.6999969482422 Z" fill="#50B956"/>
		<path d="M 700.2000122070312 216.39999389648438 L 694.4000244140625 155.6999969482422 L 680.2000122070312 219.1999969482422 Z" fill="#A1D186"/>
		<path d="M 500.20001220703125 213.39999389648438 L 543.7999877929688 375.29998779296875 L 521.9000244140625 392.70001220703125 L 487 240.6999969482422 Z" fill="#188040"/>
		<path d="M 439.29998779296875 256.3999938964844 L 475.29998779296875 401 L 456.29998779296875 404.3999938964844 L 416.29998779296875 243.8000030517578 Z" fill="#04261D"/>
		<path d="M 487 240.6999969482422 L 521.9000244140625 392.70001220703125 L 475.29998779296875 401 L 439.29998779296875 256.3999938964844 Z" fill="#064C29"/>
		<path d="M 416.29998779296875 243.8000030517578 L 441.70001220703125 192.6999969482422 L 439.29998779296875 256.3999938964844 Z" fill="#188040"/>
		<path d="M 441.70001220703125 192.6999969482422 L 500.20001220703125 213.39999389648438 L 487 240.6999969482422 Z" fill="#A1D186"/>
		<path d="M 439.29998779296875 256.3999938964844 L 441.70001220703125 192.6999969482422 L 487 240.6999969482422 Z" fill="#50B956"/>
		<path d="M 538.5 213.39999389648438 L 494.8999938964844 375.29998779296875 L 516.7999877929688 392.70001220703125 L 551.7000122070312 240.6999969482422 Z" fill="#04261D"/>
		<path d="M 599.2999877929688 256.3999938964844 L 563.2999877929688 401 L 582.2999877929688 404.3999938964844 L 622.2999877929688 243.8000030517578 Z" fill="#188040"/>
		<path d="M 551.7000122070312 240.6999969482422 L 516.7999877929688 392.70001220703125 L 563.2999877929688 401 L 599.2999877929688 256.3999938964844 Z" fill="#064C29"/>
		<path d="M 622.2999877929688 243.8000030517578 L 596.9000244140625 192.6999969482422 L 599.2999877929688 256.3999938964844 Z" fill="#A1D186"/>
		<path d="M 596.9000244140625 192.6999969482422 L 538.5 213.39999389648438 L 551.7000122070312 240.6999969482422 Z" fill="#188040"/>
		<path d="M 599.2999877929688 256.3999938964844 L 596.9000244140625 192.6999969482422 L 551.7000122070312 240.6999969482422 Z" fill="#50B956"/>
		<path d="M 555 388.6000061035156 L 586.7000122070312 365.8999938964844 L 559.0999755859375 327.8999938964844 L 488.3999938964844 365.8999938964844 L 512.0999755859375 388.6000061035156 Z" fill="#50B956"/>
		<path d="M 512.0999755859375 388.6000061035156 L 488.3999938964844 365.8999938964844 L 475.6000061035156 411 L 525.7999877929688 444 L 525.7999877929688 425.1000061035156 Z" fill="#04261D"/>
		<path d="M 586.7000122070312 365.8999938964844 L 555 388.6000061035156 L 525.7999877929688 425.1000061035156 L 525.7999877929688 444 L 601.4000244140625 422.8999938964844 Z" fill="#064C29"/>
		<path d="M 525.7999877929688 425.1000061035156 L 555 388.6000061035156 L 512.0999755859375 388.6000061035156 Z" fill="#188040"/>
	</g>
	<g>
		<path d="M 868.7999877929688 66.69999694824219 L 815.5 164.60000610351562 L 856.5999755859375 141.60000610351562 Z" fill="#563285"/>
		<path d="M 835.7000122070312 402.20001220703125 L 815.5 164.60000610351562 L 856.5999755859375 141.60000610351562 L 862.2999877929688 402.20001220703125 Z" fill="#341E51"/>
		<path d="M 903.4000244140625 240.89999389648438 L 856.5999755859375 141.60000610351562 L 862.2999877929688 402.20001220703125 L 888.2999877929688 402.20001220703125 Z" fill="#45286B"/>
		<path d="M 888.2999877929688 402.20001220703125 L 903.4000244140625 402.20001220703125 L 923.5 222.1999969482422 L 903.4000244140625 240.89999389648438 Z" fill="#563285"/>
		<path d="M 776.7000122070312 189.3000030517578 L 749.2999877929688 216.6999969482422 L 794.9000244140625 402.20001220703125 L 811.7000122070312 402.20001220703125 Z" fill="#341E51"/>
		<path d="M 823 252.3000030517578 L 776.7000122070312 189.3000030517578 L 811.7000122070312 402.20001220703125 L 835.7000122070312 402.20001220703125 Z" fill="#45286B"/>
		<path d="M 817.2000122070312 184 L 776.7000122070312 189.3000030517578 L 823 252.3000030517578 Z" fill="#563285"/>
		<path d="M 780.5 145.1999969482422 L 776.7000122070312 189.3000030517578 L 817.2000122070312 184 Z" fill="#7A54A2"/>
		<path d="M 749.2999877929688 216.6999969482422 L 780.5 145.1999969482422 L 776.7000122070312 189.3000030517578 Z" fill="#563285"/>
		<path d="M 896.9000244140625 251.39999389648438 L 863.2000122070312 402.5 L 884.0999755859375 417.70001220703125 L 910.0999755859375 276.1000061035156 Z" fill="#341E51"/>
		<path d="M 954.7999877929688 288.6000061035156 L 927.4000244140625 423.3999938964844 L 945 425.79998779296875 L 975.4000244140625 276.1000061035156 Z" fill="#563285"/>
		<path d="M 910.0999755859375 276.1000061035156 L 884.0999755859375 417.70001220703125 L 927.4000244140625 423.3999938964844 L 954.7999877929688 288.6000061035156 Z" fill="#45286B"/>
		<path d="M 975.4000244140625 276.1000061035156 L 950 229.89999389648438 L 954.7999877929688 288.6000061035156 Z" fill="#8B6AAE"/>
		<path d="M 950 229.89999389648438 L 896.9000244140625 251.39999389648438 L 910.0999755859375 276.1000061035156 Z" fill="#563285"/>
		<path d="M 954.7999877929688 288.6000061035156 L 950 229.89999389648438 L 910.0999755859375 276.1000061035156 Z" fill="#7A54A2"/>
		<path d="M 868.7999877929688 66.69999694824219 L 856.5999755859375 141.60000610351562 L 923.5 159.60000610351562 Z" fill="#8B6AAE"/>
		<path d="M 856.5999755859375 141.60000610351562 L 903.4000244140625 240.89999389648438 L 923.5 222.1999969482422 L 923.5 159.60000610351562 Z" fill="#7A54A2"/>
		<path d="M 864.5999755859375 396.70001220703125 L 891.7000122070312 377.3999938964844 L 868.2000122070312 345 L 807.7999877929688 377.3999938964844 L 828.0999755859375 396.70001220703125 Z" fill="#8B6AAE"/>
		<path d="M 828.0999755859375 396.70001220703125 L 807.7999877929688 377.3999938964844 L 796.9000244140625 415.8999938964844 L 839.7999877929688 444 L 839.7999877929688 427.8999938964844 Z" fill="#45286B"/>
		<path d="M 891.7000122070312 377.3999938964844 L 864.5999755859375 396.70001220703125 L 839.7999877929688 427.8999938964844 L 839.7999877929688 444 L 904.2000122070312 426 Z" fill="#563285"/>
		<path d="M 839.7999877929688 427.8999938964844 L 864.5999755859375 396.70001220703125 L 828.0999755859375 396.70001220703125 Z" fill="#7A54A2"/>
	</g>
	<g>
		<path d="M 1117.199951171875 418.5 L 1025.9000244140625 324.5 L 1050.0999755859375 315.79998779296875 L 1135.4000244140625 418.5 Z" fill="#008DB7"/>
		<path d="M 1050.0999755859375 315.79998779296875 L 1065.300048828125 295.70001220703125 L 1171 418.5 L 1135.4000244140625 418.5 Z" fill="#00B9F2"/>
		<path d="M 1025.9000244140625 324.5 L 1027.199951171875 288.29998779296875 L 1050.0999755859375 315.79998779296875 Z" fill="#44C8F5"/>
		<path d="M 1065.300048828125 295.70001220703125 L 1050.0999755859375 315.79998779296875 L 1027.199951171875 288.29998779296875 Z" fill="#8ED8F8"/>
		<path d="M 1199.199951171875 435.29998779296875 L 1178 181.60000610351562 L 1155.300048828125 196 L 1177.300048828125 435.29998779296875 Z" fill="#00B9F2"/>
		<path d="M 1108.800048828125 201.60000610351562 L 1155.800048828125 196 L 1177.800048828125 435.29998779296875 L 1129.699951171875 435.29998779296875 Z" fill="#009BCA"/>
		<path d="M 1088.300048828125 190.39999389648438 L 1108.800048828125 201.60000610351562 L 1129.699951171875 435.29998779296875 L 1113.5999755859375 435.29998779296875 Z" fill="#008DB7"/>
		<path d="M 1121.199951171875 130.3000030517578 L 1178.5999755859375 181.60000610351562 L 1155.800048828125 196 Z" fill="#8ED8F8"/>
		<path d="M 1108.800048828125 201.60000610351562 L 1155.800048828125 196 L 1121.199951171875 130.3000030517578 Z" fill="#44C8F5"/>
		<path d="M 1088.300048828125 190.39999389648438 L 1121.199951171875 130.3000030517578 L 1108.800048828125 201.60000610351562 Z" fill="#00B9F2"/>
		<path d="M 1187.5 273.8999938964844 L 1153.800048828125 425 L 1174.699951171875 440.20001220703125 L 1200.699951171875 298.6000061035156 Z" fill="#008DB7"/>
		<path d="M 1245.4000244140625 311.1000061035156 L 1221.300048828125 429.70001220703125 L 1240.5999755859375 424 L 1266 298.6000061035156 Z" fill="#00B9F2"/>
		<path d="M 1200.699951171875 298.6000061035156 L 1174.699951171875 440.20001220703125 L 1221.300048828125 429.70001220703125 L 1245.4000244140625 311.1000061035156 Z" fill="#009BCA"/>
		<path d="M 1266 298.6000061035156 L 1240.5999755859375 252.39999389648438 L 1245.4000244140625 311.1000061035156 Z" fill="#8ED8F8"/>
		<path d="M 1240.5999755859375 252.39999389648438 L 1187.5 273.8999938964844 L 1200.699951171875 298.6000061035156 Z" fill="#00B9F2"/>
		<path d="M 1245.4000244140625 311.1000061035156 L 1240.5999755859375 252.39999389648438 L 1200.699951171875 298.6000061035156 Z" fill="#44C8F5"/>
		<path d="M 1134.9000244140625 444 L 1022.2000122070312 408.6000061035156 L 1046 398.70001220703125 L 1164.5 444 Z" fill="#008DB7"/>
		<path d="M 1063.699951171875 381.29998779296875 L 1041.9000244140625 379.29998779296875 L 1046 398.70001220703125 L 1082.5999755859375 412.70001220703125 Z" fill="#8ED8F8"/>
		<path d="M 1071.9000244140625 353.3999938964844 L 1063.699951171875 381.29998779296875 L 1082.5999755859375 412.70001220703125 L 1164.5 444 L 1164.5 426.3999938964844 Z" fill="#009BCA"/>
		<path d="M 1022.2000122070312 358.8999938964844 L 1041.9000244140625 379.29998779296875 L 1063.699951171875 381.29998779296875 L 1071.9000244140625 353.3999938964844 Z" fill="#44C8F5"/>
		<path d="M 1022.2000122070312 408.6000061035156 L 1022.2000122070312 358.8999938964844 L 1041.9000244140625 379.29998779296875 L 1046 398.70001220703125 Z" fill="#00B9F2"/>
		<path d="M 1194 444 L 1306.699951171875 408.6000061035156 L 1282.9000244140625 398.70001220703125 L 1164.5 444 Z" fill="#009BCA"/>
		<path d="M 1265.199951171875 381.29998779296875 L 1287 379.29998779296875 L 1282.9000244140625 398.70001220703125 L 1246.300048828125 412.70001220703125 Z" fill="#8ED8F8"/>
		<path d="M 1257 353.3999938964844 L 1265.199951171875 381.29998779296875 L 1246.300048828125 412.70001220703125 L 1164.5 444 L 1164.5 426.3999938964844 Z" fill="#008DB7"/>
		<path d="M 1306.699951171875 358.8999938964844 L 1287 379.29998779296875 L 1265.199951171875 381.29998779296875 L 1257 353.3999938964844 Z" fill="#00B9F2"/>
		<path d="M 1306.699951171875 408.6000061035156 L 1306.699951171875 358.8999938964844 L 1287 379.29998779296875 L 1282.9000244140625 398.70001220703125 Z" fill="#44C8F5"/>
	</g>
</g><g transform="matrix(0.35757875442504883, 0, 0, 0.35757875442504883, 425.23548647792035, 139.33988711268586)">
		<path d="M 173.60000610351562 700.9000244140625 L 213.3000030517578 848.2000122070312 L 193.39999389648438 864.0999755859375 L 161.60000610351562 725.7999877929688 Z" fill="#3372B9"/>
		<path d="M 118.19999694824219 740 L 151 871.5999755859375 L 133.6999969482422 874.7000122070312 L 97.30000305175781 728.5999755859375 Z" fill="#173159"/>
		<path d="M 161.60000610351562 725.7999877929688 L 193.39999389648438 864.0999755859375 L 151 871.5999755859375 L 118.19999694824219 740 Z" fill="#0E4C8C"/>
		<path d="M 97.30000305175781 728.5999755859375 L 120.5 682 L 118.19999694824219 740 Z" fill="#3372B9"/>
		<path d="M 120.5 682 L 173.60000610351562 700.9000244140625 L 161.60000610351562 725.7999877929688 Z" fill="#80B9E4"/>
		<path d="M 118.19999694824219 740 L 120.5 682 L 161.60000610351562 725.7999877929688 Z" fill="#4791CE"/>
		<path d="M 159.5 891.2999877929688 L 56.900001525878906 859.0999755859375 L 78.5999984741211 850.0999755859375 L 209.6999969482422 891.2999877929688 Z" fill="#173159"/>
		<path d="M 94.69999694824219 834.2999877929688 L 74.9000015258789 832.4000244140625 L 78.5999984741211 850.0999755859375 L 117.5999984741211 862.4000244140625 Z" fill="#80B9E4"/>
		<path d="M 102.19999694824219 808.9000244140625 L 94.69999694824219 834.2999877929688 L 117.5999984741211 862.4000244140625 L 209.6999969482422 891.2999877929688 L 207.5 873.2000122070312 Z" fill="#0E4C8C"/>
		<path d="M 56.900001525878906 813.9000244140625 L 74.9000015258789 832.4000244140625 L 94.69999694824219 834.2999877929688 L 102.19999694824219 808.9000244140625 Z" fill="#4791CE"/>
		<path d="M 56.900001525878906 859.0999755859375 L 56.900001525878906 813.9000244140625 L 74.9000015258789 832.4000244140625 L 78.5999984741211 850.0999755859375 Z" fill="#3372B9"/>
		<path d="M 165.6999969482422 873.4000244140625 L 185 628.9000244140625 L 205.6999969482422 642.9000244140625 L 185.6999969482422 873.4000244140625 Z" fill="#173159"/>
		<path d="M 248.5 648.2000122070312 L 205.6999969482422 642.9000244140625 L 185.6999969482422 873.4000244140625 L 229.5 873.4000244140625 Z" fill="#0E4C8C"/>
		<path d="M 267.20001220703125 637.5 L 248.5 648.2000122070312 L 229.5 873.4000244140625 L 244.10000610351562 873.4000244140625 Z" fill="#3372B9"/>
		<path d="M 237.1999969482422 579.5999755859375 L 185 628.9000244140625 L 205.6999969482422 642.9000244140625 Z" fill="#3372B9"/>
		<path d="M 248.5 648.2000122070312 L 205.6999969482422 642.9000244140625 L 237.1999969482422 579.5999755859375 Z" fill="#4791CE"/>
		<path d="M 267.20001220703125 637.5 L 237.1999969482422 579.5999755859375 L 248.5 648.2000122070312 Z" fill="#80B9E4"/>
		<path d="M 182.6999969482422 857.7999877929688 L 275.5 671.0999755859375 L 287.3999938964844 688.5999755859375 L 198.39999389648438 864.0999755859375 Z" fill="#173159"/>
		<path d="M 319.5 706.4000244140625 L 287.3999938964844 688.5999755859375 L 198.39999389648438 864.0999755859375 L 233 878 Z" fill="#0E4C8C"/>
		<path d="M 337.6000061035156 703.9000244140625 L 319.5 706.4000244140625 L 233 878 L 244.5 882.7000122070312 Z" fill="#3372B9"/>
		<path d="M 332.29998779296875 648.7000122070312 L 275.5 671.0999755859375 L 287.3999938964844 688.5999755859375 Z" fill="#3372B9"/>
		<path d="M 319.5 706.4000244140625 L 287.3999938964844 688.5999755859375 L 332.29998779296875 648.7000122070312 Z" fill="#4791CE"/>
		<path d="M 337.6000061035156 703.9000244140625 L 332.29998779296875 648.7000122070312 L 319.5 706.4000244140625 Z" fill="#80B9E4"/>
		<path d="M 203.1999969482422 882.5999755859375 L 277 751.2999877929688 L 285.6000061035156 775.4000244140625 L 210 891.2999877929688 Z" fill="#173159"/>
		<path d="M 348.79998779296875 724 L 324.70001220703125 762.4000244140625 L 285.6000061035156 775.4000244140625 L 277 751.2999877929688 Z" fill="#4791CE"/>
		<path d="M 324.70001220703125 762.4000244140625 L 324.70001220703125 816.7000122070312 L 373 770 L 348.79998779296875 724 Z" fill="#80B9E4"/>
		<path d="M 285.6000061035156 775.4000244140625 L 210 891.2999877929688 L 247.39999389648438 889 L 324.70001220703125 816.7000122070312 L 324.70001220703125 762.4000244140625 Z" fill="#0E4C8C"/>
		<path d="M 180.89999389648438 891.2999877929688 L 141.8000030517578 863.7000122070312 L 172.1999969482422 855.0999755859375 L 209.6999969482422 891.2999877929688 Z" fill="#173159"/>
		<path d="M 169.6999969482422 826.9000244140625 L 172.1999969482422 855.0999755859375 L 209.6999969482422 891.2999877929688 L 206.60000610351562 866.2000122070312 Z" fill="#0E4C8C"/>
		<path d="M 141.8000030517578 832.4000244140625 L 172.1999969482422 855.0999755859375 L 169.6999969482422 826.9000244140625 Z" fill="#80B9E4"/>
		<path d="M 141.8000030517578 863.7000122070312 L 172.1999969482422 855.0999755859375 L 141.8000030517578 832.4000244140625 Z" fill="#3372B9"/>
	</g><g transform="matrix(0.38799968361854553, 0, 0, 0.38799968361854553, -66.431312492227, 407.3624812868368)">
		<path d="M 868.7999877929688 66.69999694824219 L 815.5 164.60000610351562 L 856.5999755859375 141.60000610351562 Z" fill="#563285"/>
		<path d="M 835.7000122070312 402.20001220703125 L 815.5 164.60000610351562 L 856.5999755859375 141.60000610351562 L 862.2999877929688 402.20001220703125 Z" fill="#341E51"/>
		<path d="M 903.4000244140625 240.89999389648438 L 856.5999755859375 141.60000610351562 L 862.2999877929688 402.20001220703125 L 888.2999877929688 402.20001220703125 Z" fill="#45286B"/>
		<path d="M 888.2999877929688 402.20001220703125 L 903.4000244140625 402.20001220703125 L 923.5 222.1999969482422 L 903.4000244140625 240.89999389648438 Z" fill="#563285"/>
		<path d="M 776.7000122070312 189.3000030517578 L 749.2999877929688 216.6999969482422 L 794.9000244140625 402.20001220703125 L 811.7000122070312 402.20001220703125 Z" fill="#341E51"/>
		<path d="M 823 252.3000030517578 L 776.7000122070312 189.3000030517578 L 811.7000122070312 402.20001220703125 L 835.7000122070312 402.20001220703125 Z" fill="#45286B"/>
		<path d="M 817.2000122070312 184 L 776.7000122070312 189.3000030517578 L 823 252.3000030517578 Z" fill="#563285"/>
		<path d="M 780.5 145.1999969482422 L 776.7000122070312 189.3000030517578 L 817.2000122070312 184 Z" fill="#7A54A2"/>
		<path d="M 749.2999877929688 216.6999969482422 L 780.5 145.1999969482422 L 776.7000122070312 189.3000030517578 Z" fill="#563285"/>
		<path d="M 896.9000244140625 251.39999389648438 L 863.2000122070312 402.5 L 884.0999755859375 417.70001220703125 L 910.0999755859375 276.1000061035156 Z" fill="#341E51"/>
		<path d="M 954.7999877929688 288.6000061035156 L 927.4000244140625 423.3999938964844 L 945 425.79998779296875 L 975.4000244140625 276.1000061035156 Z" fill="#563285"/>
		<path d="M 910.0999755859375 276.1000061035156 L 884.0999755859375 417.70001220703125 L 927.4000244140625 423.3999938964844 L 954.7999877929688 288.6000061035156 Z" fill="#45286B"/>
		<path d="M 975.4000244140625 276.1000061035156 L 950 229.89999389648438 L 954.7999877929688 288.6000061035156 Z" fill="#8B6AAE"/>
		<path d="M 950 229.89999389648438 L 896.9000244140625 251.39999389648438 L 910.0999755859375 276.1000061035156 Z" fill="#563285"/>
		<path d="M 954.7999877929688 288.6000061035156 L 950 229.89999389648438 L 910.0999755859375 276.1000061035156 Z" fill="#7A54A2"/>
		<path d="M 868.7999877929688 66.69999694824219 L 856.5999755859375 141.60000610351562 L 923.5 159.60000610351562 Z" fill="#8B6AAE"/>
		<path d="M 856.5999755859375 141.60000610351562 L 903.4000244140625 240.89999389648438 L 923.5 222.1999969482422 L 923.5 159.60000610351562 Z" fill="#7A54A2"/>
		<path d="M 864.5999755859375 396.70001220703125 L 891.7000122070312 377.3999938964844 L 868.2000122070312 345 L 807.7999877929688 377.3999938964844 L 828.0999755859375 396.70001220703125 Z" fill="#8B6AAE"/>
		<path d="M 828.0999755859375 396.70001220703125 L 807.7999877929688 377.3999938964844 L 796.9000244140625 415.8999938964844 L 839.7999877929688 444 L 839.7999877929688 427.8999938964844 Z" fill="#45286B"/>
		<path d="M 891.7000122070312 377.3999938964844 L 864.5999755859375 396.70001220703125 L 839.7999877929688 427.8999938964844 L 839.7999877929688 444 L 904.2000122070312 426 Z" fill="#563285"/>
		<path d="M 839.7999877929688 427.8999938964844 L 864.5999755859375 396.70001220703125 L 828.0999755859375 396.70001220703125 Z" fill="#7A54A2"/>
	</g></svg>