<?xml version="1.0" encoding="utf-8"?>
<svg id="master-artboard" viewBox="0 0 46.5411376953125 48.1381721496582" version="1.1" xmlns="http://www.w3.org/2000/svg" x="0px" y="0px" style="enable-background:new 0 0 841.9 595.3;" width="46.5411376953125px" height="48.1381721496582px"><rect id="ee-background" x="0" y="0" width="46.5411376953125" height="48.1381721496582" style="fill: white; fill-opacity: 0; pointer-events: none;"/>


<path d="M 417.899994 466.600006 H 442.199993 V 573.300003 H 417.899994 V 466.600006 Z" transform="matrix(8.674426131148822e-11, -0.26282241959415786, 0.26282241959415786, 8.674426131148822e-11, -109.56731885419276, 145.09718376258311)" class="st41" style="fill: rgb(165, 189, 240);"/><path d="M 393.600006 451.5 H 417.900005 V 509.5 H 393.600006 V 451.5 Z" transform="matrix(3.340851185958174e-11, -0.26282241959415786, 0.26282241959415786, 3.340851185958174e-11, -105.59781051529814, 128.35086162944032)" class="st41" style="fill: rgb(240, 122, 128);"/><path d="M 405.600006 400 H 429.900005 V 482.099998 H 405.600006 V 400 Z" transform="matrix(3.633110153244388e-11, -0.26282241959415786, 0.26282241959415786, 3.633110153244388e-11, -92.08313051048711, 121.14972012473243)" class="st41" style="fill: rgb(139, 240, 163);"/><path d="M 367.29998779296875 545 L 367.29998779296875 417.70001220703125 L 347.29998779296875 417.70001220703125 L 347.29998779296875 545 L 347.29998779296875 565 L 367.29998779296875 565 L 494.6000061035156 565 L 494.6000061035156 545 Z" transform="matrix(0.26282241959415786, 0, 0, 0.26282241959415786, -85.9542915885016, -104.56761191476167)" style="fill: rgb(98, 98, 98);"/></svg>