<?xml version="1.0" standalone="no"?>
<!DOCTYPE svg PUBLIC "-//W3C//DTD SVG 20010904//EN"
 "http://www.w3.org/TR/2001/REC-SVG-20010904/DTD/svg10.dtd">
<svg version="1.0" xmlns="http://www.w3.org/2000/svg"
 width="1280.000000pt" height="1280.000000pt" viewBox="0 0 1280.000000 1280.000000"
 preserveAspectRatio="xMidYMid meet">
<metadata>
Created by potrace 1.15, written by Peter Selinger 2001-2017
</metadata>
<g transform="translate(0.000000,1280.000000) scale(0.100000,-0.100000)"
fill="#000000" stroke="none">
<path d="M340 12786 c-116 -31 -233 -124 -284 -223 -60 -119 -56 39 -56 -2418
0 -2475 -4 -2308 60 -2420 40 -70 7598 -7627 7668 -7667 131 -75 294 -75 436
-1 74 39 4540 4505 4579 4579 74 142 74 305 -1 436 -40 70 -7597 7628 -7667
7668 -112 64 57 60 -2430 59 -1750 0 -2270 -3 -2305 -13z m2459 -1777 c280
-45 521 -226 646 -483 64 -130 87 -233 87 -382 0 -251 -87 -459 -264 -630
-173 -168 -368 -246 -612 -246 -149 0 -252 23 -382 87 -442 215 -621 744 -399
1186 114 226 331 396 585 458 91 22 240 27 339 10z"/>
</g>
</svg>
