<?xml version="1.0" encoding="utf-8"?>
<svg id="master-artboard" viewBox="0 0 178.66824340820312 177.09872436523438" version="1.0" xmlns="http://www.w3.org/2000/svg" x="0px" y="0px" width="178.66824340820312px" height="177.09872436523438px" enable-background="new 0 0 1400 980"><rect id="ee-background" x="0" y="0" width="178.66824340820312" height="177.09872436523438" style="fill: white; fill-opacity: 0; pointer-events: none;"/>
<metadata>
	<sfw>
		<slices/>
		<slicesourcebounds width="1260.744" height="710.105" y="-845.053" x="69.628" bottomleftorigin="true"/>
	</sfw>
</metadata>


<path fill-rule="evenodd" clip-rule="evenodd" fill="#E89024" d="M524.958,564.179c45.826,0,83.032,37.204,83.032,83.031&#10;&#9;&#9;c0,45.948-37.206,83.035-83.032,83.035c-45.829,0-83.035-37.087-83.035-83.035C441.923,601.383,479.129,564.179,524.958,564.179&#10;&#9;&#9;L524.958,564.179z" transform="matrix(1, 0, 0, 1, -437.8359375, -557.9072265625)"/><path fill="#FFFFFF" d="M571.376,600.202c-1.418-1.302-1.536-3.662-0.118-5.078c1.416-1.42,3.778-1.42,5.196,0&#10;&#9;&#9;c5.553,5.433,10.159,11.809,13.701,18.779c3.426,6.849,5.788,14.291,6.969,22.205c0.235,2.007-1.181,3.781-3.188,4.017&#10;&#9;&#9;c-2.008,0.354-3.78-1.066-4.017-3.072c-1.062-7.089-3.188-13.7-6.26-19.841C580.471,610.831,576.337,605.163,571.376,600.202&#10;&#9;&#9;L571.376,600.202z M549.407,586.144c-1.891-0.708-2.834-2.714-2.126-4.606c0.708-1.888,2.834-2.832,4.724-2.124&#10;&#9;&#9;c2.244,0.826,4.488,1.889,6.732,2.954c2.244,1.181,4.37,2.36,6.496,3.658c1.654,1.185,2.127,3.427,1.063,5.083&#10;&#9;&#9;c-1.063,1.651-3.306,2.123-5.078,1.062c-1.891-1.18-3.78-2.364-5.786-3.308C553.541,587.918,551.415,586.974,549.407,586.144&#10;&#9;&#9;L549.407,586.144z" transform="matrix(1, 0, 0, 1, -437.8359375, -557.9072265625)"/><path fill-rule="evenodd" clip-rule="evenodd" fill="#FFFFFF" d="M563.698,658.55c0,0.354,0,0.591,0,0.826&#10;&#9;&#9;c0,22.914-18.544,41.339-41.341,41.339c-12.165,0-23.739-5.314-31.536-14.526c-2.834-3.309-2.361-8.27,0.826-10.983&#10;&#9;&#9;c3.309-2.836,8.269-2.481,10.987,0.826c4.96,5.786,12.164,9.095,19.723,9.095c14.175,0,25.749-11.459,25.749-25.75&#10;&#9;&#9;c0-0.117,0-0.354,0-0.826h-11.574c-1.418,0-2.716-0.707-3.188-2.128c-0.592-1.298-0.355-2.714,0.708-3.776l19.369-19.373&#10;&#9;&#9;c1.301-1.298,3.545-1.298,4.963,0l19.371,19.373c0.943,1.063,1.298,2.479,0.708,3.776c-0.59,1.421-1.772,2.128-3.19,2.128H563.698z&#10;&#9;&#9;" transform="matrix(1, 0, 0, 1, -437.8359375, -557.9072265625)"/><path fill-rule="evenodd" clip-rule="evenodd" fill="#FFFFFF" d="M501.807,635.873h11.574c1.418,0,2.719,0.825,3.19,2.124&#10;&#9;&#9;c0.59,1.42,0.354,2.836-0.708,3.898l-19.371,19.373c-1.3,1.298-3.544,1.298-4.963,0l-19.368-19.373&#10;&#9;&#9;c-0.946-1.063-1.301-2.479-0.711-3.898c0.593-1.299,1.772-2.124,3.19-2.124h11.575c0-0.236,0-0.472,0-0.826&#10;&#9;&#9;c0-22.8,18.543-41.343,41.34-41.343c12.165,0,23.741,5.314,31.536,14.648c2.834,3.305,2.362,8.265-0.826,10.983&#10;&#9;&#9;c-3.309,2.836-8.269,2.364-10.984-0.944c-4.961-5.79-12.049-9.095-19.726-9.095c-14.175,0-25.749,11.573-25.749,25.75&#10;&#9;&#9;C501.807,635.282,501.807,635.519,501.807,635.873L501.807,635.873z" transform="matrix(1, 0, 0, 1, -437.8359375, -557.9072265625)"/>





</svg>