<?xml version="1.0" encoding="utf-8"?>
<svg id="master-artboard" viewBox="0 0 2800 2800" version="1.1" xmlns="http://www.w3.org/2000/svg" x="0px" y="0px" width="2800px" height="2800px" enable-background="new 0 0 2800 2800">

<path d="M 2726.800048828125 1928.300048828125 L 1171.199951171875 1030.199951171875 L 73.19999694824219 1664.199951171875 L 1628.800048828125 2562.300048828125 L 2352.5 2144.39990234375 L 2395.5 2218.89990234375 L 2494.89990234375 2161.5 L 2441.10009765625 2093.199951171875 L 2509.199951171875 2053.89990234375 L 2627.39990234375 2085 L 2726.800048828125 2027.5999755859375 L 2597.89990234375 2002.699951171875 Z" opacity="0.1" transform="matrix(1, 0, 0, 1, 2.842170943040401e-14, 7.105427357601002e-15)"/><linearGradient id="SVGID_2_" gradientUnits="userSpaceOnUse" x1="73.184" y1="1743.3966" x2="2726.8159" y2="1743.3966">
			<stop offset="0" style="stop-color:#FFFFFF"/>
			<stop offset="1" style="stop-color:#C9E9FF"/>
		</linearGradient><path d="M 1171.199951171875 977.4000244140625 L 73.19999694824219 1611.300048828125 L 1628.800048828125 2509.39990234375 L 2726.800048828125 1875.5 Z" fill="url(#SVGID_2_)" transform="matrix(1, 0, 0, 1, 5.684341886080802e-14, 1.4210854715202004e-14)"/><path d="M 713.7000122070312 1875.5 L 736.5999755859375 1888.699951171875 L 1285.5999755859375 1571.699951171875 L 1262.699951171875 1558.5 Z" transform="matrix(1, 0, 0, 1, 8.526512829121202e-14, 2.1316282072803006e-14)"/><path d="M 782.2999877929688 1915.0999755859375 L 805.2000122070312 1928.300048828125 L 1354.199951171875 1611.300048828125 L 1331.4000244140625 1598.0999755859375 Z" transform="matrix(1, 0, 0, 1, 8.526512829121202e-14, 2.1316282072803006e-14)"/><path d="M 851 1954.699951171875 L 873.7999877929688 1967.9000244140625 L 1422.9000244140625 1650.9000244140625 L 1400 1637.699951171875 Z" transform="matrix(1, 0, 0, 1, 8.526512829121202e-14, 2.1316282072803006e-14)"/><path d="M 919.5999755859375 1994.300048828125 L 942.5 2007.5 L 1491.5 1690.5999755859375 L 1468.5999755859375 1677.4000244140625 Z" transform="matrix(1, 0, 0, 1, 8.526512829121202e-14, 2.1316282072803006e-14)"/><path d="M 988.2000122070312 2034 L 1011.0999755859375 2047.199951171875 L 1560.0999755859375 1730.199951171875 L 1537.300048828125 1717 Z" transform="matrix(1, 0, 0, 1, 8.526512829121202e-14, 2.1316282072803006e-14)"/><path d="M 1056.9000244140625 2073.60009765625 L 1079.699951171875 2086.800048828125 L 1628.800048828125 1769.800048828125 L 1605.9000244140625 1756.5999755859375 Z" transform="matrix(1, 0, 0, 1, 8.526512829121202e-14, 2.1316282072803006e-14)"/><path d="M 1125.5 2113.199951171875 L 1148.4000244140625 2126.39990234375 L 2063.39990234375 1598.0999755859375 L 2040.5 1584.9000244140625 Z" transform="matrix(1, 0, 0, 1, 8.526512829121202e-14, 2.1316282072803006e-14)"/><path d="M 1194.0999755859375 2152.800048828125 L 1217 2166 L 2132 1637.699951171875 L 2109.199951171875 1624.5 Z" transform="matrix(1, 0, 0, 1, 8.526512829121202e-14, 2.1316282072803006e-14)"/><path d="M 1262.699951171875 2192.5 L 1285.5999755859375 2205.699951171875 L 2200.699951171875 1677.4000244140625 L 2177.800048828125 1664.199951171875 Z" transform="matrix(1, 0, 0, 1, 8.526512829121202e-14, 2.1316282072803006e-14)"/><linearGradient id="SVGID_3_" gradientUnits="userSpaceOnUse" x1="2064.1003" y1="1974.7271" x2="2726.8159" y2="1974.7271">
			<stop offset="0" style="stop-color:#00BFFF"/>
			<stop offset="1" style="stop-color:#9136D9"/>
		</linearGradient><path fill="url(#SVGID_3_)" d="M2410.6,1975.2l216.8,56.9l99.4-57.4l-269.7-51.9c13.9-37-3.9-77.3-53.5-105.9&#10;&#9;&#9;&#9;c-77.4-44.7-204.1-44.7-281.5,0c-77.4,44.7-77.4,117.8,0,162.5c49.6,28.6,119.3,38.9,183.4,30.9l89.9,155.7l99.4-57.4l-98.5-125.2&#10;&#9;&#9;&#9;c2.5-1.3,4.9-2.6,7.3-4C2406.1,1978.1,2408.4,1976.7,2410.6,1975.2z M2362.3,1955.6c-54.7,31.6-144.1,31.6-198.8,0&#10;&#9;&#9;&#9;c-54.7-31.6-54.7-83.2,0-114.8c54.7-31.6,144.1-31.6,198.8,0C2417,1872.4,2417,1924,2362.3,1955.6z" transform="matrix(1, 0, 0, 1, 5.684341886080802e-14, 1.4210854715202004e-14)"/><g transform="matrix(1, 0, 0, 1, 5.684341886080802e-14, 1.4210854715202004e-14)">
			<linearGradient id="SVGID_4_" gradientUnits="userSpaceOnUse" x1="850.9722" y1="937.7361" x2="1262.7427" y2="937.7361">
				<stop offset="0" style="stop-color:#FFFFFF"/>
				<stop offset="1" style="stop-color:#00B3FF"/>
			</linearGradient>
			<path d="M 851 422.6000061035156 L 851 1215.0999755859375 L 1262.699951171875 1452.800048828125 L 1262.699951171875 660.4000244140625 Z" fill="url(#SVGID_4_)"/>
			<linearGradient id="SVGID_5_" gradientUnits="userSpaceOnUse" x1="1262.7432" y1="964.1511" x2="1583.0087" y2="964.1511">
				<stop offset="0" style="stop-color:#FFFFFF"/>
				<stop offset="1" style="stop-color:#00B3FF"/>
			</linearGradient>
			<path d="M 1583 475.5 L 1583 1267.9000244140625 L 1262.699951171875 1452.800048828125 L 1262.699951171875 660.4000244140625 Z" fill="url(#SVGID_5_)"/>
			<linearGradient id="SVGID_6_" gradientUnits="userSpaceOnUse" x1="850.9722" y1="449.0567" x2="1583.0087" y2="449.0567">
				<stop offset="0" style="stop-color:#FFFFFF"/>
				<stop offset="1" style="stop-color:#00B3FF"/>
			</linearGradient>
			<path d="M 1171.199951171875 237.6999969482422 L 851 422.6000061035156 L 1262.699951171875 660.4000244140625 L 1583 475.5 Z" fill="url(#SVGID_6_)"/>
			<linearGradient id="SVGID_7_" gradientUnits="userSpaceOnUse" x1="896.725" y1="449.0565" x2="1537.2566" y2="449.0565">
				<stop offset="0" style="stop-color:#00B3FF"/>
				<stop offset="1" style="stop-color:#FFFFFF"/>
			</linearGradient>
			<path d="M 896.7000122070312 422.6000061035156 L 1171.199951171875 264.20001220703125 L 1537.300048828125 475.5 L 1262.699951171875 634 Z" fill="url(#SVGID_7_)"/>
			<linearGradient id="SVGID_8_" gradientUnits="userSpaceOnUse" x1="896.725" y1="349.9999" x2="1171.2386" y2="349.9999">
				<stop offset="0" style="stop-color:#00B3FF"/>
				<stop offset="1" style="stop-color:#FFFFFF"/>
			</linearGradient>
			<path d="M 896.7000122070312 422.6000061035156 L 919.5999755859375 435.79998779296875 L 1171.199951171875 290.6000061035156 L 1171.199951171875 264.20001220703125 Z" fill="url(#SVGID_8_)"/>
			<linearGradient id="SVGID_9_" gradientUnits="userSpaceOnUse" x1="1171.2386" y1="376.4151" x2="1537.2566" y2="376.4151">
				<stop offset="0" style="stop-color:#00B3FF"/>
				<stop offset="1" style="stop-color:#FFFFFF"/>
			</linearGradient>
			<path d="M 1171.199951171875 264.20001220703125 L 1171.199951171875 290.6000061035156 L 1514.4000244140625 488.70001220703125 L 1537.300048828125 475.5 Z" fill="url(#SVGID_9_)"/>
			<linearGradient id="SVGID_10_" gradientUnits="userSpaceOnUse" x1="1079.7335" y1="435.849" x2="1262.7426" y2="435.849">
				<stop offset="0" style="stop-color:#FFFFFF"/>
				<stop offset="1" style="stop-color:#00B3FF"/>
			</linearGradient>
			<path d="M 1079.699951171875 369.79998779296875 L 1079.699951171875 396.20001220703125 L 1262.699951171875 501.8999938964844 L 1262.699951171875 475.5 Z" fill="url(#SVGID_10_)"/>
			<linearGradient id="SVGID_11_" gradientUnits="userSpaceOnUse" x1="1079.7335" y1="396.2264" x2="1354.2473" y2="396.2264">
				<stop offset="0" style="stop-color:#FFFFFF"/>
				<stop offset="1" style="stop-color:#00B3FF"/>
			</linearGradient>
			<path d="M 1171.199951171875 317 L 1079.699951171875 369.79998779296875 L 1262.699951171875 475.5 L 1354.199951171875 422.6000061035156 Z" fill="url(#SVGID_11_)"/>
			<linearGradient id="SVGID_12_" gradientUnits="userSpaceOnUse" x1="1262.7426" y1="462.264" x2="1354.2473" y2="462.264">
				<stop offset="0" style="stop-color:#FFFFFF"/>
				<stop offset="1" style="stop-color:#00B3FF"/>
			</linearGradient>
			<path d="M 1354.199951171875 449.1000061035156 L 1354.199951171875 422.6000061035156 L 1262.699951171875 475.5 L 1262.699951171875 501.8999938964844 Z" fill="url(#SVGID_12_)"/>
		</g><linearGradient id="SVGID_13_" gradientUnits="userSpaceOnUse" x1="873.8488" y1="620.755" x2="1239.8672" y2="620.755">
				<stop offset="0" style="stop-color:#00BFFF"/>
				<stop offset="1" style="stop-color:#9136D9"/>
			</linearGradient><path d="M 873.7999877929688 488.70001220703125 L 873.7999877929688 541.5 L 1239.9000244140625 752.7999877929688 L 1239.9000244140625 700 Z" fill="url(#SVGID_13_)" transform="matrix(1, 0, 0, 1, 8.526512829121202e-14, 2.1316282072803006e-14)"/><linearGradient id="SVGID_14_" gradientUnits="userSpaceOnUse" x1="873.8488" y1="700.0002" x2="1239.8672" y2="700.0002">
				<stop offset="0" style="stop-color:#00BFFF"/>
				<stop offset="1" style="stop-color:#9136D9"/>
			</linearGradient><path d="M 873.7999877929688 620.7999877929688 L 1239.9000244140625 832.0999755859375 L 1239.9000244140625 779.2000122070312 L 873.7999877929688 567.9000244140625 Z" fill="url(#SVGID_14_)" transform="matrix(1, 0, 0, 1, 8.526512829121202e-14, 2.1316282072803006e-14)"/><linearGradient id="SVGID_15_" gradientUnits="userSpaceOnUse" x1="873.8488" y1="779.2457" x2="1239.8672" y2="779.2457">
				<stop offset="0" style="stop-color:#00BFFF"/>
				<stop offset="1" style="stop-color:#9136D9"/>
			</linearGradient><path d="M 873.7999877929688 700 L 1239.9000244140625 911.2999877929688 L 1239.9000244140625 858.5 L 873.7999877929688 647.2000122070312 Z" fill="url(#SVGID_15_)" transform="matrix(1, 0, 0, 1, 8.526512829121202e-14, 2.1316282072803006e-14)"/><linearGradient id="SVGID_16_" gradientUnits="userSpaceOnUse" x1="873.8488" y1="858.4907" x2="1239.8672" y2="858.4907">
				<stop offset="0" style="stop-color:#00BFFF"/>
				<stop offset="1" style="stop-color:#9136D9"/>
			</linearGradient><path d="M 873.7999877929688 779.2000122070312 L 1239.9000244140625 990.5999755859375 L 1239.9000244140625 937.7000122070312 L 873.7999877929688 726.4000244140625 Z" fill="url(#SVGID_16_)" transform="matrix(1, 0, 0, 1, 8.526512829121202e-14, 2.1316282072803006e-14)"/><linearGradient id="SVGID_17_" gradientUnits="userSpaceOnUse" x1="873.8488" y1="937.7361" x2="1239.8672" y2="937.7361">
				<stop offset="0" style="stop-color:#00BFFF"/>
				<stop offset="1" style="stop-color:#9136D9"/>
			</linearGradient><path d="M 873.7999877929688 858.5 L 1239.9000244140625 1069.800048828125 L 1239.9000244140625 1017 L 873.7999877929688 805.7000122070312 Z" fill="url(#SVGID_17_)" transform="matrix(1, 0, 0, 1, 8.526512829121202e-14, 2.1316282072803006e-14)"/><linearGradient id="SVGID_18_" gradientUnits="userSpaceOnUse" x1="873.8488" y1="1016.9814" x2="1239.8672" y2="1016.9814">
				<stop offset="0" style="stop-color:#00BFFF"/>
				<stop offset="1" style="stop-color:#9136D9"/>
			</linearGradient><path d="M 873.7999877929688 937.7000122070312 L 1239.9000244140625 1149.0999755859375 L 1239.9000244140625 1096.199951171875 L 873.7999877929688 884.9000244140625 Z" fill="url(#SVGID_18_)" transform="matrix(1, 0, 0, 1, 8.526512829121202e-14, 2.1316282072803006e-14)"/><linearGradient id="SVGID_19_" gradientUnits="userSpaceOnUse" x1="873.8488" y1="1096.2268" x2="1239.8672" y2="1096.2268">
				<stop offset="0" style="stop-color:#00BFFF"/>
				<stop offset="1" style="stop-color:#9136D9"/>
			</linearGradient><path d="M 873.7999877929688 1017 L 1239.9000244140625 1228.300048828125 L 1239.9000244140625 1175.5 L 873.7999877929688 964.2000122070312 Z" fill="url(#SVGID_19_)" transform="matrix(1, 0, 0, 1, 8.526512829121202e-14, 2.1316282072803006e-14)"/><linearGradient id="SVGID_20_" gradientUnits="userSpaceOnUse" x1="873.8488" y1="1175.4717" x2="1239.8672" y2="1175.4717">
				<stop offset="0" style="stop-color:#00BFFF"/>
				<stop offset="1" style="stop-color:#9136D9"/>
			</linearGradient><path d="M 873.7999877929688 1096.199951171875 L 1239.9000244140625 1307.5 L 1239.9000244140625 1254.699951171875 L 873.7999877929688 1043.4000244140625 Z" fill="url(#SVGID_20_)" transform="matrix(1, 0, 0, 1, 8.526512829121202e-14, 2.1316282072803006e-14)"/><linearGradient id="SVGID_21_" gradientUnits="userSpaceOnUse" x1="873.8488" y1="1254.7167" x2="1239.8672" y2="1254.7167">
				<stop offset="0" style="stop-color:#00BFFF"/>
				<stop offset="1" style="stop-color:#9136D9"/>
			</linearGradient><path d="M 873.7999877929688 1175.5 L 1239.9000244140625 1386.800048828125 L 1239.9000244140625 1334 L 873.7999877929688 1122.5999755859375 Z" fill="url(#SVGID_21_)" transform="matrix(1, 0, 0, 1, 8.526512829121202e-14, 2.1316282072803006e-14)"/><linearGradient id="SVGID_22_" gradientUnits="userSpaceOnUse" x1="1285.6191" y1="647.17" x2="1560.1329" y2="647.17">
				<stop offset="0" style="stop-color:#00BFFF"/>
				<stop offset="1" style="stop-color:#9136D9"/>
			</linearGradient><path d="M 1285.5999755859375 700 L 1285.5999755859375 752.7999877929688 L 1560.0999755859375 594.2999877929688 L 1560.0999755859375 541.5 Z" fill="url(#SVGID_22_)" transform="matrix(1, 0, 0, 1, 8.526512829121202e-14, 2.1316282072803006e-14)"/><linearGradient id="SVGID_23_" gradientUnits="userSpaceOnUse" x1="1285.6191" y1="726.4153" x2="1560.1329" y2="726.4153">
				<stop offset="0" style="stop-color:#00BFFF"/>
				<stop offset="1" style="stop-color:#9136D9"/>
			</linearGradient><path d="M 1285.5999755859375 779.2000122070312 L 1285.5999755859375 832.0999755859375 L 1560.0999755859375 673.5999755859375 L 1560.0999755859375 620.7999877929688 Z" fill="url(#SVGID_23_)" transform="matrix(1, 0, 0, 1, 8.526512829121202e-14, 2.1316282072803006e-14)"/><linearGradient id="SVGID_24_" gradientUnits="userSpaceOnUse" x1="1285.6191" y1="805.6607" x2="1560.1329" y2="805.6607">
				<stop offset="0" style="stop-color:#00BFFF"/>
				<stop offset="1" style="stop-color:#9136D9"/>
			</linearGradient><path d="M 1285.5999755859375 858.5 L 1285.5999755859375 911.2999877929688 L 1560.0999755859375 752.7999877929688 L 1560.0999755859375 700 Z" fill="url(#SVGID_24_)" transform="matrix(1, 0, 0, 1, 8.526512829121202e-14, 2.1316282072803006e-14)"/><linearGradient id="SVGID_25_" gradientUnits="userSpaceOnUse" x1="1285.6191" y1="884.9058" x2="1560.1329" y2="884.9058">
				<stop offset="0" style="stop-color:#00BFFF"/>
				<stop offset="1" style="stop-color:#9136D9"/>
			</linearGradient><path d="M 1285.5999755859375 937.7000122070312 L 1285.5999755859375 990.5999755859375 L 1560.0999755859375 832.0999755859375 L 1560.0999755859375 779.2000122070312 Z" fill="url(#SVGID_25_)" transform="matrix(1, 0, 0, 1, 8.526512829121202e-14, 2.1316282072803006e-14)"/><linearGradient id="SVGID_26_" gradientUnits="userSpaceOnUse" x1="1285.6191" y1="964.1511" x2="1560.1329" y2="964.1511">
				<stop offset="0" style="stop-color:#00BFFF"/>
				<stop offset="1" style="stop-color:#9136D9"/>
			</linearGradient><path d="M 1285.5999755859375 1017 L 1285.5999755859375 1069.800048828125 L 1560.0999755859375 911.2999877929688 L 1560.0999755859375 858.5 Z" fill="url(#SVGID_26_)" transform="matrix(1, 0, 0, 1, 8.526512829121202e-14, 2.1316282072803006e-14)"/><linearGradient id="SVGID_27_" gradientUnits="userSpaceOnUse" x1="1285.6191" y1="1043.3965" x2="1560.1329" y2="1043.3965">
				<stop offset="0" style="stop-color:#00BFFF"/>
				<stop offset="1" style="stop-color:#9136D9"/>
			</linearGradient><path d="M 1285.5999755859375 1096.199951171875 L 1285.5999755859375 1149.0999755859375 L 1560.0999755859375 990.5999755859375 L 1560.0999755859375 937.7000122070312 Z" fill="url(#SVGID_27_)" transform="matrix(1, 0, 0, 1, 8.526512829121202e-14, 2.1316282072803006e-14)"/><linearGradient id="SVGID_28_" gradientUnits="userSpaceOnUse" x1="1285.6191" y1="1122.6417" x2="1560.1329" y2="1122.6417">
				<stop offset="0" style="stop-color:#00BFFF"/>
				<stop offset="1" style="stop-color:#9136D9"/>
			</linearGradient><path d="M 1285.5999755859375 1175.5 L 1285.5999755859375 1228.300048828125 L 1560.0999755859375 1069.800048828125 L 1560.0999755859375 1017 Z" fill="url(#SVGID_28_)" transform="matrix(1, 0, 0, 1, 8.526512829121202e-14, 2.1316282072803006e-14)"/><linearGradient id="SVGID_29_" gradientUnits="userSpaceOnUse" x1="1285.6191" y1="1201.8867" x2="1560.1329" y2="1201.8867">
				<stop offset="0" style="stop-color:#00BFFF"/>
				<stop offset="1" style="stop-color:#9136D9"/>
			</linearGradient><path d="M 1285.5999755859375 1254.699951171875 L 1285.5999755859375 1307.5 L 1560.0999755859375 1149.0999755859375 L 1560.0999755859375 1096.199951171875 Z" fill="url(#SVGID_29_)" transform="matrix(1, 0, 0, 1, 8.526512829121202e-14, 2.1316282072803006e-14)"/><linearGradient id="SVGID_30_" gradientUnits="userSpaceOnUse" x1="1285.6191" y1="1281.1316" x2="1560.1329" y2="1281.1316">
				<stop offset="0" style="stop-color:#00BFFF"/>
				<stop offset="1" style="stop-color:#9136D9"/>
			</linearGradient><path d="M 1285.5999755859375 1334 L 1285.5999755859375 1386.800048828125 L 1560.0999755859375 1228.300048828125 L 1560.0999755859375 1175.5 Z" fill="url(#SVGID_30_)" transform="matrix(1, 0, 0, 1, 8.526512829121202e-14, 2.1316282072803006e-14)"/><g transform="matrix(1, 0, 0, 1, 5.684341886080802e-14, 1.4210854715202004e-14)">
			<linearGradient id="SVGID_31_" gradientUnits="userSpaceOnUse" x1="484.9545" y1="1386.7917" x2="896.725" y2="1386.7917">
				<stop offset="0" style="stop-color:#FFFFFF"/>
				<stop offset="1" style="stop-color:#FF5291"/>
			</linearGradient>
			<path d="M 485 1426.4000244140625 L 485 1109.4000244140625 L 896.7000122070312 1347.199951171875 L 896.7000122070312 1664.199951171875 Z" fill="url(#SVGID_31_)"/>
			<linearGradient id="SVGID_32_" gradientUnits="userSpaceOnUse" x1="484.9545" y1="1149.0565" x2="1171.2386" y2="1149.0565">
				<stop offset="0" style="stop-color:#FFFFFF"/>
				<stop offset="1" style="stop-color:#FF5291"/>
			</linearGradient>
			<path d="M 485 1109.4000244140625 L 759.5 950.9000244140625 L 1171.199951171875 1188.699951171875 L 896.7000122070312 1347.199951171875 Z" fill="url(#SVGID_32_)"/>
			<linearGradient id="SVGID_33_" gradientUnits="userSpaceOnUse" x1="896.725" y1="1426.4142" x2="1171.2386" y2="1426.4142">
				<stop offset="0" style="stop-color:#FFFFFF"/>
				<stop offset="1" style="stop-color:#FF5291"/>
			</linearGradient>
			<path d="M 1171.199951171875 1505.699951171875 L 1171.199951171875 1188.699951171875 L 896.7000122070312 1347.199951171875 L 896.7000122070312 1664.199951171875 Z" fill="url(#SVGID_33_)"/>
			<linearGradient id="SVGID_34_" gradientUnits="userSpaceOnUse" x1="530.707" y1="1149.0558" x2="1125.4865" y2="1149.0558">
				<stop offset="0" style="stop-color:#FFFFFF"/>
				<stop offset="1" style="stop-color:#FF5291"/>
			</linearGradient>
			<path d="M 530.7000122070312 1109.4000244140625 L 896.7000122070312 1320.800048828125 L 1125.5 1188.699951171875 L 759.5 977.4000244140625 Z" fill="url(#SVGID_34_)"/>
			<linearGradient id="SVGID_35_" gradientUnits="userSpaceOnUse" x1="530.707" y1="1049.9993" x2="759.4686" y2="1049.9993">
				<stop offset="0" style="stop-color:#FFFFFF"/>
				<stop offset="1" style="stop-color:#FF5291"/>
			</linearGradient>
			<path d="M 530.7000122070312 1109.4000244140625 L 553.5999755859375 1122.5999755859375 L 759.5 1003.7999877929688 L 759.5 977.4000244140625 Z" fill="url(#SVGID_35_)"/>
			<linearGradient id="SVGID_36_" gradientUnits="userSpaceOnUse" x1="759.4686" y1="1089.6221" x2="1125.4866" y2="1089.6221">
				<stop offset="0" style="stop-color:#FFFFFF"/>
				<stop offset="1" style="stop-color:#FF5291"/>
			</linearGradient>
			<path d="M 759.5 977.4000244140625 L 759.5 1003.7999877929688 L 1102.5999755859375 1201.9000244140625 L 1125.5 1188.699951171875 Z" fill="url(#SVGID_36_)"/>
			<linearGradient id="SVGID_37_" gradientUnits="userSpaceOnUse" x1="708.2825" y1="1150.6245" x2="902.1581" y2="1150.6245">
				<stop offset="0" style="stop-color:#63004D"/>
				<stop offset="0.9892" style="stop-color:#FF00FF"/>
			</linearGradient>
			<path fill="url(#SVGID_37_)" d="M890.8,1109.4H719.7h-11.4v26.4c0,14.4,9.4,28.7,28.3,39.6c37.7,21.8,99.5,21.8,137.3,0&#10;&#9;&#9;&#9;&#9;c18.9-10.9,28.3-25.3,28.3-39.6v-26.4H890.8z"/>
			<g>
				<linearGradient id="SVGID_38_" gradientUnits="userSpaceOnUse" x1="708.2825" y1="1109.4332" x2="902.1581" y2="1109.4332">
					<stop offset="0" style="stop-color:#FFFFFF"/>
					<stop offset="1" style="stop-color:#FF5291"/>
				</linearGradient>
				<path fill="url(#SVGID_38_)" d="M736.6,1149.1c-37.7-21.8-37.7-57.5,0-79.2s99.5-21.8,137.3,0s37.7,57.5,0,79.2&#10;&#9;&#9;&#9;&#9;&#9;C836.1,1170.8,774.3,1170.8,736.6,1149.1z"/>
				<linearGradient id="SVGID_39_" gradientUnits="userSpaceOnUse" x1="708.2825" y1="1109.4332" x2="902.1581" y2="1109.4332">
					<stop offset="0" style="stop-color:#FFFFFF"/>
					<stop offset="1" style="stop-color:#FF5291"/>
				</linearGradient>
				<path fill="url(#SVGID_39_)" d="M736.6,1149.1c-37.7-21.8-37.7-57.5,0-79.2s99.5-21.8,137.3,0s37.7,57.5,0,79.2&#10;&#9;&#9;&#9;&#9;&#9;C836.1,1170.8,774.3,1170.8,736.6,1149.1z"/>
			</g>
		</g><linearGradient id="SVGID_40_" gradientUnits="userSpaceOnUse" x1="507.8307" y1="1466.0366" x2="873.8492" y2="1466.0366">
				<stop offset="0" style="stop-color:#00BFFF"/>
				<stop offset="1" style="stop-color:#9136D9"/>
			</linearGradient><path d="M 507.79998779296875 1386.800048828125 L 873.7999877929688 1598.0999755859375 L 873.7999877929688 1545.300048828125 L 507.79998779296875 1334 Z" fill="url(#SVGID_40_)" transform="matrix(1, 0, 0, 1, 8.526512829121202e-14, 2.1316282072803006e-14)"/><linearGradient id="SVGID_41_" gradientUnits="userSpaceOnUse" x1="507.8307" y1="1386.7916" x2="873.8492" y2="1386.7916">
				<stop offset="0" style="stop-color:#00BFFF"/>
				<stop offset="1" style="stop-color:#9136D9"/>
			</linearGradient><path d="M 507.79998779296875 1307.5 L 873.7999877929688 1518.9000244140625 L 873.7999877929688 1466 L 507.79998779296875 1254.699951171875 Z" fill="url(#SVGID_41_)" transform="matrix(1, 0, 0, 1, 8.526512829121202e-14, 2.1316282072803006e-14)"/><linearGradient id="SVGID_42_" gradientUnits="userSpaceOnUse" x1="507.8307" y1="1307.5469" x2="873.8492" y2="1307.5469">
				<stop offset="0" style="stop-color:#00BFFF"/>
				<stop offset="1" style="stop-color:#9136D9"/>
			</linearGradient><path d="M 507.79998779296875 1175.5 L 507.79998779296875 1228.300048828125 L 873.7999877929688 1439.5999755859375 L 873.7999877929688 1386.800048828125 Z" fill="url(#SVGID_42_)" transform="matrix(1, 0, 0, 1, 8.526512829121202e-14, 2.1316282072803006e-14)"/><linearGradient id="SVGID_43_" gradientUnits="userSpaceOnUse" x1="919.6015" y1="1505.6592" x2="1148.363" y2="1505.6592">
				<stop offset="0" style="stop-color:#00BFFF"/>
				<stop offset="1" style="stop-color:#9136D9"/>
			</linearGradient><path d="M 1148.4000244140625 1466 L 1148.4000244140625 1413.199951171875 L 919.5999755859375 1545.300048828125 L 919.5999755859375 1598.0999755859375 L 1148.4000244140625 1466 Z" fill="url(#SVGID_43_)" transform="matrix(1, 0, 0, 1, 8.526512829121202e-14, 2.1316282072803006e-14)"/><linearGradient id="SVGID_44_" gradientUnits="userSpaceOnUse" x1="919.6013" y1="1426.4141" x2="1148.3628" y2="1426.4141">
				<stop offset="0" style="stop-color:#00BFFF"/>
				<stop offset="1" style="stop-color:#9136D9"/>
			</linearGradient><path d="M 1148.4000244140625 1334 L 919.5999755859375 1466 L 919.5999755859375 1518.9000244140625 L 1148.4000244140625 1386.800048828125 Z" fill="url(#SVGID_44_)" transform="matrix(1, 0, 0, 1, 8.526512829121202e-14, 2.1316282072803006e-14)"/><linearGradient id="SVGID_45_" gradientUnits="userSpaceOnUse" x1="919.6013" y1="1347.1692" x2="1148.3628" y2="1347.1692">
				<stop offset="0" style="stop-color:#00BFFF"/>
				<stop offset="1" style="stop-color:#9136D9"/>
			</linearGradient><path d="M 1148.4000244140625 1254.699951171875 L 919.5999755859375 1386.800048828125 L 919.5999755859375 1439.5999755859375 L 1148.4000244140625 1307.5 Z" fill="url(#SVGID_45_)" transform="matrix(1, 0, 0, 1, 8.526512829121202e-14, 2.1316282072803006e-14)"/><linearGradient id="SVGID_46_" gradientUnits="userSpaceOnUse" x1="1354.2466" y1="1479.2445" x2="1674.5146" y2="1479.2445">
			<stop offset="0" style="stop-color:#FFFFFF"/>
			<stop offset="1" style="stop-color:#A34DFF"/>
		</linearGradient><path d="M 1354.199951171875 1505.699951171875 L 1354.199951171875 1267.9000244140625 L 1674.5 1452.800048828125 L 1674.5 1690.5999755859375 Z" fill="url(#SVGID_46_)" transform="matrix(1, 0, 0, 1, 5.684341886080802e-14, 1.4210854715202004e-14)"/><linearGradient id="SVGID_47_" gradientUnits="userSpaceOnUse" x1="1674.5125" y1="1479.2445" x2="1994.7806" y2="1479.2445">
			<stop offset="0" style="stop-color:#FFFFFF"/>
			<stop offset="1" style="stop-color:#A34DFF"/>
		</linearGradient><path d="M 1994.800048828125 1505.699951171875 L 1994.800048828125 1267.9000244140625 L 1674.5 1452.800048828125 L 1674.5 1690.5999755859375 Z" fill="url(#SVGID_47_)" transform="matrix(1, 0, 0, 1, 5.684341886080802e-14, 1.4210854715202004e-14)"/><linearGradient id="SVGID_48_" gradientUnits="userSpaceOnUse" x1="1354.2466" y1="1267.9243" x2="1994.78" y2="1267.9243">
				<stop offset="0" style="stop-color:#FFFFFF"/>
				<stop offset="1" style="stop-color:#A34DFF"/>
			</linearGradient><path d="M 1354.199951171875 1267.9000244140625 L 1674.5 1083 L 1994.800048828125 1267.9000244140625 L 1674.5 1452.800048828125 Z" fill="url(#SVGID_48_)" transform="matrix(1, 0, 0, 1, 8.526512829121202e-14, 2.1316282072803006e-14)"/><linearGradient id="SVGID_49_" gradientUnits="userSpaceOnUse" x1="1399.9977" y1="1267.9244" x2="1949.0288" y2="1267.9244">
				<stop offset="0" style="stop-color:#A34DFF"/>
				<stop offset="1" style="stop-color:#FFFFFF"/>
			</linearGradient><path d="M 1400 1267.9000244140625 L 1674.5 1109.4000244140625 L 1949 1267.9000244140625 L 1674.5 1426.4000244140625 Z" fill="url(#SVGID_49_)" transform="matrix(1, 0, 0, 1, 8.526512829121202e-14, 2.1316282072803006e-14)"/><linearGradient id="SVGID_50_" gradientUnits="userSpaceOnUse" x1="1674.5125" y1="1195.2819" x2="1949.0288" y2="1195.2819">
				<stop offset="0" style="stop-color:#A34DFF"/>
				<stop offset="1" style="stop-color:#FFFFFF"/>
			</linearGradient><path d="M 1674.5 1109.4000244140625 L 1674.5 1109.4000244140625 L 1674.5 1135.800048828125 L 1674.5 1135.800048828125 L 1926.199951171875 1281.0999755859375 L 1949 1267.9000244140625 Z" fill="url(#SVGID_50_)" transform="matrix(1, 0, 0, 1, 8.526512829121202e-14, 2.1316282072803006e-14)"/><linearGradient id="SVGID_51_" gradientUnits="userSpaceOnUse" x1="1399.9976" y1="1195.2822" x2="1674.5125" y2="1195.2822">
				<stop offset="0" style="stop-color:#A34DFF"/>
				<stop offset="1" style="stop-color:#FFFFFF"/>
			</linearGradient><path d="M 1400 1267.9000244140625 L 1422.9000244140625 1281.0999755859375 L 1674.5 1135.800048828125 L 1674.5 1109.4000244140625 Z" fill="url(#SVGID_51_)" transform="matrix(1, 0, 0, 1, 8.526512829121202e-14, 2.1316282072803006e-14)"/><linearGradient id="SVGID_52_" gradientUnits="userSpaceOnUse" x1="1491.504" y1="1518.8678" x2="1674.5146" y2="1518.8678">
				<stop offset="0" style="stop-color:#00BFFF"/>
				<stop offset="1" style="stop-color:#9136D9"/>
			</linearGradient><path d="M 1491.5 1532.0999755859375 L 1491.5 1400 L 1674.5 1505.699951171875 L 1674.5 1637.699951171875 Z" fill="url(#SVGID_52_)" transform="matrix(1, 0, 0, 1, 8.526512829121202e-14, 2.1316282072803006e-14)"/><linearGradient id="SVGID_53_" gradientUnits="userSpaceOnUse" x1="1377.1241" y1="1466.0376" x2="1468.6278" y2="1466.0376">
				<stop offset="0" style="stop-color:#00BFFF"/>
				<stop offset="1" style="stop-color:#9136D9"/>
			</linearGradient><path d="M 1377.0999755859375 1413.199951171875 L 1377.0999755859375 1466 L 1468.5999755859375 1518.9000244140625 L 1468.5999755859375 1466 Z" fill="url(#SVGID_53_)" transform="matrix(1, 0, 0, 1, 8.526512829121202e-14, 2.1316282072803006e-14)"/><linearGradient id="SVGID_54_" gradientUnits="userSpaceOnUse" x1="1377.1241" y1="1386.7927" x2="1468.6278" y2="1386.7927">
				<stop offset="0" style="stop-color:#00BFFF"/>
				<stop offset="1" style="stop-color:#9136D9"/>
			</linearGradient><path d="M 1377.0999755859375 1334 L 1377.0999755859375 1386.800048828125 L 1468.5999755859375 1439.5999755859375 L 1468.5999755859375 1386.800048828125 Z" fill="url(#SVGID_54_)" transform="matrix(1, 0, 0, 1, 8.526512829121202e-14, 2.1316282072803006e-14)"/><linearGradient id="SVGID_55_" gradientUnits="userSpaceOnUse" x1="1674.5146" y1="1518.8678" x2="1857.5254" y2="1518.8678">
				<stop offset="0" style="stop-color:#00BFFF"/>
				<stop offset="1" style="stop-color:#9136D9"/>
			</linearGradient><path d="M 1857.5 1532.0999755859375 L 1857.5 1400 L 1674.5 1505.699951171875 L 1674.5 1637.699951171875 Z" fill="url(#SVGID_55_)" transform="matrix(1, 0, 0, 1, 8.526512829121202e-14, 2.1316282072803006e-14)"/><linearGradient id="SVGID_56_" gradientUnits="userSpaceOnUse" x1="1880.4016" y1="1466.0376" x2="1971.9053" y2="1466.0376">
				<stop offset="0" style="stop-color:#00BFFF"/>
				<stop offset="1" style="stop-color:#9136D9"/>
			</linearGradient><path d="M 1971.9000244140625 1413.199951171875 L 1971.9000244140625 1466 L 1880.4000244140625 1518.9000244140625 L 1880.4000244140625 1466 Z" fill="url(#SVGID_56_)" transform="matrix(1, 0, 0, 1, 8.526512829121202e-14, 2.1316282072803006e-14)"/><linearGradient id="SVGID_57_" gradientUnits="userSpaceOnUse" x1="1880.4016" y1="1386.7927" x2="1971.9053" y2="1386.7927">
				<stop offset="0" style="stop-color:#00BFFF"/>
				<stop offset="1" style="stop-color:#9136D9"/>
			</linearGradient><path d="M 1971.9000244140625 1334 L 1971.9000244140625 1386.800048828125 L 1880.4000244140625 1439.5999755859375 L 1880.4000244140625 1386.800048828125 Z" fill="url(#SVGID_57_)" transform="matrix(1, 0, 0, 1, 8.526512829121202e-14, 2.1316282072803006e-14)"/>
</svg>