<?xml version="1.0" encoding="utf-8"?>
<svg id="master-artboard" viewBox="0 0 442.32672119140625 403.478271484375" version="1.1" xmlns="http://www.w3.org/2000/svg" x="0px" y="0px" enable-background="new 0 0 1400 980" width="442.32672119140625px" height="403.478271484375px"><rect id="ee-background" x="0" y="0" width="442.32672119140625" height="403.478271484375" style="fill: white; fill-opacity: 0; pointer-events: none;"/>

<g transform="matrix(1, 0, 0, 1, -902.5381469726562, -512.9964652061462)">
		<path fill="#3F1C1C" d="M843.6,828.5v-24.1c0-2-0.4-4-1.2-5.9l-22.9-53.7c-2.4-5.5-7.8-9.1-13.8-9.1h-72.6V735&#10;&#9;&#9;&#9;c0-8.2-6.7-14.9-14.9-15c-48.3-0.3-117.2-0.6-165.9-0.6c-5.9,0-11.5,0-16.7,0c-0.4,0-0.9,0-1.3,0.1c-0.4,0-0.8-0.1-1.2-0.1&#10;&#9;&#9;&#9;c0,0-5.9,0-8.6,0c-0.4,0-0.9,0-1.3,0.1c-0.4,0-0.8-0.1-1.2-0.1c0,0,0,0-0.1,0c-26.4,0.1-28.7,0.4-30.1,0.6&#10;&#9;&#9;&#9;c-3.6,0.4-6.9,2.2-9.3,4.8c-3.2,3.6-30.8,36.2-31.9,37.6c-1.9,2.2-3.1,5-3.4,7.9L436.1,864c-0.5,4.3,0.8,8.5,3.7,11.7&#10;&#9;&#9;&#9;c2.8,3.2,6.9,5,11.2,5h14.8c0.4,0,0.9,0,1.3-0.1c0.4,0,0.8,0.1,1.3,0.1h7.4c4.2,16.9,19.5,29.4,37.7,29.4&#10;&#9;&#9;&#9;c12.4,0,23.4-5.8,30.5-14.9c7.1,9.1,18.2,14.9,30.5,14.9c12.3,0,23.3-5.7,30.4-14.7h135.8c7.1,8.9,18.1,14.7,30.4,14.7&#10;&#9;&#9;&#9;c18.2,0,33.5-12.5,37.7-29.4h16.1c3.7,0,7.2-1.3,9.9-3.8l10.5-9.3c3.2-2.8,5.1-6.9,5.1-11.2v-15.3&#10;&#9;&#9;&#9;C850.4,835.9,847.7,831.2,843.6,828.5z"/>
		<path fill="#3F1C1C" d="M85.7,226.2l12,269.8c0.4,8,7,14.3,15,14.3h187c8,0,14.6-6.3,15-14.3l12-269.8c6.9-1.4,12-7.4,12-14.7&#10;&#9;&#9;&#9;v-27.8c0-8.3-6.7-15-15-15h-63.4v-7.3c0-8.3-6.7-15-15-15H167c-8.3,0-15,6.7-15,15v7.3H88.6c-8.3,0-15,6.7-15,15v27.8&#10;&#9;&#9;&#9;C73.6,218.8,78.8,224.8,85.7,226.2z"/>
		<path fill="#3F1C1C" d="M838.8,437.5l-0.5-0.3c-2.2-1.8-5.5-10.5-7.2-15.2c-2.1-5.7-4.3-11.5-7.3-16.5c-4.2-7-11.2-10.9-19.6-10.9&#10;&#9;&#9;&#9;c-3.9,0-7.6,0.8-10.9,1.5c-2.7,0.6-5.2,1.1-7.1,1.1c-0.7,0-1.2-0.1-1.5-0.2c0-0.2,0.1-0.3,0.1-0.5c0.8-3.4,2-8,1.6-13.7&#10;&#9;&#9;&#9;c-1.3-16.5-18-31-35.7-31c-2.8,0-5.5,0.4-8.2,1.1c-6.4,1.7-12.5,2.7-17.3,2.7c-5.2,0-7-1.1-7.2-1.2c-9.5-13.6-33.6-18.6-47.5-18.6&#10;&#9;&#9;&#9;c-6,0-10.9,0.8-14.9,2.5c-5.9,2.5-10.8,7.4-16.4,13.2c-3.7,3.8-11.5,11.6-14.8,12.2c-6.4-2.3-15-3.4-26.1-3.4&#10;&#9;&#9;&#9;c-11.4,0-23.4,1.2-32.3,2c-3.2,0.3-6.1,0.6-8,0.7c-15.4,1-21.3,16-24.9,24.9c-0.8,1.9-1.8,4.5-2.6,6.2c-2.8,0.6-6.8,1.1-10.4,1.4&#10;&#9;&#9;&#9;c-7.1,0.7-13.8,1.5-19.4,4.1c-2.5,1-13.1,4-21.7,6.3c-2.9,0.8-5.7,1.6-8.4,2.3c0.5-2.1,0.6-4.4,0.2-6.6c-0.2-1.1-0.5-4.2,1.5-9.7&#10;&#9;&#9;&#9;c4-10.9,2.7-25.8-4-44.2c-2.2-6-7.9-9.9-14.1-9.9c-1,0-1.9,0.1-2.9,0.3c-7.3,1.4-12.4,8-12.1,15.3c0.2,4.3,0.2,11.9-0.9,24.4&#10;&#9;&#9;&#9;c-1.3,14.6,0.2,25.7,4.6,33.8c0.8,1.5,1.8,2.7,3,3.8c-8.2,2.6-14.3,5-17.9,7.2c-12.5,7.7-12.7,20.9-12.9,27.9c0,0.9,0,2.2-0.1,3.1&#10;&#9;&#9;&#9;c-6.6,7.8-7.3,16.9-7.3,20.7c0,7.6,5.7,14,13.3,14.9c11.5,1.3,113.6,13.1,162.3,13.1c9.4,0,16.5-0.4,21.5-1.3&#10;&#9;&#9;&#9;c20.6-3.6,84.5-4.5,126.8-5.1c22.2-0.3,41.4-0.6,50.8-1.1c25-1.4,71.3-4.8,80.3-5.5c5.3-0.4,9.9-3.5,12.3-8.2&#10;&#9;&#9;&#9;c2.4-4.7,2.1-10.3-0.8-14.8C865.5,453,848.8,443.3,838.8,437.5z"/>
		<path fill="#3F1C1C" d="M619.9,321.2c0,7.7,5.8,14.2,13.5,15c0.5,0.1,1,0.1,1.5,0.1c7.1,0,13.3-5,14.7-12.1&#10;&#9;&#9;&#9;c1.4-7.2,5-18.2,14.1-29.4c16.9-21,16.3-52.4,7.3-71.3c-6.1-12.7-15.8-20.5-27.5-22.1c-0.7-0.1-1.3-0.1-2-0.1&#10;&#9;&#9;&#9;c-5.4,0-10.5,2.9-13.1,7.8c-3,5.4-2.3,12.1,1.6,16.9c4.8,5.7,14.8,21.1,4.3,40.3C622.5,287.7,619.9,308,619.9,321.2z"/>
		<path fill="#3F1C1C" d="M793.8,344.1c0.7,5.9,1.4,11.9,3,18c1.7,6.7,7.7,11.3,14.5,11.3c0.5,0,1,0,1.4-0.1&#10;&#9;&#9;&#9;c7.3-0.7,13.1-6.6,13.5-14c0.7-11.9,1.2-28.6-0.5-41.1c-0.3-2.4-0.7-4.9-1.1-7.4l0-0.2c-2-12.4-4-25.3-0.9-35.1&#10;&#9;&#9;&#9;c2-6.5-0.6-13.6-6.4-17.2c-2.4-1.5-5.2-2.3-7.9-2.3c-3.8,0-7.5,1.4-10.4,4.2c-17,16.3-21.8,36.2-12.8,53.5&#10;&#9;&#9;&#9;C791.4,324,792.6,334.2,793.8,344.1z"/>
		<path fill="#3F1C1C" d="M547.5,303.7c0.4,0.3,0.8,0.6,1.1,0.9c2.8,2.3,6.2,3.4,9.6,3.4c3.2,0,6.4-1,9.1-3.1&#10;&#9;&#9;&#9;c5.5-4.3,7.4-11.8,4.5-18.2c-3.8-8.4-5.4-15.7-4.7-21.7c2.2-18.7-3.8-30-7.7-35.1c-2.9-3.9-7.4-6-12-6c-1.7,0-3.4,0.3-5,0.9&#10;&#9;&#9;&#9;c-6.2,2.2-10.2,8.1-10,14.7c0.2,5.4,0.4,16.3-0.1,29.5C531.5,289.1,539.7,297.5,547.5,303.7z"/>
		<path fill="#3F1C1C" d="M357.8,744.5c-11.4-8.8-23.4-20.8-33.1-31.9c1.2-1.1,2.2-2.3,3.1-3.6c5.3-7.6,5-17.1-0.7-24.9l-2-2.7&#10;&#9;&#9;&#9;c-5.3-7.1-6.3-8.6-7.4-12.7c-0.2-0.7-0.4-1.3-0.6-2c13.3-2.3,23.5-11.7,28.7-16.5l0.1-0.1c0.6-0.6,1.2-1.1,1.6-1.5&#10;&#9;&#9;&#9;c5.1-4.4,7.2-11.3,5.5-18c-2-7.6-8.6-13.7-16.4-15.3c-1.3-0.2-2.5-0.4-3.8-0.4c-6,0-11.6,2.8-15.4,7.8l-1,1.4&#10;&#9;&#9;&#9;c-1.9,2.5-5.1,6.7-6.7,7.6c-0.6,0-1.2-0.1-1.9-0.2c3-4,5.9-8.2,8.4-12.3c11-18.1,12.3-32.4,4.1-42.3c-6.3-7.7-14.7-11.6-25-11.6&#10;&#9;&#9;&#9;c-6.7,0-13.4,1.6-20.6,3.4c-6,1.5-12.2,3-18.9,3.6c-9.6,1-16.3,2.6-21.6,4c-4.4,1.1-7.4,1.8-10.3,1.8c-1.8,0-4.8-0.2-10.6-2.3&#10;&#9;&#9;&#9;c-11-3.9-20.8-5.8-29.2-5.8c-15.1,0-23.6,6.3-28.1,11.5c-6.8,7.9-7.9,18.9-3.2,30.3c3.1,7.5,8.7,15,15.8,21.3&#10;&#9;&#9;&#9;c2.7,2.4,4.8,4.7,6.4,6.8c-3,5.9-4.3,13.1,1.3,21.3c0.1,0.1,0.1,0.2,0.2,0.3c0.5,1.2,1.1,2.3,1.8,3.3c-3.9,2.4-10.9,6-15.5,8.3&#10;&#9;&#9;&#9;c-20.5,10.5-34.4,18.1-40.8,28.9c-7.8,13-12.6,18.6-26.3,25.8c-1.3,0.7-2.5,1.3-3.8,2c-16,8.3-38,19.6-38.5,47.8&#10;&#9;&#9;&#9;c-0.1,6-2.4,10.6-5.3,16.5c-5,10.2-11.3,22.9-6.4,43.6l0.6,2.6c6.1,26.1,10.9,46.7,46.4,58.1c24.4,7.8,47.5,11.7,68.8,11.7&#10;&#9;&#9;&#9;c12.1,0,23.7-1.3,34.6-3.8c4.2-1,9.3-1.5,15.4-1.5c9.4,0,20,1.2,30.3,2.3c11.1,1.2,22.6,2.5,33.7,2.5c0,0,0,0,0,0&#10;&#9;&#9;&#9;c14.9,0,26.8-2.3,36.5-7.2c9-4.5,19.3-6.2,30.2-8.1c10.7-1.8,20.8-3.6,29.8-8c12.1-6.1,19.3-16,21.4-29.5&#10;&#9;&#9;&#9;C394.6,824,386.4,766.6,357.8,744.5z"/>
		<path fill="#3F1C1C" d="M934.9,265.8L948.4,453c0.6,7.7,6.9,13.7,14.7,13.9c-0.6,2.6-1,5.4-1,8.2c0,19.8,16.1,35.8,35.8,35.8&#10;&#9;&#9;&#9;s35.8-16.1,35.8-35.8c0-2.8-0.3-5.5-0.9-8.2h2c0.4,0,0.7,0,1.1-0.1c0.4,0,0.8,0.1,1.2,0.1h155.1c0.4,0,0.8,0,1.2-0.1&#10;&#9;&#9;&#9;c0.4,0,0.7,0.1,1.1,0.1h10.6c-0.6,2.6-0.9,5.4-0.9,8.2c0,19.8,16.1,35.8,35.8,35.8c19.8,0,35.8-16.1,35.8-35.8c0-3-0.4-6-1.1-8.8&#10;&#9;&#9;&#9;c5.8-1.8,10.2-6.9,10.6-13.3l13.5-187.2c5.7-2.1,9.7-7.6,9.7-14v-17c0-8.3-6.7-15-15-15h-3.3l-2-7.9c-1.7-6.7-7.7-11.4-14.6-11.4&#10;&#9;&#9;&#9;h-82.7l-1-4.4c-1.5-6.9-7.6-11.8-14.7-11.8h-117.5c-7.1,0-13.2,4.9-14.7,11.8l-1,4.4H960c-6.9,0-12.9,4.7-14.6,11.4l-2,7.9h-3.3&#10;&#9;&#9;&#9;c-8.3,0-15,6.7-15,15v17C925.1,258.2,929.2,263.7,934.9,265.8z"/>
		<path fill="#3F1C1C" d="M1326.8,567.1c-0.8-22.5-15-36.4-37-36.4c-23,0-54.9,17.2-61.6,39.4c-6.1,20.4-9.5,22.6-20.4,22.6&#10;&#9;&#9;&#9;c-4,0-8.7-0.5-14.3-1.7c-3.9-0.8-7.6-1.2-11.1-1.2c-13.9,0-21.9,6.3-26.1,11.6c-7.6,9.5-8.4,21.9-7.5,31.1h-2.4&#10;&#9;&#9;&#9;c1.7-7.9,0.5-15.8-3.6-22.7c-8.1-13.5-27.3-22.3-48.9-22.3c-20.3,0-37.7,7.6-47.6,20.8c-12,16-15.5,16-20.9,16&#10;&#9;&#9;&#9;c-3.1,0-7.1-0.4-11.8-0.8c-5.4-0.5-11.5-1.1-19.1-1.4c-1,0-2-0.1-3.1-0.1c-18,0-28.2,7.4-33.6,13.6c-9,10.3-10.2,23.3-10.1,30.1&#10;&#9;&#9;&#9;c0,0.2,0,0.4,0,0.6c-8,0.4-14.3,6.9-14.3,15v148.4c-6.9,1.4-12.1,7.4-12.1,14.7v50.7c0,8.3,6.7,15,15,15h20.2c0.4,0,0.8,0,1.2-0.1&#10;&#9;&#9;&#9;c0.4,0,0.7,0.1,1.1,0.1h25c0.4,0,0.7,0,1.1-0.1c0.4,0,0.8,0.1,1.2,0.1h22.6c0.4,0,0.8,0,1.2-0.1c0.4,0,0.8,0.1,1.2,0.1h51.5&#10;&#9;&#9;&#9;c0.4,0,0.8,0,1.2-0.1c0.4,0,0.8,0.1,1.2,0.1h141.5c0.4,0,0.8,0,1.2-0.1c0.4,0,0.8,0.1,1.2,0.1h65.2c8.3,0,15-6.7,15-15v-123&#10;&#9;&#9;&#9;c0-8.3-6.7-15-15-15h-52.5v-18c0-8.3-6.7-15-15-15h-2.6l-0.8-15.7c0-0.4-0.1-0.8-0.1-1.2c0-0.4,0-0.8,0-1.1l-1-19.2&#10;&#9;&#9;&#9;c0-0.4-0.1-0.8-0.1-1.2c0-0.4,0-0.8,0-1.1l-1-18.6c0-0.4-0.1-0.8-0.1-1.2c0-0.4,0-0.8,0-1.1l-0.9-17c-0.2-3.4-1.5-6.4-3.5-8.8&#10;&#9;&#9;&#9;c4.1,0.6,8.3,1.8,12.4,3.5c8.9,3.7,16.7,5.6,23.6,5.6c23.8,0,33.8-20.1,39.8-37.6c1.3-3.7,1.9-5.6,12.9-5.6c1,0,2,0,2.9,0l0.2,0&#10;&#9;&#9;&#9;c1.1,0,2.2,0,3.3,0c6.4,0,18.3,0,26.8-8.9C1324.5,588.7,1327.3,579.6,1326.8,567.1z M1079.9,658.9c4,0,8.1,1.4,12.9,2.9&#10;&#9;&#9;&#9;c5.3,1.7,11.4,3.7,17.9,3.7c5.5,0,10.5-1.3,15.1-4l-0.1,2.2c0,0.4,0,0.8,0,1.1c-0.1,0.4-0.1,0.8-0.1,1.2l-1,18.6&#10;&#9;&#9;&#9;c0,0.4,0,0.8,0,1.1c-0.1,0.4-0.1,0.8-0.1,1.2l-1,19.2c0,0.4,0,0.8,0,1.1c-0.1,0.4-0.1,0.8-0.1,1.2l-0.8,15.7H1065&#10;&#9;&#9;&#9;c-8.3,0-15,6.7-15,15v49.3h-38.8c-5.1,0-9.5,2.5-12.2,6.3V681.3c0-4.9-2.3-9.2-5.9-11.9c7.2,1.4,16,4.6,25.9,8.2l0.9,0.3&#10;&#9;&#9;&#9;c6.8,2.5,12.7,3.7,17.8,3.7c13.2,0,20.2-7.7,24.8-12.8c3.6-4,6.4-7.1,12.9-9.2C1076.8,659.1,1078.3,658.9,1079.9,658.9z"/>
	</g><path fill="#FFFFFF" d="M1338.8,554.6c-0.8-22.5-15-36.4-37-36.4c-23,0-54.9,17.2-61.6,39.4c-6.1,20.4-9.5,22.6-20.4,22.6&#10;&#9;&#9;&#9;c-4,0-8.7-0.5-14.3-1.7c-3.9-0.8-7.6-1.2-11.1-1.2c-13.9,0-21.9,6.3-26.1,11.6c-7.6,9.5-8.4,21.9-7.5,31.1h-2.4&#10;&#9;&#9;&#9;c1.7-7.9,0.5-15.8-3.6-22.7c-8.1-13.5-27.3-22.3-48.9-22.3c-20.3,0-37.7,7.6-47.6,20.8c-12,16-15.5,16-20.9,16&#10;&#9;&#9;&#9;c-3.1,0-7.1-0.4-11.8-0.8c-5.4-0.5-11.5-1.1-19.1-1.4c-1,0-2-0.1-3.1-0.1c-18,0-28.2,7.4-33.6,13.6c-9,10.3-10.2,23.3-10.1,30.1&#10;&#9;&#9;&#9;c0,0.2,0,0.4,0,0.6c-8,0.4-14.3,6.9-14.3,15v148.4c-6.9,1.4-12.1,7.4-12.1,14.7v50.7c0,8.3,6.7,15,15,15h20.2c0.4,0,0.8,0,1.2-0.1&#10;&#9;&#9;&#9;c0.4,0,0.7,0.1,1.1,0.1h25c0.4,0,0.7,0,1.1-0.1c0.4,0,0.8,0.1,1.2,0.1h22.6c0.4,0,0.8,0,1.2-0.1c0.4,0,0.8,0.1,1.2,0.1h51.5&#10;&#9;&#9;&#9;c0.4,0,0.8,0,1.2-0.1c0.4,0,0.8,0.1,1.2,0.1h141.5c0.4,0,0.8,0,1.2-0.1c0.4,0,0.8,0.1,1.2,0.1h65.2c8.3,0,15-6.7,15-15v-123&#10;&#9;&#9;&#9;c0-8.3-6.7-15-15-15h-52.5v-18c0-8.3-6.7-15-15-15h-2.6l-0.8-15.7c0-0.4-0.1-0.8-0.1-1.2c0-0.4,0-0.8,0-1.1l-1-19.2&#10;&#9;&#9;&#9;c0-0.4-0.1-0.8-0.1-1.2c0-0.4,0-0.8,0-1.1l-1-18.6c0-0.4-0.1-0.8-0.1-1.2c0-0.4,0-0.8,0-1.1l-0.9-17c-0.2-3.4-1.5-6.4-3.5-8.8&#10;&#9;&#9;&#9;c4.1,0.6,8.3,1.8,12.4,3.5c8.9,3.7,16.7,5.6,23.6,5.6c23.8,0,33.8-20.1,39.8-37.6c1.3-3.7,1.9-5.6,12.9-5.6c1,0,2,0,2.9,0l0.2,0&#10;&#9;&#9;&#9;c1.1,0,2.2,0,3.3,0c6.4,0,18.3,0,26.8-8.9C1336.5,576.2,1339.3,567.1,1338.8,554.6z M1091.9,646.4c4,0,8.1,1.4,12.9,2.9&#10;&#9;&#9;&#9;c5.3,1.7,11.4,3.7,17.9,3.7c5.5,0,10.5-1.3,15.1-4l-0.1,2.2c0,0.4,0,0.8,0,1.1c-0.1,0.4-0.1,0.8-0.1,1.2l-1,18.6&#10;&#9;&#9;&#9;c0,0.4,0,0.8,0,1.1c-0.1,0.4-0.1,0.8-0.1,1.2l-1,19.2c0,0.4,0,0.8,0,1.1c-0.1,0.4-0.1,0.8-0.1,1.2l-0.8,15.7H1077&#10;&#9;&#9;&#9;c-8.3,0-15,6.7-15,15V776h-38.8c-5.1,0-9.5,2.5-12.2,6.3V668.8c0-4.9-2.3-9.2-5.9-11.9c7.2,1.4,16,4.6,25.9,8.2l0.9,0.3&#10;&#9;&#9;&#9;c6.8,2.5,12.7,3.7,17.8,3.7c13.2,0,20.2-7.7,24.8-12.8c3.6-4,6.4-7.1,12.9-9.2C1088.8,646.6,1090.3,646.4,1091.9,646.4z" transform="matrix(1, 0, 0, 1, -902.5381469726562, -512.9964652061462)"/><path d="M 1033.599976 838 H 1064.199976 V 854.200001 H 1033.599976 V 838 Z" fill="#FFFBCE" transform="matrix(1, 0, 0, 1, -902.5381469726562, -512.9964652061462)"/><path d="M 960.5 668.799988 H 995.900002 V 829.599991 H 960.5 V 668.799988 Z" fill="#579835" transform="matrix(1, 0, 0, 1, -902.5381469726562, -512.9964652061462)"/><path d="M 970.900024 858.5 H 995.900024 V 882.700001 H 970.900024 V 858.5 Z" fill="#FFFBCE" transform="matrix(1, 0, 0, 1, -902.5381469726562, -512.9964652061462)"/><path d="M 1033.599976 805.799988 H 1064.199976 V 821.999989 H 1033.599976 V 805.799988 Z" fill="#FFFBCE" transform="matrix(1, 0, 0, 1, -902.5381469726562, -512.9964652061462)"/><path fill="#FFD400" d="M959.3,831.9h-10.9v50.7h20.2v-25.4c0-0.6,0.5-1.2,1.2-1.2h27.3c0.6,0,1.2,0.5,1.2,1.2v25.4h22.6v-50.7&#10;&#9;&#9;&#9;h-23.8H959.3z" transform="matrix(1, 0, 0, 1, -902.5381469726562, -512.9964652061462)"/><path fill="#D1D3D4" d="M998.2,641.1c10.6,0,23.2,4.6,37.8,9.8l0.8,0.3c5.2,1.9,9.4,2.8,12.7,2.8c6.6,0,9.7-3.5,13.6-7.8&#10;&#9;&#9;&#9;c4.1-4.5,9.1-10.1,19.5-13.4c3-1,6-1.4,9.2-1.4c6.4,0,12.1,1.9,17.6,3.7c4.7,1.5,9.1,3,13.3,3c4.9,0,11.5-1.7,18.7-15.1&#10;&#9;&#9;&#9;c3.5-6.5,3.6-12.5,0.4-17.9c-5.4-9-19.8-15-36-15c-15.5,0-28.5,5.4-35.6,14.8c-12.8,17.1-20.2,22-32.9,22c-3.8,0-8.2-0.4-13.2-0.9&#10;&#9;&#9;&#9;c-5.2-0.5-11.2-1-18.4-1.4c-0.8,0-1.6-0.1-2.4-0.1c-9.9,0-17.4,2.8-22.3,8.4c-5.7,6.6-6.5,15.4-6.4,20.1&#10;&#9;&#9;&#9;C981,644.9,988.6,641.1,998.2,641.1z" transform="matrix(1, 0, 0, 1, -902.5381469726562, -512.9964652061462)"/><path fill="#D1D3D4" d="M1301.8,533.2c-18.8,0-43,14.7-47.2,28.7c-5.9,19.5-11.8,33.3-34.8,33.3c-5,0-10.6-0.6-17.2-2&#10;&#9;&#9;&#9;c-2.9-0.6-5.7-0.9-8.1-0.9c-6.4,0-11.3,2-14.4,5.9c-5,6.3-4.8,16.1-4.2,21.4c4.2-5.9,14.1-9.7,26-9.7c8.1,0,16.6,1.8,24.7,5.2&#10;&#9;&#9;&#9;c7.1,3,12.9,4.4,17.8,4.4c11.5,0,18.9-8,25.7-27.5c5-14.5,16.6-15.7,27.1-15.7c1.1,0,2.2,0,3.3,0c1.1,0,2.1,0,3.2,0&#10;&#9;&#9;&#9;c6,0,12.2-0.3,16-4.3c3.1-3.3,4.5-8.8,4.2-17C1323.1,537,1311.5,533.2,1301.8,533.2z" transform="matrix(1, 0, 0, 1, -902.5381469726562, -512.9964652061462)"/><path fill="#FFD400" d="M1202.8,726.7h-55H1077v63.1v92.9h141.5V758.5v-31.8H1202.8L1202.8,726.7z M1134.8,845&#10;&#9;&#9;&#9;c-0.2,0.2-0.5,0.4-0.8,0.4c0,0,0,0-0.1,0l-21.8-1c0,0,0,0-0.1,0c-0.1,0-0.1,0-0.2,0c0,0-0.1,0-0.2-0.1c0,0,0,0,0,0&#10;&#9;&#9;&#9;c-2.5-0.9-8.6-7.5-10.9-12.4c-1-2.2-1.3-3.9-0.7-5.1c1.5-3.4,8.6-14.9,10.8-18.4l-6.3-3.9c-0.4-0.2-0.6-0.7-0.5-1.2&#10;&#9;&#9;&#9;c0.1-0.5,0.4-0.8,0.9-0.9l23.5-5.2c0.6-0.1,1.2,0.3,1.4,0.9l5.1,22.9c0.1,0.1,0.1,0.3,0.1,0.5c0,0.6-0.5,1.2-1.2,1.2c0,0,0,0,0,0&#10;&#9;&#9;&#9;c-0.2,0-0.5-0.1-0.7-0.2l-6.3-4.3c-1.6,1.8-5.6,6.6-9,10.9c5.1-0.7,14.2-2.5,14.3-2.5c0.3-0.1,0.7,0,0.9,0.2&#10;&#9;&#9;&#9;c0.3,0.2,0.4,0.5,0.5,0.8l1.6,16.8C1135.1,844.5,1135,844.8,1134.8,845z M1148.7,791c-0.1-0.5,0.2-0.9,0.6-1.2l6.7-3.6&#10;&#9;&#9;&#9;c-0.9-2.2-3.3-7.9-5.6-12.9c-1.7,4.9-4.2,13.8-4.3,13.9c-0.1,0.3-0.3,0.6-0.6,0.7c-0.2,0.1-0.3,0.1-0.5,0.1c-0.1,0-0.3,0-0.4-0.1&#10;&#9;&#9;&#9;l-15.6-6.2c-0.3-0.1-0.6-0.4-0.7-0.7c-0.1-0.3-0.1-0.7,0.1-1l10.8-19c0,0,0,0,0.1-0.1c0,0,0.1-0.1,0.1-0.1c0,0,0.1-0.1,0.1-0.1&#10;&#9;&#9;&#9;c0,0,0,0,0,0c2-1.8,10.4-4.1,15.5-4.1c2.7,0,4.5,0.6,5.4,1.7c2.4,2.9,9.3,14.4,11.5,18l6.3-3.9c0.4-0.2,0.9-0.2,1.3,0.1&#10;&#9;&#9;&#9;c0.4,0.3,0.6,0.8,0.4,1.2l-6.1,23.3c-0.1,0.5-0.6,0.9-1.1,0.9c-0.1,0-0.2,0-0.3,0l-23-5.9C1149.1,791.9,1148.7,791.5,1148.7,791z&#10;&#9;&#9;&#9; M1193.6,839.7c-1.3,2-2.6,3.1-3.9,3.4c-3.7,0.6-17.2,0.9-21.3,0.9l0.2,7.4c0,0.5-0.3,0.9-0.7,1.1c-0.1,0.1-0.3,0.1-0.5,0.1&#10;&#9;&#9;&#9;c-0.3,0-0.6-0.1-0.8-0.3l-17.1-16.9c-0.5-0.5-0.5-1.2,0-1.6l16.6-16.9c0.3-0.3,0.8-0.4,1.3-0.3c0.4,0.2,0.7,0.6,0.7,1.1l-0.2,7.7&#10;&#9;&#9;&#9;c2.4,0.3,8.5,1.1,14,1.6c-3.4-3.9-9.8-10.6-9.9-10.7c-0.2-0.2-0.3-0.6-0.3-0.9c0-0.3,0.2-0.6,0.4-0.8l13.2-10.4&#10;&#9;&#9;&#9;c0.3-0.2,0.6-0.3,0.9-0.2c0.3,0.1,0.6,0.3,0.8,0.6l11,18.9c0,0,0,0.1,0,0.1c0,0,0.1,0.1,0.1,0.1c0,0,0,0.1,0,0.2c0,0,0,0,0,0&#10;&#9;&#9;&#9;C1198.7,826.5,1196.5,835.1,1193.6,839.7z" transform="matrix(1, 0, 0, 1, -902.5381469726562, -512.9964652061462)"/><path fill="#FAA819" d="M1220.9,882.7h65.2v-123h-65.2V882.7z M1234.6,776.1c0-0.6,0.5-1.2,1.2-1.2h35.4c0.6,0,1.2,0.5,1.2,1.2&#10;&#9;&#9;&#9;v19.3c0,0.6-0.5,1.2-1.2,1.2h-35.4c-0.6,0-1.2-0.5-1.2-1.2V776.1z M1234.6,806.7c0-0.6,0.5-1.2,1.2-1.2h35.4&#10;&#9;&#9;&#9;c0.6,0,1.2,0.5,1.2,1.2V826c0,0.6-0.5,1.2-1.2,1.2h-35.4c-0.6,0-1.2-0.5-1.2-1.2V806.7z M1234.6,837.2c0-0.6,0.5-1.2,1.2-1.2h35.4&#10;&#9;&#9;&#9;c0.6,0,1.2,0.5,1.2,1.2v19.3c0,0.6-0.5,1.2-1.2,1.2h-35.4c-0.6,0-1.2-0.5-1.2-1.2V837.2z" transform="matrix(1, 0, 0, 1, -902.5381469726562, -512.9964652061462)"/><path d="M 1236.900024 777.299988 H 1269.900024 V 794.299988 H 1236.900024 V 777.299988 Z" fill="#FFFBCE" transform="matrix(1, 0, 0, 1, -902.5381469726562, -512.9964652061462)"/><path d="M 1236.900024 838.400024 H 1269.900024 V 855.400024 H 1236.900024 V 838.400024 Z" fill="#FFFBCE" transform="matrix(1, 0, 0, 1, -902.5381469726562, -512.9964652061462)"/><path d="M 1236.900024 807.799988 H 1269.900024 V 824.799988 H 1236.900024 V 807.799988 Z" fill="#FFFBCE" transform="matrix(1, 0, 0, 1, -902.5381469726562, -512.9964652061462)"/><path fill="#65C294" d="M1174.5,815.6c2.3,2.4,8.5,8.9,10.6,11.6c2.3,0.2,4.2,0.3,5.4,0.2c3.4-0.2,4.7-2.4,5.1-3.3l-10-17.3&#10;&#9;&#9;&#9;L1174.5,815.6z" transform="matrix(1, 0, 0, 1, -902.5381469726562, -512.9964652061462)"/><path fill="#65C294" d="M1141.6,762.7c-0.2,0-0.4,0-0.5,0l-9.9,17.3l13.2,5.3c0.9-3.2,3.5-11.8,4.8-15c-1-2.1-1.9-3.8-2.6-4.8&#10;&#9;&#9;&#9;C1144.9,763.2,1142.9,762.7,1141.6,762.7z" transform="matrix(1, 0, 0, 1, -902.5381469726562, -512.9964652061462)"/><path d="M 1200.199951171875 696.7999877929688 L 1150.5 696.7999877929688 L 1149.5999755859375 713.5999755859375 L 1201 713.5999755859375 Z" fill="#65C294" transform="matrix(1, 0, 0, 1, -902.5381469726562, -512.9964652061462)"/><path fill="#65C294" d="M1115.8,831.5c-1.4,1.8-2.5,3.4-3.1,4.5c-1.7,3-0.5,5.3,0,6.1l19.9,0.9l-1.3-14.1&#10;&#9;&#9;&#9;C1128,829.5,1119.2,831.2,1115.8,831.5z" transform="matrix(1, 0, 0, 1, -902.5381469726562, -512.9964652061462)"/><path fill="#65C294" d="M1177,776l-4.9,3c-0.3,0.2-0.6,0.2-0.9,0.1c-0.3-0.1-0.6-0.3-0.7-0.5c-0.1-0.2-9.2-15.4-11.9-18.7&#10;&#9;&#9;&#9;c-0.2-0.3-1-0.9-3.6-0.9c-3.4,0-7.7,1-10.6,1.9c1.3,0.5,2.7,1.5,3.9,3.3c2.9,4.4,9.9,21.3,10.2,22.1c0.2,0.5,0,1.2-0.5,1.5&#10;&#9;&#9;&#9;l-5.1,2.7l19,4.9L1177,776z" transform="matrix(1, 0, 0, 1, -902.5381469726562, -512.9964652061462)"/><path fill="#65C294" d="M1127.2,815.5l4.7,3.3l-4.3-19.1l-19.6,4.3l4.9,3c0.3,0.2,0.5,0.4,0.5,0.7c0.1,0.3,0,0.6-0.1,0.9&#10;&#9;&#9;&#9;c-0.1,0.2-9.5,15.3-11.2,19.1c-0.1,0.3-0.3,1.1,0.7,3.2c1.5,3.1,4.4,6.6,6.7,8.9c-0.1-1.4,0.1-3.1,1.1-5&#10;&#9;&#9;&#9;c2.6-4.6,14.5-18.5,15-19.1C1126.1,815.3,1126.7,815.2,1127.2,815.5z" transform="matrix(1, 0, 0, 1, -902.5381469726562, -512.9964652061462)"/><path d="M 1196.9000244140625 635.0999755859375 L 1153.699951171875 635.0999755859375 L 1152.800048828125 652 L 1197.800048828125 652 Z" fill="#00B274" transform="matrix(1, 0, 0, 1, -902.5381469726562, -512.9964652061462)"/><path fill="#65C294" d="M1184.5,829.5C1184.5,829.5,1184.5,829.5,1184.5,829.5C1184.5,829.5,1184.5,829.5,1184.5,829.5&#10;&#9;&#9;&#9;c-7.3-0.6-17.4-2-18-2c-0.6-0.1-1-0.6-1-1.2l0.2-5.7l-13.7,14l14.3,14.1l-0.1-5.7c0-0.3,0.1-0.6,0.3-0.8c0.2-0.2,0.5-0.4,0.8-0.4&#10;&#9;&#9;&#9;c0.2,0,18-0.3,22.1-0.9c0.3,0,1.1-0.4,2.3-2.3c1.8-2.9,3.2-7.3,3.8-10.5c-1.1,0.9-2.7,1.6-4.8,1.7&#10;&#9;&#9;&#9;C1189.4,829.8,1187.1,829.7,1184.5,829.5z" transform="matrix(1, 0, 0, 1, -902.5381469726562, -512.9964652061462)"/><path fill="#FAA819" d="M1023.2,830.8v51.9h51.5V791h-51.5V830.8z M1031.3,804.7c0-0.6,0.5-1.2,1.2-1.2h32.9&#10;&#9;&#9;&#9;c0.6,0,1.2,0.5,1.2,1.2v18.5c0,0.6-0.5,1.2-1.2,1.2h-32.9c-0.6,0-1.2-0.5-1.2-1.2V804.7z M1031.3,836.8c0-0.6,0.5-1.2,1.2-1.2&#10;&#9;&#9;&#9;h32.9c0.6,0,1.2,0.5,1.2,1.2v18.5c0,0.6-0.5,1.2-1.2,1.2h-32.9c-0.6,0-1.2-0.5-1.2-1.2V836.8z" transform="matrix(1, 0, 0, 1, -902.5381469726562, -512.9964652061462)"/><path d="M 1197.9000244140625 654.4000244140625 L 1152.699951171875 654.4000244140625 L 1151.699951171875 672.9000244140625 L 1198.9000244140625 672.9000244140625 Z" fill="#65C294" transform="matrix(1, 0, 0, 1, -902.5381469726562, -512.9964652061462)"/><path d="M 1199 675.2999877929688 L 1151.5999755859375 675.2999877929688 L 1150.5999755859375 694.4000244140625 L 1200 694.4000244140625 Z" fill="#00B274" transform="matrix(1, 0, 0, 1, -902.5381469726562, -512.9964652061462)"/><path d="M 1201.199951171875 715.9000244140625 L 1149.5 715.9000244140625 L 1149 724.2999877929688 L 1201.5999755859375 724.2999877929688 Z" fill="#00B274" transform="matrix(1, 0, 0, 1, -902.5381469726562, -512.9964652061462)"/>

</svg>