<?xml version="1.0" encoding="utf-8"?>
<!-- Generator: Adobe Illustrator 23.0.2, SVG Export Plug-In . SVG Version: 6.00 Build 0)  -->
<svg version="1.1" id="Layer_1" xmlns="http://www.w3.org/2000/svg" xmlns:xlink="http://www.w3.org/1999/xlink" x="0px" y="0px"
	 viewBox="0 0 433.4101 253.5674" enable-background="new 0 0 433.4101 253.5674" xml:space="preserve">
<g>
	<path d="M170.5185,82.0898c-0.3525,1.0049-0.6425,2.044-0.8544,3.1192c-2.4083,12.1904,5.5214,24.0264,17.7109,26.4355
		c12.1914,2.4082,24.0273-5.5215,26.4355-17.7119c0.2119-1.0742,0.3399-2.1455,0.3955-3.208L170.5185,82.0898z"/>
	<path d="M136.7891,99.1318c-19.3672,8.8223-29.9444,16.7334-44.3741,33.795l40.044,11.9384
		c1.248-0.9111,2.5058-1.7949,3.7656-2.6631c-1.2441-3.5732-1.8945-7.2871-1.874-10.9541
		c0.0107-5.5097,1.332-11.0097,3.9297-16.3457c1.748-3.5605,3.4863-5.8671,4.1513-6.6933c1.92-2.3428,4.7412-3.6787,7.7549-3.6787
		c2.2979,0,4.5459,0.8047,6.3291,2.2627c4.2197,3.4541,4.8799,9.7138,1.4795,13.9726l-0.0146,0.0254l-0.0489,0.0645
		c-0.0713,0.0927-0.1914,0.2597-0.3476,0.4961c-0.2686,0.3964-0.792,1.2226-1.3369,2.3339
		c-0.6661,1.3565-1.7373,3.9854-1.8702,6.9258c0.5391-0.334,1.083-0.6709,1.6016-0.9961
		c9.2266-4.7109,15.3516-15.5957,11.0664-23.2793C162.7598,98.6523,150.9141,92.791,136.7891,99.1318z"/>
	<path d="M89.3047,138.1982c-4.7686,10.5166,0.6924,18.1348,6.1719,23.835c1.6367,1.7022,3.0839,3.1162,4.496,4.1084
		c0.4766,0.5693,0.959,1.2002,1.4151,1.8877c1.7588,2.6592,3.0801,5.7803,3.0849,9.6328
		c-0.0234,3.1885-0.8339,7.2461-4.2714,12.8848c-3.4366,5.6035-9.6348,12.6396-20.0782,20.6572
		c-5.4746,4.2061-6.5029,12.0547-2.2949,17.5293c2.4619,3.2031,6.1699,4.8838,9.9199,4.8838c2.6582,0,5.3379-0.8447,7.6094-2.5899
		c12.1983-9.3818,20.6152-18.4257,26.1367-27.3779c4.7373-7.6553,7.2325-15.3486,7.8311-22.499l12.75,6.4951l17.1933,38.0049
		c2.0889,4.6191,6.6377,7.3525,11.3975,7.3525c1.7227,0.001,3.4717-0.3574,5.1436-1.1133c6.289-2.8457,9.082-10.2509,6.2363-16.541
		l-18.999-42.0019c-1.169-2.584-3.1885-4.6992-5.7159-5.9863l-32.4453-16.5293c0.5879-0.502,1.1778-1.002,1.7784-1.4932
		L89.3047,138.1982z"/>
	<path d="M223.9043,72.1553l-8.4981-1.2959c-2.7519-7.1797-9.0166-12.8321-17.1171-14.4326
		c-11.669-2.3057-23.0176,4.6044-26.5245,15.6806c-0.2002,0.6319-0.372,1.2783-0.5195,1.9365l-0.4092-0.081
		c-1.6347-0.3223-3.2226,0.7412-3.5449,2.375c-0.3242,1.6367,0.7383,3.2226,2.3731,3.5459l46.1718,9.124
		c1.6348,0.3233,3.2227-0.7402,3.5449-2.376c0.3243-1.6347-0.7382-3.2226-2.375-3.5439l-0.4101-0.0811
		c0.0469-0.2734,0.0918-0.5459,0.1279-0.8183l3.418,0.5205l2.1045,0.3213L223.9043,72.1553z"/>
	
		<rect x="226.7899" y="58.9983" transform="matrix(0.9894 -0.1452 0.1452 0.9894 -5.3595 46.5649)" width="179.0671" height="2.0016"/>
	
		<rect x="307.4076" y="25.2449" transform="matrix(0.3324 -0.9431 0.9431 0.3324 99.0905 366.4812)" width="1.9992" height="176.0073"/>
	<polygon points="66.582,131.4238 88.2109,137.8721 90.7617,132.4336 68.2793,125.7305 	"/>
	<path d="M138.0635,146.5371l-4.3662-1.3017l-5.7852,4.4736l15.3818,4.5859c-0.7861-0.916-1.5254-1.8457-2.208-2.7939
		C139.9385,149.918,138.9307,148.2549,138.0635,146.5371z"/>
	<path d="M177.4805,164.4883l38.2773,11.4121c0.0586,1.2256,0.4336,2.4014,1.0723,3.4199
		c-6.3379,19.1348-14.7735,34.6006-22.4297,42.0967c10.4804-1.6631,22.875-17.3486,30.5937-39.1065
		c2.1504-0.6894,3.9356-2.3945,4.6289-4.7226l0.3575-1.1992c0.6953-2.3291,0.1347-4.7325-1.2891-6.4893
		c5.457-22.4307,3.6777-42.3418-4.1816-49.4717c2.3007,10.4639,0.8906,28.0244-4.2852,47.5049
		c-1.0898,0.5039-2.0488,1.2813-2.7695,2.2744l-39.3438-11.7304C178.5332,160.498,178.3154,162.5811,177.4805,164.4883z"/>
	<path d="M156.3906,119.5742c0.0117-0.0137,0.0176-0.0224,0.0205-0.0263c2.7539-3.418,2.2383-8.4239-1.164-11.2081
		c-3.419-2.7988-8.458-2.2949-11.2549,1.1241h-0.003c-0.2763,0.3427-2.0771,2.5761-3.9111,6.3144
		c-1.8164,3.7315-3.7148,9.0391-3.7285,15.4805c-0.0313,5.9082,1.7627,12.7373,6.3584,19.0732
		c4.583,6.3604,11.708,12.2012,22.0615,17.335c1.1406,0.5654,2.3535,0.834,3.5469,0.834c2.9443,0,5.7773-1.6299,7.1748-4.4463
		c1.9639-3.959,0.3447-8.7598-3.6123-10.7217c-8.6748-4.3018-13.5342-8.6572-16.1816-12.3447
		c-2.6338-3.7149-3.3155-6.791-3.3457-9.7295c-0.0127-3.166,1.0029-6.2227,2.1005-8.4522c0.542-1.1103,1.0889-2.0019,1.4688-2.5673
		c0.1904-0.2852,0.3379-0.4873,0.4199-0.5987C156.3613,119.6123,156.3779,119.5908,156.3906,119.5742z"/>
	<polygon points="7.9551,0 1.4082,45 28.5254,55 50.4101,42.5 73.4082,50 84.9101,54.5 99.9101,53 129.5137,60 144.9101,57.5 
		154.2207,47.1201 175.4101,43.5 189.4101,34.5 203.9101,41.5 236.1113,44 268.8379,37 286.6055,27 306.9101,27 334.293,39 
		371.6953,40 392.2676,23 433.4101,19 433.4101,0 	"/>
	<polygon points="407.9805,234.0684 391.4805,238.5684 358.4824,234.0684 341.9824,234.0684 331.4844,241.5684 301.4844,237.0684 
		290.9863,234.0684 274.4863,241.5684 251.9883,240.0684 227.9883,231.0684 217.4902,238.5684 190.4902,243.0684 169.4922,237.0684 
		148.4922,243.0684 121.4941,240.0684 91.4961,241.5684 71.9961,238.5684 38.998,244.5674 16.5,240.0684 0,253.5674 
		427.4785,253.5674 425.9785,241.5684 	"/>
</g>
</svg>
