<svg id="Capa_1" enable-background="new 0 0 512 512" height="512" viewBox="0 0 512 512" width="512" xmlns="http://www.w3.org/2000/svg"><g><path d="m511.176 489.185c-4.264-12.927-9.696-25.574-16.144-37.59-1.946-3.626-6.463-4.987-10.088-3.042-3.626 1.946-4.988 6.462-3.042 10.088 6.041 11.256 11.128 23.104 15.122 35.212.204.619-.001 1.093-.21 1.381-.202.279-.574.612-1.2.612h-197.367c1.944-2.021 3.549-4.378 4.695-7.03 2.516-5.818 2.616-12.267.281-18.16s-6.824-10.524-12.642-13.04l-185.697-80.31c24.133-15.685 51.301-26.624 79.509-31.963 3.296 17.853 18.968 31.423 37.76 31.423h67.692c18.791 0 34.462-13.568 37.76-31.419 54.185 10.197 102.19 39.962 135.76 84.372 1.465 1.938 3.693 2.958 5.949 2.958 1.564 0 3.143-.491 4.487-1.508 3.282-2.481 3.932-7.154 1.451-10.436-36.255-47.963-88.297-79.926-146.998-90.426v-21.533c0-.062-.008-.122-.009-.183 15.483-14.814 26.076-34.208 30.024-55.796 16.314-5.178 28.504-26.043 29.852-44.34 1.416-19.239-9.257-32.625-28.147-35.902v-16.149c4.9-2.635 9.574-5.459 13.973-8.477 4.465-3.063 7.13-8.14 7.13-13.58 0-7.39-4.889-13.658-11.603-15.743v-21.397c0-52.91-43.045-95.955-95.955-95.955h-35.04c-52.91 0-95.954 43.045-95.954 95.955v21.399c-6.713 2.084-11.603 8.353-11.603 15.743 0 5.441 2.665 10.517 7.13 13.58 4.798 3.291 9.916 6.358 15.307 9.193v15.219c-19.72 2.869-30.931 16.428-29.481 36.115 1.419 19.26 14.559 40.376 31.262 44.736 3.938 20.97 14.201 39.569 28.615 53.918-.001.059-.009.117-.009.176v23.04c-31.455 5.652-61.755 17.816-88.484 35.48-1.854-3.15-4.63-5.637-8.049-7.116l-.042-.018c14.357-22.189 32.673-41.071 54.546-56.176 3.63-2.505 5.029-7.116 3.404-11.212-1.626-4.098-5.807-6.495-10.166-5.829-36.464 5.555-69.747 25.439-91.806 54.727-7.726-1.334-15.667 2.706-18.915 10.213l-13.035 30.14c-3.246 7.506-.753 16.057 5.509 20.774-2.864 16.599-2.655 33.556.43 49.987-6.522 12.111-12.013 24.853-16.313 37.891-1.648 4.997-.794 10.522 2.286 14.781 3.07 4.246 8.033 6.782 13.274 6.782h479.231c5.241 0 10.204-2.535 13.274-6.782 3.079-4.261 3.934-9.786 2.286-14.783zm-454.844 6.662c-3.429-25.258-2.083-50.475 4.005-75.122l.039.017c2.241.969 4.577 1.428 6.876 1.428 4.269 0 8.409-1.586 11.592-4.416l180.572 78.094h-203.084zm-25.555-87.907 15.698 6.789c-5.112 19.724-7.399 39.799-6.826 59.989-8.863-20.988-11.997-44.17-8.872-66.778zm258.593 68.205c.869 2.193.831 4.592-.105 6.757-1.525 3.293-5.902 6.664-11.608 4.598l-191.41-82.781 7.009-16.206 191.411 82.782c2.164.935 3.834 2.658 4.703 4.85zm-50.89-459.992h35.04c44.693 0 81.054 36.361 81.054 81.054v20.661h-64.198c8.358-8.625 13.511-20.373 13.511-33.303 0-26.405-21.482-47.886-47.886-47.886-11.067 0-21.862 3.865-30.397 10.883-3.178 2.614-3.636 7.308-1.023 10.487 2.613 3.178 7.309 3.636 10.487 1.023 5.875-4.831 13.309-7.491 20.933-7.491 18.188 0 32.985 14.797 32.985 32.985s-14.798 32.984-32.986 32.984-32.985-14.797-32.985-32.985c0-4.115-3.336-7.451-7.451-7.451s-7.451 3.336-7.451 7.451c0 12.932 5.158 24.678 13.518 33.303h-64.205v-20.661c.001-44.693 36.361-81.054 81.054-81.054zm-92.656 118.195c0-.871.708-1.579 1.579-1.579h217.194c.871 0 1.579.708 1.579 1.579 0 .526-.246 1.01-.659 1.293-27.879 19.124-67.796 30.092-109.517 30.092-41.722 0-81.639-10.968-109.517-30.092-.412-.283-.659-.766-.659-1.293zm15.803 104.755c-.077-.001-.155.001-.233.001-9.897 0-21.513-16.243-22.654-31.743-1.158-15.729 9.95-19.867 19.473-20.568 3.497.39 9.969-1.043 10.049-7.437v-15.286c25.888 10.685 56.4 16.563 87.739 16.563 31.878 0 62.903-6.078 89.073-17.115v15.79c.055 3.482 3.261 7.965 8.715 7.485 9.523.701 20.631 4.839 19.473 20.568-1.11 15.069-12.231 31.079-22.036 31.722-3.551.233-6.441 2.944-6.9 6.473-3.897 29.923-22.567 55.511-49.942 68.445-3.72 1.758-5.311 6.199-3.554 9.92 1.477 2.585 5.417 5.663 9.92 3.554 4.403-2.08 8.606-4.449 12.604-7.064v17.948c0 12.962-10.545 23.507-23.507 23.507h-67.692c-12.962 0-23.507-10.545-23.507-23.507v-18.959c16.644 11.331 36.673 17.927 58.02 17.927 2.283 0 4.596-.076 6.872-.226 4.106-.27 7.216-3.817 6.946-7.924-.27-4.106-3.805-7.215-7.924-6.946-1.952.129-3.935.194-5.894.194-44.249 0-81.932-33.033-87.653-76.837-.487-3.714-3.652-6.485-7.388-6.485zm-49.281 67.518c-15.1 13.408-28.165 28.821-39.038 46.055l-15.695-6.788c14.329-17.754 33.375-31.35 54.733-39.267zm-87.47 79.826 13.035-30.139c.355-.822 1.008-1.182 1.365-1.324.204-.081.528-.176.921-.176.294 0 .628.053.979.205l40.121 17.352c.822.356 1.182 1.007 1.323 1.365.142.357.326 1.079-.03 1.9l-13.035 30.139c-.543 1.257-2.008 1.837-3.265 1.294l-40.12-17.35c-1.257-.544-1.837-2.009-1.294-3.266zm-9.691 108.788c-.208-.289-.414-.762-.21-1.381 2.323-7.041 5.027-13.986 8.06-20.784 2.81 7.86 6.313 15.488 10.49 22.778h-17.14c-.626-.001-.998-.334-1.2-.613z"/><ellipse cx="215.988" cy="201.105" rx="12.873" ry="12.874" transform="matrix(.707 -.707 .707 .707 -78.942 211.629)"/><ellipse cx="297.33" cy="201.105" rx="12.873" ry="12.874" transform="matrix(.707 -.707 .707 .707 -55.117 269.147)"/><path d="m226.366 260.294c0 4.115 3.336 7.451 7.451 7.451h43.586c4.115 0 7.451-3.336 7.451-7.451s-3.336-7.451-7.451-7.451h-43.586c-4.116 0-7.451 3.336-7.451 7.451z"/></g></svg>