<?xml version="1.0" encoding="utf-8"?>
<!-- Generator: Adobe Illustrator 24.2.3, SVG Export Plug-In . SVG Version: 6.00 Build 0)  -->
<svg version="1.1" id="Layer_1" xmlns="http://www.w3.org/2000/svg" xmlns:xlink="http://www.w3.org/1999/xlink" x="0px" y="0px"
	 viewBox="0 0 334.7439 263.892" enable-background="new 0 0 334.7439 263.892" xml:space="preserve">
<g>
	<path d="M148.8386,100.2913l-30.2456,43.3876h33.4049l1.5651-1.9998l3.5078-0.9341l8.2412-1.7822l3.5492,3.2263l16.9069-4.3659
		l28.8472-1.0238l5.9692-3.6866l11.1808-0.532l12.1298-4.4836h27.6522l12.0382-3.7617l3.7446,2.4338l16.4839-1.5149l12.9355,5.5464
		l8.9688,12.8782h8.8748V94.2477H160.4187C155.8027,94.2477,151.4784,96.5046,148.8386,100.2913z"/>
	
		<rect x="177.3377" y="-2.3781" transform="matrix(0.4127 -0.9108 0.9108 0.4127 94.1206 169.7741)" width="2.7695" height="28.5466"/>
	<polygon points="132.9167,62.6662 131.6504,56.9102 120.6611,61.7405 120.4434,72.9693 125.8413,78.8348 148.0618,75.7402 	"/>
	<path d="M116.4906,52.6855l0.2698,2.5761l7.7401-0.8104l-0.2753,3.0634l6.9071-2.6765l33.9028-34.0487l11.2908,8.3083
		l12.782,30.2508l20.4512,5.5389h5.5012v5.9362h27.1166v-5.9362h30.424c1.2218,0,2.2123-0.9905,2.2123-2.2123v-17.029
		c0-0.2742-0.059-0.5452-0.1727-0.7946l-2.3617-5.1732c-0.3112-0.6815-0.9913-1.1188-1.7406-1.1188h-3.5386v-2.4768h-4.2505v-9.6378
		l1.8718-1.6223l-0.9236-1.0655l-2.3583,2.0438v10.2817h-1.3983v-9.0894h-1.0342v9.0894h-10.3948v2.4768h-9.3708l-2.0679-11.9938
		c-0.0701-0.4064-0.2535-0.7846-0.5294-1.0911l-0.2314-0.2572c-0.4147-0.4607-1.0052-0.7238-1.6251-0.7238h-20.574
		c-0.4075,0-0.7971,0.1683-1.0764,0.4651l-1.5784,1.677c-0.1982,0.2108-0.3303,0.4751-0.3799,0.7602l-3.292,18.9615l-7.2839-0.4989
		l-5.564-24.2459l2.9153-0.9129l-0.7002-2.2363l-7.8168,2.4476L159.0124,6.8583l-1.5537,1.5814l-5.6055-4.1328l-1.4224,1.9291
		l2.1006,1.5486l-33.9641,44.6834L116.4906,52.6855z M269.6704,55.8156h-17.6912v-1.3051h17.6912V55.8156z M269.6704,52.2388
		h-17.6912v-1.3051h17.6912V52.2388z M269.6704,48.6619h-17.6912v-1.3051h17.6912V48.6619z M269.6704,45.085h-17.6912v-1.3051
		h17.6912V45.085z M237.133,41.4598l-8.6453,2.086v-13.155h6.7368L237.133,41.4598z M213.937,30.3907h11.9407v13.7848
		l-14.9604,3.6098L213.937,30.3907z M197.6156,45.6608l-2.3297-0.1595l-5.2483-22.354l2.2499-0.7045L197.6156,45.6608z
		 M154.2463,9.0489l1.5159,1.1176l-0.6174,0.6285l-30.2289,39.0353l-0.1791,1.9918l-3.2622,0.3416L154.2463,9.0489z"/>
	<path d="M168.362,81.7444l-1.7585-0.015v0.0159c0,0.5942,0.0575,1.189,0.1711,1.7676l1.5914-0.3124
		c0.007,0.5184,0.0831,1.0198,0.2147,1.4995l-1.2874,0.5321c0.2283,0.5521,0.5126,1.0848,0.8453,1.5832l1.0375-0.6926
		c0.2623,0.4517,0.5775,0.8693,0.9438,1.2375l-0.8452,0.8423c0.4221,0.4235,0.8873,0.8073,1.3826,1.141l0.696-1.0336
		c0.4413,0.2592,0.917,0.463,1.4197,0.6036l-0.5354,1.2813c0.5525,0.2308,1.1301,0.4075,1.7173,0.5251l0.3179-1.5858
		c0.0364,0.0007,0.0719,0.0056,0.1086,0.0056h1.3738l-0.014,1.7582h1.6136v-1.7582h1.6136v1.7582h1.6136v-1.7582h1.6134v1.7582
		h1.6136v-1.7582h1.6138v1.7582h1.6135v-1.7582h1.6135v1.7582h1.6135v-1.7582h1.6138v1.7582h1.6136v-1.7582h1.6134v1.7582h1.6136
		v-1.7582h1.6136v1.7582h1.6134v-1.7582h1.6136v1.7582h1.6138v-1.7582h1.6135v1.7582h1.6135v-1.7582h1.6135v1.7582h1.6138v-1.7582
		h1.6136v1.7582h1.6134v-1.7582h1.6136v1.7582h1.6136v-1.7582h1.6136v1.7582h1.6134v-1.7582h1.6136v1.7582h1.6136v-1.7582h1.6135
		v1.7582h1.6135v-1.7582h1.6138v1.7582h1.6135v-1.7582h1.6135v1.7582h1.6136v-1.7582h1.6136v1.7582h1.6136v-1.7582h1.6134v1.7582
		h1.6136v-1.7582h1.6136v1.7582h1.6138v-1.7582h1.6133v1.7582h1.6138v-1.7582h1.6135v1.7582h1.6138v-1.7582h1.6133v1.7582h1.6138
		v-1.7582h1.6136v1.7582h1.6136v-1.7582h1.6134v1.7582h1.6136v-1.7582h1.6136v1.7582h0.0343c0.5999,0,1.2004-0.0588,1.7848-0.1747
		l-0.3148-1.5883c0.5183-0.0082,1.02-0.0849,1.4995-0.2178l0.5338,1.2839c0.5518-0.2294,1.0836-0.5149,1.5812-0.8484l-0.6937-1.0353
		c0.451-0.2635,0.8685-0.5789,1.2357-0.9463l0.8433,0.843c0.4235-0.4235,0.8064-0.8897,1.1383-1.3855l-1.0355-0.6934
		c0.2581-0.4419,0.4602-0.9183,0.5995-1.4214l1.2844,0.5334c0.2297-0.5533,0.4054-1.1313,0.5216-1.7181l-1.5885-0.3149
		c0.0005-0.0316,0.0048-0.0623,0.0048-0.0939v-1.376h1.7583c0-0.6005-0.059-1.2012-0.1753-1.7856l-1.5879,0.3162
		c-0.0083-0.5186-0.085-1.0204-0.218-1.5l1.2837-0.5338c-0.2292-0.5517-0.5149-1.0839-0.8489-1.5815l-1.0349,0.6944
		c-0.2634-0.451-0.5791-0.8684-0.9465-1.2356l0.8427-0.8434c-0.4229-0.4229-0.8892-0.8058-1.3851-1.1381l-0.6938,1.0354
		c-0.4417-0.2579-0.918-0.4598-1.4209-0.5989l0.5332-1.2846c-0.5529-0.2296-1.1307-0.405-1.7178-0.5215l-0.3154,1.5888
		c-0.0313-0.0005-0.0615-0.0047-0.0928-0.0047h-1.3772v-1.7583h-1.6135v1.7583h-1.6138v-1.7583h-1.6134v1.7583h-1.6136v-1.7583
		h-1.6136v1.7583h-1.6136v-1.7583h-1.6134v1.7583h-1.6136v-1.7583h-1.6138v1.7583h-1.6135v-1.7583h-1.6135v1.7583h-1.6135v-1.7583
		h-1.6138v1.7583h-1.6136v-1.7583h-1.6134v1.7583h-1.6136v-1.7583h-1.6136v1.7583h-1.6136v-1.7583h-1.6134v1.7583h-1.6136v-1.7583
		h-1.6136v1.7583h-1.6135v-1.7583h-1.6135v1.7583h-1.6138v-1.7583h-1.6135v1.7583h-1.6135v-1.7583h-1.6136v1.7583h-1.6136v-1.7583
		h-1.6136v1.7583h-1.6134v-1.7583h-1.6136v1.7583h-1.6136v-1.7583h-1.6138v1.7583h-1.6133v-1.7583h-1.6138v1.7583h-1.6135v-1.7583
		h-1.6138v1.7583h-1.6133v-1.7583H196.75v1.7583h-1.6136v-1.7583h-1.6134v1.7583h-1.6136v-1.7583h-1.6136v1.7583h-1.6136v-1.7583
		h-1.6134v1.7583h-1.6138v-1.7583h-1.6135v1.7583h-1.6138v-1.7583h-1.6133v1.7583h-1.6138v-1.7583h-1.6136v1.7583h-1.6295
		l0.0159-1.7583h-0.017c-0.5941,0-1.1884,0.0577-1.7665,0.1713l0.3125,1.591c-0.5184,0.0068-1.02,0.083-1.4998,0.2145
		l-0.5321-1.2874c-0.5527,0.2286-1.0854,0.5129-1.5831,0.8452l0.6926,1.0372c-0.4519,0.2623-0.8696,0.5775-1.2378,0.9439
		l-0.842-0.8453c-0.4237,0.4218-0.8076,0.887-1.1414,1.3826l1.0334,0.696c-0.259,0.4412-0.4631,0.9166-0.6038,1.4193l-1.281-0.5352
		c-0.2307,0.5524-0.4075,1.13-0.5254,1.7168l1.5856,0.3183c-0.0006,0.0368-0.0055,0.0726-0.0055,0.1095V81.7444z"/>
	<polygon points="202.7866,142.0048 209.8022,139.7719 211.1772,138.9227 185.9477,139.8183 170.6205,143.7883 171.1064,144.2301 
		181.0891,144.3694 184.5991,142.9653 188.7543,144.4763 200.1561,144.6353 	"/>
	<polygon points="259.769,141.9008 263.3853,136.4955 269.1775,130.0933 244.2524,130.0971 235.5869,133.3004 246.4761,140.7509 
		255.0222,144.5115 262.6985,144.3561 	"/>
	<polygon points="303.4917,127.2924 290.0347,128.5272 291.5522,129.5136 303.3853,138.08 298.9996,144.1103 323.5815,144.1103 
		315.4351,132.413 	"/>
	<polygon points="251.5054,145.1489 245.4233,142.454 233.7788,134.4868 221.1958,135.0864 210.5268,141.6406 203.8569,143.7626 
		200.7163,146.9033 219.0073,146.9033 249.4995,146.1772 	"/>
	<polygon points="179.7856,147.0449 178.5708,148.8661 182.5181,149.7431 186.6811,148.312 186.9761,145.9579 184.6323,145.1059 	
		"/>
	<polygon points="167.9682,144.0815 164.728,141.1357 157.5161,142.6948 154.7251,143.4389 152.3589,146.4628 163.2934,146.9833 	
		"/>
	<polygon points="300.5884,138.5244 290.4204,131.162 283.2847,126.5248 271.8784,130.0888 264.9175,137.7827 262.4272,141.519 
		269.0317,147.0556 283.4897,146.9902 295.3804,145.686 	"/>
	<path d="M81.1052,90.2803h29.4547l-8.9069,27.4124c1.2217,0.595,2.3081,1.414,3.2227,2.3925l10.0093-30.805
		c0.536-1.65-0.3752-3-2.0254-3H79.7798h-0.6793C79.7864,87.4844,80.4563,88.8162,81.1052,90.2803z"/>
	<path d="M30.6811,75.0078h31.0771c0.2056-0.1968,0.408-0.3961,0.6056-0.6001c5.215-5.3842,7.6284-13.2495,5.6989-21.0626
		c-0.1801-0.7289-0.3953-1.4397-0.6406-2.133L23.9492,61.9486c0.1057,0.7277,0.2461,1.457,0.426,2.1859
		c0.9919,4.016,3.0093,7.507,5.6991,10.2732C30.2729,74.6119,30.4753,74.8116,30.6811,75.0078z"/>
	<path d="M20.6724,53.45c-1.6174,0.3994-2.6038,2.0342-2.2041,3.6526c0.4001,1.6202,2.0339,2.6069,3.6514,2.2074l0.3906-0.0965
		v0.0001l44.9124-11.0919l0,0l0.3887-0.096c1.6194-0.3999,2.606-2.0338,2.2058-3.654c-0.3997-1.6183-2.0337-2.606-3.6531-2.2061
		l-0.4036,0.0997c-0.269-0.9813-0.593-1.9337-0.9771-2.8489c-2.5178-6.0007-7.3976-10.5131-13.2456-12.697l0.4429,1.7933
		c0.3162,1.28-0.4645,2.5752-1.7444,2.8913c-1.2798,0.3161-2.5756-0.4664-2.8916-1.7463l-1.042-4.2189
		c-1.9717-0.2442-3.998-0.2406-6.0383,0.0469l1.3781,5.5803c0.3162,1.28-0.464,2.5751-1.744,2.8912
		c-1.2826,0.3168-2.5754-0.4664-2.8916-1.7463l-1.3781-5.5801c-1.9395,0.6956-3.7343,1.6358-5.3655,2.77l1.0417,4.2183
		c0.316,1.2799-0.4645,2.5751-1.7462,2.8917c-1.2799,0.3161-2.5737-0.4668-2.8899-1.7468l-0.4426-1.7919
		c-4.1577,4.655-6.375,10.9194-5.8101,17.4014c0.0862,0.9888,0.2429,1.9825,0.4615,2.9765L20.6724,53.45z"/>
	<path d="M13.707,139.8412c0.5579,0.1299,1.1223,0.25,1.6947,0.3574v-26.1611l1.1757-4.8101
		c0.8428-0.0902,1.5682-0.7064,1.7468-1.5803l6.0723-29.6752c0.2217-1.082-0.4756-2.1387-1.5576-2.3604
		c-1.0889-0.2256-2.1396,0.4766-2.3604,1.5586l-0.1581,0.7726c-1.6757,0.4765-3.5597,1.3284-5.5109,2.8099
		c-0.0895,0.068-0.1726,0.1502-0.2612,0.22C6.2092,87.5316,1.4531,102.043,0.0244,125.3406
		c-0.229,3.7275,1.1597,7.2207,3.9092,9.8379C6.3513,137.4795,9.8343,138.9391,13.707,139.8412z"/>
	<path d="M67.2128,78.0767l-0.1854-0.9064c-0.2207-1.082-1.2754-1.7837-2.3604-1.5586c-1.082,0.2217-1.7793,1.2783-1.5576,2.3604
		l6.0723,29.6752c0.1785,0.874,0.9042,1.4901,1.7471,1.5803l1.1757,4.8101v16.2335l2.755,1.2596
		c6.873,3.1421,19.1807,3.9224,21.5781,4.0469c0.1416,0.0073,0.2822,0.0107,0.4219,0.0107c4.2266,0,7.7568-3.312,7.9805-7.5815
		c0.2314-4.4106-3.1582-8.1743-7.5684-8.4077c-3.2568-0.1719-8.0889-0.6924-11.7686-1.4585c-0.8135-6.0908-1.8184-11.5181-3-16.1875
		c-0.0002-0.001-0.0007-0.0021-0.001-0.0031C78.334,85.4772,72.0781,79.8115,67.2128,78.0767z"/>
	<rect x="17.6697" y="118.2876" width="52.1666" height="5"/>
	<rect x="17.6697" y="133.6209" width="52.1666" height="5"/>
	<path d="M72.3125,148.6208H15.1934c-0.593,0-1.1201,0.2632-1.4863,0.6733c-0.3159,0.3536-0.5137,0.8152-0.5137,1.3267
		s0.1978,0.973,0.5137,1.3267c0.3662,0.4102,0.8933,0.6733,1.4863,0.6733h1.5137v0.9079v7.4222v90.5778
		c0,6.8301,5.5371,12.3633,12.3633,12.3633c6.8281,0,12.3652-5.5332,12.3652-12.3633v-87.2715v-3h4.6348v3v87.2715
		c0,6.8301,5.5371,12.3633,12.3632,12.3633c6.8282,0,12.3654-5.5332,12.3654-12.3633V160.951v-7.4222v-0.9079h1.5137
		c0.593,0,1.12-0.2632,1.4863-0.6733c0.3159-0.3536,0.5137-0.8152,0.5137-1.3267s-0.1978-0.9731-0.5137-1.3267
		C73.4325,148.884,72.9055,148.6208,72.3125,148.6208z"/>
	<path d="M57.9309,78.4581H29.197c0,4.1041,6.4324,7.4312,14.3669,7.4312C51.4986,85.8893,57.9309,82.5623,57.9309,78.4581z"/>
	<rect x="83.7347" y="154.1376" width="251.0092" height="3.5229"/>
	<rect x="83.7347" y="163.0551" width="251.0092" height="3.5229"/>
	<path d="M303.0375,35.688c9.8544,0,17.8441-7.988,17.8441-17.8441c0-9.8544-7.9897-17.844-17.8441-17.844
		c-9.8551,0-17.8441,7.9896-17.8441,17.844C285.1934,27.7,293.1824,35.688,303.0375,35.688z M303.0375,3.3997
		c7.9628,0,14.4425,6.4807,14.4425,14.4478c0,7.9636-6.4797,14.4391-14.4425,14.4391c-7.9662,0-14.4435-6.4755-14.4435-14.4391
		C288.594,9.8804,295.0713,3.3997,303.0375,3.3997z"/>
</g>
</svg>
