<?xml version="1.0" encoding="UTF-8" standalone="no"?> <svg id="Layer_1" data-name="Layer 1" xmlns="http://www.w3.org/2000/svg" viewBox="0 0 128 128"><defs><style>.cls-1{fill:#2d3e50;}</style></defs><title>b</title><path class="cls-1" d="M68.93233,50.53269q-1.1865-3.04609-2.14041-5.58368-.95719-2.53261-1.70169-4.47027-.70792-1.81966-1.09014-2.91813-.38389,1.10176-1.09016,2.91813-.74781,1.93435-1.70169,4.47027-.95719,2.5376-2.14041,5.58368-1.17655,3.05108-2.39964,6.398H71.332Q70.11555,53.58545,68.93233,50.53269Z"/><path class="cls-1" d="M116.69276,119.47786H23.93718a9.81287,9.81287,0,0,1-9.00037-5.91937,9.61725,9.61725,0,0,1-.801-3.7158c-.00331-.0565-.00331-.113-.00331-.16951a9.80426,9.80426,0,0,1,9.80468-9.80468h89.5915a5.65747,5.65747,0,0,0,5.65679-5.65015h-.00663V9.78844A6.91774,6.91774,0,0,0,112.26239,2.872H15.3988A6.91773,6.91773,0,0,0,8.48235,9.78844V109.84269h.00331a15.20191,15.20191,0,0,0,.48858,3.7158A15.46572,15.46572,0,0,0,23.93718,125.128h92.6592a2.88987,2.88987,0,0,0,2.91482-2.6323A2.82551,2.82551,0,0,0,116.69276,119.47786Zm-75.855-49.68812c.9838-2.742,14.66381-37.0783,15.56782-39.03925a8.66356,8.66356,0,0,1,7.5546-5.01533v-.00333c.01329,0,.02659.00333.03988.00333s.02659-.00333.03988-.00333v.00333a8.66356,8.66356,0,0,1,7.55458,5.01533c.904,1.96094,14.584,36.29726,15.56785,39.03925a5.63755,5.63755,0,0,1-5.31114,7.54462,5.63991,5.63991,0,0,1-5.34439-3.83545c-.18612-.55173-.37557-1.11342-.57167-1.67512q-.98212-2.83671-1.9576-5.66011h-19.955q-.97216,2.82174-1.95762,5.66011c-.19608.56169-.38553,1.12339-.57165,1.67512A5.64254,5.64254,0,0,1,40.50542,71.6975,5.69715,5.69715,0,0,1,40.83778,69.78974Z"/></svg>