<?xml version="1.0" encoding="utf-8"?>
<svg id="master-artboard" viewBox="0 0 222.8828887939453 143.24908447265625" version="1.1" xmlns="http://www.w3.org/2000/svg" x="0px" y="0px" style="enable-background:new 0 0 1400 980;" width="222.8828887939453px" height="143.24908447265625px"><rect id="ee-background" x="0" y="0" width="222.8828887939453" height="143.24908447265625" style="fill: white; fill-opacity: 0; pointer-events: none;"/>


<path class="st11" d="M265.9,282.1c0-11.1,6.4-20.8,15.8-25.5v-43.9c-43.4,5.8-77.2,40.3-82.4,83.4h40.8c1.7,0,3,1.3,3,3&#10;&#9;&#9;s-1.3,3-3,3h-41.4c-0.1,1.2-0.1,2.5-0.2,3.7c0,0.8,0,1.6,0,2.3h84.2C272.9,303.7,265.9,293.7,265.9,282.1z M217.9,281.4&#10;&#9;&#9;c-0.5,1.2-1.6,1.9-2.8,1.9c-0.4,0-0.7-0.1-1.1-0.2c-1.5-0.6-2.3-2.3-1.7-3.9c0.6-1.7,16.3-41.3,52.8-54.5c1.6-0.6,3.3,0.2,3.8,1.8&#10;&#9;&#9;c0.6,1.6-0.2,3.3-1.8,3.8C233.2,242.7,218.1,281,217.9,281.4z M261.4,302h-8c-1.7,0-3-1.3-3-3s1.3-3,3-3h8c1.7,0,3,1.3,3,3&#10;&#9;&#9;S263.1,302,261.4,302z" style="fill: rgb(252, 238, 33);" transform="matrix(1, 0, 0, 1, -182.59497451782227, -195.00550746917725)"/><path class="st17" d="M391.9,314.1H197.1c-3.7,0-6.8,3-6.8,6.8s3,6.8,6.8,6.8h194.7c3.7,0,6.8-3,6.8-6.8S395.6,314.1,391.9,314.1z" style="fill: rgb(251, 176, 59);" transform="matrix(1, 0, 0, 1, -182.59497451782227, -195.00550746917725)"/><path class="st14" d="M272,282.1c0,12.4,10.1,22.5,22.5,22.5s22.5-10.1,22.5-22.5s-10.1-22.5-22.5-22.5S272,269.7,272,282.1z&#10;&#9;&#9; M294.5,264.8c9.5,0,17.3,7.7,17.3,17.3s-7.7,17.3-17.3,17.3s-17.3-7.7-17.3-17.3S285,264.8,294.5,264.8z" style="fill: rgb(153, 134, 117);" transform="matrix(1, 0, 0, 1, -182.59497451782227, -195.00550746917725)"/><path class="st21" d="M294.5,293.4c6.2,0,11.3-5.1,11.3-11.3c0-6.2-5.1-11.3-11.3-11.3c-6.2,0-11.3,5.1-11.3,11.3&#10;&#9;&#9;C283.2,288.3,288.3,293.4,294.5,293.4z" style="fill: rgb(255, 255, 255);" transform="matrix(1, 0, 0, 1, -182.59497451782227, -195.00550746917725)"/><path class="st14" d="M291.5,200.4c-2.2,1.1-3.8,3.4-3.8,6v48c1.2-0.3,2.5-0.5,3.8-0.7V200.4z" style="fill: rgb(153, 134, 117);" transform="matrix(1, 0, 0, 1, -182.59497451782227, -195.00550746917725)"/><path class="st11" d="M323,282.1c0,11.6-7,21.6-16.9,26h84.2c0-2,0-4.1-0.2-6.1h-41.3c-1.7,0-3-1.3-3-3s1.3-3,3-3h40.8&#10;&#9;&#9;c-5.2-42.6-39.1-77.6-82.4-83.4v43.9C316.6,261.3,323,271,323,282.1z M335.5,302h-8c-1.7,0-3-1.3-3-3s1.3-3,3-3h8c1.7,0,3,1.3,3,3&#10;&#9;&#9;S337.2,302,335.5,302z M319.9,226.5c0.6-1.6,2.3-2.4,3.8-1.8c36.5,13.2,52.2,52.9,52.8,54.5c0.6,1.5-0.2,3.3-1.7,3.9&#10;&#9;&#9;c-0.4,0.1-0.7,0.2-1.1,0.2c-1.2,0-2.3-0.7-2.8-1.9c-0.1-0.4-15.4-38.8-49.3-51C320.2,229.8,319.4,228.1,319.9,226.5z" style="fill: rgb(252, 238, 33);" transform="matrix(1, 0, 0, 1, -182.59497451782227, -195.00550746917725)"/><path class="st14" d="M301.2,206.4c0-2.6-1.5-4.9-3.8-6v53.4c1.3,0.1,2.5,0.4,3.8,0.7V206.4z" style="fill: rgb(153, 134, 117);" transform="matrix(1, 0, 0, 1, -182.59497451782227, -195.00550746917725)"/>

<g class="st1" transform="matrix(1, 0, 0, 1, -182.59497451782227, -195.00550746917725)" style="display: inline;">
		<g>
			<path class="st2" d="M494.9,384H365.2c-3.6,0-6.5-2.9-6.5-6.5l0,0c0-3.6,2.9-6.5,6.5-6.5h129.7c3.6,0,6.5,2.9,6.5,6.5l0,0&#10;&#9;&#9;&#9;&#9;C501.4,381.1,498.5,384,494.9,384z" style="fill: none; stroke: rgb(66, 1, 4); stroke-width: 4; stroke-miterlimit: 10;"/>
			<path class="st2" d="M423.5,335.9v-34.7c0-3.6,2.9-6.5,6.5-6.5h0c3.6,0,6.5,2.9,6.5,6.5v34.7" style="fill: none; stroke: rgb(66, 1, 4); stroke-width: 4; stroke-miterlimit: 10;"/>
			<path d="M 447 351.600006 A 17 17 0 0 1 430 368.600006 A 17 17 0 0 1 413 351.600006 A 17 17 0 0 1 430 334.600006 A 17 17 0 0 1 447 351.600006 Z" class="st2" style="fill: none; stroke: rgb(66, 1, 4); stroke-width: 4; stroke-miterlimit: 10;"/>
			<path d="M 439.5 351.600006 A 9.5 9.5 0 0 1 430 361.100006 A 9.5 9.5 0 0 1 420.5 351.600006 A 9.5 9.5 0 0 1 430 342.100006 A 9.5 9.5 0 0 1 439.5 351.600006 Z" class="st2" style="fill: none; stroke: rgb(66, 1, 4); stroke-width: 4; stroke-miterlimit: 10;"/>
			<path class="st2" d="M436.5,303.1c33.8,3.3,60,32.2,59.3,66.8c0,0.4,0,0.8,0,1.1" style="fill: none; stroke: rgb(66, 1, 4); stroke-width: 4; stroke-miterlimit: 10;"/>
			<path class="st2" d="M364.3,371c0-1.2-0.1-2.4,0-3.7c0.6-33.7,26.5-61,59.3-64.2" style="fill: none; stroke: rgb(66, 1, 4); stroke-width: 4; stroke-miterlimit: 10;"/>
			<path d="M 364.5 362.899994 L 393.899994 362.899994" class="st3" style="fill: none; stroke: rgb(66, 1, 4); stroke-width: 4; stroke-linecap: round; stroke-miterlimit: 10;"/>
			<path d="M 402.700012 362.899994 L 408 362.899994" class="st3" style="fill: none; stroke: rgb(66, 1, 4); stroke-width: 4; stroke-linecap: round; stroke-miterlimit: 10;"/>
			<path d="M 495.600006 362.899994 L 466.200012 362.899994" class="st3" style="fill: none; stroke: rgb(66, 1, 4); stroke-width: 4; stroke-linecap: round; stroke-miterlimit: 10;"/>
			<path d="M 457.399994 362.899994 L 452 362.899994" class="st3" style="fill: none; stroke: rgb(66, 1, 4); stroke-width: 4; stroke-linecap: round; stroke-miterlimit: 10;"/>
			<path d="M 430 294.700012 L 430 334.600006" class="st3" style="fill: none; stroke: rgb(66, 1, 4); stroke-width: 4; stroke-linecap: round; stroke-miterlimit: 10;"/>
			<path class="st3" d="M377.2,350.5c0,0,10.3-26.5,34-35.1" style="fill: none; stroke: rgb(66, 1, 4); stroke-width: 4; stroke-linecap: round; stroke-miterlimit: 10;"/>
			<path class="st3" d="M482.9,350.5c0,0-10.3-26.5-34-35.1" style="fill: none; stroke: rgb(66, 1, 4); stroke-width: 4; stroke-linecap: round; stroke-miterlimit: 10;"/>
		</g>
		<g>
			<path class="st2" d="M637,384h-61.3c-4.8,0-8.7-3.9-8.7-8.7v-71.8c0-4.8,3.9-8.7,8.7-8.7H637c4.8,0,8.7,3.9,8.7,8.7v71.8&#10;&#9;&#9;&#9;&#9;C645.7,380.1,641.8,384,637,384z" style="fill: none; stroke: rgb(66, 1, 4); stroke-width: 4; stroke-miterlimit: 10;"/>
			<path class="st2" d="M607.9,294.9c-3,2.1-6,4.1-8.5,6.8c-2.5,2.7-4.4,6-4.6,9.6c-0.2,2.3,0.4,5.1,1.8,6.9&#10;&#9;&#9;&#9;&#9;c1.3,1.7,3.6,2.4,5.3,3.6c2.2,1.5,3.7,4,4.1,6.7c0.5,3.8-1.8,7-3.5,10.2c-1.7,3.3-2.9,7.4-1.2,10.7c2.3,4.7,8.4,5.8,13.1,4.7&#10;&#9;&#9;&#9;&#9;c3.2-0.8,5.3-2.6,7.6-4.8c2.4-2.3,5-2.9,8-1.2c2,1.1,3.6,2.9,5.5,4.3c2.5,1.8,6.6,2.8,10.2,2.2" style="fill: none; stroke: rgb(66, 1, 4); stroke-width: 4; stroke-miterlimit: 10;"/>
			<path d="M 628.2 319 A 3.2 3.2 0 0 1 625 322.2 A 3.2 3.2 0 0 1 621.8 319 A 3.2 3.2 0 0 1 625 315.8 A 3.2 3.2 0 0 1 628.2 319 Z" class="st4" style="fill: rgb(66, 1, 4);"/>
			<g>
				<path class="st4" d="M575.9,364.2c3.4,3.4,6.9,6.9,10.3,10.3c2.1,2.1,5.2-1.1,3.2-3.2c-3.4-3.4-6.9-6.9-10.3-10.3&#10;&#9;&#9;&#9;&#9;&#9;C577.1,359,573.9,362.2,575.9,364.2L575.9,364.2z" style="fill: rgb(66, 1, 4);"/>
			</g>
			<g>
				<path class="st4" d="M575.9,364.2c3.4,3.4,6.9,6.9,10.3,10.3c2.1,2.1,5.2-1.1,3.2-3.2c-3.4-3.4-6.9-6.9-10.3-10.3&#10;&#9;&#9;&#9;&#9;&#9;C577.1,359,573.9,362.2,575.9,364.2L575.9,364.2z" style="fill: rgb(66, 1, 4);"/>
			</g>
			<g>
				<path class="st4" d="M586.3,361c-3.4,3.4-6.9,6.9-10.3,10.3c-2.1,2.1,1.1,5.2,3.2,3.2c3.4-3.4,6.9-6.9,10.3-10.3&#10;&#9;&#9;&#9;&#9;&#9;C591.5,362.2,588.3,359,586.3,361L586.3,361z" style="fill: rgb(66, 1, 4);"/>
			</g>
			<g>
				<path class="st5" d="M594.5,368.9c1.3-0.1,2.6-0.3,4-0.5" style="fill: none; stroke: rgb(66, 1, 4); stroke-width: 3; stroke-linecap: round; stroke-miterlimit: 10;"/>
				<path class="st6" d="M605.6,366.6c4.9-1.9,8.7-5.4,9.5-11.8c0.6-4.4-0.8-8.8-1.7-13.2c-0.8-3.7-1-7.3,0-10.7" style="fill: none; stroke: rgb(66, 1, 4); stroke-width: 3; stroke-linecap: round; stroke-miterlimit: 10; stroke-dasharray: 7.2846, 7.2846;"/>
				<path class="st5" d="M614.9,327.7c0.7-1.1,1.5-2.1,2.6-3" style="fill: none; stroke: rgb(66, 1, 4); stroke-width: 3; stroke-linecap: round; stroke-miterlimit: 10;"/>
			</g>
			<g>
				<path class="st4" d="M605.3,311.3c0-2,1.1-3.7,2.8-4.6c1.7-0.9,0.2-3.5-1.5-2.6c-2.7,1.4-4.3,4.2-4.3,7.2&#10;&#9;&#9;&#9;&#9;&#9;C602.3,313.2,605.3,313.2,605.3,311.3L605.3,311.3z" style="fill: rgb(66, 1, 4);"/>
			</g>
			<g>
				<path class="st4" d="M612.2,304.1c1.9,0,1.9-3,0-3C610.3,301.1,610.3,304.1,612.2,304.1L612.2,304.1z" style="fill: rgb(66, 1, 4);"/>
			</g>
			<g>
				<path class="st4" d="M635.4,330.8c1.9,0,1.9-3,0-3C633.4,327.8,633.4,330.8,635.4,330.8L635.4,330.8z" style="fill: rgb(66, 1, 4);"/>
			</g>
			<g>
				<path class="st4" d="M635.4,309c1.9,0,1.9-3,0-3C633.4,306,633.4,309,635.4,309L635.4,309z" style="fill: rgb(66, 1, 4);"/>
			</g>
			<g>
				<path class="st4" d="M644.3,346.9c-4,1.1-6.2-5-9.1-6.7c-2.4-1.5-5.3-1.7-8-0.9c-1.9,0.5-1.1,3.4,0.8,2.9&#10;&#9;&#9;&#9;&#9;&#9;c5.2-1.4,7.1,2.5,10.2,5.5c1.9,1.9,4.3,2.8,6.9,2.1C646.9,349.3,646.1,346.4,644.3,346.9L644.3,346.9z" style="fill: rgb(66, 1, 4);"/>
			</g>
			<g>
				<path class="st4" d="M578,344.3c0-6.4,0-12.9,0-19.3c0-2.6-4-2.6-4,0c0,6.4,0,12.9,0,19.3C574,346.9,578,346.9,578,344.3&#10;&#9;&#9;&#9;&#9;&#9;L578,344.3z" style="fill: rgb(66, 1, 4);"/>
			</g>
			<g>
				<path class="st4" d="M576,318.6c2.6,0,2.6-4,0-4C573.5,314.6,573.5,318.6,576,318.6L576,318.6z" style="fill: rgb(66, 1, 4);"/>
			</g>
			<g>
				<path class="st4" d="M576,311.5c2.6,0,2.6-4,0-4C573.5,307.5,573.5,311.5,576,311.5L576,311.5z" style="fill: rgb(66, 1, 4);"/>
			</g>
		</g>
		<g>
			<path class="st2" d="M749.9,294.5v4.5c0,8.6-6,15.6-13.3,15.6h0c-7.4,0-13.3-7-13.3-15.6v-4.5H749.9z" style="fill: none; stroke: rgb(66, 1, 4); stroke-width: 4; stroke-miterlimit: 10;"/>
			<path class="st2" d="M749.9,356.5v6.2c0,11.8-6,21.3-13.3,21.3h0c-7.4,0-13.3-9.5-13.3-21.3v-6.2H749.9z" style="fill: none; stroke: rgb(66, 1, 4); stroke-width: 4; stroke-miterlimit: 10;"/>
			<path class="st7" d="M736.6,308.1c-3.6,0-6.5-3.1-7-7.1h14C743.1,305,740.2,308.1,736.6,308.1z" style="fill: none; stroke: rgb(66, 1, 4); stroke-width: 3.5; stroke-linejoin: round; stroke-miterlimit: 10;"/>
			<path d="M 733.599976 356.5 L 733.599976 314.299988" class="st2" style="fill: none; stroke: rgb(66, 1, 4); stroke-width: 4; stroke-miterlimit: 10;"/>
			<path d="M 739.599976 356.5 L 739.599976 314.299988" class="st2" style="fill: none; stroke: rgb(66, 1, 4); stroke-width: 4; stroke-miterlimit: 10;"/>
			<g>
				<path class="st4" d="M728.3,364c1.3,0,1.3-2,0-2C727,362,727,364,728.3,364L728.3,364z" style="fill: rgb(66, 1, 4);"/>
			</g>
			<g>
				<path class="st4" d="M732.3,364c4.4,0,8.7,0,13.1,0c1.3,0,1.3-2,0-2c-4.4,0-8.7,0-13.1,0C731,362,731,364,732.3,364L732.3,364z" style="fill: rgb(66, 1, 4);"/>
			</g>
		</g>
		<g>
			<path class="st2" d="M855.9,304.6h25.7c0,0,9,15.6,9,39.7c0,24.1-9,39.7-9,39.7h-25.7c0,0-25.7,0-25.7,0s-9-15.6-9-39.7&#10;&#9;&#9;&#9;&#9;c0-24.1,9-39.7,9-39.7S855.9,304.6,855.9,304.6z" style="fill: none; stroke: rgb(66, 1, 4); stroke-width: 4; stroke-miterlimit: 10;"/>
			<path class="st2" d="M835.7,354.8c-0.4-3.3-0.6-6.8-0.6-10.6c0-3.1,0.1-6.1,0.4-8.9" style="fill: none; stroke: rgb(66, 1, 4); stroke-width: 4; stroke-miterlimit: 10;"/>
			<path class="st2" d="M839.8,373.6c2.2,6.6,4.4,10.4,4.4,10.4" style="fill: none; stroke: rgb(66, 1, 4); stroke-width: 4; stroke-miterlimit: 10;"/>
			<path class="st2" d="M839.2,316.6c2.4-7.7,4.9-12.1,4.9-12.1" style="fill: none; stroke: rgb(66, 1, 4); stroke-width: 4; stroke-miterlimit: 10;"/>
			<path class="st2" d="M876.3,335.4c0.3,2.8,0.4,5.8,0.4,8.9c0,3.7-0.2,7.3-0.6,10.6" style="fill: none; stroke: rgb(66, 1, 4); stroke-width: 4; stroke-miterlimit: 10;"/>
			<path class="st2" d="M867.7,384c0,0,2.2-3.7,4.3-10.4" style="fill: none; stroke: rgb(66, 1, 4); stroke-width: 4; stroke-miterlimit: 10;"/>
			<path class="st2" d="M867.7,304.6c0,0,2.5,4.4,4.9,12.1" style="fill: none; stroke: rgb(66, 1, 4); stroke-width: 4; stroke-miterlimit: 10;"/>
			<g>
				<path d="M 890.200012 335.399994 L 821.700012 335.399994" class="st2" style="fill: none; stroke: rgb(66, 1, 4); stroke-width: 4; stroke-miterlimit: 10;"/>
				<path d="M 886.5 316.600006 L 825.400024 316.600006" class="st2" style="fill: none; stroke: rgb(66, 1, 4); stroke-width: 4; stroke-miterlimit: 10;"/>
			</g>
			<path d="M 885.900024 373.600006 L 825.900024 373.600006" class="st2" style="fill: none; stroke: rgb(66, 1, 4); stroke-width: 4; stroke-miterlimit: 10;"/>
			<path d="M 890 354.799988 L 821.799988 354.799988" class="st2" style="fill: none; stroke: rgb(66, 1, 4); stroke-width: 4; stroke-miterlimit: 10;"/>
			<path d="M 831.3 326 A 1.3 1.3 0 0 1 830 327.3 A 1.3 1.3 0 0 1 828.7 326 A 1.3 1.3 0 0 1 830 324.7 A 1.3 1.3 0 0 1 831.3 326 Z" class="st4" style="fill: rgb(66, 1, 4);"/>
			<path d="M 831.3 364.200012 A 1.3 1.3 0 0 1 830 365.500012 A 1.3 1.3 0 0 1 828.7 364.200012 A 1.3 1.3 0 0 1 830 362.900012 A 1.3 1.3 0 0 1 831.3 364.200012 Z" class="st4" style="fill: rgb(66, 1, 4);"/>
			<path d="M 883.099988 364.200012 A 1.3 1.3 0 0 1 881.799988 365.500012 A 1.3 1.3 0 0 1 880.499988 364.200012 A 1.3 1.3 0 0 1 881.799988 362.900012 A 1.3 1.3 0 0 1 883.099988 364.200012 Z" class="st4" style="fill: rgb(66, 1, 4);"/>
			<path d="M 883.099988 326 A 1.3 1.3 0 0 1 881.799988 327.3 A 1.3 1.3 0 0 1 880.499988 326 A 1.3 1.3 0 0 1 881.799988 324.7 A 1.3 1.3 0 0 1 883.099988 326 Z" class="st4" style="fill: rgb(66, 1, 4);"/>
			<g>
				<path class="st4" d="M836.6,364.7c6.3,0,12.7,0,19,0c1.3,0,1.3-2,0-2c-6.3,0-12.7,0-19,0C835.3,362.7,835.3,364.7,836.6,364.7&#10;&#9;&#9;&#9;&#9;&#9;L836.6,364.7z" style="fill: rgb(66, 1, 4);"/>
			</g>
			<g>
				<path class="st4" d="M860,364.7c1.3,0,1.3-2,0-2C858.7,362.7,858.7,364.7,860,364.7L860,364.7z" style="fill: rgb(66, 1, 4);"/>
			</g>
			<g>
				<path class="st4" d="M863.8,364.7c1.3,0,1.3-2,0-2C862.5,362.7,862.5,364.7,863.8,364.7L863.8,364.7z" style="fill: rgb(66, 1, 4);"/>
			</g>
			<g>
				<path class="st4" d="M868.4,364.7c2.6,0,5.2,0,7.8,0c1.3,0,1.3-2,0-2c-2.6,0-5.2,0-7.8,0C867.1,362.7,867.1,364.7,868.4,364.7&#10;&#9;&#9;&#9;&#9;&#9;L868.4,364.7z" style="fill: rgb(66, 1, 4);"/>
			</g>
			<g>
				<path class="st4" d="M835.1,327c1.5,0,3,0,4.5,0c1.3,0,1.3-2,0-2c-1.5,0-3,0-4.5,0C833.8,325,833.8,327,835.1,327L835.1,327z" style="fill: rgb(66, 1, 4);"/>
			</g>
			<g>
				<path class="st4" d="M843.9,327c1.3,0,1.3-2,0-2C842.6,325,842.6,327,843.9,327L843.9,327z" style="fill: rgb(66, 1, 4);"/>
			</g>
			<g>
				<path class="st4" d="M847.5,327c1.3,0,1.3-2,0-2C846.2,325,846.2,327,847.5,327L847.5,327z" style="fill: rgb(66, 1, 4);"/>
			</g>
			<g>
				<path class="st4" d="M852.4,327c6.3,0,12.6,0,18.9,0c1.3,0,1.3-2,0-2c-6.3,0-12.6,0-18.9,0C851.1,325,851.1,327,852.4,327&#10;&#9;&#9;&#9;&#9;&#9;L852.4,327z" style="fill: rgb(66, 1, 4);"/>
			</g>
			<g>
				<path class="st4" d="M875.6,327c1.3,0,1.3-2,0-2C874.3,325,874.3,327,875.6,327L875.6,327z" style="fill: rgb(66, 1, 4);"/>
			</g>
			<path d="M 855.900024 304.600006 L 855.900024 316.600006" class="st2" style="fill: none; stroke: rgb(66, 1, 4); stroke-width: 4; stroke-miterlimit: 10;"/>
			<path d="M 855.599976 335.399994 L 855.599976 354.799988" class="st2" style="fill: none; stroke: rgb(66, 1, 4); stroke-width: 4; stroke-miterlimit: 10;"/>
			<path d="M 855.900024 373.600006 L 855.900024 384" class="st2" style="fill: none; stroke: rgb(66, 1, 4); stroke-width: 4; stroke-miterlimit: 10;"/>
			<g>
				<path class="st4" d="M840.9,351.1c1.3,0,1.3-2,0-2C839.6,349.1,839.6,351.1,840.9,351.1L840.9,351.1z" style="fill: rgb(66, 1, 4);"/>
			</g>
			<g>
				<path class="st4" d="M842.1,347c1.3,0,1.3-2,0-2C840.8,345,840.8,347,842.1,347L842.1,347z" style="fill: rgb(66, 1, 4);"/>
			</g>
			<g>
				<path class="st4" d="M844.3,351c1.3,0,1.3-2,0-2C843,349,843,351,844.3,351L844.3,351z" style="fill: rgb(66, 1, 4);"/>
			</g>
			<g>
				<path class="st4" d="M868.7,337.3c0,1.9,0.1,3.8,0.1,5.7c0,1.3,2,1.3,2,0c0-1.9-0.1-3.8-0.1-5.7&#10;&#9;&#9;&#9;&#9;&#9;C870.6,336,868.6,336,868.7,337.3L868.7,337.3z" style="fill: rgb(66, 1, 4);"/>
			</g>
			<g>
				<path class="st4" d="M869.6,349.5c1.3,0,1.3-2,0-2C868.3,347.5,868.3,349.5,869.6,349.5L869.6,349.5z" style="fill: rgb(66, 1, 4);"/>
			</g>
			<g>
				<path class="st4" d="M829.1,310.3c17.9,0,35.8,0,53.7,0c1.3,0,1.3-2,0-2c-17.9,0-35.8,0-53.7,0&#10;&#9;&#9;&#9;&#9;&#9;C827.8,308.3,827.8,310.3,829.1,310.3L829.1,310.3z" style="fill: rgb(66, 1, 4);"/>
			</g>
			<g>
				<path class="st4" d="M846.9,313.5c1.3,0,1.3-2,0-2C845.6,311.5,845.6,313.5,846.9,313.5L846.9,313.5z" style="fill: rgb(66, 1, 4);"/>
			</g>
			<g>
				<path class="st4" d="M846.9,380.3c1.3,0,1.3-2,0-2C845.6,378.3,845.6,380.3,846.9,380.3L846.9,380.3z" style="fill: rgb(66, 1, 4);"/>
			</g>
			<g>
				<path class="st4" d="M884.9,342.4c0.3,1.6,0.4,3.2,0.2,4.7c-0.1,1.3,1.9,1.3,2,0c0.2-1.8,0-3.5-0.3-5.3&#10;&#9;&#9;&#9;&#9;&#9;C886.5,340.6,884.6,341.1,884.9,342.4L884.9,342.4z" style="fill: rgb(66, 1, 4);"/>
			</g>
			<g>
				<path class="st4" d="M885.9,351.5c1.3,0,1.3-2,0-2C884.6,349.5,884.6,351.5,885.9,351.5L885.9,351.5z" style="fill: rgb(66, 1, 4);"/>
			</g>
			<g>
				<path d="M 834.400024 303.700012 L 834.400024 294.700012 L 848.700012 294.700012 L 848.700012 303.700012" class="st8" style="fill: none; stroke: rgb(66, 1, 4); stroke-width: 4; stroke-linejoin: round; stroke-miterlimit: 10;"/>
				<path d="M 848.700012 303.700012 L 848.700012 294.700012 L 863.099976 294.700012 L 863.099976 303.700012" class="st8" style="fill: none; stroke: rgb(66, 1, 4); stroke-width: 4; stroke-linejoin: round; stroke-miterlimit: 10;"/>
				<path d="M 863.099976 303.700012 L 863.099976 294.700012 L 877.5 294.700012 L 877.5 303.700012" class="st8" style="fill: none; stroke: rgb(66, 1, 4); stroke-width: 4; stroke-linejoin: round; stroke-miterlimit: 10;"/>
			</g>
			<g>
				<path class="st4" d="M838.3,300c1.3,0,1.3-2,0-2C837,298,837,300,838.3,300L838.3,300z" style="fill: rgb(66, 1, 4);"/>
			</g>
			<g>
				<path class="st4" d="M852.9,300c1.3,0,1.3-2,0-2C851.6,298,851.6,300,852.9,300L852.9,300z" style="fill: rgb(66, 1, 4);"/>
			</g>
			<g>
				<path class="st4" d="M867.6,300c1.3,0,1.3-2,0-2C866.3,298,866.3,300,867.6,300L867.6,300z" style="fill: rgb(66, 1, 4);"/>
			</g>
		</g>
		<g>
			<path d="M 1012.4000244140625 339.29998779296875 L 1012.4000244140625 375.1000061035156 L 1004.0999755859375 384 L 987.5999755859375 384 L 971 384 L 962.7999877929688 375.1000061035156 L 962.7999877929688 339.29998779296875 L 962.7999877929688 303.6000061035156 L 971 294.70001220703125 L 987.5999755859375 294.70001220703125 L 1004.0999755859375 294.70001220703125 L 1012.4000244140625 303.6000061035156 Z" class="st2" style="fill: none; stroke: rgb(66, 1, 4); stroke-width: 4; stroke-miterlimit: 10;"/>
			<path d="M 962.799988 303.600006 L 1012.400024 303.600006" class="st2" style="fill: none; stroke: rgb(66, 1, 4); stroke-width: 4; stroke-miterlimit: 10;"/>
			<path d="M 962.799988 375.100006 L 1012.400024 375.100006" class="st2" style="fill: none; stroke: rgb(66, 1, 4); stroke-width: 4; stroke-miterlimit: 10;"/>
			<path d="M 973.900024 384 L 973.900024 294.700012" class="st2" style="fill: none; stroke: rgb(66, 1, 4); stroke-width: 4; stroke-miterlimit: 10;"/>
			<path d="M 1001.299988 294.700012 L 1001.299988 384" class="st2" style="fill: none; stroke: rgb(66, 1, 4); stroke-width: 4; stroke-miterlimit: 10;"/>
			<g>
				<path class="st4" d="M982.2,365.2c0-6.9,0-13.8,0-20.8c0-1.9-3-1.9-3,0c0,6.9,0,13.8,0,20.8&#10;&#9;&#9;&#9;&#9;&#9;C979.2,367.1,982.2,367.2,982.2,365.2L982.2,365.2z" style="fill: rgb(66, 1, 4);"/>
			</g>
			<g>
				<path class="st4" d="M980.7,338c1.9,0,1.9-3,0-3C978.7,335,978.7,338,980.7,338L980.7,338z" style="fill: rgb(66, 1, 4);"/>
			</g>
			<g>
				<path class="st4" d="M980.7,331.5c1.9,0,1.9-3,0-3C978.7,328.5,978.7,331.5,980.7,331.5L980.7,331.5z" style="fill: rgb(66, 1, 4);"/>
			</g>
			<g>
				<path class="st4" d="M982.2,321.2c0-2.4,0-4.8,0-7.3c0-1.9-3-1.9-3,0c0,2.4,0,4.8,0,7.3C979.2,323.1,982.2,323.2,982.2,321.2&#10;&#9;&#9;&#9;&#9;&#9;L982.2,321.2z" style="fill: rgb(66, 1, 4);"/>
			</g>
		</g>
		<g>
			<path class="st2" d="M491.7,480.1H368.4c-2.2,0-4-1.8-4-4v-9.2c0-2.2,1.8-4,4-4h123.4c2.2,0,4,1.8,4,4v9.2&#10;&#9;&#9;&#9;&#9;C495.7,478.3,493.9,480.1,491.7,480.1z" style="fill: none; stroke: rgb(66, 1, 4); stroke-width: 4; stroke-miterlimit: 10;"/>
			<path d="M 488 480.100006 L 477 528.299988 L 430 528.299988 L 383.100006 528.299988 L 372.100006 480.100006" class="st2" style="fill: none; stroke: rgb(66, 1, 4); stroke-width: 4; stroke-miterlimit: 10;"/>
			<path d="M 392.100006 521.299988 L 382.600006 480.100006" class="st2" style="fill: none; stroke: rgb(66, 1, 4); stroke-width: 4; stroke-miterlimit: 10;"/>
			<path d="M 401.5 521.299988 L 392.100006 480.100006" class="st2" style="fill: none; stroke: rgb(66, 1, 4); stroke-width: 4; stroke-miterlimit: 10;"/>
			<path d="M 410.899994 521.299988 L 401.5 480.100006" class="st2" style="fill: none; stroke: rgb(66, 1, 4); stroke-width: 4; stroke-miterlimit: 10;"/>
			<path d="M 420.399994 521.299988 L 410.899994 480.100006" class="st2" style="fill: none; stroke: rgb(66, 1, 4); stroke-width: 4; stroke-miterlimit: 10;"/>
			<path d="M 429.799988 521.299988 L 420.399994 480.100006" class="st2" style="fill: none; stroke: rgb(66, 1, 4); stroke-width: 4; stroke-miterlimit: 10;"/>
			<path d="M 439.299988 521.299988 L 429.799988 480.100006" class="st2" style="fill: none; stroke: rgb(66, 1, 4); stroke-width: 4; stroke-miterlimit: 10;"/>
			<path d="M 448.700012 521.299988 L 439.299988 480.100006" class="st2" style="fill: none; stroke: rgb(66, 1, 4); stroke-width: 4; stroke-miterlimit: 10;"/>
			<path d="M 458.100006 521.299988 L 448.700012 480.100006" class="st2" style="fill: none; stroke: rgb(66, 1, 4); stroke-width: 4; stroke-miterlimit: 10;"/>
			<path d="M 467.600006 521.299988 L 458.100006 480.100006" class="st2" style="fill: none; stroke: rgb(66, 1, 4); stroke-width: 4; stroke-miterlimit: 10;"/>
			<path d="M 477 521.299988 L 467.600006 480.100006" class="st2" style="fill: none; stroke: rgb(66, 1, 4); stroke-width: 4; stroke-miterlimit: 10;"/>
			<path d="M 482.5 504.200012 L 477 480.100006" class="st2" style="fill: none; stroke: rgb(66, 1, 4); stroke-width: 4; stroke-miterlimit: 10;"/>
			<path d="M 364.700012 469.200012 L 495.200012 469.200012" class="st2" style="fill: none; stroke: rgb(66, 1, 4); stroke-width: 4; stroke-miterlimit: 10;"/>
			<path d="M 408.000012 535.599976 A 7.3 7.3 0 0 1 400.700012 542.899976 A 7.3 7.3 0 0 1 393.400012 535.599976 A 7.3 7.3 0 0 1 400.700012 528.299975 A 7.3 7.3 0 0 1 408.000012 535.599976 Z" class="st2" style="fill: none; stroke: rgb(66, 1, 4); stroke-width: 4; stroke-miterlimit: 10;"/>
			<path d="M 402.300012 535.599976 A 1.6 1.6 0 0 1 400.700012 537.199976 A 1.6 1.6 0 0 1 399.100012 535.599976 A 1.6 1.6 0 0 1 400.700012 533.999976 A 1.6 1.6 0 0 1 402.300012 535.599976 Z" class="st4" style="fill: rgb(66, 1, 4);"/>
			<path d="M 466.699994 535.599976 A 7.3 7.3 0 0 1 459.399994 542.899976 A 7.3 7.3 0 0 1 452.099994 535.599976 A 7.3 7.3 0 0 1 459.399994 528.299975 A 7.3 7.3 0 0 1 466.699994 535.599976 Z" class="st2" style="fill: none; stroke: rgb(66, 1, 4); stroke-width: 4; stroke-miterlimit: 10;"/>
			<path d="M 460.999994 535.599976 A 1.6 1.6 0 0 1 459.399994 537.199976 A 1.6 1.6 0 0 1 457.799994 535.599976 A 1.6 1.6 0 0 1 459.399994 533.999976 A 1.6 1.6 0 0 1 460.999994 535.599976 Z" class="st4" style="fill: rgb(66, 1, 4);"/>
			<path d="M 380.700012 521.299988 L 478.600006 521.299988" class="st2" style="fill: none; stroke: rgb(66, 1, 4); stroke-width: 4; stroke-miterlimit: 10;"/>
			<g>
				<path d="M 377.299988 453.700012 H 398.399988 V 462.200012 H 377.299988 V 453.700012 Z" class="st8" style="fill: none; stroke: rgb(66, 1, 4); stroke-width: 4; stroke-linejoin: round; stroke-miterlimit: 10;"/>
				<path d="M 398.399994 453.700012 H 419.499994 V 462.200012 H 398.399994 V 453.700012 Z" class="st8" style="fill: none; stroke: rgb(66, 1, 4); stroke-width: 4; stroke-linejoin: round; stroke-miterlimit: 10;"/>
				<path d="M 419.5 453.700012 H 440.6 V 462.200012 H 419.5 V 453.700012 Z" class="st8" style="fill: none; stroke: rgb(66, 1, 4); stroke-width: 4; stroke-linejoin: round; stroke-miterlimit: 10;"/>
				<path d="M 440.600006 453.700012 H 461.700006 V 462.200012 H 440.600006 V 453.700012 Z" class="st8" style="fill: none; stroke: rgb(66, 1, 4); stroke-width: 4; stroke-linejoin: round; stroke-miterlimit: 10;"/>
				<path d="M 461.700012 453.700012 H 482.800013 V 462.200012 H 461.700012 V 453.700012 Z" class="st8" style="fill: none; stroke: rgb(66, 1, 4); stroke-width: 4; stroke-linejoin: round; stroke-miterlimit: 10;"/>
			</g>
			<g>
				<path class="st4" d="M409.3,494.1c1.3,0,1.3-2,0-2C408,492.1,408,494.1,409.3,494.1L409.3,494.1z" style="fill: rgb(66, 1, 4);"/>
			</g>
			<g>
				<path class="st4" d="M423.7,516.6c1.3,0,1.3-2,0-2C422.5,514.6,422.5,516.6,423.7,516.6L423.7,516.6z" style="fill: rgb(66, 1, 4);"/>
			</g>
			<g>
				<path class="st4" d="M422.3,512.9c1.3,0,1.3-2,0-2C421,510.9,421,512.9,422.3,512.9L422.3,512.9z" style="fill: rgb(66, 1, 4);"/>
			</g>
			<g>
				<path class="st4" d="M454.6,488.6c1.3,0,1.3-2,0-2C453.3,486.6,453.3,488.6,454.6,488.6L454.6,488.6z" style="fill: rgb(66, 1, 4);"/>
			</g>
			<g>
				<path class="st4" d="M382.3,454.1c0,2.6,0,5.3,0,7.9c0,1.3,2,1.3,2,0c0-2.6,0-5.3,0-7.9C384.3,452.9,382.3,452.9,382.3,454.1&#10;&#9;&#9;&#9;&#9;&#9;L382.3,454.1z" style="fill: rgb(66, 1, 4);"/>
			</g>
			<g>
				<path class="st4" d="M404.3,454.1c0,2.6,0,5.3,0,7.9c0,1.3,2,1.3,2,0c0-2.6,0-5.3,0-7.9C406.3,452.9,404.3,452.9,404.3,454.1&#10;&#9;&#9;&#9;&#9;&#9;L404.3,454.1z" style="fill: rgb(66, 1, 4);"/>
			</g>
			<g>
				<path class="st4" d="M426.4,454.1c0,2.6,0,5.3,0,7.9c0,1.3,2,1.3,2,0c0-2.6,0-5.3,0-7.9C428.4,452.9,426.4,452.9,426.4,454.1&#10;&#9;&#9;&#9;&#9;&#9;L426.4,454.1z" style="fill: rgb(66, 1, 4);"/>
			</g>
			<g>
				<path class="st4" d="M448.4,454.1c0,2.6,0,5.3,0,7.9c0,1.3,2,1.3,2,0c0-2.6,0-5.3,0-7.9C450.4,452.9,448.4,452.9,448.4,454.1&#10;&#9;&#9;&#9;&#9;&#9;L448.4,454.1z" style="fill: rgb(66, 1, 4);"/>
			</g>
			<g>
				<path class="st4" d="M470.5,454.1c0,2.6,0,5.3,0,7.9c0,1.3,2,1.3,2,0c0-2.6,0-5.3,0-7.9C472.5,452.9,470.5,452.9,470.5,454.1&#10;&#9;&#9;&#9;&#9;&#9;L470.5,454.1z" style="fill: rgb(66, 1, 4);"/>
			</g>
		</g>
		<g>
			<path class="st2" d="M612.5,465.8c16,0,32.4,8.6,34,9.8c1.6,1.3,5.7,3.3,6.6,1.6c0.8-1.6-0.6-3.8-0.6-3.8&#10;&#9;&#9;&#9;&#9;c-14.3-17.5-40-19.8-40-19.8h-11.8c0,0-25.7,2.3-40,19.8c0,0-1.4,2.1-0.6,3.8c0.8,1.6,4.9-0.4,6.6-1.6c1.6-1.3,18.1-9.8,34-9.8&#10;&#9;&#9;&#9;&#9;H612.5z" style="fill: none; stroke: rgb(66, 1, 4); stroke-width: 4; stroke-miterlimit: 10;"/>
			<path class="st2" d="M601.1,453.7v-1.6c0-3,2.5-5.5,5.5-5.5c1.5,0,2.9,0.6,3.9,1.6c1,1,1.6,2.4,1.6,3.9v1.6" style="fill: none; stroke: rgb(66, 1, 4); stroke-width: 4; stroke-miterlimit: 10;"/>
			<path class="st2" d="M612.1,465.8v71.7c0,3-2.5,5.5-5.5,5.5c-3,0-5.5-2.5-5.5-5.5v-71.7" style="fill: none; stroke: rgb(66, 1, 4); stroke-width: 4; stroke-miterlimit: 10;"/>
			<g>
				<path class="st4" d="M597.8,461.9c1.3,0,1.3-2,0-2C596.5,459.9,596.5,461.9,597.8,461.9L597.8,461.9z" style="fill: rgb(66, 1, 4);"/>
			</g>
			<g>
				<path class="st4" d="M606.6,506.5c0-4,0-8.1,0-12.1c0-1.3-2-1.3-2,0c0,4,0,8.1,0,12.1C604.6,507.8,606.6,507.8,606.6,506.5&#10;&#9;&#9;&#9;&#9;&#9;L606.6,506.5z" style="fill: rgb(66, 1, 4);"/>
			</g>
			<g>
				<path class="st4" d="M605.6,491c1.3,0,1.3-2,0-2C604.3,489,604.3,491,605.6,491L605.6,491z" style="fill: rgb(66, 1, 4);"/>
			</g>
			<g>
				<path class="st4" d="M605.6,486.9c1.3,0,1.3-2,0-2C604.3,484.9,604.3,486.9,605.6,486.9L605.6,486.9z" style="fill: rgb(66, 1, 4);"/>
			</g>
			<g>
				<path class="st4" d="M601.1,459.3c1.3,0,1.3-2,0-2C599.9,457.3,599.9,459.3,601.1,459.3L601.1,459.3z" style="fill: rgb(66, 1, 4);"/>
			</g>
			<g>
				<path class="st4" d="M603,462.1c1.3,0,1.3-2,0-2C601.7,460.1,601.7,462.1,603,462.1L603,462.1z" style="fill: rgb(66, 1, 4);"/>
			</g>
		</g>
		<g>
			<path class="st2" d="M725.5,543h-8.5c-1.9,0-3.4-1.5-3.4-3.4v-82.3c0-1.9,1.5-3.4,3.4-3.4h8.5c1.9,0,3.4,1.5,3.4,3.4v82.3&#10;&#9;&#9;&#9;&#9;C728.9,541.5,727.4,543,725.5,543z" style="fill: none; stroke: rgb(66, 1, 4); stroke-width: 4; stroke-miterlimit: 10;"/>
			<path class="st2" d="M740.9,543h-8.5c-1.9,0-3.4-1.5-3.4-3.4v-82.3c0-1.9,1.5-3.4,3.4-3.4h8.5c1.9,0,3.4,1.5,3.4,3.4v82.3&#10;&#9;&#9;&#9;&#9;C744.3,541.5,742.8,543,740.9,543z" style="fill: none; stroke: rgb(66, 1, 4); stroke-width: 4; stroke-miterlimit: 10;"/>
			<path class="st2" d="M756.3,543h-8.5c-1.9,0-3.4-1.5-3.4-3.4v-82.3c0-1.9,1.5-3.4,3.4-3.4h8.5c1.9,0,3.4,1.5,3.4,3.4v82.3&#10;&#9;&#9;&#9;&#9;C759.7,541.5,758.2,543,756.3,543z" style="fill: none; stroke: rgb(66, 1, 4); stroke-width: 4; stroke-miterlimit: 10;"/>
			<g>
				<path class="st4" d="M738.9,453.5c-0.1-1.9-0.7-3.4-1.6-5.1c-1-2-3.3-5.6-0.1-7c1.8-0.8,0.2-3.4-1.5-2.6&#10;&#9;&#9;&#9;&#9;&#9;c-2.2,0.9-3.2,3.2-3.1,5.5c0.2,3.4,3.1,5.8,3.3,9.2C736.1,455.4,739.1,455.4,738.9,453.5L738.9,453.5z" style="fill: rgb(66, 1, 4);"/>
			</g>
			<g>
				<path class="st4" d="M729.5,434c-1.1-0.3-2.1-1-2.7-1.9c-0.5-0.7-1.3-1-2.1-0.5c-0.6,0.4-1,1.4-0.5,2.1c1.2,1.6,2.6,2.7,4.5,3.3&#10;&#9;&#9;&#9;&#9;&#9;C730.5,437.4,731.3,434.5,729.5,434L729.5,434z" style="fill: rgb(66, 1, 4);"/>
			</g>
			<g>
				<path class="st4" d="M738.2,432.8c0.4-1.1,0.8-2.2,1.2-3.3c0.3-0.8-0.3-1.6-1-1.8c-0.8-0.2-1.6,0.3-1.8,1&#10;&#9;&#9;&#9;&#9;&#9;c-0.4,1.1-0.8,2.2-1.2,3.3c-0.3,0.8,0.3,1.6,1,1.8C737.2,434.1,737.9,433.6,738.2,432.8L738.2,432.8z" style="fill: rgb(66, 1, 4);"/>
			</g>
			<g>
				<path class="st4" d="M744.1,439.1c1.1,0,2.2,0,3.3,0c1.9,0,1.9-3,0-3c-1.1,0-2.2,0-3.3,0C742.2,436.1,742.2,439.1,744.1,439.1&#10;&#9;&#9;&#9;&#9;&#9;L744.1,439.1z" style="fill: rgb(66, 1, 4);"/>
			</g>
			<g>
				<path class="st4" d="M719.1,464.6c0,4.6,0,9.2,0,13.9c0,1.9,3,1.9,3,0c0-4.6,0-9.2,0-13.9C722.1,462.7,719.1,462.7,719.1,464.6&#10;&#9;&#9;&#9;&#9;&#9;L719.1,464.6z" style="fill: rgb(66, 1, 4);"/>
			</g>
			<g>
				<path class="st4" d="M720.6,487.9c1.9,0,1.9-3,0-3C718.7,484.9,718.7,487.9,720.6,487.9L720.6,487.9z" style="fill: rgb(66, 1, 4);"/>
			</g>
			<g>
				<path class="st4" d="M734.3,464.6c0,4.6,0,9.2,0,13.9c0,1.9,3,1.9,3,0c0-4.6,0-9.2,0-13.9C737.3,462.7,734.3,462.7,734.3,464.6&#10;&#9;&#9;&#9;&#9;&#9;L734.3,464.6z" style="fill: rgb(66, 1, 4);"/>
			</g>
			<g>
				<path class="st4" d="M735.8,487.9c1.9,0,1.9-3,0-3C733.9,484.9,733.8,487.9,735.8,487.9L735.8,487.9z" style="fill: rgb(66, 1, 4);"/>
			</g>
			<g>
				<path class="st4" d="M749.5,464.6c0,4.6,0,9.2,0,13.9c0,1.9,3,1.9,3,0c0-4.6,0-9.2,0-13.9C752.5,462.7,749.5,462.7,749.5,464.6&#10;&#9;&#9;&#9;&#9;&#9;L749.5,464.6z" style="fill: rgb(66, 1, 4);"/>
			</g>
			<g>
				<path class="st4" d="M751,487.9c1.9,0,1.9-3,0-3C749,484.9,749,487.9,751,487.9L751,487.9z" style="fill: rgb(66, 1, 4);"/>
			</g>
		</g>
		<g>
			<path class="st2" d="M845.1,503.3v25.6c0,7.8,6.3,14.1,14.1,14.1h0c7.8,0,14.1-6.3,14.1-14.1v-68.1c0-7.8-6.3-14.1-14.1-14.1h0&#10;&#9;&#9;&#9;&#9;c-7.8,0-14.1,6.3-14.1,14.1v26.5" style="fill: none; stroke: rgb(66, 1, 4); stroke-width: 4; stroke-miterlimit: 10;"/>
			<g>
				<path class="st8" d="M845.1,487.3v16h-14.5c-7.4,0-12-6.1-12.7-12.1l-0.1-0.5v-19.3c0-4.4,3.6-8,8-8c4.4,0,8,3.6,8,8v15.8H845.1&#10;&#9;&#9;&#9;&#9;&#9;z" style="fill: none; stroke: rgb(66, 1, 4); stroke-width: 4; stroke-linejoin: round; stroke-miterlimit: 10;"/>
			</g>
			<g>
				<path class="st8" d="M873.2,509.7H884v-21.3c0-2.8,2.2-5,5-5s5,2.2,5,5v23.5l0,0.3c-0.4,3.8-3.3,7.5-7.9,7.5h-12.8" style="fill: none; stroke: rgb(66, 1, 4); stroke-width: 4; stroke-linejoin: round; stroke-miterlimit: 10;"/>
			</g>
			<path d="M 851.599976 458 L 851.599976 475.299988" class="st5" style="fill: none; stroke: rgb(66, 1, 4); stroke-width: 3; stroke-linecap: round; stroke-miterlimit: 10;"/>
			<path d="M 851.599976 482 L 851.599976 484.5" class="st5" style="fill: none; stroke: rgb(66, 1, 4); stroke-width: 3; stroke-linecap: round; stroke-miterlimit: 10;"/>
			<path d="M 852.200012 491.700012 L 852.200012 519.700012" class="st5" style="fill: none; stroke: rgb(66, 1, 4); stroke-width: 3; stroke-linecap: round; stroke-miterlimit: 10;"/>
			<path d="M 851.599976 527.5 L 851.599976 530.5" class="st5" style="fill: none; stroke: rgb(66, 1, 4); stroke-width: 3; stroke-linecap: round; stroke-miterlimit: 10;"/>
			<path d="M 866.799988 458 L 866.799988 475.299988" class="st5" style="fill: none; stroke: rgb(66, 1, 4); stroke-width: 3; stroke-linecap: round; stroke-miterlimit: 10;"/>
			<path d="M 866.799988 482 L 866.799988 484.5" class="st5" style="fill: none; stroke: rgb(66, 1, 4); stroke-width: 3; stroke-linecap: round; stroke-miterlimit: 10;"/>
			<path d="M 866.099976 491.700012 L 866.099976 519.700012" class="st5" style="fill: none; stroke: rgb(66, 1, 4); stroke-width: 3; stroke-linecap: round; stroke-miterlimit: 10;"/>
			<path d="M 866.799988 527.5 L 866.799988 530.5" class="st5" style="fill: none; stroke: rgb(66, 1, 4); stroke-width: 3; stroke-linecap: round; stroke-miterlimit: 10;"/>
			<path d="M 859.200012 535.799988 L 859.200012 516.200012" class="st5" style="fill: none; stroke: rgb(66, 1, 4); stroke-width: 3; stroke-linecap: round; stroke-miterlimit: 10;"/>
			<path d="M 859.200012 508.799988 L 859.200012 505.700012" class="st5" style="fill: none; stroke: rgb(66, 1, 4); stroke-width: 3; stroke-linecap: round; stroke-miterlimit: 10;"/>
			<path d="M 859.200012 499.200012 L 859.200012 485.700012" class="st5" style="fill: none; stroke: rgb(66, 1, 4); stroke-width: 3; stroke-linecap: round; stroke-miterlimit: 10;"/>
			<path d="M 859.200012 478.700012 L 859.200012 466.700012" class="st5" style="fill: none; stroke: rgb(66, 1, 4); stroke-width: 3; stroke-linecap: round; stroke-miterlimit: 10;"/>
			<path d="M 859.200012 459.799988 L 859.200012 452.299988" class="st5" style="fill: none; stroke: rgb(66, 1, 4); stroke-width: 3; stroke-linecap: round; stroke-miterlimit: 10;"/>
			<path d="M 823.799988 472.700012 L 823.799988 482" class="st5" style="fill: none; stroke: rgb(66, 1, 4); stroke-width: 3; stroke-linecap: round; stroke-miterlimit: 10;"/>
			<path d="M 823.799988 488 L 823.799988 492.399994" class="st5" style="fill: none; stroke: rgb(66, 1, 4); stroke-width: 3; stroke-linecap: round; stroke-miterlimit: 10;"/>
			<path d="M 838.099976 488.600006 L 838.099976 493" class="st5" style="fill: none; stroke: rgb(66, 1, 4); stroke-width: 3; stroke-linecap: round; stroke-miterlimit: 10;"/>
			<path d="M 831.5 498.5 L 831.5 494.399994" class="st5" style="fill: none; stroke: rgb(66, 1, 4); stroke-width: 3; stroke-linecap: round; stroke-miterlimit: 10;"/>
			<path d="M 840.5 501.600006 L 840.5 498.5" class="st5" style="fill: none; stroke: rgb(66, 1, 4); stroke-width: 3; stroke-linecap: round; stroke-miterlimit: 10;"/>
			<path d="M 887.900024 493 L 887.900024 494.899994" class="st5" style="fill: none; stroke: rgb(66, 1, 4); stroke-width: 3; stroke-linecap: round; stroke-miterlimit: 10;"/>
			<path d="M 891.200012 504.200012 L 891.200012 506.600006" class="st5" style="fill: none; stroke: rgb(66, 1, 4); stroke-width: 3; stroke-linecap: round; stroke-miterlimit: 10;"/>
			<path d="M 879.099976 516.700012 L 879.099976 518.099976" class="st5" style="fill: none; stroke: rgb(66, 1, 4); stroke-width: 3; stroke-linecap: round; stroke-miterlimit: 10;"/>
			<path d="M 887.599976 513.700012 L 887.599976 514.599976" class="st5" style="fill: none; stroke: rgb(66, 1, 4); stroke-width: 3; stroke-linecap: round; stroke-miterlimit: 10;"/>
		</g>
		<g>
			<path class="st8" d="M972.3,530.1v-11.7c0-3.9,3.2-7.1,7.1-7.1h16.2c3.9,0,7.1,3.2,7.1,7.1v11.7" style="fill: none; stroke: rgb(66, 1, 4); stroke-width: 4; stroke-linejoin: round; stroke-miterlimit: 10;"/>
			<path class="st9" d="M995.8,531.3h10.7c0,0,9.1,0.5,9.1,11.7h-28c0,0-28,0-28,0c0-11.1,9.1-11.7,9.1-11.7h10.7" style="fill: none; stroke: rgb(66, 1, 4); stroke-width: 4; stroke-linecap: round; stroke-linejoin: round; stroke-miterlimit: 10;"/>
			<path d="M 995.700012 511.200012 L 1003.799988 473 L 987.599976 453.700012 L 971.400024 473 L 979.5 511.200012" class="st9" style="fill: none; stroke: rgb(66, 1, 4); stroke-width: 4; stroke-linecap: round; stroke-linejoin: round; stroke-miterlimit: 10;"/>
			<path d="M 987.599976 453.700012 L 987.599976 511.200012" class="st9" style="fill: none; stroke: rgb(66, 1, 4); stroke-width: 4; stroke-linecap: round; stroke-linejoin: round; stroke-miterlimit: 10;"/>
			<path d="M 971.400024 473 L 987.599976 483.399994 L 1003.799988 473" class="st9" style="fill: none; stroke: rgb(66, 1, 4); stroke-width: 4; stroke-linecap: round; stroke-linejoin: round; stroke-miterlimit: 10;"/>
			<path d="M 967.200012 531.599976 L 957.400024 506.5 L 963.099976 490.299988 L 976.400024 496.600006" class="st9" style="fill: none; stroke: rgb(66, 1, 4); stroke-width: 4; stroke-linecap: round; stroke-linejoin: round; stroke-miterlimit: 10;"/>
			<path d="M 963.400024 491.700012 L 973.400024 514.599976" class="st9" style="fill: none; stroke: rgb(66, 1, 4); stroke-width: 4; stroke-linecap: round; stroke-linejoin: round; stroke-miterlimit: 10;"/>
			<path d="M 1008 531.599976 L 1017.799988 506.5 L 1012.099976 490.299988 L 998.799988 496.600006" class="st9" style="fill: none; stroke: rgb(66, 1, 4); stroke-width: 4; stroke-linecap: round; stroke-linejoin: round; stroke-miterlimit: 10;"/>
			<path d="M 1011.799988 491.700012 L 1001.700012 514.599976" class="st9" style="fill: none; stroke: rgb(66, 1, 4); stroke-width: 4; stroke-linecap: round; stroke-linejoin: round; stroke-miterlimit: 10;"/>
			<path d="M 957.400024 506.5 L 969.900024 506.600006 L 975.900024 498.799988" class="st9" style="fill: none; stroke: rgb(66, 1, 4); stroke-width: 4; stroke-linecap: round; stroke-linejoin: round; stroke-miterlimit: 10;"/>
			<path d="M 1017.799988 506.5 L 1005.299988 506.600006 L 999.200012 498.799988" class="st9" style="fill: none; stroke: rgb(66, 1, 4); stroke-width: 4; stroke-linecap: round; stroke-linejoin: round; stroke-miterlimit: 10;"/>
			<g>
				<path class="st4" d="M964.4,513.1c1.3,0,1.3-2,0-2C963.2,511.1,963.2,513.1,964.4,513.1L964.4,513.1z" style="fill: rgb(66, 1, 4);"/>
			</g>
			<g>
				<path class="st4" d="M965.2,516c2,3.6,3.8,7.3,5.4,11.1c0.5,1.2,2.2,0.2,1.7-1c-1.6-3.8-3.4-7.5-5.4-11.1&#10;&#9;&#9;&#9;&#9;&#9;C966.3,513.9,964.6,514.9,965.2,516L965.2,516z" style="fill: rgb(66, 1, 4);"/>
			</g>
			<g>
				<path class="st4" d="M979.4,486.5c1.3,0,1.3-2,0-2C978.1,484.5,978.1,486.5,979.4,486.5L979.4,486.5z" style="fill: rgb(66, 1, 4);"/>
			</g>
			<g>
				<path class="st4" d="M979.9,491c0.8,2.7,1.4,5.5,2,8.3c0.3,1.3,2.2,0.7,1.9-0.5c-0.6-2.8-1.3-5.6-2-8.3&#10;&#9;&#9;&#9;&#9;&#9;C981.5,489.3,979.6,489.8,979.9,491L979.9,491z" style="fill: rgb(66, 1, 4);"/>
			</g>
			<g>
				<path class="st4" d="M1010.7,513.1c1.3,0,1.3-2,0-2C1009.4,511.1,1009.4,513.1,1010.7,513.1L1010.7,513.1z" style="fill: rgb(66, 1, 4);"/>
			</g>
			<g>
				<path class="st4" d="M1008.2,515c-2,3.6-3.8,7.3-5.4,11.1c-0.5,1.2,1.2,2.2,1.7,1c1.6-3.8,3.4-7.5,5.4-11.1&#10;&#9;&#9;&#9;&#9;&#9;C1010.6,514.9,1008.9,513.9,1008.2,515L1008.2,515z" style="fill: rgb(66, 1, 4);"/>
			</g>
			<g>
				<path class="st4" d="M995.8,486.5c1.3,0,1.3-2,0-2C994.5,484.5,994.5,486.5,995.8,486.5L995.8,486.5z" style="fill: rgb(66, 1, 4);"/>
			</g>
			<g>
				<path class="st4" d="M993.3,490.5c-0.8,2.7-1.4,5.5-2,8.3c-0.3,1.3,1.7,1.8,1.9,0.5c0.6-2.8,1.3-5.6,2-8.3&#10;&#9;&#9;&#9;&#9;&#9;C995.6,489.8,993.7,489.3,993.3,490.5L993.3,490.5z" style="fill: rgb(66, 1, 4);"/>
			</g>
			<g>
				<path class="st4" d="M973.1,521.2c2.6,0,5.2,0,7.8,0c1.3,0,1.3-2,0-2c-2.6,0-5.2,0-7.8,0C971.8,519.2,971.8,521.2,973.1,521.2&#10;&#9;&#9;&#9;&#9;&#9;L973.1,521.2z" style="fill: rgb(66, 1, 4);"/>
			</g>
			<g>
				<path class="st4" d="M986.5,521.2c1.3,0,1.3-2,0-2C985.2,519.2,985.2,521.2,986.5,521.2L986.5,521.2z" style="fill: rgb(66, 1, 4);"/>
			</g>
			<g>
				<path class="st4" d="M991.9,521.2c1.3,0,1.3-2,0-2C990.6,519.2,990.6,521.2,991.9,521.2L991.9,521.2z" style="fill: rgb(66, 1, 4);"/>
			</g>
			<g>
				<path class="st4" d="M990.9,526.5c2.1,0,4.2,0,6.3,0c1.3,0,1.3-2,0-2c-2.1,0-4.2,0-6.3,0C989.6,524.5,989.6,526.5,990.9,526.5&#10;&#9;&#9;&#9;&#9;&#9;L990.9,526.5z" style="fill: rgb(66, 1, 4);"/>
			</g>
			<g>
				<path class="st4" d="M973.3,538c1.3,0,1.3-2,0-2C972,536,972,538,973.3,538L973.3,538z" style="fill: rgb(66, 1, 4);"/>
			</g>
			<g>
				<path class="st4" d="M977.4,538c1.3,0,1.3-2,0-2C976.1,536,976.1,538,977.4,538L977.4,538z" style="fill: rgb(66, 1, 4);"/>
			</g>
			<g>
				<path class="st4" d="M981.5,538c1.3,0,1.3-2,0-2C980.2,536,980.2,538,981.5,538L981.5,538z" style="fill: rgb(66, 1, 4);"/>
			</g>
			<g>
				<path class="st4" d="M991.9,538c2.8,0,5.6,0,8.4,0c1.3,0,1.3-2,0-2c-2.8,0-5.6,0-8.4,0C990.6,536,990.6,538,991.9,538L991.9,538&#10;&#9;&#9;&#9;&#9;&#9;z" style="fill: rgb(66, 1, 4);"/>
			</g>
		</g>
		<g>
			<path d="M 864.0999755859375 619.5999755859375 L 839.0999755859375 615.2999877929688 L 824.0999755859375 629.2999877929688 L 827.7000122070312 648.2999877929688 L 841.7000122070312 656.7999877929688 L 857.2000122070312 644.2000122070312 Z" class="st2" style="fill: none; stroke: rgb(66, 1, 4); stroke-width: 4; stroke-miterlimit: 10;"/>
			<path d="M 844.299988 654.700012 L 842.299988 681.400024 L 875.599976 685.5 L 896.700012 663.5 L 891.099976 644.5" class="st2" style="fill: none; stroke: rgb(66, 1, 4); stroke-width: 4; stroke-miterlimit: 10;"/>
			<path d="M 856.900024 618.299988 L 865.700012 596.799988 L 899.299988 596.799988 L 910.200012 609.099976 L 903.099976 639.799988 L 879.400024 649.5 L 857.200012 644.200012" class="st2" style="fill: none; stroke: rgb(66, 1, 4); stroke-width: 4; stroke-miterlimit: 10;"/>
			<path d="M 865.700012 596.799988 L 878.900024 610.599976 L 896.700012 613.200012 L 910.200012 609.099976" class="st10" style="fill: none; stroke: rgb(66, 1, 4); stroke-width: 3; stroke-miterlimit: 10;"/>
			<path d="M 864.099976 619.599976 L 845.799988 630.5 L 833.799988 631.700012 L 824.099976 629.299988" class="st10" style="fill: none; stroke: rgb(66, 1, 4); stroke-width: 3; stroke-miterlimit: 10;"/>
			<path d="M 842.299988 681.400024 L 860.900024 665 L 875.900024 665 L 879.400024 649.5" class="st10" style="fill: none; stroke: rgb(66, 1, 4); stroke-width: 3; stroke-miterlimit: 10;"/>
			<path d="M 860.900024 665 L 852.5 648" class="st10" style="fill: none; stroke: rgb(66, 1, 4); stroke-width: 3; stroke-miterlimit: 10;"/>
			<path d="M 876.700012 661.599976 L 896.700012 663.5" class="st10" style="fill: none; stroke: rgb(66, 1, 4); stroke-width: 3; stroke-miterlimit: 10;"/>
			<path d="M 875.599976 685.5 L 868 665" class="st10" style="fill: none; stroke: rgb(66, 1, 4); stroke-width: 3; stroke-miterlimit: 10;"/>
			<path d="M 845.799988 630.5 L 857.200012 644.200012" class="st10" style="fill: none; stroke: rgb(66, 1, 4); stroke-width: 3; stroke-miterlimit: 10;"/>
			<path d="M 834.900024 631.5 L 827.700012 648.299988" class="st10" style="fill: none; stroke: rgb(66, 1, 4); stroke-width: 3; stroke-miterlimit: 10;"/>
			<path d="M 834.900024 652.700012 L 850.400024 636" class="st10" style="fill: none; stroke: rgb(66, 1, 4); stroke-width: 3; stroke-miterlimit: 10;"/>
			<path d="M 896.700012 613.200012 L 903.099976 639.799988" class="st10" style="fill: none; stroke: rgb(66, 1, 4); stroke-width: 3; stroke-miterlimit: 10;"/>
			<path d="M 878.900024 610.599976 L 862.099976 626.5" class="st10" style="fill: none; stroke: rgb(66, 1, 4); stroke-width: 3; stroke-miterlimit: 10;"/>
			<path d="M 879.400024 649.5 L 871.799988 617.299988" class="st10" style="fill: none; stroke: rgb(66, 1, 4); stroke-width: 3; stroke-miterlimit: 10;"/>
			<g>
				<path class="st4" d="M886,640.2c1.9,0,1.9-3,0-3C884,637.2,884,640.2,886,640.2L886,640.2z" style="fill: rgb(66, 1, 4);"/>
			</g>
			<g>
				<path class="st4" d="M892.8,638.4c1.9,0,1.9-3,0-3C890.9,635.4,890.9,638.4,892.8,638.4L892.8,638.4z" style="fill: rgb(66, 1, 4);"/>
			</g>
			<g>
				<path class="st4" d="M887.9,633.9c1.9,0,1.9-3,0-3C886,630.9,886,633.9,887.9,633.9L887.9,633.9z" style="fill: rgb(66, 1, 4);"/>
			</g>
			<g>
				<path class="st4" d="M895.1,606.2c1.9,0,1.9-3,0-3C893.2,603.2,893.2,606.2,895.1,606.2L895.1,606.2z" style="fill: rgb(66, 1, 4);"/>
			</g>
			<g>
				<path class="st4" d="M840.8,621.9c1.3,0,1.3-2,0-2C839.5,619.9,839.5,621.9,840.8,621.9L840.8,621.9z" style="fill: rgb(66, 1, 4);"/>
			</g>
			<g>
				<path class="st4" d="M857,678.2c1.7,0.4,3.5,0.7,5.2,0.8c1.3,0.1,1.3-1.9,0-2c-1.6-0.1-3.1-0.3-4.7-0.7&#10;&#9;&#9;&#9;&#9;&#9;C856.2,675.9,855.7,677.9,857,678.2L857,678.2z" style="fill: rgb(66, 1, 4);"/>
			</g>
			<g>
				<path class="st4" d="M866.1,679.6c1.3,0,1.3-2,0-2C864.8,677.6,864.8,679.6,866.1,679.6L866.1,679.6z" style="fill: rgb(66, 1, 4);"/>
			</g>
			<g>
				<path class="st4" d="M871,660.5c1.9,0,1.9-3,0-3C869.1,657.5,869.1,660.5,871,660.5L871,660.5z" style="fill: rgb(66, 1, 4);"/>
			</g>
		</g>
		<g>
			<path d="M 623.4000244140625 646.7000122070312 L 610.0999755859375 634.2999877929688 L 597 628.4000244140625 L 583 631.7000122070312 L 574.7000122070312 646.7000122070312 L 580.9000244140625 675.2999877929688 L 599 685.5 L 619.5999755859375 670.7999877929688 Z" class="st2" style="fill: none; stroke: rgb(66, 1, 4); stroke-width: 4; stroke-miterlimit: 10;"/>
			<path d="M 602.900024 631.099976 L 602.900024 620.900024 L 587.799988 604.200012 L 564.799988 608 L 557.5 638.599976 L 575.400024 649.700012" class="st2" style="fill: none; stroke: rgb(66, 1, 4); stroke-width: 4; stroke-miterlimit: 10;"/>
			<path d="M 594.700012 611.799988 L 617.599976 597.099976 L 635.5 607.400024 L 638.5 630 L 637 637.5 L 623.400024 646.700012" class="st2" style="fill: none; stroke: rgb(66, 1, 4); stroke-width: 4; stroke-miterlimit: 10;"/>
			<path d="M 583 631.700012 L 589.099976 649.700012 L 606.099976 654.599976 L 622.200012 646.700012" class="st10" style="fill: none; stroke: rgb(66, 1, 4); stroke-width: 3; stroke-miterlimit: 10;"/>
			<path d="M 606.099976 654.599976 L 619.599976 670.799988" class="st10" style="fill: none; stroke: rgb(66, 1, 4); stroke-width: 3; stroke-miterlimit: 10;"/>
			<path d="M 580.900024 675.299988 L 589.099976 649.700012" class="st10" style="fill: none; stroke: rgb(66, 1, 4); stroke-width: 3; stroke-miterlimit: 10;"/>
			<path d="M 599 685.5 L 586.200012 658.799988" class="st10" style="fill: none; stroke: rgb(66, 1, 4); stroke-width: 3; stroke-miterlimit: 10;"/>
			<path d="M 586 640.5 L 610.099976 634.299988" class="st10" style="fill: none; stroke: rgb(66, 1, 4); stroke-width: 3; stroke-miterlimit: 10;"/>
			<path d="M 564.799988 608 L 576.900024 625.400024 L 602.900024 620.900024" class="st10" style="fill: none; stroke: rgb(66, 1, 4); stroke-width: 3; stroke-miterlimit: 10;"/>
			<path d="M 577.200012 624.700012 L 564.799988 643.200012" class="st10" style="fill: none; stroke: rgb(66, 1, 4); stroke-width: 3; stroke-miterlimit: 10;"/>
			<path d="M 617.599976 597.099976 L 616.599976 618.299988 L 624.900024 625.400024 L 637.700012 623.799988" class="st10" style="fill: none; stroke: rgb(66, 1, 4); stroke-width: 3; stroke-miterlimit: 10;"/>
			<path d="M 624.900024 625.400024 L 623.400024 645.299988" class="st10" style="fill: none; stroke: rgb(66, 1, 4); stroke-width: 3; stroke-miterlimit: 10;"/>
			<path d="M 616.599976 618.299988 L 603.599976 630.200012" class="st10" style="fill: none; stroke: rgb(66, 1, 4); stroke-width: 3; stroke-miterlimit: 10;"/>
			<path d="M 600.599976 608 L 616.599976 618.299988" class="st10" style="fill: none; stroke: rgb(66, 1, 4); stroke-width: 3; stroke-miterlimit: 10;"/>
			<g>
				<path class="st4" d="M574.3,613.6c3-0.1,6-0.4,9-1.1c1.3-0.3,0.7-2.2-0.5-1.9c-2.8,0.6-5.6,0.9-8.5,1&#10;&#9;&#9;&#9;&#9;&#9;C573,611.6,573,613.6,574.3,613.6L574.3,613.6z" style="fill: rgb(66, 1, 4);"/>
			</g>
			<g>
				<path class="st4" d="M587.4,612c1.3,0,1.3-2,0-2C586.1,610,586.1,612,587.4,612L587.4,612z" style="fill: rgb(66, 1, 4);"/>
			</g>
			<g>
				<path class="st4" d="M565.6,630.8c1.3,0,1.3-2,0-2C564.3,628.8,564.3,630.8,565.6,630.8L565.6,630.8z" style="fill: rgb(66, 1, 4);"/>
			</g>
			<g>
				<path class="st4" d="M606.4,650c1.5-0.8,3.1-1.6,4.6-2.4c1.1-0.6,0.1-2.3-1-1.7c-1.5,0.8-3.1,1.6-4.6,2.4&#10;&#9;&#9;&#9;&#9;&#9;C604.2,648.9,605.2,650.6,606.4,650L606.4,650z" style="fill: rgb(66, 1, 4);"/>
			</g>
			<g>
				<path class="st4" d="M613.8,646.3c1.3,0,1.3-2,0-2C612.5,644.3,612.5,646.3,613.8,646.3L613.8,646.3z" style="fill: rgb(66, 1, 4);"/>
			</g>
			<g>
				<path class="st4" d="M622.2,607.4c1.7,1.1,3.4,2.2,5.2,3.3c1.1,0.7,2.1-1,1-1.7c-1.7-1.1-3.4-2.2-5.2-3.3&#10;&#9;&#9;&#9;&#9;&#9;C622.1,605,621.1,606.7,622.2,607.4L622.2,607.4z" style="fill: rgb(66, 1, 4);"/>
			</g>
			<g>
				<path class="st4" d="M631.1,613.3c1.3,0,1.3-2,0-2C629.9,611.3,629.9,613.3,631.1,613.3L631.1,613.3z" style="fill: rgb(66, 1, 4);"/>
			</g>
			<g>
				<path class="st4" d="M612.7,630.1c1.3,0,1.3-2,0-2C611.4,628.1,611.4,630.1,612.7,630.1L612.7,630.1z" style="fill: rgb(66, 1, 4);"/>
			</g>
			<g>
				<path class="st4" d="M616.6,626.6c1.3,0,1.3-2,0-2C615.3,624.6,615.3,626.6,616.6,626.6L616.6,626.6z" style="fill: rgb(66, 1, 4);"/>
			</g>
			<g>
				<path class="st4" d="M593.3,664c1.4,2.5,2.8,4.9,4.2,7.4c0.6,1.1,2.4,0.1,1.7-1c-1.4-2.5-2.8-4.9-4.2-7.4&#10;&#9;&#9;&#9;&#9;&#9;C594.4,661.9,592.7,662.9,593.3,664L593.3,664z" style="fill: rgb(66, 1, 4);"/>
			</g>
			<g>
				<path class="st4" d="M600.5,675.7c1.3,0,1.3-2,0-2C599.2,673.7,599.2,675.7,600.5,675.7L600.5,675.7z" style="fill: rgb(66, 1, 4);"/>
			</g>
		</g>
		<g>
			<path d="M 950.2999877929688 667.7000122070312 L 955.2000122070312 643.7999877929688 L 965.2999877929688 633.2999877929688 L 978.7999877929688 627.2999877929688 L 999.7999877929688 637.5 L 1009 658.7999877929688 L 996.7999877929688 677.2000122070312 L 969.2000122070312 685.5 Z" class="st2" style="fill: none; stroke: rgb(66, 1, 4); stroke-width: 4; stroke-miterlimit: 10;"/>
			<path d="M 969.400024 631.5 L 965.900024 624.099976 L 973.900024 603.099976 L 995.700012 603.099976 L 1007.299988 614.400024 L 1007.299988 628.799988 L 999.799988 637.5" class="st2" style="fill: none; stroke: rgb(66, 1, 4); stroke-width: 4; stroke-miterlimit: 10;"/>
			<path d="M 1024 631.7999877929688 L 1015.2000122070312 639.2999877929688 L 1017.5 652.2999877929688 L 1026.5 658.5 L 1041.300048828125 650.5999755859375 L 1039 637.5 L 1026.300048828125 630.7000122070312 Z" class="st2" style="fill: none; stroke: rgb(66, 1, 4); stroke-width: 4; stroke-miterlimit: 10;"/>
			<path d="M 973.900024 603.099976 L 981.400024 615.5 L 990.099976 618.299988 L 1007.299988 614.400024" class="st10" style="fill: none; stroke: rgb(66, 1, 4); stroke-width: 3; stroke-miterlimit: 10;"/>
			<path d="M 990.099976 618.299988 L 990.599976 633" class="st10" style="fill: none; stroke: rgb(66, 1, 4); stroke-width: 3; stroke-miterlimit: 10;"/>
			<path d="M 981.400024 615.5 L 969.700012 629.799988" class="st10" style="fill: none; stroke: rgb(66, 1, 4); stroke-width: 3; stroke-miterlimit: 10;"/>
			<path d="M 955.200012 643.799988 L 973 656.400024 L 989.700012 653.400024 L 1000.5 639.099976" class="st10" style="fill: none; stroke: rgb(66, 1, 4); stroke-width: 3; stroke-miterlimit: 10;"/>
			<path d="M 973 656.400024 L 969.200012 685.5" class="st10" style="fill: none; stroke: rgb(66, 1, 4); stroke-width: 3; stroke-miterlimit: 10;"/>
			<path d="M 989.700012 653.400024 L 996.799988 677.200012" class="st10" style="fill: none; stroke: rgb(66, 1, 4); stroke-width: 3; stroke-miterlimit: 10;"/>
			<path d="M 965.900024 633.099976 L 982.700012 654.700012" class="st10" style="fill: none; stroke: rgb(66, 1, 4); stroke-width: 3; stroke-miterlimit: 10;"/>
			<path d="M 1015.400024 640.200012 L 1025.699951 644.599976 L 1034 646 L 1039.699951 641.099976" class="st10" style="fill: none; stroke: rgb(66, 1, 4); stroke-width: 3; stroke-miterlimit: 10;"/>
			<path d="M 1026.800049 644.799988 L 1026.5 658.5" class="st10" style="fill: none; stroke: rgb(66, 1, 4); stroke-width: 3; stroke-miterlimit: 10;"/>
			<g>
				<path class="st4" d="M957.6,666.5c0.4-2.6,0.9-5.3,1.3-7.9c0.2-1.3-1.7-1.8-1.9-0.5c-0.4,2.6-0.9,5.3-1.3,7.9&#10;&#9;&#9;&#9;&#9;&#9;C955.4,667.2,957.3,667.8,957.6,666.5L957.6,666.5z" style="fill: rgb(66, 1, 4);"/>
			</g>
			<g>
				<path class="st4" d="M958.3,655.9c1.3,0,1.3-2,0-2C957,653.9,957,655.9,958.3,655.9L958.3,655.9z" style="fill: rgb(66, 1, 4);"/>
			</g>
			<g>
				<path class="st4" d="M964.5,643.3c1.3,0,1.3-2,0-2C963.2,641.3,963.2,643.3,964.5,643.3L964.5,643.3z" style="fill: rgb(66, 1, 4);"/>
			</g>
			<g>
				<path class="st4" d="M982.4,635.6c2.2,1.2,4.4,2.3,6.7,3.5c1.1,0.6,2.2-1.1,1-1.7c-2.2-1.2-4.4-2.3-6.7-3.5&#10;&#9;&#9;&#9;&#9;&#9;C982.3,633.3,981.3,635,982.4,635.6L982.4,635.6z" style="fill: rgb(66, 1, 4);"/>
			</g>
			<g>
				<path class="st4" d="M993.2,640.8c1.3,0,1.3-2,0-2C991.9,638.8,991.9,640.8,993.2,640.8L993.2,640.8z" style="fill: rgb(66, 1, 4);"/>
			</g>
			<g>
				<path class="st4" d="M985.6,661.5c0.9,2.4,1.7,4.8,2.6,7.2c0.4,1.2,2.4,0.7,1.9-0.5c-0.9-2.4-1.7-4.8-2.6-7.2&#10;&#9;&#9;&#9;&#9;&#9;C987.1,659.8,985.1,660.3,985.6,661.5L985.6,661.5z" style="fill: rgb(66, 1, 4);"/>
			</g>
			<g>
				<path class="st4" d="M990.9,673c1.3,0,1.3-2,0-2C989.6,671,989.6,673,990.9,673L990.9,673z" style="fill: rgb(66, 1, 4);"/>
			</g>
			<g>
				<path class="st4" d="M998.2,665.7c1.3,0,1.3-2,0-2C996.9,663.7,996.9,665.7,998.2,665.7L998.2,665.7z" style="fill: rgb(66, 1, 4);"/>
			</g>
			<g>
				<path class="st4" d="M983.3,609.2c2.2,0,4.4-0.1,6.5-0.1c1.3,0,1.3-2,0-2c-2.2,0-4.4,0.1-6.5,0.1&#10;&#9;&#9;&#9;&#9;&#9;C982,607.2,982,609.2,983.3,609.2L983.3,609.2z" style="fill: rgb(66, 1, 4);"/>
			</g>
			<g>
				<path class="st4" d="M993.6,608.9c1.3,0,1.3-2,0-2C992.4,606.9,992.3,608.9,993.6,608.9L993.6,608.9z" style="fill: rgb(66, 1, 4);"/>
			</g>
			<g>
				<path class="st4" d="M1000.6,620.7c-0.2,1.6-0.4,3.2-0.6,4.9c-0.2,1.3,1.8,1.3,2,0c0.2-1.6,0.4-3.2,0.6-4.9&#10;&#9;&#9;&#9;&#9;&#9;C1002.7,619.4,1000.7,619.4,1000.6,620.7L1000.6,620.7z" style="fill: rgb(66, 1, 4);"/>
			</g>
			<g>
				<path class="st4" d="M999.2,631.7c1.3,0,1.3-2,0-2C997.9,629.7,997.9,631.7,999.2,631.7L999.2,631.7z" style="fill: rgb(66, 1, 4);"/>
			</g>
			<g>
				<path class="st4" d="M1027.6,639.4c1.3,0,1.3-2,0-2C1026.3,637.4,1026.3,639.4,1027.6,639.4L1027.6,639.4z" style="fill: rgb(66, 1, 4);"/>
			</g>
			<path d="M 1034 646 L 1035.199951 653.799988" class="st10" style="fill: none; stroke: rgb(66, 1, 4); stroke-width: 3; stroke-miterlimit: 10;"/>
		</g>
		<g>
			<path class="st2" d="M479.6,663.9h-99.1c-1.6,0-2.9-1.3-2.9-2.9v-7.1c0-1.6,1.3-2.9,2.9-2.9h99.1c1.6,0,2.9,1.3,2.9,2.9v7.1&#10;&#9;&#9;&#9;&#9;C482.5,662.5,481.2,663.9,479.6,663.9z" style="fill: none; stroke: rgb(66, 1, 4); stroke-width: 4; stroke-miterlimit: 10;"/>
			<path class="st2" d="M478.5,650.9h8.7c1.4,0,2.6,1.8,2.6,4.1l0,0c0,2.2-1.2,4.1-2.6,4.1h-6.6" style="fill: none; stroke: rgb(66, 1, 4); stroke-width: 4; stroke-miterlimit: 10;"/>
			<path class="st2" d="M381.6,650.9h-8.7c-1.4,0-2.6,1.8-2.6,4.1l0,0c0,2.2,1.2,4.1,2.6,4.1h6.6" style="fill: none; stroke: rgb(66, 1, 4); stroke-width: 4; stroke-miterlimit: 10;"/>
			<path d="M 433.9 667.799988 A 3.9 3.9 0 0 1 430 671.699988 A 3.9 3.9 0 0 1 426.1 667.799988 A 3.9 3.9 0 0 1 430 663.899988 A 3.9 3.9 0 0 1 433.9 667.799988 Z" class="st2" style="fill: none; stroke: rgb(66, 1, 4); stroke-width: 4; stroke-miterlimit: 10;"/>
			<path d="M 399.199988 667.799988 A 3.9 3.9 0 0 1 395.299988 671.699988 A 3.9 3.9 0 0 1 391.399988 667.799988 A 3.9 3.9 0 0 1 395.299988 663.899988 A 3.9 3.9 0 0 1 399.199988 667.799988 Z" class="st2" style="fill: none; stroke: rgb(66, 1, 4); stroke-width: 4; stroke-miterlimit: 10;"/>
			<path d="M 416.799994 681.5 A 3.9 3.9 0 0 1 412.899994 685.4 A 3.9 3.9 0 0 1 408.999994 681.5 A 3.9 3.9 0 0 1 412.899994 677.6 A 3.9 3.9 0 0 1 416.799994 681.5 Z" class="st2" style="fill: none; stroke: rgb(66, 1, 4); stroke-width: 4; stroke-miterlimit: 10;"/>
			<path d="M 451.100012 681.5 A 3.9 3.9 0 0 1 447.200012 685.4 A 3.9 3.9 0 0 1 443.300012 681.5 A 3.9 3.9 0 0 1 447.200012 677.6 A 3.9 3.9 0 0 1 451.100012 681.5 Z" class="st2" style="fill: none; stroke: rgb(66, 1, 4); stroke-width: 4; stroke-miterlimit: 10;"/>
			<path d="M 468.699988 667.799988 A 3.9 3.9 0 0 1 464.799988 671.699988 A 3.9 3.9 0 0 1 460.899988 667.799988 A 3.9 3.9 0 0 1 464.799988 663.899988 A 3.9 3.9 0 0 1 468.699988 667.799988 Z" class="st2" style="fill: none; stroke: rgb(66, 1, 4); stroke-width: 4; stroke-miterlimit: 10;"/>
			<path d="M 377.5 657.099976 L 482.5 657.099976" class="st2" style="fill: none; stroke: rgb(66, 1, 4); stroke-width: 4; stroke-miterlimit: 10;"/>
			<path class="st2" d="M384.4,650.9c1.2-9.1,9-16.1,18.4-16.1c3.1,0,6,0.8,8.6,2.1c2.5-8,9.9-13.8,18.7-13.8&#10;&#9;&#9;&#9;&#9;c8.8,0,16.2,5.8,18.7,13.8c2.6-1.3,5.5-2.1,8.6-2.1c9.4,0,17.2,7,18.4,16.1" style="fill: none; stroke: rgb(66, 1, 4); stroke-width: 4; stroke-miterlimit: 10;"/>
			<path d="M 430 610.799988 L 430 606.799988" class="st3" style="fill: none; stroke: rgb(66, 1, 4); stroke-width: 4; stroke-linecap: round; stroke-miterlimit: 10;"/>
			<path d="M 407.200012 614.700012 L 404.600006 610.799988" class="st3" style="fill: none; stroke: rgb(66, 1, 4); stroke-width: 4; stroke-linecap: round; stroke-miterlimit: 10;"/>
			<path d="M 391.100006 627.099976 L 386.399994 624.599976" class="st3" style="fill: none; stroke: rgb(66, 1, 4); stroke-width: 4; stroke-linecap: round; stroke-miterlimit: 10;"/>
			<path d="M 452.899994 614.700012 L 455.5 610.799988" class="st3" style="fill: none; stroke: rgb(66, 1, 4); stroke-width: 4; stroke-linecap: round; stroke-miterlimit: 10;"/>
			<path d="M 469 627.099976 L 473.600006 624.599976" class="st3" style="fill: none; stroke: rgb(66, 1, 4); stroke-width: 4; stroke-linecap: round; stroke-miterlimit: 10;"/>
			<path class="st3" d="M418.1,627.6c1.2,1.4,2.4,2.8,3.8,4.1c3.3,3.2,8.5,1,8.7-3.5c0.1-1.8,0.2-4.1,2.3-4.7" style="fill: none; stroke: rgb(66, 1, 4); stroke-width: 4; stroke-linecap: round; stroke-miterlimit: 10;"/>
			<path class="st3" d="M436.9,649.3c0.6-1.5,1.1-2.6,2.4-3.5c1.7-1.1,3.9-1.4,5.8-0.7c2.1,0.8,3.9,2.7,4.1,5" style="fill: none; stroke: rgb(66, 1, 4); stroke-width: 4; stroke-linecap: round; stroke-miterlimit: 10;"/>
			<path class="st3" d="M400.6,635.8c0.6,2.1,0.9,4.6-0.4,6.4c-0.9,1.2-2.3,1.9-3.7,1.9c-0.8,0-1.6-0.1-2.3,0.1&#10;&#9;&#9;&#9;&#9;c-0.9,0.3-1.7,0.9-2.4,1.4c-1.4,1-4.4,1.7-5.7,0" style="fill: none; stroke: rgb(66, 1, 4); stroke-width: 4; stroke-linecap: round; stroke-miterlimit: 10;"/>
			<g>
				<path class="st4" d="M407.8,646.4c1.9,0,1.9-3,0-3C405.9,643.4,405.9,646.4,407.8,646.4L407.8,646.4z" style="fill: rgb(66, 1, 4);"/>
			</g>
			<g>
				<path class="st4" d="M418.8,640.7c1.9,0,1.9-3,0-3C416.9,637.7,416.9,640.7,418.8,640.7L418.8,640.7z" style="fill: rgb(66, 1, 4);"/>
			</g>
			<g>
				<path class="st4" d="M427.1,645.9c1.9,0,1.9-3,0-3C425.2,642.9,425.2,645.9,427.1,645.9L427.1,645.9z" style="fill: rgb(66, 1, 4);"/>
			</g>
			<g>
				<path class="st4" d="M437,637.9c1.9,0,1.9-3,0-3C435,634.9,435,637.9,437,637.9L437,637.9z" style="fill: rgb(66, 1, 4);"/>
			</g>
			<g>
				<path class="st4" d="M459.6,647.1c1.9,0,1.9-3,0-3C457.7,644.1,457.7,647.1,459.6,647.1L459.6,647.1z" style="fill: rgb(66, 1, 4);"/>
			</g>
		</g>
		<g>
			<path class="st2" d="M753.4,685.5h-33.7c-2.9,0-5.2-2.3-5.2-5.2v-54.8c0-2.9,2.3-5.2,5.2-5.2h33.7c2.9,0,5.2,2.3,5.2,5.2v54.8&#10;&#9;&#9;&#9;&#9;C758.7,683.1,756.3,685.5,753.4,685.5z" style="fill: none; stroke: rgb(66, 1, 4); stroke-width: 4; stroke-miterlimit: 10;"/>
			
				<path d="M 710.099976 637.299988 H 763.199974 V 668.499989 H 710.099976 V 637.299988 Z" transform="matrix(-1.836970e-16 1 -1 -1.836970e-16 1389.48 -83.7064)" class="st2" style="fill: none; stroke: rgb(66, 1, 4); stroke-width: 4; stroke-miterlimit: 10;"/>
			<path d="M 721 664 L 752.200012 664" class="st2" style="fill: none; stroke: rgb(66, 1, 4); stroke-width: 4; stroke-miterlimit: 10;"/>
			<path class="st2" d="M740.4,656.4h-7.7c-1.5,0-2.7,1.2-2.7,2.7v2.2c0,1.5,1.2,2.7,2.7,2.7h7.7c1.5,0,2.7-1.2,2.7-2.7v-2.2&#10;&#9;&#9;&#9;&#9;C743.1,657.6,741.9,656.4,740.4,656.4z" style="fill: none; stroke: rgb(66, 1, 4); stroke-width: 4; stroke-miterlimit: 10;"/>
			<path class="st2" d="M732.1,656.2c-0.4,0-0.7-0.4-0.9-0.7c-1.8-2.8-2.4-6.3-1.6-9.6c0.5,1.5,2.6,2.3,4,1.5c1-0.6,1.5-1.7,1.7-2.8&#10;&#9;&#9;&#9;&#9;s0-2.2,0-3.3c-0.1-2.8,1-6,3.7-7.1c-0.3,2.3-0.6,4.6,0.2,6.8c0.4,1.1,1.1,2,1.7,3c1.5,2.1,2.9,4.4,3.1,6.9c0.2,2.5-0.3,4-1.9,6" style="fill: none; stroke: rgb(66, 1, 4); stroke-width: 4; stroke-miterlimit: 10;"/>
			<path d="M 721 668.700012 L 752.200012 668.700012" class="st10" style="fill: none; stroke: rgb(66, 1, 4); stroke-width: 3; stroke-miterlimit: 10;"/>
			<path d="M 721 673.700012 L 752.200012 673.700012" class="st10" style="fill: none; stroke: rgb(66, 1, 4); stroke-width: 3; stroke-miterlimit: 10;"/>
			<path class="st10" d="M744,613.8h-14.8c-0.6,0-1.2,0.5-1.2,1.2v4.2c0,0.6,0.5,1.2,1.2,1.2H744c0.6,0,1.2-0.5,1.2-1.2v-4.2&#10;&#9;&#9;&#9;&#9;C745.2,614.3,744.6,613.8,744,613.8z" style="fill: none; stroke: rgb(66, 1, 4); stroke-width: 3; stroke-miterlimit: 10;"/>
			<path class="st10" d="M731.3,613.8v-9.6c0-2.9,2.4-5.3,5.3-5.3h0c2.9,0,5.3,2.4,5.3,5.3v9.6" style="fill: none; stroke: rgb(66, 1, 4); stroke-width: 3; stroke-miterlimit: 10;"/>
		</g>
	</g><g transform="matrix(1, 0, 0, 1, -182.59497451782227, -195.00550746917725)">
		<path class="st4" d="M396.3,308.9c0-3.3-0.1-6.6-0.3-9.8c0,0,0,0,0-0.1c0-0.2,0-0.4-0.1-0.6c-2-21.7-10.8-42.2-25.4-58.6&#10;&#9;&#9;&#9;c-16.5-18.4-38.8-30.1-63.2-33.2v-0.2c0-7-5.7-12.8-12.8-12.8s-12.8,5.7-12.8,12.8v0.2c-47.6,5.9-84.4,44.4-88.6,91.8&#10;&#9;&#9;&#9;c0,0.2-0.1,0.4-0.1,0.6c0,0,0,0.1,0,0.1c-0.2,2.2-0.3,4.3-0.4,6.5c0,1.1,0,2.2,0,3.3c-4.8,1.8-8.3,6.5-8.3,11.9&#10;&#9;&#9;&#9;c0,7,5.7,12.8,12.8,12.8h194.7c7,0,12.8-5.7,12.8-12.8C404.6,315.4,401.2,310.8,396.3,308.9z M307.3,212.7&#10;&#9;&#9;&#9;c43.3,5.8,77.1,40.7,82.4,83.4h-40.8c-1.7,0-3,1.3-3,3s1.3,3,3,3h41.3c0.1,2,0.2,4,0.2,6.1h-84.2c9.9-4.5,16.9-14.4,16.9-26&#10;&#9;&#9;&#9;c0-11.1-6.4-20.8-15.8-25.5V212.7z M297.5,200.4c2.2,1.1,3.8,3.4,3.8,6v48c-1.2-0.3-2.5-0.5-3.8-0.7V200.4z M287.7,206.4&#10;&#9;&#9;&#9;c0-2.6,1.5-4.9,3.8-6v53.4c-1.3,0.1-2.5,0.4-3.8,0.7V206.4z M294.5,259.6c12.4,0,22.5,10.1,22.5,22.5s-10.1,22.5-22.5,22.5&#10;&#9;&#9;&#9;S272,294.5,272,282.1S282.1,259.6,294.5,259.6z M198.7,305.8c0-1.3,0.1-2.5,0.2-3.7h41.4c1.7,0,3-1.3,3-3s-1.3-3-3-3h-40.8&#10;&#9;&#9;&#9;c5.2-43,38.9-77.6,82.4-83.4v43.9c-9.3,4.7-15.8,14.3-15.8,25.5c0,11.6,7,21.6,16.9,26h-84.2C198.6,307.4,198.6,306.6,198.7,305.8&#10;&#9;&#9;&#9;z M391.9,327.7H197.1c-3.7,0-6.8-3-6.8-6.8s3-6.8,6.8-6.8h194.7c3.7,0,6.8,3,6.8,6.8S395.6,327.7,391.9,327.7z" style="fill: rgb(66, 1, 4);"/>
		<path class="st4" d="M294.5,299.4c9.5,0,17.3-7.7,17.3-17.3s-7.7-17.3-17.3-17.3s-17.3,7.7-17.3,17.3S285,299.4,294.5,299.4z&#10;&#9;&#9;&#9; M294.5,270.8c6.2,0,11.3,5.1,11.3,11.3c0,6.2-5.1,11.3-11.3,11.3c-6.2,0-11.3-5.1-11.3-11.3C283.2,275.9,288.3,270.8,294.5,270.8&#10;&#9;&#9;&#9;z" style="fill: rgb(66, 1, 4);"/>
		<path class="st4" d="M261.4,296h-8c-1.7,0-3,1.3-3,3s1.3,3,3,3h8c1.7,0,3-1.3,3-3S263.1,296,261.4,296z" style="fill: rgb(66, 1, 4);"/>
		<path class="st4" d="M335.5,296h-8c-1.7,0-3,1.3-3,3s1.3,3,3,3h8c1.7,0,3-1.3,3-3S337.2,296,335.5,296z" style="fill: rgb(66, 1, 4);"/>
		<path class="st4" d="M269,226.5c-0.6-1.6-2.3-2.4-3.8-1.8c-36.5,13.2-52.2,52.9-52.8,54.5c-0.6,1.5,0.2,3.3,1.7,3.9&#10;&#9;&#9;&#9;c0.4,0.1,0.7,0.2,1.1,0.2c1.2,0,2.3-0.7,2.8-1.9c0.1-0.4,15.3-38.7,49.3-51C268.8,229.8,269.6,228.1,269,226.5z" style="fill: rgb(66, 1, 4);"/>
		<path class="st4" d="M321.7,230.4c33.9,12.3,49.1,50.7,49.3,51c0.5,1.2,1.6,1.9,2.8,1.9c0.4,0,0.7-0.1,1.1-0.2&#10;&#9;&#9;&#9;c1.5-0.6,2.3-2.3,1.7-3.9c-0.6-1.7-16.3-41.3-52.8-54.5c-1.6-0.6-3.3,0.2-3.8,1.8C319.4,228.1,320.2,229.8,321.7,230.4z" style="fill: rgb(66, 1, 4);"/>
		<path class="st4" d="M513.3,333.7h92c8.9,0,16.1-7.2,16.1-16.1V209.7c0-8.9-7.2-16.1-16.1-16.1h-92c-8.9,0-16.1,7.2-16.1,16.1&#10;&#9;&#9;&#9;v107.9C497.2,326.4,504.5,333.7,513.3,333.7z M605.3,199.6c5.6,0,10.1,4.5,10.1,10.1v65.4c-5.5,0.6-8.7-7.8-12.8-10.3&#10;&#9;&#9;&#9;c-3.7-2.2-7.9-2.5-12-1.4c-2.8,0.8-1.6,5.1,1.2,4.3c7.8-2.2,10.6,3.7,15.3,8.3c2.4,2.4,5.2,3.7,8.3,3.5v4.2c-3.9,0-8-1-10.5-3&#10;&#9;&#9;&#9;c-1-0.7-1.9-1.5-2.9-2.3c-1.7-1.5-3.6-3-5.7-4.3c-3.8-2.1-9.6-3.5-15.5,2.3c-1.9,1.9-3.8,3.6-6,4.8c-0.1-1.1-0.2-2.3-0.4-3.6&#10;&#9;&#9;&#9;c-0.2-1.2-1.3-2.1-2.6-1.9c-1.2,0.2-2.1,1.3-1.9,2.6c0.3,1.7,0.4,3.2,0.4,4.6c-5.8,1.3-13.2-0.2-15.9-5.6&#10;&#9;&#9;&#9;c-2.1-4.2-0.2-9.6,1.8-13.4c0.4-0.7,0.8-1.5,1.2-2.2c2.3-4.3,5-9.1,4.3-14.9c-0.6-4.9-3.4-9.4-7.4-12.2c-1-0.7-2.1-1.3-3.1-1.8&#10;&#9;&#9;&#9;c-1.7-0.9-3.2-1.7-4.1-2.9c-1.5-2-2.4-5.3-2.2-8.4c0.4-5.4,3.5-9.8,6.1-12.6c3.4-3.7,7.5-6.5,11.9-9.6H605.3z M503.3,209.7&#10;&#9;&#9;&#9;c0-5.6,4.5-10.1,10.1-10.1h39.4c-2.1,1.7-4.2,3.5-6.1,5.5c-3.2,3.5-7.2,9.2-7.7,16.3c-0.3,4.5,1,9.3,3.4,12.4&#10;&#9;&#9;&#9;c1.7,2.2,4,3.5,6.1,4.6c0.9,0.5,1.8,1,2.6,1.5c2.6,1.8,4.4,4.8,4.8,7.9c0.5,3.8-1.5,7.4-3.6,11.2c-0.4,0.8-0.9,1.6-1.3,2.4&#10;&#9;&#9;&#9;c-3.8,7.2-4.4,13.8-1.9,18.8c3.8,7.6,12.9,10.2,20.8,9.1c0.1,0.9,0.8,1.7,1.7,1.9c0.2,0,0.3,0.1,0.5,0.1c1,0,2-0.7,2.2-1.8&#10;&#9;&#9;&#9;c0.1-0.4,0.2-0.9,0.2-1.3c4.3-1.6,7.4-4.3,10.4-7.3c2.8-2.8,5.3-3.2,8.4-1.4c1.7,0.9,3.2,2.2,4.8,3.6c1,0.9,2.1,1.8,3.2,2.6&#10;&#9;&#9;&#9;c3.5,2.7,8.8,4.2,13.9,4.2c0.1,0,0.1,0,0.2,0v27.7c0,5.6-4.5,10.1-10.1,10.1h-92c-5.6,0-10.1-4.5-10.1-10.1V209.7z" style="fill: rgb(66, 1, 4);"/>
		<path d="M 592.200025 233 A 4.8 4.8 0 0 1 587.400024 237.8 A 4.8 4.8 0 0 1 582.600024 233 A 4.8 4.8 0 0 1 587.400024 228.2 A 4.8 4.8 0 0 1 592.200025 233 Z" class="st4" style="fill: rgb(66, 1, 4);"/>
		<path class="st4" d="M513.6,301c1.8,1.8,3.6,3.6,5.4,5.4c-1.8,1.8-3.6,3.6-5.4,5.4c-3.1,3.1,1.7,7.9,4.8,4.8&#10;&#9;&#9;&#9;c1.8-1.8,3.6-3.6,5.4-5.4c1.8,1.8,3.6,3.6,5.4,5.4c3.1,3.1,7.9-1.7,4.8-4.8c-1.8-1.8-3.6-3.6-5.4-5.4c1.8-1.8,3.6-3.6,5.4-5.4&#10;&#9;&#9;&#9;c3.1-3.1-1.7-7.9-4.8-4.8c-1.8,1.8-3.6,3.6-5.4,5.4c-1.8-1.8-3.6-3.6-5.4-5.4C515.3,293.1,510.5,297.9,513.6,301z" style="fill: rgb(66, 1, 4);"/>
		<path class="st4" d="M541.5,310.2c0.1,0,0.1,0,0.2,0c2.2-0.2,4.2-0.4,6.1-0.7c1.2-0.2,2.1-1.3,1.9-2.6c-0.2-1.2-1.3-2.1-2.6-1.9&#10;&#9;&#9;&#9;c-1.8,0.3-3.7,0.5-5.8,0.7c-1.2,0.1-2.2,1.2-2.1,2.4C539.4,309.4,540.4,310.2,541.5,310.2z" style="fill: rgb(66, 1, 4);"/>
		<path class="st4" d="M572.1,266.7c-0.7-3-1-5.7-1-8.3c0-0.6,0-1.1,0.1-1.7c0.1-1.2-0.9-2.3-2.1-2.4c-1.2-0.1-2.3,0.9-2.4,2.1&#10;&#9;&#9;&#9;c0,0.7-0.1,1.3-0.1,2c0,2.8,0.4,5.9,1.1,9.2l0.1,0.3c0.2,1.1,1.2,1.8,2.2,1.8c0.2,0,0.3,0,0.5-0.1c1.2-0.3,2-1.5,1.7-2.7&#10;&#9;&#9;&#9;L572.1,266.7z" style="fill: rgb(66, 1, 4);"/>
		<path class="st4" d="M558.1,306.8c0.3,0,0.6-0.1,0.8-0.2c4.1-1.6,7.4-3.8,9.9-6.5c0.8-0.9,0.8-2.3-0.1-3.2&#10;&#9;&#9;&#9;c-0.9-0.8-2.3-0.8-3.2,0.1c-2.1,2.2-4.8,4-8.3,5.4c-1.2,0.5-1.7,1.8-1.3,2.9C556.4,306.3,557.2,306.8,558.1,306.8z" style="fill: rgb(66, 1, 4);"/>
		<path class="st4" d="M570.9,248.1c0.4,0.2,0.8,0.3,1.2,0.3c0.8,0,1.5-0.4,1.9-1.1c0.9-1.5,2.1-2.9,3.5-4.1c0.9-0.8,1-2.3,0.2-3.2&#10;&#9;&#9;&#9;c-0.8-0.9-2.3-1-3.2-0.2c-1.7,1.5-3.1,3.2-4.3,5.1C569.5,246.1,569.8,247.4,570.9,248.1z" style="fill: rgb(66, 1, 4);"/>
		<path class="st4" d="M557.7,221.5c0-3,1.6-5.5,4.2-6.9c2.6-1.3,0.3-5.2-2.3-3.9c-4,2.1-6.5,6.3-6.5,10.8&#10;&#9;&#9;&#9;C553.2,224.4,557.7,224.4,557.7,221.5z" style="fill: rgb(66, 1, 4);"/>
		<path class="st4" d="M568.1,210.8c2.9,0,2.9-4.5,0-4.5C565.2,206.2,565.2,210.8,568.1,210.8z" style="fill: rgb(66, 1, 4);"/>
		<path class="st4" d="M602.9,250.8c2.9,0,2.9-4.5,0-4.5C600,246.3,600,250.8,602.9,250.8z" style="fill: rgb(66, 1, 4);"/>
		<path class="st4" d="M602.9,218c2.9,0,2.9-4.5,0-4.5C600,213.5,600,218,602.9,218z" style="fill: rgb(66, 1, 4);"/>
		<path class="st4" d="M516.8,271.1c0-9.7,0-19.4,0-29c0-3.9-6-3.9-6,0c0,9.7,0,19.4,0,29C510.8,274.9,516.8,275,516.8,271.1z" style="fill: rgb(66, 1, 4);"/>
		<path class="st4" d="M513.8,232.5c3.9,0,3.9-6,0-6C509.9,226.5,509.9,232.5,513.8,232.5z" style="fill: rgb(66, 1, 4);"/>
		<path class="st4" d="M513.8,221.8c3.9,0,3.9-6,0-6C509.9,215.8,509.9,221.8,513.8,221.8z" style="fill: rgb(66, 1, 4);"/>
		
		<path class="st4" d="M768,206.3c0.1-0.7-0.1-1.5-0.6-2.1c-0.5-0.6-1.2-0.9-2-0.9h-21c-0.7,0-1.5,0.3-2,0.9&#10;&#9;&#9;&#9;c-0.5,0.6-0.7,1.3-0.6,2.1c0.9,7.4,6.5,13,13.1,13C761.5,219.4,767.2,213.8,768,206.3z M747.7,208.7h14.3&#10;&#9;&#9;&#9;c-1.3,3.2-4.1,5.5-7.2,5.5C751.8,214.1,749.1,211.9,747.7,208.7z" style="fill: rgb(66, 1, 4);"/>
		
		
		
		
		
		
		
		
		
		
		
		
		
		
		
		
		
		
		
		
		
		
		
		
		<path class="st4" d="M907.6,201.5c-1.9,0-1.9,3,0,3C909.5,204.5,909.5,201.5,907.6,201.5z" style="fill: rgb(66, 1, 4);"/>
		<path class="st4" d="M929.6,201.5c-1.9,0-1.9,3,0,3C931.6,204.5,931.6,201.5,929.6,201.5z" style="fill: rgb(66, 1, 4);"/>
		<path class="st4" d="M951.6,201.5c-1.9,0-1.9,3,0,3C953.6,204.5,953.6,201.5,951.6,201.5z" style="fill: rgb(66, 1, 4);"/>
		
		
		
		
		
		<path class="st4" d="M387.1,446.2h-10.4v-10.7c0-1.7-1.3-3-3-3H342h-31.7h-31.7h-31.7h-31.7c-1.7,0-3,1.3-3,3v10.7h-10.4&#10;&#9;&#9;&#9;c-5,0-9,4.1-9,9V469c0,5,4.1,9,9,9h3.2l16.6,72.4H239c-1.6,2.3-2.5,5-2.5,8c0,7.7,6.3,14,14,14c7.7,0,14-6.3,14-14&#10;&#9;&#9;&#9;c0-3-0.9-5.8-2.5-8H327c-1.6,2.3-2.5,5-2.5,8c0,7.7,6.3,14,14,14c7.7,0,14-6.3,14-14c0-3-0.9-5.8-2.5-8h17.3l16.6-72.4h3.2&#10;&#9;&#9;&#9;c5,0,9-4.1,9-9v-13.8C396.2,450.2,392.1,446.2,387.1,446.2z M358.2,438.5h12.5v6.7h-12.5C358.2,442.9,358.2,440.7,358.2,438.5z&#10;&#9;&#9;&#9; M345,438.5h10.2c0,2.2,0,4.5,0,6.7H345V438.5z M325.1,438.5H339v6.7h-13.9C325.1,442.9,325.1,440.7,325.1,438.5z M313.3,438.5&#10;&#9;&#9;&#9;h8.8c0,2.2,0,4.5,0,6.7h-8.8V438.5z M292,438.5h15.3v6.7H292C292,442.9,292,440.7,292,438.5z M281.6,438.5h7.3c0,2.2,0,4.5,0,6.7&#10;&#9;&#9;&#9;h-7.3V438.5z M258.9,438.5h16.7v6.7h-16.7C258.9,442.9,258.9,440.7,258.9,438.5z M249.9,438.5h5.9c0,2.2,0,4.5,0,6.7h-5.9V438.5z&#10;&#9;&#9;&#9; M225.8,438.5h18.2v6.7h-18.2C225.8,442.9,225.8,440.7,225.8,438.5z M218.3,438.5h4.5c0,2.2,0,4.5,0,6.7h-4.5V438.5z M211.2,478&#10;&#9;&#9;&#9;h9.7l12.8,55.9H224L211.2,478z M347.1,533.9h-8L326.3,478h8L347.1,533.9z M340.5,478h8l12.8,55.9h-8L340.5,478z M332.9,533.9h-8&#10;&#9;&#9;&#9;L312.1,478h8L332.9,533.9z M318.7,533.9h-8L297.9,478h8L318.7,533.9z M304.6,533.9h-8L283.8,478h8L304.6,533.9z M290.4,533.9h-8&#10;&#9;&#9;&#9;L269.6,478h8L290.4,533.9z M276.2,533.9h-8L255.4,478h8L276.2,533.9z M262,533.9h-8L241.2,478h8L262,533.9z M247.9,533.9h-8&#10;&#9;&#9;&#9;L227.1,478h8L247.9,533.9z M250.5,566.5c-4.4,0-8-3.6-8-8c0-4.4,3.6-8,8-8c4.4,0,8,3.6,8,8C258.5,562.9,254.9,566.5,250.5,566.5z&#10;&#9;&#9;&#9; M338.5,566.5c-4.4,0-8-3.6-8-8c0-4.4,3.6-8,8-8s8,3.6,8,8C346.5,562.9,342.9,566.5,338.5,566.5z M362.6,544.4H226.4l-1-4.5h138.2&#10;&#9;&#9;&#9;L362.6,544.4z M366.2,528.5L354.6,478h8l7.6,33L366.2,528.5z M373.3,497.6l-4.5-19.6h9L373.3,497.6z M390.2,469c0,1.7-1.4,3-3,3&#10;&#9;&#9;&#9;H201.8c-1.7,0-3-1.4-3-3v-7.4h191.3V469z M390.2,455.6H198.8v-0.4c0-1.7,1.4-3,3-3h185.3c1.7,0,3,1.4,3,3V455.6z" style="fill: rgb(66, 1, 4);"/>
		<path d="M 252.9 558.5 A 2.4 2.4 0 0 1 250.5 560.9 A 2.4 2.4 0 0 1 248.1 558.5 A 2.4 2.4 0 0 1 250.5 556.1 A 2.4 2.4 0 0 1 252.9 558.5 Z" class="st4" style="fill: rgb(66, 1, 4);"/>
		<path d="M 340.9 558.5 A 2.4 2.4 0 0 1 338.5 560.9 A 2.4 2.4 0 0 1 336.1 558.5 A 2.4 2.4 0 0 1 338.5 556.1 A 2.4 2.4 0 0 1 340.9 558.5 Z" class="st4" style="fill: rgb(66, 1, 4);"/>
		<path class="st4" d="M263.4,496c1.9,0,1.9-3,0-3C261.4,493,261.4,496,263.4,496z" style="fill: rgb(66, 1, 4);"/>
		<path class="st4" d="M285,529.8c1.9,0,1.9-3,0-3C283.1,526.8,283.1,529.8,285,529.8z" style="fill: rgb(66, 1, 4);"/>
		<path class="st4" d="M282.9,524.3c1.9,0,1.9-3,0-3C281,521.3,281,524.3,282.9,524.3z" style="fill: rgb(66, 1, 4);"/>
		<path class="st4" d="M331.3,484.8c-1.9,0-1.9,3,0,3C333.3,487.8,333.3,484.8,331.3,484.8z" style="fill: rgb(66, 1, 4);"/>
		<path class="st4" d="M630.9,463.2c-19.4-23.7-51.5-29.4-60-30.5c-0.1-2.8-1.2-5.5-3.3-7.6c-2.1-2.1-4.9-3.3-8-3.3&#10;&#9;&#9;&#9;c-6.1,0-11,4.8-11.2,10.9c-8.5,1.1-40.6,6.8-60,30.5l-0.2,0.2c-0.3,0.5-3,4.7-1.1,8.6c0.6,1.2,1.7,2.1,3.2,2.4&#10;&#9;&#9;&#9;c3.9,0.9,9.6-2.6,11.2-3.8c1.5-1.2,24.2-13.3,46.9-14.1v104.6c0,6.2,5.1,11.3,11.3,11.3c6.2,0,11.3-5.1,11.3-11.3V456.6&#10;&#9;&#9;&#9;c22.7,0.8,45.4,12.9,46.9,14.1c1.5,1.1,6,4,9.8,4c0.5,0,0.9,0,1.4-0.1c1.4-0.3,2.5-1.2,3.2-2.4c1.9-3.9-0.8-8.2-1.1-8.6&#10;&#9;&#9;&#9;L630.9,463.2z M559.6,427.8c1.4,0,2.7,0.5,3.7,1.5c0.8,0.9,1.3,1.9,1.5,3.1l-10.4,0C554.8,429.8,557,427.8,559.6,427.8z&#10;&#9;&#9;&#9; M564.9,561.2c0,2.9-2.4,5.3-5.3,5.3c-2.9,0-5.3-2.4-5.3-5.3V456.6h10.5V561.2z M621.5,465.9c-3.4-2.6-28.9-15.4-53-15.4h-17.8&#10;&#9;&#9;&#9;c-24.1,0-49.6,12.8-53,15.4c-1.5,1.2-3.9,2.3-5.3,2.6c0.1-0.5,0.4-1.2,0.7-1.7c19.9-24.1,55.4-28.2,57.8-28.4h17.5&#10;&#9;&#9;&#9;c2.3,0.2,37.9,4.3,57.7,28.4c0.3,0.5,0.6,1.1,0.7,1.7C625.4,468.2,623,467.1,621.5,465.9z" style="fill: rgb(66, 1, 4);"/>
		<path class="st4" d="M546.5,444.6c-1.9,0-1.9,3,0,3C548.4,447.7,548.4,444.6,546.5,444.6z" style="fill: rgb(66, 1, 4);"/>
		<path class="st4" d="M559.6,514.7c0-6.1,0-12.1,0-18.2c0-1.9-3-1.9-3,0c0,6.1,0,12.1,0,18.2C556.6,516.6,559.6,516.6,559.6,514.7z&#10;&#9;&#9;&#9;" style="fill: rgb(66, 1, 4);"/>
		<path class="st4" d="M558.1,491.4c1.9,0,1.9-3,0-3C556.2,488.4,556.2,491.4,558.1,491.4z" style="fill: rgb(66, 1, 4);"/>
		<path class="st4" d="M558.1,485.2c1.9,0,1.9-3,0-3C556.2,482.2,556.2,485.2,558.1,485.2z" style="fill: rgb(66, 1, 4);"/>
		<path class="st4" d="M551.5,440.8c-1.9,0-1.9,3,0,3C553.4,443.8,553.4,440.8,551.5,440.8z" style="fill: rgb(66, 1, 4);"/>
		<path class="st4" d="M554.3,445c-1.9,0-1.9,3,0,3C556.2,448,556.2,445,554.3,445z" style="fill: rgb(66, 1, 4);"/>
		
		
		
		
		
		
		
		
		
		
		
		
		
		
		
		
		
		
		
		
		
		
		
		
		
		
		
		
		
		
		
		
		
		
		
		
		
		
		
		
		
		
		
		
		
		
		
		
		
		
		
		
		<path class="st4" d="M576,647.3l-33.8,21.6l-9.7-10.6l-38.1,6.2l-11.9,50.1l27.6,17.1l8.3,38.5l30.1,16.9l33.5-23.9l5.6-36.2&#10;&#9;&#9;&#9;l20.4-13.7l2.6-12.9l-4.8-36L576,647.3z M578.2,655.4l22.1,12.7l2.8,20.9l-15.2,2l-10.9-9.4L578.2,655.4z M573.6,655.9l-1,22.6&#10;&#9;&#9;&#9;l-17.1-11L573.6,655.9z M551.3,670.2l19.7,12.6l-13.8,12.7v-10.2l-10.8-11.9L551.3,670.2z M563.4,709.4l16.2,15.1l-20.9,10.2&#10;&#9;&#9;&#9;l-23.5-6.8l-3.6-10.5L563.4,709.4z M530.1,713.2l-2.8-8.1l17.6-4.2l12.1,5.5L530.1,713.2z M530.3,664.7l18.5,20.4l-32.7,5.7&#10;&#9;&#9;&#9;l-14.9-21.4L530.3,664.7z M489.4,711.7l9.1-38.4l13.7,19.8l-15.6,23.2L489.4,711.7z M509.1,723.9l-8.6-5.3l15.6-23.2l35.1-6.1v7.8&#10;&#9;&#9;&#9;l-5.6-2.6l-23.4,5.6L509.1,723.9z M515,725.7l9-16.4l7,20.5l-9.1,28.3L515,725.7z M524,766.4l5.5-17l13.2,27.4L524,766.4z&#10;&#9;&#9;&#9; M548.9,779.4l-17.4-36.2l3.4-10.7l22.7,6.6l17.8,21.4L548.9,779.4z M577.1,755.4l-14.6-17.6l18.8-9.2L577.1,755.4z M582.9,719.3&#10;&#9;&#9;&#9;l-16.3-15.2l-8.1-3.7l16.3-14.9l10.1,8.7L582.9,719.3z M602.6,709.7l-15.3,10.3l1.9-24.7l14.4-1.9l0.9,6.7L602.6,709.7z" style="fill: rgb(66, 1, 4);"/>
		<path class="st4" d="M523.9,671c-4.2,0.9-8.4,1.4-12.8,1.5c-1.9,0-1.9,3,0,3c4.6-0.1,9.1-0.6,13.6-1.6&#10;&#9;&#9;&#9;C526.6,673.5,525.8,670.6,523.9,671z" style="fill: rgb(66, 1, 4);"/>
		<path class="st4" d="M530.8,673.2c1.9,0,1.9-3,0-3C528.9,670.2,528.9,673.2,530.8,673.2z" style="fill: rgb(66, 1, 4);"/>
		<path class="st4" d="M498.1,698.3c-1.9,0-1.9,3,0,3C500.1,701.3,500.1,698.3,498.1,698.3z" style="fill: rgb(66, 1, 4);"/>
		<path class="st4" d="M559.3,730.3c2.3-1.2,4.6-2.4,6.9-3.5c1.7-0.9,0.2-3.5-1.5-2.6c-2.3,1.2-4.6,2.4-6.9,3.5&#10;&#9;&#9;&#9;C556.1,728.6,557.6,731.2,559.3,730.3z" style="fill: rgb(66, 1, 4);"/>
		<path class="st4" d="M570.5,724.6c1.9,0,1.9-3,0-3C568.6,721.6,568.6,724.6,570.5,724.6z" style="fill: rgb(66, 1, 4);"/>
		<path class="st4" d="M592.3,668.6c-2.6-1.6-5.2-3.3-7.8-4.9c-1.6-1-3.1,1.6-1.5,2.6c2.6,1.6,5.2,3.3,7.8,4.9&#10;&#9;&#9;&#9;C592.5,672.2,594,669.6,592.3,668.6z" style="fill: rgb(66, 1, 4);"/>
		<path class="st4" d="M596.5,675.1c1.9,0,1.9-3,0-3C594.6,672.1,594.6,675.1,596.5,675.1z" style="fill: rgb(66, 1, 4);"/>
		<path class="st4" d="M568.8,697.4c-1.9,0-1.9,3,0,3C570.8,700.4,570.8,697.4,568.8,697.4z" style="fill: rgb(66, 1, 4);"/>
		<path class="st4" d="M574.7,695.1c1.9,0,1.9-3,0-3C572.8,692.1,572.8,695.1,574.7,695.1z" style="fill: rgb(66, 1, 4);"/>
		<path class="st4" d="M542.3,749.8c-1-1.7-3.6-0.2-2.6,1.5c2.1,3.7,4.2,7.4,6.3,11.1c1,1.7,3.6,0.2,2.6-1.5&#10;&#9;&#9;&#9;C546.5,757.1,544.4,753.5,542.3,749.8z" style="fill: rgb(66, 1, 4);"/>
		<path class="st4" d="M550.6,765.9c-1.9,0-1.9,3,0,3C552.5,768.9,552.5,765.9,550.6,765.9z" style="fill: rgb(66, 1, 4);"/>
		
		
		
		
		
		
		
		
		
		
		
		
		
		
		
		<path class="st4" d="M380.3,728.5h-13.1v0h-1.7c-3.1-13.9-15.6-24.2-30.1-24.2c-3.9,0-7.6,0.7-11.2,2.1&#10;&#9;&#9;&#9;c-5.1-11.9-16.7-19.6-29.8-19.6c-13.1,0-24.7,7.8-29.8,19.6c-3.6-1.4-7.4-2.1-11.2-2.1c-14.5,0-27,10.2-30.1,24.2h-1.7v0h-13.1&#10;&#9;&#9;&#9;c-3.9,0-6.9,4-6.9,9.1c0,5.1,3,9.1,6.9,9.1h4c0.1,4,3.3,7.3,7.4,7.3h13.8c-0.3,0.9-0.5,1.9-0.5,2.9c0,4.9,4,8.9,8.9,8.9&#10;&#9;&#9;&#9;c4.9,0,8.9-4,8.9-8.9c0-1-0.2-2-0.5-2.9h35.3c-0.3,0.9-0.5,1.9-0.5,2.9c0,4.9,4,8.9,8.9,8.9s8.9-4,8.9-8.9c0-1-0.2-2-0.5-2.9h35.3&#10;&#9;&#9;&#9;c-0.3,0.9-0.5,1.9-0.5,2.9c0,4.9,4,8.9,8.9,8.9s8.9-4,8.9-8.9c0-1-0.2-2-0.5-2.9h13.8c4.1,0,7.4-3.3,7.4-7.3h4&#10;&#9;&#9;&#9;c3.9,0,6.9-4,6.9-9.1C387.2,732.5,384.2,728.5,380.3,728.5z M212.6,735.9v4.8h-3.8c-0.3-0.2-1-1.3-1-3.1s0.7-2.9,1-3.1h4&#10;&#9;&#9;&#9;C212.7,735,212.6,735.4,212.6,735.9z M292.9,692.9c-0.5,1.6-0.5,3.3-0.6,4.4c-0.1,2.4-1.6,3.8-3,4.3c-0.8,0.3-3,0.9-5-1.1&#10;&#9;&#9;&#9;c-1.3-1.2-2.4-2.5-3.6-3.8C284.3,694.5,288.5,693.2,292.9,692.9z M247.7,711c0.5,2.6,0.4,4.5-0.5,5.6c-0.7,1-2,1.6-3.2,1.6&#10;&#9;&#9;&#9;c-0.2,0-0.5,0-0.7,0c-1.1,0-2.3,0-3.6,0.3c-1.7,0.5-2.9,1.4-4,2.2l-0.6,0.4c-0.8,0.6-1.9,0.9-2.9,1&#10;&#9;&#9;&#9;C235.8,716.6,241.3,712.6,247.7,711z M229.8,727.9c0.7,0.2,1.5,0.3,2.3,0.3c2.4,0,4.9-0.9,6.7-2.1l0.7-0.5c0.7-0.5,1.4-1.1,2-1.2&#10;&#9;&#9;&#9;c0.5-0.1,1.1-0.1,1.9-0.1c0.3,0,0.6,0,0.9,0c3.1,0,6.1-1.5,8-4c2.3-3.1,2.2-6.8,1.6-9.9c3.9,0,7.8,1,11.2,2.8l3.2,1.7l1.1-3.4&#10;&#9;&#9;&#9;c1.3-4.3,3.7-8,6.7-11c1.3,1.5,2.7,3,4.2,4.4c2.1,2,4.8,3.1,7.5,3.1c1.3,0,2.6-0.2,3.9-0.7c4-1.6,6.6-5.3,6.8-9.6&#10;&#9;&#9;&#9;c0.1-2.4,0.3-3.8,1.1-4.3c9.5,1.8,17.3,8.6,20.3,18.1l1.1,3.4l3.2-1.7c3.6-1.9,7.5-2.8,11.5-2.8c11.2,0,20.9,7.6,23.9,18.2H326&#10;&#9;&#9;&#9;c-1-3.7-4-6.9-7.8-8.3c-3.8-1.4-8-0.9-11.4,1.3c-2.9,1.9-3.9,4.3-4.8,6.6c-0.1,0.1-0.1,0.3-0.1,0.4h-72.2&#10;&#9;&#9;&#9;C229.7,728.3,229.7,728.1,229.8,727.9z M319.4,728.5h-11.1c0.4-0.9,0.9-1.5,1.7-2c1.8-1.2,4.1-1.4,6.1-0.7&#10;&#9;&#9;&#9;C317.5,726.3,318.7,727.3,319.4,728.5z M242.3,759.9c-1.6,0-2.9-1.3-2.9-2.9c0-1.6,1.3-2.9,2.9-2.9c1.6,0,2.9,1.3,2.9,2.9&#10;&#9;&#9;&#9;C245.2,758.6,243.9,759.9,242.3,759.9z M294.5,759.9c-1.6,0-2.9-1.3-2.9-2.9c0-1.6,1.3-2.9,2.9-2.9s2.9,1.3,2.9,2.9&#10;&#9;&#9;&#9;C297.4,758.6,296.1,759.9,294.5,759.9z M346.6,759.9c-1.6,0-2.9-1.3-2.9-2.9c0-1.6,1.3-2.9,2.9-2.9c1.6,0,2.9,1.3,2.9,2.9&#10;&#9;&#9;&#9;C349.6,758.6,348.3,759.9,346.6,759.9z M370.3,746.6c0,0.8-0.6,1.4-1.4,1.4H220c-0.8,0-1.4-0.6-1.4-1.4v-2.8h151.7V746.6z&#10;&#9;&#9;&#9; M370.3,737.8H218.6v-1.9c0-0.8,0.6-1.4,1.4-1.4h148.9c0.8,0,1.4,0.6,1.4,1.4V737.8z M380.2,740.7h-3.8v-4.8c0-0.5-0.1-1-0.1-1.4&#10;&#9;&#9;&#9;h4c0.3,0.2,1,1.3,1,3.1S380.5,740.5,380.2,740.7z" style="fill: rgb(66, 1, 4);"/>
		<path class="st4" d="M268.7,768.6c-4.9,0-8.9,4-8.9,8.9c0,4.9,4,8.9,8.9,8.9s8.9-4,8.9-8.9C277.6,772.7,273.6,768.6,268.7,768.6z&#10;&#9;&#9;&#9; M268.7,780.5c-1.6,0-2.9-1.3-2.9-2.9c0-1.6,1.3-2.9,2.9-2.9c1.6,0,2.9,1.3,2.9,2.9C271.6,779.2,270.3,780.5,268.7,780.5z" style="fill: rgb(66, 1, 4);"/>
		<path class="st4" d="M320.3,768.6c-4.9,0-8.9,4-8.9,8.9c0,4.9,4,8.9,8.9,8.9s8.9-4,8.9-8.9C329.2,772.7,325.2,768.6,320.3,768.6z&#10;&#9;&#9;&#9; M320.3,780.5c-1.6,0-2.9-1.3-2.9-2.9c0-1.6,1.3-2.9,2.9-2.9s2.9,1.3,2.9,2.9C323.2,779.2,321.9,780.5,320.3,780.5z" style="fill: rgb(66, 1, 4);"/>
		<path class="st4" d="M297.5,671.4v-6c0-1.7-1.3-3-3-3s-3,1.3-3,3v6c0,1.7,1.3,3,3,3S297.5,673,297.5,671.4z" style="fill: rgb(66, 1, 4);"/>
		<path class="st4" d="M257.6,678.9c0.6,0.9,1.5,1.3,2.5,1.3c0.6,0,1.2-0.2,1.7-0.5c1.4-0.9,1.8-2.8,0.8-4.2l-3.9-5.9&#10;&#9;&#9;&#9;c-0.9-1.4-2.8-1.8-4.2-0.8c-1.4,0.9-1.8,2.8-0.8,4.2L257.6,678.9z" style="fill: rgb(66, 1, 4);"/>
		<path class="st4" d="M234.6,698.4c0.4,0.2,0.9,0.3,1.4,0.3c1.1,0,2.1-0.6,2.7-1.6c0.8-1.5,0.2-3.3-1.3-4.1l-7-3.7&#10;&#9;&#9;&#9;c-1.5-0.8-3.3-0.2-4.1,1.3c-0.8,1.5-0.2,3.3,1.3,4.1L234.6,698.4z" style="fill: rgb(66, 1, 4);"/>
		<path class="st4" d="M328.8,680.2c1,0,1.9-0.5,2.5-1.3l3.9-5.9c0.9-1.4,0.5-3.2-0.8-4.2c-1.4-0.9-3.2-0.5-4.2,0.8l-3.9,5.9&#10;&#9;&#9;&#9;c-0.9,1.4-0.5,3.2,0.8,4.2C327.7,680.1,328.3,680.2,328.8,680.2z" style="fill: rgb(66, 1, 4);"/>
		<path class="st4" d="M353,698.8c0.5,0,0.9-0.1,1.4-0.3l7-3.7c1.5-0.8,2-2.6,1.3-4.1c-0.8-1.5-2.6-2-4.1-1.3l-7,3.7&#10;&#9;&#9;&#9;c-1.5,0.8-2,2.6-1.3,4.1C350.8,698.2,351.9,698.8,353,698.8z" style="fill: rgb(66, 1, 4);"/>
		<path class="st4" d="M261.2,720.4c-2.9,0-2.9,4.5,0,4.5C264.1,724.9,264.1,720.4,261.2,720.4z" style="fill: rgb(66, 1, 4);"/>
		<path class="st4" d="M277.7,711.7c-2.9,0-2.9,4.5,0,4.5C280.6,716.2,280.6,711.7,277.7,711.7z" style="fill: rgb(66, 1, 4);"/>
		<path class="st4" d="M290.1,719.6c-2.9,0-2.9,4.5,0,4.5C293,724.1,293,719.6,290.1,719.6z" style="fill: rgb(66, 1, 4);"/>
		<path class="st4" d="M304.9,712.1c2.9,0,2.9-4.5,0-4.5C302,707.6,302,712.1,304.9,712.1z" style="fill: rgb(66, 1, 4);"/>
		<path class="st4" d="M338.9,725.8c2.9,0,2.9-4.5,0-4.5C336,721.3,336,725.8,338.9,725.8z" style="fill: rgb(66, 1, 4);"/>
		
		
	</g></svg>