<?xml version="1.0" encoding="utf-8"?>
<svg id="master-artboard" viewBox="0 0 111.41083526611328 111.59770202636719" version="1.1" xmlns="http://www.w3.org/2000/svg" x="0px" y="0px" style="enable-background:new 0 0 841.9 595.3;" width="111.41083526611328px" height="111.59770202636719px"><rect id="ee-background" x="0" y="0" width="111.41083526611328" height="111.59770202636719" style="fill: white; fill-opacity: 0; pointer-events: none;"/>


<path d="M 417.899994 466.600006 H 442.199993 V 573.300003 H 417.899994 V 466.600006 Z" transform="matrix(2.2261569121935295e-10, -0.6744930461291063, 0.6744930461291063, 2.2261569121935295e-10, -289.5267113774982, 364.20364752846183)" class="st41" style="fill: rgb(165, 189, 240);"/><path d="M 393.600006 451.5 H 417.900005 V 509.5 H 393.600006 V 451.5 Z" transform="matrix(8.573777107894168e-11, -0.6744930461291063, 0.6744930461291063, 8.573777107894168e-11, -279.3395568680161, 321.2268023562401)" class="st41" style="fill: rgb(240, 122, 128);"/><path d="M 405.600006 400 H 429.900005 V 482.099998 H 405.600006 V 400 Z" transform="matrix(9.323813894039016e-11, -0.6744930461291063, 0.6744930461291063, 9.323813894039016e-11, -244.6562508555864, 302.74617043864885)" class="st41" style="fill: rgb(139, 240, 163);"/><path d="M 367.29998779296875 545 L 367.29998779296875 417.70001220703125 L 347.29998779296875 417.70001220703125 L 347.29998779296875 545 L 347.29998779296875 565 L 367.29998779296875 565 L 494.6000061035156 565 L 494.6000061035156 545 Z" transform="matrix(0.6744930461291063, 0, 0, 0.6744930461291063, -228.9275415092883, -276.52240522375797)" style="fill: rgb(98, 98, 98);"/></svg>