<?xml version="1.0" encoding="utf-8"?>
<svg id="master-artboard" viewBox="0 0 928.0089111328125 469.43267822265625" version="1.1" xmlns="http://www.w3.org/2000/svg" x="0px" y="0px" width="928.0089111328125px" height="469.43267822265625px" style="enable-background:new 0 0 1400 980;"><rect id="ee-background" x="0" y="0" width="928.0089111328125" height="469.43267822265625" style="fill: white; fill-opacity: 0; pointer-events: none;"/>


<g transform="matrix(1, 0, 0, 1, -234.86099243164062, -373.28147888183594)">
	<g>
		<path class="st4" d="M1119.4199,700.1772H308.131c35.4873-84.6331,108.8466-150.2218,195.4196-180.54&#10;&#9;&#9;&#9;c39.6065-13.8754,81.8831-20.8587,118.9679-40.508c22.228-11.7758,41.9457-27.8649,62.097-43.1895&#10;&#9;&#9;&#9;c1.7915-1.3693,3.5944-2.7272,5.3972-4.0736c0.7075-0.5249,1.4036-1.0612,2.111-1.5747c1.2666-0.9357,2.5217-1.8714,3.7884-2.7842&#10;&#9;&#9;&#9;c1.1981-0.8786,2.4077-1.7458,3.6057-2.6016c0.525-0.3766,1.0498-0.7531,1.5747-1.1183c0.8216-0.5819,1.6317-1.1524,2.4533-1.723&#10;&#9;&#9;&#9;c2.5103-1.7458,5.0435-3.4575,7.6109-5.1234c0.0457-0.0342,0.1027-0.0685,0.1598-0.1027c1.1411-0.7417,2.2936-1.472,3.446-2.2023&#10;&#9;&#9;&#9;c1.472-0.9243,2.9668-1.8485,4.473-2.7386c0.6618-0.3994,1.3351-0.7988,2.0082-1.1867c3.3547-1.9627,6.7552-3.834,10.2354-5.6027&#10;&#9;&#9;&#9;c1.3236-0.6732,2.6588-1.3236,3.9938-1.9626c4.2904-2.0425,8.6835-3.9138,13.1907-5.5798&#10;&#9;&#9;&#9;c23.9282-8.8205,49.1345-14.0237,74.4777-15.2105c2.8527-0.1369,5.7053-0.2168,8.5694-0.251&#10;&#9;&#9;&#9;c5.0549-0.0685,10.1099,0.0342,15.1534,0.3081c0.0114,0,0.0114,0,0.0229,0c2.4761,0.1255,4.9521,0.2966,7.4169,0.5134&#10;&#9;&#9;&#9;c2.4761,0.2054,4.9522,0.4565,7.4169,0.7531c2.4761,0.2853,4.9408,0.6161,7.3941,0.9927c1.6432,0.251,3.2863,0.5135,4.918,0.7988&#10;&#9;&#9;&#9;c2.4533,0.4336,4.8951,0.9014,7.3256,1.4035c10.5663,2.2023,20.9957,5.1919,31.1969,8.9802&#10;&#9;&#9;&#9;c39.2528,14.5942,74.1353,39.0474,103.1413,69.3884c16.3515,17.1046,30.8317,36.0806,43.1666,56.2205&#10;&#9;&#9;&#9;C1091.9431,575.4697,1110.3942,637.4412,1119.4199,700.1772z" style="fill: rgb(151, 205, 120);"/>
		<path class="st5" d="M1119.4199,700.1772H627.1741c12.3577-6.5383,24.6357-13.2365,36.8451-20.0715&#10;&#9;&#9;&#9;c26.7124-14.9594,53.8699-31.3109,71.5223-56.3231c17.6523-25.0009,23.312-61.0244,5.4086-85.8541&#10;&#9;&#9;&#9;c-15.1306-20.9957-43.623-30.2269-56.0835-52.9114c-8.25-15.0279-7.2458-33.2165-0.2511-49.0774&#10;&#9;&#9;&#9;c1.7915-1.3693,3.5944-2.7272,5.3972-4.0736c0.7075-0.5249,1.4036-1.0612,2.111-1.5747c1.2666-0.9357,2.5217-1.8714,3.7884-2.7842&#10;&#9;&#9;&#9;c1.1981-0.8786,2.4077-1.7458,3.6057-2.6016c0.525-0.3766,1.0498-0.7531,1.5747-1.1183c0.8216-0.5819,1.6317-1.1524,2.4533-1.723&#10;&#9;&#9;&#9;c2.5103-1.7458,5.0435-3.4575,7.6109-5.1234c0.0457-0.0342,0.1027-0.0685,0.1598-0.1027c1.1411-0.7417,2.2936-1.472,3.446-2.2023&#10;&#9;&#9;&#9;c1.472-0.9243,2.9668-1.8485,4.473-2.7386c0.6618-0.3994,1.3351-0.7988,2.0082-1.1867c3.3547-1.9627,6.7552-3.834,10.2354-5.6027&#10;&#9;&#9;&#9;c1.3236-0.6732,2.6588-1.3236,3.9938-1.9626c4.2904-2.0425,8.6835-3.9138,13.1907-5.5798&#10;&#9;&#9;&#9;c23.9282-8.8205,49.1345-14.0237,74.4777-15.2105c2.8527-0.1369,5.7053-0.2168,8.5694-0.251&#10;&#9;&#9;&#9;c5.0549-0.0685,10.1099,0.0342,15.1534,0.3081c0.0114,0,0.0114,0,0.0229,0c2.4761,0.1255,4.9521,0.2966,7.4169,0.5134&#10;&#9;&#9;&#9;c2.4761,0.2054,4.9522,0.4565,7.4169,0.7531c2.4761,0.2853,4.9408,0.6161,7.3941,0.9927c1.6432,0.251,3.2863,0.5135,4.918,0.7988&#10;&#9;&#9;&#9;c2.4533,0.4336,4.8951,0.9014,7.3256,1.4035c10.5663,2.2023,20.9957,5.1919,31.1969,8.9802&#10;&#9;&#9;&#9;c39.2528,14.5942,74.1353,39.0474,103.1413,69.3884c16.3515,17.1046,30.8317,36.0806,43.1666,56.2205&#10;&#9;&#9;&#9;C1091.9431,575.4697,1110.3942,637.4412,1119.4199,700.1772z" style="fill: rgb(132, 184, 98);"/>
		<path class="st6" d="M1119.4199,700.1772h-46.4072c-8.2499-62.736-25.092-124.7075-55.3304-178.7143&#10;&#9;&#9;&#9;c-11.2623-20.1399-24.4988-39.1159-39.4354-56.2205c-26.4957-30.341-58.3771-54.7942-94.2295-69.3884&#10;&#9;&#9;&#9;c-19.6264-7.9875-40.1771-12.392-60.876-13.4989c2.8527-0.1369,5.7053-0.2168,8.5694-0.251&#10;&#9;&#9;&#9;c5.0549-0.057,10.1099,0.0456,15.1534,0.3081c0.0114,0,0.0114,0,0.0229,0c2.4761,0.1369,4.9521,0.308,7.4169,0.5134&#10;&#9;&#9;&#9;c2.4761,0.2168,4.9408,0.4679,7.4169,0.7531c2.4647,0.2967,4.9294,0.6276,7.3941,0.9927c1.6432,0.251,3.2863,0.5135,4.918,0.7988&#10;&#9;&#9;&#9;c2.4533,0.4336,4.8951,0.9014,7.3256,1.4035c10.5663,2.2023,20.9957,5.1919,31.1969,8.9802&#10;&#9;&#9;&#9;c39.2528,14.5942,74.1353,39.0474,103.1413,69.3884c16.3515,17.1046,30.8317,36.0806,43.1666,56.2205&#10;&#9;&#9;&#9;C1091.9431,575.4697,1110.3942,637.4412,1119.4199,700.1772z" style="fill: rgb(109, 160, 77);"/>
	</g>
	
		<path d="M 576.459192 517.145691 A 12.8193 6.1106 0 0 1 563.639893 523.256291 A 12.8193 6.1106 0 0 1 550.820593 517.145691 A 12.8193 6.1106 0 0 1 563.639893 511.035091 A 12.8193 6.1106 0 0 1 576.459192 517.145691 Z" transform="matrix(0.9271 -0.3747 0.3747 0.9271 -152.7198 248.8952)" class="st7" style="fill: rgb(179, 216, 145);"/>
	
		<path d="M 538.634085 557.441711 A 8.6527 6.1106 0 0 1 529.981384 563.552311 A 8.6527 6.1106 0 0 1 521.328684 557.441711 A 8.6527 6.1106 0 0 1 529.981384 551.331111 A 8.6527 6.1106 0 0 1 538.634085 557.441711 Z" transform="matrix(0.9271 -0.3747 0.3747 0.9271 -170.2726 239.2186)" class="st7" style="fill: rgb(179, 216, 145);"/>
	
		<path d="M 601.397716 503.657288 A 4.964 3.5056 0 0 1 596.433716 507.162888 A 4.964 3.5056 0 0 1 591.469716 503.657288 A 4.964 3.5056 0 0 1 596.433716 500.151688 A 4.964 3.5056 0 0 1 601.397716 503.657288 Z" transform="matrix(0.9271 -0.3747 0.3747 0.9271 -145.2758 260.2013)" class="st7" style="fill: rgb(179, 216, 145);"/>
</g>
<g transform="matrix(1, 0, 0, 1, -234.86099243164062, -373.28147888183594)">
	<path class="st8" d="M1140.2894,700.735H259.7106c-13.8292,0-25.0401,11.2108-25.0401,25.0401v0.0001&#10;&#9;&#9;c0,13.8292,11.2109,25.0402,25.0401,25.0402h880.5789c13.8292,0,25.0402-11.2109,25.0402-25.0402v-0.0001&#10;&#9;&#9;C1165.3296,711.9458,1154.1187,700.735,1140.2894,700.735z" style="fill: rgb(109, 173, 72);"/>
	<path class="st9" d="M1076.2283,834.1433H323.7717c-23.8555,0-43.1943-19.3387-43.1943-43.1942v-40.1338h838.8451v40.1338&#10;&#9;&#9;C1119.4225,814.8046,1100.0837,834.1433,1076.2283,834.1433z" style="fill: rgb(185, 115, 98);"/>
	<path d="M 280.577393 750.815308 H 1119.422485 V 766.117608 H 280.577393 V 750.815308 Z" class="st10" style="fill: rgb(157, 72, 56);"/>
	<path class="st11" d="M836.2601,804.0952h-18.3628c-3.803,0-6.886-3.083-6.886-6.886l0,0c0-3.803,3.083-6.886,6.886-6.886h18.3628&#10;&#9;&#9;c3.803,0,6.886,3.083,6.886,6.886l0,0C843.1462,801.0121,840.0632,804.0952,836.2601,804.0952z" style="fill: rgb(172, 96, 79);"/>
	<path class="st11" d="M560.4011,815.3632h-18.3628c-3.803,0-6.886-3.083-6.886-6.886l0,0c0-3.803,3.083-6.886,6.886-6.886h18.3628&#10;&#9;&#9;c3.803,0,6.886,3.083,6.886,6.886l0,0C567.2872,812.2802,564.2042,815.3632,560.4011,815.3632z" style="fill: rgb(172, 96, 79);"/>
	<path class="st11" d="M636.7736,792.4793h-18.3628c-3.803,0-6.886-3.0829-6.886-6.886l0,0c0-3.803,3.0829-6.886,6.886-6.886&#10;&#9;&#9;h18.3628c3.8031,0,6.886,3.083,6.886,6.886l0,0C643.6596,789.3964,640.5767,792.4793,636.7736,792.4793z" style="fill: rgb(172, 96, 79);"/>
	<path class="st12" d="M985.249,792.4793h-18.3628c-3.803,0-6.886-3.0829-6.886-6.886l0,0c0-3.803,3.083-6.886,6.886-6.886h18.3628&#10;&#9;&#9;c3.803,0,6.886,3.083,6.886,6.886l0,0C992.1351,789.3964,989.0521,792.4793,985.249,792.4793z" style="fill: rgb(197, 137, 121);"/>
	<path class="st12" d="M752.1669,815.3632h-18.3628c-3.803,0-6.886-3.083-6.886-6.886l0,0c0-3.803,3.0829-6.886,6.886-6.886h18.3628&#10;&#9;&#9;c3.8031,0,6.886,3.083,6.886,6.886l0,0C759.053,812.2802,755.97,815.3632,752.1669,815.3632z" style="fill: rgb(197, 137, 121);"/>
	<path class="st12" d="M380.9467,815.3632h-18.3628c-3.8031,0-6.886-3.083-6.886-6.886l0,0c0-3.803,3.083-6.886,6.886-6.886h18.3628&#10;&#9;&#9;c3.803,0,6.886,3.083,6.886,6.886l0,0C387.8327,812.2802,384.7498,815.3632,380.9467,815.3632z" style="fill: rgb(197, 137, 121);"/>
</g>
<g transform="matrix(1, 0, 0, 1, -234.86099243164062, -373.28147888183594)">
	<path class="st13" d="M713.6641,440.3247v94.4509h242.2014v-94.4509c0-16.7542-13.582-30.3362-30.3362-30.3362H744.0004&#10;&#9;&#9;C727.2461,409.9885,713.6641,423.5705,713.6641,440.3247z" style="fill: rgb(159, 131, 128);"/>
	<path class="st14" d="M858.0509,510.5101v124.7871h148.2996v-88.0707c0-20.2779-16.4385-36.7164-36.7164-36.7164H858.0509z" style="fill: rgb(145, 114, 111);"/>
	<path class="st15" d="M929.0441,624.1063h103.1251c10.6128,0,19.2162,8.6033,19.2162,19.2162v57.2712H909.8279v-57.2712&#10;&#9;&#9;C909.8279,632.7097,918.4313,624.1063,929.0441,624.1063z" style="fill: rgb(128, 101, 97);"/>
	<path class="st14" d="M806.9922,496.9326c0-13.9807-11.3335-25.3143-25.3141-25.3143h-86.269&#10;&#9;&#9;c-20.2778,0-36.7163,16.4385-36.7163,36.7164v18.8123h-45.7333c-20.278,0-36.7164,16.4385-36.7164,36.7164v36.7163h-19.3807&#10;&#9;&#9;c-20.2779,0-36.7164,16.4385-36.7164,36.7164v63.2974h226.1599v-73.4327h56.097v-55.5287h4.5894V496.9326z" style="fill: rgb(145, 114, 111);"/>
	<path class="st15" d="M1026.9219,663.2408h50.3615c5.1827,0,9.3843,4.2015,9.3843,9.3843v27.9686h-69.13v-27.9686&#10;&#9;&#9;C1017.5376,667.4423,1021.7391,663.2408,1026.9219,663.2408z" style="fill: rgb(128, 101, 97);"/>
	<path class="st15" d="M917.8583,527.1471h-19.7924v-30.2144c0-13.9807-11.3336-25.3143-25.3141-25.3143h-86.269&#10;&#9;&#9;c-20.2778,0-36.7163,16.4385-36.7163,36.7164v18.8123h-45.7333c-20.278,0-36.7164,16.4385-36.7164,36.7164v36.7163H647.936&#10;&#9;&#9;c-20.2779,0-36.7164,16.4385-36.7164,36.7164v63.2974h186.4501h39.7097h104.8609V551.5291&#10;&#9;&#9;C942.2404,538.0633,931.3241,527.1471,917.8583,527.1471z" style="fill: rgb(128, 101, 97);"/>
	<path class="st14" d="M919.436,641.1386v59.4551h98.1016v-29.2495c0-16.6821-13.5236-30.2056-30.2056-30.2056H919.436z" style="fill: rgb(145, 114, 111);"/>
	<path class="st13" d="M947.2601,693.2313v7.3624h54.5009v-7.3624c0-7.4458-6.0359-13.4818-13.4818-13.4818h-27.5373&#10;&#9;&#9;C953.2961,679.7495,947.2601,685.7855,947.2601,693.2313z" style="fill: rgb(159, 131, 128);"/>
	<path class="st14" d="M670.1479,650.5867h-28.7803c-10.8306,0-19.6105,8.7799-19.6105,19.6105v0.5413h-8.5912&#10;&#9;&#9;c-6.4661,0-11.7078,5.2418-11.7078,11.7079v18.1473h20.299h20.2991h47.7021v-30.3965&#10;&#9;&#9;C689.7584,659.3666,680.9785,650.5867,670.1479,650.5867z" style="fill: rgb(145, 114, 111);"/>
	<g>
		<g>
			<g>
				<path d="M 909.970093 475.6091 H 928.901993 V 700.593704 H 909.970093 V 475.6091 Z" class="st16" style="fill: rgb(200, 125, 85);"/>
				<path d="M 909.970093 475.6091 H 928.901993 V 487.3353 H 909.970093 V 475.6091 Z" class="st17" style="fill: rgb(183, 93, 43);"/>
			</g>
			<g>
				<path d="M 745.320313 475.6091 H 764.252213 V 700.593704 H 745.320313 V 475.6091 Z" class="st16" style="fill: rgb(200, 125, 85);"/>
				<path d="M 745.320313 475.6091 H 764.252213 V 487.3353 H 745.320313 V 475.6091 Z" class="st17" style="fill: rgb(183, 93, 43);"/>
			</g>
		</g>
		<path d="M 761.670471 477.903809 H 909.970078 V 700.593613 H 761.670471 V 477.903809 Z" class="st18" style="fill: rgb(71, 51, 43);"/>
		<g>
			<path d="M 734.706909 435.450592 H 939.515213 V 477.903893 H 734.706909 V 435.450592 Z" class="st19" style="fill: rgb(229, 146, 101);"/>
			<path d="M 734.706909 435.450592 H 939.515213 V 441.761192 H 734.706909 V 435.450592 Z" class="st20" style="fill: rgb(251, 183, 144);"/>
			<path class="st16" d="M843.4218,458.972L843.4218,458.972c0,1.2674,1.0274,2.2948,2.2948,2.2948h42.7401&#10;&#9;&#9;&#9;&#9;c1.2674,0,2.2948-1.0274,2.2948-2.2948l0,0c0-1.2674-1.0274-2.2948-2.2948-2.2948h-42.7401&#10;&#9;&#9;&#9;&#9;C844.4492,456.6772,843.4218,457.7046,843.4218,458.972z" style="fill: rgb(200, 125, 85);"/>
			<path class="st16" d="M776.73,450.7252L776.73,450.7252c0,1.2674,1.0274,2.2948,2.2947,2.2948h42.7401&#10;&#9;&#9;&#9;&#9;c1.2674,0,2.2948-1.0274,2.2948-2.2948l0,0c0-1.2674-1.0274-2.2948-2.2948-2.2948h-42.7401&#10;&#9;&#9;&#9;&#9;C777.7574,448.4304,776.73,449.4578,776.73,450.7252z" style="fill: rgb(200, 125, 85);"/>
			<path class="st16" d="M761.6705,467.7925L761.6705,467.7925c0,1.2674,1.0274,2.2948,2.2947,2.2948h42.7401&#10;&#9;&#9;&#9;&#9;c1.2674,0,2.2948-1.0274,2.2948-2.2948l0,0c0-1.2674-1.0274-2.2948-2.2948-2.2948h-42.7401&#10;&#9;&#9;&#9;&#9;C762.6979,465.4977,761.6705,466.5251,761.6705,467.7925z" style="fill: rgb(200, 125, 85);"/>
			<g>
				<path class="st16" d="M734.7069,453.0199h18.2148c1.2673,0,2.2947-1.0274,2.2947-2.2947c0-1.2674-1.0275-2.2949-2.2947-2.2949&#10;&#9;&#9;&#9;&#9;&#9;h-18.2148V453.0199z" style="fill: rgb(200, 125, 85);"/>
				<path class="st16" d="M939.5153,467.7924h-27.7524c-1.2673,0-2.2947,1.0274-2.2947,2.2948s1.0275,2.2947,2.2947,2.2947h27.7524&#10;&#9;&#9;&#9;&#9;&#9;V467.7924z" style="fill: rgb(200, 125, 85);"/>
			</g>
		</g>
	</g>
	<g>
		<path class="st15" d="M594.286,693.2313v7.3624h54.5009v-7.3624c0-7.4458-6.036-13.4818-13.4818-13.4818h-27.5373&#10;&#9;&#9;&#9;C600.322,679.7495,594.286,685.7855,594.286,693.2313z" style="fill: rgb(128, 101, 97);"/>
		<path class="st13" d="M571.912,693.2313v7.3624h54.5009v-7.3624c0-7.4458-6.036-13.4818-13.4818-13.4818h-27.5373&#10;&#9;&#9;&#9;C577.948,679.7495,571.912,685.7855,571.912,693.2313z" style="fill: rgb(159, 131, 128);"/>
		<path d="M 588.835999 686.72937 A 3.4422 3.4422 0 0 1 585.393799 690.17157 A 3.4422 3.4422 0 0 1 581.951599 686.72937 A 3.4422 3.4422 0 0 1 585.393799 683.28717 A 3.4422 3.4422 0 0 1 588.835999 686.72937 Z" class="st21" style="fill: rgb(179, 155, 151);"/>
		<path d="M 604.708072 692.562012 A 4.4939 4.4939 0 0 1 600.214172 697.055912 A 4.4939 4.4939 0 0 1 595.720273 692.562012 A 4.4939 4.4939 0 0 1 600.214172 688.068112 A 4.4939 4.4939 0 0 1 604.708072 692.562012 Z" class="st21" style="fill: rgb(179, 155, 151);"/>
	</g>
	<g>
		<path class="st15" d="M1051.3512,695.6967v4.897h36.2505v-4.897c0-4.9525-4.0148-8.9672-8.9672-8.9672h-18.3162&#10;&#9;&#9;&#9;C1055.366,686.7294,1051.3512,690.7442,1051.3512,695.6967z" style="fill: rgb(128, 101, 97);"/>
		<path class="st13" d="M1036.4694,695.6967v4.897h36.2506v-4.897c0-4.9525-4.0148-8.9672-8.9673-8.9672h-18.316&#10;&#9;&#9;&#9;C1040.4841,686.7294,1036.4694,690.7442,1036.4694,695.6967z" style="fill: rgb(159, 131, 128);"/>
		<path d="M 1047.726146 691.372009 A 2.2895 2.2895 0 0 1 1045.436646 693.661509 A 2.2895 2.2895 0 0 1 1043.147146 691.372009 A 2.2895 2.2895 0 0 1 1045.436646 689.082509 A 2.2895 2.2895 0 0 1 1047.726146 691.372009 Z" class="st21" style="fill: rgb(179, 155, 151);"/>
		<path d="M 1058.283289 695.251526 A 2.9891 2.9891 0 0 1 1055.294189 698.240626 A 2.9891 2.9891 0 0 1 1052.305089 695.251526 A 2.9891 2.9891 0 0 1 1055.294189 692.262426 A 2.9891 2.9891 0 0 1 1058.283289 695.251526 Z" class="st21" style="fill: rgb(179, 155, 151);"/>
	</g>
	<g>
		<path class="st15" d="M955.6879,619.2093v4.897h36.2505v-4.897c0-4.9525-4.0148-8.9672-8.9672-8.9672h-18.3161&#10;&#9;&#9;&#9;C959.7026,610.2421,955.6879,614.2568,955.6879,619.2093z" style="fill: rgb(128, 101, 97);"/>
		<path class="st13" d="M940.8061,619.2093v4.897h36.2505v-4.897c0-4.9525-4.0148-8.9672-8.9672-8.9672h-18.3161&#10;&#9;&#9;&#9;C944.8209,610.2421,940.8061,614.2568,940.8061,619.2093z" style="fill: rgb(159, 131, 128);"/>
		<path d="M 952.062815 614.884583 A 2.2895 2.2895 0 0 1 949.773315 617.174083 A 2.2895 2.2895 0 0 1 947.483815 614.884583 A 2.2895 2.2895 0 0 1 949.773315 612.595083 A 2.2895 2.2895 0 0 1 952.062815 614.884583 Z" class="st21" style="fill: rgb(179, 155, 151);"/>
		<path d="M 962.62002 618.764099 A 2.9891 2.9891 0 0 1 959.63092 621.753199 A 2.9891 2.9891 0 0 1 956.64182 618.764099 A 2.9891 2.9891 0 0 1 959.63092 615.774999 A 2.9891 2.9891 0 0 1 962.62002 618.764099 Z" class="st21" style="fill: rgb(179, 155, 151);"/>
	</g>
</g>
<g transform="matrix(1, 0, 0, 1, -234.86099243164062, -373.28147888183594)">
	<path class="st5" d="M564.3577,700.5937c0-12.1982-9.8886-22.0869-22.0868-22.0869c-3.7279,0-7.2349,0.9324-10.3151,2.5632&#10;&#9;&#9;c-4.0879-12.9506-16.1938-22.3409-30.4954-22.3409c-16.6109,0-30.2599,12.6671-31.8229,28.8679&#10;&#9;&#9;c-2.0899-0.8367-4.3651-1.3095-6.7538-1.3095c-6.9005,0-12.903,3.8417-15.9878,9.5024c-3.0849-5.6607-9.0874-9.5024-15.9879-9.5024&#10;&#9;&#9;c-8.7131,0-15.9865,6.1277-17.7694,14.3062H564.3577z" style="fill: rgb(132, 184, 98);"/>
	<path class="st6" d="M522.9286,681.07c2.473-1.3093,5.2239-2.1582,8.1405-2.4461c-4.766-11.6696-16.2247-19.8948-29.6088-19.8948&#10;&#9;&#9;c-1.5604,0-3.0945,0.112-4.5951,0.3279C509.189,660.7688,519.2713,669.4834,522.9286,681.07z" style="fill: rgb(109, 160, 77);"/>
	<path class="st6" d="M542.2709,678.5068c-1.5414,0-3.042,0.1677-4.4933,0.47c10.0226,2.0917,17.5529,10.9731,17.5529,21.6168&#10;&#9;&#9;h9.0272C564.3577,688.3955,554.4691,678.5068,542.2709,678.5068z" style="fill: rgb(109, 160, 77);"/>
	
		<path d="M 504.070712 670.855896 A 9.0983 6.1115 0 0 1 494.972412 676.967396 A 9.0983 6.1115 0 0 1 485.874112 670.855896 A 9.0983 6.1115 0 0 1 494.972412 664.744396 A 9.0983 6.1115 0 0 1 504.070712 670.855896 Z" transform="matrix(0.866 -0.5 0.5 0.866 -269.1142 337.3639)" class="st4" style="fill: rgb(151, 205, 120);"/>
	
		<path d="M 484.081005 673.730896 A 1.7458 1.4855 0 0 1 482.335205 675.216396 A 1.7458 1.4855 0 0 1 480.589405 673.730896 A 1.7458 1.4855 0 0 1 482.335205 672.245396 A 1.7458 1.4855 0 0 1 484.081005 673.730896 Z" transform="matrix(0.866 -0.5 0.5 0.866 -272.2448 331.4304)" class="st4" style="fill: rgb(151, 205, 120);"/>
	<path class="st5" d="M536.3732,662.6604c-10.8627,10.0579-11.6214,26.9365-1.8018,37.9333l5.4849-5.0786&#10;&#9;&#9;c-7.6504-10.9257-6.2574-26.0928,3.8035-35.4084c1.8477-1.7108,3.8726-3.1077,6.0065-4.2081&#10;&#9;&#9;C544.9827,656.796,540.2863,659.0373,536.3732,662.6604z" style="fill: rgb(132, 184, 98);"/>
	<path class="st5" d="M545.7001,671.6052c-10.1813,2.9821-16.0598,13.5673-13.2733,23.7584l5.1408-1.5057&#10;&#9;&#9;c-1.4175-9.4526,4.321-18.7373,13.7509-21.4993c1.7318-0.5072,3.477-0.7565,5.1974-0.7807&#10;&#9;&#9;C553.0964,670.5934,549.3677,670.5309,545.7001,671.6052z" style="fill: rgb(132, 184, 98);"/>
	<path class="st5" d="M457.3147,674.5166c10.1812,2.9821,16.0597,13.5673,13.2733,23.7584l-5.1408-1.5057&#10;&#9;&#9;c1.4175-9.4526-4.321-18.7373-13.7509-21.4993c-1.7318-0.5073-3.477-0.7565-5.1974-0.7808&#10;&#9;&#9;C449.9184,673.5048,453.6471,673.4424,457.3147,674.5166z" style="fill: rgb(132, 184, 98);"/>
	<path class="st5" d="M475.1378,674.0535c1.6059,10.4868-5.4979,20.2919-15.9108,22.0792l-0.8109-5.295&#10;&#9;&#9;c9.1646-2.7151,15.1491-11.8432,13.6618-21.556c-0.2731-1.7837-0.7857-3.4705-1.4917-5.0396&#10;&#9;&#9;C472.9251,666.9238,474.5594,670.2758,475.1378,674.0535z" style="fill: rgb(132, 184, 98);"/>
	
		<path d="M 429.226389 692.093628 A 2.6103 1.2047 0 0 1 426.616089 693.298328 A 2.6103 1.2047 0 0 1 424.005789 692.093628 A 2.6103 1.2047 0 0 1 426.616089 690.888928 A 2.6103 1.2047 0 0 1 429.226389 692.093628 Z" transform="matrix(0.9349 -0.3548 0.3548 0.9349 -217.8 196.3894)" class="st4" style="fill: rgb(151, 205, 120);"/>
</g>
<g transform="matrix(1, 0, 0, 1, -234.86099243164062, -373.28147888183594)">
	<g>
		<path d="M 627.276978 690.370972 H 962.274567 V 700.548872 H 627.276978 V 690.370972 Z" class="st22" style="fill: rgb(127, 138, 154);"/>
		<path d="M 627.276978 690.370972 H 962.274567 V 693.763572 H 627.276978 V 690.370972 Z" class="st23" style="fill: rgb(175, 181, 191);"/>
	</g>
	<g>
		<path class="st24" d="M624.6599,681.0879h-5.2679c-1.4454,0-2.6172,1.1718-2.6172,2.6171v16.8439h10.5023V683.705&#10;&#9;&#9;&#9;C627.277,682.2596,626.1053,681.0879,624.6599,681.0879z" style="fill: rgb(217, 158, 103);"/>
		<path class="st25" d="M624.6599,681.0879h-5.2679c-1.4454,0-2.6172,1.1718-2.6172,2.6171v2.2593&#10;&#9;&#9;&#9;c0-1.4454,1.1718-2.6172,2.6172-2.6172h5.2679c1.4454,0,2.6172,1.1718,2.6172,2.6172v-2.2593&#10;&#9;&#9;&#9;C627.277,682.2596,626.1053,681.0879,624.6599,681.0879z" style="fill: rgb(234, 196, 161);"/>
	</g>
</g>
<path d="M 440.792288 576.365784 A 8.6527 6.1106 0 0 1 432.139587 582.476384 A 8.6527 6.1106 0 0 1 423.486887 576.365784 A 8.6527 6.1106 0 0 1 432.139587 570.255184 A 8.6527 6.1106 0 0 1 440.792288 576.365784 Z" transform="matrix(0.9271001815795898, -0.37470000982284546, 0.37470000982284546, 0.9271001815795898, -419.3543701171875, -169.34817504882812)" class="st7" style="fill: rgb(179, 216, 145);"/>
<g transform="matrix(1, 0, 0, 1, -234.86099243164062, -373.28147888183594)">
	<path class="st26" d="M775.6627,545.1989h-26.3823v-2.1395c0-6.1141-4.9564-11.0703-11.0703-11.0703h-6.0495v-2.4479&#10;&#9;&#9;c0-3.5986-2.9173-6.5159-6.5159-6.5159H709.661v-2.7407c0-4.9537-4.0157-8.9694-8.9694-8.9694h-22.1744&#10;&#9;&#9;c-4.9537,0-8.9694,4.0157-8.9694,8.9694v6.0744c-6.2717,1.1025-11.0415,6.564-11.0415,13.1516&#10;&#9;&#9;c0,0.2383,0.0234,0.4708,0.0356,0.7061h-6.3102c-4.0593,0-7.35,3.2906-7.35,7.3499v4.111h-2.7298c-4.0593,0-7.35,3.2906-7.35,7.35&#10;&#9;&#9;v14.7159h10.0798v7.3888h60.4468v-6.6021h30.5662v1.038h47.671v-22.4665C783.5656,548.7371,780.0273,545.1989,775.6627,545.1989z" style="fill: rgb(226, 153, 87);"/>
	<path class="st27" d="M746.8162,582.9863h-21.8561c-3.9216,0-7.1008-3.1791-7.1008-7.1008v-21.8561&#10;&#9;&#9;c0-3.9217,3.1791-7.1008,7.1008-7.1008h21.8561c3.9217,0,7.1008,3.1791,7.1008,7.1008v21.8561&#10;&#9;&#9;C753.9171,579.8071,750.7379,582.9863,746.8162,582.9863z" style="fill: rgb(237, 185, 137);"/>
	<path class="st27" d="M758.4954,592.1365h-7.8282c-7.7953,0-14.1147-6.3194-14.1147-14.1147v-7.8283&#10;&#9;&#9;c0-7.7953,6.3193-14.1147,14.1147-14.1147h7.8282c7.7953,0,14.1147,6.3193,14.1147,14.1147v7.8283&#10;&#9;&#9;C772.6102,585.8171,766.2908,592.1365,758.4954,592.1365z" style="fill: rgb(237, 185, 137);"/>
	<path class="st28" d="M705.853,574.5303h-49.0816v-8.811c0-6.7918,5.5059-12.2976,12.2976-12.2976h24.4864&#10;&#9;&#9;c6.7917,0,12.2976,5.5058,12.2976,12.2976V574.5303z" style="fill: rgb(215, 119, 26);"/>
	<path class="st28" d="M723.0353,560.6193h-36.9828v-8.811c0-6.7918,5.5059-12.2976,12.2976-12.2976h12.3876&#10;&#9;&#9;c6.7918,0,12.2976,5.5058,12.2976,12.2976V560.6193z" style="fill: rgb(215, 119, 26);"/>
	<path class="st28" d="M735.8947,574.5303h-36.9828v-8.811c0-6.7918,5.5058-12.2976,12.2976-12.2976h12.3876&#10;&#9;&#9;c6.7917,0,12.2976,5.5058,12.2976,12.2976V574.5303z" style="fill: rgb(215, 119, 26);"/>
	<path d="M 591.646484 641.212097 H 782.936188 V 666.124098 H 591.646484 V 641.212097 Z" class="st17" style="fill: rgb(183, 93, 43);"/>
	<path d="M 617.725586 641.212097 H 782.936081 V 646.817297 H 617.725586 V 641.212097 Z" class="st29" style="fill: rgb(158, 72, 35);"/>
	<g>
		<g>
			<path d="M 673.4031982421875 663.8021240234375 L 657.7470703125 663.8021240234375 L 657.7470703125 648.1450805664062 L 650.4597778320312 648.1450805664062 L 650.4597778320312 663.8021240234375 L 634.8018798828125 663.8021240234375 L 634.8018798828125 671.0892944335938 L 650.4597778320312 671.0892944335938 L 650.4597778320312 686.7454833984375 L 657.7470703125 686.7454833984375 L 657.7470703125 671.0892944335938 L 673.4031982421875 671.0892944335938 Z" class="st30" style="fill: rgb(140, 142, 144);"/>
			<path class="st31" d="M654.1035,691.3c-13.1547,0-23.8561-10.7014-23.8561-23.8543c0-13.1538,10.7014-23.8552,23.8561-23.8552&#10;&#9;&#9;&#9;&#9;c13.1529,0,23.8542,10.7014,23.8542,23.8552C677.9577,680.5986,667.2563,691.3,654.1035,691.3z M654.1035,652.6996&#10;&#9;&#9;&#9;&#9;c-8.1323,0-14.7471,6.6156-14.7471,14.7461c0,8.1306,6.6147,14.7452,14.7471,14.7452c8.1305,0,14.7452-6.6147,14.7452-14.7452&#10;&#9;&#9;&#9;&#9;C668.8487,659.3152,662.2339,652.6996,654.1035,652.6996z" style="fill: rgb(228, 229, 230);"/>
			<path d="M 663.141828 667.445374 A 9.0388 9.0388 0 0 1 654.103027 676.484174 A 9.0388 9.0388 0 0 1 645.064227 667.445374 A 9.0388 9.0388 0 0 1 654.103027 658.406573 A 9.0388 9.0388 0 0 1 663.141828 667.445374 Z" class="st31" style="fill: rgb(228, 229, 230);"/>
		</g>
		<g>
			<path d="M 773.1470947265625 663.8021240234375 L 757.4910278320312 663.8021240234375 L 757.4910278320312 648.1450805664062 L 750.2036743164062 648.1450805664062 L 750.2036743164062 663.8021240234375 L 734.5457763671875 663.8021240234375 L 734.5457763671875 671.0892944335938 L 750.2036743164062 671.0892944335938 L 750.2036743164062 686.7454833984375 L 757.4910278320312 686.7454833984375 L 757.4910278320312 671.0892944335938 L 773.1470947265625 671.0892944335938 Z" class="st30" style="fill: rgb(140, 142, 144);"/>
			<path class="st31" d="M753.8474,691.3c-13.1547,0-23.8561-10.7014-23.8561-23.8543c0-13.1538,10.7014-23.8552,23.8561-23.8552&#10;&#9;&#9;&#9;&#9;c13.1529,0,23.8542,10.7014,23.8542,23.8552C777.7016,680.5986,767.0002,691.3,753.8474,691.3z M753.8474,652.6996&#10;&#9;&#9;&#9;&#9;c-8.1323,0-14.7471,6.6156-14.7471,14.7461c0,8.1306,6.6147,14.7452,14.7471,14.7452c8.1305,0,14.7452-6.6147,14.7452-14.7452&#10;&#9;&#9;&#9;&#9;C768.5926,659.3152,761.9778,652.6996,753.8474,652.6996z" style="fill: rgb(228, 229, 230);"/>
			<path d="M 762.885724 667.445374 A 9.0388 9.0388 0 0 1 753.846924 676.484174 A 9.0388 9.0388 0 0 1 744.808124 667.445374 A 9.0388 9.0388 0 0 1 753.846924 658.406573 A 9.0388 9.0388 0 0 1 762.885724 667.445374 Z" class="st31" style="fill: rgb(228, 229, 230);"/>
		</g>
	</g>
	<g>
		<path d="M 604.752075 641.212097 H 613.177976 V 666.124098 H 604.752075 V 641.212097 Z" class="st32" style="fill: rgb(83, 97, 110);"/>
		<path d="M 604.752075 641.212097 H 613.177976 V 643.590497 H 604.752075 V 641.212097 Z" class="st33" style="fill: rgb(101, 117, 133);"/>
		<g>
			<path d="M 611.128427 648.980713 A 2.1634 2.1634 0 0 1 608.965027 651.144113 A 2.1634 2.1634 0 0 1 606.801627 648.980713 A 2.1634 2.1634 0 0 1 608.965027 646.817313 A 2.1634 2.1634 0 0 1 611.128427 648.980713 Z" class="st34" style="fill: rgb(154, 162, 174);"/>
			<path d="M 611.128427 658.355408 A 2.1634 2.1634 0 0 1 608.965027 660.518808 A 2.1634 2.1634 0 0 1 606.801627 658.355408 A 2.1634 2.1634 0 0 1 608.965027 656.192008 A 2.1634 2.1634 0 0 1 611.128427 658.355408 Z" class="st34" style="fill: rgb(154, 162, 174);"/>
		</g>
	</g>
	<path d="M 617.725586 602.272278 H 790.223282 V 641.212078 H 617.725586 V 602.272278 Z" class="st20" style="fill: rgb(251, 183, 144);"/>
	<path d="M 617.725586 563.33252 H 790.223282 V 602.27232 H 617.725586 V 563.33252 Z" class="st20" style="fill: rgb(251, 183, 144);"/>
	<g>
		<path class="st19" d="M790.2234,632.322c-33.8962,0.2756-66.7698,2.1119-97.7116,5.4603&#10;&#9;&#9;&#9;c-9.1201,0.9873-18.289,2.1455-27.4311,3.4297h13.8198c4.6086-0.5741,9.2147-1.1214,13.8069-1.6185&#10;&#9;&#9;&#9;c30.877-3.3417,63.6853-5.1734,97.5159-5.4494V632.322z" style="fill: rgb(229, 146, 101);"/>
		<path class="st19" d="M662.8203,633.1077c-14.9107,2.231-31.8087,4.7618-45.0239-2.8439&#10;&#9;&#9;&#9;c-0.0237-0.0137-0.0471-0.0311-0.0707-0.0448v2.0588c6.8397,3.6957,14.4852,4.9255,22.2971,4.9255&#10;&#9;&#9;&#9;c7.7462,0,15.649-1.1832,23.0679-2.2933c41.949-6.2809,84.723-9.3317,127.1327-9.0673v-1.8214&#10;&#9;&#9;&#9;C747.7299,623.7651,704.8593,626.8143,662.8203,633.1077z" style="fill: rgb(229, 146, 101);"/>
		<path class="st19" d="M617.7256,610.6713l20.6817-1.1349c11.1621-0.6111,22.7032-1.2436,33.9774-3.0245&#10;&#9;&#9;&#9;c6.8414-1.0798,13.6594-2.608,20.3776-4.2396h-8.079c-4.1809,0.9232-8.3804,1.7773-12.5833,2.4409&#10;&#9;&#9;&#9;c-11.1835,1.7649-22.6765,2.3956-33.7924,3.0049l-20.582,1.1294V610.6713z" style="fill: rgb(229, 146, 101);"/>
		<path class="st19" d="M770.5826,612.229c-6.1255-1.0399-12.4591-2.1163-18.7963-2.3813&#10;&#9;&#9;&#9;c-11.1461-0.4679-22.3278,1.5692-33.1216,3.5422c-5.4263,0.991-11.0376,2.0157-16.5671,2.7061&#10;&#9;&#9;&#9;c-17.0118,2.1198-34.4862,1.2329-51.3895,0.3736c-10.8191-0.5502-21.9337-1.0995-32.9824-0.8834v1.8218&#10;&#9;&#9;&#9;c11.002-0.2169,22.093,0.332,32.89,0.8817c16.9798,0.8611,34.5413,1.7542,51.7062-0.3861&#10;&#9;&#9;&#9;c5.5828-0.6965,11.2191-1.7266,16.6702-2.722c10.6942-1.9534,21.7371-3.9692,32.7196-3.5137&#10;&#9;&#9;&#9;c6.2215,0.2607,12.4965,1.3264,18.5649,2.3582l19.9468,3.3889v-1.8488L770.5826,612.229z" style="fill: rgb(229, 146, 101);"/>
	</g>
	<g>
		<path class="st19" d="M790.2234,589.3068c-3.258,0.8785-6.4444,1.6198-9.5551,2.1903&#10;&#9;&#9;&#9;c-12.9448,2.3724-25.1121,2.215-36.1639-0.4688c-1.6314-0.3959-3.2753-0.8486-4.9263-1.3041&#10;&#9;&#9;&#9;c-7.1235-1.9623-14.4891-3.995-21.5539-1.6403c-2.4534,0.8184-3.8749,2.2986-3.898,4.0626&#10;&#9;&#9;&#9;c-0.0142,1.0799,0.5089,2.1403,1.5994,3.2442c3.512,3.5529,8.481,4.7484,13.692,5.7518c2.0776,0.4008,4.1754,0.751,6.2623,1.1298&#10;&#9;&#9;&#9;h10.6578c-5.5487-0.9038-11.0828-1.8593-16.575-2.9186c-4.9193-0.9474-9.5947-2.0611-12.742-5.243&#10;&#9;&#9;&#9;c-0.7294-0.7392-1.0799-1.3743-1.0728-1.941c0.0178-1.3726,2.0353-2.1519,2.6526-2.3582&#10;&#9;&#9;&#9;c6.5383-2.1732,13.6315-0.2206,20.4936,1.6697c1.6705,0.4599,3.3323,0.918,4.9797,1.3174&#10;&#9;&#9;&#9;c11.3063,2.7443,23.7316,2.9089,36.9219,0.4902c3.0096-0.5518,6.0862-1.2583,9.2277-2.0929V589.3068z" style="fill: rgb(229, 146, 101);"/>
		<path class="st19" d="M692.7004,600.6621c-5.405-2.8145-10.9949-5.7242-16.9122-7.6546&#10;&#9;&#9;&#9;c-3.4372-1.1199-6.8958-1.8921-10.4309-2.6491c-10.0217-2.1447-21.7087-4.4024-33.3974-4.083&#10;&#9;&#9;&#9;c-5.46,0.1509-10.1637,0.923-14.2342,2.2958v1.9146c4.0211-1.4409,8.7452-2.2361,14.284-2.3887&#10;&#9;&#9;&#9;c11.4628-0.3291,23.0466,1.9205,32.9669,4.0421c3.4871,0.7463,6.894,1.507,10.2459,2.6011&#10;&#9;&#9;&#9;c5.7706,1.8809,11.2891,4.7532,16.6245,7.5319h3.9704C694.771,601.7354,693.725,601.1956,692.7004,600.6621z" style="fill: rgb(229, 146, 101);"/>
		<path class="st19" d="M718.855,565.6689c3.777,1.6145,7.684,3.2842,11.7154,4.4771c4.9103,1.4535,9.9968,2.158,15.0797,2.158&#10;&#9;&#9;&#9;c10.696,0,21.3669-3.1334,30.3438-8.9716h-3.5162c-12.3873,7.0993-27.6006,9.1477-41.3914,5.0665&#10;&#9;&#9;&#9;c-3.9282-1.1627-7.7853-2.811-11.5161-4.406c-0.5004-0.2139-0.9993-0.4342-1.4939-0.6605h-3.9096&#10;&#9;&#9;&#9;C715.6241,564.2301,717.2376,564.9772,718.855,565.6689z" style="fill: rgb(229, 146, 101);"/>
		<path class="st19" d="M617.7256,580.5408c12.2161-4.9933,27.2297-7.3784,45.9504-7.3784c0.2455,0,0.4946,0,0.7401,0.0009&#10;&#9;&#9;&#9;c9.7406,0.033,19.588,0.5889,29.2681,1.6546c6.0988,0.6707,12.2865,1.5612,18.2714,2.4213&#10;&#9;&#9;&#9;c10.4932,1.5096,21.344,3.0699,32.1343,3.5129c18.2487,0.7558,33.7273-2.1122,46.1335-8.4276v-2.0585&#10;&#9;&#9;&#9;c-12.2566,6.4735-27.6968,9.4204-46.0588,8.6661c-10.6978-0.4395-21.5023-1.9926-31.9492-3.496&#10;&#9;&#9;&#9;c-5.9991-0.8629-12.2029-1.7551-18.3319-2.4294c-9.7442-1.0719-19.6556-1.6323-29.4603-1.6652&#10;&#9;&#9;&#9;c-0.2509-0.0009-0.4982-0.0009-0.7454-0.0009c-18.6166,0-33.6385,2.3513-45.9521,7.2489V580.5408z" style="fill: rgb(229, 146, 101);"/>
	</g>
	<path d="M 617.725586 602.272278 H 790.223282 V 603.714778 H 617.725586 V 602.272278 Z" class="st17" style="fill: rgb(183, 93, 43);"/>
	<path d="M 617.725586 563.33252 H 790.223282 V 570.266119 H 617.725586 V 563.33252 Z" class="st32" style="fill: rgb(83, 97, 110);"/>
	<g>
		
			<path d="M 582.104614 598.80542 H 659.984116 V 605.73902 H 582.104614 V 598.80542 Z" transform="matrix(-1.836970e-16 1 -1 -1.836970e-16 1223.3165 -18.7721)" class="st32" style="fill: rgb(83, 97, 110);"/>
		<g>
			<path d="M 622.714311 637.203186 A 1.67 1.67 0 0 1 621.044312 638.873186 A 1.67 1.67 0 0 1 619.374312 637.203186 A 1.67 1.67 0 0 1 621.044312 635.533186 A 1.67 1.67 0 0 1 622.714311 637.203186 Z" class="st34" style="fill: rgb(154, 162, 174);"/>
			<path d="M 622.714311 610.002808 A 1.67 1.67 0 0 1 621.044312 611.672808 A 1.67 1.67 0 0 1 619.374312 610.002808 A 1.67 1.67 0 0 1 621.044312 608.332808 A 1.67 1.67 0 0 1 622.714311 610.002808 Z" class="st34" style="fill: rgb(154, 162, 174);"/>
			<path d="M 622.714311 582.802429 A 1.67 1.67 0 0 1 621.044312 584.472429 A 1.67 1.67 0 0 1 619.374312 582.802429 A 1.67 1.67 0 0 1 621.044312 581.132429 A 1.67 1.67 0 0 1 622.714311 582.802429 Z" class="st34" style="fill: rgb(154, 162, 174);"/>
		</g>
	</g>
	<g>
		
			<path d="M 747.816772 598.80542 H 825.696274 V 605.73902 H 747.816772 V 598.80542 Z" transform="matrix(-1.836970e-16 1 -1 -1.836970e-16 1389.0288 -184.4843)" class="st32" style="fill: rgb(83, 97, 110);"/>
		<g>
			<path d="M 788.42647 637.203186 A 1.67 1.67 0 0 1 786.75647 638.873186 A 1.67 1.67 0 0 1 785.08647 637.203186 A 1.67 1.67 0 0 1 786.75647 635.533186 A 1.67 1.67 0 0 1 788.42647 637.203186 Z" class="st34" style="fill: rgb(154, 162, 174);"/>
			<path d="M 788.42647 610.002808 A 1.67 1.67 0 0 1 786.75647 611.672808 A 1.67 1.67 0 0 1 785.08647 610.002808 A 1.67 1.67 0 0 1 786.75647 608.332808 A 1.67 1.67 0 0 1 788.42647 610.002808 Z" class="st34" style="fill: rgb(154, 162, 174);"/>
			<path d="M 788.42647 582.802429 A 1.67 1.67 0 0 1 786.75647 584.472429 A 1.67 1.67 0 0 1 785.08647 582.802429 A 1.67 1.67 0 0 1 786.75647 581.132429 A 1.67 1.67 0 0 1 788.42647 582.802429 Z" class="st34" style="fill: rgb(154, 162, 174);"/>
		</g>
	</g>
	<g>
		<g>
			<path d="M 624.384416 566.799316 A 1.67 1.67 0 0 1 622.714417 568.469316 A 1.67 1.67 0 0 1 621.044417 566.799316 A 1.67 1.67 0 0 1 622.714417 565.129316 A 1.67 1.67 0 0 1 624.384416 566.799316 Z" class="st34" style="fill: rgb(154, 162, 174);"/>
			<path d="M 656.888384 566.799316 A 1.67 1.67 0 0 1 655.218384 568.469316 A 1.67 1.67 0 0 1 653.548384 566.799316 A 1.67 1.67 0 0 1 655.218384 565.129316 A 1.67 1.67 0 0 1 656.888384 566.799316 Z" class="st34" style="fill: rgb(154, 162, 174);"/>
			<path d="M 689.392473 566.799316 A 1.67 1.67 0 0 1 687.722473 568.469316 A 1.67 1.67 0 0 1 686.052473 566.799316 A 1.67 1.67 0 0 1 687.722473 565.129316 A 1.67 1.67 0 0 1 689.392473 566.799316 Z" class="st34" style="fill: rgb(154, 162, 174);"/>
			<path d="M 721.896623 566.799316 A 1.67 1.67 0 0 1 720.226624 568.469316 A 1.67 1.67 0 0 1 718.556624 566.799316 A 1.67 1.67 0 0 1 720.226624 565.129316 A 1.67 1.67 0 0 1 721.896623 566.799316 Z" class="st34" style="fill: rgb(154, 162, 174);"/>
			<path d="M 754.400591 566.799316 A 1.67 1.67 0 0 1 752.730591 568.469316 A 1.67 1.67 0 0 1 751.060591 566.799316 A 1.67 1.67 0 0 1 752.730591 565.129316 A 1.67 1.67 0 0 1 754.400591 566.799316 Z" class="st34" style="fill: rgb(154, 162, 174);"/>
			<path d="M 786.90468 566.799316 A 1.67 1.67 0 0 1 785.23468 568.469316 A 1.67 1.67 0 0 1 783.56468 566.799316 A 1.67 1.67 0 0 1 785.23468 565.129316 A 1.67 1.67 0 0 1 786.90468 566.799316 Z" class="st34" style="fill: rgb(154, 162, 174);"/>
		</g>
	</g>
	<path d="M 695.957771 545.905579 A 1.2873 1.2873 0 0 1 694.670471 547.192879 A 1.2873 1.2873 0 0 1 693.383171 545.905579 A 1.2873 1.2873 0 0 1 694.670471 544.618279 A 1.2873 1.2873 0 0 1 695.957771 545.905579 Z" class="st35" style="fill: rgb(147, 80, 3);"/>
	<path d="M 763.809883 552.63269 A 1.2873 1.2873 0 0 1 762.522583 553.91999 A 1.2873 1.2873 0 0 1 761.235283 552.63269 A 1.2873 1.2873 0 0 1 762.522583 551.34539 A 1.2873 1.2873 0 0 1 763.809883 552.63269 Z" class="st36" style="fill: rgb(255, 221, 119);"/>
	<path d="M 683.886787 523.02533 A 1.2873 1.2873 0 0 1 682.599487 524.31263 A 1.2873 1.2873 0 0 1 681.312187 523.02533 A 1.2873 1.2873 0 0 1 682.599487 521.73803 A 1.2873 1.2873 0 0 1 683.886787 523.02533 Z" class="st36" style="fill: rgb(255, 221, 119);"/>
	<path d="M 745.080391 558.539124 A 1.2873 1.2873 0 0 1 743.793091 559.826424 A 1.2873 1.2873 0 0 1 742.505791 558.539124 A 1.2873 1.2873 0 0 1 743.793091 557.251824 A 1.2873 1.2873 0 0 1 745.080391 558.539124 Z" class="st36" style="fill: rgb(255, 221, 119);"/>
	<path d="M 692.762276 557.25177 A 1.2873 1.2873 0 0 1 691.474976 558.53907 A 1.2873 1.2873 0 0 1 690.187676 557.25177 A 1.2873 1.2873 0 0 1 691.474976 555.96447 A 1.2873 1.2873 0 0 1 692.762276 557.25177 Z" class="st36" style="fill: rgb(255, 221, 119);"/>
	<path d="M 647.85572 558.539124 A 1.2873 1.2873 0 0 1 646.56842 559.826424 A 1.2873 1.2873 0 0 1 645.28112 558.539124 A 1.2873 1.2873 0 0 1 646.56842 557.251824 A 1.2873 1.2873 0 0 1 647.85572 558.539124 Z" class="st36" style="fill: rgb(255, 221, 119);"/>
	<path d="M 678.766426 546.223816 A 1.2873 1.2873 0 0 1 677.479126 547.511116 A 1.2873 1.2873 0 0 1 676.191826 546.223816 A 1.2873 1.2873 0 0 1 677.479126 544.936516 A 1.2873 1.2873 0 0 1 678.766426 546.223816 Z" class="st36" style="fill: rgb(255, 221, 119);"/>
	<path d="M 703.016975 552.134399 A 1.2873 1.2873 0 0 1 701.729675 553.421699 A 1.2873 1.2873 0 0 1 700.442375 552.134399 A 1.2873 1.2873 0 0 1 701.729675 550.847099 A 1.2873 1.2873 0 0 1 703.016975 552.134399 Z" class="st35" style="fill: rgb(147, 80, 3);"/>
	<path d="M 712.899971 545.905579 A 1.2873 1.2873 0 0 1 711.612671 547.192879 A 1.2873 1.2873 0 0 1 710.325371 545.905579 A 1.2873 1.2873 0 0 1 711.612671 544.618279 A 1.2873 1.2873 0 0 1 712.899971 545.905579 Z" class="st35" style="fill: rgb(147, 80, 3);"/>
	<path d="M 671.457893 559.826416 A 1.2873 1.2873 0 0 1 670.170593 561.113716 A 1.2873 1.2873 0 0 1 668.883293 559.826416 A 1.2873 1.2873 0 0 1 670.170593 558.539116 A 1.2873 1.2873 0 0 1 671.457893 559.826416 Z" class="st35" style="fill: rgb(147, 80, 3);"/>
</g>


</svg>