<?xml version="1.0" encoding="utf-8"?>
<svg id="master-artboard" viewBox="0 0 141.3356170654297 146.79464721679688" version="1.1" xmlns="http://www.w3.org/2000/svg" x="0px" y="0px" style="enable-background:new 0 0 1400 980;" width="141.3356170654297px" height="146.79464721679688px"><rect id="ee-background" x="0" y="0" width="141.3356170654297" height="146.79464721679688" style="fill: white; fill-opacity: 0; pointer-events: none;"/>


<path d="M 946.5 695.2000122070312 L 939.7999877929688 719.4000244140625 L 966.2000122070312 725.5999755859375 L 956.7000122070312 685.4000244140625 Z" class="st18" style="fill: rgb(247, 147, 30);" transform="matrix(1, 0, 0, 1, -879.2922992706299, -641.745361328125)"/><path class="st11" d="M918.2,698.7l20.8-12.4l-29.2-5l-17.9,16.9l9.2,2.2L918.2,698.7z M911.4,685c1.9,0,1.9,3,0,3&#10;&#9;&#9;C909.5,688.1,909.5,685,911.4,685z" style="fill: rgb(252, 238, 33);" transform="matrix(1, 0, 0, 1, -879.2922992706299, -641.745361328125)"/><path d="M 890 702.2999877929688 L 893.0999755859375 718.7999877929688 L 899.2000122070312 704.5999755859375 Z" class="st11" style="fill: rgb(252, 238, 33);" transform="matrix(1, 0, 0, 1, -879.2922992706299, -641.745361328125)"/><path d="M 922.2999877929688 701.5 L 934.4000244140625 716.0999755859375 L 941.7000122070312 689.9000244140625 Z" class="st18" style="fill: rgb(247, 147, 30);" transform="matrix(1, 0, 0, 1, -879.2922992706299, -641.745361328125)"/><path d="M 928.5999755859375 731.5 L 919.5 738.9000244140625 L 917.0999755859375 771.2999877929688 L 938.7999877929688 752.2000122070312 Z" class="st11" style="fill: rgb(252, 238, 33);" transform="matrix(1, 0, 0, 1, -879.2922992706299, -641.745361328125)"/><path d="M 917.9000244140625 703.2999877929688 L 904.0999755859375 704.5999755859375 L 894.7999877929688 726.0999755859375 L 902.5999755859375 730.7999877929688 L 922.7999877929688 709.2000122070312 Z" class="st17" style="fill: rgb(251, 176, 59);" transform="matrix(1, 0, 0, 1, -879.2922992706299, -641.745361328125)"/><path class="st17" d="M942.4,755l-22.8,20.1l40.4,5l-9.3-25H942.4z M943.5,773.8c-2.7-0.2-5.3-0.6-7.8-1.2&#10;&#9;&#9;c-1.9-0.5-1.1-3.4,0.8-2.9c2.3,0.6,4.7,1,7,1.1C945.4,770.9,945.5,773.9,943.5,773.8z M949.5,774.7c-1.9,0-1.9-3,0-3&#10;&#9;&#9;C951.4,771.7,951.4,774.7,949.5,774.7z" style="fill: rgb(251, 176, 59);" transform="matrix(1, 0, 0, 1, -879.2922992706299, -641.745361328125)"/><path class="st18" d="M942.9,750.5h19.4l4.2-18.6l-29.8-7.1l-4.6,3.8L942.9,750.5z M956.8,741.5c2.9,0,2.9,4.5,0,4.5&#10;&#9;&#9;C953.9,746,953.9,741.5,956.8,741.5z" style="fill: rgb(247, 147, 30);" transform="matrix(1, 0, 0, 1, -879.2922992706299, -641.745361328125)"/><path d="M 925.7000122070312 712.7000122070312 L 906.5999755859375 733.2000122070312 L 912.5 736.7999877929688 L 932.4000244140625 720.7000122070312 Z" class="st11" style="fill: rgb(252, 238, 33);" transform="matrix(1, 0, 0, 1, -879.2922992706299, -641.745361328125)"/><path d="M 966 755 L 955.5 755 L 964.2999877929688 778.5999755859375 L 989.5999755859375 752.2000122070312 L 967.0999755859375 750 Z" class="st11" style="fill: rgb(252, 238, 33);" transform="matrix(1, 0, 0, 1, -879.2922992706299, -641.745361328125)"/><path d="M 948.7999877929688 686.7000122070312 L 965.4000244140625 671 L 950.0999755859375 655 L 939.7999877929688 680.2999877929688 L 950.0999755859375 682.0999755859375 Z" class="st11" style="fill: rgb(252, 238, 33);" transform="matrix(1, 0, 0, 1, -879.2922992706299, -641.745361328125)"/><path d="M 971.2000122070312 732 L 968.0999755859375 745.5999755859375 L 991.5 747.9000244140625 L 985.2000122070312 726.2999877929688 Z" class="st18" style="fill: rgb(247, 147, 30);" transform="matrix(1, 0, 0, 1, -879.2922992706299, -641.745361328125)"/><path class="st11" d="M954.8,653.4l14.9,15.5l25.5,3.8l15.6-4.7L998,653.4H954.8z M993,664.5c-2.9,0-2.9-4.5,0-4.5&#10;&#9;&#9;C995.9,660,995.9,664.5,993,664.5z" style="fill: rgb(252, 238, 33);" transform="matrix(1, 0, 0, 1, -879.2922992706299, -641.745361328125)"/><path class="st17" d="M969.3,673.4l-8.8,8.4l10.3,43.8l31.4-12.8l-8.7-35.9L969.3,673.4z M979.3,715.5c-2.9,0-2.9-4.5,0-4.5&#10;&#9;&#9;C982.2,711,982.2,715.5,979.3,715.5z M982.2,706.1c-2.9,0-2.9-4.5,0-4.5C985.1,701.6,985.1,706.1,982.2,706.1z M989.5,712.8&#10;&#9;&#9;c-2.9,0-2.9-4.5,0-4.5C992.4,708.3,992.4,712.8,989.5,712.8z" style="fill: rgb(251, 176, 59);" transform="matrix(1, 0, 0, 1, -879.2922992706299, -641.745361328125)"/><path d="M 1004.5999755859375 703.5 L 1011.7000122070312 672.4000244140625 L 998.0999755859375 676.5 Z" class="st11" style="fill: rgb(252, 238, 33);" transform="matrix(1, 0, 0, 1, -879.2922992706299, -641.745361328125)"/>
<g transform="matrix(1, 0, 0, 1, -879.2922992706299, -641.745361328125)">
		<path class="st4" d="M396.3,308.9c0-3.3-0.1-6.6-0.3-9.8c0,0,0,0,0-0.1c0-0.2,0-0.4-0.1-0.6c-2-21.7-10.8-42.2-25.4-58.6&#10;&#9;&#9;&#9;c-16.5-18.4-38.8-30.1-63.2-33.2v-0.2c0-7-5.7-12.8-12.8-12.8s-12.8,5.7-12.8,12.8v0.2c-47.6,5.9-84.4,44.4-88.6,91.8&#10;&#9;&#9;&#9;c0,0.2-0.1,0.4-0.1,0.6c0,0,0,0.1,0,0.1c-0.2,2.2-0.3,4.3-0.4,6.5c0,1.1,0,2.2,0,3.3c-4.8,1.8-8.3,6.5-8.3,11.9&#10;&#9;&#9;&#9;c0,7,5.7,12.8,12.8,12.8h194.7c7,0,12.8-5.7,12.8-12.8C404.6,315.4,401.2,310.8,396.3,308.9z M307.3,212.7&#10;&#9;&#9;&#9;c43.3,5.8,77.1,40.7,82.4,83.4h-40.8c-1.7,0-3,1.3-3,3s1.3,3,3,3h41.3c0.1,2,0.2,4,0.2,6.1h-84.2c9.9-4.5,16.9-14.4,16.9-26&#10;&#9;&#9;&#9;c0-11.1-6.4-20.8-15.8-25.5V212.7z M297.5,200.4c2.2,1.1,3.8,3.4,3.8,6v48c-1.2-0.3-2.5-0.5-3.8-0.7V200.4z M287.7,206.4&#10;&#9;&#9;&#9;c0-2.6,1.5-4.9,3.8-6v53.4c-1.3,0.1-2.5,0.4-3.8,0.7V206.4z M294.5,259.6c12.4,0,22.5,10.1,22.5,22.5s-10.1,22.5-22.5,22.5&#10;&#9;&#9;&#9;S272,294.5,272,282.1S282.1,259.6,294.5,259.6z M198.7,305.8c0-1.3,0.1-2.5,0.2-3.7h41.4c1.7,0,3-1.3,3-3s-1.3-3-3-3h-40.8&#10;&#9;&#9;&#9;c5.2-43,38.9-77.6,82.4-83.4v43.9c-9.3,4.7-15.8,14.3-15.8,25.5c0,11.6,7,21.6,16.9,26h-84.2C198.6,307.4,198.6,306.6,198.7,305.8&#10;&#9;&#9;&#9;z M391.9,327.7H197.1c-3.7,0-6.8-3-6.8-6.8s3-6.8,6.8-6.8h194.7c3.7,0,6.8,3,6.8,6.8S395.6,327.7,391.9,327.7z" style="fill: rgb(66, 1, 4);"/>
		<path class="st4" d="M294.5,299.4c9.5,0,17.3-7.7,17.3-17.3s-7.7-17.3-17.3-17.3s-17.3,7.7-17.3,17.3S285,299.4,294.5,299.4z&#10;&#9;&#9;&#9; M294.5,270.8c6.2,0,11.3,5.1,11.3,11.3c0,6.2-5.1,11.3-11.3,11.3c-6.2,0-11.3-5.1-11.3-11.3C283.2,275.9,288.3,270.8,294.5,270.8&#10;&#9;&#9;&#9;z" style="fill: rgb(66, 1, 4);"/>
		<path class="st4" d="M261.4,296h-8c-1.7,0-3,1.3-3,3s1.3,3,3,3h8c1.7,0,3-1.3,3-3S263.1,296,261.4,296z" style="fill: rgb(66, 1, 4);"/>
		<path class="st4" d="M335.5,296h-8c-1.7,0-3,1.3-3,3s1.3,3,3,3h8c1.7,0,3-1.3,3-3S337.2,296,335.5,296z" style="fill: rgb(66, 1, 4);"/>
		<path class="st4" d="M269,226.5c-0.6-1.6-2.3-2.4-3.8-1.8c-36.5,13.2-52.2,52.9-52.8,54.5c-0.6,1.5,0.2,3.3,1.7,3.9&#10;&#9;&#9;&#9;c0.4,0.1,0.7,0.2,1.1,0.2c1.2,0,2.3-0.7,2.8-1.9c0.1-0.4,15.3-38.7,49.3-51C268.8,229.8,269.6,228.1,269,226.5z" style="fill: rgb(66, 1, 4);"/>
		<path class="st4" d="M321.7,230.4c33.9,12.3,49.1,50.7,49.3,51c0.5,1.2,1.6,1.9,2.8,1.9c0.4,0,0.7-0.1,1.1-0.2&#10;&#9;&#9;&#9;c1.5-0.6,2.3-2.3,1.7-3.9c-0.6-1.7-16.3-41.3-52.8-54.5c-1.6-0.6-3.3,0.2-3.8,1.8C319.4,228.1,320.2,229.8,321.7,230.4z" style="fill: rgb(66, 1, 4);"/>
		<path class="st4" d="M513.3,333.7h92c8.9,0,16.1-7.2,16.1-16.1V209.7c0-8.9-7.2-16.1-16.1-16.1h-92c-8.9,0-16.1,7.2-16.1,16.1&#10;&#9;&#9;&#9;v107.9C497.2,326.4,504.5,333.7,513.3,333.7z M605.3,199.6c5.6,0,10.1,4.5,10.1,10.1v65.4c-5.5,0.6-8.7-7.8-12.8-10.3&#10;&#9;&#9;&#9;c-3.7-2.2-7.9-2.5-12-1.4c-2.8,0.8-1.6,5.1,1.2,4.3c7.8-2.2,10.6,3.7,15.3,8.3c2.4,2.4,5.2,3.7,8.3,3.5v4.2c-3.9,0-8-1-10.5-3&#10;&#9;&#9;&#9;c-1-0.7-1.9-1.5-2.9-2.3c-1.7-1.5-3.6-3-5.7-4.3c-3.8-2.1-9.6-3.5-15.5,2.3c-1.9,1.9-3.8,3.6-6,4.8c-0.1-1.1-0.2-2.3-0.4-3.6&#10;&#9;&#9;&#9;c-0.2-1.2-1.3-2.1-2.6-1.9c-1.2,0.2-2.1,1.3-1.9,2.6c0.3,1.7,0.4,3.2,0.4,4.6c-5.8,1.3-13.2-0.2-15.9-5.6&#10;&#9;&#9;&#9;c-2.1-4.2-0.2-9.6,1.8-13.4c0.4-0.7,0.8-1.5,1.2-2.2c2.3-4.3,5-9.1,4.3-14.9c-0.6-4.9-3.4-9.4-7.4-12.2c-1-0.7-2.1-1.3-3.1-1.8&#10;&#9;&#9;&#9;c-1.7-0.9-3.2-1.7-4.1-2.9c-1.5-2-2.4-5.3-2.2-8.4c0.4-5.4,3.5-9.8,6.1-12.6c3.4-3.7,7.5-6.5,11.9-9.6H605.3z M503.3,209.7&#10;&#9;&#9;&#9;c0-5.6,4.5-10.1,10.1-10.1h39.4c-2.1,1.7-4.2,3.5-6.1,5.5c-3.2,3.5-7.2,9.2-7.7,16.3c-0.3,4.5,1,9.3,3.4,12.4&#10;&#9;&#9;&#9;c1.7,2.2,4,3.5,6.1,4.6c0.9,0.5,1.8,1,2.6,1.5c2.6,1.8,4.4,4.8,4.8,7.9c0.5,3.8-1.5,7.4-3.6,11.2c-0.4,0.8-0.9,1.6-1.3,2.4&#10;&#9;&#9;&#9;c-3.8,7.2-4.4,13.8-1.9,18.8c3.8,7.6,12.9,10.2,20.8,9.1c0.1,0.9,0.8,1.7,1.7,1.9c0.2,0,0.3,0.1,0.5,0.1c1,0,2-0.7,2.2-1.8&#10;&#9;&#9;&#9;c0.1-0.4,0.2-0.9,0.2-1.3c4.3-1.6,7.4-4.3,10.4-7.3c2.8-2.8,5.3-3.2,8.4-1.4c1.7,0.9,3.2,2.2,4.8,3.6c1,0.9,2.1,1.8,3.2,2.6&#10;&#9;&#9;&#9;c3.5,2.7,8.8,4.2,13.9,4.2c0.1,0,0.1,0,0.2,0v27.7c0,5.6-4.5,10.1-10.1,10.1h-92c-5.6,0-10.1-4.5-10.1-10.1V209.7z" style="fill: rgb(66, 1, 4);"/>
		<path d="M 592.200025 233 A 4.8 4.8 0 0 1 587.400024 237.8 A 4.8 4.8 0 0 1 582.600024 233 A 4.8 4.8 0 0 1 587.400024 228.2 A 4.8 4.8 0 0 1 592.200025 233 Z" class="st4" style="fill: rgb(66, 1, 4);"/>
		<path class="st4" d="M513.6,301c1.8,1.8,3.6,3.6,5.4,5.4c-1.8,1.8-3.6,3.6-5.4,5.4c-3.1,3.1,1.7,7.9,4.8,4.8&#10;&#9;&#9;&#9;c1.8-1.8,3.6-3.6,5.4-5.4c1.8,1.8,3.6,3.6,5.4,5.4c3.1,3.1,7.9-1.7,4.8-4.8c-1.8-1.8-3.6-3.6-5.4-5.4c1.8-1.8,3.6-3.6,5.4-5.4&#10;&#9;&#9;&#9;c3.1-3.1-1.7-7.9-4.8-4.8c-1.8,1.8-3.6,3.6-5.4,5.4c-1.8-1.8-3.6-3.6-5.4-5.4C515.3,293.1,510.5,297.9,513.6,301z" style="fill: rgb(66, 1, 4);"/>
		<path class="st4" d="M541.5,310.2c0.1,0,0.1,0,0.2,0c2.2-0.2,4.2-0.4,6.1-0.7c1.2-0.2,2.1-1.3,1.9-2.6c-0.2-1.2-1.3-2.1-2.6-1.9&#10;&#9;&#9;&#9;c-1.8,0.3-3.7,0.5-5.8,0.7c-1.2,0.1-2.2,1.2-2.1,2.4C539.4,309.4,540.4,310.2,541.5,310.2z" style="fill: rgb(66, 1, 4);"/>
		<path class="st4" d="M572.1,266.7c-0.7-3-1-5.7-1-8.3c0-0.6,0-1.1,0.1-1.7c0.1-1.2-0.9-2.3-2.1-2.4c-1.2-0.1-2.3,0.9-2.4,2.1&#10;&#9;&#9;&#9;c0,0.7-0.1,1.3-0.1,2c0,2.8,0.4,5.9,1.1,9.2l0.1,0.3c0.2,1.1,1.2,1.8,2.2,1.8c0.2,0,0.3,0,0.5-0.1c1.2-0.3,2-1.5,1.7-2.7&#10;&#9;&#9;&#9;L572.1,266.7z" style="fill: rgb(66, 1, 4);"/>
		<path class="st4" d="M558.1,306.8c0.3,0,0.6-0.1,0.8-0.2c4.1-1.6,7.4-3.8,9.9-6.5c0.8-0.9,0.8-2.3-0.1-3.2&#10;&#9;&#9;&#9;c-0.9-0.8-2.3-0.8-3.2,0.1c-2.1,2.2-4.8,4-8.3,5.4c-1.2,0.5-1.7,1.8-1.3,2.9C556.4,306.3,557.2,306.8,558.1,306.8z" style="fill: rgb(66, 1, 4);"/>
		<path class="st4" d="M570.9,248.1c0.4,0.2,0.8,0.3,1.2,0.3c0.8,0,1.5-0.4,1.9-1.1c0.9-1.5,2.1-2.9,3.5-4.1c0.9-0.8,1-2.3,0.2-3.2&#10;&#9;&#9;&#9;c-0.8-0.9-2.3-1-3.2-0.2c-1.7,1.5-3.1,3.2-4.3,5.1C569.5,246.1,569.8,247.4,570.9,248.1z" style="fill: rgb(66, 1, 4);"/>
		<path class="st4" d="M557.7,221.5c0-3,1.6-5.5,4.2-6.9c2.6-1.3,0.3-5.2-2.3-3.9c-4,2.1-6.5,6.3-6.5,10.8&#10;&#9;&#9;&#9;C553.2,224.4,557.7,224.4,557.7,221.5z" style="fill: rgb(66, 1, 4);"/>
		<path class="st4" d="M568.1,210.8c2.9,0,2.9-4.5,0-4.5C565.2,206.2,565.2,210.8,568.1,210.8z" style="fill: rgb(66, 1, 4);"/>
		<path class="st4" d="M602.9,250.8c2.9,0,2.9-4.5,0-4.5C600,246.3,600,250.8,602.9,250.8z" style="fill: rgb(66, 1, 4);"/>
		<path class="st4" d="M602.9,218c2.9,0,2.9-4.5,0-4.5C600,213.5,600,218,602.9,218z" style="fill: rgb(66, 1, 4);"/>
		<path class="st4" d="M516.8,271.1c0-9.7,0-19.4,0-29c0-3.9-6-3.9-6,0c0,9.7,0,19.4,0,29C510.8,274.9,516.8,275,516.8,271.1z" style="fill: rgb(66, 1, 4);"/>
		<path class="st4" d="M513.8,232.5c3.9,0,3.9-6,0-6C509.9,226.5,509.9,232.5,513.8,232.5z" style="fill: rgb(66, 1, 4);"/>
		<path class="st4" d="M513.8,221.8c3.9,0,3.9-6,0-6C509.9,215.8,509.9,221.8,513.8,221.8z" style="fill: rgb(66, 1, 4);"/>
		<path class="st4" d="M754.9,333.7c12.9,0,23-15.4,23-35v-12.3h-15.5V228c9-3.6,15.5-13.4,15.5-24.9v-9.8h-46.1v9.8&#10;&#9;&#9;&#9;c0,11.5,6.5,21.3,15.5,24.9v58.3h-15.5v12.3C731.9,318.3,742,333.7,754.9,333.7z M737.9,203.1v-3.8h34v3.8&#10;&#9;&#9;&#9;c0,11.2-7.6,20.4-17,20.4C745.5,223.5,737.9,214.3,737.9,203.1z M756.4,229.4v57h-3v-57c0.5,0,1,0.1,1.5,0.1&#10;&#9;&#9;&#9;C755.4,229.5,755.9,229.4,756.4,229.4z M737.9,292.4h34v6.3c0,15.7-7.8,29-17,29c-9.2,0-17-13.3-17-29V292.4z" style="fill: rgb(66, 1, 4);"/>
		<path class="st4" d="M768,206.3c0.1-0.7-0.1-1.5-0.6-2.1c-0.5-0.6-1.2-0.9-2-0.9h-21c-0.7,0-1.5,0.3-2,0.9&#10;&#9;&#9;&#9;c-0.5,0.6-0.7,1.3-0.6,2.1c0.9,7.4,6.5,13,13.1,13C761.5,219.4,767.2,213.8,768,206.3z M747.7,208.7h14.3&#10;&#9;&#9;&#9;c-1.3,3.2-4.1,5.5-7.2,5.5C751.8,214.1,749.1,211.9,747.7,208.7z" style="fill: rgb(66, 1, 4);"/>
		<path class="st4" d="M742.4,297.6c-1.9,0-1.9,3,0,3C744.3,300.6,744.3,297.6,742.4,297.6z" style="fill: rgb(66, 1, 4);"/>
		<path class="st4" d="M748.4,300.6c6.6,0,13.1,0,19.7,0c1.9,0,1.9-3,0-3c-6.5,0-13.1,0-19.7,0C746.5,297.6,746.5,300.6,748.4,300.6&#10;&#9;&#9;&#9;z" style="fill: rgb(66, 1, 4);"/>
		<path class="st4" d="M893.8,333.7h80.6l0.9-1.5c0.6-1,13.9-24.6,13.9-61.1c0-36.5-13.3-60.1-13.9-61.1l-0.9-1.5h-4.9v-11.8&#10;&#9;&#9;&#9;c0-1.7-1.3-3-3-3h-21.6h-21.6h-21.6c-1.7,0-3,1.3-3,3v11.8h-4.9l-0.9,1.5c-0.6,1-13.9,24.6-13.9,61.1c0,36.5,13.3,60.1,13.9,61.1&#10;&#9;&#9;&#9;L893.8,333.7z M897.4,327.7c-0.9-1.8-2.4-5-4.1-9.6h14.5c1.4,4,2.8,7.2,3.8,9.6H897.4z M931.1,327.7h-12.9c-0.9-1.8-2.4-5-4.1-9.6&#10;&#9;&#9;&#9;h17V327.7z M950,327.7h-12.9v-9.6h17C952.4,322.6,950.9,325.9,950,327.7z M970.9,327.7h-14.2c1.1-2.3,2.4-5.6,3.8-9.6h14.4&#10;&#9;&#9;&#9;C973.3,322.6,971.7,325.9,970.9,327.7z M983.2,271c0,4.5-0.2,8.8-0.6,12.9h-14.8c0.4-4.3,0.6-8.6,0.6-12.9c0-3.4-0.2-6.9-0.4-10.3&#10;&#9;&#9;&#9;h14.9C983,264,983.2,267.5,983.2,271z M975.9,226.5h-14.5c-0.8-2.4-1.6-4.6-2.3-6.5c4.8,0,9.6,0,14.4,0&#10;&#9;&#9;&#9;C974.2,221.9,975,224,975.9,226.5z M970.9,214.4c0.3,0.7,0.8,1.5,1.2,2.6c-4.8,0-9.5,0-14.3,0c-0.4-1-0.8-1.8-1.2-2.6H970.9z&#10;&#9;&#9;&#9; M947.9,199.6h15.6v8.8h-15.6V199.6z M955,226.5h-17.9V220c5.1,0,10.3,0,15.4,0C953.3,221.9,954.2,224,955,226.5z M950,214.4&#10;&#9;&#9;&#9;c0.3,0.7,0.8,1.5,1.3,2.6c-4.7,0-9.4,0-14.1,0v-2.6H950z M926.3,199.6h15.6v8.8h-15.6V199.6z M931.1,214.4v2.6&#10;&#9;&#9;&#9;c-4.7,0-9.4,0-14.1,0c0.5-1.1,0.9-2,1.3-2.6H931.1z M931.1,220v6.5h-17.9c0.9-2.5,1.7-4.7,2.5-6.5C920.8,220,926,220,931.1,220z&#10;&#9;&#9;&#9; M904.7,199.6h15.6v8.8h-15.6V199.6z M897.4,214.4h14.2c-0.4,0.8-0.7,1.7-1.2,2.6c-4.8,0-9.5,0-14.3,0&#10;&#9;&#9;&#9;C896.6,215.9,897.1,215.1,897.4,214.4z M894.8,220c4.8,0,9.6,0,14.4,0c-0.7,1.9-1.5,4.1-2.3,6.5h-14.5&#10;&#9;&#9;&#9;C893.2,224,894.1,221.9,894.8,220z M890.5,232.5h87.3c1.8,6.2,3.5,13.7,4.5,22.2H886C887,246.2,888.7,238.7,890.5,232.5z&#10;&#9;&#9;&#9; M956.3,260.7h5.6c0.3,3.4,0.4,6.9,0.4,10.3c0,4.2-0.2,8.6-0.6,12.9h-25.1v-23.1h16.6c0.1,2.8,0.1,5.6,0.2,8.4c0,1.9,3,1.9,3,0&#10;&#9;&#9;&#9;C956.4,266.3,956.3,263.5,956.3,260.7z M930.7,260.7v23.1h-24.2c-0.4-4.3-0.6-8.6-0.6-12.9c0-3.4,0.2-6.9,0.4-10.3H930.7z&#10;&#9;&#9;&#9; M885.1,271c0-3.6,0.1-7,0.4-10.3h14.9c-0.2,3.4-0.4,6.9-0.4,10.3c0,4.2,0.2,8.6,0.6,12.9h-14.8&#10;&#9;&#9;&#9;C885.3,279.8,885.1,275.5,885.1,271z M886.3,289.9h95.6c-1.2,8.7-3,16.1-4.9,22.2h-85.7C889.4,306,887.5,298.5,886.3,289.9z" style="fill: rgb(66, 1, 4);"/>
		<path d="M 897.100012 243.600006 A 1.9 1.9 0 0 1 895.200012 245.500006 A 1.9 1.9 0 0 1 893.300012 243.600006 A 1.9 1.9 0 0 1 895.200012 241.700006 A 1.9 1.9 0 0 1 897.100012 243.600006 Z" class="st4" style="fill: rgb(66, 1, 4);"/>
		<path d="M 897.100012 301 A 1.9 1.9 0 0 1 895.200012 302.9 A 1.9 1.9 0 0 1 893.300012 301 A 1.9 1.9 0 0 1 895.200012 299.1 A 1.9 1.9 0 0 1 897.100012 301 Z" class="st4" style="fill: rgb(66, 1, 4);"/>
		<path d="M 974.9 301 A 1.9 1.9 0 0 1 973 302.9 A 1.9 1.9 0 0 1 971.1 301 A 1.9 1.9 0 0 1 973 299.1 A 1.9 1.9 0 0 1 974.9 301 Z" class="st4" style="fill: rgb(66, 1, 4);"/>
		<path d="M 974.9 243.600006 A 1.9 1.9 0 0 1 973 245.500006 A 1.9 1.9 0 0 1 971.1 243.600006 A 1.9 1.9 0 0 1 973 241.700006 A 1.9 1.9 0 0 1 974.9 243.600006 Z" class="st4" style="fill: rgb(66, 1, 4);"/>
		<path class="st4" d="M933.7,298.7c-9.5,0-19,0-28.5,0c-1.9,0-1.9,3,0,3c9.5,0,19,0,28.5,0C935.6,301.7,935.6,298.7,933.7,298.7z" style="fill: rgb(66, 1, 4);"/>
		<path class="st4" d="M940.3,298.7c-1.9,0-1.9,3,0,3C942.2,301.7,942.2,298.7,940.3,298.7z" style="fill: rgb(66, 1, 4);"/>
		<path class="st4" d="M945.9,298.7c-1.9,0-1.9,3,0,3C947.8,301.7,947.8,298.7,945.9,298.7z" style="fill: rgb(66, 1, 4);"/>
		<path class="st4" d="M964.5,298.7c-3.9,0-7.8,0-11.6,0c-1.9,0-1.9,3,0,3c3.9,0,7.8,0,11.6,0C966.4,301.7,966.4,298.7,964.5,298.7z&#10;&#9;&#9;&#9;" style="fill: rgb(66, 1, 4);"/>
		<path class="st4" d="M909.7,242c-2.3,0-4.5,0-6.8,0c-1.9,0-1.9,3,0,3c2.3,0,4.5,0,6.8,0C911.6,245,911.6,242,909.7,242z" style="fill: rgb(66, 1, 4);"/>
		<path class="st4" d="M916,242c-1.9,0-1.9,3,0,3C918,245,918,242,916,242z" style="fill: rgb(66, 1, 4);"/>
		<path class="st4" d="M921.5,242c-1.9,0-1.9,3,0,3C923.4,245,923.4,242,921.5,242z" style="fill: rgb(66, 1, 4);"/>
		<path class="st4" d="M957.2,242c-9.4,0-18.9,0-28.3,0c-1.9,0-1.9,3,0,3c9.4,0,18.9,0,28.3,0C959.1,245,959.1,242,957.2,242z" style="fill: rgb(66, 1, 4);"/>
		<path class="st4" d="M963.7,242c-1.9,0-1.9,3,0,3C965.7,245,965.7,242,963.7,242z" style="fill: rgb(66, 1, 4);"/>
		<path class="st4" d="M911.6,281.3c1.9,0,1.9-3,0-3C909.7,278.3,909.7,281.3,911.6,281.3z" style="fill: rgb(66, 1, 4);"/>
		<path class="st4" d="M913.3,275.1c1.9,0,1.9-3,0-3C911.4,272.1,911.4,275.1,913.3,275.1z" style="fill: rgb(66, 1, 4);"/>
		<path class="st4" d="M916.6,281.1c1.9,0,1.9-3,0-3C914.7,278.1,914.7,281.1,916.6,281.1z" style="fill: rgb(66, 1, 4);"/>
		<path class="st4" d="M954.6,275.8c-1.9,0-1.9,3,0,3C956.6,278.8,956.6,275.8,954.6,275.8z" style="fill: rgb(66, 1, 4);"/>
		<path class="st4" d="M920.6,224.8c1.9,0,1.9-3,0-3C918.7,221.8,918.7,224.8,920.6,224.8z" style="fill: rgb(66, 1, 4);"/>
		<path class="st4" d="M920.6,325.1c1.9,0,1.9-3,0-3C918.7,322.1,918.7,325.1,920.6,325.1z" style="fill: rgb(66, 1, 4);"/>
		<path class="st4" d="M977.9,275.3c-0.2,1.9,2.8,1.9,3,0c0.2-2.7,0.1-5.3-0.4-7.9c-0.4-1.9-3.3-1.1-2.9,0.8&#10;&#9;&#9;&#9;C978,270.6,978.1,272.9,977.9,275.3z" style="fill: rgb(66, 1, 4);"/>
		<path class="st4" d="M979.2,278.8c-1.9,0-1.9,3,0,3C981.1,281.8,981.1,278.8,979.2,278.8z" style="fill: rgb(66, 1, 4);"/>
		<path class="st4" d="M907.6,201.5c-1.9,0-1.9,3,0,3C909.5,204.5,909.5,201.5,907.6,201.5z" style="fill: rgb(66, 1, 4);"/>
		<path class="st4" d="M929.6,201.5c-1.9,0-1.9,3,0,3C931.6,204.5,931.6,201.5,929.6,201.5z" style="fill: rgb(66, 1, 4);"/>
		<path class="st4" d="M951.6,201.5c-1.9,0-1.9,3,0,3C953.6,204.5,953.6,201.5,951.6,201.5z" style="fill: rgb(66, 1, 4);"/>
		<path class="st4" d="M1158.1,333.7l14.1-15.2V208.8l-14.1-15.2h-52.3l-14.1,15.2v109.6l14.1,15.2H1158.1z M1155.5,199.7l6.8,7.3&#10;&#9;&#9;&#9;h-6.8V199.7z M1155.5,213h10.7v101.3h-10.7V213z M1155.5,320.3h6.8l-6.8,7.3V320.3z M1114.3,199.6h35.2v7.4h-35.2V199.6z&#10;&#9;&#9;&#9; M1114.3,213h35.2v101.3h-35.2V213z M1114.3,320.3h35.2v7.4h-35.2V320.3z M1108.3,199.7v7.3h-6.8L1108.3,199.7z M1097.6,213h10.7&#10;&#9;&#9;&#9;v101.3h-10.7V213z M1108.3,320.3v7.3l-6.8-7.3H1108.3z" style="fill: rgb(66, 1, 4);"/>
		<path class="st4" d="M1119.2,271.3c0,10.4,0,20.8,0,31.2c0,2.9,4.5,2.9,4.5,0c0-10.4,0-20.8,0-31.2&#10;&#9;&#9;&#9;C1123.7,268.4,1119.2,268.4,1119.2,271.3z" style="fill: rgb(66, 1, 4);"/>
		<path class="st4" d="M1121.5,261.6c2.9,0,2.9-4.5,0-4.5C1118.6,257.1,1118.6,261.6,1121.5,261.6z" style="fill: rgb(66, 1, 4);"/>
		<path class="st4" d="M1121.5,247.3c-2.9,0-2.9,4.5,0,4.5C1124.4,251.8,1124.4,247.3,1121.5,247.3z" style="fill: rgb(66, 1, 4);"/>
		<path class="st4" d="M1119.2,225.5c0,3.6,0,7.3,0,10.9c0,2.9,4.5,2.9,4.5,0c0-3.6,0-7.3,0-10.9&#10;&#9;&#9;&#9;C1123.7,222.6,1119.2,222.6,1119.2,225.5z" style="fill: rgb(66, 1, 4);"/>
		<path class="st4" d="M387.1,446.2h-10.4v-10.7c0-1.7-1.3-3-3-3H342h-31.7h-31.7h-31.7h-31.7c-1.7,0-3,1.3-3,3v10.7h-10.4&#10;&#9;&#9;&#9;c-5,0-9,4.1-9,9V469c0,5,4.1,9,9,9h3.2l16.6,72.4H239c-1.6,2.3-2.5,5-2.5,8c0,7.7,6.3,14,14,14c7.7,0,14-6.3,14-14&#10;&#9;&#9;&#9;c0-3-0.9-5.8-2.5-8H327c-1.6,2.3-2.5,5-2.5,8c0,7.7,6.3,14,14,14c7.7,0,14-6.3,14-14c0-3-0.9-5.8-2.5-8h17.3l16.6-72.4h3.2&#10;&#9;&#9;&#9;c5,0,9-4.1,9-9v-13.8C396.2,450.2,392.1,446.2,387.1,446.2z M358.2,438.5h12.5v6.7h-12.5C358.2,442.9,358.2,440.7,358.2,438.5z&#10;&#9;&#9;&#9; M345,438.5h10.2c0,2.2,0,4.5,0,6.7H345V438.5z M325.1,438.5H339v6.7h-13.9C325.1,442.9,325.1,440.7,325.1,438.5z M313.3,438.5&#10;&#9;&#9;&#9;h8.8c0,2.2,0,4.5,0,6.7h-8.8V438.5z M292,438.5h15.3v6.7H292C292,442.9,292,440.7,292,438.5z M281.6,438.5h7.3c0,2.2,0,4.5,0,6.7&#10;&#9;&#9;&#9;h-7.3V438.5z M258.9,438.5h16.7v6.7h-16.7C258.9,442.9,258.9,440.7,258.9,438.5z M249.9,438.5h5.9c0,2.2,0,4.5,0,6.7h-5.9V438.5z&#10;&#9;&#9;&#9; M225.8,438.5h18.2v6.7h-18.2C225.8,442.9,225.8,440.7,225.8,438.5z M218.3,438.5h4.5c0,2.2,0,4.5,0,6.7h-4.5V438.5z M211.2,478&#10;&#9;&#9;&#9;h9.7l12.8,55.9H224L211.2,478z M347.1,533.9h-8L326.3,478h8L347.1,533.9z M340.5,478h8l12.8,55.9h-8L340.5,478z M332.9,533.9h-8&#10;&#9;&#9;&#9;L312.1,478h8L332.9,533.9z M318.7,533.9h-8L297.9,478h8L318.7,533.9z M304.6,533.9h-8L283.8,478h8L304.6,533.9z M290.4,533.9h-8&#10;&#9;&#9;&#9;L269.6,478h8L290.4,533.9z M276.2,533.9h-8L255.4,478h8L276.2,533.9z M262,533.9h-8L241.2,478h8L262,533.9z M247.9,533.9h-8&#10;&#9;&#9;&#9;L227.1,478h8L247.9,533.9z M250.5,566.5c-4.4,0-8-3.6-8-8c0-4.4,3.6-8,8-8c4.4,0,8,3.6,8,8C258.5,562.9,254.9,566.5,250.5,566.5z&#10;&#9;&#9;&#9; M338.5,566.5c-4.4,0-8-3.6-8-8c0-4.4,3.6-8,8-8s8,3.6,8,8C346.5,562.9,342.9,566.5,338.5,566.5z M362.6,544.4H226.4l-1-4.5h138.2&#10;&#9;&#9;&#9;L362.6,544.4z M366.2,528.5L354.6,478h8l7.6,33L366.2,528.5z M373.3,497.6l-4.5-19.6h9L373.3,497.6z M390.2,469c0,1.7-1.4,3-3,3&#10;&#9;&#9;&#9;H201.8c-1.7,0-3-1.4-3-3v-7.4h191.3V469z M390.2,455.6H198.8v-0.4c0-1.7,1.4-3,3-3h185.3c1.7,0,3,1.4,3,3V455.6z" style="fill: rgb(66, 1, 4);"/>
		<path d="M 252.9 558.5 A 2.4 2.4 0 0 1 250.5 560.9 A 2.4 2.4 0 0 1 248.1 558.5 A 2.4 2.4 0 0 1 250.5 556.1 A 2.4 2.4 0 0 1 252.9 558.5 Z" class="st4" style="fill: rgb(66, 1, 4);"/>
		<path d="M 340.9 558.5 A 2.4 2.4 0 0 1 338.5 560.9 A 2.4 2.4 0 0 1 336.1 558.5 A 2.4 2.4 0 0 1 338.5 556.1 A 2.4 2.4 0 0 1 340.9 558.5 Z" class="st4" style="fill: rgb(66, 1, 4);"/>
		<path class="st4" d="M263.4,496c1.9,0,1.9-3,0-3C261.4,493,261.4,496,263.4,496z" style="fill: rgb(66, 1, 4);"/>
		<path class="st4" d="M285,529.8c1.9,0,1.9-3,0-3C283.1,526.8,283.1,529.8,285,529.8z" style="fill: rgb(66, 1, 4);"/>
		<path class="st4" d="M282.9,524.3c1.9,0,1.9-3,0-3C281,521.3,281,524.3,282.9,524.3z" style="fill: rgb(66, 1, 4);"/>
		<path class="st4" d="M331.3,484.8c-1.9,0-1.9,3,0,3C333.3,487.8,333.3,484.8,331.3,484.8z" style="fill: rgb(66, 1, 4);"/>
		<path class="st4" d="M630.9,463.2c-19.4-23.7-51.5-29.4-60-30.5c-0.1-2.8-1.2-5.5-3.3-7.6c-2.1-2.1-4.9-3.3-8-3.3&#10;&#9;&#9;&#9;c-6.1,0-11,4.8-11.2,10.9c-8.5,1.1-40.6,6.8-60,30.5l-0.2,0.2c-0.3,0.5-3,4.7-1.1,8.6c0.6,1.2,1.7,2.1,3.2,2.4&#10;&#9;&#9;&#9;c3.9,0.9,9.6-2.6,11.2-3.8c1.5-1.2,24.2-13.3,46.9-14.1v104.6c0,6.2,5.1,11.3,11.3,11.3c6.2,0,11.3-5.1,11.3-11.3V456.6&#10;&#9;&#9;&#9;c22.7,0.8,45.4,12.9,46.9,14.1c1.5,1.1,6,4,9.8,4c0.5,0,0.9,0,1.4-0.1c1.4-0.3,2.5-1.2,3.2-2.4c1.9-3.9-0.8-8.2-1.1-8.6&#10;&#9;&#9;&#9;L630.9,463.2z M559.6,427.8c1.4,0,2.7,0.5,3.7,1.5c0.8,0.9,1.3,1.9,1.5,3.1l-10.4,0C554.8,429.8,557,427.8,559.6,427.8z&#10;&#9;&#9;&#9; M564.9,561.2c0,2.9-2.4,5.3-5.3,5.3c-2.9,0-5.3-2.4-5.3-5.3V456.6h10.5V561.2z M621.5,465.9c-3.4-2.6-28.9-15.4-53-15.4h-17.8&#10;&#9;&#9;&#9;c-24.1,0-49.6,12.8-53,15.4c-1.5,1.2-3.9,2.3-5.3,2.6c0.1-0.5,0.4-1.2,0.7-1.7c19.9-24.1,55.4-28.2,57.8-28.4h17.5&#10;&#9;&#9;&#9;c2.3,0.2,37.9,4.3,57.7,28.4c0.3,0.5,0.6,1.1,0.7,1.7C625.4,468.2,623,467.1,621.5,465.9z" style="fill: rgb(66, 1, 4);"/>
		<path class="st4" d="M546.5,444.6c-1.9,0-1.9,3,0,3C548.4,447.7,548.4,444.6,546.5,444.6z" style="fill: rgb(66, 1, 4);"/>
		<path class="st4" d="M559.6,514.7c0-6.1,0-12.1,0-18.2c0-1.9-3-1.9-3,0c0,6.1,0,12.1,0,18.2C556.6,516.6,559.6,516.6,559.6,514.7z&#10;&#9;&#9;&#9;" style="fill: rgb(66, 1, 4);"/>
		<path class="st4" d="M558.1,491.4c1.9,0,1.9-3,0-3C556.2,488.4,556.2,491.4,558.1,491.4z" style="fill: rgb(66, 1, 4);"/>
		<path class="st4" d="M558.1,485.2c1.9,0,1.9-3,0-3C556.2,482.2,556.2,485.2,558.1,485.2z" style="fill: rgb(66, 1, 4);"/>
		<path class="st4" d="M551.5,440.8c-1.9,0-1.9,3,0,3C553.4,443.8,553.4,440.8,551.5,440.8z" style="fill: rgb(66, 1, 4);"/>
		<path class="st4" d="M554.3,445c-1.9,0-1.9,3,0,3C556.2,448,556.2,445,554.3,445z" style="fill: rgb(66, 1, 4);"/>
		<path class="st4" d="M784.5,432.5h-12.8c-2,0-3.8,0.7-5.2,1.8c-1.4-1.2-3.2-1.8-5.2-1.8H758c-0.4-1.8-1.1-3.4-2-5.1&#10;&#9;&#9;&#9;c-1.6-3-4.9-8.4-0.2-10.5c2.7-1.2,0.4-5-2.3-3.9c-3.3,1.4-4.8,4.8-4.6,8.2c0.3,4.2,3.2,7.4,4.4,11.3h-4.9c-2,0-3.8,0.7-5.2,1.8&#10;&#9;&#9;&#9;c-1.4-1.2-3.2-1.8-5.2-1.8h-12.8c-4.5,0-8.2,3.7-8.2,8.2v123.7c0,4.5,3.7,8.2,8.2,8.2h12.8c2,0,3.8-0.7,5.2-1.8&#10;&#9;&#9;&#9;c1.4,1.2,3.2,1.8,5.2,1.8h12.8c2,0,3.8-0.7,5.2-1.8c1.4,1.2,3.2,1.8,5.2,1.8h12.8c4.5,0,8.2-3.7,8.2-8.2V440.7&#10;&#9;&#9;&#9;C792.6,436.2,789,432.5,784.5,432.5z M740.3,564.3c0,1.2-1,2.2-2.2,2.2h-12.8c-1.2,0-2.2-1-2.2-2.2V440.7c0-1.2,1-2.2,2.2-2.2&#10;&#9;&#9;&#9;h12.8c1.2,0,2.2,1,2.2,2.2V564.3z M763.5,564.3c0,1.2-1,2.2-2.2,2.2h-12.8c-1.2,0-2.2-1-2.2-2.2V440.7c0-1.2,1-2.2,2.2-2.2h12.8&#10;&#9;&#9;&#9;c1.2,0,2.2,1,2.2,2.2V564.3z M786.6,564.3c0,1.2-1,2.2-2.2,2.2h-12.8c-1.2,0-2.2-1-2.2-2.2V440.7c0-1.2,1-2.2,2.2-2.2h12.8&#10;&#9;&#9;&#9;c1.2,0,2.2,1,2.2,2.2V564.3z" style="fill: rgb(66, 1, 4);"/>
		<path class="st4" d="M740.1,402.9c-0.7-1-2-1.5-3.1-0.8c-1,0.6-1.5,2.1-0.8,3.1c1.7,2.4,4,4,6.8,4.9c2.8,0.9,4-3.5,1.2-4.3&#10;&#9;&#9;&#9;C742.6,405.2,741.1,404.3,740.1,402.9z" style="fill: rgb(66, 1, 4);"/>
		<path class="st4" d="M754.7,397.9c-0.6,1.6-1.2,3.3-1.8,4.9c-0.4,1.1,0.5,2.5,1.6,2.8c1.2,0.3,2.4-0.4,2.8-1.6&#10;&#9;&#9;&#9;c0.6-1.6,1.2-3.3,1.8-4.9c0.4-1.1-0.5-2.5-1.6-2.8C756.2,396,755.1,396.8,754.7,397.9z" style="fill: rgb(66, 1, 4);"/>
		<path class="st4" d="M766.2,409c-2.9,0-2.9,4.5,0,4.5c1.6,0,3.3,0,4.9,0c2.9,0,2.9-4.5,0-4.5C769.5,409,767.8,409,766.2,409z" style="fill: rgb(66, 1, 4);"/>
		<path class="st4" d="M728.6,451.8c0,6.9,0,13.9,0,20.8c0,2.9,4.5,2.9,4.5,0c0-6.9,0-13.9,0-20.8&#10;&#9;&#9;&#9;C733.2,448.9,728.6,448.9,728.6,451.8z" style="fill: rgb(66, 1, 4);"/>
		<path class="st4" d="M730.9,482.2c-2.9,0-2.9,4.5,0,4.5C733.8,486.7,733.8,482.2,730.9,482.2z" style="fill: rgb(66, 1, 4);"/>
		<path class="st4" d="M751.4,451.8c0,6.9,0,13.9,0,20.8c0,2.9,4.5,2.9,4.5,0c0-6.9,0-13.9,0-20.8&#10;&#9;&#9;&#9;C755.9,448.9,751.4,448.9,751.4,451.8z" style="fill: rgb(66, 1, 4);"/>
		<path class="st4" d="M753.7,482.2c-2.9,0-2.9,4.5,0,4.5C756.6,486.7,756.6,482.2,753.7,482.2z" style="fill: rgb(66, 1, 4);"/>
		<path class="st4" d="M774.2,451.8c0,6.9,0,13.9,0,20.8c0,2.9,4.5,2.9,4.5,0c0-6.9,0-13.9,0-20.8&#10;&#9;&#9;&#9;C778.7,448.9,774.2,448.9,774.2,451.8z" style="fill: rgb(66, 1, 4);"/>
		<path class="st4" d="M776.5,482.2c-2.9,0-2.9,4.5,0,4.5C779.4,486.7,779.4,482.2,776.5,482.2z" style="fill: rgb(66, 1, 4);"/>
		<path class="st4" d="M914.9,512.9v35.5c0,13.3,10.8,24.1,24.1,24.1c13.3,0,24.1-10.8,24.1-24.1v-10.8h16.1c8.7,0,14.1-7,14.9-13.9&#10;&#9;&#9;&#9;l0.1-0.4c0-0.1,0-0.3,0-0.4v-35.3c0-5.8-4.7-10.5-10.5-10.5c-5.8,0-10.5,4.7-10.5,10.5v29h-10.1v-70.4c0-13.3-10.8-24.1-24.1-24.1&#10;&#9;&#9;&#9;c-13.3,0-24.1,10.8-24.1,24.1v36.8H904v-20.7c0-8.3-6.7-15-15-15s-15,6.7-15,15v28.9c0,0.1,0,0.3,0,0.4l0.1,0.7&#10;&#9;&#9;&#9;c1.2,10.3,9.2,20.8,22,20.8H914.9z M963.1,522.6h13.1c1.7,0,3-1.3,3-3v-32c0-2.5,2-4.5,4.5-4.5c2.5,0,4.5,2,4.5,4.5v21.8&#10;&#9;&#9;&#9;c-0.3-0.2-0.7-0.3-1.1-0.3c-1.2,0-2.3,1-2.3,2.3v3.5c0,1.2,1,2.3,2.3,2.3c0.4,0,0.8-0.1,1.1-0.3v5.9l0,0.3&#10;&#9;&#9;&#9;c-0.5,4.3-3.7,8.7-8.9,8.7h-8v-1.5c0-1.2-1-2.3-2.3-2.3s-2.3,1-2.3,2.3v1.5h-3.6V522.6z M920.9,509.9v-24v-39.8&#10;&#9;&#9;&#9;c0-10,8.1-18.1,18.1-18.1c10,0,18.1,8.1,18.1,18.1v102.3c0,10-8.1,18.1-18.1,18.1c-10,0-18.1-8.1-18.1-18.1V509.9z M880.1,491.4&#10;&#9;&#9;&#9;l-0.1-0.5v-28.7c0-5,4-9,9-9c5,0,9,4,9,9v23.7c0,1.7,1.3,3,3,3h4v5.5c0,1.2,1,2.3,2.3,2.3s2.3-1,2.3-2.3v-5.5h5.3v18h-1.7v-4.2&#10;&#9;&#9;&#9;c0-1.2-1-2.3-2.3-2.3s-2.3,1-2.3,2.3v4.2h-12.5C886.8,506.9,881,499.1,880.1,491.4z" style="fill: rgb(66, 1, 4);"/>
		<path class="st4" d="M927.6,470.1c1.2,0,2.3-1,2.3-2.3v-26c0-1.2-1-2.3-2.3-2.3s-2.3,1-2.3,2.3v26&#10;&#9;&#9;&#9;C925.3,469.1,926.3,470.1,927.6,470.1z" style="fill: rgb(66, 1, 4);"/>
		<path class="st4" d="M927.6,483.9c1.2,0,2.3-1,2.3-2.3v-3.8c0-1.2-1-2.3-2.3-2.3s-2.3,1-2.3,2.3v3.8&#10;&#9;&#9;&#9;C925.3,482.9,926.3,483.9,927.6,483.9z" style="fill: rgb(66, 1, 4);"/>
		<path class="st4" d="M926.3,492.5v42.1c0,1.2,1,2.3,2.3,2.3s2.3-1,2.3-2.3v-42.1c0-1.2-1-2.3-2.3-2.3S926.3,491.2,926.3,492.5z" style="fill: rgb(66, 1, 4);"/>
		<path class="st4" d="M929.8,550.7v-4.5c0-1.2-1-2.3-2.3-2.3s-2.3,1-2.3,2.3v4.5c0,1.2,1,2.3,2.3,2.3S929.8,552,929.8,550.7z" style="fill: rgb(66, 1, 4);"/>
		<path class="st4" d="M950.5,470.1c1.2,0,2.3-1,2.3-2.3v-26c0-1.2-1-2.3-2.3-2.3s-2.3,1-2.3,2.3v26&#10;&#9;&#9;&#9;C948.2,469.1,949.2,470.1,950.5,470.1z" style="fill: rgb(66, 1, 4);"/>
		<path class="st4" d="M950.5,483.9c1.2,0,2.3-1,2.3-2.3v-3.8c0-1.2-1-2.3-2.3-2.3s-2.3,1-2.3,2.3v3.8&#10;&#9;&#9;&#9;C948.2,482.9,949.2,483.9,950.5,483.9z" style="fill: rgb(66, 1, 4);"/>
		<path class="st4" d="M949.5,536.8c1.2,0,2.3-1,2.3-2.3v-42.1c0-1.2-1-2.3-2.3-2.3s-2.3,1-2.3,2.3v42.1&#10;&#9;&#9;&#9;C947.2,535.8,948.2,536.8,949.5,536.8z" style="fill: rgb(66, 1, 4);"/>
		<path class="st4" d="M950.5,544c-1.2,0-2.3,1-2.3,2.3v4.5c0,1.2,1,2.3,2.3,2.3s2.3-1,2.3-2.3v-4.5C952.7,545,951.7,544,950.5,544z&#10;&#9;&#9;&#9;" style="fill: rgb(66, 1, 4);"/>
		<path class="st4" d="M939,561c1.2,0,2.3-1,2.3-2.3v-29.5c0-1.2-1-2.3-2.3-2.3s-2.3,1-2.3,2.3v29.5C936.8,560,937.8,561,939,561z" style="fill: rgb(66, 1, 4);"/>
		<path class="st4" d="M939,520.4c1.2,0,2.3-1,2.3-2.3v-4.7c0-1.2-1-2.3-2.3-2.3s-2.3,1-2.3,2.3v4.7&#10;&#9;&#9;&#9;C936.8,519.4,937.8,520.4,939,520.4z" style="fill: rgb(66, 1, 4);"/>
		<path class="st4" d="M939,505.9c1.2,0,2.3-1,2.3-2.3v-20.3c0-1.2-1-2.3-2.3-2.3s-2.3,1-2.3,2.3v20.3&#10;&#9;&#9;&#9;C936.8,504.9,937.8,505.9,939,505.9z" style="fill: rgb(66, 1, 4);"/>
		<path class="st4" d="M939,475.1c1.2,0,2.3-1,2.3-2.3v-18c0-1.2-1-2.3-2.3-2.3s-2.3,1-2.3,2.3v18&#10;&#9;&#9;&#9;C936.8,474.1,937.8,475.1,939,475.1z" style="fill: rgb(66, 1, 4);"/>
		<path class="st4" d="M939,446.8c1.2,0,2.3-1,2.3-2.3v-11.3c0-1.2-1-2.3-2.3-2.3s-2.3,1-2.3,2.3v11.3&#10;&#9;&#9;&#9;C936.8,445.8,937.8,446.8,939,446.8z" style="fill: rgb(66, 1, 4);"/>
		<path class="st4" d="M885.9,461.6c-1.2,0-2.3,1-2.3,2.3v14c0,1.2,1,2.3,2.3,2.3s2.3-1,2.3-2.3v-14&#10;&#9;&#9;&#9;C888.1,462.6,887.1,461.6,885.9,461.6z" style="fill: rgb(66, 1, 4);"/>
		<path class="st4" d="M885.9,484.6c-1.2,0-2.3,1-2.3,2.3v6.6c0,1.2,1,2.3,2.3,2.3s2.3-1,2.3-2.3v-6.6&#10;&#9;&#9;&#9;C888.1,485.6,887.1,484.6,885.9,484.6z" style="fill: rgb(66, 1, 4);"/>
		<path class="st4" d="M899.7,502.7v-6.2c0-1.2-1-2.3-2.3-2.3s-2.3,1-2.3,2.3v6.2c0,1.2,1,2.3,2.3,2.3S899.7,503.9,899.7,502.7z" style="fill: rgb(66, 1, 4);"/>
		<path class="st4" d="M982.1,499.5c1.2,0,2.3-1,2.3-2.3v-2.8c0-1.2-1-2.3-2.3-2.3s-2.3,1-2.3,2.3v2.8&#10;&#9;&#9;&#9;C979.9,498.5,980.9,499.5,982.1,499.5z" style="fill: rgb(66, 1, 4);"/>
		<path class="st4" d="M981.6,529.1c1.2,0,2.3-1,2.3-2.3v-1.4c0-1.2-1-2.3-2.3-2.3s-2.3,1-2.3,2.3v1.4&#10;&#9;&#9;&#9;C979.4,528.1,980.4,529.1,981.6,529.1z" style="fill: rgb(66, 1, 4);"/>
		<path class="st4" d="M1083.6,515.3c0,0,0,0.1,0,0.1c0,0.1,0.1,0.3,0.1,0.4l13.6,34.8c-5.2,2.5-10.5,8-10.5,18.9c0,1.7,1.3,3,3,3&#10;&#9;&#9;&#9;h84.2c1.7,0,3-1.3,3-3c0-10.9-5.4-16.5-10.5-18.9l13.5-34.7c0,0,0,0,0,0l0-0.1c0-0.1,0.1-0.3,0.1-0.4c0,0,0-0.1,0-0.1&#10;&#9;&#9;&#9;c0-0.2,0.1-0.4,0.1-0.6c0,0,0,0,0,0c0-0.1,0-0.1,0-0.2c0-0.1,0-0.2,0-0.4c0-0.1,0-0.2-0.1-0.2c0-0.1,0-0.1-0.1-0.2l-8.6-24.3&#10;&#9;&#9;&#9;c-0.3-0.8-0.9-1.4-1.7-1.8s-1.7-0.3-2.4,0.1l-14.4,6.8l6.3-29.5c0,0,0-0.1,0-0.1c0-0.2,0.1-0.4,0.1-0.6c0-0.1,0-0.1,0-0.2&#10;&#9;&#9;&#9;c0-0.1,0-0.3-0.1-0.4c0-0.1,0-0.2-0.1-0.2c0-0.1-0.1-0.2-0.1-0.4c0-0.1-0.1-0.2-0.1-0.2c0,0,0-0.1-0.1-0.2c0-0.1-0.1-0.1-0.1-0.2&#10;&#9;&#9;&#9;c0,0-0.1-0.1-0.1-0.1l-24.3-28.9c0,0-0.1,0-0.1-0.1c-0.1-0.1-0.2-0.2-0.4-0.3c0,0,0,0-0.1-0.1c-0.5-0.4-1.1-0.6-1.8-0.6&#10;&#9;&#9;&#9;s-1.3,0.2-1.8,0.6c0,0,0,0-0.1,0.1c-0.1,0.1-0.2,0.2-0.4,0.3c0,0-0.1,0-0.1,0.1l-24.3,28.9c0,0-0.1,0.1-0.1,0.1&#10;&#9;&#9;&#9;c0,0.1-0.1,0.1-0.1,0.2c0,0,0,0.1-0.1,0.2c0,0.1-0.1,0.2-0.1,0.2c-0.1,0.1-0.1,0.2-0.1,0.4c0,0.1,0,0.2-0.1,0.2&#10;&#9;&#9;&#9;c0,0.1,0,0.3-0.1,0.4c0,0.1,0,0.1,0,0.2c0,0.2,0,0.4,0.1,0.6c0,0,0,0.1,0,0.1l6.2,29.5l-14.4-6.8c-0.8-0.4-1.7-0.4-2.4-0.1&#10;&#9;&#9;&#9;c-0.8,0.3-1.4,1-1.7,1.8l-8.6,24.3c0,0.1,0,0.1-0.1,0.2c0,0.1,0,0.2-0.1,0.3c0,0.1,0,0.2,0,0.4c0,0.1,0,0.1,0,0.2c0,0,0,0,0,0&#10;&#9;&#9;&#9;C1083.5,514.9,1083.5,515.1,1083.6,515.3z M1090.9,517.7l12.5,0.1l3.9,8.9c-0.8,1.8-1.3,3.8-1.3,5.9v4.8c-1.6-3.3-3.3-6.6-5.1-9.9&#10;&#9;&#9;&#9;c-0.9-1.7-3.5-0.2-2.6,1.5c2.8,5.1,5.4,10.3,7.7,15.6v4.4h-2.6c-0.1,0-0.1,0-0.2,0c0,0-0.1,0-0.1,0L1090.9,517.7z M1160.7,549&#10;&#9;&#9;&#9;c0,0-0.1,0-0.1,0c-0.1,0-0.1,0-0.2,0h-2.6v-4.4c2.3-5.3,4.9-10.5,7.7-15.6c0.9-1.7-1.6-3.2-2.6-1.5c-1.8,3.2-3.5,6.5-5.1,9.9v-4.8&#10;&#9;&#9;&#9;c0-2.1-0.5-4.1-1.3-5.9l3.9-8.9l12.5-0.1L1160.7,549z M1168.6,499.2l4.4,12.5l-10,0.1L1168.6,499.2z M1163.3,496.2l-5.6,12.7&#10;&#9;&#9;&#9;l-5.7-7.4L1163.3,496.2z M1154.9,515.2l-2.8,6.3c-1.3-1-2.9-1.7-4.5-2.2l2.2-10.6L1154.9,515.2z M1134.9,443.7l16.8,20l-16.8,10.8&#10;&#9;&#9;&#9;V443.7z M1134.9,481.7l16.9-10.9l-10.2,48h-6.7V481.7z M1144.1,524.8c4.3,0,7.7,3.5,7.7,7.7v16.4h-7.5c-1.7,0-3,1.3-3,3&#10;&#9;&#9;&#9;c0,1.7,1.3,3,3,3h16c0.2,0,0.6,0.1,1.2,0.2c0,0,0,0,0,0c0.2,0.1,0.4,0.1,0.7,0.2c2.8,0.8,7.7,3.3,8.7,11.2h-77.9&#10;&#9;&#9;&#9;c1-7.8,5.8-10.4,8.7-11.2c0.2,0,0.4-0.1,0.7-0.2c0,0,0,0,0,0c0.6-0.1,1-0.2,1.2-0.2h16c1.7,0,3-1.3,3-3c0-1.7-1.3-3-3-3h-7.5&#10;&#9;&#9;&#9;v-12.1c3.3,0,6.6,0,9.8,0c1.9,0,1.9-3,0-3c-3.3,0-6.6,0-9.8,0v-1.3c0-4.3,3.5-7.7,7.7-7.7h0c0,0,0,0,0,0H1144.1z M1108.8,515.2&#10;&#9;&#9;&#9;l5-6.5l2.2,10.6c-1.7,0.5-3.2,1.2-4.5,2.2L1108.8,515.2z M1128.9,443.7v30.9l-16.8-10.8L1128.9,443.7z M1128.9,481.7v37.1h-6.7&#10;&#9;&#9;&#9;l-10.2-48L1128.9,481.7z M1111.8,501.6l-5.7,7.4l-5.6-12.7L1111.8,501.6z M1095.2,499.2l5.5,12.6l-10-0.1L1095.2,499.2z" style="fill: rgb(66, 1, 4);"/>
		<path class="st4" d="M1097.1,521.5c-1.9,0-1.9,3,0,3C1099,524.5,1099.1,521.5,1097.1,521.5z" style="fill: rgb(66, 1, 4);"/>
		<path class="st4" d="M1119.5,481.6c-1.9,0-1.9,3,0,3C1121.5,484.6,1121.5,481.6,1119.5,481.6z" style="fill: rgb(66, 1, 4);"/>
		<path class="st4" d="M1126.3,503.2c-0.9-4.2-1.9-8.4-3-12.5c-0.5-1.9-3.4-1.1-2.9,0.8c1.1,4.1,2.1,8.3,3,12.5&#10;&#9;&#9;&#9;C1123.8,505.8,1126.6,505,1126.3,503.2z" style="fill: rgb(66, 1, 4);"/>
		<path class="st4" d="M1166.6,524.5c1.9,0,1.9-3,0-3C1164.7,521.5,1164.7,524.5,1166.6,524.5z" style="fill: rgb(66, 1, 4);"/>
		<path class="st4" d="M1144.2,484.6c1.9,0,1.9-3,0-3C1142.3,481.6,1142.3,484.6,1144.2,484.6z" style="fill: rgb(66, 1, 4);"/>
		<path class="st4" d="M1140.5,490.7c-1.1,4.1-2.1,8.3-3,12.5c-0.4,1.9,2.5,2.7,2.9,0.8c0.9-4.2,1.9-8.4,3-12.5&#10;&#9;&#9;&#9;C1143.9,489.6,1141,488.8,1140.5,490.7z" style="fill: rgb(66, 1, 4);"/>
		<path class="st4" d="M1130.3,536.8c1.9,0,1.9-3,0-3C1128.3,533.8,1128.3,536.8,1130.3,536.8z" style="fill: rgb(66, 1, 4);"/>
		<path class="st4" d="M1138.3,536.8c1.9,0,1.9-3,0-3C1136.4,533.8,1136.4,536.8,1138.3,536.8z" style="fill: rgb(66, 1, 4);"/>
		<path class="st4" d="M1136.8,544.7c3.1,0,6.3,0,9.4,0c1.9,0,1.9-3,0-3c-3.1,0-6.3,0-9.4,0C1134.9,541.7,1134.9,544.7,1136.8,544.7&#10;&#9;&#9;&#9;z" style="fill: rgb(66, 1, 4);"/>
		<path class="st4" d="M1110.4,559c-1.9,0-1.9,3,0,3C1112.3,562,1112.3,559,1110.4,559z" style="fill: rgb(66, 1, 4);"/>
		<path class="st4" d="M1116.5,559c-1.9,0-1.9,3,0,3C1118.5,562,1118.5,559,1116.5,559z" style="fill: rgb(66, 1, 4);"/>
		<path class="st4" d="M1122.7,562c1.9,0,1.9-3,0-3C1120.8,559,1120.8,562,1122.7,562z" style="fill: rgb(66, 1, 4);"/>
		<path class="st4" d="M1138.3,562c4.2,0,8.4,0,12.6,0c1.9,0,1.9-3,0-3c-4.2,0-8.4,0-12.6,0C1136.4,559,1136.4,562,1138.3,562z" style="fill: rgb(66, 1, 4);"/>
		<path class="st4" d="M946.8,647.4l-13.1,31.9l-25.9-4.4l-24.7,23.2l5.8,31.5l24.1,14.5l0.1-0.1l-2.7,35.9l54.4,6.7l33.9-35.3&#10;&#9;&#9;&#9;l-8-27.4l16.9-6.9l11.2-49.2l-18.2-20.6H946.8z M950.1,655l15.2,15.9l-16.5,15.8l1.3-4.6l-10.4-1.8L950.1,655z M936.8,724.8&#10;&#9;&#9;&#9;l29.8,7.1l-4.2,18.6h-19.4l-10.8-21.9L936.8,724.8z M934.4,716.1l-12.1-14.6l19.4-11.6L934.4,716.1z M939.8,719.4l6.7-24.2&#10;&#9;&#9;&#9;l10.2-9.8l9.5,40.2L939.8,719.4z M909.8,681.3l29.2,5l-20.8,12.4l-17.1,1.7l-9.2-2.2L909.8,681.3z M890,702.3l9.2,2.2l-6.1,14.2&#10;&#9;&#9;&#9;L890,702.3z M894.8,726.1l9.3-21.5l13.8-1.3l4.9,5.9l-20.2,21.7L894.8,726.1z M912.5,736.8l-5.9-3.6l19.2-20.6l6.6,8L912.5,736.8z&#10;&#9;&#9;&#9; M919.5,738.9l9.1-7.4l10.2,20.7l-21.7,19.1L919.5,738.9z M919.6,775.1l22.8-20.1h8.3l9.3,25L919.6,775.1z M964.3,778.6l-8.8-23.6&#10;&#9;&#9;&#9;H966l1.1-5l22.5,2.2L964.3,778.6z M991.5,747.9l-23.4-2.3l3.1-13.6l14-5.7L991.5,747.9z M970.9,725.6l-10.3-43.8l8.8-8.4l24.2,3.6&#10;&#9;&#9;&#9;l8.7,35.9L970.9,725.6z M1004.6,703.5l-6.5-27l13.6-4.1L1004.6,703.5z M995.2,672.7l-25.5-3.8l-14.9-15.5H998l12.8,14.6&#10;&#9;&#9;&#9;L995.2,672.7z" style="fill: rgb(66, 1, 4);"/>
		<path class="st4" d="M979.3,711c-2.9,0-2.9,4.5,0,4.5C982.2,715.5,982.2,711,979.3,711z" style="fill: rgb(66, 1, 4);"/>
		<path class="st4" d="M989.5,708.3c-2.9,0-2.9,4.5,0,4.5C992.4,712.8,992.4,708.3,989.5,708.3z" style="fill: rgb(66, 1, 4);"/>
		<path class="st4" d="M982.2,701.6c-2.9,0-2.9,4.5,0,4.5C985.1,706.1,985.1,701.6,982.2,701.6z" style="fill: rgb(66, 1, 4);"/>
		<path class="st4" d="M993,660c-2.9,0-2.9,4.5,0,4.5C995.9,664.5,995.9,660,993,660z" style="fill: rgb(66, 1, 4);"/>
		<path class="st4" d="M911.4,688.1c1.9,0,1.9-3,0-3C909.5,685,909.5,688.1,911.4,688.1z" style="fill: rgb(66, 1, 4);"/>
		<path class="st4" d="M943.5,770.8c-2.4-0.1-4.7-0.5-7-1.1c-1.9-0.5-2.7,2.4-0.8,2.9c2.6,0.7,5.2,1.1,7.8,1.2&#10;&#9;&#9;&#9;C945.5,773.9,945.4,770.9,943.5,770.8z" style="fill: rgb(66, 1, 4);"/>
		<path class="st4" d="M949.5,771.7c-1.9,0-1.9,3,0,3C951.4,774.7,951.4,771.7,949.5,771.7z" style="fill: rgb(66, 1, 4);"/>
		<path class="st4" d="M956.8,746c2.9,0,2.9-4.5,0-4.5C953.9,741.5,953.9,746,956.8,746z" style="fill: rgb(66, 1, 4);"/>
		<path class="st4" d="M576,647.3l-33.8,21.6l-9.7-10.6l-38.1,6.2l-11.9,50.1l27.6,17.1l8.3,38.5l30.1,16.9l33.5-23.9l5.6-36.2&#10;&#9;&#9;&#9;l20.4-13.7l2.6-12.9l-4.8-36L576,647.3z M578.2,655.4l22.1,12.7l2.8,20.9l-15.2,2l-10.9-9.4L578.2,655.4z M573.6,655.9l-1,22.6&#10;&#9;&#9;&#9;l-17.1-11L573.6,655.9z M551.3,670.2l19.7,12.6l-13.8,12.7v-10.2l-10.8-11.9L551.3,670.2z M563.4,709.4l16.2,15.1l-20.9,10.2&#10;&#9;&#9;&#9;l-23.5-6.8l-3.6-10.5L563.4,709.4z M530.1,713.2l-2.8-8.1l17.6-4.2l12.1,5.5L530.1,713.2z M530.3,664.7l18.5,20.4l-32.7,5.7&#10;&#9;&#9;&#9;l-14.9-21.4L530.3,664.7z M489.4,711.7l9.1-38.4l13.7,19.8l-15.6,23.2L489.4,711.7z M509.1,723.9l-8.6-5.3l15.6-23.2l35.1-6.1v7.8&#10;&#9;&#9;&#9;l-5.6-2.6l-23.4,5.6L509.1,723.9z M515,725.7l9-16.4l7,20.5l-9.1,28.3L515,725.7z M524,766.4l5.5-17l13.2,27.4L524,766.4z&#10;&#9;&#9;&#9; M548.9,779.4l-17.4-36.2l3.4-10.7l22.7,6.6l17.8,21.4L548.9,779.4z M577.1,755.4l-14.6-17.6l18.8-9.2L577.1,755.4z M582.9,719.3&#10;&#9;&#9;&#9;l-16.3-15.2l-8.1-3.7l16.3-14.9l10.1,8.7L582.9,719.3z M602.6,709.7l-15.3,10.3l1.9-24.7l14.4-1.9l0.9,6.7L602.6,709.7z" style="fill: rgb(66, 1, 4);"/>
		<path class="st4" d="M523.9,671c-4.2,0.9-8.4,1.4-12.8,1.5c-1.9,0-1.9,3,0,3c4.6-0.1,9.1-0.6,13.6-1.6&#10;&#9;&#9;&#9;C526.6,673.5,525.8,670.6,523.9,671z" style="fill: rgb(66, 1, 4);"/>
		<path class="st4" d="M530.8,673.2c1.9,0,1.9-3,0-3C528.9,670.2,528.9,673.2,530.8,673.2z" style="fill: rgb(66, 1, 4);"/>
		<path class="st4" d="M498.1,698.3c-1.9,0-1.9,3,0,3C500.1,701.3,500.1,698.3,498.1,698.3z" style="fill: rgb(66, 1, 4);"/>
		<path class="st4" d="M559.3,730.3c2.3-1.2,4.6-2.4,6.9-3.5c1.7-0.9,0.2-3.5-1.5-2.6c-2.3,1.2-4.6,2.4-6.9,3.5&#10;&#9;&#9;&#9;C556.1,728.6,557.6,731.2,559.3,730.3z" style="fill: rgb(66, 1, 4);"/>
		<path class="st4" d="M570.5,724.6c1.9,0,1.9-3,0-3C568.6,721.6,568.6,724.6,570.5,724.6z" style="fill: rgb(66, 1, 4);"/>
		<path class="st4" d="M592.3,668.6c-2.6-1.6-5.2-3.3-7.8-4.9c-1.6-1-3.1,1.6-1.5,2.6c2.6,1.6,5.2,3.3,7.8,4.9&#10;&#9;&#9;&#9;C592.5,672.2,594,669.6,592.3,668.6z" style="fill: rgb(66, 1, 4);"/>
		<path class="st4" d="M596.5,675.1c1.9,0,1.9-3,0-3C594.6,672.1,594.6,675.1,596.5,675.1z" style="fill: rgb(66, 1, 4);"/>
		<path class="st4" d="M568.8,697.4c-1.9,0-1.9,3,0,3C570.8,700.4,570.8,697.4,568.8,697.4z" style="fill: rgb(66, 1, 4);"/>
		<path class="st4" d="M574.7,695.1c1.9,0,1.9-3,0-3C572.8,692.1,572.8,695.1,574.7,695.1z" style="fill: rgb(66, 1, 4);"/>
		<path class="st4" d="M542.3,749.8c-1-1.7-3.6-0.2-2.6,1.5c2.1,3.7,4.2,7.4,6.3,11.1c1,1.7,3.6,0.2,2.6-1.5&#10;&#9;&#9;&#9;C546.5,757.1,544.4,753.5,542.3,749.8z" style="fill: rgb(66, 1, 4);"/>
		<path class="st4" d="M550.6,765.9c-1.9,0-1.9,3,0,3C552.5,768.9,552.5,765.9,550.6,765.9z" style="fill: rgb(66, 1, 4);"/>
		<path class="st4" d="M1164.5,699.5v-24.1l-19.3-18.6h-36l-13.3,34.7l4.6,9.4l-3.9,1.7l-16.2,16.8l-7.8,38.3l30.9,29.1l44.1-13.2&#10;&#9;&#9;&#9;l19.8-29.9l-13.7-31.9L1164.5,699.5z M1158.5,697.3l-9,10.4l-10.9-5.2l-0.7-18l20.6-4.7V697.3z M1118.7,699.5l29.3,14.1l0.3,0.6&#10;&#9;&#9;&#9;l-14.4,19.1l-8.3,1.5l-22.2-28.5L1118.7,699.5z M1110.8,696.4l12.6-15.4l10,3.3l0.6,15.9l-15.3-7.4L1110.8,696.4z M1142.8,662.8&#10;&#9;&#9;&#9;l13.3,12.8l-20.4,4.7l-11.6-3.8l-8.3-13.7H1142.8z M1112.3,665.7l7.6,12.5l-14.9,18.1l-2.5-5.1L1112.3,665.7z M1099.3,708.5&#10;&#9;&#9;&#9;l21.2,27.1l-10.1,1.8l-23.2-16.4L1099.3,708.5z M1102.8,777.9l-23.6-22.2l6.2-30.4l22.1,15.6L1102.8,777.9z M1107.1,779.5&#10;&#9;&#9;&#9;l4.8-37.8l21.5-3.8l9.3,30.9L1107.1,779.5z M1160.7,743.2l-14.4,21.7l-8.7-29.1l12.7-16.8L1160.7,743.2z" style="fill: rgb(66, 1, 4);"/>
		<path class="st4" d="M1190,697.8l-5.1,2.5l-14.8,12.6l3.9,22.4l16.1,11l25.8-13.7l-4-23.3L1190,697.8z M1188.1,737.8l-8.6-5.9&#10;&#9;&#9;&#9;l-2.2-12.4l10.9,4.7l0.1,0L1188.1,737.8z M1192.6,738.3l0.3-13.3l6.7,1.2l1.2,7.8L1192.6,738.3z M1189.8,719.9l-12.3-5.3l10.8-9.2&#10;&#9;&#9;&#9;l1.7-0.8l16.5,8.7l0.6,3.3l-6.1,5.2L1189.8,719.9z M1205,731.7l-1-6.6l3.9-3.3l1.3,7.7L1205,731.7z" style="fill: rgb(66, 1, 4);"/>
		<path class="st4" d="M1085.9,742.4c-0.7,3.9-1.3,7.9-2,11.8c-0.3,1.9,2.6,2.7,2.9,0.8c0.7-3.9,1.3-7.9,2-11.8&#10;&#9;&#9;&#9;C1089.1,741.3,1086.2,740.5,1085.9,742.4z" style="fill: rgb(66, 1, 4);"/>
		<path class="st4" d="M1087.9,736c-1.9,0-1.9,3,0,3C1089.8,739,1089.9,736,1087.9,736z" style="fill: rgb(66, 1, 4);"/>
		<path class="st4" d="M1097.2,717.1c-1.9,0-1.9,3,0,3C1099.1,720.1,1099.2,717.1,1097.2,717.1z" style="fill: rgb(66, 1, 4);"/>
		<path class="st4" d="M1124.1,708.6c3.3,1.7,6.7,3.5,10,5.2c1.7,0.9,3.2-1.7,1.5-2.6c-3.3-1.7-6.7-3.5-10-5.2&#10;&#9;&#9;&#9;C1123.9,705.1,1122.4,707.7,1124.1,708.6z" style="fill: rgb(66, 1, 4);"/>
		<path class="st4" d="M1140.3,716.4c1.9,0,1.9-3,0-3C1138.4,713.4,1138.4,716.4,1140.3,716.4z" style="fill: rgb(66, 1, 4);"/>
		<path class="st4" d="M1128.9,747.6c1.3,3.6,2.6,7.2,3.9,10.7c0.7,1.8,3.6,1,2.9-0.8c-1.3-3.6-2.6-7.2-3.9-10.7&#10;&#9;&#9;&#9;C1131.1,745,1128.2,745.7,1128.9,747.6z" style="fill: rgb(66, 1, 4);"/>
		<path class="st4" d="M1136.8,764.8c1.9,0,1.9-3,0-3C1134.9,761.8,1134.9,764.8,1136.8,764.8z" style="fill: rgb(66, 1, 4);"/>
		<path class="st4" d="M1147.8,750.8c-1.9,0-1.9,3,0,3C1149.8,753.8,1149.8,750.8,1147.8,750.8z" style="fill: rgb(66, 1, 4);"/>
		<path class="st4" d="M1125.4,669c3.3,0,6.6-0.1,9.8-0.1c1.9,0,1.9-3,0-3c-3.3,0-6.6,0.1-9.8,0.1C1123.5,666,1123.5,669,1125.4,669&#10;&#9;&#9;&#9;z" style="fill: rgb(66, 1, 4);"/>
		<path class="st4" d="M1141,668.4c1.9,0,1.9-3,0-3C1139,665.4,1139,668.4,1141,668.4z" style="fill: rgb(66, 1, 4);"/>
		<path class="st4" d="M1153.4,693.4c0.3-2.4,0.6-4.9,1-7.3c0.3-1.9-2.8-1.9-3,0c-0.3,2.4-0.6,4.9-1,7.3&#10;&#9;&#9;&#9;C1150.1,695.4,1153.1,695.3,1153.4,693.4z" style="fill: rgb(66, 1, 4);"/>
		<path class="st4" d="M1149.3,702.8c1.9,0,1.9-3,0-3C1147.4,699.8,1147.4,702.8,1149.3,702.8z" style="fill: rgb(66, 1, 4);"/>
		<path class="st4" d="M1191.9,711.3c-1.9,0-1.9,3,0,3C1193.8,714.3,1193.8,711.3,1191.9,711.3z" style="fill: rgb(66, 1, 4);"/>
		<path class="st4" d="M380.3,728.5h-13.1v0h-1.7c-3.1-13.9-15.6-24.2-30.1-24.2c-3.9,0-7.6,0.7-11.2,2.1&#10;&#9;&#9;&#9;c-5.1-11.9-16.7-19.6-29.8-19.6c-13.1,0-24.7,7.8-29.8,19.6c-3.6-1.4-7.4-2.1-11.2-2.1c-14.5,0-27,10.2-30.1,24.2h-1.7v0h-13.1&#10;&#9;&#9;&#9;c-3.9,0-6.9,4-6.9,9.1c0,5.1,3,9.1,6.9,9.1h4c0.1,4,3.3,7.3,7.4,7.3h13.8c-0.3,0.9-0.5,1.9-0.5,2.9c0,4.9,4,8.9,8.9,8.9&#10;&#9;&#9;&#9;c4.9,0,8.9-4,8.9-8.9c0-1-0.2-2-0.5-2.9h35.3c-0.3,0.9-0.5,1.9-0.5,2.9c0,4.9,4,8.9,8.9,8.9s8.9-4,8.9-8.9c0-1-0.2-2-0.5-2.9h35.3&#10;&#9;&#9;&#9;c-0.3,0.9-0.5,1.9-0.5,2.9c0,4.9,4,8.9,8.9,8.9s8.9-4,8.9-8.9c0-1-0.2-2-0.5-2.9h13.8c4.1,0,7.4-3.3,7.4-7.3h4&#10;&#9;&#9;&#9;c3.9,0,6.9-4,6.9-9.1C387.2,732.5,384.2,728.5,380.3,728.5z M212.6,735.9v4.8h-3.8c-0.3-0.2-1-1.3-1-3.1s0.7-2.9,1-3.1h4&#10;&#9;&#9;&#9;C212.7,735,212.6,735.4,212.6,735.9z M292.9,692.9c-0.5,1.6-0.5,3.3-0.6,4.4c-0.1,2.4-1.6,3.8-3,4.3c-0.8,0.3-3,0.9-5-1.1&#10;&#9;&#9;&#9;c-1.3-1.2-2.4-2.5-3.6-3.8C284.3,694.5,288.5,693.2,292.9,692.9z M247.7,711c0.5,2.6,0.4,4.5-0.5,5.6c-0.7,1-2,1.6-3.2,1.6&#10;&#9;&#9;&#9;c-0.2,0-0.5,0-0.7,0c-1.1,0-2.3,0-3.6,0.3c-1.7,0.5-2.9,1.4-4,2.2l-0.6,0.4c-0.8,0.6-1.9,0.9-2.9,1&#10;&#9;&#9;&#9;C235.8,716.6,241.3,712.6,247.7,711z M229.8,727.9c0.7,0.2,1.5,0.3,2.3,0.3c2.4,0,4.9-0.9,6.7-2.1l0.7-0.5c0.7-0.5,1.4-1.1,2-1.2&#10;&#9;&#9;&#9;c0.5-0.1,1.1-0.1,1.9-0.1c0.3,0,0.6,0,0.9,0c3.1,0,6.1-1.5,8-4c2.3-3.1,2.2-6.8,1.6-9.9c3.9,0,7.8,1,11.2,2.8l3.2,1.7l1.1-3.4&#10;&#9;&#9;&#9;c1.3-4.3,3.7-8,6.7-11c1.3,1.5,2.7,3,4.2,4.4c2.1,2,4.8,3.1,7.5,3.1c1.3,0,2.6-0.2,3.9-0.7c4-1.6,6.6-5.3,6.8-9.6&#10;&#9;&#9;&#9;c0.1-2.4,0.3-3.8,1.1-4.3c9.5,1.8,17.3,8.6,20.3,18.1l1.1,3.4l3.2-1.7c3.6-1.9,7.5-2.8,11.5-2.8c11.2,0,20.9,7.6,23.9,18.2H326&#10;&#9;&#9;&#9;c-1-3.7-4-6.9-7.8-8.3c-3.8-1.4-8-0.9-11.4,1.3c-2.9,1.9-3.9,4.3-4.8,6.6c-0.1,0.1-0.1,0.3-0.1,0.4h-72.2&#10;&#9;&#9;&#9;C229.7,728.3,229.7,728.1,229.8,727.9z M319.4,728.5h-11.1c0.4-0.9,0.9-1.5,1.7-2c1.8-1.2,4.1-1.4,6.1-0.7&#10;&#9;&#9;&#9;C317.5,726.3,318.7,727.3,319.4,728.5z M242.3,759.9c-1.6,0-2.9-1.3-2.9-2.9c0-1.6,1.3-2.9,2.9-2.9c1.6,0,2.9,1.3,2.9,2.9&#10;&#9;&#9;&#9;C245.2,758.6,243.9,759.9,242.3,759.9z M294.5,759.9c-1.6,0-2.9-1.3-2.9-2.9c0-1.6,1.3-2.9,2.9-2.9s2.9,1.3,2.9,2.9&#10;&#9;&#9;&#9;C297.4,758.6,296.1,759.9,294.5,759.9z M346.6,759.9c-1.6,0-2.9-1.3-2.9-2.9c0-1.6,1.3-2.9,2.9-2.9c1.6,0,2.9,1.3,2.9,2.9&#10;&#9;&#9;&#9;C349.6,758.6,348.3,759.9,346.6,759.9z M370.3,746.6c0,0.8-0.6,1.4-1.4,1.4H220c-0.8,0-1.4-0.6-1.4-1.4v-2.8h151.7V746.6z&#10;&#9;&#9;&#9; M370.3,737.8H218.6v-1.9c0-0.8,0.6-1.4,1.4-1.4h148.9c0.8,0,1.4,0.6,1.4,1.4V737.8z M380.2,740.7h-3.8v-4.8c0-0.5-0.1-1-0.1-1.4&#10;&#9;&#9;&#9;h4c0.3,0.2,1,1.3,1,3.1S380.5,740.5,380.2,740.7z" style="fill: rgb(66, 1, 4);"/>
		<path class="st4" d="M268.7,768.6c-4.9,0-8.9,4-8.9,8.9c0,4.9,4,8.9,8.9,8.9s8.9-4,8.9-8.9C277.6,772.7,273.6,768.6,268.7,768.6z&#10;&#9;&#9;&#9; M268.7,780.5c-1.6,0-2.9-1.3-2.9-2.9c0-1.6,1.3-2.9,2.9-2.9c1.6,0,2.9,1.3,2.9,2.9C271.6,779.2,270.3,780.5,268.7,780.5z" style="fill: rgb(66, 1, 4);"/>
		<path class="st4" d="M320.3,768.6c-4.9,0-8.9,4-8.9,8.9c0,4.9,4,8.9,8.9,8.9s8.9-4,8.9-8.9C329.2,772.7,325.2,768.6,320.3,768.6z&#10;&#9;&#9;&#9; M320.3,780.5c-1.6,0-2.9-1.3-2.9-2.9c0-1.6,1.3-2.9,2.9-2.9s2.9,1.3,2.9,2.9C323.2,779.2,321.9,780.5,320.3,780.5z" style="fill: rgb(66, 1, 4);"/>
		<path class="st4" d="M297.5,671.4v-6c0-1.7-1.3-3-3-3s-3,1.3-3,3v6c0,1.7,1.3,3,3,3S297.5,673,297.5,671.4z" style="fill: rgb(66, 1, 4);"/>
		<path class="st4" d="M257.6,678.9c0.6,0.9,1.5,1.3,2.5,1.3c0.6,0,1.2-0.2,1.7-0.5c1.4-0.9,1.8-2.8,0.8-4.2l-3.9-5.9&#10;&#9;&#9;&#9;c-0.9-1.4-2.8-1.8-4.2-0.8c-1.4,0.9-1.8,2.8-0.8,4.2L257.6,678.9z" style="fill: rgb(66, 1, 4);"/>
		<path class="st4" d="M234.6,698.4c0.4,0.2,0.9,0.3,1.4,0.3c1.1,0,2.1-0.6,2.7-1.6c0.8-1.5,0.2-3.3-1.3-4.1l-7-3.7&#10;&#9;&#9;&#9;c-1.5-0.8-3.3-0.2-4.1,1.3c-0.8,1.5-0.2,3.3,1.3,4.1L234.6,698.4z" style="fill: rgb(66, 1, 4);"/>
		<path class="st4" d="M328.8,680.2c1,0,1.9-0.5,2.5-1.3l3.9-5.9c0.9-1.4,0.5-3.2-0.8-4.2c-1.4-0.9-3.2-0.5-4.2,0.8l-3.9,5.9&#10;&#9;&#9;&#9;c-0.9,1.4-0.5,3.2,0.8,4.2C327.7,680.1,328.3,680.2,328.8,680.2z" style="fill: rgb(66, 1, 4);"/>
		<path class="st4" d="M353,698.8c0.5,0,0.9-0.1,1.4-0.3l7-3.7c1.5-0.8,2-2.6,1.3-4.1c-0.8-1.5-2.6-2-4.1-1.3l-7,3.7&#10;&#9;&#9;&#9;c-1.5,0.8-2,2.6-1.3,4.1C350.8,698.2,351.9,698.8,353,698.8z" style="fill: rgb(66, 1, 4);"/>
		<path class="st4" d="M261.2,720.4c-2.9,0-2.9,4.5,0,4.5C264.1,724.9,264.1,720.4,261.2,720.4z" style="fill: rgb(66, 1, 4);"/>
		<path class="st4" d="M277.7,711.7c-2.9,0-2.9,4.5,0,4.5C280.6,716.2,280.6,711.7,277.7,711.7z" style="fill: rgb(66, 1, 4);"/>
		<path class="st4" d="M290.1,719.6c-2.9,0-2.9,4.5,0,4.5C293,724.1,293,719.6,290.1,719.6z" style="fill: rgb(66, 1, 4);"/>
		<path class="st4" d="M304.9,712.1c2.9,0,2.9-4.5,0-4.5C302,707.6,302,712.1,304.9,712.1z" style="fill: rgb(66, 1, 4);"/>
		<path class="st4" d="M338.9,725.8c2.9,0,2.9-4.5,0-4.5C336,721.3,336,725.8,338.9,725.8z" style="fill: rgb(66, 1, 4);"/>
		<path class="st4" d="M780.2,682.6H770v-5c0-2.2-1.8-4-4-4h-0.9v-12.2c0-5.6-4.6-10.2-10.2-10.2c-5.6,0-10.2,4.6-10.2,10.2v12.2&#10;&#9;&#9;&#9;h-0.9c-2.2,0-4,1.8-4,4v5h-10.2c-6,0-10.9,4.9-10.9,10.9v82.2c0,6,4.9,10.9,10.9,10.9h50.6c6,0,10.9-4.9,10.9-10.9v-82.2&#10;&#9;&#9;&#9;C791,687.5,786.2,682.6,780.2,682.6z M749.2,661.4c0-3.1,2.6-5.7,5.7-5.7c3.1,0,5.7,2.6,5.7,5.7v12.2h-11.4V661.4z M744.3,678.1&#10;&#9;&#9;&#9;h21.2v4.5h-21.2V678.1z M785,775.7c0,2.7-2.2,4.8-4.8,4.8h-50.6c-2.7,0-4.8-2.2-4.8-4.8v-82.2c0-2.7,2.2-4.8,4.8-4.8h50.6&#10;&#9;&#9;&#9;c2.7,0,4.8,2.2,4.8,4.8V775.7z" style="fill: rgb(66, 1, 4);"/>
		<path class="st4" d="M728.5,777.4h52.8v-85.7h-52.8V777.4z M734.5,697.7h40.8v50.6h-7.7c0.1-0.3,0.1-0.7,0.1-1v-3.3&#10;&#9;&#9;&#9;c0-1.2-0.3-2.3-0.9-3.3c1.8-2.8,2.4-5.5,2.1-9.2c-0.3-4.5-2.7-8.3-5.2-11.8l-0.1-0.2c-0.9-1.3-1.7-2.4-2.1-3.6&#10;&#9;&#9;&#9;c-1-2.6-0.5-5.8-0.1-8.6l0.7-5.2l-4.8,1.9c-5.8,2.3-7.6,8.8-7.5,13.6c0,0.5,0,1,0.1,1.5c0.1,1.1,0.1,2.1,0,2.9&#10;&#9;&#9;&#9;c-0.1,0.7-0.4,1.6-1,1.9c-0.3,0.1-0.7,0.1-1.1,0c-0.4-0.2-0.6-0.4-0.6-0.5l-3.2-10.4l-2.6,10.5c-1.3,5.4-0.4,11.2,2.4,16&#10;&#9;&#9;&#9;c-1.1,1.2-1.7,2.8-1.7,4.6v3.3c0,0.4,0.1,0.7,0.1,1h-7.7V697.7z M749.1,742.9h11.6c0.6,0,1,0.5,1,1v3.3c0,0.6-0.5,1-1,1h-11.6&#10;&#9;&#9;&#9;c-0.6,0-1-0.5-1-1v-3.3C748.1,743.4,748.5,742.9,749.1,742.9z M748.3,737l0-0.4c0.5,0,0.8,0.2,0.9,0.4h-0.2&#10;&#9;&#9;&#9;C748.8,736.9,748.6,736.9,748.3,737z M760.7,736.9h-11.4c0,0,0,0,0-0.1c-1.4-2.2-2.2-4.7-2.4-7.2c1.7,0.4,3.5,0.1,5-0.7&#10;&#9;&#9;&#9;c2.2-1.2,3.7-3.5,4.1-6.4c0.2-1.5,0.1-2.9,0-4.2c0-0.2,0-0.5,0-0.7c0,0,0,0,0,0.1c0.7,1.9,1.8,3.4,2.8,4.9l0.1,0.2&#10;&#9;&#9;&#9;c2,2.8,3.9,5.8,4.1,8.9c0.2,2.3-0.1,3.7-1,5.2C761.6,736.9,761.1,736.9,760.7,736.9z M734.5,754.3h14.6h11.6h14.6v1.7h-40.8V754.3&#10;&#9;&#9;&#9;z M734.5,760.5h40.8v3h-40.8V760.5z M734.5,768h40.8v3.4h-40.8V768z" style="fill: rgb(66, 1, 4);"/>
	</g>
</svg>