<?xml version="1.0" encoding="utf-8"?>
<svg id="master-artboard" viewBox="0 0 1400 980" version="1.1" xmlns="http://www.w3.org/2000/svg" x="0px" y="0px" style="enable-background:new 0 0 1400 980;" width="1400px" height="980px">


<path d="M 0 0 L 0 749.2000122070312 L 0 805.5999755859375 L 0 979.9000244140625 L 1400 979.9000244140625 L 1400 805.5999755859375 L 1400 749.2000122070312 L 1400 0 Z" class="st0" style="fill: rgb(255, 145, 217); stroke-opacity: 0.12; stroke: rgb(0, 0, 0); stroke-width: 15; fill-opacity: 0.99;" transform="matrix(1, 0, 0, 1, 2.842170943040401e-14, 7.105427357601002e-15)"/><path d="M 827.541748046875 200.11123657226562" style="fill: rgb(79, 255, 173); fill-opacity: 0.99; stroke: rgb(0, 0, 0); stroke-opacity: 0.12; stroke-width: 15; paint-order: fill;"/><path d="M 790.1002197265625 112.74750518798828" style="fill: rgb(79, 255, 173); fill-opacity: 0.99; stroke: rgb(0, 0, 0); stroke-opacity: 0.12; stroke-width: 15; paint-order: fill;"/><path d="M 813.400024 0 H 1357.700012 V 168.399994 H 813.400024 V 0 Z" class="st1" style="fill: rgb(251, 169, 42); stroke: rgb(0, 0, 0); stroke-width: 2; stroke-miterlimit: 10;" transform="matrix(1, 0, 0, 1, 2.842170943040401e-14, 7.105427357601002e-15)"/><path d="M 832.200012 0 H 1338.900024 V 148.199997 H 832.200012 V 0 Z" class="st2" style="fill: rgb(241, 90, 80); stroke: rgb(0, 0, 0); stroke-width: 2; stroke-miterlimit: 10;" transform="matrix(1, 0, 0, 1, 2.842170943040401e-14, 7.105427357601002e-15)"/><path class="st3" d="M885.4,0L902.4,115c0,0,92.4-4.4,109.8-21.8c-6-11.1-11.9-62.5-15-93.2H885.4z" style="fill: rgb(255, 255, 255); stroke: rgb(0, 0, 0); stroke-width: 2.3694; stroke-miterlimit: 10;" transform="matrix(1, 0, 0, 1, 5.684341886080802e-14, 1.4210854715202004e-14)"/><path d="M 904.700012 26.1 L 985.099976 12.7" class="st4" style="fill: none; stroke: rgb(0, 0, 0); stroke-width: 2; stroke-miterlimit: 10;" transform="matrix(1, 0, 0, 1, 8.526512829121202e-14, 2.1316282072803006e-14)"/><path d="M 906.700012 38.200001 L 987.099976 24.9" class="st4" style="fill: none; stroke: rgb(0, 0, 0); stroke-width: 2; stroke-miterlimit: 10;" transform="matrix(1, 0, 0, 1, 8.526512829121202e-14, 2.1316282072803006e-14)"/><path d="M 908.700012 50.400002 L 989.200012 37" class="st4" style="fill: none; stroke: rgb(0, 0, 0); stroke-width: 2; stroke-miterlimit: 10;" transform="matrix(1, 0, 0, 1, 8.526512829121202e-14, 2.1316282072803006e-14)"/><path d="M 910.799988 62.5 L 991.200012 49.200001" class="st4" style="fill: none; stroke: rgb(0, 0, 0); stroke-width: 2; stroke-miterlimit: 10;" transform="matrix(1, 0, 0, 1, 8.526512829121202e-14, 2.1316282072803006e-14)"/><path d="M 912.799988 74.699997 L 993.200012 61.400002" class="st4" style="fill: none; stroke: rgb(0, 0, 0); stroke-width: 2; stroke-miterlimit: 10;" transform="matrix(1, 0, 0, 1, 8.526512829121202e-14, 2.1316282072803006e-14)"/><path d="M 914.799988 86.900002 L 995.200012 73.5" class="st4" style="fill: none; stroke: rgb(0, 0, 0); stroke-width: 2; stroke-miterlimit: 10;" transform="matrix(1, 0, 0, 1, 8.526512829121202e-14, 2.1316282072803006e-14)"/><path d="M 1092.5 0 L 1071.699951171875 76.4000015258789 L 1196.699951171875 107.4000015258789 L 1226 0 Z" class="st5" style="fill: rgb(255, 255, 255); stroke: rgb(0, 0, 0); stroke-width: 1.9407; stroke-miterlimit: 10;" transform="matrix(1, 0, 0, 1, 5.684341886080802e-14, 1.4210854715202004e-14)"/><path class="st4" d="M1170.6,6.3c12.4,3.7,25.4,6.7,36.9,9.4" style="fill: none; stroke: rgb(0, 0, 0); stroke-width: 2; stroke-miterlimit: 10;" transform="matrix(1, 0, 0, 1, 8.526512829121202e-14, 2.1316282072803006e-14)"/><path d="M 1107.099976 5.8 L 1203.800049 30.299999" class="st4" style="fill: none; stroke: rgb(0, 0, 0); stroke-width: 2; stroke-miterlimit: 10;" transform="matrix(1, 0, 0, 1, 8.526512829121202e-14, 2.1316282072803006e-14)"/><path d="M 1103.400024 20.4 L 1144.300049 30.700001" class="st4" style="fill: none; stroke: rgb(0, 0, 0); stroke-width: 2; stroke-miterlimit: 10;" transform="matrix(1, 0, 0, 1, 8.526512829121202e-14, 2.1316282072803006e-14)"/><path d="M 1099.699951 35 L 1196.400024 59.5" class="st4" style="fill: none; stroke: rgb(0, 0, 0); stroke-width: 2; stroke-miterlimit: 10;" transform="matrix(1, 0, 0, 1, 8.526512829121202e-14, 2.1316282072803006e-14)"/><path d="M 1096 49.599998 L 1135.400024 59.599998" class="st4" style="fill: none; stroke: rgb(0, 0, 0); stroke-width: 2; stroke-miterlimit: 10;" transform="matrix(1, 0, 0, 1, 8.526512829121202e-14, 2.1316282072803006e-14)"/><path d="M 1245.800048828125 0 L 1255.5999755859375 59.70000076293945 L 1325.0999755859375 46.70000076293945 L 1317.5 0 Z" class="st6" style="fill: rgb(255, 255, 255); stroke: rgb(0, 0, 0); stroke-width: 2; stroke-miterlimit: 10;" transform="matrix(1, 0, 0, 1, 5.684341886080802e-14, 1.4210854715202004e-14)"/><path d="M 1257.199951 16.299999 L 1311.099976 6.6" class="st4" style="fill: none; stroke: rgb(0, 0, 0); stroke-width: 2; stroke-miterlimit: 10;" transform="matrix(1, 0, 0, 1, 8.526512829121202e-14, 2.1316282072803006e-14)"/><path d="M 1258.699951 24.5 L 1312 14.8" class="st4" style="fill: none; stroke: rgb(0, 0, 0); stroke-width: 2; stroke-miterlimit: 10;" transform="matrix(1, 0, 0, 1, 8.526512829121202e-14, 2.1316282072803006e-14)"/><path d="M 1260.099976 32.599998 L 1314 22.9" class="st4" style="fill: none; stroke: rgb(0, 0, 0); stroke-width: 2; stroke-miterlimit: 10;" transform="matrix(1, 0, 0, 1, 8.526512829121202e-14, 2.1316282072803006e-14)"/><path d="M 1261.599976 40.799999 L 1283.5 36.799999" class="st4" style="fill: none; stroke: rgb(0, 0, 0); stroke-width: 2; stroke-miterlimit: 10;" transform="matrix(1, 0, 0, 1, 8.526512829121202e-14, 2.1316282072803006e-14)"/>
<g transform="matrix(1, 0, 0, 1, 2.842170943040401e-14, 7.105427357601002e-15)">
		
			<path d="M 86.300003 144.5 H 217.400009 V 159.7 H 86.300003 V 144.5 Z" transform="matrix(-1 -4.477408e-011 4.477408e-011 -1 303.5758 304.1819)" class="st1" style="fill: rgb(251, 169, 42); stroke: rgb(0, 0, 0); stroke-width: 2; stroke-miterlimit: 10;"/>
		
			<path d="M 79.599998 162.800003 H 210.700005 V 178.000003 H 79.599998 V 162.800003 Z" transform="matrix(-1 -4.477408e-011 4.477408e-011 -1 290.3226 340.6758)" class="st7" style="fill: rgb(0, 166, 156); stroke: rgb(0, 0, 0); stroke-width: 2; stroke-miterlimit: 10;"/>
		
			<path d="M 79.599998 181.399994 H 210.700005 V 196.599994 H 79.599998 V 181.399994 Z" transform="matrix(-1 -4.478785e-011 4.478785e-011 -1 290.3226 377.9861)" class="st8" style="fill: rgb(246, 136, 42); stroke: rgb(0, 0, 0); stroke-width: 2; stroke-miterlimit: 10;"/>
		
			<path d="M 79.599998 199.800003 H 210.700005 V 215.000003 H 79.599998 V 199.800003 Z" transform="matrix(-1 -4.476032e-011 4.476032e-011 -1 290.3226 414.7853)" class="st9" style="fill: rgb(27, 117, 187); stroke: rgb(0, 0, 0); stroke-width: 2; stroke-miterlimit: 10;"/>
	</g><path d="M 350.5 -100.099998 H 369.6 V 548.999977 H 350.5 V -100.099998 Z" transform="matrix(3.079118904292244e-11, 1, -1, 3.079118904292244e-11, 584.5556030273438, -135.5218963623047)" class="st10" style="fill: rgb(113, 55, 24); stroke: rgb(0, 0, 0); stroke-width: 2; stroke-miterlimit: 10;"/><path class="st11" d="M498.6,209.8c0,2.8-2.8,5.2-6.3,5.2h-16.1c-3.5,0-6.3-2.3-6.3-5.2v-94.1c0-2.8,2.8-5.2,6.3-5.2h16.1&#10;&#9;&#9;&#9;c3.5,0,6.3,2.3,6.3,5.2V209.8z" style="fill: rgb(9, 53, 84); stroke: rgb(0, 0, 0); stroke-width: 2; stroke-miterlimit: 10;" transform="matrix(1, 0, 0, 1, 5.684341886080802e-14, 1.4210854715202004e-14)"/><path class="st12" d="M530.9,209.8c0,2.8-2.8,5.2-6.3,5.2h-16.1c-3.5,0-6.3-2.3-6.3-5.2v-94.1c0-2.8,2.8-5.2,6.3-5.2h16.1&#10;&#9;&#9;&#9;c3.5,0,6.3,2.3,6.3,5.2V209.8z" style="fill: rgb(41, 146, 207); stroke: rgb(0, 0, 0); stroke-width: 2; stroke-miterlimit: 10;" transform="matrix(1, 0, 0, 1, 5.684341886080802e-14, 1.4210854715202004e-14)"/><path class="st2" d="M563.2,209.8c0,2.8-2.8,5.2-6.3,5.2h-16.1c-3.5,0-6.3-2.3-6.3-5.2v-94.1c0-2.8,2.8-5.2,6.3-5.2h16.1&#10;&#9;&#9;&#9;c3.5,0,6.3,2.3,6.3,5.2V209.8z" style="fill: rgb(241, 90, 80); stroke: rgb(0, 0, 0); stroke-width: 2; stroke-miterlimit: 10;" transform="matrix(1, 0, 0, 1, 5.684341886080802e-14, 1.4210854715202004e-14)"/><path class="st12" d="M610.4,207.2c0.6,2.8-1.7,5.5-5.2,5.9l-15.9,2.2c-3.4,0.5-6.7-1.4-7.2-4.2l-18.9-92.9&#10;&#9;&#9;&#9;c-0.6-2.8,1.7-5.5,5.2-5.9l15.9-2.2c3.4-0.5,6.7,1.4,7.2,4.2L610.4,207.2z" style="fill: rgb(41, 146, 207); stroke: rgb(0, 0, 0); stroke-width: 2; stroke-miterlimit: 10;" transform="matrix(1, 0, 0, 1, 5.684341886080802e-14, 1.4210854715202004e-14)"/><path class="st11" d="M634.9,209.8c0,2.8-2.8,5.2-6.3,5.2h-16.1c-3.5,0-6.3-2.3-6.3-5.2v-94.1c0-2.8,2.8-5.2,6.3-5.2h16.1&#10;&#9;&#9;&#9;c3.5,0,6.3,2.3,6.3,5.2V209.8z" style="fill: rgb(9, 53, 84); stroke: rgb(0, 0, 0); stroke-width: 2; stroke-miterlimit: 10;" transform="matrix(1, 0, 0, 1, 5.684341886080802e-14, 1.4210854715202004e-14)"/><path class="st1" d="M667.1,209.8c0,2.8-2.8,5.2-6.3,5.2h-16.1c-3.5,0-6.3-2.3-6.3-5.2v-94.1c0-2.8,2.8-5.2,6.3-5.2h16.1&#10;&#9;&#9;&#9;c3.5,0,6.3,2.3,6.3,5.2V209.8z" style="fill: rgb(251, 169, 42); stroke: rgb(0, 0, 0); stroke-width: 2; stroke-miterlimit: 10;" transform="matrix(1, 0, 0, 1, 5.684341886080802e-14, 1.4210854715202004e-14)"/><path class="st13" d="M422.8,207.2c-0.6,2.8,1.7,5.5,5.2,5.9l15.9,2.2c3.4,0.5,6.7-1.4,7.2-4.2l18.9-92.9c0.6-2.8-1.7-5.5-5.2-5.9&#10;&#9;&#9;&#9;l-15.9-2.2c-3.4-0.5-6.7,1.4-7.2,4.2L422.8,207.2z" style="fill: rgb(38, 34, 97); stroke: rgb(0, 0, 0); stroke-width: 2; stroke-miterlimit: 10;" transform="matrix(1, 0, 0, 1, 5.684341886080802e-14, 1.4210854715202004e-14)"/><path class="st8" d="M398.4,209.8c0,2.8,2.8,5.2,6.3,5.2h16.1c3.5,0,6.3-2.3,6.3-5.2v-94.1c0-2.8-2.8-5.2-6.3-5.2h-16.1&#10;&#9;&#9;&#9;c-3.5,0-6.3,2.3-6.3,5.2V209.8z" style="fill: rgb(246, 136, 42); stroke: rgb(0, 0, 0); stroke-width: 2; stroke-miterlimit: 10;" transform="matrix(1, 0, 0, 1, 5.684341886080802e-14, 1.4210854715202004e-14)"/><path class="st9" d="M366.1,209.8c0,2.8,2.8,5.2,6.3,5.2h16.1c3.5,0,6.3-2.3,6.3-5.2v-94.1c0-2.8-2.8-5.2-6.3-5.2h-16.1&#10;&#9;&#9;&#9;c-3.5,0-6.3,2.3-6.3,5.2V209.8z" style="fill: rgb(27, 117, 187); stroke: rgb(0, 0, 0); stroke-width: 2; stroke-miterlimit: 10;" transform="matrix(1, 0, 0, 1, 5.684341886080802e-14, 1.4210854715202004e-14)"/>
<g transform="matrix(1, 0, 0, 1, 2.842170943040401e-14, 7.105427357601002e-15)">
		<g>
			<g>
				<path class="st14" d="M372.6,461.6v172.1h255V461.6c0-34.6-28-62.6-62.6-62.6H435.3C400.7,399,372.6,427,372.6,461.6z" style="fill: rgb(255, 36, 127); stroke: rgb(0, 0, 0); stroke-width: 2.3694; stroke-miterlimit: 10;"/>
				<path class="st11" d="M355.8,580.6h-21.3c-6.8,0-12.3-5.5-12.3-12.3v-26.9c0-6.8,5.5-12.3,12.3-12.3h21.3&#10;&#9;&#9;&#9;&#9;&#9;c6.8,0,12.3,5.5,12.3,12.3v26.9C368.1,575.1,362.6,580.6,355.8,580.6z" style="fill: rgb(255, 36, 127); stroke: rgb(0, 0, 0); stroke-width: 2; stroke-miterlimit: 10;"/>
				<path class="st11" d="M667.6,580.6h-21.3c-6.8,0-12.3-5.5-12.3-12.3v-26.9c0-6.8,5.5-12.3,12.3-12.3h21.3&#10;&#9;&#9;&#9;&#9;&#9;c6.8,0,12.3,5.5,12.3,12.3v26.9C680,575.1,674.4,580.6,667.6,580.6z" style="fill: rgb(255, 36, 127); stroke: rgb(0, 0, 0); stroke-width: 2; stroke-miterlimit: 10;"/>
			</g>
		</g>
	</g>
<g transform="matrix(1, 0, 0, 1, 2.842170943040401e-14, 7.105427357601002e-15)">
		<path d="M 22.200001 719.299988 H 1389.00005 V 980 H 22.200001 V 719.299988 Z" class="st15" style="fill: rgb(108, 60, 42); stroke: rgb(0, 0, 0); stroke-width: 2.3694; stroke-miterlimit: 10;"/>
		<g>
			<path d="M 1419.199951171875 719.5999755859375 L -7.900000095367432 719.5999755859375 L 84.5999984741211 569.2000122070312 L 1326.699951171875 569.2000122070312 Z" class="st9" style="fill: rgb(27, 117, 187); stroke: rgb(0, 0, 0); stroke-width: 2; stroke-miterlimit: 10;"/>
			<path d="M -7.9 719.599976 H 1419.299951 V 771.699974 H -7.9 V 719.599976 Z" class="st11" style="fill: rgb(9, 53, 84); stroke: rgb(0, 0, 0); stroke-width: 2; stroke-miterlimit: 10;"/>
		</g>
	</g>
<g transform="matrix(1, 0, 0, 1, 2.842170943040401e-14, 7.105427357601002e-15)">
		<g>
			<g>
				<path d="M 584.900024 585.200012 L 584.900024 589.900024 L 639.900024 645.700012 L 640.599976 632.200012 L 584.900024 585.200012" class="st16" style="fill: rgb(190, 191, 193);"/>
				<path d="M 584.900024 585.200012 L 584.900024 589.900024 L 639.900024 645.700012 L 640.599976 632.200012 L 584.900024 585.200012" class="st17" style="fill: none; stroke: rgb(0, 0, 0); stroke-width: 2.3694; stroke-linecap: round; stroke-miterlimit: 10;"/>
			</g>
			<g>
				<path class="st16" d="M908.9,635.9c0,6.1,1.8,11.1,4.1,11.2c2.2,0.1,4.1-4.8,4.1-10.9s-1.8-11.1-4.1-11.2&#10;&#9;&#9;&#9;&#9;&#9;C910.7,625,908.9,629.9,908.9,635.9z" style="fill: rgb(190, 191, 193);"/>
				<path class="st17" d="M908.9,635.9c0,6.1,1.8,11.1,4.1,11.2c2.2,0.1,4.1-4.8,4.1-10.9s-1.8-11.1-4.1-11.2&#10;&#9;&#9;&#9;&#9;&#9;C910.7,625,908.9,629.9,908.9,635.9z" style="fill: none; stroke: rgb(0, 0, 0); stroke-width: 2.3694; stroke-linecap: round; stroke-miterlimit: 10;"/>
			</g>
			<path d="M 584.9000244140625 585.2000122070312 L 837.5 585.2000122070312 L 913.4000244140625 625.2999877929688 L 640.5999755859375 632.2000122070312 Z" class="st18" style="fill: rgb(255, 255, 255); stroke: rgb(0, 0, 0); stroke-width: 2.3694; stroke-linecap: round; stroke-linejoin: round; stroke-miterlimit: 10;"/>
			<g>
				<path d="M 640.5999755859375 632.2000122070312 L 913 625.0999755859375 L 913 647.0999755859375 L 637.7000122070312 649.7000122070312 Z" class="st16" style="fill: rgb(190, 191, 193);"/>
				<path d="M 640.5999755859375 632.2000122070312 L 913 625.0999755859375 L 913 647.0999755859375 L 637.7000122070312 649.7000122070312 Z" class="st17" style="fill: none; stroke: rgb(0, 0, 0); stroke-width: 2.3694; stroke-linecap: round; stroke-miterlimit: 10;"/>
			</g>
			<path class="st19" d="M633.6,640.7c0,4.8,1.8,8.9,4.1,9s4.1-3.7,4.1-8.6s-1.8-8.9-4.1-9C635.4,632,633.6,635.8,633.6,640.7z" style="fill: rgb(132, 134, 137); stroke: rgb(0, 0, 0); stroke-width: 2.3694; stroke-linecap: round; stroke-miterlimit: 10;"/>
		</g>
	</g>
<g transform="matrix(1, 0, 0, 1, 2.842170943040401e-14, 7.105427357601002e-15)">
		<g>
			<path class="st20" d="M1304.5,256.1H826.7c-13.8,0-20.6,6.4-20.6,23.5v302.1h0v6.8v1.4c0,0.8,0,1.6,0,2.4c0,0.2,0,0.5,0,0.7&#10;&#9;&#9;&#9;&#9;c0,0.5,0.1,1,0.1,1.5c0,0.3,0.1,0.5,0.1,0.7c0,0.5,0.1,0.9,0.2,1.4c0,0.2,0.1,0.4,0.1,0.6c0.1,0.4,0.1,0.9,0.2,1.3&#10;&#9;&#9;&#9;&#9;c0,0.2,0.1,0.4,0.1,0.6c0.1,0.4,0.2,0.8,0.3,1.2c0.1,0.2,0.1,0.4,0.2,0.5c0.1,0.4,0.2,0.8,0.4,1.2c0.1,0.2,0.1,0.3,0.2,0.5&#10;&#9;&#9;&#9;&#9;c0.1,0.4,0.3,0.7,0.4,1.1c0.1,0.2,0.1,0.3,0.2,0.4c0.2,0.3,0.3,0.7,0.5,1c0.1,0.1,0.2,0.2,0.2,0.4c0.2,0.3,0.4,0.6,0.6,0.9&#10;&#9;&#9;&#9;&#9;c0.1,0.1,0.2,0.2,0.3,0.3c0.2,0.3,0.4,0.6,0.7,0.9c0.1,0.1,0.2,0.2,0.3,0.3c0.2,0.3,0.5,0.5,0.7,0.8c0.1,0.1,0.2,0.2,0.3,0.3&#10;&#9;&#9;&#9;&#9;c0.3,0.2,0.5,0.5,0.8,0.7c0.1,0.1,0.2,0.1,0.3,0.2c0.3,0.2,0.6,0.4,0.9,0.6c0.1,0.1,0.2,0.1,0.3,0.2c0.3,0.2,0.6,0.4,1,0.5&#10;&#9;&#9;&#9;&#9;c0.1,0.1,0.2,0.1,0.4,0.2c0.3,0.2,0.7,0.3,1,0.5c0.1,0,0.3,0.1,0.4,0.1c0.3,0.1,0.7,0.2,1,0.3v0c0.1,0,0.1,0,0.1,0v-30.6h506.6&#10;&#9;&#9;&#9;&#9;V278.4C1325.1,261.3,1318.3,256.1,1304.5,256.1z" style="fill: rgb(202, 204, 204); stroke: rgb(0, 0, 0); stroke-width: 2.3694; stroke-miterlimit: 10;"/>
			<path class="st21" d="M1305,256.1H838.5c-13.5,0-20.1,6.4-20.1,23.5v302.1h0v19.7c0,0-0.1,0-0.1,0v10.9c0,0,0.1,0,0.1,0v0&#10;&#9;&#9;&#9;&#9;c0.2,0.1,0.4,0.1,0.6,0.2c0.4,0.1,0.8,0.2,1.2,0.3c0.2,0,0.5,0.1,0.7,0.1c0.4,0.1,0.9,0.2,1.3,0.2c0.3,0,0.7,0.1,1,0.1&#10;&#9;&#9;&#9;&#9;c0.4,0,0.8,0.1,1.2,0.1c0.7,0,1.5,0.1,2.3,0.1h477.8c13.8,0,20.6-7.7,20.6-24.7v-1.4v-5.6V278.4&#10;&#9;&#9;&#9;&#9;C1325.1,261.3,1318.5,256.1,1305,256.1z" style="fill: rgb(70, 77, 72); stroke: rgb(0, 0, 0); stroke-width: 2.3694; stroke-miterlimit: 10;"/>
			<path class="st22" d="M1100.9,351.6c-9.7,0-17.5-7.8-17.5-17.5c0-3.8,1.2-7.3,3.3-10.2c-4-1.9-8.4-2.9-13.1-2.9&#10;&#9;&#9;&#9;&#9;c-16.9,0-30.6,13.7-30.6,30.6s13.7,30.6,30.6,30.6s30.6-13.7,30.6-30.6c0-0.1,0-0.2,0-0.3C1103.1,351.5,1102,351.6,1100.9,351.6z&#10;&#9;&#9;&#9;&#9;" style="fill: rgb(233, 235, 234); stroke: rgb(0, 0, 0); stroke-width: 2.3694; stroke-miterlimit: 10;"/>
			<g>
				<path class="st23" d="M1117.1,678.2c4.3,3.6,1.7,10.6-3.9,10.6h-91.1c-2.7,0-5.4-0.7-7.9-2l-32.8-17.6c-0.5-2.3,1.2-4.4,3.5-4.4&#10;&#9;&#9;&#9;&#9;&#9;h116.5L1117.1,678.2z" style="fill: rgb(183, 185, 187); stroke: rgb(0, 0, 0); stroke-width: 2.3694; stroke-miterlimit: 10;"/>
				<path class="st24" d="M1094.8,455.5h-46.1c-6.7,0-12.3,5.2-12.8,11.9l-18.5,207.7c0,0-0.7,5.6-8.4,6.2&#10;&#9;&#9;&#9;&#9;&#9;c-2.3,0.2-27.3-14.4-27.3-14.4s-0.5,1.3-0.2,2.3l31.9,17.4c3,1.4,6.4,2.2,9.7,2.2h87c10.5,0,18.9-8.9,18.2-19.4l-20.7-201.9&#10;&#9;&#9;&#9;&#9;&#9;C1107.1,460.7,1101.5,455.5,1094.8,455.5z M1073,581.4c-12.1,0-21.9-9.8-21.9-21.9s9.8-21.9,21.9-21.9&#10;&#9;&#9;&#9;&#9;&#9;c12.1,0,21.9,9.8,21.9,21.9S1085.1,581.4,1073,581.4z" style="fill: rgb(237, 237, 238); stroke: rgb(0, 0, 0); stroke-width: 2.3694; stroke-miterlimit: 10;"/>
			</g>
		</g>
	</g>
<path class="st14" d="M210.6,592.2V606c-2.9-1-6.1-1.3-9.5-0.3c-6,1.7-10.6,6.7-11.5,12.9c-1.5,9.9,6.1,18.4,15.8,18.4&#10;&#9;&#9;c1.8,0,3.6-0.3,5.3-0.9v18.4c0,5,4.1,9.1,9.1,9.1h35.8c5,0,9.1-4.1,9.1-9.1v-62.3H210.6z M205.4,630.6c-5.9,0-10.6-5.4-9.3-11.5&#10;&#9;&#9;c0.7-3.5,3.5-6.3,7-7.2c2.8-0.6,5.4-0.1,7.5,1.3V629C209.1,630,207.3,630.6,205.4,630.6z" style="fill: rgb(238, 71, 65); stroke: rgb(0, 0, 0); stroke-width: 2.3694; stroke-miterlimit: 10;" transform="matrix(1, 0, 0, 1, 2.842170943040401e-14, 7.105427357601002e-15)"/>
<g transform="matrix(1, 0, 0, 1, 2.842170943040401e-14, 7.105427357601002e-15)">
		<path class="st25" d="M66.7,645.9h70.6c1.3,0,2.6-0.7,3.3-1.8l34.9-56.2c0.9-1.5,0.1-2.9-1.7-2.9l-67.1,0.3&#10;&#9;&#9;&#9;c-1.2,0-2.5,0.7-3.2,1.6L65,642.9C64,644.4,64.8,645.9,66.7,645.9z" style="fill: rgb(230, 231, 232); stroke: rgb(0, 0, 0); stroke-width: 2.3694; stroke-miterlimit: 10;"/>
		<path class="st3" d="M63.9,641.5l70.7,0c1.3,0,2.6-0.7,3.3-1.8l34.9-56.2c0.9-1.5,0.1-2.9-1.8-2.9l-67.2,0.4&#10;&#9;&#9;&#9;c-1.2,0-2.5,0.7-3.2,1.6l-38.3,55.9C61.2,640,62,641.5,63.9,641.5z" style="fill: rgb(255, 255, 255); stroke: rgb(0, 0, 0); stroke-width: 2.3694; stroke-miterlimit: 10;"/>
		<path class="st25" d="M66.6,639.4l70.7,0c1.3,0,2.6-0.7,3.3-1.8l34.9-56.2c0.9-1.5,0.1-2.9-1.8-2.9l-67.3,0.4&#10;&#9;&#9;&#9;c-1.2,0-2.5,0.7-3.2,1.6l-38.4,55.9C63.9,637.9,64.8,639.4,66.6,639.4z" style="fill: rgb(230, 231, 232); stroke: rgb(0, 0, 0); stroke-width: 2.3694; stroke-miterlimit: 10;"/>
		<path class="st3" d="M63.8,635l70.8-0.1c1.3,0,2.6-0.7,3.3-1.8l34.9-56.2c0.9-1.5,0.1-2.9-1.8-2.9l-67.4,0.4&#10;&#9;&#9;&#9;c-1.2,0-2.5,0.7-3.2,1.6L62.1,632C61.1,633.5,62,635,63.8,635z" style="fill: rgb(255, 255, 255); stroke: rgb(0, 0, 0); stroke-width: 2.3694; stroke-miterlimit: 10;"/>
		<g>
			<path class="st25" d="M60.9,628l71-0.1c1.3,0,2.6-0.7,3.3-1.8l34.8-56.2c0.9-1.5,0-2.9-1.8-2.8l-67.5,0.4c-1.2,0-2.5,0.7-3.2,1.6&#10;&#9;&#9;&#9;&#9;L59.2,625C58.2,626.4,59,628,60.9,628z" style="fill: rgb(230, 231, 232); stroke: rgb(0, 0, 0); stroke-width: 2.3694; stroke-miterlimit: 10;"/>
			<path class="st3" d="M58.1,623.6l71.1-0.1c1.3,0,2.6-0.7,3.3-1.8l34.7-56.2c0.9-1.5,0-2.9-1.8-2.8l-67.6,0.4&#10;&#9;&#9;&#9;&#9;c-1.2,0-2.5,0.7-3.2,1.6l-38.2,55.9C55.3,622.1,56.2,623.6,58.1,623.6z" style="fill: rgb(255, 255, 255); stroke: rgb(0, 0, 0); stroke-width: 2.3694; stroke-miterlimit: 10;"/>
			<path class="st25" d="M60.8,621.4l71.1-0.1c1.3,0,2.6-0.7,3.3-1.8l34.8-56.2c0.9-1.5,0-2.9-1.8-2.8l-67.7,0.5&#10;&#9;&#9;&#9;&#9;c-1.2,0-2.5,0.7-3.2,1.6l-38.3,55.9C58.1,619.9,59,621.4,60.8,621.4z" style="fill: rgb(230, 231, 232); stroke: rgb(0, 0, 0); stroke-width: 2.3694; stroke-miterlimit: 10;"/>
			<path class="st3" d="M58,617.1l71.2-0.2c1.3,0,2.6-0.7,3.3-1.8l34.7-56.2c0.9-1.5,0-2.9-1.8-2.8l-67.8,0.5&#10;&#9;&#9;&#9;&#9;c-1.2,0-2.5,0.7-3.2,1.6l-38.2,55.9C55.2,615.6,56.1,617.1,58,617.1z" style="fill: rgb(255, 255, 255); stroke: rgb(0, 0, 0); stroke-width: 2.3694; stroke-miterlimit: 10;"/>
		</g>
	</g>
<g transform="matrix(1, 0, 0, 1, 2.842170943040401e-14, 7.105427357601002e-15)">
		<path d="M 190.699997 334.799988 L 66.400002 474.700012 L 112.300003 646.599976" class="st26" style="fill: none; stroke: rgb(0, 0, 0); stroke-width: 4.7388; stroke-miterlimit: 10;"/>
		<path d="M 203.600006 338.600006 L 79.199997 478.5 L 125.199997 650.400024" class="st26" style="fill: none; stroke: rgb(0, 0, 0); stroke-width: 4.7388; stroke-miterlimit: 10;"/>
		<path d="M 117.300003 645.900024 L 117.300003 673.400024" class="st26" style="fill: none; stroke: rgb(0, 0, 0); stroke-width: 4.7388; stroke-miterlimit: 10;"/>
		<path d="M 88.200003 474.700012 A 12.9 12.9 0 0 1 75.300003 487.600012 A 12.9 12.9 0 0 1 62.400003 474.700012 A 12.9 12.9 0 0 1 75.300003 461.800013 A 12.9 12.9 0 0 1 88.200003 474.700012 Z" class="st14" style="fill: rgb(238, 71, 65); stroke: rgb(0, 0, 0); stroke-width: 2.3694; stroke-miterlimit: 10;"/>
		<path d="M 211.4 334.799988 A 12.9 12.9 0 0 1 198.5 347.699987 A 12.9 12.9 0 0 1 185.6 334.799988 A 12.9 12.9 0 0 1 198.5 321.899988 A 12.9 12.9 0 0 1 211.4 334.799988 Z" class="st14" style="fill: rgb(238, 71, 65); stroke: rgb(0, 0, 0); stroke-width: 2.3694; stroke-miterlimit: 10;"/>
		<path d="M 130.200003 645.900024 A 12.9 12.9 0 0 1 117.300003 658.800024 A 12.9 12.9 0 0 1 104.400003 645.900024 A 12.9 12.9 0 0 1 117.300003 633.000025 A 12.9 12.9 0 0 1 130.200003 645.900024 Z" class="st14" style="fill: rgb(238, 71, 65); stroke: rgb(0, 0, 0); stroke-width: 2.3694; stroke-miterlimit: 10;"/>
		<path d="M 86.5 671.5 H 190.400002 V 677.9 H 86.5 V 671.5 Z" class="st27" style="fill: rgb(24, 8, 1); stroke: rgb(0, 0, 0); stroke-width: 2.3694; stroke-miterlimit: 10;"/>
		<path d="M 86.5 677.799988 H 190.400002 V 690.699987 H 86.5 V 677.799988 Z" class="st28" style="fill: rgb(109, 110, 113); stroke: rgb(0, 0, 0); stroke-width: 2.3694; stroke-miterlimit: 10;"/>
		<path class="st29" d="M310.4,358.8h-75.6c-4.3,0-7.7-3.5-7.7-7.7v-4.7c0-4.3,3.5-7.7,7.7-7.7h75.6c4.3,0,7.7,3.5,7.7,7.7v4.7&#10;&#9;&#9;&#9;C318.2,355.3,314.7,358.8,310.4,358.8z" style="fill: rgb(255, 222, 142); stroke: rgb(0, 0, 0); stroke-width: 2.3694; stroke-miterlimit: 10;"/>
		<path class="st14" d="M208.2,348.7H337v0c0-29.5-23.9-53.5-53.5-53.5h-54.4c-11.6,0-21,9.4-21,21V348.7z" style="fill: rgb(238, 71, 65); stroke: rgb(0, 0, 0); stroke-width: 2.3694; stroke-miterlimit: 10;"/>
		<path class="st14" d="M151.9,660.9h3c2.2,0,3.9,1.7,3.9,3.9v6.7H148v-6.7C148,662.6,149.8,660.9,151.9,660.9z" style="fill: rgb(238, 71, 65); stroke: rgb(0, 0, 0); stroke-width: 2.3694; stroke-miterlimit: 10;"/>
	</g>
<g transform="matrix(1, 0, 0, 1, 2.842170943040401e-14, 7.105427357601002e-15)">
		<path class="st30" d="M421.2,604.8c-0.9,0.1-1.7,0.4-2.5,0.6c-11.9,4.6-21.7,11-28.1,18.5c0-0.4,18.7-21.6,26.5-32.2&#10;&#9;&#9;&#9;c9.2-12.5,14.9-26.6,8.3-39.7c-2.8-1.2-3.9-0.2-4.8,0.7c-10.3,10.8-15,23-19.3,35.1c-3.6,10.3-7.1,20.5-10.2,30.9&#10;&#9;&#9;&#9;c1-15.1-0.4-30.2-4.2-45.1c-2.2-8.3-5.1-16.6-11.8-24s-17.5-13.8-31.1-16.2c-3.9,8,2.7,16.3,8.8,23.7c17.4,21.4,31.9,44,36.4,67.5&#10;&#9;&#9;&#9;c-0.4,0.5-4.7-8.6-6.6-13.4c-2.6-6.5-5.2-13.2-10.7-19s-14.2-11-25.2-12.7c-0.9-0.1-1.9-0.2-2.5,0.2c-0.4,0.3-0.4,0.7-0.3,1.1&#10;&#9;&#9;&#9;c2.1,13.1,15.8,24.4,29,35c4.9,4,9.9,7.9,14.8,11.9l2.4,0.3c12.9-4.1,24.2-10,32.6-17.1c1.3-1.1,2.5-2.2,2.5-3.6&#10;&#9;&#9;&#9;C425.1,606.1,423.4,604.7,421.2,604.8z" style="fill: rgb(41, 180, 115); stroke: rgb(0, 0, 0); stroke-width: 2.3694; stroke-miterlimit: 10;"/>
		<g>
			<path class="st31" d="M347.8,626v12.6h9.2l7.8,46.4c0.4,2.2,2.3,3.8,4.5,3.8h41.3c2.2,0,4.1-1.6,4.5-3.8l7.8-46.4h9.2V626H347.8z&#10;&#9;&#9;&#9;&#9;" style="fill: rgb(220, 113, 39); stroke: rgb(0, 0, 0); stroke-width: 2.3694; stroke-miterlimit: 10;"/>
		</g>
	</g>
<g transform="matrix(1, 0, 0, 1, 2.842170943040401e-14, 7.105427357601002e-15)">
		<g>
			<g>
				<path class="st32" d="M293.9,454.5h-94.9c-1.3,0-2.4-1.1-2.4-2.4l0,0c0-1.3,1.1-2.4,2.4-2.4h94.9c1.3,0,2.4,1.1,2.4,2.4l0,0&#10;&#9;&#9;&#9;&#9;&#9;C296.3,453.5,295.3,454.5,293.9,454.5z" style="fill: rgb(149, 211, 240);"/>
			</g>
			<g>
				<path d="M 46.700001 269.899994 H 75.400002 V 274.699994 H 46.700001 V 269.899994 Z" class="st32" style="fill: rgb(149, 211, 240);"/>
			</g>
			<g>
				<path class="st32" d="M254.7,474h-55.6c-1.3,0-2.4-1.1-2.4-2.4l0,0c0-1.3,1.1-2.4,2.4-2.4h55.6c1.3,0,2.4,1.1,2.4,2.4l0,0&#10;&#9;&#9;&#9;&#9;&#9;C257.1,472.9,256,474,254.7,474z" style="fill: rgb(149, 211, 240);"/>
			</g>
			<g>
				<path d="M 100.900002 306.100006 H 129.600002 V 310.900006 H 100.900002 V 306.100006 Z" class="st32" style="fill: rgb(149, 211, 240);"/>
			</g>
			<g>
				<path d="M 115.300003 326.299988 H 129.600003 V 331.099988 H 115.300003 V 326.299988 Z" class="st32" style="fill: rgb(149, 211, 240);"/>
			</g>
			<g>
				<path d="M 617.099976 22.5 H 751.899979 V 27.3 H 617.099976 V 22.5 Z" class="st32" style="fill: rgb(149, 211, 240);"/>
			</g>
			<g>
				<path d="M 617.099976 42 H 698.799973 V 46.8 H 617.099976 V 42 Z" class="st32" style="fill: rgb(149, 211, 240);"/>
			</g>
			<g>
				<path d="M 681.599976 179.899994 H 787.599976 V 184.699994 H 681.599976 V 179.899994 Z" class="st32" style="fill: rgb(149, 211, 240);"/>
			</g>
			<g>
				<path d="M 724.900024 201.899994 H 794.200027 V 206.699994 H 724.900024 V 201.899994 Z" class="st32" style="fill: rgb(149, 211, 240);"/>
			</g>
			<g>
				<path d="M 779.799988 222 H 794.099988 V 226.8 H 779.799988 V 222 Z" class="st32" style="fill: rgb(149, 211, 240);"/>
			</g>
			<g>
				<path d="M 216.600006 60.799999 H 322.600006 V 65.599999 H 216.600006 V 60.799999 Z" class="st32" style="fill: rgb(149, 211, 240);"/>
			</g>
			<g>
				<path d="M 287.399994 82.800003 H 356.699997 V 87.600003 H 287.399994 V 82.800003 Z" class="st32" style="fill: rgb(149, 211, 240);"/>
			</g>
			<g>
				<path d="M 246.5 102.900002 H 304 V 107.700002 H 246.5 V 102.900002 Z" class="st32" style="fill: rgb(149, 211, 240);"/>
			</g>
			<g>
				<path d="M 526.799988 295.700012 H 599.899986 V 300.500012 H 526.799988 V 295.700012 Z" class="st32" style="fill: rgb(149, 211, 240);"/>
			</g>
			<g>
				<path d="M 620.599976 295.700012 H 636.199976 V 300.500012 H 620.599976 V 295.700012 Z" class="st32" style="fill: rgb(149, 211, 240);"/>
			</g>
			<g>
				<path d="M 545.200012 332.600006 H 618.300011 V 337.400006 H 545.200012 V 332.600006 Z" class="st32" style="fill: rgb(149, 211, 240);"/>
			</g>
			<g>
				<path d="M 1017 201.199997 H 1090.099998 V 205.999997 H 1017 V 201.199997 Z" class="st32" style="fill: rgb(149, 211, 240);"/>
			</g>
			<g>
				<path d="M 1110.800049 201.199997 H 1126.400049 V 205.999997 H 1110.800049 V 201.199997 Z" class="st32" style="fill: rgb(149, 211, 240);"/>
			</g>
			<g>
				<path d="M 1287.699951 231.699997 H 1360.79995 V 236.499997 H 1287.699951 V 231.699997 Z" class="st32" style="fill: rgb(149, 211, 240);"/>
			</g>
		</g>
	</g>
<path d="M 470.1446533203125 470.1446533203125" style="fill: rgb(255, 145, 217); fill-opacity: 0.99; stroke: rgb(0, 0, 0); stroke-opacity: 0.12; stroke-width: 15; paint-order: stroke;"/></svg>